<svg width="32" height="32" viewBox="0 0 32 32" xmlns="http://www.w3.org/2000/svg">
    <path
        d="M12.6151 16.5174C12.6791 16.7201 12.7538 16.8676 12.8391 16.9316C12.9245 17.0063 13.0525 17.0383 13.2445 17.0383H14.16C14.352 17.0383 14.5014 17.0063 14.5849 16.9316C14.6703 16.857 14.7343 16.7183 14.7876 16.5068L16.4267 9.65343L18.0765 16.5174C18.1191 16.7308 18.1938 16.8676 18.2791 16.9441C18.3645 17.0188 18.5031 17.0508 18.7058 17.0508H19.6214C19.8027 17.0508 19.9414 17.0081 20.0267 16.9441C20.112 16.8801 20.1867 16.7414 20.2507 16.5281L22.816 8.30232C22.8587 8.18498 22.88 8.09965 22.8907 8.03565C22.9014 7.97165 22.912 7.91832 22.912 7.86498C22.912 7.68543 22.816 7.60009 22.6454 7.60009H21.6551C21.4631 7.60009 21.3245 7.64276 21.2409 7.70676C21.1663 7.77076 21.0916 7.90943 21.0276 8.12276L19.1823 15.2499L17.5005 8.11921C17.4578 7.91654 17.3831 7.76721 17.2978 7.70321C17.2125 7.62854 17.0738 7.59654 16.8711 7.59654H16.0196C15.8276 7.59654 15.6783 7.63921 15.5929 7.70321C15.5076 7.76721 15.4436 7.90587 15.3903 8.11921L13.7334 15.1645L11.9449 8.11921C11.8809 7.91654 11.8169 7.76721 11.7316 7.70321C11.6569 7.62854 11.5183 7.59654 11.3174 7.59654H10.2738C10.1031 7.59654 10.0178 7.69254 10.0178 7.86143C10.0178 7.93609 10.0498 8.07476 10.1138 8.28809L12.6151 16.5174ZM24.0569 16.7076C24.3343 16.8676 24.7485 17.0063 25.28 17.1343C25.8116 17.2623 26.3663 17.3263 26.9191 17.3263C27.4614 17.3263 27.9627 17.2516 28.4409 17.1023C28.8978 16.9636 29.2925 16.7716 29.6214 16.5068C29.952 16.2508 30.2063 15.9325 30.3983 15.5699C30.5796 15.2072 30.6756 14.793 30.6756 14.3361C30.6756 13.7814 30.5156 13.2819 30.1867 12.8463C29.8578 12.4108 29.3031 12.0694 28.5369 11.8241L27.0258 11.3441C26.4623 11.1628 26.0676 10.9601 25.8543 10.7592C25.6409 10.5565 25.536 10.3023 25.536 10.0036C25.536 9.56809 25.7067 9.25876 26.0356 9.05609C26.3663 8.85343 26.8445 8.75743 27.4507 8.75743C28.2063 8.75743 28.8871 8.89609 29.4934 9.17343C29.6747 9.25876 29.8134 9.30143 29.8969 9.30143C30.0569 9.30143 30.1423 9.18409 30.1423 8.96009V8.46054C30.1423 8.31121 30.1103 8.19387 30.0463 8.10854C29.9823 8.01254 29.8756 7.92898 29.7263 7.84365C29.6196 7.77965 29.4703 7.71565 29.28 7.65165C29.088 7.58765 28.8854 7.53432 28.6738 7.48098C28.4498 7.43832 28.2276 7.39565 27.9823 7.36365C27.7476 7.33165 27.504 7.32098 27.2694 7.32098C26.8018 7.32098 26.3538 7.37432 25.9289 7.50232C25.504 7.63032 25.1414 7.81165 24.8214 8.05521C24.5014 8.28809 24.2471 8.58676 24.0551 8.92809C23.8631 9.26943 23.7671 9.66232 23.7671 10.1103C23.7671 10.6632 23.9485 11.1859 24.2987 11.6534C24.6507 12.1334 25.2249 12.4943 26.0018 12.7379L27.5449 13.2179C28.0658 13.3885 28.4285 13.5699 28.6205 13.7708C28.8125 13.9734 28.9085 14.2188 28.9085 14.5156C28.9085 14.953 28.7165 15.2925 28.3556 15.5272C27.9929 15.7601 27.472 15.8774 26.8018 15.8774C26.3751 15.8774 25.9609 15.8348 25.536 15.7494C25.12 15.6641 24.7271 15.5361 24.3645 15.3779C24.2578 15.3352 24.1618 15.2925 24.0978 15.2712C24.0338 15.2499 23.9698 15.2392 23.9058 15.2392C23.7458 15.2392 23.6605 15.3459 23.6605 15.5699V16.1121C23.6605 16.2081 23.6818 16.3148 23.7245 16.409C23.7689 16.5068 23.8863 16.6116 24.0569 16.7076ZM6.0267 11.5361C5.63203 11.4828 5.26047 11.4508 4.89781 11.4508C3.80092 11.4508 2.9387 11.7281 2.28981 12.281C1.64092 12.8339 1.32092 13.5681 1.32092 14.473C1.32092 15.3245 1.58759 16.0054 2.10847 16.5174C2.62936 17.0276 3.34403 17.2836 4.23647 17.2836C5.49159 17.2836 6.53514 16.7948 7.36536 15.8152C7.4827 16.0605 7.58936 16.2632 7.69425 16.4428C7.80092 16.6134 7.92892 16.7841 8.07825 16.9441C8.18492 17.0401 8.29159 17.0934 8.39825 17.0934C8.48359 17.0934 8.57959 17.0614 8.67559 16.9974L9.34581 16.5494C9.48448 16.4428 9.54848 16.3361 9.54848 16.2294C9.54848 16.1548 9.52714 16.0694 9.47381 15.9841C9.32448 15.7068 9.21781 15.4525 9.13247 15.2179C9.05781 14.9832 9.01514 14.6632 9.01514 14.2703H8.99381V10.8232C8.99381 9.65343 8.69514 8.77876 8.11025 8.20454C7.5147 7.63032 6.58847 7.34232 5.3227 7.34232C4.73781 7.34232 4.18314 7.40632 3.66225 7.54498C3.14136 7.67298 2.69336 7.83121 2.32181 8.02498C2.17247 8.09965 2.07647 8.17432 2.02314 8.24898C1.96981 8.32365 1.94847 8.45165 1.94847 8.62054V9.14143C1.94847 9.36543 2.02314 9.47209 2.17247 9.47209C2.21514 9.47209 2.26847 9.46143 2.34314 9.44009C2.41781 9.41876 2.54581 9.37609 2.7147 9.30143C3.08625 9.15209 3.47025 9.03654 3.86492 8.93876C4.25781 8.84276 4.64181 8.80009 5.01514 8.80009C5.8347 8.80009 6.40892 8.96009 6.75025 9.28898C7.07914 9.61965 7.24981 10.1832 7.24981 10.9921V11.769C6.82492 11.6748 6.42136 11.5894 6.0267 11.5361ZM7.27292 12.9619V13.4081C7.27292 13.7708 7.23025 14.0783 7.16625 14.3343C7.10225 14.5903 6.97425 14.8125 6.80359 15.0152C6.51736 15.3334 6.17603 15.5681 5.79203 15.6961C5.40981 15.8241 5.04714 15.8881 4.69514 15.8881C4.20625 15.8881 3.83292 15.7601 3.57692 15.4934C3.31025 15.2374 3.18225 14.8659 3.18225 14.3663C3.18225 13.833 3.35292 13.4294 3.70314 13.1432C4.05514 12.8552 4.57603 12.7165 5.28892 12.7165C5.61959 12.7165 5.94848 12.7379 6.28981 12.7805C6.6347 12.8232 6.96359 12.8872 7.27292 12.9619ZM31.8791 19.6872C31.4951 19.2196 28.208 18.8143 26.2063 20.2205C25.8969 20.4445 25.9503 20.7414 26.2916 20.6988C27.4311 20.5601 29.9414 20.2632 30.3894 20.8374C30.8374 21.401 29.8898 23.7743 29.4631 24.8285C29.3351 25.1485 29.6125 25.2765 29.8987 25.0312C31.7725 23.4561 32.2614 20.1672 31.8791 19.6872ZM28.4196 21.689C24.4925 23.3494 20.224 24.1583 16.3396 24.1583C10.5814 24.1583 5.01514 22.5725 0.503141 19.9539C0.110252 19.7192 -0.188414 20.1245 0.142252 20.4214C4.3147 24.1885 9.83825 26.4552 15.968 26.4552C20.3414 26.4552 25.4294 25.0828 28.9316 22.4961C29.5058 22.0712 29.0045 21.4223 28.4196 21.689Z" />
</svg>