<svg width="24" height="24" viewBox="0 0 24 24" fill="none" xmlns="http://www.w3.org/2000/svg">
<g clip-path="url(#clip0_11448_175)">
<g clip-path="url(#clip1_11448_175)">
<path d="M9.2696 21.7543L6.7915 21.0598L4.44766 18.3872L7.37941 18.3063L9.2696 21.7543ZM3.53913 19.9918L2.1446 19.6012L0.82666 18.0981L2.4281 17.8347L3.53913 19.9918Z" fill="#995B80"/>
<path d="M0 17.9091L1.42538 18.1989L1.63228 17.835V5.48594L1.42538 5.24585L0 6.05754V17.9091Z" fill="#7B3F65"/>
<path d="M6.93125 6.53641L1.42578 5.24585V18.1989L2.25059 18.1222L3.53909 19.9919L4.53284 17.9102L6.93125 17.6872V6.53641Z" fill="#C17B9D"/>
<path d="M3.18359 18.5763L5.627 19.0685L5.78787 18.6893V3.51132L5.627 3.16772L3.18359 4.40597V18.5763Z" fill="#7B3F65"/>
<path d="M19.5688 7.64344L5.62695 3.16772V19.0688L7.24142 18.8611L9.26952 21.7544L10.8751 18.3935L19.5688 17.2748V7.64344Z" fill="#C17B9D"/>
<path d="M17.0471 24.0474L13.5253 23.0607L10.1963 19.2638L14.5119 19.22L17.0471 24.0474Z" fill="#995B80"/>
<path d="M8.39893 19.5903L11.9924 20.2856L12.2715 20.0451V0.387189L11.9924 0.0012207L8.39893 1.79728V19.5903Z" fill="#7B3F65"/>
<path d="M24.0002 6.00431L11.9932 0.0012207V20.2856L14.1116 19.8611L17.047 24.0473L19.569 18.7684L19.5674 18.7682L24.0002 17.8801V6.00431Z" fill="#C17B9D"/>
</g>
</g>
<defs>
<clipPath id="clip0_11448_175">
<rect width="24" height="24" fill="white"/>
</clipPath>
<clipPath id="clip1_11448_175">
<rect width="24" height="24.0964" fill="white"/>
</clipPath>
</defs>
</svg>
