<svg width="24" height="24" viewBox="0 0 24 24" fill="none" xmlns="http://www.w3.org/2000/svg">
<g clip-path="url(#clip0_11448_132)">
<g clip-path="url(#clip1_11448_132)">
<path d="M9.2696 21.7543L6.7915 21.0598L4.44766 18.3872L7.37941 18.3063L9.2696 21.7543ZM3.53913 19.9918L2.1446 19.6012L0.82666 18.0981L2.4281 17.8347L3.53913 19.9918Z" fill="#737373"/>
<path d="M0 17.9091L1.42538 18.1989L1.63228 17.835V5.48594L1.42538 5.24585L0 6.05754V17.9091Z" fill="#565656"/>
<path d="M2.66229 17.8385L2.49604 17.5972L2.20431 17.6244L1.92578 17.6503V5.87661L6.43125 6.93276V17.2315L4.48657 17.4123L4.20391 17.4386L4.08162 17.6948L3.46027 18.9964L2.66229 17.8385Z" fill="white" stroke="#565656"/>
<path d="M3.18359 18.5763L5.627 19.0685L5.78787 18.6893V3.51132L5.627 3.16772L3.18359 4.40597V18.5763Z" fill="#565656"/>
<path d="M7.65085 18.5741L7.47737 18.3266L7.17761 18.3652L6.12695 18.5004V3.85337L19.0688 8.00806V16.835L10.8113 17.8976L10.5413 17.9323L10.4239 18.1779L9.18745 20.7662L7.65085 18.5741Z" fill="white" stroke="#565656"/>
<path d="M17.0471 24.0474L13.5253 23.0607L10.1963 19.2638L14.5119 19.22L17.0471 24.0474Z" fill="#737373"/>
<path d="M8.39893 19.5903L11.9924 20.2856L12.2715 20.0451V0.387189L11.9924 0.0012207L8.39893 1.79728V19.5903Z" fill="#565656"/>
<path d="M19.4692 18.2779L19.4874 18.7294L19.1178 18.5528L16.9649 23.0593L14.521 19.5741L14.3336 19.3067L14.0134 19.3709L12.4932 19.6755V0.810212L23.5002 6.31334V17.4703L19.4692 18.2779Z" fill="white" stroke="#565656"/>
</g>
</g>
<defs>
<clipPath id="clip0_11448_132">
<rect width="24" height="24" fill="white"/>
</clipPath>
<clipPath id="clip1_11448_132">
<rect width="24" height="24.0964" fill="white"/>
</clipPath>
</defs>
</svg>
