<svg width="24" height="24" viewBox="0 0 24 24" fill="none" xmlns="http://www.w3.org/2000/svg">
  <path d="M12.9309 12.4508C12.9309 11.7741 13.445 11.2304 14.0958 11.2304C14.7356 11.2304 15.261 11.7741 15.261 12.4508C15.261 13.1275 14.7469 13.6709 14.0958 13.6709C13.4563 13.6709 12.9309 13.1275 12.9309 12.4508Z" fill="#7289DA" />
  <path d="M8.76183 12.4508C8.76183 11.7741 9.27589 11.2304 9.92696 11.2304C10.578 11.2304 11.1034 11.7741 11.0919 12.4508C11.0919 13.1275 10.578 13.6709 9.92696 13.6709C9.28721 13.6709 8.76183 13.1275 8.76183 12.4508Z" fill="#7289DA" />
  <path fill-rule="evenodd" clip-rule="evenodd" d="M4.34156 2H19.6471C20.9378 2 21.9887 3.0206 22 4.27419V24L19.5329 21.9253L18.1507 20.6937L16.6888 19.3847L17.2941 21.415H4.34156C3.05075 21.415 2 20.3944 2 19.1405V4.27419C2 3.0206 3.05075 2 4.34156 2ZM14.4844 15.4795C14.827 15.89 15.2382 16.3672 15.2382 16.3672C17.6293 16.2934 18.6162 14.8562 18.7139 14.7138L18.7219 14.703C18.7219 11.1637 17.0772 8.2903 17.0772 8.2903C15.4438 7.10333 13.8789 7.13681 13.8789 7.13681L13.719 7.31401C15.6608 7.8801 16.5631 8.712 16.5631 8.712C15.3752 8.09078 14.2102 7.78 13.1252 7.65793C12.3026 7.56932 11.5146 7.59164 10.8179 7.68024C10.758 7.68024 10.707 7.6887 10.6492 7.69851L10.6236 7.70256C10.2239 7.74686 9.25309 7.8801 8.03086 8.40122C7.6082 8.57876 7.357 8.712 7.357 8.712C7.357 8.712 8.29355 7.83546 10.3495 7.26971L10.2353 7.13681C10.2353 7.13681 8.68193 7.10333 7.03721 8.2903C7.03721 8.2903 5.39232 11.1637 5.39232 14.703C5.39232 14.703 6.35185 16.3005 8.87603 16.3783C8.87603 16.3783 9.2987 15.89 9.64129 15.4683C8.19067 15.0469 7.64249 14.1704 7.64249 14.1704C7.64249 14.1704 7.67348 14.1917 7.73232 14.2276C7.78645 14.2604 7.86392 14.306 7.96228 14.3591C7.96924 14.3591 7.97603 14.3632 7.9856 14.3686C7.9917 14.3723 7.99901 14.3767 8.00806 14.3811C8.02547 14.3926 8.04288 14.401 8.06028 14.4095C8.07717 14.4176 8.09388 14.4257 8.11077 14.4365C8.25143 14.5133 8.39208 14.5816 8.53013 14.6435C8.67218 14.7071 8.81127 14.7632 8.94462 14.8139C9.41289 15.0026 9.97256 15.169 10.6236 15.2908C11.4803 15.4463 12.4854 15.5018 13.582 15.3019C14.1188 15.2022 14.667 15.0581 15.2382 14.8251C15.6379 14.6807 16.0833 14.47 16.5518 14.1704C16.5518 14.1704 15.9806 15.0689 14.4844 15.4795Z" fill="#7289DA" />
</svg>
