<svg width="24" height="24" viewBox="0 0 24 24" fill="none" xmlns="http://www.w3.org/2000/svg">
  <path d="M17.891 3H6.108C3.287 3 1 5.287 1 8.108V15.891C1 18.713 3.287 21 6.109 21H17.892C20.713 21 23 18.713 23 15.892V8.108C23 5.287 20.713 3 17.891 3Z" fill="#49B5E6" />
  <path d="M17.819 4.5H6.18C4.151 4.5 2.5 6.151 2.5 8.18V15.819C2.5 17.849 4.151 19.5 6.181 19.5H17.82C19.849 19.5 21.5 17.849 21.5 15.82V8.181C21.5 6.151 19.849 4.5 17.819 4.5ZM6.18 6H17.819C18.739 6 19.523 6.572 19.843 7.378C19.73 7.743 19.494 8.002 19.094 8.172L17.577 8.973C15.688 9.976 13.84 11.047 12 12.132C10.161 11.045 8.313 9.974 6.424 8.971L4.907 8.17C4.507 8 4.27 7.74 4.158 7.374C4.479 6.57 5.261 6 6.18 6ZM20 15.82C20 17.024 19.024 18 17.82 18H6.181C4.976 18 4 17.024 4 15.819V8.699C4.138 8.828 4.284 8.937 4.401 9.013L5.822 9.975C7.055 10.805 8.309 11.598 9.57 12.381L5.5 16.5L10.841 13.165C11.1 13.323 11.356 13.485 11.615 13.643L12.001 13.878L12.386 13.643C12.645 13.485 12.901 13.324 13.159 13.165L18.5 16.5L14.429 12.381C15.69 11.597 16.944 10.804 18.177 9.974L19.598 9.012C19.716 8.935 19.862 8.825 20 8.697V15.82Z" fill="white" />
</svg>
