<svg width="24" height="24" viewBox="0 0 24 24" xmlns="http://www.w3.org/2000/svg">
  <path d="M18.177 9.974C16.944 10.804 15.69 11.598 14.429 12.381L18.5 16.5L13.159 13.165C12.901 13.323 12.645 13.485 12.386 13.643L12.001 13.878L11.615 13.643C11.356 13.486 11.1 13.324 10.841 13.165L5.5 16.5L9.57 12.381C8.309 11.598 7.054 10.805 5.822 9.975L4.401 9.013C4.284 8.936 4.138 8.827 4 8.699V15.819C4 17.024 4.976 18 6.181 18H17.82C19.024 18 20 17.024 20 15.82V8.696C19.862 8.825 19.716 8.934 19.598 9.011L18.177 9.974ZM4.907 8.171L6.424 8.972C8.313 9.975 10.161 11.046 12 12.133C13.84 11.048 15.688 9.977 17.577 8.974L19.094 8.173C19.494 8.003 19.73 7.743 19.843 7.379C19.523 6.572 18.74 6 17.819 6H6.18C5.261 6 4.478 6.57 4.157 7.375C4.27 7.741 4.506 8 4.907 8.171ZM17.891 3H6.108C3.287 3 1 5.287 1 8.108V15.891C1 18.713 3.287 21 6.109 21H17.892C20.713 21 23 18.713 23 15.892V8.108C23 5.287 20.713 3 17.891 3ZM21.5 15.82C21.5 17.849 19.849 19.5 17.82 19.5H6.181C4.151 19.5 2.5 17.849 2.5 15.819V8.18C2.5 6.151 4.151 4.5 6.18 4.5H17.819C19.849 4.5 21.5 6.151 21.5 8.181V15.82Z" />
</svg>
