<svg width="16" height="16" viewBox="0 0 16 16" fill="none" xmlns="http://www.w3.org/2000/svg">
<g clip-path="url(#clip0_11656_16489)">
<path fill-rule="evenodd" clip-rule="evenodd" d="M4.0019 10.3776C4.90512 10.3776 5.62239 11.0949 5.62239 11.9981C5.62239 12.9014 4.90512 13.6186 4.0019 13.6186C3.09867 13.6186 2.3814 12.9014 2.3814 11.9981C2.3814 11.1215 3.09867 10.3776 4.0019 10.3776ZM11.148 11.148C12.8748 9.42129 12.8748 6.60535 11.148 4.87859C9.39469 3.12527 6.60531 3.12527 4.87856 4.87859C4.0019 5.75526 3.57685 6.871 3.57685 8.01332H1C1 6.23343 1.6907 4.42698 3.04554 3.07214C5.78178 0.309335 10.2182 0.309335 12.9545 3.04558C15.6907 5.78182 15.6907 10.2183 12.9545 12.9545C11.5996 14.3093 9.79317 15 8.01328 15V12.4232C9.12903 12.4232 10.2713 11.9981 11.148 11.148Z" fill="#1D8BE2"/>
</g>
<defs>
<clipPath id="clip0_11656_16489">
<rect width="14" height="14" fill="white" transform="translate(1 1)"/>
</clipPath>
</defs>
</svg>
