<svg width="25" height="24" viewBox="0 0 25 24" fill="none" xmlns="http://www.w3.org/2000/svg">
<path d="M22.84 7.67L22.75 7.58V6C22.75 3.24 20.51 1 17.75 1C17 1 16.29 1.18 15.65 1.48C15.1 1.19 14.48 1 13.82 1H6.68C4.51 1 2.75 2.76 2.75 4.93V19.07C2.75 21.24 4.51 23 6.68 23H13.82C15.99 23 17.75 21.24 17.75 19.07V14H15.06C12.81 14 10.83 12.28 10.75 10.03C10.71 8.98 11.07 7.98 11.75 7.19V6C11.75 5.44 11.83 4.89 11.98 4.37C12.21 3.57 12.94 3.01 13.78 3C13.15 3.84 12.76 4.87 12.76 6V7.59L12.67 7.68C12.08 8.27 11.76 9.05 11.76 9.89C11.76 11.61 13.16 13.01 14.88 13.01H20.64C22.36 13.01 23.76 11.61 23.76 9.89C23.75 9.05 23.43 8.26 22.84 7.67ZM12.25 19C12.53 19 12.75 19.22 12.75 19.5C12.75 19.78 12.53 20 12.25 20H8.25C7.97 20 7.75 19.78 7.75 19.5C7.75 19.22 7.97 19 8.25 19H12.25ZM20.63 11H14.87C14.25 11 13.75 10.5 13.75 9.88C13.75 9.58 13.87 9.3 14.08 9.09L14.17 9H16.75C17.85 9 18.75 8.1 18.75 7H14.75V6.12C14.75 4.67 15.73 3.34 17.15 3.06C19.07 2.69 20.75 4.15 20.75 6V8.41L21.42 9.08C21.63 9.29 21.75 9.58 21.75 9.87C21.75 10.5 21.25 11 20.63 11Z" fill="#00CD51"/>
</svg>
