<svg width="16" height="16" viewBox="0 0 16 16" xmlns="http://www.w3.org/2000/svg">
<path d="M7.97084 7.82504C9.69443 7.82504 11.0917 6.4278 11.0917 4.70421C11.0917 2.98062 9.69443 1.58337 7.97084 1.58337C6.24726 1.58337 4.85001 2.98062 4.85001 4.70421C4.85001 6.4278 6.24726 7.82504 7.97084 7.82504Z"/>
<path d="M10.8583 12.2584C11.8369 11.2938 12.6718 10.1937 13.3375 8.99171C13.3524 8.96951 13.362 8.94421 13.3655 8.91775C13.3691 8.89128 13.3666 8.86434 13.3581 8.83901C13.3497 8.81367 13.3355 8.7906 13.3168 8.77157C13.2981 8.75254 13.2752 8.73805 13.25 8.72921L10.6833 7.38754C10.5667 7.32921 10.45 7.35837 10.4208 7.44587C9.78699 8.54966 8.95668 9.52825 7.97084 10.3334C7.00209 9.51901 6.18286 8.54185 5.55001 7.44587C5.52074 7.40601 5.478 7.37812 5.42972 7.36739C5.38144 7.35666 5.33091 7.36382 5.28751 7.38754L2.72084 8.72921C2.69564 8.73805 2.6728 8.75254 2.65406 8.77157C2.63532 8.7906 2.62119 8.81367 2.61274 8.83901C2.60429 8.86434 2.60176 8.89128 2.60533 8.91775C2.6089 8.94421 2.61848 8.96951 2.63334 8.99171C3.29903 10.1861 4.12316 11.2849 5.08334 12.2584H5.14168C5.98166 13.1037 6.93358 13.8299 7.97084 14.4167C9.02056 13.8474 9.98314 13.1303 10.8292 12.2875H10.8583V12.2584Z"/>
</svg>
