<svg width="16" height="16" viewBox="0 0 16 16" fill="none" xmlns="http://www.w3.org/2000/svg">
<path d="M7.99986 7.98237C9.92799 7.98237 11.491 6.41931 11.491 4.49118C11.491 2.56306 9.92799 1 7.99986 1C6.07174 1 4.50868 2.56306 4.50868 4.49118C4.50868 6.41931 6.07174 7.98237 7.99986 7.98237Z" fill="url(#paint0_linear_11016_277369)"/>
<path d="M7.70241 14.906C5.42236 13.4516 3.52611 11.4694 2.17405 9.12718C2.12179 9.03329 2.11042 8.92205 2.14262 8.81953C2.17482 8.71702 2.24775 8.63225 2.3443 8.5851L4.98813 7.28765C5.17307 7.19747 5.39626 7.26588 5.49889 7.44421C6.83556 9.68452 8.81205 11.4736 11.174 12.5812C10.3029 13.4589 9.33826 14.2385 8.29732 14.906C8.1153 15.0197 7.88443 15.0197 7.70241 14.906Z" fill="url(#paint1_linear_11016_277369)"/>
<path d="M8.29732 14.906C10.5777 13.4519 12.474 11.4697 13.8257 9.12718C13.8781 9.03353 13.8897 8.92249 13.8579 8.82001C13.8261 8.71753 13.7536 8.6326 13.6574 8.5851L11.0116 7.28765C10.8267 7.19747 10.6035 7.26588 10.5008 7.44421C9.16445 9.68475 7.18788 11.4739 4.82571 12.5812C5.69628 13.4595 6.66101 14.2391 7.70241 14.906C7.88443 15.0197 8.1153 15.0197 8.29732 14.906Z" fill="#2684FF"/>
<defs>
<linearGradient id="paint0_linear_11016_277369" x1="589.669" y1="233.534" x2="589.669" y2="1669.91" gradientUnits="userSpaceOnUse">
<stop stop-color="#2684FF"/>
<stop offset="0.82" stop-color="#0052CC"/>
</linearGradient>
<linearGradient id="paint1_linear_11016_277369" x1="486.022" y1="436.972" x2="888.127" y2="1041.77" gradientUnits="userSpaceOnUse">
<stop stop-color="#2684FF"/>
<stop offset="0.62" stop-color="#0052CC"/>
</linearGradient>
</defs>
</svg>
