<svg width="24" height="24" viewBox="0 0 24 24" fill="none" xmlns="http://www.w3.org/2000/svg">
  <path d="M17.668 2H6.332C3.939 2 2 3.939 2 6.332V17.668C2 20.061 3.939 22 6.332 22H17.668C20.06 22 22 20.061 22 17.668V6.332C22 3.939 20.061 2 17.668 2Z" fill="#04AC38" />
  <path d="M13.09 5.33295H7.89697V13.4099H13.089C15.319 13.4099 17.127 11.6019 17.127 9.37095C17.128 7.14195 15.32 5.33295 13.09 5.33295ZM12.577 11.7439H9.82097V6.99995H12.577C13.887 6.99995 14.949 8.06195 14.949 9.37195C14.949 10.6819 13.887 11.7439 12.577 11.7439ZM7.89697 18.6669H9.81997V15.0779H7.89697V18.6669Z" fill="white" />
</svg>
