<svg width="24" height="24" viewBox="0 0 24 24" xmlns="http://www.w3.org/2000/svg">
  <path d="M17.668 2H6.332C3.939 2 2 3.939 2 6.332V17.668C2 20.061 3.939 22 6.332 22H17.668C20.06 22 22 20.061 22 17.668V6.332C22 3.939 20.061 2 17.668 2ZM9.821 18.667H7.897V15.077H9.82V18.667H9.821ZM13.09 13.41H7.897V5.333H13.089C15.319 5.333 17.127 7.141 17.127 9.371C17.127 11.601 15.32 13.41 13.09 13.41ZM12.577 7H9.821V11.744H12.577C13.887 11.744 14.949 10.682 14.949 9.372C14.949 8.062 13.887 7 12.577 7Z" />
</svg>
