<svg viewBox="0 0 22 22" xmlns="http://www.w3.org/2000/svg">
<path d="M20.09 6.67L20 6.58V5C20 2.24 17.76 0 15 0C14.25 0 13.54 0.18 12.9 0.48C12.35 0.19 11.73 0 11.07 0H3.93C1.76 0 0 1.76 0 3.93V18.07C0 20.24 1.76 22 3.93 22H11.07C13.24 22 15 20.24 15 18.07V13H12.31C10.06 13 8.08 11.28 8 9.03C7.96 7.98 8.32 6.98 9 6.19V5C9 4.44 9.08 3.89 9.23 3.37C9.46 2.57 10.19 2.01 11.03 2C10.4 2.84 10.01 3.87 10.01 5V6.59L9.92 6.68C9.33 7.27 9.01 8.05 9.01 8.89C9.01 10.61 10.41 12.01 12.13 12.01H17.89C19.61 12.01 21.01 10.61 21.01 8.89C21 8.05 20.68 7.26 20.09 6.67ZM9.5 18C9.78 18 10 18.22 10 18.5C10 18.78 9.78 19 9.5 19H5.5C5.22 19 5 18.78 5 18.5C5 18.22 5.22 18 5.5 18H9.5ZM17.88 10H12.12C11.5 10 11 9.5 11 8.88C11 8.58 11.12 8.3 11.33 8.09L11.42 8H14C15.1 8 16 7.1 16 6H12V5.12C12 3.67 12.98 2.34 14.4 2.06C16.32 1.69 18 3.15 18 5V7.41L18.67 8.08C18.88 8.29 19 8.58 19 8.87C19 9.5 18.5 10 17.88 10Z" />
</svg>
