<svg width="16" height="16" viewBox="0 0 16 16" fill="none" xmlns="http://www.w3.org/2000/svg">
<path d="M1 2.33826C1.17856 2.52663 1.35822 2.70846 1.52807 2.899C1.88411 3.2975 2.18462 3.72976 2.3719 4.23606C2.54611 4.7086 2.52542 5.09948 2.16285 5.52848C0.905274 7.01797 0.907451 8.9702 2.16829 10.4804C2.5276 10.9116 2.54284 11.3024 2.36863 11.7728C2.19333 12.2508 1.91351 12.6613 1.58251 13.0402C1.3985 13.2503 1.20252 13.4507 1 13.6684C1.09473 13.7196 1.15788 13.7631 1.22647 13.7893C2.99143 14.473 4.61267 14.2248 6.08147 13.0271C6.25895 12.8823 6.41029 12.7233 6.68032 12.7952C7.12455 12.9128 7.58512 12.9008 8.03915 12.9019C10.1024 12.9052 12.0166 12.4304 13.5823 11.0074C14.6548 10.0318 15.1992 8.82321 14.9313 7.33917C14.6842 5.97162 13.8392 5.02653 12.708 4.3199C10.9354 3.21693 8.97988 2.94038 6.93728 3.17011C6.56599 3.21149 6.29706 3.17011 5.99219 2.91533C4.56585 1.71764 2.53522 1.4977 1 2.33826Z" fill="white"/>
<path d="M8.11863 7.20524C7.65153 7.19762 7.27154 7.56999 7.27481 8.03165C7.27807 8.47044 7.64827 8.84934 8.0827 8.86132C8.53783 8.8733 8.91455 8.49221 8.91346 8.02294C8.91129 7.55692 8.57593 7.21286 8.11863 7.20524ZM5.46521 7.20524C4.9992 7.20088 4.62029 7.5787 4.629 8.03927C4.63771 8.47915 5.009 8.8537 5.44343 8.86132C5.89964 8.86894 6.27201 8.48677 6.26657 8.01531C6.26221 7.55148 5.92359 7.20959 5.46521 7.20524ZM14.9324 7.34134C14.6852 5.9738 13.8403 5.02871 12.7091 4.32207C10.9354 3.21693 8.97988 2.94037 6.93728 3.17011C6.56599 3.21149 6.29706 3.17011 5.99219 2.91533C4.56585 1.71764 2.53522 1.4977 1 2.33826C1.17856 2.52663 1.35822 2.70846 1.52807 2.899C1.88411 3.2975 2.18462 3.72976 2.3719 4.23606C2.54611 4.7086 2.52542 5.09948 2.16285 5.52847C0.905274 7.01796 0.907451 8.9702 2.16829 10.4804C2.5276 10.9115 2.54284 11.3024 2.36863 11.7739C2.19333 12.2519 1.91351 12.6624 1.58251 13.0413C1.3985 13.2514 1.20252 13.4517 1 13.6695C1.09473 13.7207 1.15788 13.7642 1.22647 13.7904C2.99143 14.4741 4.61267 14.2259 6.08147 13.0282C6.25895 12.8834 6.41029 12.7244 6.68032 12.7963C7.12455 12.9139 7.58512 12.9019 8.03915 12.903C10.1024 12.9062 12.0166 12.4315 13.5823 11.0084C14.6558 10.034 15.2002 8.82539 14.9324 7.34134ZM12.917 9.87936C12.0198 10.8157 10.869 11.2676 9.62446 11.4875C8.52476 11.6824 7.41853 11.6813 6.32645 11.4124C6.0499 11.3449 5.88004 11.4342 5.69603 11.6236C5.08195 12.2562 4.37966 12.7309 3.37034 12.8072C3.69698 12.1234 3.95394 11.4973 3.8995 10.7885C3.87772 10.5011 3.79062 10.2822 3.56741 10.0797C2.18136 8.82103 2.19116 7.13773 3.58919 5.89431C4.5898 5.00476 5.80056 4.59863 7.10495 4.44729C8.7055 4.2611 10.2505 4.456 11.6975 5.21054C12.1864 5.46532 12.6285 5.78434 12.9921 6.19918C14.0091 7.36094 13.9851 8.76333 12.917 9.87936ZM10.747 7.20524C10.2832 7.20524 9.90537 7.59068 9.92061 8.05016C9.93477 8.49003 10.3126 8.86023 10.7459 8.86132C11.2011 8.86241 11.568 8.47588 11.5582 8.00443C11.5484 7.54059 11.2076 7.20524 10.747 7.20524Z" fill="#DC2928"/>
</svg>
