<svg width="18" height="18" viewBox="0 0 18 18" fill="none" xmlns="http://www.w3.org/2000/svg">
<g clip-path="url(#clip0_11857_37179)">
<path fill-rule="evenodd" clip-rule="evenodd" d="M9.025 1.8501C4.7 1.8501 1.075 5.4001 1 9.80009C1 12.1251 1.975 14.2001 3.525 15.7001C4.1 16.2251 4.95 16.2751 5.6 15.8251C6.5 15.1001 7.675 14.7251 9.025 14.7251C10.375 14.7251 11.55 15.1751 12.45 15.8251C13.1 16.2751 13.95 16.2751 14.525 15.7001C16.075 14.2001 16.975 12.2001 16.975 9.87509C16.9 5.4001 13.4 1.8501 9 1.8501M8.975 13.8251C6.575 13.8251 4.95 12.0001 4.95 9.80009C4.95 7.60009 6.575 5.7751 8.975 5.7751C11.375 5.7751 13 7.60009 13 9.80009C13 12.0001 11.375 13.8251 8.975 13.8251Z" fill="#62D84E"/>
</g>
<defs>
<clipPath id="clip0_11857_37179">
<rect width="16" height="16" fill="white" transform="translate(1 1)"/>
</clipPath>
</defs>
</svg>
