<svg width="18" height="18" viewBox="0 0 18 18" fill="none" xmlns="http://www.w3.org/2000/svg">
<path fill-rule="evenodd" clip-rule="evenodd" d="M4.33127 8.92431C4.1501 8.92383 3.97454 8.99601 3.83524 9.12827V8.94502H3.38276V10.9575H3.85337V9.67096C3.90396 9.59587 3.96852 9.53456 4.04241 9.49147C4.11629 9.44838 4.19764 9.42459 4.28056 9.42181C4.34476 9.41805 4.40896 9.42904 4.46936 9.45413V8.93811C4.42376 8.92898 4.37756 8.92436 4.33127 8.92431Z" fill="white"/>
<path fill-rule="evenodd" clip-rule="evenodd" d="M0.228092 10.3434C0.36247 10.4731 0.533037 10.5437 0.709008 10.5425C0.835695 10.5425 0.933389 10.4719 0.933389 10.3724C0.933389 10.0695 0.0827176 10.1774 0.0827176 9.53007C0.0827176 9.14427 0.408504 8.9036 0.756 8.9036C0.967019 8.90426 1.17329 8.97514 1.34959 9.10756L1.12947 9.49681C1.03231 9.41262 0.914715 9.36483 0.792824 9.36C0.662565 9.36 0.553878 9.41805 0.553878 9.52175C0.553878 9.78313 1.40469 9.67943 1.40469 10.3765C1.40469 10.7625 1.07492 10.9989 0.705985 10.9989C0.451772 10.9961 0.204781 10.902 0 10.73L0.228092 10.3434Z" fill="white"/>
<path fill-rule="evenodd" clip-rule="evenodd" d="M3.18188 9.9325C3.18188 9.37239 2.83837 8.9036 2.35278 8.9036C1.83147 8.9036 1.4984 9.3931 1.4984 9.95336C1.49323 10.0927 1.51351 10.2316 1.55797 10.3615C1.60243 10.4913 1.67008 10.6092 1.75662 10.7075C1.84316 10.8059 1.94668 10.8826 2.06061 10.9328C2.17453 10.9829 2.29636 11.0054 2.41832 10.9989C2.554 11.0009 2.68849 10.9698 2.81275 10.9075C2.93701 10.8453 3.04816 10.7534 3.13873 10.638L2.87079 10.331C2.81468 10.4017 2.74664 10.4587 2.67075 10.4986C2.59487 10.5386 2.5127 10.5606 2.42918 10.5634C2.31182 10.5677 2.19741 10.5209 2.10925 10.4323C2.02108 10.3438 1.96577 10.2202 1.95458 10.0867H3.17102C3.17851 10.0358 3.18214 9.98416 3.18188 9.9325ZM1.97629 9.69198C1.99318 9.59229 2.04005 9.50247 2.1088 9.43807C2.17755 9.37366 2.26385 9.33872 2.35278 9.33929C2.43845 9.33943 2.52112 9.37539 2.58516 9.44037C2.64921 9.50535 2.69021 9.59485 2.70041 9.69198H1.97629Z" fill="white"/>
<path fill-rule="evenodd" clip-rule="evenodd" d="M5.59099 10.1732L6.07246 8.94502H6.56134L5.75395 10.9575H5.42817L4.62078 8.94502H5.10953L5.59099 10.1732Z" fill="white"/>
<path fill-rule="evenodd" clip-rule="evenodd" d="M6.95652 8.00006C7.01606 8.00129 7.07396 8.02258 7.12294 8.06125C7.17192 8.09992 7.20981 8.15425 7.23185 8.21742C7.25389 8.28059 7.2591 8.34979 7.24682 8.41632C7.23454 8.48286 7.20533 8.54377 7.16284 8.59142C7.12035 8.63906 7.06649 8.67132 7.008 8.68414C6.94952 8.69695 6.88902 8.68976 6.83411 8.66346C6.77919 8.63716 6.7323 8.59293 6.69932 8.53631C6.66634 8.4797 6.64874 8.41322 6.64873 8.34522C6.64873 8.29936 6.65672 8.25396 6.67226 8.21167C6.68779 8.16937 6.71055 8.13104 6.73921 8.09891C6.76786 8.06677 6.80184 8.04148 6.83915 8.02451C6.87646 8.00754 6.91636 7.99922 6.95652 8.00006Z" fill="white"/>
<path d="M7.19176 8.94502H6.72114V10.9575H7.19176V8.94502Z" fill="white"/>
<path fill-rule="evenodd" clip-rule="evenodd" d="M9.1374 10.5466C9.04829 10.692 8.92864 10.8097 8.78941 10.8887C8.65019 10.9677 8.49583 11.0056 8.34046 10.9989C8.21785 11.0024 8.09587 10.9779 7.98171 10.9267C7.86755 10.8755 7.76354 10.7987 7.67581 10.7009C7.58808 10.603 7.51841 10.4861 7.47093 10.357C7.42344 10.2279 7.3991 10.0892 7.39934 9.94915C7.39958 9.80911 7.42439 9.67055 7.47232 9.54165C7.52024 9.41274 7.59031 9.29611 7.67837 9.19865C7.76643 9.10118 7.87071 9.02486 7.98504 8.97418C8.09937 8.9235 8.22144 8.8995 8.34403 8.9036C8.48579 8.90239 8.62594 8.93799 8.75389 9.00771C8.88183 9.07742 8.99423 9.17943 9.08258 9.30603L8.74951 9.64209C8.70306 9.56862 8.6422 9.50859 8.57179 9.4668C8.50138 9.42501 8.42338 9.40262 8.34403 9.40142C8.28094 9.40112 8.21844 9.41528 8.16022 9.44306C8.10201 9.47083 8.04927 9.51166 8.00512 9.56312C7.96097 9.61459 7.92631 9.67564 7.90319 9.74267C7.88008 9.8097 7.86897 9.88134 7.87053 9.95336C7.86845 10.0265 7.87961 10.0993 7.90333 10.1672C7.92705 10.2351 7.9628 10.2968 8.00836 10.3482C8.05392 10.3996 8.10829 10.4397 8.16806 10.466C8.22783 10.4923 8.29172 10.5042 8.35571 10.5009C8.43933 10.499 8.52129 10.4738 8.59447 10.4276C8.66764 10.3813 8.72982 10.3154 8.77562 10.2355L9.1374 10.5466Z" fill="white"/>
<path fill-rule="evenodd" clip-rule="evenodd" d="M10.847 10.6379C10.7564 10.7533 10.6453 10.8452 10.521 10.9074C10.3968 10.9696 10.2623 11.0008 10.1266 10.9987C10.0046 11.0052 9.88287 10.9826 9.769 10.9325C9.65512 10.8823 9.55164 10.8056 9.46515 10.7072C9.37866 10.6089 9.31105 10.491 9.26661 10.3612C9.22218 10.2314 9.2019 10.0925 9.20707 9.95321C9.20707 9.39294 9.54014 8.90344 10.0614 8.90344C10.5465 8.90344 10.8904 9.37223 10.8904 9.93234C10.8907 9.9838 10.8871 10.0352 10.8796 10.0859H9.66311C9.6742 10.2194 9.72943 10.3431 9.81755 10.4317C9.90567 10.5204 10.0201 10.5673 10.1374 10.563C10.221 10.5602 10.3032 10.5382 10.3791 10.4983C10.455 10.4584 10.523 10.4014 10.5792 10.3307L10.847 10.6379ZM10.4089 9.69198C10.3988 9.59486 10.3578 9.50536 10.2938 9.44038C10.2298 9.3754 10.1471 9.33944 10.0614 9.33929C9.97252 9.33869 9.8862 9.37362 9.81745 9.43803C9.74869 9.50244 9.70182 9.59227 9.68496 9.69198H10.4089Z" fill="white"/>
<path fill-rule="evenodd" clip-rule="evenodd" d="M11.0776 10.9575V8.94502H11.53V9.10677C11.6694 8.97482 11.8449 8.90292 12.0259 8.9036C12.1419 8.90323 12.2565 8.93204 12.3617 8.98798C12.4668 9.04392 12.5599 9.12562 12.6342 9.22727C12.7696 9.42858 12.8341 9.6804 12.8152 9.93328V10.9575H12.3446V9.89061C12.3512 9.82278 12.3452 9.75412 12.3272 9.68907C12.3091 9.62402 12.2792 9.56403 12.2396 9.51297C12.1679 9.43724 12.0729 9.39697 11.9754 9.40095C11.8924 9.40374 11.8111 9.42752 11.7372 9.47058C11.6634 9.51364 11.5988 9.5749 11.5482 9.64993V10.9575H11.0776Z" fill="white"/>
<path fill-rule="evenodd" clip-rule="evenodd" d="M14.0271 8.9036C13.8206 8.90311 13.6187 8.97345 13.4477 9.10551C13.2766 9.23758 13.1443 9.42526 13.0678 9.64425C12.9912 9.86323 12.9741 10.1034 13.0186 10.3337C13.063 10.5639 13.167 10.7736 13.3171 10.9355C13.3523 10.9738 13.3984 10.9964 13.4469 10.9993C13.4954 11.0022 13.5433 10.9851 13.5818 10.9512C13.7087 10.8433 13.8628 10.785 14.021 10.785C14.1793 10.785 14.3334 10.8433 14.4603 10.9512C14.4992 10.9852 14.5474 11.0021 14.5963 10.9988C14.6451 10.9956 14.6913 10.9724 14.7265 10.9335C14.8754 10.7721 14.9787 10.5637 15.0232 10.3349C15.0676 10.1061 15.0513 9.8673 14.9761 9.64919C14.901 9.43107 14.7705 9.24355 14.6014 9.11066C14.4323 8.97776 14.2323 8.90555 14.0271 8.90328M14.021 10.6672C13.9532 10.6693 13.8856 10.6556 13.8226 10.6269C13.7595 10.5982 13.7022 10.5552 13.6542 10.5004C13.6062 10.4455 13.5685 10.3801 13.5433 10.3081C13.5182 10.2361 13.5062 10.159 13.508 10.0815C13.508 9.92617 13.562 9.77716 13.6582 9.6673C13.7545 9.55743 13.885 9.49571 14.021 9.49571C14.1571 9.49571 14.2876 9.55743 14.3838 9.6673C14.4801 9.77716 14.5341 9.92617 14.5341 10.0815C14.5359 10.159 14.5239 10.2361 14.4988 10.3081C14.4736 10.3801 14.4359 10.4455 14.3879 10.5004C14.3399 10.5552 14.2826 10.5982 14.2195 10.6269C14.1564 10.6556 14.0889 10.6693 14.021 10.6672Z" fill="#62D84E"/>
<path fill-rule="evenodd" clip-rule="evenodd" d="M15.9785 10.9575H15.628L14.929 8.94502H15.3989L15.7822 10.095L16.158 8.94502H16.5507L16.923 10.095L17.3095 8.94502H17.7796L17.0806 10.9575H16.7301L16.3543 9.81153L15.9785 10.9575Z" fill="white"/>
<path d="M17.785 10.73H17.7453V10.8152H17.7114V10.582H17.7939C17.8025 10.582 17.8111 10.5839 17.8191 10.5877C17.8271 10.5914 17.8343 10.5969 17.8404 10.6039C17.8465 10.6109 17.8514 10.6192 17.8546 10.6283C17.8579 10.6374 17.8596 10.6472 17.8596 10.657C17.8595 10.6716 17.8556 10.6859 17.8483 10.698C17.8411 10.71 17.8309 10.7194 17.819 10.7248L17.8655 10.8156H17.8287L17.785 10.73ZM17.7453 10.6956H17.7939C17.803 10.6956 17.8117 10.6915 17.8182 10.6841C17.8246 10.6768 17.8282 10.6668 17.8282 10.6564C17.8282 10.646 17.8246 10.636 17.8182 10.6287C17.8117 10.6213 17.803 10.6172 17.7939 10.6172H17.7457L17.7453 10.6956Z" fill="white"/>
<path d="M17.7802 10.4865C17.8176 10.4865 17.8543 10.4991 17.8855 10.5229C17.9166 10.5466 17.9409 10.5804 17.9553 10.6199C17.9697 10.6595 17.9734 10.703 17.9661 10.7449C17.9589 10.7869 17.9408 10.8255 17.9143 10.8558C17.8878 10.886 17.8541 10.9067 17.8173 10.915C17.7805 10.9234 17.7424 10.9191 17.7078 10.9027C17.6732 10.8864 17.6436 10.8586 17.6228 10.8231C17.6019 10.7875 17.5908 10.7456 17.5908 10.7028C17.5909 10.6455 17.6108 10.5905 17.6463 10.55C17.6818 10.5094 17.7299 10.4866 17.7802 10.4865ZM17.7802 10.4523C17.7367 10.4523 17.6942 10.467 17.658 10.4946C17.6219 10.5222 17.5937 10.5614 17.577 10.6072C17.5604 10.6531 17.556 10.7036 17.5645 10.7523C17.573 10.801 17.594 10.8457 17.6247 10.8808C17.6554 10.9159 17.6946 10.9398 17.7373 10.9495C17.7799 10.9592 17.8241 10.9542 17.8643 10.9352C17.9045 10.9162 17.9388 10.8841 17.9629 10.8428C17.9871 10.8015 18 10.753 18 10.7033C18 10.6367 17.9768 10.5729 17.9356 10.5258C17.8944 10.4787 17.8385 10.4523 17.7802 10.4523Z" fill="white"/>
</svg>
