<svg width="24" height="24" viewBox="0 0 24 24" fill="none" xmlns="http://www.w3.org/2000/svg">
  <path d="M5.92709 14.7729C5.92709 15.9929 4.94109 16.9779 3.72209 16.9779C2.50309 16.9779 1.51709 15.9919 1.51709 14.7729C1.51709 13.5539 2.50309 12.5679 3.72209 12.5679H5.92709V14.7729ZM7.03009 14.7729C7.03009 13.5529 8.01609 12.5679 9.23509 12.5679C10.4541 12.5679 11.4401 13.5539 11.4401 14.7729V20.2859C11.4401 21.5059 10.4541 22.4909 9.23509 22.4909C8.01609 22.4909 7.03009 21.5049 7.03009 20.2859V14.7729Z" fill="#E0225B" />
  <path d="M9.235 5.91891C8.015 5.91891 7.03 4.93291 7.03 3.71391C7.03 2.49491 8.016 1.50891 9.235 1.50891C10.454 1.50891 11.44 2.49491 11.44 3.71391V5.91891H9.235ZM9.235 7.03791C10.455 7.03791 11.44 8.02391 11.44 9.24291C11.44 10.4619 10.454 11.4479 9.235 11.4479H3.705C2.485 11.4479 1.5 10.4619 1.5 9.24291C1.5 8.02391 2.486 7.03791 3.705 7.03791H9.235Z" fill="#39C5EF" />
  <path d="M18.0731 9.24293C18.0731 8.02293 19.0591 7.03793 20.2781 7.03793C21.4981 7.03793 22.4831 8.02393 22.4831 9.24293C22.4831 10.4619 21.4971 11.4479 20.2781 11.4479H18.0731V9.24293ZM16.9701 9.24293C16.9701 10.4629 15.9841 11.4479 14.7651 11.4479C13.5451 11.4479 12.5601 10.4619 12.5601 9.24293V3.71293C12.5601 2.49293 13.5461 1.50793 14.7651 1.50793C15.9851 1.50793 16.9701 2.49393 16.9701 3.71293C16.9701 3.71393 16.9701 9.24293 16.9701 9.24293Z" fill="#2FB77E" />
  <path d="M14.7651 18.0808C15.9851 18.0808 16.9701 19.0668 16.9701 20.2858C16.9701 21.5058 15.9841 22.4908 14.7651 22.4908C13.5451 22.4908 12.5601 21.5048 12.5601 20.2858V18.0808H14.7651ZM14.7651 16.9788C13.5451 16.9788 12.5601 15.9928 12.5601 14.7738C12.5601 13.5548 13.5461 12.5688 14.7651 12.5688H20.2951C21.5151 12.5688 22.5001 13.5548 22.5001 14.7738C22.5001 15.9938 21.5141 16.9788 20.2951 16.9788H14.7651Z" fill="#EBB22D" />
</svg>
