<svg width="24" height="24" viewBox="0 0 24 24" xmlns="http://www.w3.org/2000/svg">
  <path d="M22.483 9.24293C22.483 8.02393 21.497 7.03793 20.278 7.03793C19.059 7.03793 18.073 8.02393 18.073 9.24293V11.4489H20.278C21.498 11.4489 22.483 10.4629 22.483 9.24293ZM1.517 14.7729C1.517 15.9919 2.503 16.9779 3.722 16.9779C4.941 16.9779 5.927 15.9919 5.927 14.7729V12.5669H3.722C2.502 12.5679 1.517 13.5539 1.517 14.7729ZM9.235 12.5679C8.016 12.5679 7.03 13.5539 7.03 14.7739V20.2869C7.03 21.5069 8.016 22.4929 9.235 22.4929C10.454 22.4929 11.44 21.5069 11.44 20.2869V14.7739C11.44 13.5539 10.455 12.5679 9.235 12.5679ZM14.765 11.4489C15.984 11.4489 16.97 10.4629 16.97 9.24293V3.71393C16.97 2.49393 15.984 1.50793 14.765 1.50793C13.546 1.50793 12.56 2.49393 12.56 3.71393V9.24293C12.56 10.4629 13.545 11.4489 14.765 11.4489ZM9.235 7.03793H3.705C2.486 7.03793 1.5 8.02393 1.5 9.24293C1.5 10.4629 2.486 11.4489 3.705 11.4489H9.235C10.454 11.4489 11.44 10.4629 11.44 9.24293C11.44 8.02393 10.455 7.03793 9.235 7.03793ZM20.295 12.5679H14.765C13.546 12.5679 12.56 13.5539 12.56 14.7739C12.56 15.9929 13.546 16.9789 14.765 16.9789H20.295C21.514 16.9789 22.5 15.9929 22.5 14.7739C22.5 13.5539 21.514 12.5679 20.295 12.5679ZM14.765 18.0809H12.56V20.2859C12.56 21.5059 13.546 22.4919 14.765 22.4919C15.984 22.4919 16.97 21.5059 16.97 20.2859C16.97 19.0669 15.984 18.0809 14.765 18.0809ZM9.235 1.50793C8.016 1.50793 7.03 2.49393 7.03 3.71393C7.03 4.93293 8.016 5.91893 9.235 5.91893H11.44V3.71393C11.44 2.49393 10.455 1.50793 9.235 1.50793Z" />
</svg>
