<svg width="310" height="310" viewBox="0 0 310 310" fill="none" xmlns="http://www.w3.org/2000/svg">
<mask id="path-1-inside-1_0_3" fill="white">
<path d="M60.0366 54.8706C61.1029 54.8688 62.1692 54.8671 63.2678 54.8653C66.7697 54.8609 70.2715 54.8638 73.7734 54.8672C76.2229 54.8665 78.6723 54.8655 81.1217 54.8643C86.2475 54.8628 91.3733 54.8649 96.499 54.8696C103.048 54.8753 109.596 54.872 116.145 54.8661C121.202 54.8624 126.258 54.8636 131.315 54.8662C133.728 54.8668 136.142 54.866 138.555 54.8637C141.938 54.8611 145.321 54.8651 148.705 54.8706C149.689 54.8686 150.673 54.8666 151.687 54.8645C171.933 54.9255 185.616 60.4417 200.125 74.8125C205.469 80.241 210.275 86.027 215 92C217.16 94.6722 219.33 97.3357 221.5 100C222.62 101.379 223.74 102.758 224.859 104.137C228.893 109.102 232.945 114.052 237 119C241.055 123.948 245.107 128.898 249.141 133.863C249.967 134.879 249.967 134.879 250.809 135.916C251.932 137.299 253.052 138.684 254.171 140.07C256.697 143.193 259.235 146.295 261.867 149.328C262.695 150.292 263.522 151.257 264.375 152.25C265.469 153.495 265.469 153.495 266.586 154.766C268 157 268 157 267.961 159C266.71 161.605 265.125 163.546 263.25 165.75C262.44 166.714 261.631 167.678 260.797 168.672C260.127 169.466 260.127 169.466 259.443 170.275C256.757 173.485 254.134 176.747 251.5 180C245.655 187.201 239.785 194.381 233.906 201.555C229.993 206.333 226.088 211.119 222.195 215.914C221.063 217.307 219.93 218.7 218.796 220.092C216.396 223.038 214.008 225.989 211.66 228.977C199.262 244.631 186.287 258.141 166 262C161.683 262.376 157.403 262.382 153.071 262.341C151.841 262.341 150.61 262.341 149.342 262.342C146.008 262.34 142.674 262.325 139.34 262.304C135.841 262.285 132.342 262.284 128.842 262.28C122.234 262.271 115.626 262.246 109.018 262.216C101.487 262.182 93.9557 262.166 86.4247 262.151C70.9497 262.12 55.4749 262.067 40 262C41 260 41 260 42.8281 259.316C43.6273 259.068 44.4266 258.819 45.25 258.562C55.7322 254.547 64.042 245.543 71 237C72.8848 234.761 74.7854 232.536 76.6875 230.312C77.1983 229.714 77.7091 229.115 78.2354 228.498C82.3308 223.722 86.5585 219.082 90.8459 214.478C94.0402 211.048 97.1603 207.568 100.227 204.023C102.451 201.485 104.725 198.994 107 196.5C109.865 193.359 112.712 190.209 115.5 187C118.288 183.791 121.135 180.641 124 177.5C127.453 173.713 130.861 169.895 134.223 166.027C137.053 162.799 139.94 159.621 142.816 156.434C144.708 154.325 146.579 152.201 148.438 150.062C151.248 146.834 154.116 143.663 157 140.5C159.832 137.391 162.66 134.282 165.438 131.125C165.981 130.508 166.525 129.89 167.086 129.254C168.651 127.411 170.162 125.546 171.664 123.652C172.142 123.061 172.619 122.47 173.112 121.861C174.06 120.685 174.996 119.5 175.918 118.303C178.282 115.395 179.668 114.087 183.34 113.121C184.657 113.061 184.657 113.061 186 113C186.99 114.32 187.98 115.64 189 117C189.541 110.369 188.899 106.459 185 101C180.905 98.2698 177.811 98.3703 173 99C169.592 100.1 166.412 101.575 163.188 103.125C161.542 103.913 159.89 104.687 158.23 105.445C157.513 105.791 156.795 106.137 156.055 106.493C154 107 154 107 151.798 106.16C150 105 150 105 149 104C143.045 103.477 139.047 104.874 133.766 107.281C133.006 107.614 132.246 107.947 131.463 108.29C129.053 109.348 126.651 110.423 124.25 111.5C121.833 112.574 119.415 113.645 116.994 114.71C115.492 115.371 113.993 116.039 112.497 116.713C109.498 118.041 107.318 119 104 119C102.055 116.945 102.055 116.945 99.875 114.125C96.8538 110.302 93.7921 106.592 90.5 103C87.4993 99.7106 84.6499 96.3566 81.875 92.875C75.671 85.2074 68.8362 78.1027 62 71C61.3999 70.3649 60.7997 69.7298 60.1814 69.0754C56.8038 65.5732 53.7008 62.9098 49.3125 60.6875C47.9454 59.9817 47.9454 59.9817 46.5508 59.2617C45.709 58.8453 44.8673 58.429 44 58C42.6665 57.3338 41.3331 56.6672 40 56C46.7184 55.1326 53.2667 54.8567 60.0366 54.8706Z"/>
<path d="M144 114C139.786 118.486 135.171 122.64 130 126C129.01 126 128.02 126 127 126C126.632 119.493 126.632 119.493 128.238 117.344C132.44 114.139 138.859 113.668 144 114Z"/>
</mask>
<path d="M60.0366 54.8706C61.1029 54.8688 62.1692 54.8671 63.2678 54.8653C66.7697 54.8609 70.2715 54.8638 73.7734 54.8672C76.2229 54.8665 78.6723 54.8655 81.1217 54.8643C86.2475 54.8628 91.3733 54.8649 96.499 54.8696C103.048 54.8753 109.596 54.872 116.145 54.8661C121.202 54.8624 126.258 54.8636 131.315 54.8662C133.728 54.8668 136.142 54.866 138.555 54.8637C141.938 54.8611 145.321 54.8651 148.705 54.8706C149.689 54.8686 150.673 54.8666 151.687 54.8645C171.933 54.9255 185.616 60.4417 200.125 74.8125C205.469 80.241 210.275 86.027 215 92C217.16 94.6722 219.33 97.3357 221.5 100C222.62 101.379 223.74 102.758 224.859 104.137C228.893 109.102 232.945 114.052 237 119C241.055 123.948 245.107 128.898 249.141 133.863C249.967 134.879 249.967 134.879 250.809 135.916C251.932 137.299 253.052 138.684 254.171 140.07C256.697 143.193 259.235 146.295 261.867 149.328C262.695 150.292 263.522 151.257 264.375 152.25C265.469 153.495 265.469 153.495 266.586 154.766C268 157 268 157 267.961 159C266.71 161.605 265.125 163.546 263.25 165.75C262.44 166.714 261.631 167.678 260.797 168.672C260.127 169.466 260.127 169.466 259.443 170.275C256.757 173.485 254.134 176.747 251.5 180C245.655 187.201 239.785 194.381 233.906 201.555C229.993 206.333 226.088 211.119 222.195 215.914C221.063 217.307 219.93 218.7 218.796 220.092C216.396 223.038 214.008 225.989 211.66 228.977C199.262 244.631 186.287 258.141 166 262C161.683 262.376 157.403 262.382 153.071 262.341C151.841 262.341 150.61 262.341 149.342 262.342C146.008 262.34 142.674 262.325 139.34 262.304C135.841 262.285 132.342 262.284 128.842 262.28C122.234 262.271 115.626 262.246 109.018 262.216C101.487 262.182 93.9557 262.166 86.4247 262.151C70.9497 262.12 55.4749 262.067 40 262C41 260 41 260 42.8281 259.316C43.6273 259.068 44.4266 258.819 45.25 258.562C55.7322 254.547 64.042 245.543 71 237C72.8848 234.761 74.7854 232.536 76.6875 230.312C77.1983 229.714 77.7091 229.115 78.2354 228.498C82.3308 223.722 86.5585 219.082 90.8459 214.478C94.0402 211.048 97.1603 207.568 100.227 204.023C102.451 201.485 104.725 198.994 107 196.5C109.865 193.359 112.712 190.209 115.5 187C118.288 183.791 121.135 180.641 124 177.5C127.453 173.713 130.861 169.895 134.223 166.027C137.053 162.799 139.94 159.621 142.816 156.434C144.708 154.325 146.579 152.201 148.438 150.062C151.248 146.834 154.116 143.663 157 140.5C159.832 137.391 162.66 134.282 165.438 131.125C165.981 130.508 166.525 129.89 167.086 129.254C168.651 127.411 170.162 125.546 171.664 123.652C172.142 123.061 172.619 122.47 173.112 121.861C174.06 120.685 174.996 119.5 175.918 118.303C178.282 115.395 179.668 114.087 183.34 113.121C184.657 113.061 184.657 113.061 186 113C186.99 114.32 187.98 115.64 189 117C189.541 110.369 188.899 106.459 185 101C180.905 98.2698 177.811 98.3703 173 99C169.592 100.1 166.412 101.575 163.188 103.125C161.542 103.913 159.89 104.687 158.23 105.445C157.513 105.791 156.795 106.137 156.055 106.493C154 107 154 107 151.798 106.16C150 105 150 105 149 104C143.045 103.477 139.047 104.874 133.766 107.281C133.006 107.614 132.246 107.947 131.463 108.29C129.053 109.348 126.651 110.423 124.25 111.5C121.833 112.574 119.415 113.645 116.994 114.71C115.492 115.371 113.993 116.039 112.497 116.713C109.498 118.041 107.318 119 104 119C102.055 116.945 102.055 116.945 99.875 114.125C96.8538 110.302 93.7921 106.592 90.5 103C87.4993 99.7106 84.6499 96.3566 81.875 92.875C75.671 85.2074 68.8362 78.1027 62 71C61.3999 70.3649 60.7997 69.7298 60.1814 69.0754C56.8038 65.5732 53.7008 62.9098 49.3125 60.6875C47.9454 59.9817 47.9454 59.9817 46.5508 59.2617C45.709 58.8453 44.8673 58.429 44 58C42.6665 57.3338 41.3331 56.6672 40 56C46.7184 55.1326 53.2667 54.8567 60.0366 54.8706Z" fill="black"/>
<path d="M144 114C139.786 118.486 135.171 122.64 130 126C129.01 126 128.02 126 127 126C126.632 119.493 126.632 119.493 128.238 117.344C132.44 114.139 138.859 113.668 144 114Z" fill="black"/>
<path d="M60.0366 54.8706L60.0346 55.8706L60.0383 55.8706L60.0366 54.8706ZM63.2678 54.8653L63.2666 53.8653L63.2662 53.8653L63.2678 54.8653ZM73.7734 54.8672L73.7725 55.8672L73.7737 55.8672L73.7734 54.8672ZM81.1217 54.8643L81.1214 53.8643L81.1212 53.8643L81.1217 54.8643ZM96.499 54.8696L96.4981 55.8696L96.4982 55.8696L96.499 54.8696ZM116.145 54.8661L116.144 53.8661L116.144 53.8661L116.145 54.8661ZM131.315 54.8662L131.314 55.8662L131.314 55.8662L131.315 54.8662ZM138.555 54.8637L138.555 53.8637L138.554 53.8637L138.555 54.8637ZM148.705 54.8706L148.703 55.8706L148.707 55.8706L148.705 54.8706ZM151.687 54.8645L151.69 53.8645L151.685 53.8645L151.687 54.8645ZM200.125 74.8125L200.838 74.1109L200.829 74.102L200.125 74.8125ZM215 92L214.216 92.6204L214.222 92.6286L215 92ZM221.5 100L222.276 99.3695L222.275 99.3686L221.5 100ZM224.859 104.137L224.083 104.767L224.083 104.767L224.859 104.137ZM249.141 133.863L248.365 134.494L248.365 134.494L249.141 133.863ZM250.809 135.916L251.586 135.286L251.585 135.286L250.809 135.916ZM254.171 140.07L253.393 140.698L253.394 140.699L254.171 140.07ZM261.867 149.328L262.626 148.677L262.622 148.673L261.867 149.328ZM264.375 152.25L263.616 152.901L263.624 152.91L264.375 152.25ZM266.586 154.766L267.431 154.231L267.389 154.164L267.337 154.105L266.586 154.766ZM267.961 159L268.862 159.433L268.956 159.237L268.961 159.02L267.961 159ZM263.25 165.75L262.488 165.102L262.484 165.107L263.25 165.75ZM260.797 168.672L261.561 169.317L261.563 169.315L260.797 168.672ZM259.443 170.275L258.679 169.63L258.676 169.634L259.443 170.275ZM251.5 180L252.276 180.63L252.277 180.629L251.5 180ZM233.906 201.555L233.133 200.921L233.133 200.921L233.906 201.555ZM222.195 215.914L222.971 216.544L222.971 216.544L222.195 215.914ZM218.796 220.092L218.02 219.46L218.02 219.461L218.796 220.092ZM211.66 228.977L212.444 229.597L212.446 229.595L211.66 228.977ZM166 262L166.087 262.996L166.137 262.992L166.187 262.982L166 262ZM153.071 262.341L153.081 261.341L153.071 261.341L153.071 262.341ZM149.342 262.342L149.341 263.342L149.342 263.342L149.342 262.342ZM139.34 262.304L139.347 261.304L139.346 261.304L139.34 262.304ZM128.842 262.28L128.841 263.28L128.841 263.28L128.842 262.28ZM109.018 262.216L109.022 261.216L109.022 261.216L109.018 262.216ZM86.4247 262.151L86.4226 263.151L86.4227 263.151L86.4247 262.151ZM40 262L39.1056 261.553L38.3855 262.993L39.9957 263L40 262ZM42.8281 259.316L42.5309 258.362L42.5041 258.37L42.4779 258.38L42.8281 259.316ZM45.25 258.562L45.5472 259.517L45.5778 259.508L45.6077 259.496L45.25 258.562ZM71 237L70.235 236.356L70.2298 236.362L70.2246 236.369L71 237ZM76.6875 230.312L77.4474 230.962L77.4482 230.962L76.6875 230.312ZM78.2354 228.498L77.4762 227.847L77.4746 227.849L78.2354 228.498ZM90.8459 214.478L91.5778 215.16L91.5778 215.16L90.8459 214.478ZM100.227 204.023L99.4745 203.364L99.4702 203.369L100.227 204.023ZM107 196.5L107.739 197.174L107.739 197.174L107 196.5ZM124 177.5L124.739 178.174L124.739 178.174L124 177.5ZM134.223 166.027L133.471 165.368L133.468 165.371L134.223 166.027ZM142.816 156.434L143.559 157.104L143.561 157.101L142.816 156.434ZM148.438 150.062L147.683 149.406L147.683 149.407L148.438 150.062ZM157 140.5L157.739 141.174L157.739 141.173L157 140.5ZM165.438 131.125L164.687 130.464L164.687 130.464L165.438 131.125ZM167.086 129.254L167.836 129.915L167.842 129.908L167.848 129.901L167.086 129.254ZM171.664 123.652L170.886 123.024L170.881 123.031L171.664 123.652ZM173.112 121.861L173.889 122.489L173.89 122.489L173.112 121.861ZM175.918 118.303L175.142 117.672L175.134 117.683L175.126 117.693L175.918 118.303ZM183.34 113.121L183.294 112.122L183.188 112.127L183.085 112.154L183.34 113.121ZM186 113L186.8 112.4L186.483 111.977L185.955 112.001L186 113ZM189 117L188.2 117.6L189.782 119.71L189.997 117.081L189 117ZM185 101L185.814 100.419L185.707 100.27L185.555 100.168L185 101ZM173 99L172.87 98.0085L172.78 98.0203L172.693 98.0483L173 99ZM163.188 103.125L163.619 104.027L163.621 104.026L163.188 103.125ZM158.23 105.445L157.815 104.536L157.806 104.54L157.797 104.544L158.23 105.445ZM156.055 106.493L156.295 107.464L156.396 107.439L156.489 107.394L156.055 106.493ZM151.798 106.16L151.256 107L151.344 107.057L151.442 107.094L151.798 106.16ZM149 104L149.707 103.293L149.45 103.036L149.087 103.004L149 104ZM133.766 107.281L134.167 108.197L134.174 108.194L134.18 108.191L133.766 107.281ZM131.463 108.29L131.062 107.374L131.061 107.375L131.463 108.29ZM124.25 111.5L124.656 112.414L124.659 112.412L124.25 111.5ZM116.994 114.71L116.592 113.794L116.591 113.795L116.994 114.71ZM112.497 116.713L112.902 117.627L112.907 117.625L112.497 116.713ZM104 119L103.274 119.688L103.57 120H104V119ZM99.875 114.125L100.666 113.513L100.66 113.505L99.875 114.125ZM90.5 103L89.7612 103.674L89.7627 103.676L90.5 103ZM81.875 92.875L82.657 92.2517L82.6524 92.246L81.875 92.875ZM62 71L61.2731 71.6868L61.2795 71.6935L62 71ZM60.1814 69.0754L60.9083 68.3886L60.9012 68.3812L60.1814 69.0754ZM49.3125 60.6875L48.8537 61.5761L48.8607 61.5796L49.3125 60.6875ZM46.5508 59.2617L47.0095 58.3731L47.0019 58.3692L46.9941 58.3654L46.5508 59.2617ZM44 58L43.5531 58.8946L43.5566 58.8963L44 58ZM40 56L39.872 55.0082L36.6222 55.4278L39.5525 56.8943L40 56ZM144 114L144.729 114.685L146.181 113.139L144.064 113.002L144 114ZM130 126V127H130.296L130.545 126.839L130 126ZM127 126L126.002 126.057L126.055 127H127V126ZM128.238 117.344L127.632 116.549L127.521 116.633L127.437 116.745L128.238 117.344ZM60.0383 55.8706C61.1046 55.8688 62.1708 55.8671 63.2695 55.8653L63.2662 53.8653C62.1676 53.8671 61.1013 53.8689 60.035 53.8706L60.0383 55.8706ZM63.2691 55.8653C66.7697 55.8609 70.2705 55.8638 73.7725 55.8672L73.7744 53.8672C70.2726 53.8638 66.7697 53.8609 63.2666 53.8653L63.2691 55.8653ZM73.7737 55.8672C76.2232 55.8665 78.6727 55.8655 81.1222 55.8643L81.1212 53.8643C78.6719 53.8655 76.2225 53.8665 73.7732 53.8672L73.7737 55.8672ZM81.122 55.8643C86.2473 55.8628 91.3727 55.8649 96.4981 55.8696L96.4999 53.8696C91.3738 53.8649 86.2477 53.8628 81.1214 53.8643L81.122 55.8643ZM96.4982 55.8696C103.048 55.8753 109.597 55.872 116.146 55.8661L116.144 53.8661C109.596 53.872 103.048 53.8753 96.4999 53.8696L96.4982 55.8696ZM116.146 55.8661C121.202 55.8624 126.258 55.8636 131.314 55.8662L131.315 53.8662C126.258 53.8636 121.201 53.8624 116.144 53.8661L116.146 55.8661ZM131.314 55.8662C133.728 55.8668 136.142 55.866 138.556 55.8637L138.554 53.8637C136.141 53.866 133.728 53.8668 131.315 53.8662L131.314 55.8662ZM138.556 55.8637C141.938 55.8611 145.32 55.8651 148.703 55.8706L148.706 53.8706C145.323 53.8651 141.939 53.8611 138.555 53.8637L138.556 55.8637ZM148.707 55.8706C149.691 55.8686 150.675 55.8666 151.689 55.8645L151.685 53.8645C150.671 53.8666 149.687 53.8686 148.703 53.8706L148.707 55.8706ZM151.684 55.8645C161.715 55.8947 170.063 57.2758 177.678 60.3976C185.294 63.5192 192.235 68.405 199.421 75.523L200.829 74.102C193.506 66.8492 186.352 61.7915 178.437 58.547C170.522 55.3028 161.905 53.8952 151.69 53.8645L151.684 55.8645ZM199.412 75.514C204.719 80.9045 209.499 86.6578 214.216 92.6204L215.784 91.3796C211.051 85.3962 206.219 79.5775 200.838 74.111L199.412 75.514ZM214.222 92.6286C216.383 95.3026 218.555 97.9677 220.725 100.631L222.275 99.3686C220.105 96.7037 217.936 94.0419 215.778 91.3714L214.222 92.6286ZM220.724 100.63C221.844 102.009 222.963 103.388 224.083 104.767L225.636 103.506C224.516 102.127 223.396 100.748 222.276 99.3695L220.724 100.63ZM224.083 104.767C228.119 109.734 232.171 114.686 236.227 119.634L237.773 118.366C233.719 113.419 229.668 108.469 225.635 103.506L224.083 104.767ZM236.227 119.634C240.281 124.581 244.332 129.531 248.365 134.494L249.917 133.233C245.881 128.266 241.829 123.314 237.773 118.366L236.227 119.634ZM248.365 134.494C249.19 135.51 249.19 135.51 250.033 136.547L251.585 135.286C250.743 134.249 250.743 134.249 249.917 133.233L248.365 134.494ZM250.033 136.546C251.155 137.929 252.275 139.313 253.393 140.698L254.949 139.442C253.83 138.055 252.709 136.67 251.586 135.286L250.033 136.546ZM253.394 140.699C255.921 143.824 258.468 146.937 261.112 149.984L262.622 148.673C260.002 145.653 257.472 142.562 254.949 139.441L253.394 140.699ZM261.108 149.979C261.936 150.944 262.764 151.908 263.616 152.901L265.134 151.599C264.281 150.605 263.454 149.641 262.626 148.677L261.108 149.979ZM263.624 152.91C264.718 154.155 264.718 154.155 265.835 155.426L267.337 154.105C266.221 152.835 266.221 152.835 265.126 151.59L263.624 152.91ZM265.741 155.3C266.481 156.47 266.744 156.9 266.867 157.28C266.976 157.615 266.982 157.928 266.961 158.98L268.961 159.02C268.979 158.072 269.004 157.385 268.769 156.662C268.549 155.983 268.105 155.296 267.431 154.231L265.741 155.3ZM267.06 158.567C265.869 161.045 264.36 162.902 262.488 165.102L264.012 166.398C265.89 164.191 267.55 162.164 268.862 159.433L267.06 158.567ZM262.484 165.107C261.675 166.071 260.865 167.035 260.031 168.029L261.563 169.315C262.397 168.321 263.206 167.357 264.016 166.393L262.484 165.107ZM260.033 168.027C259.363 168.821 259.363 168.821 258.679 169.63L260.208 170.92C260.891 170.111 260.891 170.111 261.561 169.317L260.033 168.027ZM258.676 169.634C255.983 172.851 253.353 176.121 250.723 179.371L252.277 180.629C254.914 177.372 257.53 174.119 260.21 170.917L258.676 169.634ZM250.724 179.37C244.88 186.569 239.011 193.748 233.133 200.921L234.68 202.189C240.559 195.015 246.43 187.833 252.276 180.63L250.724 179.37ZM233.133 200.921C229.218 205.701 225.312 210.487 221.418 215.284L222.971 216.544C226.863 211.75 230.767 206.966 234.68 202.188L233.133 200.921ZM221.418 215.283C220.287 216.677 219.154 218.069 218.02 219.46L219.571 220.724C220.705 219.331 221.839 217.938 222.971 216.544L221.418 215.283ZM218.02 219.461C215.62 222.408 213.228 225.364 210.874 228.359L212.446 229.595C214.789 226.614 217.173 223.669 219.571 220.723L218.02 219.461ZM210.876 228.356C198.497 243.986 185.718 257.231 165.813 261.018L166.187 262.982C186.856 259.051 200.027 245.275 212.444 229.597L210.876 228.356ZM165.913 261.004C161.648 261.375 157.41 261.382 153.081 261.341L153.062 263.341C157.396 263.382 161.717 263.377 166.087 262.996L165.913 261.004ZM153.071 261.341C151.84 261.341 150.61 261.341 149.342 261.342L149.342 263.342C150.61 263.341 151.841 263.341 153.072 263.341L153.071 261.341ZM149.342 261.342C146.011 261.34 142.679 261.325 139.347 261.304L139.334 263.304C142.669 263.325 146.005 263.34 149.341 263.342L149.342 261.342ZM139.346 261.304C135.844 261.285 132.342 261.284 128.843 261.28L128.841 263.28C132.342 263.284 135.838 263.285 139.335 263.304L139.346 261.304ZM128.844 261.28C122.237 261.271 115.63 261.246 109.022 261.216L109.013 263.216C115.622 263.246 122.231 263.271 128.841 263.28L128.844 261.28ZM109.022 261.216C101.49 261.182 93.9576 261.166 86.4267 261.151L86.4227 263.151C93.9537 263.166 101.484 263.182 109.013 263.216L109.022 261.216ZM86.4267 261.151C70.9526 261.12 55.4786 261.067 40.0043 261L39.9957 263C55.4711 263.067 70.9467 263.12 86.4226 263.151L86.4267 261.151ZM40.8944 262.447C41.432 261.372 41.5976 261.074 41.7918 260.89C41.9641 260.726 42.1893 260.623 43.1784 260.253L42.4779 258.38C41.6388 258.694 40.9499 258.932 40.4152 259.439C39.9024 259.926 39.568 260.628 39.1056 261.553L40.8944 262.447ZM43.1253 260.271C43.9246 260.022 44.7238 259.774 45.5472 259.517L44.9528 257.608C44.1293 257.864 43.3301 258.113 42.5309 258.362L43.1253 260.271ZM45.6077 259.496C56.3615 255.377 64.816 246.177 71.7754 237.631L70.2246 236.369C63.2679 244.91 55.1029 253.717 44.8923 257.629L45.6077 259.496ZM71.765 237.644C73.647 235.409 75.5453 233.186 77.4474 230.962L75.9276 229.663C74.0254 231.886 72.1226 234.114 70.235 236.356L71.765 237.644ZM77.4482 230.962C77.959 230.363 78.4698 229.764 78.9961 229.147L77.4746 227.849C76.9483 228.466 76.4375 229.065 75.9268 229.663L77.4482 230.962ZM78.9945 229.149C83.0774 224.387 87.2947 219.759 91.5778 215.16L90.1141 213.797C85.8223 218.406 81.5843 223.056 77.4762 227.847L78.9945 229.149ZM91.5778 215.16C94.7806 211.72 97.9089 208.232 100.983 204.678L99.4702 203.369C96.4118 206.905 93.2999 210.375 90.1141 213.797L91.5778 215.16ZM100.979 204.683C103.196 202.153 105.463 199.669 107.739 197.174L106.261 195.826C103.988 198.318 101.707 200.817 99.4745 203.364L100.979 204.683ZM107.739 197.174C110.605 194.031 113.459 190.874 116.255 187.656L114.745 186.344C111.965 189.544 109.124 192.687 106.261 195.826L107.739 197.174ZM116.255 187.656C119.035 184.456 121.876 181.313 124.739 178.174L123.261 176.826C120.395 179.969 117.541 183.126 114.745 186.344L116.255 187.656ZM124.739 178.174C128.197 174.382 131.61 170.558 134.977 166.683L133.468 165.371C130.112 169.233 126.71 173.045 123.261 176.826L124.739 178.174ZM134.975 166.687C137.799 163.465 140.679 160.294 143.559 157.104L142.074 155.764C139.2 158.947 136.307 162.133 133.471 165.368L134.975 166.687ZM143.561 157.101C145.457 154.988 147.331 152.86 149.192 150.718L147.683 149.407C145.827 151.542 143.96 153.662 142.072 155.766L143.561 157.101ZM149.192 150.719C151.995 147.5 154.856 144.335 157.739 141.174L156.261 139.826C153.375 142.99 150.502 146.169 147.683 149.406L149.192 150.719ZM157.739 141.173C160.57 138.065 163.404 134.95 166.188 131.786L164.687 130.464C161.916 133.614 159.093 136.718 156.261 139.827L157.739 141.173ZM166.188 131.786C166.732 131.169 167.276 130.551 167.836 129.915L166.336 128.593C165.775 129.229 165.231 129.846 164.687 130.464L166.188 131.786ZM167.848 129.901C169.423 128.047 170.942 126.173 172.448 124.274L170.881 123.031C169.383 124.919 167.879 126.775 166.324 128.607L167.848 129.901ZM172.442 124.281C172.92 123.69 173.397 123.098 173.889 122.489L172.334 121.232C171.842 121.841 171.364 122.433 170.886 123.024L172.442 124.281ZM173.89 122.489C174.843 121.308 175.783 120.116 176.71 118.913L175.126 117.693C174.209 118.883 173.277 120.063 172.333 121.233L173.89 122.489ZM176.694 118.934C177.872 117.485 178.742 116.519 179.732 115.789C180.703 115.073 181.842 114.549 183.594 114.088L183.085 112.154C181.166 112.659 179.776 113.272 178.545 114.179C177.334 115.072 176.328 116.214 175.142 117.672L176.694 118.934ZM183.385 114.12C184.702 114.06 184.702 114.06 186.045 113.999L185.955 112.001C184.611 112.062 184.611 112.062 183.294 112.122L183.385 114.12ZM185.2 113.6C186.19 114.92 187.18 116.24 188.2 117.6L189.8 116.4C188.78 115.04 187.79 113.72 186.8 112.4L185.2 113.6ZM189.997 117.081C190.271 113.725 190.254 110.97 189.639 108.333C189.021 105.684 187.817 103.223 185.814 100.419L184.186 101.581C186.082 104.236 187.148 106.459 187.691 108.787C188.237 111.128 188.271 113.643 188.003 116.919L189.997 117.081ZM185.555 100.168C183.393 98.7271 181.451 98.0068 179.393 97.7478C177.367 97.4929 175.278 97.6932 172.87 98.0085L173.13 99.9915C175.532 99.677 177.396 99.5123 179.143 99.7322C180.859 99.9481 182.511 100.543 184.445 101.832L185.555 100.168ZM172.693 98.0483C169.214 99.1711 165.981 100.673 162.754 102.224L163.621 104.026C166.843 102.478 169.969 101.029 173.307 99.9517L172.693 98.0483ZM162.756 102.223C161.115 103.008 159.468 103.78 157.815 104.536L158.646 106.355C160.311 105.594 161.969 104.817 163.619 104.027L162.756 102.223ZM157.797 104.544C157.079 104.89 156.361 105.236 155.622 105.592L156.489 107.394C157.229 107.038 157.947 106.692 158.664 106.346L157.797 104.544ZM155.816 105.522C154.729 105.79 154.395 105.861 154.06 105.835C153.706 105.807 153.316 105.669 152.155 105.225L151.442 107.094C152.482 107.491 153.193 107.773 153.904 107.828C154.633 107.886 155.327 107.703 156.295 107.464L155.816 105.522ZM152.34 105.319C151.423 104.728 151.019 104.466 150.711 104.228C150.421 104.005 150.217 103.803 149.707 103.293L148.293 104.707C148.783 105.197 149.079 105.495 149.489 105.812C149.881 106.114 150.375 106.432 151.256 107L152.34 105.319ZM149.087 103.004C142.878 102.459 138.693 103.937 133.351 106.371L134.18 108.191C139.402 105.812 143.211 104.496 148.913 104.996L149.087 103.004ZM133.364 106.365C132.604 106.698 131.845 107.031 131.062 107.374L131.864 109.206C132.647 108.863 133.407 108.53 134.167 108.197L133.364 106.365ZM131.061 107.375C128.647 108.434 126.242 109.51 123.841 110.588L124.659 112.412C127.06 111.335 129.459 110.262 131.865 109.206L131.061 107.375ZM123.844 110.586C121.428 111.66 119.011 112.73 116.592 113.794L117.397 115.625C119.819 114.56 122.239 113.489 124.656 112.414L123.844 110.586ZM116.591 113.795C115.087 114.457 113.585 115.126 112.086 115.801L112.907 117.625C114.401 116.952 115.898 116.285 117.397 115.625L116.591 113.795ZM112.092 115.799C109.091 117.128 107.085 118 104 118V120C107.551 120 109.905 118.955 112.902 117.627L112.092 115.799ZM104.726 118.312C102.809 116.287 102.83 116.314 100.666 113.513L99.0838 114.737C101.279 117.577 101.301 117.603 103.274 119.688L104.726 118.312ZM100.66 113.505C97.6303 109.672 94.552 105.941 91.2373 102.324L89.7627 103.676C93.0323 107.243 96.0774 110.932 99.0904 114.745L100.66 113.505ZM91.2388 102.326C88.2539 99.054 85.4189 95.717 82.657 92.2517L81.093 93.4983C83.8809 96.9962 86.7447 100.367 89.7612 103.674L91.2388 102.326ZM82.6524 92.246C76.4169 84.5394 69.5519 77.4042 62.7205 70.3065L61.2795 71.6935C68.1206 78.8011 74.9251 85.8753 81.0976 93.504L82.6524 92.246ZM62.7268 70.3132C62.1267 69.6781 61.5266 69.043 60.9082 68.3886L59.4546 69.7623C60.0729 70.4166 60.673 71.0517 61.2732 71.6868L62.7268 70.3132ZM60.9012 68.3812C57.48 64.8339 54.2884 62.0865 49.7643 59.7954L48.8607 61.5796C53.1133 63.7332 56.1276 66.3126 59.4616 69.7696L60.9012 68.3812ZM49.7712 59.7989C48.4042 59.0932 48.4042 59.0932 47.0095 58.3731L46.092 60.1503C47.4867 60.8703 47.4867 60.8703 48.8538 61.5761L49.7712 59.7989ZM46.9941 58.3654C46.1524 57.949 45.3106 57.5326 44.4434 57.1037L43.5566 58.8963C44.4239 59.3253 45.2657 59.7417 46.1074 60.1581L46.9941 58.3654ZM44.4469 57.1054C43.1135 56.4393 41.7804 55.7728 40.4475 55.1057L39.5525 56.8943C40.8858 57.5615 42.2194 58.2282 43.5531 58.8946L44.4469 57.1054ZM40.128 56.9918C46.7907 56.1316 53.2932 55.8568 60.0346 55.8706L60.0387 53.8706C53.2402 53.8567 46.6462 54.1336 39.872 55.0082L40.128 56.9918ZM143.271 113.315C139.094 117.762 134.54 121.857 129.455 125.161L130.545 126.839C135.802 123.422 140.478 119.21 144.729 114.685L143.271 113.315ZM130 125C129.998 125 129.996 125 129.994 125C129.992 125 129.99 125 129.988 125C129.986 125 129.985 125 129.983 125C129.981 125 129.979 125 129.977 125C129.975 125 129.973 125 129.971 125C129.969 125 129.967 125 129.965 125C129.963 125 129.961 125 129.959 125C129.957 125 129.956 125 129.954 125C129.952 125 129.95 125 129.948 125C129.946 125 129.944 125 129.942 125C129.94 125 129.938 125 129.936 125C129.934 125 129.932 125 129.93 125C129.928 125 129.927 125 129.925 125C129.923 125 129.921 125 129.919 125C129.917 125 129.915 125 129.913 125C129.911 125 129.909 125 129.907 125C129.905 125 129.903 125 129.901 125C129.899 125 129.898 125 129.896 125C129.894 125 129.892 125 129.89 125C129.888 125 129.886 125 129.884 125C129.882 125 129.88 125 129.878 125C129.876 125 129.874 125 129.872 125C129.87 125 129.869 125 129.867 125C129.865 125 129.863 125 129.861 125C129.859 125 129.857 125 129.855 125C129.853 125 129.851 125 129.849 125C129.847 125 129.845 125 129.843 125C129.841 125 129.84 125 129.838 125C129.836 125 129.834 125 129.832 125C129.83 125 129.828 125 129.826 125C129.824 125 129.822 125 129.82 125C129.818 125 129.816 125 129.814 125C129.812 125 129.811 125 129.809 125C129.807 125 129.805 125 129.803 125C129.801 125 129.799 125 129.797 125C129.795 125 129.793 125 129.791 125C129.789 125 129.787 125 129.785 125C129.783 125 129.781 125 129.78 125C129.778 125 129.776 125 129.774 125C129.772 125 129.77 125 129.768 125C129.766 125 129.764 125 129.762 125C129.76 125 129.758 125 129.756 125C129.754 125 129.752 125 129.751 125C129.749 125 129.747 125 129.745 125C129.743 125 129.741 125 129.739 125C129.737 125 129.735 125 129.733 125C129.731 125 129.729 125 129.727 125C129.725 125 129.723 125 129.722 125C129.72 125 129.718 125 129.716 125C129.714 125 129.712 125 129.71 125C129.708 125 129.706 125 129.704 125C129.702 125 129.7 125 129.698 125C129.696 125 129.694 125 129.693 125C129.691 125 129.689 125 129.687 125C129.685 125 129.683 125 129.681 125C129.679 125 129.677 125 129.675 125C129.673 125 129.671 125 129.669 125C129.667 125 129.665 125 129.664 125C129.662 125 129.66 125 129.658 125C129.656 125 129.654 125 129.652 125C129.65 125 129.648 125 129.646 125C129.644 125 129.642 125 129.64 125C129.638 125 129.636 125 129.634 125C129.633 125 129.631 125 129.629 125C129.627 125 129.625 125 129.623 125C129.621 125 129.619 125 129.617 125C129.615 125 129.613 125 129.611 125C129.609 125 129.607 125 129.605 125C129.604 125 129.602 125 129.6 125C129.598 125 129.596 125 129.594 125C129.592 125 129.59 125 129.588 125C129.586 125 129.584 125 129.582 125C129.58 125 129.578 125 129.576 125C129.575 125 129.573 125 129.571 125C129.569 125 129.567 125 129.565 125C129.563 125 129.561 125 129.559 125C129.557 125 129.555 125 129.553 125C129.551 125 129.549 125 129.547 125C129.545 125 129.544 125 129.542 125C129.54 125 129.538 125 129.536 125C129.534 125 129.532 125 129.53 125C129.528 125 129.526 125 129.524 125C129.522 125 129.52 125 129.518 125C129.516 125 129.515 125 129.513 125C129.511 125 129.509 125 129.507 125C129.505 125 129.503 125 129.501 125C129.499 125 129.497 125 129.495 125C129.493 125 129.491 125 129.489 125C129.487 125 129.486 125 129.484 125C129.482 125 129.48 125 129.478 125C129.476 125 129.474 125 129.472 125C129.47 125 129.468 125 129.466 125C129.464 125 129.462 125 129.46 125C129.458 125 129.456 125 129.455 125C129.453 125 129.451 125 129.449 125C129.447 125 129.445 125 129.443 125C129.441 125 129.439 125 129.437 125C129.435 125 129.433 125 129.431 125C129.429 125 129.427 125 129.426 125C129.424 125 129.422 125 129.42 125C129.418 125 129.416 125 129.414 125C129.412 125 129.41 125 129.408 125C129.406 125 129.404 125 129.402 125C129.4 125 129.398 125 129.396 125C129.395 125 129.393 125 129.391 125C129.389 125 129.387 125 129.385 125C129.383 125 129.381 125 129.379 125C129.377 125 129.375 125 129.373 125C129.371 125 129.369 125 129.367 125C129.365 125 129.364 125 129.362 125C129.36 125 129.358 125 129.356 125C129.354 125 129.352 125 129.35 125C129.348 125 129.346 125 129.344 125C129.342 125 129.34 125 129.338 125C129.336 125 129.335 125 129.333 125C129.331 125 129.329 125 129.327 125C129.325 125 129.323 125 129.321 125C129.319 125 129.317 125 129.315 125C129.313 125 129.311 125 129.309 125C129.307 125 129.305 125 129.304 125C129.302 125 129.3 125 129.298 125C129.296 125 129.294 125 129.292 125C129.29 125 129.288 125 129.286 125C129.284 125 129.282 125 129.28 125C129.278 125 129.276 125 129.274 125C129.273 125 129.271 125 129.269 125C129.267 125 129.265 125 129.263 125C129.261 125 129.259 125 129.257 125C129.255 125 129.253 125 129.251 125C129.249 125 129.247 125 129.245 125C129.243 125 129.242 125 129.24 125C129.238 125 129.236 125 129.234 125C129.232 125 129.23 125 129.228 125C129.226 125 129.224 125 129.222 125C129.22 125 129.218 125 129.216 125C129.214 125 129.212 125 129.211 125C129.209 125 129.207 125 129.205 125C129.203 125 129.201 125 129.199 125C129.197 125 129.195 125 129.193 125C129.191 125 129.189 125 129.187 125C129.185 125 129.183 125 129.181 125C129.18 125 129.178 125 129.176 125C129.174 125 129.172 125 129.17 125C129.168 125 129.166 125 129.164 125C129.162 125 129.16 125 129.158 125C129.156 125 129.154 125 129.152 125C129.15 125 129.149 125 129.147 125C129.145 125 129.143 125 129.141 125C129.139 125 129.137 125 129.135 125C129.133 125 129.131 125 129.129 125C129.127 125 129.125 125 129.123 125C129.121 125 129.119 125 129.117 125C129.116 125 129.114 125 129.112 125C129.11 125 129.108 125 129.106 125C129.104 125 129.102 125 129.1 125C129.098 125 129.096 125 129.094 125C129.092 125 129.09 125 129.088 125C129.086 125 129.085 125 129.083 125C129.081 125 129.079 125 129.077 125C129.075 125 129.073 125 129.071 125C129.069 125 129.067 125 129.065 125C129.063 125 129.061 125 129.059 125C129.057 125 129.055 125 129.054 125C129.052 125 129.05 125 129.048 125C129.046 125 129.044 125 129.042 125C129.04 125 129.038 125 129.036 125C129.034 125 129.032 125 129.03 125C129.028 125 129.026 125 129.024 125C129.022 125 129.021 125 129.019 125C129.017 125 129.015 125 129.013 125C129.011 125 129.009 125 129.007 125C129.005 125 129.003 125 129.001 125C128.999 125 128.997 125 128.995 125C128.993 125 128.991 125 128.989 125C128.988 125 128.986 125 128.984 125C128.982 125 128.98 125 128.978 125C128.976 125 128.974 125 128.972 125C128.97 125 128.968 125 128.966 125C128.964 125 128.962 125 128.96 125C128.958 125 128.956 125 128.955 125C128.953 125 128.951 125 128.949 125C128.947 125 128.945 125 128.943 125C128.941 125 128.939 125 128.937 125C128.935 125 128.933 125 128.931 125C128.929 125 128.927 125 128.925 125C128.923 125 128.922 125 128.92 125C128.918 125 128.916 125 128.914 125C128.912 125 128.91 125 128.908 125C128.906 125 128.904 125 128.902 125C128.9 125 128.898 125 128.896 125C128.894 125 128.892 125 128.89 125C128.889 125 128.887 125 128.885 125C128.883 125 128.881 125 128.879 125C128.877 125 128.875 125 128.873 125C128.871 125 128.869 125 128.867 125C128.865 125 128.863 125 128.861 125C128.859 125 128.857 125 128.856 125C128.854 125 128.852 125 128.85 125C128.848 125 128.846 125 128.844 125C128.842 125 128.84 125 128.838 125C128.836 125 128.834 125 128.832 125C128.83 125 128.828 125 128.826 125C128.824 125 128.823 125 128.821 125C128.819 125 128.817 125 128.815 125C128.813 125 128.811 125 128.809 125C128.807 125 128.805 125 128.803 125C128.801 125 128.799 125 128.797 125C128.795 125 128.793 125 128.791 125C128.789 125 128.788 125 128.786 125C128.784 125 128.782 125 128.78 125C128.778 125 128.776 125 128.774 125C128.772 125 128.77 125 128.768 125C128.766 125 128.764 125 128.762 125C128.76 125 128.758 125 128.756 125C128.754 125 128.753 125 128.751 125C128.749 125 128.747 125 128.745 125C128.743 125 128.741 125 128.739 125C128.737 125 128.735 125 128.733 125C128.731 125 128.729 125 128.727 125C128.725 125 128.723 125 128.721 125C128.72 125 128.718 125 128.716 125C128.714 125 128.712 125 128.71 125C128.708 125 128.706 125 128.704 125C128.702 125 128.7 125 128.698 125C128.696 125 128.694 125 128.692 125C128.69 125 128.688 125 128.686 125C128.684 125 128.683 125 128.681 125C128.679 125 128.677 125 128.675 125C128.673 125 128.671 125 128.669 125C128.667 125 128.665 125 128.663 125C128.661 125 128.659 125 128.657 125C128.655 125 128.653 125 128.651 125C128.649 125 128.648 125 128.646 125C128.644 125 128.642 125 128.64 125C128.638 125 128.636 125 128.634 125C128.632 125 128.63 125 128.628 125C128.626 125 128.624 125 128.622 125C128.62 125 128.618 125 128.616 125C128.614 125 128.613 125 128.611 125C128.609 125 128.607 125 128.605 125C128.603 125 128.601 125 128.599 125C128.597 125 128.595 125 128.593 125C128.591 125 128.589 125 128.587 125C128.585 125 128.583 125 128.581 125C128.579 125 128.577 125 128.576 125C128.574 125 128.572 125 128.57 125C128.568 125 128.566 125 128.564 125C128.562 125 128.56 125 128.558 125C128.556 125 128.554 125 128.552 125C128.55 125 128.548 125 128.546 125C128.544 125 128.542 125 128.54 125C128.539 125 128.537 125 128.535 125C128.533 125 128.531 125 128.529 125C128.527 125 128.525 125 128.523 125C128.521 125 128.519 125 128.517 125C128.515 125 128.513 125 128.511 125C128.509 125 128.507 125 128.505 125C128.503 125 128.502 125 128.5 125C128.498 125 128.496 125 128.494 125C128.492 125 128.49 125 128.488 125C128.486 125 128.484 125 128.482 125C128.48 125 128.478 125 128.476 125C128.474 125 128.472 125 128.47 125C128.468 125 128.466 125 128.464 125C128.463 125 128.461 125 128.459 125C128.457 125 128.455 125 128.453 125C128.451 125 128.449 125 128.447 125C128.445 125 128.443 125 128.441 125C128.439 125 128.437 125 128.435 125C128.433 125 128.431 125 128.429 125C128.427 125 128.425 125 128.424 125C128.422 125 128.42 125 128.418 125C128.416 125 128.414 125 128.412 125C128.41 125 128.408 125 128.406 125C128.404 125 128.402 125 128.4 125C128.398 125 128.396 125 128.394 125C128.392 125 128.39 125 128.388 125C128.386 125 128.385 125 128.383 125C128.381 125 128.379 125 128.377 125C128.375 125 128.373 125 128.371 125C128.369 125 128.367 125 128.365 125C128.363 125 128.361 125 128.359 125C128.357 125 128.355 125 128.353 125C128.351 125 128.349 125 128.347 125C128.346 125 128.344 125 128.342 125C128.34 125 128.338 125 128.336 125C128.334 125 128.332 125 128.33 125C128.328 125 128.326 125 128.324 125C128.322 125 128.32 125 128.318 125C128.316 125 128.314 125 128.312 125C128.31 125 128.308 125 128.306 125C128.305 125 128.303 125 128.301 125C128.299 125 128.297 125 128.295 125C128.293 125 128.291 125 128.289 125C128.287 125 128.285 125 128.283 125C128.281 125 128.279 125 128.277 125C128.275 125 128.273 125 128.271 125C128.269 125 128.267 125 128.265 125C128.263 125 128.262 125 128.26 125C128.258 125 128.256 125 128.254 125C128.252 125 128.25 125 128.248 125C128.246 125 128.244 125 128.242 125C128.24 125 128.238 125 128.236 125C128.234 125 128.232 125 128.23 125C128.228 125 128.226 125 128.224 125C128.222 125 128.221 125 128.219 125C128.217 125 128.215 125 128.213 125C128.211 125 128.209 125 128.207 125C128.205 125 128.203 125 128.201 125C128.199 125 128.197 125 128.195 125C128.193 125 128.191 125 128.189 125C128.187 125 128.185 125 128.183 125C128.181 125 128.179 125 128.178 125C128.176 125 128.174 125 128.172 125C128.17 125 128.168 125 128.166 125C128.164 125 128.162 125 128.16 125C128.158 125 128.156 125 128.154 125C128.152 125 128.15 125 128.148 125C128.146 125 128.144 125 128.142 125C128.14 125 128.138 125 128.136 125C128.134 125 128.133 125 128.131 125C128.129 125 128.127 125 128.125 125C128.123 125 128.121 125 128.119 125C128.117 125 128.115 125 128.113 125C128.111 125 128.109 125 128.107 125C128.105 125 128.103 125 128.101 125C128.099 125 128.097 125 128.095 125C128.093 125 128.091 125 128.089 125C128.087 125 128.086 125 128.084 125C128.082 125 128.08 125 128.078 125C128.076 125 128.074 125 128.072 125C128.07 125 128.068 125 128.066 125C128.064 125 128.062 125 128.06 125C128.058 125 128.056 125 128.054 125C128.052 125 128.05 125 128.048 125C128.046 125 128.044 125 128.042 125C128.04 125 128.039 125 128.037 125C128.035 125 128.033 125 128.031 125C128.029 125 128.027 125 128.025 125C128.023 125 128.021 125 128.019 125C128.017 125 128.015 125 128.013 125C128.011 125 128.009 125 128.007 125C128.005 125 128.003 125 128.001 125C127.999 125 127.997 125 127.995 125C127.993 125 127.992 125 127.99 125C127.988 125 127.986 125 127.984 125C127.982 125 127.98 125 127.978 125C127.976 125 127.974 125 127.972 125C127.97 125 127.968 125 127.966 125C127.964 125 127.962 125 127.96 125C127.958 125 127.956 125 127.954 125C127.952 125 127.95 125 127.948 125C127.946 125 127.944 125 127.942 125C127.941 125 127.939 125 127.937 125C127.935 125 127.933 125 127.931 125C127.929 125 127.927 125 127.925 125C127.923 125 127.921 125 127.919 125C127.917 125 127.915 125 127.913 125C127.911 125 127.909 125 127.907 125C127.905 125 127.903 125 127.901 125C127.899 125 127.897 125 127.895 125C127.893 125 127.891 125 127.89 125C127.888 125 127.886 125 127.884 125C127.882 125 127.88 125 127.878 125C127.876 125 127.874 125 127.872 125C127.87 125 127.868 125 127.866 125C127.864 125 127.862 125 127.86 125C127.858 125 127.856 125 127.854 125C127.852 125 127.85 125 127.848 125C127.846 125 127.844 125 127.842 125C127.84 125 127.838 125 127.836 125C127.835 125 127.833 125 127.831 125C127.829 125 127.827 125 127.825 125C127.823 125 127.821 125 127.819 125C127.817 125 127.815 125 127.813 125C127.811 125 127.809 125 127.807 125C127.805 125 127.803 125 127.801 125C127.799 125 127.797 125 127.795 125C127.793 125 127.791 125 127.789 125C127.787 125 127.785 125 127.783 125C127.781 125 127.78 125 127.778 125C127.776 125 127.774 125 127.772 125C127.77 125 127.768 125 127.766 125C127.764 125 127.762 125 127.76 125C127.758 125 127.756 125 127.754 125C127.752 125 127.75 125 127.748 125C127.746 125 127.744 125 127.742 125C127.74 125 127.738 125 127.736 125C127.734 125 127.732 125 127.73 125C127.728 125 127.726 125 127.724 125C127.722 125 127.721 125 127.719 125C127.717 125 127.715 125 127.713 125C127.711 125 127.709 125 127.707 125C127.705 125 127.703 125 127.701 125C127.699 125 127.697 125 127.695 125C127.693 125 127.691 125 127.689 125C127.687 125 127.685 125 127.683 125C127.681 125 127.679 125 127.677 125C127.675 125 127.673 125 127.671 125C127.669 125 127.667 125 127.665 125C127.663 125 127.661 125 127.659 125C127.658 125 127.656 125 127.654 125C127.652 125 127.65 125 127.648 125C127.646 125 127.644 125 127.642 125C127.64 125 127.638 125 127.636 125C127.634 125 127.632 125 127.63 125C127.628 125 127.626 125 127.624 125C127.622 125 127.62 125 127.618 125C127.616 125 127.614 125 127.612 125C127.61 125 127.608 125 127.606 125C127.604 125 127.602 125 127.6 125C127.598 125 127.596 125 127.594 125C127.592 125 127.591 125 127.589 125C127.587 125 127.585 125 127.583 125C127.581 125 127.579 125 127.577 125C127.575 125 127.573 125 127.571 125C127.569 125 127.567 125 127.565 125C127.563 125 127.561 125 127.559 125C127.557 125 127.555 125 127.553 125C127.551 125 127.549 125 127.547 125C127.545 125 127.543 125 127.541 125C127.539 125 127.537 125 127.535 125C127.533 125 127.531 125 127.529 125C127.527 125 127.525 125 127.523 125C127.521 125 127.519 125 127.518 125C127.516 125 127.514 125 127.512 125C127.51 125 127.508 125 127.506 125C127.504 125 127.502 125 127.5 125C127.498 125 127.496 125 127.494 125C127.492 125 127.49 125 127.488 125C127.486 125 127.484 125 127.482 125C127.48 125 127.478 125 127.476 125C127.474 125 127.472 125 127.47 125C127.468 125 127.466 125 127.464 125C127.462 125 127.46 125 127.458 125C127.456 125 127.454 125 127.452 125C127.45 125 127.448 125 127.446 125C127.444 125 127.442 125 127.44 125C127.438 125 127.437 125 127.435 125C127.433 125 127.431 125 127.429 125C127.427 125 127.425 125 127.423 125C127.421 125 127.419 125 127.417 125C127.415 125 127.413 125 127.411 125C127.409 125 127.407 125 127.405 125C127.403 125 127.401 125 127.399 125C127.397 125 127.395 125 127.393 125C127.391 125 127.389 125 127.387 125C127.385 125 127.383 125 127.381 125C127.379 125 127.377 125 127.375 125C127.373 125 127.371 125 127.369 125C127.367 125 127.365 125 127.363 125C127.361 125 127.359 125 127.357 125C127.355 125 127.353 125 127.351 125C127.349 125 127.348 125 127.346 125C127.344 125 127.342 125 127.34 125C127.338 125 127.336 125 127.334 125C127.332 125 127.33 125 127.328 125C127.326 125 127.324 125 127.322 125C127.32 125 127.318 125 127.316 125C127.314 125 127.312 125 127.31 125C127.308 125 127.306 125 127.304 125C127.302 125 127.3 125 127.298 125C127.296 125 127.294 125 127.292 125C127.29 125 127.288 125 127.286 125C127.284 125 127.282 125 127.28 125C127.278 125 127.276 125 127.274 125C127.272 125 127.27 125 127.268 125C127.266 125 127.264 125 127.262 125C127.26 125 127.258 125 127.256 125C127.254 125 127.252 125 127.25 125C127.248 125 127.246 125 127.244 125C127.242 125 127.241 125 127.239 125C127.237 125 127.235 125 127.233 125C127.231 125 127.229 125 127.227 125C127.225 125 127.223 125 127.221 125C127.219 125 127.217 125 127.215 125C127.213 125 127.211 125 127.209 125C127.207 125 127.205 125 127.203 125C127.201 125 127.199 125 127.197 125C127.195 125 127.193 125 127.191 125C127.189 125 127.187 125 127.185 125C127.183 125 127.181 125 127.179 125C127.177 125 127.175 125 127.173 125C127.171 125 127.169 125 127.167 125C127.165 125 127.163 125 127.161 125C127.159 125 127.157 125 127.155 125C127.153 125 127.151 125 127.149 125C127.147 125 127.145 125 127.143 125C127.141 125 127.139 125 127.137 125C127.135 125 127.133 125 127.131 125C127.129 125 127.127 125 127.125 125C127.123 125 127.121 125 127.119 125C127.117 125 127.115 125 127.113 125C127.111 125 127.109 125 127.107 125C127.105 125 127.103 125 127.102 125C127.1 125 127.098 125 127.096 125C127.094 125 127.092 125 127.09 125C127.088 125 127.086 125 127.084 125C127.082 125 127.08 125 127.078 125C127.076 125 127.074 125 127.072 125C127.07 125 127.068 125 127.066 125C127.064 125 127.062 125 127.06 125C127.058 125 127.056 125 127.054 125C127.052 125 127.05 125 127.048 125C127.046 125 127.044 125 127.042 125C127.04 125 127.038 125 127.036 125C127.034 125 127.032 125 127.03 125C127.028 125 127.026 125 127.024 125C127.022 125 127.02 125 127.018 125C127.016 125 127.014 125 127.012 125C127.01 125 127.008 125 127.006 125C127.004 125 127.002 125 127 125V127C127.002 127 127.004 127 127.006 127C127.008 127 127.01 127 127.012 127C127.014 127 127.016 127 127.018 127C127.02 127 127.022 127 127.024 127C127.026 127 127.028 127 127.03 127C127.032 127 127.034 127 127.036 127C127.038 127 127.04 127 127.042 127C127.044 127 127.046 127 127.048 127C127.05 127 127.052 127 127.054 127C127.056 127 127.058 127 127.06 127C127.062 127 127.064 127 127.066 127C127.068 127 127.07 127 127.072 127C127.074 127 127.076 127 127.078 127C127.08 127 127.082 127 127.084 127C127.086 127 127.088 127 127.09 127C127.092 127 127.094 127 127.096 127C127.098 127 127.1 127 127.102 127C127.103 127 127.105 127 127.107 127C127.109 127 127.111 127 127.113 127C127.115 127 127.117 127 127.119 127C127.121 127 127.123 127 127.125 127C127.127 127 127.129 127 127.131 127C127.133 127 127.135 127 127.137 127C127.139 127 127.141 127 127.143 127C127.145 127 127.147 127 127.149 127C127.151 127 127.153 127 127.155 127C127.157 127 127.159 127 127.161 127C127.163 127 127.165 127 127.167 127C127.169 127 127.171 127 127.173 127C127.175 127 127.177 127 127.179 127C127.181 127 127.183 127 127.185 127C127.187 127 127.189 127 127.191 127C127.193 127 127.195 127 127.197 127C127.199 127 127.201 127 127.203 127C127.205 127 127.207 127 127.209 127C127.211 127 127.213 127 127.215 127C127.217 127 127.219 127 127.221 127C127.223 127 127.225 127 127.227 127C127.229 127 127.231 127 127.233 127C127.235 127 127.237 127 127.239 127C127.241 127 127.242 127 127.244 127C127.246 127 127.248 127 127.25 127C127.252 127 127.254 127 127.256 127C127.258 127 127.26 127 127.262 127C127.264 127 127.266 127 127.268 127C127.27 127 127.272 127 127.274 127C127.276 127 127.278 127 127.28 127C127.282 127 127.284 127 127.286 127C127.288 127 127.29 127 127.292 127C127.294 127 127.296 127 127.298 127C127.3 127 127.302 127 127.304 127C127.306 127 127.308 127 127.31 127C127.312 127 127.314 127 127.316 127C127.318 127 127.32 127 127.322 127C127.324 127 127.326 127 127.328 127C127.33 127 127.332 127 127.334 127C127.336 127 127.338 127 127.34 127C127.342 127 127.344 127 127.346 127C127.348 127 127.349 127 127.351 127C127.353 127 127.355 127 127.357 127C127.359 127 127.361 127 127.363 127C127.365 127 127.367 127 127.369 127C127.371 127 127.373 127 127.375 127C127.377 127 127.379 127 127.381 127C127.383 127 127.385 127 127.387 127C127.389 127 127.391 127 127.393 127C127.395 127 127.397 127 127.399 127C127.401 127 127.403 127 127.405 127C127.407 127 127.409 127 127.411 127C127.413 127 127.415 127 127.417 127C127.419 127 127.421 127 127.423 127C127.425 127 127.427 127 127.429 127C127.431 127 127.433 127 127.435 127C127.437 127 127.438 127 127.44 127C127.442 127 127.444 127 127.446 127C127.448 127 127.45 127 127.452 127C127.454 127 127.456 127 127.458 127C127.46 127 127.462 127 127.464 127C127.466 127 127.468 127 127.47 127C127.472 127 127.474 127 127.476 127C127.478 127 127.48 127 127.482 127C127.484 127 127.486 127 127.488 127C127.49 127 127.492 127 127.494 127C127.496 127 127.498 127 127.5 127C127.502 127 127.504 127 127.506 127C127.508 127 127.51 127 127.512 127C127.514 127 127.516 127 127.518 127C127.519 127 127.521 127 127.523 127C127.525 127 127.527 127 127.529 127C127.531 127 127.533 127 127.535 127C127.537 127 127.539 127 127.541 127C127.543 127 127.545 127 127.547 127C127.549 127 127.551 127 127.553 127C127.555 127 127.557 127 127.559 127C127.561 127 127.563 127 127.565 127C127.567 127 127.569 127 127.571 127C127.573 127 127.575 127 127.577 127C127.579 127 127.581 127 127.583 127C127.585 127 127.587 127 127.589 127C127.591 127 127.592 127 127.594 127C127.596 127 127.598 127 127.6 127C127.602 127 127.604 127 127.606 127C127.608 127 127.61 127 127.612 127C127.614 127 127.616 127 127.618 127C127.62 127 127.622 127 127.624 127C127.626 127 127.628 127 127.63 127C127.632 127 127.634 127 127.636 127C127.638 127 127.64 127 127.642 127C127.644 127 127.646 127 127.648 127C127.65 127 127.652 127 127.654 127C127.656 127 127.658 127 127.659 127C127.661 127 127.663 127 127.665 127C127.667 127 127.669 127 127.671 127C127.673 127 127.675 127 127.677 127C127.679 127 127.681 127 127.683 127C127.685 127 127.687 127 127.689 127C127.691 127 127.693 127 127.695 127C127.697 127 127.699 127 127.701 127C127.703 127 127.705 127 127.707 127C127.709 127 127.711 127 127.713 127C127.715 127 127.717 127 127.719 127C127.721 127 127.722 127 127.724 127C127.726 127 127.728 127 127.73 127C127.732 127 127.734 127 127.736 127C127.738 127 127.74 127 127.742 127C127.744 127 127.746 127 127.748 127C127.75 127 127.752 127 127.754 127C127.756 127 127.758 127 127.76 127C127.762 127 127.764 127 127.766 127C127.768 127 127.77 127 127.772 127C127.774 127 127.776 127 127.778 127C127.78 127 127.781 127 127.783 127C127.785 127 127.787 127 127.789 127C127.791 127 127.793 127 127.795 127C127.797 127 127.799 127 127.801 127C127.803 127 127.805 127 127.807 127C127.809 127 127.811 127 127.813 127C127.815 127 127.817 127 127.819 127C127.821 127 127.823 127 127.825 127C127.827 127 127.829 127 127.831 127C127.833 127 127.835 127 127.836 127C127.838 127 127.84 127 127.842 127C127.844 127 127.846 127 127.848 127C127.85 127 127.852 127 127.854 127C127.856 127 127.858 127 127.86 127C127.862 127 127.864 127 127.866 127C127.868 127 127.87 127 127.872 127C127.874 127 127.876 127 127.878 127C127.88 127 127.882 127 127.884 127C127.886 127 127.888 127 127.89 127C127.891 127 127.893 127 127.895 127C127.897 127 127.899 127 127.901 127C127.903 127 127.905 127 127.907 127C127.909 127 127.911 127 127.913 127C127.915 127 127.917 127 127.919 127C127.921 127 127.923 127 127.925 127C127.927 127 127.929 127 127.931 127C127.933 127 127.935 127 127.937 127C127.939 127 127.941 127 127.942 127C127.944 127 127.946 127 127.948 127C127.95 127 127.952 127 127.954 127C127.956 127 127.958 127 127.96 127C127.962 127 127.964 127 127.966 127C127.968 127 127.97 127 127.972 127C127.974 127 127.976 127 127.978 127C127.98 127 127.982 127 127.984 127C127.986 127 127.988 127 127.99 127C127.992 127 127.993 127 127.995 127C127.997 127 127.999 127 128.001 127C128.003 127 128.005 127 128.007 127C128.009 127 128.011 127 128.013 127C128.015 127 128.017 127 128.019 127C128.021 127 128.023 127 128.025 127C128.027 127 128.029 127 128.031 127C128.033 127 128.035 127 128.037 127C128.039 127 128.04 127 128.042 127C128.044 127 128.046 127 128.048 127C128.05 127 128.052 127 128.054 127C128.056 127 128.058 127 128.06 127C128.062 127 128.064 127 128.066 127C128.068 127 128.07 127 128.072 127C128.074 127 128.076 127 128.078 127C128.08 127 128.082 127 128.084 127C128.086 127 128.087 127 128.089 127C128.091 127 128.093 127 128.095 127C128.097 127 128.099 127 128.101 127C128.103 127 128.105 127 128.107 127C128.109 127 128.111 127 128.113 127C128.115 127 128.117 127 128.119 127C128.121 127 128.123 127 128.125 127C128.127 127 128.129 127 128.131 127C128.133 127 128.134 127 128.136 127C128.138 127 128.14 127 128.142 127C128.144 127 128.146 127 128.148 127C128.15 127 128.152 127 128.154 127C128.156 127 128.158 127 128.16 127C128.162 127 128.164 127 128.166 127C128.168 127 128.17 127 128.172 127C128.174 127 128.176 127 128.178 127C128.179 127 128.181 127 128.183 127C128.185 127 128.187 127 128.189 127C128.191 127 128.193 127 128.195 127C128.197 127 128.199 127 128.201 127C128.203 127 128.205 127 128.207 127C128.209 127 128.211 127 128.213 127C128.215 127 128.217 127 128.219 127C128.221 127 128.222 127 128.224 127C128.226 127 128.228 127 128.23 127C128.232 127 128.234 127 128.236 127C128.238 127 128.24 127 128.242 127C128.244 127 128.246 127 128.248 127C128.25 127 128.252 127 128.254 127C128.256 127 128.258 127 128.26 127C128.262 127 128.263 127 128.265 127C128.267 127 128.269 127 128.271 127C128.273 127 128.275 127 128.277 127C128.279 127 128.281 127 128.283 127C128.285 127 128.287 127 128.289 127C128.291 127 128.293 127 128.295 127C128.297 127 128.299 127 128.301 127C128.303 127 128.305 127 128.306 127C128.308 127 128.31 127 128.312 127C128.314 127 128.316 127 128.318 127C128.32 127 128.322 127 128.324 127C128.326 127 128.328 127 128.33 127C128.332 127 128.334 127 128.336 127C128.338 127 128.34 127 128.342 127C128.344 127 128.346 127 128.347 127C128.349 127 128.351 127 128.353 127C128.355 127 128.357 127 128.359 127C128.361 127 128.363 127 128.365 127C128.367 127 128.369 127 128.371 127C128.373 127 128.375 127 128.377 127C128.379 127 128.381 127 128.383 127C128.385 127 128.386 127 128.388 127C128.39 127 128.392 127 128.394 127C128.396 127 128.398 127 128.4 127C128.402 127 128.404 127 128.406 127C128.408 127 128.41 127 128.412 127C128.414 127 128.416 127 128.418 127C128.42 127 128.422 127 128.424 127C128.425 127 128.427 127 128.429 127C128.431 127 128.433 127 128.435 127C128.437 127 128.439 127 128.441 127C128.443 127 128.445 127 128.447 127C128.449 127 128.451 127 128.453 127C128.455 127 128.457 127 128.459 127C128.461 127 128.463 127 128.464 127C128.466 127 128.468 127 128.47 127C128.472 127 128.474 127 128.476 127C128.478 127 128.48 127 128.482 127C128.484 127 128.486 127 128.488 127C128.49 127 128.492 127 128.494 127C128.496 127 128.498 127 128.5 127C128.502 127 128.503 127 128.505 127C128.507 127 128.509 127 128.511 127C128.513 127 128.515 127 128.517 127C128.519 127 128.521 127 128.523 127C128.525 127 128.527 127 128.529 127C128.531 127 128.533 127 128.535 127C128.537 127 128.539 127 128.54 127C128.542 127 128.544 127 128.546 127C128.548 127 128.55 127 128.552 127C128.554 127 128.556 127 128.558 127C128.56 127 128.562 127 128.564 127C128.566 127 128.568 127 128.57 127C128.572 127 128.574 127 128.576 127C128.577 127 128.579 127 128.581 127C128.583 127 128.585 127 128.587 127C128.589 127 128.591 127 128.593 127C128.595 127 128.597 127 128.599 127C128.601 127 128.603 127 128.605 127C128.607 127 128.609 127 128.611 127C128.613 127 128.614 127 128.616 127C128.618 127 128.62 127 128.622 127C128.624 127 128.626 127 128.628 127C128.63 127 128.632 127 128.634 127C128.636 127 128.638 127 128.64 127C128.642 127 128.644 127 128.646 127C128.648 127 128.649 127 128.651 127C128.653 127 128.655 127 128.657 127C128.659 127 128.661 127 128.663 127C128.665 127 128.667 127 128.669 127C128.671 127 128.673 127 128.675 127C128.677 127 128.679 127 128.681 127C128.683 127 128.684 127 128.686 127C128.688 127 128.69 127 128.692 127C128.694 127 128.696 127 128.698 127C128.7 127 128.702 127 128.704 127C128.706 127 128.708 127 128.71 127C128.712 127 128.714 127 128.716 127C128.718 127 128.72 127 128.721 127C128.723 127 128.725 127 128.727 127C128.729 127 128.731 127 128.733 127C128.735 127 128.737 127 128.739 127C128.741 127 128.743 127 128.745 127C128.747 127 128.749 127 128.751 127C128.753 127 128.754 127 128.756 127C128.758 127 128.76 127 128.762 127C128.764 127 128.766 127 128.768 127C128.77 127 128.772 127 128.774 127C128.776 127 128.778 127 128.78 127C128.782 127 128.784 127 128.786 127C128.788 127 128.789 127 128.791 127C128.793 127 128.795 127 128.797 127C128.799 127 128.801 127 128.803 127C128.805 127 128.807 127 128.809 127C128.811 127 128.813 127 128.815 127C128.817 127 128.819 127 128.821 127C128.823 127 128.824 127 128.826 127C128.828 127 128.83 127 128.832 127C128.834 127 128.836 127 128.838 127C128.84 127 128.842 127 128.844 127C128.846 127 128.848 127 128.85 127C128.852 127 128.854 127 128.856 127C128.857 127 128.859 127 128.861 127C128.863 127 128.865 127 128.867 127C128.869 127 128.871 127 128.873 127C128.875 127 128.877 127 128.879 127C128.881 127 128.883 127 128.885 127C128.887 127 128.889 127 128.89 127C128.892 127 128.894 127 128.896 127C128.898 127 128.9 127 128.902 127C128.904 127 128.906 127 128.908 127C128.91 127 128.912 127 128.914 127C128.916 127 128.918 127 128.92 127C128.922 127 128.923 127 128.925 127C128.927 127 128.929 127 128.931 127C128.933 127 128.935 127 128.937 127C128.939 127 128.941 127 128.943 127C128.945 127 128.947 127 128.949 127C128.951 127 128.953 127 128.955 127C128.956 127 128.958 127 128.96 127C128.962 127 128.964 127 128.966 127C128.968 127 128.97 127 128.972 127C128.974 127 128.976 127 128.978 127C128.98 127 128.982 127 128.984 127C128.986 127 128.988 127 128.989 127C128.991 127 128.993 127 128.995 127C128.997 127 128.999 127 129.001 127C129.003 127 129.005 127 129.007 127C129.009 127 129.011 127 129.013 127C129.015 127 129.017 127 129.019 127C129.021 127 129.022 127 129.024 127C129.026 127 129.028 127 129.03 127C129.032 127 129.034 127 129.036 127C129.038 127 129.04 127 129.042 127C129.044 127 129.046 127 129.048 127C129.05 127 129.052 127 129.054 127C129.055 127 129.057 127 129.059 127C129.061 127 129.063 127 129.065 127C129.067 127 129.069 127 129.071 127C129.073 127 129.075 127 129.077 127C129.079 127 129.081 127 129.083 127C129.085 127 129.086 127 129.088 127C129.09 127 129.092 127 129.094 127C129.096 127 129.098 127 129.1 127C129.102 127 129.104 127 129.106 127C129.108 127 129.11 127 129.112 127C129.114 127 129.116 127 129.117 127C129.119 127 129.121 127 129.123 127C129.125 127 129.127 127 129.129 127C129.131 127 129.133 127 129.135 127C129.137 127 129.139 127 129.141 127C129.143 127 129.145 127 129.147 127C129.149 127 129.15 127 129.152 127C129.154 127 129.156 127 129.158 127C129.16 127 129.162 127 129.164 127C129.166 127 129.168 127 129.17 127C129.172 127 129.174 127 129.176 127C129.178 127 129.18 127 129.181 127C129.183 127 129.185 127 129.187 127C129.189 127 129.191 127 129.193 127C129.195 127 129.197 127 129.199 127C129.201 127 129.203 127 129.205 127C129.207 127 129.209 127 129.211 127C129.212 127 129.214 127 129.216 127C129.218 127 129.22 127 129.222 127C129.224 127 129.226 127 129.228 127C129.23 127 129.232 127 129.234 127C129.236 127 129.238 127 129.24 127C129.242 127 129.243 127 129.245 127C129.247 127 129.249 127 129.251 127C129.253 127 129.255 127 129.257 127C129.259 127 129.261 127 129.263 127C129.265 127 129.267 127 129.269 127C129.271 127 129.273 127 129.274 127C129.276 127 129.278 127 129.28 127C129.282 127 129.284 127 129.286 127C129.288 127 129.29 127 129.292 127C129.294 127 129.296 127 129.298 127C129.3 127 129.302 127 129.304 127C129.305 127 129.307 127 129.309 127C129.311 127 129.313 127 129.315 127C129.317 127 129.319 127 129.321 127C129.323 127 129.325 127 129.327 127C129.329 127 129.331 127 129.333 127C129.335 127 129.336 127 129.338 127C129.34 127 129.342 127 129.344 127C129.346 127 129.348 127 129.35 127C129.352 127 129.354 127 129.356 127C129.358 127 129.36 127 129.362 127C129.364 127 129.365 127 129.367 127C129.369 127 129.371 127 129.373 127C129.375 127 129.377 127 129.379 127C129.381 127 129.383 127 129.385 127C129.387 127 129.389 127 129.391 127C129.393 127 129.395 127 129.396 127C129.398 127 129.4 127 129.402 127C129.404 127 129.406 127 129.408 127C129.41 127 129.412 127 129.414 127C129.416 127 129.418 127 129.42 127C129.422 127 129.424 127 129.426 127C129.427 127 129.429 127 129.431 127C129.433 127 129.435 127 129.437 127C129.439 127 129.441 127 129.443 127C129.445 127 129.447 127 129.449 127C129.451 127 129.453 127 129.455 127C129.456 127 129.458 127 129.46 127C129.462 127 129.464 127 129.466 127C129.468 127 129.47 127 129.472 127C129.474 127 129.476 127 129.478 127C129.48 127 129.482 127 129.484 127C129.486 127 129.487 127 129.489 127C129.491 127 129.493 127 129.495 127C129.497 127 129.499 127 129.501 127C129.503 127 129.505 127 129.507 127C129.509 127 129.511 127 129.513 127C129.515 127 129.516 127 129.518 127C129.52 127 129.522 127 129.524 127C129.526 127 129.528 127 129.53 127C129.532 127 129.534 127 129.536 127C129.538 127 129.54 127 129.542 127C129.544 127 129.545 127 129.547 127C129.549 127 129.551 127 129.553 127C129.555 127 129.557 127 129.559 127C129.561 127 129.563 127 129.565 127C129.567 127 129.569 127 129.571 127C129.573 127 129.575 127 129.576 127C129.578 127 129.58 127 129.582 127C129.584 127 129.586 127 129.588 127C129.59 127 129.592 127 129.594 127C129.596 127 129.598 127 129.6 127C129.602 127 129.604 127 129.605 127C129.607 127 129.609 127 129.611 127C129.613 127 129.615 127 129.617 127C129.619 127 129.621 127 129.623 127C129.625 127 129.627 127 129.629 127C129.631 127 129.633 127 129.634 127C129.636 127 129.638 127 129.64 127C129.642 127 129.644 127 129.646 127C129.648 127 129.65 127 129.652 127C129.654 127 129.656 127 129.658 127C129.66 127 129.662 127 129.664 127C129.665 127 129.667 127 129.669 127C129.671 127 129.673 127 129.675 127C129.677 127 129.679 127 129.681 127C129.683 127 129.685 127 129.687 127C129.689 127 129.691 127 129.693 127C129.694 127 129.696 127 129.698 127C129.7 127 129.702 127 129.704 127C129.706 127 129.708 127 129.71 127C129.712 127 129.714 127 129.716 127C129.718 127 129.72 127 129.722 127C129.723 127 129.725 127 129.727 127C129.729 127 129.731 127 129.733 127C129.735 127 129.737 127 129.739 127C129.741 127 129.743 127 129.745 127C129.747 127 129.749 127 129.751 127C129.752 127 129.754 127 129.756 127C129.758 127 129.76 127 129.762 127C129.764 127 129.766 127 129.768 127C129.77 127 129.772 127 129.774 127C129.776 127 129.778 127 129.78 127C129.781 127 129.783 127 129.785 127C129.787 127 129.789 127 129.791 127C129.793 127 129.795 127 129.797 127C129.799 127 129.801 127 129.803 127C129.805 127 129.807 127 129.809 127C129.811 127 129.812 127 129.814 127C129.816 127 129.818 127 129.82 127C129.822 127 129.824 127 129.826 127C129.828 127 129.83 127 129.832 127C129.834 127 129.836 127 129.838 127C129.84 127 129.841 127 129.843 127C129.845 127 129.847 127 129.849 127C129.851 127 129.853 127 129.855 127C129.857 127 129.859 127 129.861 127C129.863 127 129.865 127 129.867 127C129.869 127 129.87 127 129.872 127C129.874 127 129.876 127 129.878 127C129.88 127 129.882 127 129.884 127C129.886 127 129.888 127 129.89 127C129.892 127 129.894 127 129.896 127C129.898 127 129.899 127 129.901 127C129.903 127 129.905 127 129.907 127C129.909 127 129.911 127 129.913 127C129.915 127 129.917 127 129.919 127C129.921 127 129.923 127 129.925 127C129.927 127 129.928 127 129.93 127C129.932 127 129.934 127 129.936 127C129.938 127 129.94 127 129.942 127C129.944 127 129.946 127 129.948 127C129.95 127 129.952 127 129.954 127C129.956 127 129.957 127 129.959 127C129.961 127 129.963 127 129.965 127C129.967 127 129.969 127 129.971 127C129.973 127 129.975 127 129.977 127C129.979 127 129.981 127 129.983 127C129.985 127 129.986 127 129.988 127C129.99 127 129.992 127 129.994 127C129.996 127 129.998 127 130 127V125ZM127.998 125.943C127.811 122.627 127.732 121.135 127.868 120.179C127.983 119.378 128.23 119.025 129.039 117.943L127.437 116.745C126.64 117.811 126.084 118.533 125.889 119.896C125.716 121.104 125.821 122.865 126.002 126.057L127.998 125.943ZM128.845 118.139C132.739 115.169 138.832 114.669 143.936 114.998L144.064 113.002C138.886 112.668 132.142 113.109 127.632 116.549L128.845 118.139Z" fill="white" mask="url(#path-1-inside-1_0_3)"/>
</svg>
