<?xml version="1.0" encoding="UTF-8"?>
<svg version="1.1" xmlns="http://www.w3.org/2000/svg" width="310" height="310">
<path d="M0 0 C1.06629135 -0.00175232 2.1325827 -0.00350464 3.23118591 -0.00531006 C6.73307963 -0.0096876 10.23492224 -0.00680462 13.73681641 -0.00341797 C16.18624888 -0.00409228 18.63568128 -0.00506338 21.08511353 -0.00631714 C26.21088297 -0.00778865 31.33663494 -0.00565749 36.46240234 -0.00097656 C43.01109397 0.00471433 49.55974456 0.00144227 56.10843468 -0.00454903 C61.16495062 -0.00817454 66.22145694 -0.00700681 71.27797318 -0.00442123 C73.6915449 -0.00375716 76.10511752 -0.00456212 78.5186882 -0.00690079 C81.901805 -0.00945939 85.28485675 -0.00554152 88.66796875 0 C89.65221329 -0.00202423 90.63645782 -0.00404846 91.65052795 -0.00613403 C111.89667202 0.05485456 125.57986911 5.57110196 140.08837891 19.94189453 C145.43204101 25.37041708 150.23857441 31.15638398 154.96337891 37.12939453 C157.12318963 39.80164331 159.29382868 42.465051 161.46337891 45.12939453 C162.58330107 46.5081948 163.70309497 47.88709925 164.82275391 49.26611328 C168.85682598 54.2310317 172.90831632 59.18161294 176.96337891 64.12939453 C181.01844149 69.07717612 185.06993184 74.02775736 189.10400391 78.99267578 C189.92989014 80.00890015 189.92989014 80.00890015 190.77246094 81.0456543 C191.89492567 82.4288822 193.01571022 83.81347533 194.13476562 85.19946289 C196.65989817 88.32241702 199.19811397 91.42419539 201.83056641 94.45751953 C202.65814453 95.42173828 203.48572266 96.38595703 204.33837891 97.37939453 C205.43279297 98.62462891 205.43279297 98.62462891 206.54931641 99.89501953 C207.96337891 102.12939453 207.96337891 102.12939453 207.92431641 104.12939453 C206.67289573 106.73397739 205.08853041 108.67574934 203.21337891 110.87939453 C202.40384766 111.84361328 201.59431641 112.80783203 200.76025391 113.80126953 C200.09026367 114.59500977 200.09026367 114.59500977 199.40673828 115.40478516 C196.72029831 118.61469922 194.0969929 121.87612923 191.46337891 125.12939453 C185.61828101 132.3303054 179.74862727 139.51082656 173.86962891 146.68408203 C169.95604496 151.46262475 166.05110178 156.24800739 162.15795898 161.04321289 C161.02598879 162.43677078 159.89300895 163.82950914 158.7590332 165.22143555 C156.35980099 168.16774447 153.97179337 171.11869032 151.62353516 174.10595703 C139.22499686 189.75997744 126.25018707 203.27042819 105.96337891 207.12939453 C101.64592029 207.50561842 97.36628222 207.51113193 93.03466797 207.4699707 C91.80396576 207.47040878 90.57326355 207.47084686 89.30526733 207.47129822 C85.97114764 207.46958165 82.63760395 207.4546672 79.30358601 207.43357635 C75.80427605 207.41466266 72.30495622 207.41304765 68.80560303 207.40950012 C62.19731074 207.40022237 55.58916956 207.3756673 48.98094344 207.34545165 C41.44999553 207.31177361 33.91903992 207.29538815 26.3880353 207.28036535 C10.9130627 207.24911323 -4.56175961 207.1964371 -20.03662109 207.12939453 C-19.03662109 205.12939453 -19.03662109 205.12939453 -17.20849609 204.44580078 C-16.40927734 204.19701172 -15.61005859 203.94822266 -14.78662109 203.69189453 C-4.30441737 199.67647359 4.00533056 190.67282098 10.96337891 182.12939453 C12.84815691 179.89076371 14.74874019 177.66578056 16.65087891 175.44189453 C17.16166992 174.84320557 17.67246094 174.2445166 18.19873047 173.62768555 C22.29419967 168.85112478 26.52187682 164.21184463 30.80932617 159.60766602 C34.00360588 156.17704654 37.12372274 152.69767995 40.18994141 149.15283203 C42.41475983 146.61438282 44.6884121 144.12297677 46.96337891 141.62939453 C49.82809706 138.48855897 52.67523793 135.33838698 55.46337891 132.12939453 C58.25151988 128.92040209 61.09866075 125.7702301 63.96337891 122.62939453 C67.41666044 118.84276455 70.82436942 115.02463133 74.18603516 111.15673828 C77.01649506 107.92814775 79.90299097 104.75026278 82.77978516 101.56298828 C84.67186576 99.45428307 86.54243648 97.33019652 88.40087891 95.19189453 C91.21160415 91.96379941 94.07917791 88.7920101 96.96337891 85.62939453 C99.79508894 82.52090081 102.6234145 79.41151234 105.40087891 76.25439453 C105.94486328 75.63693359 106.48884766 75.01947266 107.04931641 74.38330078 C108.61414637 72.54063366 110.12580851 70.67535314 111.62744141 68.78173828 C112.10511963 68.19054199 112.58279785 67.5993457 113.07495117 66.99023438 C114.02335251 65.81474653 114.95938448 64.62914166 115.88110352 63.43261719 C118.24575503 60.52486921 119.63116628 59.21681891 123.30322266 58.25048828 C124.62 58.19054687 124.62 58.19054687 125.96337891 58.12939453 C126.95337891 59.44939453 127.94337891 60.76939453 128.96337891 62.12939453 C129.50471862 55.49798308 128.86235214 51.58795706 124.96337891 46.12939453 C120.86805574 43.39917909 117.77427114 43.49965257 112.96337891 44.12939453 C109.55516246 45.22943327 106.37570876 46.70463491 103.15087891 48.25439453 C101.50530327 49.04212942 99.85312415 49.81625667 98.19384766 50.57470703 C97.47608154 50.92033691 96.75831543 51.2659668 96.01879883 51.62207031 C93.96337891 52.12939453 93.96337891 52.12939453 91.76147461 51.2890625 C89.96337891 50.12939453 89.96337891 50.12939453 88.96337891 49.12939453 C83.00798822 48.60655664 79.01082986 50.00383749 73.72900391 52.41064453 C72.96916199 52.74358521 72.20932007 53.07652588 71.42645264 53.41955566 C69.01658453 54.47751026 66.61475383 55.55231788 64.21337891 56.62939453 C61.79669014 57.70385234 59.37848064 58.77457492 56.9574585 59.8392334 C55.45552695 60.50066748 53.95625804 61.16818838 52.46002197 61.84240723 C49.46154085 63.17072982 47.28116228 64.12939453 43.96337891 64.12939453 C42.01806641 62.07470703 42.01806641 62.07470703 39.83837891 59.25439453 C36.81722039 55.43150463 33.7555098 51.72186017 30.46337891 48.12939453 C27.46268863 44.83997804 24.61325295 41.48597807 21.83837891 38.00439453 C15.6343711 30.33676517 8.79962411 23.23207047 1.96337891 16.12939453 C1.36323975 15.49428955 0.76310059 14.85918457 0.14477539 14.20483398 C-3.23282829 10.70262954 -6.33577244 8.03923943 -10.72412109 5.81689453 C-12.09117188 5.11113281 -12.09117188 5.11113281 -13.48583984 4.39111328 C-14.32759766 3.97474609 -15.16935547 3.55837891 -16.03662109 3.12939453 C-17.37016544 2.46315005 -18.70353541 1.79655626 -20.03662109 1.12939453 C-13.31818601 0.26201886 -6.76987788 -0.01386613 0 0 Z " fill="#0B2A36" transform="translate(60.03662109375,54.87060546875)"/>
<path d="M0 0 C-4.21425599 4.48614347 -8.82893193 8.63977412 -14 12 C-14.99 12 -15.98 12 -17 12 C-17.36833951 5.49266862 -17.36833951 5.49266862 -15.76171875 3.34375 C-11.55966907 0.13863894 -5.14104126 -0.33168008 0 0 Z " fill="#0B2A36" transform="translate(144,114)"/>
</svg>
