<svg width="16" height="16" viewBox="0 0 16 16" xmlns="http://www.w3.org/2000/svg">
<path d="M10.246 6.11196C10.4 6.11296 10.552 6.08196 10.693 6.02196C10.97 5.90396 11.189 5.68396 11.307 5.40796C11.427 5.12196 11.427 4.79896 11.306 4.51196C11.188 4.23496 10.969 4.01496 10.692 3.89795C10.551 3.83795 10.398 3.80696 10.244 3.80796C10.091 3.80696 9.94002 3.83795 9.80002 3.89795C9.69502 3.94296 9.66202 4.00096 9.51802 4.07096V5.84896C9.66302 5.91996 9.69502 5.97696 9.80002 6.02296C9.94102 6.08296 10.093 6.11296 10.246 6.11196ZM12.119 7.56596V11.035H12.697C12.896 11.034 13.094 11.016 13.289 10.979C13.485 10.945 13.674 10.879 13.849 10.784C14.014 10.694 14.157 10.568 14.267 10.416C14.382 10.247 14.44 10.045 14.432 9.84096V7.56596H12.119ZM9.51702 11.953C9.66202 11.984 9.71402 12.009 9.81602 12.023C9.92902 12.039 10.042 12.047 10.155 12.048C10.33 12.047 10.505 12.029 10.676 11.992C10.851 11.957 11.018 11.892 11.17 11.799C11.319 11.707 11.445 11.582 11.538 11.433C11.641 11.26 11.691 11.06 11.683 10.858V6.84396H9.51702V11.953ZM12.456 6.49796C12.561 6.60296 12.686 6.68696 12.823 6.74496C13.109 6.86496 13.432 6.86496 13.719 6.74496C13.996 6.62696 14.216 6.40696 14.333 6.13096C14.453 5.84496 14.453 5.52196 14.333 5.23496C14.215 4.95796 13.995 4.73796 13.719 4.62096C13.433 4.50096 13.11 4.50096 12.823 4.62096C12.546 4.73896 12.326 4.95796 12.209 5.23496C12.089 5.52096 12.089 5.84396 12.209 6.13096C12.268 6.26796 12.352 6.39196 12.456 6.49796ZM1.56702 13.059L9.08302 14.36V1.63995L1.56702 2.94095V13.059ZM3.59102 5.75396L7.06002 5.54296V6.40996L5.75902 6.46796V10.262L4.89202 10.211V6.50096L3.59102 6.55296V5.75396Z"/>
</svg>
