<svg width="16" height="16" viewBox="0 0 16 16" fill="none" xmlns="http://www.w3.org/2000/svg">
<path d="M12.457 6.49796C12.562 6.60296 12.687 6.68696 12.824 6.74496C13.11 6.86496 13.433 6.86496 13.72 6.74496C13.997 6.62696 14.217 6.40696 14.334 6.13096C14.454 5.84496 14.454 5.52196 14.334 5.23496C14.216 4.95796 13.996 4.73796 13.72 4.62096C13.434 4.50096 13.111 4.50096 12.824 4.62096C12.547 4.73896 12.327 4.95896 12.21 5.23496C12.09 5.52096 12.09 5.84396 12.21 6.13096C12.268 6.26796 12.352 6.39196 12.457 6.49796ZM12.12 7.56596V11.035H12.698C12.897 11.034 13.095 11.016 13.29 10.979C13.486 10.944 13.675 10.879 13.85 10.783C14.015 10.693 14.158 10.567 14.268 10.415C14.383 10.246 14.441 10.044 14.433 9.83996V7.56596H12.12ZM10.246 6.11196C10.399 6.11296 10.552 6.08196 10.693 6.02196C10.97 5.90396 11.189 5.68396 11.307 5.40796C11.427 5.12196 11.427 4.79896 11.306 4.51196C11.188 4.23496 10.968 4.01496 10.692 3.89795C10.55 3.83695 10.398 3.80696 10.244 3.80796C10.091 3.80696 9.94002 3.83795 9.79902 3.89795C9.69402 3.94296 9.66102 4.00096 9.51702 4.07096V5.84796C9.66202 5.91896 9.69402 5.97696 9.79902 6.02096C9.94102 6.08296 10.093 6.11296 10.246 6.11196ZM9.51802 11.953C9.66302 11.984 9.71502 12.009 9.81702 12.023C9.92902 12.039 10.043 12.047 10.156 12.048C10.331 12.047 10.506 12.029 10.677 11.992C10.852 11.957 11.019 11.892 11.171 11.799C11.321 11.707 11.447 11.582 11.539 11.433C11.642 11.26 11.692 11.06 11.684 10.858V6.84396H9.51802V11.953ZM1.56702 13.059L9.08302 14.36V1.63995L1.56702 2.94095V13.059Z" fill="#5558AF"/>
<path fill-rule="evenodd" clip-rule="evenodd" d="M7.06007 5.54291L3.59106 5.75391V6.55391L4.89207 6.50191V10.2119L5.75907 10.2619V6.46791L7.06007 6.40991V5.54291Z" fill="white"/>
</svg>
