<svg width="24" height="24" viewBox="0 0 24 24" xmlns="http://www.w3.org/2000/svg">
<path d="M11.9999 1.40002C6.1459 1.40002 1.3999 6.14602 1.3999 12C1.3999 17.854 6.1459 22.6 11.9999 22.6C17.8539 22.6 22.5999 17.854 22.5999 12C22.5999 6.14602 17.8539 1.40002 11.9999 1.40002ZM9.8919 16.394C9.8609 16.423 9.8389 16.436 9.8339 16.443C9.8249 16.434 9.8079 16.416 9.7869 16.379C9.7579 16.328 9.7369 16.274 9.7169 16.22L9.6109 15.896C9.5569 15.711 9.5029 15.526 9.4439 15.343L9.3319 14.987C9.2699 14.79 9.2079 14.594 9.1429 14.398C9.0349 14.078 8.9409 13.753 8.8459 13.429L8.7839 13.216C8.9909 13.094 9.1919 12.963 9.3929 12.832L13.8639 9.98202L11.0019 12.553C10.7599 12.769 10.5199 12.987 10.2799 13.205L10.1449 13.331C10.0769 13.395 10.0089 13.46 9.9379 13.52C9.8329 13.609 9.7819 13.71 9.7849 13.823C9.7879 13.935 9.8459 14.034 9.9559 14.117L11.2599 15.112L9.8919 16.394ZM16.4319 11.425C16.4249 11.458 16.4219 11.492 16.4179 11.525C16.3219 11.993 16.2249 12.462 16.1279 12.93C15.9179 13.94 15.7089 14.951 15.4729 15.956C15.4129 16.214 15.3639 16.475 15.3089 16.735C15.1169 17.219 14.6329 17.367 14.2419 17.066C13.4089 16.425 12.5739 15.787 11.7399 15.146C11.7099 15.123 11.6809 15.099 11.6419 15.093C11.6329 15.077 11.6279 15.057 11.6149 15.047C11.4129 14.891 11.2089 14.735 11.0059 14.581C10.7099 14.355 10.4139 14.129 10.1169 13.905C10.0349 13.843 10.0269 13.793 10.1109 13.722C10.2319 13.62 10.3429 13.507 10.4599 13.401C10.6989 13.184 10.9389 12.966 11.1799 12.75C11.5809 12.392 11.9839 12.037 12.3849 11.678C12.6559 11.434 12.9229 11.185 13.1939 10.94C13.6269 10.55 14.0619 10.162 14.4959 9.77302C14.6719 9.61502 14.8479 9.45602 15.0279 9.30202C15.1259 9.21802 15.1699 9.11302 15.1229 9.04102C15.0699 8.96102 14.9849 8.96002 14.8539 9.03702C14.8509 9.03902 14.8479 9.04102 14.8439 9.04302C14.1619 9.47802 13.4799 9.91403 12.7979 10.348C11.7189 11.035 10.6399 11.722 9.5599 12.408C9.1989 12.638 8.8459 12.881 8.4709 13.09C8.1589 12.964 7.8349 12.873 7.5169 12.764C6.9759 12.581 6.4339 12.401 5.8929 12.22C5.7999 12.188 5.7129 12.144 5.6299 12.092C5.4709 11.992 5.3759 11.861 5.4129 11.662C5.4189 11.646 5.4239 11.631 5.4299 11.616C5.4499 11.579 5.4699 11.542 5.4899 11.505C5.5869 11.407 5.7059 11.345 5.8319 11.291C6.4479 11.025 7.0589 10.75 7.6769 10.489C8.3259 10.215 8.9779 9.95002 9.6309 9.68602C10.2169 9.45103 10.8039 9.22002 11.3929 8.99202C11.7969 8.83602 12.2059 8.69102 12.6109 8.53402C13.3939 8.23202 14.1819 7.94302 14.9699 7.65602C15.2489 7.55502 15.5299 7.45702 15.8079 7.35302C16.0789 7.25202 16.3499 7.15202 16.6339 7.08202C16.9269 7.01102 17.2129 7.14002 17.1539 7.55502C16.9639 8.85602 16.6779 10.137 16.4319 11.425Z"/>
</svg>
