<svg width="24" height="24" viewBox="0 0 24 24" fill="none" xmlns="http://www.w3.org/2000/svg">
<path d="M22.5999 12C22.5999 17.854 17.8539 22.6 11.9999 22.6C6.1459 22.6 1.3999 17.854 1.3999 12C1.3999 6.14602 6.1459 1.40002 11.9999 1.40002C17.8539 1.40002 22.5999 6.14602 22.5999 12Z" fill="#33A7DC"/>
<path fill-rule="evenodd" clip-rule="evenodd" d="M5.42876 11.6171C5.44876 11.5801 5.46876 11.5431 5.48776 11.5061C5.58476 11.4081 5.70376 11.3461 5.82976 11.2921C6.44576 11.0271 7.05676 10.7511 7.67476 10.4901C8.32276 10.2161 8.97576 9.95115 9.62876 9.68815C10.2148 9.45215 10.8018 9.22215 11.3908 8.99515C11.7948 8.83915 12.2038 8.69315 12.6088 8.53715C13.3918 8.23515 14.1798 7.94615 14.9678 7.65915C15.2468 7.55815 15.5278 7.46015 15.8058 7.35615C16.0778 7.25515 16.3488 7.15515 16.6318 7.08515C16.9248 7.01315 17.2108 7.14315 17.1518 7.55815C16.9648 8.85815 16.6778 10.1381 16.4318 11.4271C16.4248 11.4601 16.4218 11.4941 16.4178 11.5271C16.3218 11.9951 16.2248 12.4641 16.1278 12.9311C15.9178 13.9421 15.7088 14.9521 15.4728 15.9571C15.4128 16.2151 15.3638 16.4761 15.3088 16.7361C15.1168 17.2201 14.6328 17.3681 14.2418 17.0671C13.4088 16.4261 12.5738 15.7881 11.7398 15.1481C11.7098 15.1251 11.6808 15.1011 11.6418 15.0951C11.6328 15.0791 11.6278 15.0591 11.6148 15.0491C11.4128 14.8921 11.2088 14.7371 11.0058 14.5821C10.7098 14.3561 10.4138 14.1301 10.1168 13.9061C10.0348 13.8441 10.0268 13.7941 10.1108 13.7241C10.2318 13.6221 10.3428 13.5091 10.4598 13.4031C10.6988 13.1851 10.9388 12.9681 11.1798 12.7521C11.5808 12.3941 11.9838 12.0391 12.3848 11.6791C12.6558 11.4351 12.9228 11.1861 13.1938 10.9411C13.6268 10.5511 14.0618 10.1631 14.4958 9.77415C14.6718 9.61615 14.8478 9.45715 15.0278 9.30315C15.1258 9.21915 15.1698 9.11415 15.1228 9.04215C15.0698 8.96215 14.9848 8.96115 14.8538 9.03815C14.8508 9.04015 14.8468 9.04215 14.8438 9.04415C14.1618 9.47915 13.4798 9.91415 12.7978 10.3491C11.7188 11.0361 10.6398 11.7231 9.55976 12.4091C9.19876 12.6391 8.84576 12.8821 8.47076 13.0911C8.15876 12.9641 7.83476 12.8731 7.51676 12.7661C6.97576 12.5831 6.43376 12.4031 5.89276 12.2211C5.79976 12.1901 5.71276 12.1451 5.62976 12.0931C5.47076 11.9921 5.37576 11.8621 5.41276 11.6631C5.41776 11.6471 5.42376 11.6321 5.42876 11.6171Z" fill="white"/>
<path fill-rule="evenodd" clip-rule="evenodd" d="M8.4707 13.0911C8.8457 12.8821 9.1977 12.6391 9.5597 12.4091C10.6397 11.7231 11.7187 11.0361 12.7977 10.3491C13.4797 9.91409 14.1617 9.47909 14.8437 9.04409C14.8467 9.04209 14.8497 9.04009 14.8537 9.03809C14.9847 8.96109 15.0697 8.96209 15.1227 9.04209C15.1697 9.11309 15.1257 9.21909 15.0277 9.30309C14.8477 9.45709 14.6717 9.61609 14.4957 9.77409C14.0617 10.1621 13.6267 10.5511 13.1937 10.9411C12.9227 11.1861 12.6557 11.4351 12.3847 11.6791C11.9847 12.0381 11.5807 12.3931 11.1797 12.7521C10.9387 12.9681 10.6997 13.1851 10.4597 13.4031C10.3427 13.5091 10.2317 13.6221 10.1107 13.7241C10.0267 13.7951 10.0347 13.8441 10.1167 13.9061C10.4147 14.1301 10.7097 14.3571 11.0057 14.5821C11.2087 14.7371 11.4117 14.8921 11.6147 15.0491C11.6277 15.0591 11.6327 15.0801 11.6417 15.0951C11.6347 15.1411 11.5947 15.1621 11.5657 15.1891C11.2647 15.4741 10.9627 15.7581 10.6597 16.0421C10.4647 16.2251 10.2687 16.4071 10.0727 16.5891C9.8707 16.7761 9.6937 16.7481 9.5577 16.5111C9.5027 16.4161 9.4717 16.3111 9.4267 16.2121C9.3487 15.9491 9.2757 15.6851 9.1917 15.4241C9.0907 15.1101 8.9957 14.7951 8.8907 14.4821C8.7367 14.0231 8.6097 13.5551 8.4707 13.0911Z" fill="#CADFED"/>
</svg>
