<svg width="16" height="16" viewBox="0 0 16 16" fill="none" xmlns="http://www.w3.org/2000/svg">
<g clip-path="url(#clip0_11560_140)">
<path d="M1 8C1 11.85 4.15 15 8 15C11.85 15 15 11.85 15 8C15 4.15 11.85 1 8 1C4.15 1 1 4.15 1 8Z" fill="#F9AF4A"/>
<path d="M11.465 8.14L9.33004 9.155L9.29504 9.505L10.94 9.015L10.135 9.995L10.065 10.31L9.05004 10.73L8.94504 11.01L9.40004 10.835L8.21004 12.165L8.10504 13.25V14.265H7.89504V13.285L7.82504 12.165L6.63504 10.835L7.09004 11.01L6.98504 10.73L5.97004 10.31L5.90004 9.995L5.09504 9.015L6.74004 9.505L6.70504 9.155L4.57004 8.14L5.06004 7.37L4.04504 6.00499L6.84504 7.265L6.91504 6.87999L6.11004 5.62L6.21504 5.41L5.83004 3.94L7.30004 5.41L7.40504 4.605L6.95004 3.415L7.54504 3.59L8.07004 2.12L8.59504 3.59L9.19004 3.415L8.73504 4.605L8.84004 5.41L10.31 3.94L9.92504 5.41L10.03 5.62L9.22504 6.87999L9.29504 7.265L12.095 6.00499L11.08 7.37L11.465 8.14Z" fill="#444444"/>
</g>
<defs>
<clipPath id="clip0_11560_140">
<rect width="14" height="14" fill="white" transform="translate(1 1)"/>
</clipPath>
</defs>
</svg>
