<svg width="24" height="24" viewBox="0 0 24 24" xmlns="http://www.w3.org/2000/svg">
  <path d="M4.3408 17.0249C4.5868 18.3499 5.7928 19.1639 7.0308 18.8399C8.3438 18.4959 9.0418 17.2289 8.5468 15.9279C8.3668 15.4559 8.4788 15.1549 8.7028 14.7839C9.5768 13.3399 10.4328 11.8849 11.3268 10.3829C9.2448 9.33893 8.4838 7.95393 8.9868 6.25893C9.4298 4.76493 10.9248 3.78693 12.4468 4.01693C13.2058 4.13093 13.8738 4.44293 14.3938 5.03493C15.1818 5.93293 15.3588 6.98193 15.1188 8.14993C15.7578 8.32293 16.3388 8.48093 16.9168 8.63793C17.6828 6.53693 16.7838 4.08293 14.8228 2.82393C12.7808 1.51293 10.1348 1.78893 8.4008 3.49793C7.4948 4.38993 6.9998 5.47793 6.8848 6.73793C6.7218 8.51993 7.4578 9.95793 8.6958 11.1889L6.7288 14.4879C6.5468 14.5009 6.4358 14.5029 6.3278 14.5189C5.0338 14.7019 4.1238 15.8519 4.3408 17.0249ZM22.2638 14.6409C21.3978 12.7429 18.9828 10.9709 15.7808 11.9609C15.1468 10.8439 14.5078 9.71693 13.8788 8.60593C13.9768 8.35993 14.0678 8.15893 14.1378 7.95093C14.3898 7.20593 14.2378 6.52693 13.7598 5.92293C13.1748 5.18393 12.1548 4.91493 11.2858 5.24793C10.4078 5.58393 9.8468 6.44493 9.8848 7.39793C9.9238 8.36193 10.5698 9.22193 11.5718 9.39593C12.1718 9.49993 12.4658 9.78393 12.7318 10.2749C13.5208 11.7309 14.3508 13.1659 15.1658 14.6119C17.1308 13.3019 18.7558 13.3439 19.9698 14.7079C21.0218 15.8899 21.0438 17.6909 20.0218 18.8979C18.8238 20.3129 17.2088 20.3689 15.3638 19.1739C14.8518 19.6019 14.3738 20.0019 13.8978 20.4009C15.7658 22.2659 18.4338 22.5139 20.5428 21.0619C22.5948 19.6489 23.3098 16.9339 22.2638 14.6409ZM15.8498 18.2999C16.6658 19.1729 18.0448 19.2169 18.9178 18.4059C19.8218 17.5659 19.8628 16.1559 19.0088 15.2789C18.1728 14.4209 16.7428 14.3399 15.9668 15.2479C15.4948 15.7999 15.0118 15.8649 14.3858 15.8549C12.7828 15.8299 11.1778 15.8469 9.5748 15.8469C9.6788 18.1029 8.8268 19.5089 7.1348 19.8419C5.4788 20.1689 3.9538 19.3239 3.4168 17.7819C2.8068 16.0299 3.5608 14.6289 5.7408 13.5169C5.5768 12.9229 5.4108 12.3209 5.2468 11.7259C2.8718 12.2439 1.0898 14.5479 1.2738 17.1409C1.4368 19.4299 3.2828 21.4619 5.5408 21.8269C6.7668 22.0249 7.9188 21.8189 8.9888 21.2129C10.3638 20.4329 11.1618 19.2059 11.5318 17.6859H15.3868C15.5498 17.9069 15.6818 18.1209 15.8498 18.2999Z" />
</svg>
