<svg width="24" height="24" viewBox="0 0 24 24" fill="none" xmlns="http://www.w3.org/2000/svg">
  <path d="M11.3268 10.3829C10.4328 11.8849 9.57685 13.3399 8.70285 14.7839C8.47885 15.1549 8.36685 15.4569 8.54685 15.9279C9.04185 17.2299 8.34385 18.4959 7.03085 18.8399C5.79285 19.1639 4.58685 18.3509 4.34185 17.0259C4.12385 15.8529 5.03485 14.7029 6.32785 14.5199C6.43585 14.5049 6.54685 14.5029 6.72885 14.4889L8.69585 11.1899C7.45785 9.95893 6.72185 8.51993 6.88485 6.73793C6.99985 5.47793 7.49485 4.38993 8.40085 3.49793C10.1348 1.78893 12.7808 1.51293 14.8228 2.82393C16.7838 4.08393 17.6818 6.53793 16.9168 8.63793C16.3398 8.48193 15.7578 8.32393 15.1188 8.14993C15.3588 6.98193 15.1818 5.93393 14.3938 5.03493C13.8738 4.44193 13.2058 4.13093 12.4468 4.01593C10.9248 3.78593 9.42985 4.76393 8.98685 6.25793C8.48285 7.95393 9.24485 9.33893 11.3268 10.3829Z" fill="#C73A63" />
  <path d="M13.8787 8.60601C14.5087 9.71701 15.1477 10.844 15.7807 11.961C18.9827 10.97 21.3977 12.743 22.2637 14.641C23.3097 16.934 22.5947 19.649 20.5397 21.063C18.4307 22.515 15.7637 22.267 13.8947 20.402C14.3707 20.003 14.8497 19.603 15.3607 19.175C17.2067 20.37 18.8207 20.314 20.0187 18.899C21.0407 17.691 21.0187 15.891 19.9667 14.709C18.7527 13.345 17.1277 13.303 15.1627 14.613C14.3477 13.167 13.5187 11.733 12.7287 10.276C12.4627 9.78501 12.1687 9.50001 11.5687 9.39601C10.5667 9.22201 9.9207 8.36201 9.8817 7.39801C9.8437 6.44501 10.4047 5.58301 11.2827 5.24801C12.1517 4.91501 13.1727 5.18401 13.7567 5.92301C14.2347 6.52701 14.3867 7.20701 14.1347 7.95101C14.0667 8.15901 13.9767 8.36001 13.8787 8.60601Z" fill="#4B4B4B" />
  <path d="M15.3829 17.6859H11.5279C11.1589 19.2059 10.3599 20.4329 8.9849 21.2129C7.9159 21.8189 6.7639 22.0249 5.5369 21.8269C3.2789 21.4629 1.4329 19.4299 1.2699 17.1419C1.0859 14.5489 2.8679 12.2449 5.2439 11.7269C5.4079 12.3229 5.5739 12.9239 5.7379 13.5179C3.5589 14.6299 2.8039 16.0309 3.4139 17.7829C3.9509 19.3249 5.4759 20.1699 7.1319 19.8429C8.8229 19.5089 9.6759 18.1039 9.5719 15.8479C11.1749 15.8479 12.7799 15.8309 14.3829 15.8559C15.0089 15.8659 15.4919 15.8009 15.9639 15.2489C16.7409 14.3409 18.1699 14.4229 19.0059 15.2809C19.8609 16.1579 19.8199 17.5679 18.9149 18.4079C18.0419 19.2179 16.6639 19.1749 15.8469 18.3019C15.6819 18.1209 15.5489 17.9069 15.3829 17.6859Z" fill="#4A4A4A" />
</svg>
