<svg width="18" height="18" viewBox="0 0 18 18" xmlns="http://www.w3.org/2000/svg">
  <path d="M7.22 2.75L6.63 1.32L5.25 1.9L5.84 3.33C6.27 3.08 6.74 2.89 7.22 2.75ZM9.75 2.55V1H8.25V2.55C8.5 2.52 8.75 2.5 9 2.5C9.25 2.5 9.5 2.52 9.75 2.55ZM4.97 3.91L3.87 2.81L2.81 3.87L3.9 4.96C4.22 4.58 4.57 4.22 4.97 3.91ZM3.91 13.03L2.82 14.12L3.88 15.18L4.97 14.09C4.57 13.78 4.22 13.42 3.91 13.03ZM12.75 1.9L11.36 1.33L10.77 2.76C11.26 2.9 11.72 3.09 12.16 3.33L12.75 1.9ZM14.09 4.97L15.18 3.88L14.12 2.82L13.03 3.91C13.43 4.22 13.78 4.58 14.09 4.97ZM13.03 14.09L14.12 15.18L15.18 14.12L14.09 13.03C13.78 13.42 13.43 13.78 13.03 14.09ZM5 8.5H3.5V10H5V8.5ZM15.5 5.5H2.5C1.67 5.5 1 6.17 1 7V11C1 11.83 1.67 12.5 2.5 12.5H15.5C16.33 12.5 17 11.83 17 11V7C17 6.17 16.33 5.5 15.5 5.5ZM15.5 11H2.5V7H15.5V11ZM8.25 15.45V17H9.75V15.45C9.5 15.48 9.25 15.5 9 15.5C8.75 15.5 8.5 15.48 8.25 15.45ZM10.78 15.25L11.37 16.68L12.76 16.11L12.17 14.68C11.73 14.92 11.26 15.11 10.78 15.25ZM5.25 16.1L6.64 16.67L7.23 15.24C6.74 15.1 6.28 14.91 5.84 14.67L5.25 16.1Z" />
</svg>
