<svg width="18" height="18" viewBox="0 0 18 18" xmlns="http://www.w3.org/2000/svg">
  <path d="M4.25 6.25H5.25V5.25H4.25V6.25ZM3.375 8.5H14.375C15.134 8.5 15.75 7.884 15.75 7.125V3.375C15.75 2.616 15.134 2 14.375 2H3.375C2.616 2 2 2.616 2 3.375V7.125C2 7.884 2.616 8.5 3.375 8.5ZM3.5 3.5H14.25V7H3.5V3.5ZM5.25 13.5V12.5H4.25V13.5H5.25ZM3.5 10.75H15.75V10.625C15.75 9.866 15.134 9.25 14.375 9.25H3.375C2.616 9.25 2 9.866 2 10.625V14.375C2 15.134 2.616 15.75 3.375 15.75H10.5V14.25H3.5V10.75ZM15.75 14.25V12H14.25V14.25H12V15.75H14.25V18H15.75V15.75H18V14.25H15.75Z" />
</svg>
