<svg width="16" height="12" viewBox="0 0 16 12" xmlns="http://www.w3.org/2000/svg">
<path d="M15.7495 3.99946C15.7495 3.58946 15.4095 3.24945 14.9995 3.24945H3.80945L5.52945 1.52945C5.81945 1.23945 5.81945 0.759453 5.52945 0.469453C5.23945 0.179453 4.75945 0.179453 4.46945 0.469453L0.189453 4.74946H14.9995C15.4095 4.74946 15.7495 4.40946 15.7495 3.99946ZM0.999453 7.24946C0.589453 7.24946 0.249453 7.58946 0.249453 7.99946C0.249453 8.40946 0.589453 8.74946 0.999453 8.74946H12.1895L10.4695 10.4695C10.1795 10.7595 10.1795 11.2395 10.4695 11.5295C10.6195 11.6795 10.8095 11.7495 10.9995 11.7495C11.1895 11.7495 11.3795 11.6795 11.5295 11.5295L15.8095 7.24946H0.999453Z"/>
</svg>
