<svg width="18" height="18" viewBox="0 0 18 18" xmlns="http://www.w3.org/2000/svg">
    <path
        d="M7.00602 6.6348C7.12259 6.29342 7.61645 6.29342 7.73303 6.6348L8.41659 8.63859C8.56705 9.07908 8.82055 9.4793 9.15699 9.80754C9.49344 10.1358 9.90359 10.383 10.3549 10.5296L12.4067 11.1969C12.7564 11.3107 12.7564 11.7927 12.4067 11.9065L10.3539 12.5738C9.90261 12.7206 9.4926 12.9681 9.15634 13.2965C8.82007 13.6249 8.5668 14.0253 8.41659 14.4658L7.73303 16.4686C7.70789 16.5433 7.65922 16.6084 7.59394 16.6546C7.52866 16.7007 7.45012 16.7256 7.36952 16.7256C7.28892 16.7256 7.21038 16.7007 7.1451 16.6546C7.07983 16.6084 7.03115 16.5433 7.00602 16.4686L6.32246 14.4648C6.1721 14.0244 5.91876 13.6243 5.58251 13.296C5.24625 12.9678 4.83632 12.7205 4.38517 12.5738L2.33237 11.9065C2.25579 11.882 2.18911 11.8345 2.14183 11.7708C2.09455 11.707 2.06909 11.6304 2.06909 11.5517C2.06909 11.473 2.09455 11.3964 2.14183 11.3326C2.18911 11.2689 2.25579 11.2214 2.33237 11.1969L4.38517 10.5296C4.83632 10.3829 5.24625 10.1356 5.58251 9.80734C5.91876 9.47912 6.1721 9.07897 6.32246 8.63859L7.00602 6.6348ZM11.3903 1.35997C11.4055 1.31517 11.4348 1.27619 11.474 1.24856C11.5132 1.22093 11.5603 1.20605 11.6087 1.20605C11.657 1.20605 11.7041 1.22093 11.7433 1.24856C11.7825 1.27619 11.8118 1.31517 11.827 1.35997L12.2371 2.56204C12.4204 3.0979 12.8507 3.5179 13.3997 3.69687L14.6312 4.09721C14.677 4.11205 14.717 4.14062 14.7453 4.17888C14.7736 4.21714 14.7888 4.26313 14.7888 4.31032C14.7888 4.35751 14.7736 4.4035 14.7453 4.44176C14.717 4.48001 14.677 4.50859 14.6312 4.52342L13.3997 4.92377C13.1289 5.01182 12.8829 5.16021 12.6811 5.35719C12.4793 5.55416 12.3273 5.79431 12.2371 6.05859L11.827 7.26066C11.8118 7.30546 11.7825 7.34445 11.7433 7.37208C11.7041 7.39971 11.657 7.41458 11.6087 7.41458C11.5603 7.41458 11.5132 7.39971 11.474 7.37208C11.4348 7.34445 11.4055 7.30546 11.3903 7.26066L10.9802 6.05859C10.89 5.79431 10.738 5.55416 10.5362 5.35719C10.3344 5.16021 10.0884 5.01182 9.81762 4.92377L8.58615 4.52342C8.54026 4.50859 8.50032 4.48001 8.47201 4.44176C8.4437 4.4035 8.42847 4.35751 8.42847 4.31032C8.42847 4.26313 8.4437 4.21714 8.47201 4.17888C8.50032 4.14062 8.54026 4.11205 8.58615 4.09721L9.81762 3.69687C10.0884 3.60882 10.3344 3.46042 10.5362 3.26345C10.738 3.06647 10.89 2.82633 10.9802 2.56204L11.3903 1.35997Z" />
</svg>