<svg width="16" height="16" viewBox="0 0 16 16" xmlns="http://www.w3.org/2000/svg">
    <path
        d="M12.03 7H11.01C11.09 8.28 11.84 9.42 12.99 10V11.88C12.99 12.5 12.49 13 11.87 13H5.12C4.5 13 4 12.5 4 11.88V11H9C9.55 11 10 10.55 10 10H4C5.23 9.39 6 8.13 6 6.76V5.67C6 4.27 7.14 2.97 8.55 2.99C9.1 3 9.6 3.19 10 3.5V2.35C9.74 2.23 9.47 2.14 9.18 2.08C9.18 2.05 9.2 2.03 9.2 2C9.2 1.61 8.89 1.3 8.5 1.3C8.11 1.3 7.8 1.61 7.8 2C7.8 2.02 7.81 2.05 7.81 2.07C6.21 2.39 5 3.81 5 5.5V6.76C5 7.75 4.44 8.66 3.55 9.1L3 9.38V11.88C3 13.05 3.95 14 5.12 14H7.5C7.5 14.55 7.95 15 8.5 15C9.05 15 9.5 14.55 9.5 14H11.88C13.05 14 14 13.05 14 11.88V9.38L13.45 9.1C12.63 8.7 12.11 7.9 12.03 7ZM14 3V1H13V3H11V4H13V6H14V4H16V3H14Z" />
</svg>