<svg width="15" height="16" viewBox="0 0 15 16"  xmlns="http://www.w3.org/2000/svg">
<path d="M12.2002 7V6C12.2002 5.728 12.1712 5.463 12.1292 5.203L10.7182 7.249C10.8102 8.535 11.5902 9.634 12.7002 10.163V12.851C12.7002 13.209 12.4082 13.501 12.0502 13.501H6.4072L5.3722 15.001H6.2002C6.2002 15.553 6.6482 16.001 7.2002 16.001C7.7522 16.001 8.2002 15.553 8.2002 15.001H12.0502C13.2382 15.001 14.2002 14.038 14.2002 12.851V9C13.0962 9 12.2002 8.104 12.2002 7ZM12.6262 0.133C12.2842 -0.102 11.8182 -0.016 11.5832 0.324L10.3392 2.128C9.7242 1.624 8.9912 1.26 8.1802 1.099C8.1842 1.065 8.2002 1.036 8.2002 1C8.2002 0.448 7.7522 0 7.2002 0C6.6482 0 6.2002 0.448 6.2002 1C6.2002 1.035 6.2162 1.064 6.2202 1.099C3.92819 1.555 2.2002 3.574 2.2002 6V7C2.2002 8.104 1.3042 9 0.200195 9V12.85C0.200195 13.762 0.770195 14.537 1.5722 14.85C1.3562 15.189 1.4412 15.639 1.7742 15.868C1.9042 15.958 2.0522 16.001 2.1992 16.001C2.4372 16.001 2.6722 15.888 2.8172 15.677L12.8172 1.177C13.0532 0.835 12.9672 0.368 12.6262 0.133ZM2.4962 13.5H2.3502C1.9912 13.5 1.7002 13.208 1.7002 12.85V10.5H4.5652L2.4962 13.5ZM5.5992 9H3.0632C3.4612 8.432 3.7002 7.745 3.7002 7V6C3.7002 4.07 5.2702 2.5 7.2002 2.5C8.0772 2.5 8.8722 2.831 9.48419 3.367L5.5992 9Z" />
</svg>
