<svg width="24" height="24" viewBox="0 0 24 24" xmlns="http://www.w3.org/2000/svg">
<circle cx="21.5" cy="2.5" r="2.5" fill="#FFC300"/>
<path fill-rule="evenodd" clip-rule="evenodd" d="M20 14.6C19.4 14 19 13.1 19 12.2V9C19 5.5 16.4 2.6 13 2.1V2C13 1.4 12.6 1 12 1C11.4 1 11 1.4 11 2V2.1C7.6 2.6 5 5.5 5 9V12.2C5 13.1 4.7 13.9 4 14.6L3 15.6V18.5C3 19.9 4.1 21 5.5 21H10.3C10.6 21.6 11.3 22 12 22C12.7 22 13.4 21.6 13.7 21H18.5C19.9 21 21 19.9 21 18.5V15.6L20 14.6ZM19 18.5C19 18.8 18.8 19 18.5 19H5.5C5.2 19 5 18.8 5 18.5V16.4L5.4 16H11C12.1046 16 13 15.1046 13 14H6.7C6.9 13.4 7 12.8 7 12.2V9C7 6.2 9.2 4 12 4C14.8 4 17 6.2 17 9V12.2C17 13.6 17.6 15 18.6 16L19 16.4V18.5Z" />
</svg>
