<svg width="12" height="14" viewBox="0 0 12 14"  xmlns="http://www.w3.org/2000/svg">
<path d="M11.45 8.11005C10.56 7.66005 10 6.77005 10 5.77005V5.00005C10 3.03005 8.56 1.40005 6.69 1.07005C6.69 1.05005 6.7 1.03005 6.7 1.00005C6.7 0.610049 6.39 0.300049 6 0.300049C5.61 0.300049 5.3 0.610049 5.3 1.00005C5.3 1.02005 5.31 1.05005 5.31 1.07005C3.44 1.40005 2 3.03005 2 5.00005V5.76005C2 6.76005 1.45 7.66005 0.55 8.10005L0 8.38005V11.2C0 12.19 0.81 13 1.8 13H5C5 13.55 5.45 14 6 14C6.55 14 7 13.55 7 13H10.2C11.19 13 12 12.19 12 11.2V8.38005L11.45 8.11005ZM11 11.2C11 11.64 10.64 12 10.2 12H1.8C1.36 12 1 11.64 1 11.2V10H6.5C7.05 10 7.5 9.55005 7.5 9.00005H1C2.23 8.39005 3 7.13005 3 5.76005V5.00005C3 3.34005 4.34 2.00005 6 2.00005C7.66 2.00005 9 3.34005 9 5.00005V5.76005C9 7.13005 9.77 8.38005 11 9.00005V11.2Z"/>
</svg>
