<svg width="24" height="24" viewBox="0 0 24 24" xmlns="http://www.w3.org/2000/svg">
<circle cx="15.5" cy="2.5" r="2.5" fill="#FF4136"/>
<circle cx="21.5" cy="2.5" r="2.5" fill="#FFC300"/>
<path d="M12.3174 1.04152C12.1136 1.48551 12 1.97948 12 2.5C12 3.04115 12.1228 3.55361 12.3421 4.01104C12.2291 4.00372 12.1151 4 12 4C9.2 4 7 6.2 7 9V12.2C7 12.8 6.9 13.4 6.7 14H13C13 15.1046 12.1046 16 11 16H5.4L5 16.4V18.5C5 18.8 5.2 19 5.5 19H18.5C18.8 19 19 18.8 19 18.5V16.4L18.6 16C17.6 15 17 13.6 17 12.2V9C17 7.86621 16.6393 6.8308 16.0241 6H18.3178C18.7553 6.90887 19 7.9262 19 9V12.2C19 13.1 19.4 14 20 14.6L21 15.6V18.5C21 19.9 19.9 21 18.5 21H13.7C13.4 21.6 12.7 22 12 22C11.3 22 10.6 21.6 10.3 21H5.5C4.1 21 3 19.9 3 18.5V15.6L4 14.6C4.7 13.9 5 13.1 5 12.2V9C5 5.5 7.6 2.6 11 2.1V2C11 1.4 11.4 1 12 1C12.1134 1 12.2197 1.01429 12.3174 1.04152Z" />
</svg>
