<svg width="18" height="21" viewBox="0 0 18 21" xmlns="http://www.w3.org/2000/svg">
<path d="M17 13.6C16.4 13 16 12.1 16 11.2V8C16 4.5 13.4 1.6 10 1.1V1C10 0.4 9.6 0 9 0C8.4 0 8 0.4 8 1V1.1C4.6 1.6 2 4.5 2 8V11.2C2 12.1 1.7 12.9 1 13.6L0 14.6V17.5C0 18.9 1.1 20 2.5 20H7.3C7.6 20.6 8.3 21 9 21C9.7 21 10.4 20.6 10.7 20H15.5C16.9 20 18 18.9 18 17.5V14.6L17 13.6ZM16 17.5C16 17.8 15.8 18 15.5 18H2.5C2.2 18 2 17.8 2 17.5V15.4L2.4 15H8C9.10457 15 10 14.1046 10 13H3.7C3.9 12.4 4 11.8 4 11.2V8C4 5.2 6.2 3 9 3C11.8 3 14 5.2 14 8V11.2C14 12.6 14.6 14 15.6 15L16 15.4V17.5Z" />
</svg>
