<svg width="18" height="18" viewBox="0 0 18 18" xmlns="http://www.w3.org/2000/svg">
<path d="M17 8.9902C17 7.98197 16.6903 7.07457 16.071 6.36881V6.26799C16.071 3.84824 14.1097 1.83179 11.6323 1.83179C11.6323 1.83179 11.6323 1.83179 11.529 1.83179C11.1161 1.52932 10.4968 1.22685 9.77419 1.12603C8.94839 0.924383 8.22581 1.02521 8.22581 1.02521C7.50323 1.22685 6.88387 1.52932 6.36774 1.93261C3.99355 1.93261 1.92903 3.94906 1.92903 6.36881V6.46963C1.30968 7.17539 1 8.08279 1 8.9902C1 9.99843 1.30968 10.9058 1.92903 11.6116V11.7124C1.92903 14.1322 3.89032 16.1486 6.26452 16.1486C6.26452 16.1486 6.26452 16.1486 6.36774 16.1486C6.88387 16.5519 7.60645 16.8544 8.22581 16.9552C8.22581 16.9552 8.94839 17.056 9.77419 16.9552C10.4968 16.8544 11.1161 16.5519 11.6323 16.1486C14.0065 16.1486 16.071 14.1322 16.071 11.7124V11.6116C16.6903 10.9058 17 9.99843 17 8.9902ZM8.22581 10.805C8.01935 10.7042 7.8129 10.6034 7.60645 10.5025L6.78064 11.8132C7.19355 12.0149 7.70968 12.2165 8.22581 12.3173V15.4429C7.8129 15.342 7.4 15.1404 7.09032 14.8379C6.47097 14.233 6.16129 13.5272 6.16129 12.6198H4.6129C4.6129 13.2248 4.71613 13.7289 4.92258 14.233C3.99355 13.7289 3.47742 12.8215 3.47742 11.7124C3.47742 11.6116 3.47742 11.6116 3.47742 11.4099C3.47742 10.805 3.89032 10.0992 4.40645 9.59513C4.6129 9.39349 4.81935 9.29267 5.12903 9.19184C5.33548 9.59513 5.74839 10.0992 6.36774 10.4017L7.09032 9.09102C6.05806 8.58691 6.36774 7.6795 6.57419 7.37704L5.12903 6.67128C5.02581 6.97374 4.92258 7.27621 4.81935 7.6795C4.30323 7.78033 3.7871 8.08279 3.37419 8.48608C3.06452 8.78855 2.85806 9.09102 2.54839 9.39349C2.54839 9.29267 2.54839 9.09102 2.54839 8.9902C2.54839 8.28444 2.85806 7.57868 3.27097 7.07457C3.7871 6.46963 4.6129 6.16716 5.33548 6.16716V4.65482C4.81935 4.65482 4.2 4.75565 3.7871 4.95729C4.30323 4.04989 5.23226 3.44495 6.26452 3.44495C6.36774 3.44495 6.36774 3.44495 6.47097 3.44495L6.88387 3.54577L7.19355 3.2433C7.4 2.94084 7.8129 2.73919 8.22581 2.63837V10.805ZM14.729 10.9058C14.2129 11.5108 13.3871 11.8132 12.6645 11.8132V13.3256C13.1806 13.3256 13.8 13.2248 14.2129 13.0231C13.6968 13.9305 12.7677 14.5354 11.7355 14.5354C11.6323 14.5354 11.6323 14.5354 11.529 14.5354L11.1161 14.4346L10.8065 14.7371C10.4968 15.0396 10.0839 15.2412 9.67097 15.342V7.27621C9.87742 7.37703 10.0839 7.37704 10.2903 7.57868L11.1161 6.26799C10.8065 5.96552 10.2903 5.76387 9.77419 5.76387V2.63837C10.1871 2.73919 10.6 2.94084 10.9097 3.2433C11.529 3.74742 11.8387 4.554 11.8387 5.36058H13.3871C13.3871 4.75565 13.2839 4.25153 13.0774 3.74742C14.0065 4.25153 14.5226 5.15894 14.5226 6.26799C14.5226 6.36881 14.5226 6.36881 14.5226 6.57045C14.4194 7.27621 14.1097 7.98197 13.5935 8.48608C13.3871 8.68773 13.1806 8.78855 12.871 8.88938C12.6645 8.38526 12.2516 7.98197 11.6323 7.6795L10.9097 8.9902C11.9419 9.49431 11.6323 10.4017 11.4258 10.7042L12.871 11.3091C12.9742 11.0067 13.0774 10.7042 13.1806 10.3009C13.6968 10.0992 14.2129 9.79678 14.6258 9.49431C14.9355 9.19184 15.2452 8.88938 15.4516 8.48608C15.4516 8.58691 15.4516 8.78855 15.4516 8.88938C15.4516 9.69596 15.1419 10.4017 14.729 10.9058Z"/>
</svg>
