<svg width="18" height="18" viewBox="0 0 18 18" xmlns="http://www.w3.org/2000/svg">
<path fill-rule="evenodd" clip-rule="evenodd" d="M12.74 11.68L15.53 14.47C15.82 14.76 15.82 15.24 15.53 15.53C15.38 15.68 15.19 15.75 15 15.75C14.81 15.75 14.62 15.68 14.47 15.53L11.68 12.74C10.66 13.53 9.39 14 8 14C4.69 14 2 11.31 2 8C2 4.69 4.69 2 8 2C11.31 2 14 4.69 14 8C14 9.39 13.53 10.66 12.74 11.68ZM3.81365 9.65C4.47354 11.3169 6.10206 12.5 8 12.5C9.89794 12.5 11.5265 11.3169 12.1864 9.65H12H11.7308L11.5404 9.45962L11 8.91924L10.4596 9.45962L9.89897 10.0203L9.45917 9.36056L8 7.1718L6.54083 9.36056L6.34787 9.65H6H5H4H3.81365ZM3.5135 8.35C3.50455 8.23448 3.5 8.11776 3.5 8C3.5 5.52 5.52 3.5 8 3.5C10.48 3.5 12.5 5.52 12.5 8C12.5 8.11776 12.4954 8.23448 12.4865 8.35H12.2692L11.4596 7.54038L11 7.08076L10.5404 7.54038L10.101 7.97974L8.54083 5.63944L8 4.8282L7.45917 5.63944L5.65213 8.35H5H4H3.5135Z"/>
</svg>
