<svg width="14" height="14" viewBox="0 0 14 14" xmlns="http://www.w3.org/2000/svg">
    <path
        d="M4 4.48C4 3.76 4.27556 3.11111 4.70222 2.61333L3.69778 1.75111C3.06667 2.48 2.66667 3.43111 2.66667 4.48C2.66667 5.52889 3.06667 6.48 3.69778 7.21778L4.70222 6.34667C4.27556 5.84889 4 5.2 4 4.48ZM2.67556 0.871111L1.66222 0C0.631111 1.20889 0 2.77333 0 4.48C0 6.18667 0.631111 7.75111 1.66222 8.96L2.67556 8.08889C1.84 7.12 1.33333 5.85778 1.33333 4.48C1.33333 3.10222 1.84 1.84 2.67556 0.871111ZM6.88889 6.03556C7.74222 6.03556 8.44444 5.33333 8.44444 4.48C8.44444 3.62667 7.74222 2.92444 6.88889 2.92444C6.03556 2.92444 5.33333 3.62667 5.33333 4.48C5.33333 5.33333 6.03556 6.03556 6.88889 6.03556ZM6.88889 4.25778C7.01333 4.25778 7.11111 4.35556 7.11111 4.48C7.11111 4.72889 6.66667 4.72889 6.66667 4.48C6.66667 4.35556 6.76444 4.25778 6.88889 4.25778ZM12.1156 0C11.84 0.231111 11.5467 0.488889 11.1022 0.871111C11.9378 1.84 12.4444 3.10222 12.4444 4.48C12.4444 5.85778 11.9378 7.12 11.1022 8.08889C11.5467 8.47111 11.84 8.72 12.1156 8.96C13.1467 7.75111 13.7778 6.19556 13.7778 4.48C13.7778 2.76444 13.1467 1.20889 12.1156 0ZM10.08 1.74222C9.57333 2.17778 9.52889 2.21333 9.07556 2.60444C9.51111 3.11111 9.77778 3.76 9.77778 4.47111C9.77778 5.18222 9.50222 5.84 9.07556 6.33778C9.53778 6.72889 9.58222 6.77333 10.08 7.2C10.7111 6.46222 11.1111 5.51111 11.1111 4.46222C11.1111 3.41333 10.7111 2.48 10.08 1.74222ZM8.22222 12.0356H7.55556V7.81333C7.55556 7.44889 7.25333 7.14667 6.88889 7.14667C6.52444 7.14667 6.22222 7.44889 6.22222 7.81333V12.0356H5.55556C4.81778 12.0356 4.22222 12.6311 4.22222 13.3689H9.55556C9.55556 12.6311 8.96 12.0356 8.22222 12.0356Z" />
</svg>