<svg width="18" height="18" viewBox="0 0 18 18" xmlns="http://www.w3.org/2000/svg">
    <path d="M13.75 3.75H11.76C11.39 3.75 11.04 3.84 10.72 3.98C10.55 2.72 9.47 1.75 8.17 1.75H4.34C2.91 1.75 1.75 2.91 1.75 4.34V8.17C1.75 9.3 2.49 10.26 3.51 10.61C3.35 10.93 3.25 11.29 3.25 11.68V12.84C3.25 14.17 4.33 15.26 5.67 15.26H6.83C7.23 15.26 7.6 15.15 7.93 14.98C8.26 15.73 9.01 16.26 9.89 16.26H12.6C13.78 16.26 14.75 15.3 14.75 14.11V11.4C14.75 11.12 14.69 10.85 14.59 10.6C15.55 10.25 16.25 9.34 16.25 8.25V6.25C16.25 4.87 15.13 3.75 13.75 3.75ZM7.75 12.83C7.75 13.34 7.34 13.75 6.83 13.75H5.67C5.16 13.75 4.75 13.34 4.75 12.83V11.67C4.75 11.16 5.16 10.75 5.67 10.75H6.83C7.34 10.75 7.75 11.16 7.75 11.67V12.83ZM8.16 9.25H4.34C3.74 9.25 3.25 8.76 3.25 8.16V4.34C3.25 3.74 3.74 3.25 4.34 3.25H8.17C8.77 3.25 9.26 3.74 9.26 4.34V8.17C9.25 8.76 8.76 9.25 8.16 9.25ZM13.25 14.1C13.25 14.46 12.96 14.75 12.6 14.75H9.9C9.54 14.75 9.25 14.46 9.25 14.1V11.4C9.25 11.04 9.54 10.75 9.9 10.75H12.6C12.96 10.75 13.25 11.04 13.25 11.4V14.1ZM14.75 8.25C14.75 8.8 14.3 9.25 13.75 9.25H11.76C11.21 9.25 10.76 8.8 10.76 8.25V6.25C10.76 5.7 11.21 5.25 11.76 5.25H13.75C14.3 5.25 14.75 5.7 14.75 6.25V8.25Z"/>
</svg>
