<svg viewBox="0 0 24 24" xmlns="http://www.w3.org/2000/svg">
<path d="M15.87 16C14.68 16 13.63 15.45 12.92 14.61C14.15 14 15 12.75 15 11.3V5.71C15 3.67 13.34 2 11.29 2H5.71C3.66 2 2 3.66 2 5.71V11.3C2 13.34 3.66 15.01 5.71 15.01H6.11C6.05 15.24 6 15.48 6 15.73V17.3C6 18.8 7.22 20.02 8.72 20.02H10.09C10.03 19.76 10 19.48 10 19.2V18H8.72C8.32 18 8 17.68 8 17.28V15.71C8 15.31 8.32 14.99 8.72 14.99H11.14C11.06 15.25 11.01 15.52 11.01 15.81V19.18C11.01 20.73 12.27 22 13.83 22H17.2C18.75 22 20.02 20.74 20.02 19.18V15.9C19.74 15.97 19.45 16 19.15 16H15.87ZM19.13 6H16V8H19.13C19.61 8 20 8.39 20 8.87V12.14C20 12.62 19.61 13.01 19.13 13.01H15.86C15.8 13.01 15.74 12.99 15.68 12.97C15.43 13.62 15.04 14.2 14.54 14.67C14.94 14.88 15.38 15.01 15.86 15.01H19.13C20.71 15.01 22 13.72 22 12.14V8.87C22 7.29 20.71 6 19.13 6Z" />
</svg>
