<svg width="24" height="24" viewBox="0 0 24 24" xmlns="http://www.w3.org/2000/svg">
<path d="M20.3136 19.3342V4.99991H22V19.3342H20.3136Z"/>
<path d="M8.4878 7.36086C8.17862 7.02358 7.71487 7.02358 7.40569 7.36086L3 12.1671L7.40569 16.9733C7.56028 17.1419 7.79216 17.2262 7.94675 17.2262C8.10133 17.2262 8.33321 17.1419 8.4878 16.9733C8.79697 16.636 8.79697 16.1301 8.4878 15.7928L5.93713 13.0103L17.9948 13.0103C18.4586 13.0103 18.7678 12.673 18.7678 12.1671C18.7678 11.6612 18.4586 11.3239 17.9948 11.3239L5.93713 11.3239L8.4878 8.54133C8.79697 8.20405 8.79697 7.69814 8.4878 7.36086Z"/>
</svg>
