<svg width="6" height="10" viewBox="0 0 6 10" xmlns="http://www.w3.org/2000/svg">
<path d="M2.2 4.2001L3 3.4001L3.8 4.2001C4 4.4001 4.2 4.5001 4.5 4.5001C4.8 4.5001 5 4.4001 5.2 4.2001C5.6 3.8001 5.6 3.2001 5.2 2.8001L3 0.600098L0.8 2.8001C0.4 3.2001 0.4 3.8001 0.8 4.2001C1.2 4.6001 1.8 4.6001 2.2 4.2001ZM3.8 5.8001L3 6.6001L2.2 5.8001C1.8 5.4001 1.2 5.4001 0.8 5.8001C0.4 6.2001 0.4 6.8001 0.8 7.2001L3 9.4001L5.2 7.2001C5.6 6.8001 5.6 6.2001 5.2 5.8001C4.8 5.4001 4.2 5.4001 3.8 5.8001Z" />
</svg>
