<svg width="24" height="24" viewBox="0 0 24 24" xmlns="http://www.w3.org/2000/svg">
<path d="M4.68639 5V19.3343H3V5H4.68639Z"/>
<path d="M16.5122 16.9734C16.8214 17.3106 17.2851 17.3106 17.5943 16.9734L22 12.1672L17.5943 7.36095C17.4397 7.19231 17.2078 7.10799 17.0533 7.10799C16.8987 7.10799 16.6668 7.19231 16.5122 7.36095C16.203 7.69822 16.203 8.20414 16.5122 8.54142L19.0629 11.324H7.00518C6.54142 11.324 6.23225 11.6612 6.23225 12.1672C6.23225 12.6731 6.54142 13.0104 7.00518 13.0104H19.0629L16.5122 15.7929C16.203 16.1302 16.203 16.6361 16.5122 16.9734Z"/>
</svg>
