<svg width="554" height="375" viewBox="0 0 554 375" fill="none" xmlns="http://www.w3.org/2000/svg">
<path d="M174.951 232.181L172.582 236.09L172.451 236.011L173.01 235.088L172.582 234.829L174.951 230.919L175.082 230.999L174.523 231.922L174.951 232.181ZM165.476 230.919L167.845 234.829L167.417 235.088L167.976 236.011L167.845 236.09L165.476 232.181L165.904 231.922L165.345 230.999L165.476 230.919ZM158.37 234.829L160.739 230.919L160.871 230.999L160.311 231.922L160.739 232.181L158.37 236.09L158.239 236.011L158.798 235.088L158.37 234.829ZM151.264 230.919L153.633 234.829L153.205 235.088L153.764 236.011L153.633 236.09L151.264 232.181L151.692 231.922L151.133 230.999L151.264 230.919ZM144.158 234.829L146.527 230.919L146.658 230.999L146.099 231.922L146.527 232.181L144.158 236.09L144.027 236.011L144.586 235.088L144.158 234.829ZM137.048 230.913L139.419 234.826L138.991 235.085L139.554 236.014L139.423 236.094L137.056 232.188L137.484 231.929L136.917 230.992L137.048 230.913ZM130.226 234.996L132.451 230.998L132.569 231.063L132.125 231.86L132.562 232.103L130.435 235.924L130.317 235.859L130.663 235.239L130.226 234.996ZM182.057 236.09L179.688 232.181L180.116 231.922L179.557 230.999L179.688 230.919L182.057 234.829L181.629 235.088L182.188 236.011L182.057 236.09ZM189.164 232.181L186.795 236.09L186.663 236.011L187.222 235.088L186.795 234.829L189.164 230.919L189.295 230.999L188.736 231.922L189.164 232.181ZM196.27 236.09L193.901 232.181L194.329 231.922L193.77 230.999L193.901 230.919L196.27 234.829L195.842 235.088L196.401 236.011L196.27 236.09ZM203.377 232.181L201.008 236.09L200.877 236.011L201.436 235.088L201.008 234.829L203.377 230.919L203.509 230.999L202.949 231.922L203.377 232.181ZM210.387 235.929L208.067 232.1L208.494 231.841L208.033 231.079L208.164 231L210.582 234.99L210.154 235.249L210.518 235.85L210.387 235.929Z" stroke="white" stroke-linejoin="round" stroke-dasharray="10 5"/>
<path d="M119.338 221.901C121.084 231.209 125.246 262.296 113.508 291.484C113.198 291.553 112.869 291.485 112.628 291.302" stroke="white" stroke-width="2" stroke-linecap="round" stroke-linejoin="round"/>
<path d="M114.237 224.967C117.917 223.161 120.778 221.255 121.358 219.911C122.751 216.681 113.685 192.311 100.857 186.729" stroke="white" stroke-width="2" stroke-linecap="round" stroke-linejoin="round"/>
<path d="M74.7714 177.472C71.7328 178.622 68.9805 180.567 66.4914 183.108" stroke="white" stroke-width="2" stroke-linecap="round" stroke-linejoin="round"/>
<path d="M49.1604 262.507C48.7503 277.571 46.4833 289.875 48.1368 291.299C53.5535 295.942 108.562 300.327 113.463 291.299C104.438 280.933 123.604 191.742 89.0834 180.955" stroke="white" stroke-width="2" stroke-linecap="round" stroke-linejoin="round"/>
<path d="M69.5352 185.592C68.9456 184.9 68.2793 184.278 67.549 183.737C57.4893 176.257 34.0166 206.178 34.2745 211.595C34.5324 217.012 54.136 228.361 58.2631 227.329C59.3258 227.071 61.3997 224.75 63.6489 221.278" stroke="white" stroke-width="2" stroke-linecap="round" stroke-linejoin="round"/>
<path d="M88.7422 180.614L88.175 172.322" stroke="white" stroke-width="2" stroke-linecap="round" stroke-linejoin="round"/>
<path d="M74.7621 164.325V181.158C74.7621 183.012 78.8659 183.92 82.5313 183.75" stroke="white" stroke-width="2" stroke-linecap="round" stroke-linejoin="round"/>
<path d="M88.1843 172.205C93.9622 169.643 98.244 160.36 98.244 149.302C98.2487 146.749 98.0121 144.201 97.5373 141.693" stroke="white" stroke-width="2" stroke-linecap="round" stroke-linejoin="round"/>
<path d="M84.9601 172.903C86.072 172.899 87.1706 172.661 88.1844 172.204" stroke="white" stroke-width="2" stroke-linecap="round" stroke-linejoin="round"/>
<path d="M72.2384 156.117C72.6959 158.946 73.5268 161.703 74.7095 164.314" stroke="white" stroke-width="2" stroke-linecap="round" stroke-linejoin="round"/>
<path d="M74.2462 163.036L72.7048 163.894C70.4045 164.752 67.0332 161.746 61.8744 161.746C52.8464 161.746 40.2072 172.837 24.7307 172.837C7.96449 172.837 1.00005 160.198 1.00005 146.011C1.00005 127.182 18.7981 122.281 27.3101 122.281C37.3699 122.281 45.624 129.503 56.4576 129.503C64.1958 129.503 71.6762 120.217 82.5097 120.217C96.4386 120.217 100.824 127.698 100.824 132.856C100.824 136.984 98.3113 141.626 97.5374 141.626C97.3053 140.262 95.9227 135.694 95.4068 135.178C95.2521 135.722 94.1558 137.254 92.4405 139.127" stroke="white" stroke-width="2" stroke-linecap="round" stroke-linejoin="round"/>
<path d="M74.5135 149.761C72.9148 148.692 70.7522 149.121 69.6832 150.72C68.6142 152.319 69.0437 154.481 70.6423 155.55C71.1134 155.865 71.6542 156.061 72.2178 156.119" stroke="white" stroke-width="2" stroke-linecap="round" stroke-linejoin="round"/>
<mask id="path-14-inside-1" fill="white">
<path fill-rule="evenodd" clip-rule="evenodd" d="M87.5631 184.589C88.0771 183.042 89.7477 182.205 91.2945 182.718L121.96 192.908C123.507 193.421 124.344 195.092 123.83 196.639L110.026 238.185C109.512 239.732 107.842 240.569 106.295 240.055L89.1206 234.349C89.1615 234.313 89.1979 234.28 89.2298 234.251C89.3312 234.162 89.4224 234.062 89.5017 233.952C91.5174 233.812 93.4728 233.205 95.2133 232.179C100.109 229.364 102.415 224.232 100.381 220.72C98.3465 217.209 92.7491 216.644 87.8699 219.461C85.7315 220.652 83.9874 222.441 82.8519 224.61C82.6149 224.53 82.3538 224.576 82.1583 224.732C81.6412 225.249 79.0784 226.986 74.8592 229.478C73.8224 228.748 73.3386 227.4 73.759 226.135L87.5631 184.589ZM120.534 196.461C120.312 197.129 119.591 197.49 118.923 197.268C118.256 197.046 117.894 196.325 118.116 195.657C118.338 194.99 119.059 194.628 119.727 194.85C120.394 195.072 120.756 195.793 120.534 196.461Z"/>
</mask>
<path fill-rule="evenodd" clip-rule="evenodd" d="M87.5631 184.589C88.0771 183.042 89.7477 182.205 91.2945 182.718L121.96 192.908C123.507 193.421 124.344 195.092 123.83 196.639L110.026 238.185C109.512 239.732 107.842 240.569 106.295 240.055L89.1206 234.349C89.1615 234.313 89.1979 234.28 89.2298 234.251C89.3312 234.162 89.4224 234.062 89.5017 233.952C91.5174 233.812 93.4728 233.205 95.2133 232.179C100.109 229.364 102.415 224.232 100.381 220.72C98.3465 217.209 92.7491 216.644 87.8699 219.461C85.7315 220.652 83.9874 222.441 82.8519 224.61C82.6149 224.53 82.3538 224.576 82.1583 224.732C81.6412 225.249 79.0784 226.986 74.8592 229.478C73.8224 228.748 73.3386 227.4 73.759 226.135L87.5631 184.589ZM120.534 196.461C120.312 197.129 119.591 197.49 118.923 197.268C118.256 197.046 117.894 196.325 118.116 195.657C118.338 194.99 119.059 194.628 119.727 194.85C120.394 195.072 120.756 195.793 120.534 196.461Z" fill="white"/>
<path d="M91.2945 182.718L91.9252 180.821L91.2945 182.718ZM87.5631 184.589L89.4611 185.219L87.5631 184.589ZM121.96 192.908L121.33 194.806H121.33L121.96 192.908ZM123.83 196.639L121.932 196.008L123.83 196.639ZM110.026 238.185L108.128 237.554L110.026 238.185ZM106.295 240.055L105.664 241.953L106.295 240.055ZM89.1206 234.349L88.4899 236.247L85.1766 235.146L87.8024 232.845L89.1206 234.349ZM89.2298 234.251L87.8844 232.771L87.8959 232.761L87.9075 232.751L89.2298 234.251ZM89.5017 233.952L87.8822 232.779L88.4307 232.022L89.3632 231.957L89.5017 233.952ZM95.2133 232.179L94.1975 230.456L94.2069 230.451L94.2163 230.445L95.2133 232.179ZM100.381 220.72L98.6504 221.723L100.381 220.72ZM87.8699 219.461L88.87 221.193L88.8565 221.201L88.8429 221.209L87.8699 219.461ZM82.8519 224.61L84.6236 225.538L83.8327 227.048L82.2163 226.506L82.8519 224.61ZM82.1583 224.732L80.7441 223.318L80.8238 223.238L80.912 223.168L82.1583 224.732ZM74.8592 229.478L75.8764 231.2L74.764 231.857L73.7076 231.113L74.8592 229.478ZM73.759 226.135L75.657 226.765H75.657L73.759 226.135ZM118.923 197.268L119.554 195.37L119.554 195.37L118.923 197.268ZM120.534 196.461L118.636 195.83L120.534 196.461ZM118.116 195.657L116.218 195.027L116.218 195.027L118.116 195.657ZM119.727 194.85L120.357 192.952L120.357 192.952L119.727 194.85ZM90.6639 184.616C90.1653 184.451 89.6268 184.721 89.4611 185.219L85.6652 183.958C86.5274 181.363 89.3301 179.958 91.9252 180.821L90.6639 184.616ZM121.33 194.806L90.6639 184.616L91.9252 180.821L122.591 191.01L121.33 194.806ZM121.932 196.008C122.098 195.51 121.828 194.971 121.33 194.806L122.591 191.01C125.186 191.872 126.591 194.674 125.728 197.27L121.932 196.008ZM108.128 237.554L121.932 196.008L125.728 197.27L111.924 238.815L108.128 237.554ZM106.926 238.157C107.424 238.323 107.963 238.053 108.128 237.554L111.924 238.815C111.062 241.411 108.259 242.815 105.664 241.953L106.926 238.157ZM89.7512 232.451L106.926 238.157L105.664 241.953L88.4899 236.247L89.7512 232.451ZM90.5751 235.731C90.5323 235.77 90.4866 235.811 90.4387 235.853L87.8024 232.845C87.8363 232.815 87.8634 232.791 87.8844 232.771L90.5751 235.731ZM91.1213 235.126C90.9551 235.355 90.7641 235.565 90.5521 235.752L87.9075 232.751C87.8983 232.759 87.8898 232.768 87.8822 232.779L91.1213 235.126ZM96.2291 233.902C94.2213 235.086 91.9655 235.786 89.6403 235.947L89.3632 231.957C91.0692 231.839 92.7243 231.325 94.1975 230.456L96.2291 233.902ZM102.111 219.718C103.533 222.172 103.344 225.037 102.219 227.532C101.094 230.031 98.9812 232.319 96.2102 233.913L94.2163 230.445C96.341 229.223 97.8295 227.538 98.5723 225.889C99.3165 224.237 99.2631 222.781 98.6504 221.723L102.111 219.718ZM86.8697 217.729C89.6319 216.134 92.6673 215.453 95.3927 215.728C98.1146 216.002 100.691 217.266 102.111 219.718L98.6504 221.723C98.0364 220.663 96.7969 219.889 94.9917 219.707C93.19 219.526 90.9871 219.971 88.87 221.193L86.8697 217.729ZM81.0801 223.682C82.3964 221.168 84.4181 219.094 86.8968 217.714L88.8429 221.209C87.0449 222.21 85.5784 223.714 84.6236 225.538L81.0801 223.682ZM80.912 223.168C81.6378 222.59 82.6074 222.418 83.4874 222.713L82.2163 226.506C82.6223 226.642 83.0697 226.563 83.4047 226.296L80.912 223.168ZM73.842 227.756C75.9313 226.522 77.5986 225.482 78.7984 224.693C79.3993 224.298 79.8732 223.973 80.2197 223.722C80.3931 223.596 80.5262 223.495 80.6229 223.418C80.7289 223.334 80.7579 223.304 80.7441 223.318L83.5725 226.146C83.1403 226.579 82.1804 227.257 80.9956 228.036C79.73 228.868 78.0064 229.942 75.8764 231.2L73.842 227.756ZM75.657 226.765C75.5224 227.17 75.6752 227.607 76.0107 227.843L73.7076 231.113C71.9696 229.89 71.1548 227.63 71.8611 225.504L75.657 226.765ZM89.4611 185.219L75.657 226.765L71.8611 225.504L85.6652 183.958L89.4611 185.219ZM119.554 195.37C119.173 195.244 118.762 195.45 118.636 195.83L122.432 197.091C121.862 198.807 120.008 199.736 118.293 199.166L119.554 195.37ZM120.014 196.288C120.14 195.908 119.934 195.497 119.554 195.37L118.293 199.166C116.577 198.596 115.648 196.743 116.218 195.027L120.014 196.288ZM119.096 196.748C119.476 196.875 119.888 196.669 120.014 196.288L116.218 195.027C116.788 193.311 118.641 192.382 120.357 192.952L119.096 196.748ZM118.636 195.83C118.509 196.211 118.715 196.622 119.096 196.748L120.357 192.952C122.073 193.522 123.002 195.376 122.432 197.091L118.636 195.83Z" fill="white" mask="url(#path-14-inside-1)"/>
<path d="M57.3396 227.396C55.1548 232.207 48.2523 241.067 45.6239 244.353C67.0331 235.068 81.7358 225.782 83.0255 224.492C83.2109 224.344 83.4585 224.301 83.6832 224.376C84.7601 222.319 86.4142 220.622 88.4423 219.493C93.0697 216.821 98.3782 217.357 100.308 220.687C102.237 224.017 100.05 228.885 95.4067 231.554C93.756 232.528 91.9015 233.103 89.9899 233.236C89.9147 233.34 89.8282 233.435 89.732 233.52C86.8946 236.099 46.1398 267.568 33.7586 267.568C30.6633 267.568 25.7624 262.667 25.7624 252.866C25.7624 249.456 28.0632 230.626 36.3612 215.289" stroke="white" stroke-width="2" stroke-linecap="round" stroke-linejoin="round"/>
<path d="M78.5056 133.866C72.8185 137.733 57.2133 143.147 40.2887 133.866C23.3641 124.585 14.1284 134.094 11.6261 140.008" stroke="white" stroke-width="2" stroke-linecap="round" stroke-linejoin="round"/>
<path d="M59.3971 146.9C55.7411 149.006 45.7092 151.954 34.8291 146.9C23.949 141.846 18.0118 147.024 16.4031 150.245" stroke="white" stroke-width="2" stroke-linecap="round" stroke-linejoin="round"/>
<path d="M115.945 380.543C127.312 332.538 121.382 304.997 111.132 286.803C108.849 289.174 104.151 291.396 95.8407 292.115C86.1176 292.956 71.233 291.767 48.8796 286.16C47.3969 288.246 45.8221 291.665 44.4431 296.365C42.9507 301.452 41.7071 307.973 41.0465 315.788C39.7381 331.264 40.7191 351.778 46.5482 376.205L115.945 380.543Z" stroke="white" stroke-width="2"/>
<rect x="148.588" y="332.955" width="163.978" height="33.6774" rx="3" fill="#1A1A1A" stroke="white" stroke-width="2"/>
<path d="M204.901 360.572L196.45 363.754H309.349L309.687 357.39H303.265L296.504 356.329L289.406 357.39L283.998 352.793L276.561 354.561L267.773 351.026C267.773 351.026 263.716 351.497 263.378 352.793L259.66 347.136L257.632 349.965L254.252 347.136L251.886 351.026L249.519 343.954L246.477 354.561L244.787 342.54L241.745 353.501L238.365 347.136L235.661 357.39L231.942 339.711L228.9 352.793L224.506 343.954L215.041 360.572L210.647 354.561L204.901 360.572Z" fill="#FFFEFE"/>
<path opacity="0.9" fill-rule="evenodd" clip-rule="evenodd" d="M164.556 347.702H166.225V349.408H167.069C167.458 349.408 167.859 349.339 168.228 349.214C168.409 349.152 168.613 349.066 168.792 348.959C168.556 348.651 168.436 348.263 168.401 347.88C168.353 347.359 168.458 346.682 168.81 346.274L168.985 346.071L169.194 346.239C169.721 346.662 170.163 347.253 170.241 347.927C170.875 347.74 171.619 347.784 172.178 348.107L172.407 348.239L172.286 348.474C171.814 349.396 170.826 349.682 169.861 349.631C168.416 353.23 165.27 354.934 161.456 354.934C159.486 354.934 157.678 354.197 156.649 352.449L156.632 352.42L156.482 352.115C156.134 351.346 156.018 350.503 156.097 349.66L156.12 349.408H157.547V347.702H159.216V346.033H162.554V344.365H164.556V347.702Z" fill="#808080"/>
<path fill-rule="evenodd" clip-rule="evenodd" d="M156.394 350.8C156.46 351.292 156.604 351.752 156.817 352.171L156.939 352.393C157.016 352.524 157.1 352.65 157.191 352.772C157.631 352.8 158.036 352.809 158.407 352.801C159.136 352.785 159.731 352.699 160.181 352.543C160.248 352.52 160.322 352.555 160.345 352.622C160.368 352.689 160.333 352.762 160.265 352.786C160.206 352.806 160.143 352.826 160.079 352.844C160.078 352.844 160.078 352.844 160.078 352.844C159.723 352.946 159.312 353.018 158.821 353.049C158.804 353.05 158.775 353.05 158.758 353.051C158.565 353.062 158.358 353.068 158.145 353.068C157.912 353.068 157.674 353.064 157.417 353.051C158.308 354.052 159.71 354.655 161.456 354.655C164.621 354.655 167.374 353.454 168.972 350.8H156.394Z" fill="#808080"/>
<path fill-rule="evenodd" clip-rule="evenodd" d="M160.85 351.771C161.07 351.771 161.249 351.95 161.249 352.171C161.249 352.391 161.07 352.569 160.85 352.569C160.63 352.569 160.451 352.391 160.451 352.171C160.451 351.95 160.63 351.771 160.85 351.771Z" fill="#E9E9E9"/>
<path fill-rule="evenodd" clip-rule="evenodd" d="M153.792 350.944H172.353C171.949 350.842 171.075 350.703 171.219 350.174C170.484 351.024 168.712 350.77 168.265 350.351C167.766 351.073 164.867 350.799 164.665 350.236C164.04 350.969 162.106 350.969 161.481 350.236C161.279 350.799 158.379 351.073 157.881 350.351C157.434 350.77 155.662 351.024 154.927 350.174C155.071 350.703 154.197 350.842 153.792 350.944Z" fill="#1A1A1A"/>
<rect x="218.391" y="215.064" width="163.978" height="35.2286" rx="3" fill="#1A1A1A" stroke="#CCCCCC" stroke-width="2"/>
<path d="M274.704 244.233L266.254 247.415H379.153L379.491 241.051H373.068L366.308 239.99L359.21 241.051L353.801 236.454L346.365 238.222L337.576 234.686C337.576 234.686 333.52 235.158 333.182 236.454L329.464 230.797L327.436 233.625L324.055 230.797L321.689 234.686L319.323 227.615L316.281 238.222L314.591 226.2L311.549 237.161L308.168 230.797L305.464 241.051L301.746 223.372L298.704 236.454L294.31 227.615L284.845 244.233L280.451 238.222L274.704 244.233Z" fill="white"/>
<path fill-rule="evenodd" clip-rule="evenodd" d="M244.437 238.971C244.479 239.025 244.521 239.077 244.566 239.127C244.586 239.149 244.606 239.171 244.627 239.192V239.318C244.564 239.338 244.501 239.358 244.438 239.378C244.394 239.391 244.35 239.405 244.307 239.418C244.194 239.452 244.081 239.485 243.969 239.513C243.73 239.576 243.505 239.6 243.281 239.625C243.055 239.649 242.832 239.674 242.597 239.737C242.567 239.746 242.537 239.755 242.505 239.764C242.363 239.805 242.209 239.851 242.056 239.888C241.98 239.906 241.905 239.923 241.831 239.936C241.791 239.943 241.752 239.949 241.713 239.954C241.692 239.956 241.671 239.959 241.651 239.96C241.664 239.974 241.678 239.988 241.678 239.988C241.718 240.103 241.796 240.213 241.898 240.318C242.137 240.563 242.51 240.782 242.833 240.971C242.994 241.065 243.142 241.152 243.255 241.232C243.719 241.571 244.151 241.972 244.517 242.428C244.573 242.498 244.628 242.57 244.682 242.643C244.75 242.712 244.818 242.778 244.886 242.845C244.929 242.886 244.972 242.928 245.015 242.97C245.017 242.972 245.019 242.974 245.021 242.975C245.045 242.999 245.069 243.024 245.093 243.048C245.14 243.116 245.17 243.193 245.2 243.269C245.232 243.351 245.263 243.43 245.313 243.495V243.537C245.3 243.533 245.289 243.528 245.277 243.523C245.259 243.514 245.243 243.505 245.226 243.495C245.15 243.448 245.089 243.384 245.028 243.32C244.994 243.283 244.96 243.247 244.923 243.215C244.913 243.205 244.902 243.196 244.891 243.187C244.885 243.183 244.88 243.178 244.874 243.174C244.744 243.084 244.615 242.987 244.486 242.889C244.476 242.881 244.465 242.873 244.455 242.866C244.442 242.856 244.429 242.846 244.416 242.837C244.359 242.794 244.302 242.751 244.246 242.71C244.153 242.642 244.061 242.577 243.969 242.517C243.703 242.347 243.416 242.212 243.128 242.077C242.851 241.947 242.572 241.816 242.309 241.651C242.007 241.455 241.719 241.232 241.431 241.008C241.171 240.813 240.883 240.435 240.718 240.156C240.677 240.09 240.65 240.018 240.625 239.949C240.592 239.858 240.561 239.772 240.499 239.709C240.514 239.556 240.63 239.491 240.765 239.448C240.77 239.446 240.775 239.444 240.781 239.443C240.816 239.432 240.853 239.422 240.889 239.413C240.949 239.397 241.009 239.381 241.061 239.36C241.668 239.098 242.375 238.978 243.25 238.965C243.402 238.963 243.559 238.964 243.722 238.968C243.703 238.844 243.558 238.706 243.382 238.576C243.262 238.488 243.128 238.403 243.012 238.329C242.915 238.268 242.831 238.214 242.775 238.172C242.336 237.851 241.87 237.515 241.404 237.222C241.254 237.128 241.037 237.05 240.829 236.975C240.695 236.927 240.565 236.88 240.457 236.831C240.348 236.785 240.198 236.74 240.037 236.691C239.654 236.574 239.203 236.436 239.059 236.23C238.686 235.736 238.426 235.139 238.166 234.543C238.139 234.481 238.112 234.419 238.085 234.358C237.949 234.04 237.797 233.717 237.645 233.392C237.475 233.029 237.304 232.665 237.152 232.304C237.086 232.157 237.036 232.018 236.986 231.881C236.923 231.706 236.861 231.534 236.768 231.354C235.767 229.384 234.286 227.735 232.489 226.575C231.899 226.198 231.241 225.849 230.514 225.611C230.292 225.543 230.046 225.532 229.798 225.521C229.586 225.512 229.372 225.503 229.17 225.458H228.882C228.716 225.411 228.568 225.275 228.431 225.148C228.364 225.087 228.3 225.028 228.237 224.982C227.812 224.689 227.387 224.493 226.879 224.284C226.701 224.2 226.194 224.004 226.015 224.158C225.906 224.186 225.851 224.228 225.823 224.34C225.714 224.507 225.81 224.759 225.878 224.913C226.014 225.208 226.186 225.424 226.362 225.646C226.453 225.759 226.544 225.875 226.633 226.002C226.675 226.063 226.719 226.125 226.763 226.188C226.966 226.474 227.184 226.781 227.318 227.078C227.509 227.496 227.644 227.937 227.779 228.377C227.897 228.761 228.015 229.144 228.169 229.509C228.292 229.803 228.484 230.138 228.662 230.404C228.718 230.481 228.791 230.551 228.865 230.622C228.99 230.742 229.118 230.865 229.17 231.032C229.303 231.259 229.059 231.907 228.91 232.301C228.875 232.393 228.845 232.472 228.827 232.527C228.47 233.673 228.539 235.266 228.95 236.258C228.965 236.293 228.98 236.328 228.995 236.364C229.097 236.612 229.203 236.872 229.387 237.046C229.439 237.094 229.497 237.136 229.563 237.169C229.606 237.191 229.654 237.209 229.705 237.222C229.717 237.209 229.718 237.205 229.721 237.203C229.724 237.201 229.73 237.202 229.76 237.194C229.774 237.079 229.787 236.965 229.799 236.852C229.799 236.85 229.8 236.848 229.8 236.846C229.805 236.803 229.809 236.76 229.814 236.717C229.877 236.122 229.938 235.559 230.144 235.084C230.241 234.841 230.401 234.644 230.557 234.453C230.559 234.451 230.56 234.45 230.562 234.448C230.564 234.445 230.566 234.443 230.567 234.441C230.65 234.339 230.732 234.239 230.802 234.134C230.806 234.137 230.811 234.14 230.815 234.143C230.892 234.199 230.922 234.314 230.954 234.432C230.963 234.469 230.973 234.506 230.984 234.541C230.995 234.575 231.007 234.607 231.022 234.637C231.034 234.668 231.047 234.699 231.06 234.729C231.07 234.756 231.081 234.782 231.092 234.809C231.142 234.929 231.192 235.052 231.245 235.176C231.359 235.446 231.48 235.72 231.611 235.978C231.953 236.653 232.326 237.312 232.736 237.931C232.869 238.132 233.006 238.329 233.147 238.521C233.192 238.587 233.242 238.654 233.295 238.722C233.295 238.722 233.295 238.721 233.295 238.722C233.466 238.942 233.672 239.167 233.861 239.36C233.898 239.393 233.937 239.422 233.976 239.45C234.05 239.504 234.122 239.556 234.176 239.639H234.203V239.681C234.194 239.678 234.185 239.674 234.176 239.67C234.166 239.666 234.157 239.662 234.147 239.658C234.134 239.652 234.121 239.646 234.108 239.639C233.997 239.583 233.897 239.508 233.803 239.424C233.802 239.423 233.8 239.421 233.799 239.42C233.712 239.342 233.629 239.256 233.548 239.17C233.435 239.052 233.323 238.935 233.202 238.843C233.125 238.783 233.046 238.721 232.966 238.654C232.964 238.653 232.962 238.651 232.961 238.65C232.788 238.507 232.61 238.349 232.436 238.181C232.047 237.806 231.676 237.383 231.419 236.97C231.323 236.758 231.222 236.551 231.119 236.342C231.105 236.313 231.091 236.284 231.076 236.254C231.076 236.253 231.075 236.252 231.075 236.251C231.049 236.2 231.024 236.15 230.999 236.099C230.952 236.003 230.904 235.907 230.857 235.811V235.783C230.85 235.792 230.844 235.801 230.839 235.811C230.836 235.815 230.834 235.819 230.832 235.823C230.802 235.881 230.795 235.941 230.787 236.011C230.782 236.06 230.776 236.113 230.761 236.174C230.742 236.247 230.727 236.322 230.714 236.397C230.692 236.525 230.676 236.654 230.661 236.78C230.6 237.282 230.544 237.741 230.103 237.92C229.403 238.214 228.882 237.445 228.662 237.096C227.963 235.936 227.771 233.98 228.265 232.402C228.303 232.28 228.33 232.15 228.356 232.02C228.406 231.778 228.455 231.536 228.58 231.354C228.553 231.186 228.458 231.099 228.365 231.014C228.319 230.972 228.274 230.93 228.237 230.879C228.045 230.613 227.881 230.306 227.73 230.012C227.511 229.577 227.339 229.076 227.173 228.591C227.121 228.438 227.069 228.287 227.017 228.14C226.97 228.018 226.939 227.895 226.909 227.774C226.878 227.647 226.846 227.521 226.797 227.4C226.668 227.113 226.453 226.827 226.253 226.561C226.2 226.49 226.147 226.42 226.098 226.352C226.044 226.274 225.973 226.183 225.895 226.082C225.508 225.587 224.926 224.842 225.234 224.088C225.81 222.649 227.826 223.739 228.608 224.242C228.686 224.293 228.768 224.367 228.854 224.444C228.978 224.556 229.108 224.673 229.239 224.731C229.41 224.738 229.582 224.748 229.753 224.759C229.924 224.769 230.096 224.78 230.267 224.787C230.323 224.8 230.379 224.814 230.435 224.827C231.016 224.964 231.559 225.092 232.023 225.36C234.382 226.771 235.918 228.21 237.33 230.585C237.522 230.905 237.653 231.242 237.786 231.584C237.863 231.781 237.94 231.98 238.03 232.178C238.373 232.988 238.757 233.841 239.155 234.609C239.204 234.711 239.251 234.816 239.298 234.921C239.418 235.192 239.539 235.464 239.717 235.685C239.781 235.778 239.924 235.828 240.061 235.875C240.13 235.899 240.197 235.922 240.252 235.95C240.429 236.044 240.621 236.128 240.815 236.213C241.115 236.345 241.42 236.479 241.678 236.649C242.474 237.152 243.242 237.753 243.941 238.368C244.083 238.496 244.2 238.654 244.317 238.812C244.357 238.865 244.396 238.919 244.437 238.971ZM241.888 236.323C242.704 236.839 243.488 237.453 244.197 238.076L244.202 238.081C244.364 238.228 244.493 238.399 244.6 238.543C244.608 238.554 244.617 238.565 244.625 238.576C244.727 238.714 244.81 238.825 244.904 238.92L245.015 239.034V239.601L244.741 239.688C244.525 239.757 244.296 239.83 244.066 239.889C243.799 239.958 243.55 239.985 243.332 240.009L243.32 240.011C243.093 240.035 242.9 240.057 242.702 240.11C242.674 240.118 242.645 240.127 242.615 240.136C242.537 240.159 242.451 240.184 242.361 240.209C242.428 240.26 242.502 240.312 242.582 240.364C242.727 240.459 242.88 240.549 243.032 240.639L243.045 240.646C243.196 240.734 243.353 240.827 243.478 240.914L243.484 240.919C244.04 241.325 244.557 241.82 244.978 242.391C245.036 242.45 245.095 242.507 245.157 242.567C245.225 242.633 245.298 242.703 245.37 242.777L245.394 242.801L245.413 242.829C245.486 242.934 245.531 243.05 245.558 243.121C245.56 243.126 245.562 243.131 245.564 243.135C245.598 243.222 245.611 243.247 245.621 243.26L245.7 243.364V244.091L245.18 243.902C245.001 243.836 244.879 243.722 244.801 243.643C244.768 243.609 244.743 243.583 244.724 243.563C244.691 243.527 244.672 243.508 244.647 243.489C244.513 243.395 244.378 243.294 244.251 243.198C244.23 243.182 244.209 243.166 244.188 243.15C244.037 243.037 243.896 242.933 243.758 242.843C243.523 242.692 243.265 242.569 242.979 242.435L242.956 242.424C242.683 242.296 242.386 242.157 242.103 241.98L242.098 241.976C241.782 241.771 241.482 241.538 241.197 241.318L241.196 241.316C240.879 241.078 240.563 240.656 240.386 240.357C240.323 240.254 240.282 240.142 240.259 240.077C240.256 240.067 240.253 240.059 240.25 240.052C240.23 239.998 240.22 239.98 240.219 239.977L240.094 239.85L240.113 239.669C240.129 239.515 240.193 239.384 240.292 239.282C240.384 239.189 240.49 239.137 240.571 239.105C240.648 239.075 240.728 239.054 240.783 239.039L240.791 239.037C240.854 239.021 240.888 239.011 240.912 239.002C241.445 238.772 242.037 238.647 242.714 238.599C242.653 238.56 242.592 238.519 242.543 238.483C242.106 238.163 241.651 237.835 241.198 237.551C241.113 237.498 240.981 237.444 240.807 237.38C240.776 237.368 240.742 237.356 240.707 237.344C240.574 237.296 240.426 237.242 240.303 237.187C240.231 237.157 240.129 237.124 239.998 237.084C239.975 237.077 239.951 237.07 239.926 237.062C239.815 237.028 239.691 236.99 239.572 236.95C239.426 236.9 239.271 236.842 239.133 236.77C239.005 236.704 238.851 236.606 238.746 236.459C238.345 235.927 238.067 235.289 237.812 234.702C237.784 234.638 237.757 234.575 237.73 234.513L237.728 234.511C237.595 234.199 237.446 233.881 237.293 233.554L237.267 233.5C237.107 233.158 236.944 232.807 236.797 232.458C236.725 232.299 236.67 232.147 236.621 232.012C236.614 231.993 236.608 231.974 236.601 231.956C236.545 231.803 236.494 231.668 236.423 231.531L236.422 231.529C235.452 229.619 234.017 228.023 232.279 226.902C231.709 226.537 231.082 226.205 230.397 225.981C230.246 225.935 230.067 225.922 229.835 225.911C229.816 225.91 229.796 225.91 229.777 225.909C229.583 225.9 229.353 225.89 229.129 225.845H228.828L228.776 225.831C228.565 225.771 228.397 225.637 228.284 225.539C228.225 225.487 228.181 225.447 228.145 225.413C228.095 225.366 228.058 225.332 228.013 225.299C227.623 225.031 227.23 224.848 226.732 224.642L226.723 224.639L226.714 224.635C226.641 224.6 226.496 224.542 226.359 224.51C226.301 224.496 226.256 224.49 226.226 224.489L226.2 224.512L226.17 224.519L226.162 224.531C226.162 224.538 226.163 224.548 226.166 224.562C226.176 224.617 226.2 224.682 226.232 224.753C226.317 224.938 226.421 225.089 226.542 225.247C226.577 225.292 226.615 225.34 226.656 225.391C226.75 225.51 226.856 225.643 226.951 225.782C226.951 225.782 226.951 225.781 226.951 225.782M226.098 224.538C226.098 224.538 226.099 224.538 226.1 224.537L226.098 224.538ZM241.888 236.323C241.648 236.166 241.381 236.04 241.133 235.93C241.075 235.904 241.019 235.879 240.964 235.855C240.772 235.771 240.596 235.693 240.432 235.607L240.428 235.605C240.363 235.572 240.295 235.547 240.242 235.528C240.219 235.52 240.199 235.513 240.181 235.506C240.151 235.496 240.125 235.487 240.096 235.476C240.057 235.461 240.033 235.45 240.019 235.442C239.924 235.324 239.844 235.178 239.761 235.002C239.724 234.925 239.689 234.847 239.652 234.764C239.647 234.753 239.642 234.741 239.637 234.73C239.595 234.636 239.551 234.536 239.503 234.438L239.499 234.431C239.108 233.675 238.728 232.832 238.387 232.027L238.383 232.018C238.298 231.83 238.226 231.646 238.151 231.453C238.122 231.378 238.092 231.301 238.061 231.223C237.953 230.95 237.831 230.665 237.663 230.386C236.214 227.95 234.629 226.467 232.222 225.027L232.217 225.024C231.701 224.726 231.101 224.585 230.53 224.451C230.472 224.437 230.415 224.423 230.357 224.41L230.321 224.401L230.283 224.399C230.116 224.393 229.949 224.382 229.777 224.372L229.775 224.372C229.634 224.363 229.49 224.354 229.345 224.347C229.302 224.319 229.245 224.274 229.17 224.207C229.156 224.194 229.14 224.179 229.122 224.164C229.038 224.088 228.926 223.987 228.82 223.918L228.818 223.916C228.417 223.658 227.672 223.23 226.931 223.059C226.56 222.973 226.15 222.943 225.773 223.066C225.377 223.196 225.059 223.483 224.874 223.943C224.623 224.559 224.826 225.144 225.071 225.578C225.196 225.799 225.341 226 225.47 226.167C225.517 226.229 225.56 226.284 225.599 226.334C225.673 226.428 225.731 226.503 225.778 226.571L225.781 226.575L225.784 226.58C225.843 226.66 225.901 226.739 225.959 226.816C226.152 227.073 226.33 227.311 226.441 227.552C226.475 227.64 226.5 227.735 226.531 227.858C226.532 227.863 226.533 227.868 226.534 227.874C226.563 227.989 226.598 228.131 226.653 228.274C226.701 228.409 226.75 228.551 226.8 228.698C226.967 229.188 227.151 229.725 227.383 230.187L227.385 230.19C227.536 230.483 227.712 230.814 227.922 231.105C227.972 231.174 228.026 231.227 228.066 231.265C228.086 231.284 228.1 231.297 228.112 231.308C228.125 231.32 228.136 231.329 228.147 231.34C228.081 231.487 228.042 231.638 228.013 231.767C227.997 231.84 227.983 231.905 227.971 231.966C227.947 232.084 227.927 232.183 227.895 232.285C227.373 233.953 227.565 236.027 228.33 237.296L228.334 237.302C228.445 237.479 228.659 237.807 228.958 238.05C229.267 238.301 229.722 238.5 230.251 238.279C230.739 238.079 230.902 237.655 230.976 237.293C230.994 237.207 231.008 237.118 231.02 237.03C231.035 237.064 231.051 237.097 231.066 237.131L231.077 237.154L231.09 237.175C231.549 237.914 232.329 238.66 232.966 239.15L232.967 239.151C233.062 239.224 233.143 239.309 233.247 239.417C233.292 239.464 233.341 239.515 233.397 239.572C233.537 239.713 233.715 239.877 233.942 239.99L233.966 240.027H234.023C234.038 240.033 234.053 240.039 234.068 240.044L234.591 240.24V239.251H234.349C234.319 239.224 234.29 239.2 234.264 239.181C234.229 239.154 234.206 239.137 234.187 239.124C234.163 239.106 234.147 239.095 234.127 239.078C233.89 238.835 233.638 238.551 233.467 238.302L233.463 238.296L233.46 238.291C232.9 237.531 232.403 236.684 231.957 235.803C231.761 235.415 231.586 234.99 231.417 234.579C231.405 234.549 231.392 234.519 231.38 234.49L231.375 234.478L231.37 234.466C231.365 234.456 231.357 234.435 231.345 234.394C231.34 234.375 231.334 234.356 231.328 234.332L231.327 234.327C231.321 234.303 231.313 234.275 231.305 234.246L231.304 234.245C231.279 234.156 231.213 233.931 231.004 233.803L230.687 233.609L230.48 233.918C230.418 234.01 230.353 234.09 230.275 234.186C230.236 234.233 230.194 234.284 230.148 234.343C230.022 234.503 229.882 234.696 229.786 234.935C229.637 235.28 229.559 235.653 229.506 236.021C229.487 236.157 229.469 236.302 229.453 236.45C229.422 236.383 229.392 236.31 229.359 236.229C229.343 236.191 229.326 236.151 229.308 236.108C228.934 235.206 228.866 233.709 229.196 232.645C229.212 232.599 229.237 232.534 229.269 232.446C229.281 232.416 229.294 232.382 229.307 232.345C229.358 232.212 229.416 232.052 229.466 231.89C229.516 231.731 229.563 231.556 229.584 231.393C229.601 231.264 229.614 231.061 229.528 230.881C229.454 230.673 229.317 230.524 229.216 230.423C229.174 230.38 229.139 230.347 229.109 230.319C229.051 230.263 229.014 230.227 228.981 230.182C228.813 229.931 228.636 229.621 228.526 229.359C228.381 229.013 228.268 228.647 228.149 228.258C228.141 228.232 228.133 228.206 228.124 228.18C227.998 227.769 227.861 227.335 227.671 226.918C227.519 226.583 227.274 226.237 227.071 225.951C227.029 225.892 226.989 225.835 226.951 225.782M240.011 235.437C240.011 235.437 240.011 235.437 240.012 235.438L240.011 235.437Z" fill="#808080"/>
<path d="M243.722 238.968C242.625 238.94 241.774 239.052 241.061 239.359C240.855 239.443 240.526 239.443 240.499 239.709C240.608 239.821 240.622 240.002 240.718 240.156C240.883 240.435 241.171 240.813 241.431 241.008C241.719 241.232 242.007 241.455 242.309 241.651C242.844 241.986 243.447 242.182 243.969 242.517C244.27 242.713 244.572 242.964 244.874 243.174C245.025 243.285 245.121 243.467 245.313 243.537V243.495C245.217 243.369 245.189 243.188 245.093 243.048C244.956 242.908 244.819 242.783 244.682 242.643C244.284 242.098 243.79 241.623 243.255 241.232C242.817 240.924 241.856 240.505 241.678 239.988C241.678 239.988 241.664 239.974 241.651 239.96C241.952 239.932 242.309 239.821 242.597 239.737C243.063 239.611 243.489 239.639 243.969 239.513C244.188 239.457 244.407 239.387 244.627 239.318V239.192C244.38 238.94 244.202 238.605 243.941 238.368C243.242 237.753 242.474 237.152 241.678 236.649C241.253 236.369 240.704 236.188 240.252 235.95C240.087 235.866 239.813 235.825 239.717 235.685C239.47 235.378 239.333 234.972 239.155 234.609C238.757 233.841 238.373 232.988 238.03 232.178C237.783 231.633 237.632 231.088 237.33 230.585C235.918 228.21 234.382 226.771 232.023 225.36C231.515 225.066 230.912 224.94 230.267 224.787C229.924 224.773 229.581 224.745 229.239 224.731C229.019 224.633 228.8 224.368 228.608 224.242C227.826 223.739 225.81 222.649 225.234 224.088C224.863 224.996 225.782 225.89 226.098 226.352C226.331 226.673 226.633 227.036 226.797 227.4C226.893 227.637 226.921 227.889 227.017 228.14C227.236 228.755 227.442 229.439 227.73 230.012C227.881 230.306 228.045 230.613 228.237 230.879C228.347 231.032 228.539 231.102 228.58 231.354C228.388 231.633 228.375 232.052 228.265 232.401C227.771 233.98 227.963 235.936 228.663 237.096C228.882 237.445 229.403 238.214 230.103 237.92C230.72 237.669 230.583 236.873 230.761 236.174C230.802 236.006 230.775 235.894 230.857 235.783V235.811C231.049 236.202 231.241 236.579 231.419 236.97C231.844 237.655 232.585 238.368 233.202 238.843C233.531 239.094 233.792 239.527 234.203 239.681V239.639H234.176C234.094 239.513 233.97 239.457 233.861 239.359C233.614 239.108 233.339 238.801 233.147 238.521C232.571 237.739 232.064 236.872 231.611 235.978C231.392 235.545 231.2 235.07 231.022 234.637C230.939 234.469 230.939 234.218 230.802 234.134C230.596 234.441 230.295 234.707 230.144 235.084C229.883 235.685 229.856 236.425 229.76 237.194C229.705 237.208 229.732 237.194 229.705 237.222C229.266 237.11 229.115 236.649 228.95 236.258C228.539 235.266 228.47 233.673 228.827 232.527C228.923 232.234 229.335 231.312 229.17 231.032C229.088 230.767 228.813 230.613 228.663 230.404C228.484 230.138 228.292 229.803 228.169 229.509C227.84 228.727 227.675 227.861 227.318 227.078C227.154 226.715 226.866 226.338 226.633 226.002C226.372 225.625 226.084 225.36 225.878 224.913C225.81 224.759 225.714 224.507 225.823 224.34C225.851 224.228 225.906 224.186 226.016 224.158C226.194 224.004 226.701 224.2 226.88 224.284C227.387 224.493 227.812 224.689 228.237 224.982C228.429 225.122 228.635 225.388 228.882 225.457H229.17C229.609 225.555 230.103 225.485 230.514 225.611C231.241 225.849 231.899 226.198 232.489 226.575C234.286 227.735 235.767 229.384 236.768 231.354C236.933 231.675 237.001 231.968 237.152 232.304C237.44 232.988 237.797 233.687 238.085 234.358C238.373 235.014 238.647 235.685 239.059 236.23C239.264 236.523 240.087 236.677 240.457 236.831C240.732 236.956 241.157 237.068 241.404 237.222C241.87 237.515 242.336 237.851 242.775 238.172C242.995 238.34 243.681 238.689 243.722 238.968Z" fill="#808080"/>
<path d="M274.548 26L263.347 14.2704L252.144 26L240.941 14.2704L229.738 26L218.546 14.2814L208.485 25.7454L208 24.9936L218.526 13L229.738 24.7383L240.941 13.0095L252.144 24.7383L263.347 13.0095L274.548 24.7383L285.751 13.0095L296.954 24.7383L308.157 13.0095L319.36 24.7383L330.565 13.0095L342 24.9803L341.538 25.7582L330.565 14.2704L319.36 26L308.157 14.2704L296.954 26L285.751 14.2704L274.548 26Z" fill="white"/>
<path d="M143.584 37.4613C143.405 37.3234 143.155 37.3234 142.975 37.4613L137.395 41.7468L137.699 42.1434L126.539 50.7145L126.234 50.3179L120.959 54.3696L115.683 50.3179L115.378 50.7145L104.217 42.1434L104.522 41.7468L98.9411 37.4613C98.7615 37.3234 98.5117 37.3234 98.3321 37.4613L92.7516 41.7468L93.0561 42.1434L81.8951 50.7145L81.5906 50.3179L76.3146 54.3696L71.0439 50.3217L70.7394 50.7182L59.5889 42.1546L59.8935 41.7581L54.3183 37.4763C54.1326 37.3336 53.8728 37.339 53.6931 37.4892L48.6811 41.6779L49.0017 42.0616L38.9777 50.4391L38.6571 50.0555L33.6451 54.2443L33.7311 54.3472L33.7243 54.3532L33.3302 53.9048L38.564 49.5305L38.2434 49.1469L48.7301 40.3823L49.0508 40.7659L53.9867 36.6406L59.2542 40.6858L59.5588 40.2893L70.7293 48.8678L70.4248 49.2644L76.0101 53.5536C76.1897 53.6916 76.4395 53.6916 76.6191 53.5536L82.1996 49.2678L81.8951 48.8713L93.0561 40.2996L93.3606 40.6962L98.6366 36.6443L103.913 40.6962L104.217 40.2996L115.378 48.8713L115.074 49.2678L120.654 53.5536C120.834 53.6916 121.084 53.6916 121.263 53.5536L126.843 49.2678L126.539 48.8713L137.699 40.2996L138.004 40.6962L143.28 36.6443L148.555 40.6962L148.86 40.2996L160.019 48.8713L159.715 49.2678L165.295 53.5536C165.474 53.6916 165.724 53.6916 165.904 53.5536L171.484 49.2678L171.18 48.8713L182.341 40.2996L182.645 40.6962L187.921 36.6443L193.197 40.6962L193.502 40.2996L204.663 48.8713L204.359 49.2678L209.939 53.5536C210.119 53.6916 210.369 53.6916 210.548 53.5536L216.129 49.2678L215.824 48.8713L226.986 40.2996L227.291 40.6962L232.567 36.6443L237.843 40.6962L238.147 40.2996L249.308 48.8713L249.004 49.2678L254.584 53.5536C254.764 53.6916 255.014 53.6916 255.193 53.5537L260.775 49.2678L260.47 48.8713L271.633 40.2996L271.938 40.6962L277.215 36.6442L282.606 40.7844L282.911 40.3878L294.304 49.1357L293.999 49.5323L299.685 53.8985L299.31 54.3623L299.303 54.3565L299.385 54.25L293.918 50.0528L293.614 50.4494L282.681 42.055L282.985 41.6584L277.519 37.4613C277.339 37.3234 277.09 37.3234 276.91 37.4613L271.329 41.7468L271.633 42.1434L260.47 50.7145L260.166 50.3179L254.889 54.3696L249.613 50.3179L249.308 50.7145L238.147 42.1434L238.452 41.7468L232.871 37.4613C232.692 37.3234 232.442 37.3234 232.262 37.4613L226.681 41.7468L226.986 42.1434L215.824 50.7145L215.52 50.3179L210.244 54.3696L204.968 50.3179L204.663 50.7145L193.502 42.1434L193.806 41.7468L188.226 37.4613C188.046 37.3234 187.796 37.3234 187.617 37.4613L182.036 41.7468L182.341 42.1434L171.18 50.7145L170.875 50.3179L165.599 54.3696L160.324 50.3179L160.019 50.7145L148.86 42.1434L149.164 41.7468L143.584 37.4613Z" stroke="white" stroke-linejoin="round" stroke-dasharray="10 10"/>
<rect x="148.588" y="98.7251" width="163.978" height="33.6774" rx="3" stroke="white" stroke-width="2"/>
<path d="M204.901 126.342L196.45 129.524H309.349L309.687 123.16H303.265L296.504 122.099L289.406 123.16L283.998 118.563L276.561 120.331L267.773 116.796C267.773 116.796 263.716 117.267 263.378 118.563L259.66 112.906L257.632 115.735L254.252 112.906L251.886 116.796L249.519 109.724L246.477 120.331L244.787 108.31L241.745 119.271L238.365 112.906L235.661 123.16L231.942 105.481L228.9 118.563L224.506 109.724L215.041 126.342L210.647 120.331L204.901 126.342Z" fill="white"/>
<path fill-rule="evenodd" clip-rule="evenodd" d="M174.634 121.08C174.675 121.134 174.718 121.187 174.763 121.236C174.782 121.259 174.803 121.28 174.823 121.301V121.427C174.76 121.447 174.697 121.467 174.634 121.487C174.59 121.501 174.547 121.514 174.503 121.527C174.39 121.562 174.278 121.594 174.165 121.623C173.926 121.685 173.701 121.71 173.478 121.734C173.252 121.759 173.028 121.783 172.794 121.846C172.764 121.855 172.733 121.864 172.702 121.873C172.56 121.915 172.406 121.96 172.252 121.997C172.177 122.016 172.101 122.032 172.027 122.045C171.988 122.052 171.948 122.058 171.91 122.063C171.889 122.066 171.868 122.068 171.847 122.07C171.861 122.084 171.875 122.098 171.875 122.098C171.914 122.212 171.992 122.322 172.094 122.427C172.334 122.673 172.707 122.891 173.03 123.081C173.19 123.175 173.338 123.262 173.452 123.341C173.915 123.68 174.347 124.082 174.713 124.537C174.77 124.608 174.825 124.679 174.878 124.752C174.946 124.822 175.015 124.888 175.083 124.954C175.126 124.995 175.169 125.037 175.212 125.079C175.214 125.081 175.215 125.083 175.217 125.085C175.241 125.109 175.265 125.133 175.29 125.158C175.336 125.225 175.366 125.303 175.396 125.379C175.428 125.46 175.46 125.54 175.509 125.605V125.647C175.497 125.642 175.485 125.637 175.474 125.632C175.456 125.624 175.439 125.615 175.423 125.605C175.346 125.558 175.285 125.493 175.225 125.429C175.191 125.393 175.157 125.357 175.12 125.324C175.109 125.315 175.098 125.305 175.087 125.296C175.082 125.292 175.076 125.288 175.07 125.283C174.941 125.194 174.812 125.096 174.682 124.998C174.672 124.991 174.662 124.983 174.651 124.975C174.638 124.965 174.626 124.956 174.613 124.946C174.556 124.903 174.499 124.861 174.442 124.819C174.35 124.751 174.257 124.686 174.165 124.627C173.9 124.456 173.613 124.321 173.325 124.186C173.047 124.056 172.768 123.925 172.505 123.76C172.204 123.565 171.916 123.341 171.628 123.118C171.367 122.922 171.079 122.545 170.915 122.265C170.873 122.199 170.847 122.127 170.822 122.058C170.789 121.968 170.757 121.882 170.695 121.818C170.711 121.666 170.827 121.601 170.961 121.557C170.966 121.555 170.972 121.554 170.977 121.552C171.012 121.541 171.049 121.532 171.085 121.522C171.146 121.506 171.206 121.49 171.257 121.469C171.865 121.207 172.572 121.087 173.446 121.075C173.598 121.073 173.755 121.074 173.918 121.078C173.9 120.954 173.754 120.816 173.579 120.686C173.459 120.597 173.325 120.512 173.208 120.438C173.112 120.377 173.027 120.323 172.972 120.281C172.533 119.96 172.067 119.625 171.6 119.331C171.45 119.238 171.234 119.16 171.026 119.085C170.892 119.036 170.761 118.989 170.654 118.94C170.544 118.895 170.395 118.849 170.234 118.8C169.85 118.683 169.4 118.546 169.255 118.339C168.882 117.846 168.622 117.249 168.362 116.653C168.335 116.591 168.308 116.529 168.281 116.467C168.145 116.15 167.993 115.826 167.841 115.501C167.671 115.139 167.5 114.774 167.349 114.413C167.282 114.266 167.232 114.127 167.182 113.99C167.119 113.815 167.057 113.643 166.965 113.463C165.963 111.493 164.482 109.844 162.685 108.685C162.096 108.307 161.437 107.958 160.71 107.721C160.488 107.653 160.242 107.642 159.994 107.631C159.782 107.621 159.568 107.612 159.366 107.567H159.078C158.912 107.52 158.764 107.384 158.627 107.258C158.561 107.196 158.496 107.137 158.434 107.092C158.009 106.798 157.583 106.603 157.076 106.393C156.898 106.309 156.39 106.114 156.212 106.268C156.102 106.296 156.047 106.337 156.02 106.449C155.91 106.617 156.006 106.868 156.075 107.022C156.211 107.317 156.383 107.534 156.559 107.755C156.649 107.869 156.741 107.984 156.829 108.112C156.871 108.172 156.915 108.234 156.96 108.297C157.162 108.583 157.38 108.89 157.515 109.188C157.705 109.605 157.841 110.046 157.976 110.486C158.094 110.871 158.212 111.254 158.365 111.619C158.489 111.912 158.681 112.248 158.859 112.513C158.915 112.591 158.988 112.661 159.061 112.732C159.187 112.852 159.315 112.975 159.366 113.142C159.5 113.368 159.255 114.017 159.106 114.411C159.071 114.503 159.042 114.581 159.024 114.637C158.667 115.782 158.735 117.375 159.147 118.367C159.162 118.402 159.176 118.438 159.191 118.474C159.293 118.722 159.4 118.982 159.583 119.155C159.635 119.204 159.693 119.246 159.759 119.279C159.803 119.3 159.85 119.318 159.901 119.331C159.914 119.319 159.915 119.315 159.918 119.313C159.921 119.31 159.926 119.311 159.956 119.303C159.97 119.189 159.983 119.075 159.996 118.962C159.996 118.959 159.996 118.957 159.996 118.955C160.001 118.912 160.006 118.869 160.01 118.826C160.074 118.231 160.134 117.669 160.34 117.194C160.437 116.951 160.597 116.754 160.754 116.563C160.755 116.561 160.757 116.559 160.758 116.557C160.76 116.555 160.762 116.552 160.764 116.55C160.847 116.449 160.928 116.348 160.998 116.244C161.003 116.246 161.007 116.249 161.011 116.252C161.089 116.309 161.119 116.423 161.15 116.541C161.16 116.578 161.169 116.615 161.181 116.651C161.191 116.684 161.203 116.717 161.218 116.746C161.231 116.777 161.243 116.808 161.256 116.839C161.267 116.865 161.278 116.892 161.288 116.918C161.338 117.039 161.389 117.162 161.441 117.285C161.555 117.556 161.677 117.829 161.808 118.088C162.149 118.762 162.522 119.421 162.932 120.04C163.065 120.242 163.202 120.439 163.344 120.631C163.389 120.696 163.438 120.763 163.491 120.831C163.491 120.831 163.491 120.831 163.491 120.831C163.663 121.051 163.868 121.277 164.057 121.469C164.095 121.502 164.134 121.531 164.172 121.559C164.246 121.613 164.318 121.666 164.372 121.748H164.4V121.79C164.391 121.787 164.381 121.783 164.372 121.78C164.363 121.776 164.353 121.771 164.344 121.767C164.33 121.761 164.317 121.755 164.304 121.748C164.193 121.693 164.094 121.618 163.999 121.533C163.998 121.532 163.997 121.531 163.995 121.529C163.908 121.451 163.826 121.365 163.744 121.28C163.631 121.161 163.519 121.044 163.399 120.952C163.322 120.893 163.243 120.83 163.163 120.764C163.161 120.762 163.159 120.761 163.157 120.759C162.984 120.616 162.807 120.458 162.633 120.291C162.243 119.916 161.872 119.493 161.616 119.08C161.519 118.868 161.418 118.66 161.316 118.452C161.301 118.422 161.287 118.393 161.273 118.364C161.272 118.363 161.272 118.362 161.271 118.361C161.246 118.31 161.221 118.259 161.195 118.208C161.148 118.113 161.101 118.017 161.053 117.92V117.892C161.046 117.901 161.04 117.911 161.035 117.92C161.033 117.924 161.03 117.928 161.028 117.933C160.998 117.991 160.991 118.051 160.984 118.12C160.978 118.169 160.972 118.222 160.957 118.283C160.939 118.357 160.923 118.431 160.91 118.506C160.888 118.634 160.872 118.763 160.857 118.89C160.796 119.392 160.74 119.85 160.299 120.03C159.6 120.323 159.078 119.555 158.859 119.206C158.16 118.046 157.967 116.09 158.461 114.511C158.499 114.389 158.526 114.259 158.552 114.13C158.602 113.887 158.652 113.645 158.777 113.463C158.749 113.295 158.654 113.208 158.562 113.123C158.516 113.081 158.47 113.039 158.434 112.988C158.242 112.723 158.077 112.415 157.926 112.122C157.707 111.686 157.536 111.185 157.37 110.7C157.317 110.548 157.266 110.397 157.213 110.25C157.166 110.127 157.136 110.004 157.106 109.883C157.074 109.756 157.043 109.631 156.994 109.509C156.864 109.223 156.649 108.936 156.45 108.67C156.396 108.599 156.344 108.529 156.294 108.461C156.241 108.383 156.17 108.292 156.091 108.191C155.704 107.696 155.123 106.952 155.43 106.198C156.006 104.759 158.022 105.848 158.804 106.351C158.882 106.403 158.965 106.477 159.05 106.554C159.175 106.665 159.305 106.782 159.435 106.84C159.606 106.847 159.778 106.858 159.949 106.868C160.121 106.879 160.292 106.889 160.464 106.896C160.52 106.91 160.576 106.923 160.631 106.936C161.213 107.073 161.756 107.201 162.219 107.469C164.578 108.88 166.114 110.319 167.527 112.695C167.719 113.014 167.85 113.351 167.983 113.694C168.059 113.89 168.136 114.089 168.226 114.287C168.569 115.098 168.953 115.95 169.351 116.719C169.401 116.82 169.448 116.925 169.494 117.031C169.615 117.301 169.736 117.573 169.913 117.794C169.977 117.887 170.12 117.937 170.257 117.985C170.326 118.008 170.393 118.032 170.448 118.06C170.626 118.153 170.818 118.237 171.011 118.323C171.312 118.455 171.616 118.589 171.875 118.758C172.67 119.261 173.438 119.862 174.138 120.477C174.279 120.606 174.396 120.763 174.513 120.921C174.553 120.974 174.593 121.028 174.634 121.08ZM172.085 118.432C172.901 118.949 173.684 119.562 174.394 120.186L174.399 120.19C174.56 120.337 174.69 120.509 174.797 120.652C174.805 120.663 174.813 120.674 174.821 120.685C174.924 120.823 175.007 120.935 175.1 121.03L175.211 121.143V121.711L174.937 121.798C174.721 121.867 174.493 121.939 174.262 121.998C173.996 122.068 173.747 122.095 173.529 122.119L173.516 122.12C173.29 122.145 173.097 122.166 172.898 122.22C172.87 122.228 172.841 122.236 172.811 122.245C172.733 122.268 172.648 122.293 172.558 122.318C172.624 122.369 172.698 122.421 172.778 122.474C172.923 122.569 173.076 122.659 173.229 122.748L173.241 122.755C173.392 122.844 173.549 122.936 173.674 123.024L173.681 123.028C174.236 123.434 174.753 123.929 175.174 124.5C175.232 124.559 175.291 124.616 175.354 124.676C175.422 124.742 175.494 124.812 175.567 124.886L175.59 124.91L175.609 124.938C175.682 125.044 175.727 125.159 175.755 125.23C175.757 125.235 175.758 125.24 175.76 125.245C175.794 125.331 175.807 125.356 175.817 125.369L175.897 125.474V126.2L175.377 126.011C175.197 125.946 175.075 125.832 174.997 125.752C174.964 125.718 174.94 125.693 174.921 125.672C174.887 125.636 174.869 125.617 174.843 125.598C174.709 125.504 174.575 125.403 174.448 125.307C174.426 125.291 174.405 125.275 174.384 125.26C174.234 125.146 174.093 125.042 173.955 124.952C173.719 124.801 173.462 124.679 173.176 124.545L173.152 124.534C172.88 124.406 172.582 124.266 172.299 124.089L172.294 124.086C171.978 123.881 171.678 123.648 171.394 123.427L171.392 123.426C171.076 123.187 170.759 122.765 170.583 122.466C170.519 122.363 170.479 122.251 170.455 122.186C170.452 122.177 170.449 122.168 170.446 122.161C170.427 122.108 170.417 122.09 170.415 122.087L170.291 121.96L170.309 121.778C170.325 121.625 170.389 121.493 170.489 121.392C170.58 121.298 170.687 121.246 170.768 121.214C170.844 121.184 170.924 121.163 170.979 121.149L170.987 121.147C171.051 121.13 171.084 121.12 171.108 121.111C171.642 120.882 172.234 120.757 172.911 120.709C172.849 120.669 172.788 120.629 172.74 120.592C172.303 120.272 171.847 119.945 171.395 119.66C171.31 119.607 171.178 119.553 171.004 119.489C170.972 119.478 170.938 119.465 170.904 119.453C170.771 119.405 170.622 119.351 170.5 119.296C170.427 119.266 170.326 119.234 170.194 119.193C170.171 119.186 170.147 119.179 170.123 119.172C170.012 119.138 169.888 119.1 169.768 119.059C169.622 119.01 169.467 118.951 169.33 118.879C169.202 118.813 169.048 118.715 168.942 118.568C168.542 118.037 168.264 117.398 168.008 116.811C167.981 116.748 167.953 116.685 167.926 116.623L167.925 116.62C167.791 116.309 167.642 115.991 167.489 115.664L167.464 115.61C167.304 115.268 167.14 114.917 166.993 114.568C166.921 114.408 166.866 114.256 166.818 114.121C166.811 114.102 166.804 114.084 166.797 114.065C166.742 113.912 166.69 113.778 166.619 113.64L166.619 113.639C165.648 111.729 164.213 110.132 162.476 109.011C161.905 108.646 161.279 108.315 160.594 108.09C160.442 108.045 160.263 108.031 160.031 108.021C160.012 108.02 159.993 108.019 159.973 108.018C159.779 108.01 159.55 108 159.326 107.955H159.024L158.973 107.94C158.761 107.88 158.593 107.746 158.481 107.648C158.422 107.596 158.378 107.556 158.341 107.522C158.291 107.475 158.254 107.441 158.209 107.408C157.82 107.14 157.426 106.957 156.928 106.752L156.919 106.748L156.911 106.744C156.837 106.71 156.692 106.651 156.556 106.619C156.497 106.605 156.452 106.599 156.422 106.598L156.396 106.621L156.366 106.629L156.358 106.641C156.358 106.647 156.359 106.657 156.362 106.671C156.372 106.726 156.397 106.792 156.428 106.862C156.513 107.047 156.617 107.199 156.739 107.357C156.773 107.401 156.811 107.45 156.852 107.501C156.946 107.619 157.052 107.752 157.148 107.891C157.148 107.891 157.148 107.891 157.148 107.891M156.295 106.647C156.295 106.647 156.295 106.647 156.296 106.647L156.295 106.647ZM172.085 118.432C171.844 118.275 171.577 118.15 171.329 118.039C171.272 118.013 171.215 117.989 171.16 117.964C170.969 117.88 170.793 117.803 170.628 117.716L170.624 117.714C170.559 117.681 170.491 117.656 170.439 117.637C170.415 117.629 170.395 117.622 170.377 117.616C170.347 117.605 170.322 117.596 170.293 117.585C170.253 117.571 170.23 117.559 170.216 117.552C170.121 117.433 170.04 117.287 169.957 117.112C169.921 117.035 169.886 116.956 169.849 116.873C169.844 116.862 169.839 116.85 169.834 116.839C169.792 116.745 169.747 116.646 169.699 116.548L169.695 116.54C169.304 115.784 168.924 114.942 168.583 114.136L168.58 114.128C168.494 113.939 168.423 113.755 168.348 113.562C168.319 113.487 168.289 113.411 168.258 113.332C168.149 113.06 168.027 112.774 167.86 112.496C166.411 110.059 164.825 108.576 162.418 107.136L162.413 107.133C161.897 106.835 161.297 106.694 160.727 106.56C160.669 106.546 160.611 106.533 160.554 106.519L160.517 106.51L160.479 106.509C160.313 106.502 160.145 106.492 159.973 106.481L159.971 106.481C159.83 106.473 159.686 106.464 159.541 106.457C159.498 106.428 159.442 106.383 159.367 106.316C159.352 106.303 159.336 106.289 159.319 106.273C159.234 106.197 159.122 106.096 159.016 106.027L159.014 106.025C158.614 105.768 157.868 105.339 157.127 105.168C156.756 105.083 156.346 105.052 155.97 105.175C155.573 105.305 155.255 105.592 155.071 106.052C154.82 106.669 155.022 107.253 155.267 107.688C155.392 107.909 155.538 108.109 155.666 108.276C155.714 108.339 155.757 108.394 155.796 108.443C155.869 108.537 155.927 108.612 155.974 108.68L155.977 108.685L155.98 108.689C156.039 108.77 156.098 108.848 156.155 108.925C156.348 109.183 156.526 109.42 156.637 109.662C156.672 109.749 156.696 109.844 156.727 109.968C156.728 109.973 156.73 109.978 156.731 109.983C156.76 110.099 156.795 110.24 156.849 110.384C156.897 110.519 156.946 110.661 156.996 110.807C157.164 111.297 157.348 111.834 157.58 112.296L157.581 112.299C157.732 112.593 157.908 112.923 158.119 113.214C158.168 113.283 158.222 113.337 158.262 113.374C158.282 113.393 158.297 113.406 158.309 113.417C158.322 113.429 158.332 113.439 158.343 113.449C158.277 113.597 158.239 113.747 158.21 113.876C158.193 113.949 158.18 114.015 158.168 114.075C158.144 114.193 158.123 114.292 158.091 114.395C157.57 116.062 157.761 118.136 158.527 119.406L158.531 119.412C158.642 119.589 158.855 119.917 159.154 120.16C159.463 120.41 159.918 120.609 160.447 120.388C160.935 120.189 161.098 119.765 161.173 119.402C161.19 119.317 161.204 119.228 161.216 119.14C161.232 119.173 161.247 119.207 161.263 119.241L161.273 119.263L161.286 119.284C161.745 120.024 162.525 120.769 163.162 121.259L163.163 121.26C163.259 121.333 163.34 121.418 163.444 121.527C163.488 121.573 163.537 121.625 163.593 121.681C163.733 121.822 163.911 121.987 164.138 122.099L164.163 122.136H164.22C164.234 122.142 164.249 122.148 164.264 122.154L164.788 122.349V121.361H164.546C164.515 121.333 164.486 121.31 164.46 121.29C164.426 121.264 164.402 121.247 164.383 121.233C164.36 121.216 164.344 121.204 164.324 121.187C164.086 120.945 163.835 120.66 163.663 120.411L163.66 120.406L163.656 120.401C163.096 119.64 162.599 118.793 162.154 117.913C161.957 117.524 161.782 117.099 161.613 116.688C161.601 116.659 161.589 116.629 161.577 116.599L161.572 116.587L161.566 116.576C161.561 116.565 161.553 116.545 161.541 116.503C161.536 116.484 161.531 116.465 161.525 116.442L161.523 116.437C161.517 116.413 161.509 116.384 161.501 116.355L161.501 116.354C161.475 116.266 161.409 116.04 161.201 115.913L160.883 115.719L160.676 116.028C160.615 116.12 160.549 116.2 160.471 116.295C160.432 116.343 160.39 116.394 160.344 116.452C160.218 116.612 160.079 116.806 159.982 117.044C159.833 117.39 159.756 117.762 159.703 118.13C159.683 118.266 159.666 118.412 159.649 118.559C159.618 118.492 159.588 118.419 159.555 118.339C159.539 118.3 159.522 118.26 159.505 118.218C159.131 117.315 159.063 115.818 159.393 114.755C159.408 114.708 159.433 114.643 159.466 114.556C159.477 114.525 159.49 114.491 159.504 114.455C159.554 114.321 159.612 114.161 159.663 114C159.713 113.84 159.759 113.665 159.78 113.502C159.797 113.373 159.811 113.17 159.725 112.99C159.65 112.782 159.513 112.633 159.413 112.532C159.37 112.49 159.335 112.456 159.306 112.428C159.248 112.372 159.21 112.336 159.177 112.291C159.009 112.041 158.833 111.731 158.723 111.469C158.577 111.122 158.465 110.757 158.345 110.368C158.337 110.342 158.329 110.315 158.321 110.289C158.194 109.878 158.058 109.444 157.868 109.027C157.716 108.692 157.47 108.346 157.268 108.061C157.225 108.001 157.185 107.944 157.148 107.891M170.207 117.546C170.207 117.546 170.208 117.546 170.208 117.547L170.207 117.546Z" fill="#808080"/>
<path d="M173.918 121.078C172.821 121.05 171.971 121.162 171.257 121.469C171.052 121.553 170.722 121.553 170.695 121.818C170.805 121.93 170.819 122.112 170.915 122.265C171.079 122.545 171.367 122.922 171.628 123.118C171.916 123.341 172.204 123.565 172.505 123.76C173.04 124.096 173.644 124.291 174.165 124.627C174.467 124.822 174.768 125.074 175.07 125.283C175.221 125.395 175.317 125.577 175.509 125.646V125.605C175.413 125.479 175.386 125.297 175.29 125.157C175.153 125.018 175.015 124.892 174.878 124.752C174.48 124.207 173.987 123.732 173.452 123.341C173.013 123.034 172.053 122.615 171.875 122.098C171.875 122.098 171.861 122.084 171.847 122.07C172.149 122.042 172.505 121.93 172.794 121.846C173.26 121.72 173.685 121.748 174.165 121.623C174.384 121.567 174.604 121.497 174.823 121.427V121.301C174.577 121.05 174.398 120.714 174.138 120.477C173.438 119.862 172.67 119.261 171.875 118.758C171.449 118.479 170.901 118.297 170.448 118.06C170.284 117.976 170.009 117.934 169.913 117.794C169.666 117.487 169.529 117.082 169.351 116.718C168.953 115.95 168.569 115.098 168.226 114.287C167.98 113.742 167.829 113.197 167.527 112.695C166.114 110.319 164.578 108.88 162.219 107.469C161.712 107.176 161.108 107.05 160.464 106.896C160.121 106.882 159.778 106.854 159.435 106.84C159.216 106.742 158.996 106.477 158.804 106.351C158.022 105.848 156.006 104.759 155.43 106.198C155.06 107.106 155.979 108 156.294 108.461C156.527 108.782 156.829 109.146 156.994 109.509C157.09 109.746 157.117 109.998 157.213 110.249C157.433 110.864 157.638 111.549 157.926 112.122C158.077 112.415 158.242 112.722 158.434 112.988C158.544 113.142 158.735 113.211 158.777 113.463C158.585 113.742 158.571 114.162 158.461 114.511C157.967 116.09 158.16 118.046 158.859 119.205C159.078 119.555 159.6 120.323 160.299 120.03C160.916 119.778 160.779 118.982 160.957 118.283C160.999 118.115 160.971 118.004 161.053 117.892V117.92C161.245 118.311 161.437 118.689 161.616 119.08C162.041 119.764 162.781 120.477 163.399 120.952C163.728 121.203 163.988 121.637 164.4 121.79V121.748H164.372C164.29 121.622 164.167 121.567 164.057 121.469C163.81 121.217 163.536 120.91 163.344 120.631C162.768 119.848 162.26 118.982 161.808 118.088C161.588 117.655 161.396 117.179 161.218 116.746C161.136 116.579 161.136 116.327 160.998 116.243C160.793 116.551 160.491 116.816 160.34 117.193C160.08 117.794 160.052 118.535 159.956 119.303C159.901 119.317 159.929 119.303 159.901 119.331C159.462 119.219 159.312 118.758 159.147 118.367C158.735 117.375 158.667 115.782 159.024 114.637C159.12 114.343 159.531 113.421 159.366 113.142C159.284 112.876 159.01 112.722 158.859 112.513C158.681 112.247 158.489 111.912 158.365 111.619C158.036 110.836 157.871 109.97 157.515 109.188C157.35 108.824 157.062 108.447 156.829 108.112C156.569 107.735 156.281 107.469 156.075 107.022C156.006 106.868 155.91 106.617 156.02 106.449C156.047 106.337 156.102 106.295 156.212 106.267C156.39 106.114 156.898 106.309 157.076 106.393C157.583 106.603 158.009 106.798 158.434 107.092C158.626 107.231 158.831 107.497 159.078 107.567H159.366C159.805 107.665 160.299 107.595 160.71 107.72C161.437 107.958 162.096 108.307 162.685 108.685C164.482 109.844 165.963 111.493 166.965 113.463C167.129 113.784 167.198 114.078 167.349 114.413C167.637 115.098 167.993 115.796 168.281 116.467C168.569 117.124 168.843 117.794 169.255 118.339C169.461 118.632 170.284 118.786 170.654 118.94C170.928 119.066 171.353 119.178 171.6 119.331C172.067 119.624 172.533 119.96 172.972 120.281C173.191 120.449 173.877 120.798 173.918 121.078Z" fill="#808080"/>
<rect x="184.265" y="274.785" width="163.978" height="33.6774" rx="3" stroke="white" stroke-width="2"/>
<path d="M240.578 302.403L232.128 305.585H345.027L345.365 299.22H338.942L332.182 298.16L325.083 299.22L319.675 294.624L312.239 296.392L303.45 292.856L250.719 302.403L246.324 296.392L240.578 302.403Z" fill="white"/>
<path opacity="0.9" fill-rule="evenodd" clip-rule="evenodd" d="M200.234 289.532H201.902V291.238H202.746C203.136 291.238 203.537 291.169 203.906 291.044C204.087 290.982 204.29 290.897 204.469 290.789C204.234 290.482 204.113 290.093 204.078 289.71C204.03 289.19 204.135 288.512 204.487 288.105L204.663 287.902L204.872 288.07C205.398 288.493 205.841 289.083 205.919 289.757C206.552 289.571 207.296 289.615 207.855 289.937L208.084 290.069L207.964 290.305C207.491 291.227 206.504 291.512 205.538 291.462C204.093 295.06 200.948 296.764 197.134 296.764C195.163 296.764 193.356 296.027 192.326 294.279L192.309 294.251L192.159 293.945C191.811 293.176 191.696 292.333 191.774 291.491L191.798 291.238H193.225V289.532H194.893V287.864H198.231V286.195H200.234V289.532Z" fill="#808080"/>
<path fill-rule="evenodd" clip-rule="evenodd" d="M192.071 292.631C192.138 293.122 192.281 293.582 192.494 294.001L192.616 294.223C192.693 294.354 192.777 294.48 192.868 294.602C193.308 294.63 193.714 294.64 194.084 294.632C194.813 294.615 195.408 294.529 195.859 294.373C195.926 294.35 195.999 294.386 196.022 294.453C196.045 294.52 196.01 294.593 195.943 294.616C195.883 294.637 195.82 294.656 195.756 294.675C195.756 294.675 195.756 294.675 195.756 294.675C195.401 294.776 194.99 294.849 194.499 294.879C194.482 294.88 194.452 294.88 194.435 294.881C194.242 294.892 194.036 294.899 193.823 294.899C193.589 294.899 193.351 294.894 193.094 294.881C193.985 295.883 195.387 296.486 197.134 296.486C200.298 296.486 203.051 295.285 204.649 292.631H192.071Z" fill="#808080"/>
<path fill-rule="evenodd" clip-rule="evenodd" d="M196.527 293.602C196.748 293.602 196.926 293.781 196.926 294.001C196.926 294.221 196.748 294.4 196.527 294.4C196.307 294.4 196.128 294.221 196.128 294.001C196.128 293.781 196.307 293.602 196.527 293.602Z" fill="#E9E9E9"/>
<path fill-rule="evenodd" clip-rule="evenodd" d="M189.47 292.775H208.031C207.627 292.672 206.752 292.534 206.896 292.004C206.161 292.855 204.389 292.601 203.942 292.181C203.444 292.904 200.544 292.629 200.342 292.066C199.718 292.799 197.783 292.799 197.158 292.066C196.956 292.629 194.057 292.904 193.559 292.181C193.111 292.601 191.339 292.855 190.604 292.004C190.749 292.534 189.874 292.672 189.47 292.775Z" fill="#1A1A1A"/>
<rect x="184.265" y="156.895" width="163.978" height="33.6774" rx="3" fill="#1A1A1A" stroke="white" stroke-width="2"/>
<g clip-path="url(#clip0)">
<path d="M199.639 173.053L200.31 173.72L199.639 174.387H194.916V176.61L192.036 173.72L194.916 170.879V173.053H199.639ZM201.716 167.376H207.455V173.116H201.716V167.376Z" fill="#999999"/>
<path d="M201.778 172.269L201.111 172.94L200.444 172.269V167.546H198.221L201.111 164.665L203.952 167.546H201.778V172.269ZM201.716 174.345H207.455V180.085H201.716V174.345Z" fill="#909090"/>
<path d="M202.562 174.408L201.891 173.741L202.562 173.074H207.285V170.851L210.166 173.741L207.285 176.582V174.408H202.562ZM194.747 174.345H200.486V180.085H194.747V174.345Z" fill="#808080"/>
<path d="M200.423 175.192L201.09 174.521L201.758 175.192V179.915H203.981L201.09 182.796L198.249 179.915H200.423V175.192ZM194.747 167.376H200.486V173.116H194.747V167.376Z" fill="#8B8B8B"/>
<path d="M194.542 167.172H200.691V173.321H194.542V167.172ZM194.952 172.911H200.281V167.582H194.952V172.911ZM201.511 167.172H207.66V173.321H201.511V167.172ZM201.921 172.911H207.25V167.582H201.921V172.911ZM201.511 174.141H207.66V180.29H201.511V174.141ZM201.921 179.88H207.25V174.55H201.921V179.88ZM194.542 174.141H200.691V180.29H194.542V174.141ZM194.952 179.88H200.281V174.55H194.952V179.88Z" fill="#020202"/>
<path d="M196.173 178.079L191.825 173.73L196.173 169.382L200.521 173.73L196.173 178.079ZM192.405 173.73L196.173 177.499L199.941 173.73L196.173 169.962L192.405 173.73ZM201.101 173.151L196.753 168.803L201.101 164.455L205.449 168.803L201.101 173.151ZM197.332 168.803L201.101 172.571L204.869 168.803L201.101 165.034L197.332 168.803ZM206.028 178.079L201.68 173.73L206.028 169.382L210.377 173.73L206.028 178.079ZM202.26 173.73L206.028 177.499L209.797 173.73L206.028 169.962L202.26 173.73ZM201.101 183.006L196.753 178.658L201.101 174.31L205.449 178.658L201.101 183.006ZM197.332 178.658L201.101 182.426L204.869 178.658L201.101 174.89L197.332 178.658Z" fill="black"/>
</g>
<path d="M240.578 184.512L232.128 187.694H346.14V181.33H338.942L332.182 180.269L325.083 181.33L319.675 176.733L312.239 178.501L305.809 176.733L299.217 179.163L296.89 176.733L293.309 173.905L291.461 182.653L287.563 174.966L282.929 173.905L277.422 177.441L270.132 180.269L264.578 176.733L257.722 180.269L250.719 184.512L246.324 178.501L240.578 184.512Z" fill="white"/>
<circle cx="64" cy="79" r="11" fill="white"/>
<path d="M303 49V57H292" stroke="white" stroke-width="2"/>
<path d="M344 18V26H332" stroke="white"/>
<circle cx="366" cy="11" r="11" fill="white"/>
<circle r="4.5" transform="matrix(1 0 0 -1 147.5 63.5)" fill="white"/>
<ellipse rx="5" ry="4.5" transform="matrix(1 0 0 -1 336 50.5)" fill="white"/>
<circle r="4.5" transform="matrix(1 0 0 -1 119.5 89.5)" fill="white"/>
<rect x="-2" y="2" width="163.529" height="319.424" transform="matrix(-1 0 0 1 549.529 43.4094)" stroke="#E1E1E1" stroke-width="4"/>
<mask id="path-58-inside-2" fill="white">
<path fill-rule="evenodd" clip-rule="evenodd" d="M553.529 43.4095L418.575 31V379.243L553.529 366.833V43.4095ZM432.536 218.694C432.536 222.121 435.314 224.899 438.741 224.899C442.167 224.899 444.945 222.121 444.945 218.694C444.945 215.267 442.167 212.489 438.741 212.489C435.314 212.489 432.536 215.267 432.536 218.694ZM485.292 78.0424L491.355 78.6986C497.731 79.3887 503.479 74.7628 504.17 68.3867C504.911 61.5397 499.943 55.3665 493.096 54.6254L475.462 52.7168L485.292 78.0424Z"/>
</mask>
<path fill-rule="evenodd" clip-rule="evenodd" d="M553.529 43.4095L418.575 31V379.243L553.529 366.833V43.4095ZM432.536 218.694C432.536 222.121 435.314 224.899 438.741 224.899C442.167 224.899 444.945 222.121 444.945 218.694C444.945 215.267 442.167 212.489 438.741 212.489C435.314 212.489 432.536 215.267 432.536 218.694ZM485.292 78.0424L491.355 78.6986C497.731 79.3887 503.479 74.7628 504.17 68.3867C504.911 61.5397 499.943 55.3665 493.096 54.6254L475.462 52.7168L485.292 78.0424Z" fill="white"/>
<path d="M418.575 31H416.575V28.8077L418.758 29.0084L418.575 31ZM553.529 43.4095L553.712 41.4179L555.529 41.585V43.4095H553.529ZM418.575 379.243L418.758 381.234L416.575 381.435V379.243H418.575ZM553.529 366.833H555.529V368.658L553.712 368.825L553.529 366.833ZM491.355 78.6986L491.14 80.687L491.355 78.6986ZM485.292 78.0424L485.077 80.0308L483.868 79.9L483.428 78.7661L485.292 78.0424ZM504.17 68.3867L502.181 68.1715L504.17 68.3867ZM493.096 54.6254L493.312 52.637L493.096 54.6254ZM475.462 52.7168L473.598 53.4405L472.408 50.3745L475.678 50.7284L475.462 52.7168ZM418.758 29.0084L553.712 41.4179L553.346 45.4011L418.392 32.9916L418.758 29.0084ZM416.575 379.243V31H420.575V379.243H416.575ZM553.712 368.825L418.758 381.234L418.392 377.251L553.346 364.841L553.712 368.825ZM555.529 43.4095V366.833H551.529V43.4095H555.529ZM438.741 226.899C434.209 226.899 430.536 223.226 430.536 218.694H434.536C434.536 221.016 436.418 222.899 438.741 222.899V226.899ZM446.945 218.694C446.945 223.226 443.272 226.899 438.741 226.899V222.899C441.063 222.899 442.945 221.016 442.945 218.694H446.945ZM438.741 210.489C443.272 210.489 446.945 214.163 446.945 218.694H442.945C442.945 216.372 441.063 214.489 438.741 214.489V210.489ZM430.536 218.694C430.536 214.163 434.209 210.489 438.741 210.489V214.489C436.418 214.489 434.536 216.372 434.536 218.694H430.536ZM491.14 80.687L485.077 80.0308L485.507 76.0541L491.57 76.7103L491.14 80.687ZM506.158 68.6019C505.349 76.0762 498.614 81.496 491.14 80.687L491.57 76.7103C496.848 77.2815 501.61 73.4495 502.181 68.1715L506.158 68.6019ZM493.312 52.637C501.257 53.497 507.018 60.6568 506.158 68.6019L502.181 68.1715C502.803 62.4227 498.63 57.236 492.881 56.6138L493.312 52.637ZM475.678 50.7284L493.312 52.637L492.881 56.6138L475.247 54.7052L475.678 50.7284ZM483.428 78.7661L473.598 53.4405L477.327 51.9931L487.157 77.3188L483.428 78.7661Z" fill="white" mask="url(#path-58-inside-2)"/>
<path d="M418.575 31.1938L413.921 33.3267V376.528L418.575 379.243V31.1938Z" fill="#E1E1E1"/>
<defs>
<clipPath id="clip0">
<rect width="18.6143" height="18.6143" fill="white" transform="translate(191.797 164.426)"/>
</clipPath>
</defs>
</svg>
