<svg width="18" height="18" viewBox="0 0 18 18" xmlns="http://www.w3.org/2000/svg">
    <path
        d="M14.3873 7.08005C14.3732 5.68079 13.8033 4.41013 12.8868 3.49027C11.9708 2.57038 10.7057 2 9.30516 2C6.50961 2.00041 4.23022 4.26786 4.22294 7.04842V7.04669C4.21868 7.41456 4.13793 7.78113 4.01018 8.13234C3.97813 8.22165 4.02429 8.3199 4.11316 8.35195C4.20203 8.38443 4.3003 8.33827 4.33276 8.24897C4.46992 7.87 4.56048 7.46624 4.56562 7.05052V7.04924C4.57161 4.46006 6.69848 2.34216 9.30516 2.3426C10.6117 2.3426 11.7884 2.87324 12.6441 3.73204C13.4995 4.59126 14.0314 5.77559 14.0447 7.08385C14.0451 7.12443 14.0451 7.1646 14.0451 7.20521C14.0451 8.80742 13.7166 10.246 13.1906 11.5811C12.6651 12.9159 11.94 14.1472 11.1475 15.3282C11.0945 15.4068 11.1154 15.5132 11.1945 15.5658C11.2731 15.6183 11.3795 15.5974 11.432 15.5188C12.2318 14.3267 12.9706 13.0749 13.5098 11.7068C14.0489 10.3391 14.3878 8.85484 14.3878 7.20521C14.3878 7.16378 14.3878 7.12192 14.3873 7.08005Z" />
    <path
        d="M13.2457 7.17964C13.2457 7.14675 13.2452 7.11341 13.2448 7.08008C13.2328 5.99528 12.7915 5.01003 12.0814 4.29695C11.3717 3.58427 10.3907 3.14165 9.30509 3.14209C8.2344 3.14209 7.24957 3.57192 6.53262 4.26706C5.81568 4.96177 5.36366 5.92481 5.36366 6.98782C5.36366 7.01388 5.36409 7.03953 5.36494 7.06515V7.06471C5.36538 7.09291 5.36538 7.12069 5.36538 7.14888C5.36538 7.80856 5.20216 8.43833 4.95308 9.01428C4.70441 9.5898 4.37073 10.1106 4.03532 10.549C3.97765 10.6242 3.99217 10.7319 4.06737 10.7891C4.14257 10.8468 4.25025 10.8327 4.30748 10.757C4.65568 10.302 5.00432 9.75898 5.26751 9.15013C5.5307 8.54128 5.708 7.86538 5.708 7.14885C5.708 7.11853 5.708 7.08818 5.70757 7.05826V7.05782C5.70672 7.03433 5.70628 7.01082 5.70628 6.98774C5.70628 6.02301 6.1156 5.14883 6.77142 4.51308C7.42684 3.87776 8.32707 3.48425 9.30504 3.48469C10.2971 3.48469 11.1892 3.88717 11.8391 4.53917C12.4877 5.19073 12.8914 6.09011 12.9021 7.08391C12.9025 7.11596 12.9029 7.14757 12.9029 7.17961C12.9029 8.84592 12.4274 10.4823 11.7519 11.9525C11.076 13.4227 10.2006 14.7254 9.40927 15.7226C9.35073 15.7965 9.36271 15.9042 9.43706 15.9631C9.5114 16.0217 9.61865 16.0093 9.6776 15.9353C10.4826 14.921 11.3721 13.5978 12.063 12.096C12.7535 10.5939 13.2452 8.9113 13.2457 7.17964Z" />
    <path
        d="M12.1071 7.33285C12.1071 7.24697 12.1058 7.16151 12.1028 7.07606C12.0763 6.30958 11.764 5.61186 11.2645 5.10555C10.7655 4.59924 10.0759 4.2835 9.30513 4.28394C8.53865 4.28394 7.8388 4.59413 7.33164 5.09445C6.82405 5.59521 6.50661 6.28907 6.50661 7.05471L6.50705 7.0765C6.50705 7.09146 6.50705 7.10557 6.50705 7.11837C6.50705 8.17241 6.1977 9.1474 5.76148 9.9972C5.3261 10.8466 4.76385 11.5695 4.26779 12.1138C4.2037 12.1835 4.2084 12.292 4.27848 12.3556C4.34857 12.4193 4.45707 12.4146 4.52073 12.3445C5.03174 11.7836 5.61193 11.0393 6.06653 10.1536C6.52069 9.26831 6.84926 8.24033 6.8497 7.11837C6.8497 7.10341 6.84926 7.08889 6.84926 7.07478V7.07349V7.05468C6.84926 6.38474 7.12612 5.7789 7.57219 5.33882C8.01826 4.89834 8.63222 4.62659 9.30513 4.62659C9.98191 4.62659 10.5805 4.90088 11.0206 5.3461C11.4598 5.79129 11.7366 6.40741 11.7606 7.0876C11.7631 7.1692 11.7648 7.25123 11.7648 7.33285C11.7653 8.92011 11.2329 10.5108 10.4946 11.9429C9.75675 13.3747 8.81507 14.647 8.00926 15.5981C7.94817 15.6703 7.9567 15.7784 8.02933 15.8395C8.10155 15.901 8.20964 15.8916 8.27116 15.8194C9.08851 14.8538 10.0447 13.5635 10.7988 12.0997C11.5529 10.636 12.1066 8.997 12.1071 7.33285Z" />
    <path
        d="M9.47595 7.16647C9.48022 7.07162 9.40674 6.99172 9.31273 6.98745C9.21787 6.98359 9.13797 7.05666 9.13371 7.15108C9.06961 8.59051 8.57701 9.98849 7.91475 11.2305C7.2525 12.4726 6.42151 13.5582 5.69174 14.373C5.6285 14.4435 5.63448 14.5516 5.70498 14.6148C5.77547 14.6781 5.884 14.6721 5.94681 14.6011C6.6911 13.7701 7.53748 12.6653 8.21683 11.3916C8.89529 10.1184 9.40844 8.67427 9.47595 7.16647Z" />
    <path
        d="M10.9641 7.26854C10.9641 7.20658 10.9629 7.14464 10.9607 7.08225H10.9612C10.9612 7.0814 10.9607 7.08011 10.9607 7.07883C10.9607 7.07883 10.9607 7.07754 10.9607 7.07669C10.9573 6.16408 10.2177 5.42622 9.3051 5.42578C8.39035 5.42622 7.64905 6.1675 7.64905 7.08225V7.08052C7.63795 8.33965 7.24274 9.53169 6.68773 10.587C6.13273 11.6419 5.41964 12.5575 4.78216 13.2608C4.71892 13.3309 4.72362 13.4394 4.79414 13.503C4.86422 13.5663 4.97273 13.5611 5.03597 13.4906C5.68712 12.7724 6.41771 11.8359 6.99065 10.7464C7.5636 9.65729 7.97975 8.41353 7.9917 7.0835V7.08222C7.9917 6.71862 8.13824 6.39177 8.37624 6.15336C8.61422 5.91538 8.94194 5.76841 9.3051 5.76841C9.66785 5.76841 9.99555 5.91538 10.2335 6.15336C10.4715 6.39177 10.6181 6.71862 10.6185 7.08222V7.0852V7.08777C10.6202 7.1476 10.6215 7.20825 10.6215 7.26849C10.6223 8.71987 10.0528 10.2332 9.27861 11.6077C8.50528 12.9826 7.52986 14.2174 6.73559 15.1185C6.67321 15.1894 6.68005 15.2979 6.75139 15.3603C6.82232 15.4227 6.93041 15.4158 6.99279 15.3449C7.79775 14.4314 8.78597 13.1808 9.57726 11.776C10.3673 10.3708 10.9633 8.81008 10.9641 7.26854Z" />
</svg>