<svg width="10" height="10" viewBox="0 0 10 10" xmlns="http://www.w3.org/2000/svg">
  <path d="M5 0C2.24 0 0 2.24 0 5C0 7.76 2.24 10 5 10C7.76 10 10 7.76 10 5C10 2.24 7.76 0 5 0ZM7 6C7 6.83 6.33 7.5 5.5 7.5H3.5C3.22 7.5 3 7.28 3 7C3 6.72 3.22 6.5 3.5 6.5H5.5C5.78 6.5 6 6.28 6 6C6 5.72 5.78 5.5 5.5 5.5H4.5C4.22 5.5 4 5.28 4 5C4 4.72 4.22 4.5 4.5 4.5H5.5C5.78 4.5 6 4.28 6 4C6 3.72 5.78 3.5 5.5 3.5H3.5C3.22 3.5 3 3.28 3 3C3 2.72 3.22 2.5 3.5 2.5H5.5C6.33 2.5 7 3.17 7 4C7 4.39 6.85 4.73 6.61 5C6.85 5.27 7 5.61 7 6Z" />
</svg>
