<svg width="10" height="10" viewBox="0 0 10 10" xmlns="http://www.w3.org/2000/svg">
  <path d="M5 0C2.24 0 0 2.24 0 5C0 7.76 2.24 10 5 10C7.76 10 10 7.76 10 5C10 2.24 7.76 0 5 0ZM6.5 6.5C6.78 6.5 7 6.72 7 7C7 7.28 6.78 7.5 6.5 7.5H3.5C3.22 7.5 3 7.28 3 7V6.01C3 5.18 3.67 4.51 4.49 4.5C4.49 4.5 4.49 4.5 4.5 4.5H5.5C5.78 4.5 6 4.28 6 4C6 3.72 5.78 3.5 5.5 3.5H3.5C3.22 3.5 3 3.28 3 3C3 2.72 3.22 2.5 3.5 2.5H5.5C6.33 2.5 7 3.17 7 4C7 4.83 6.33 5.5 5.5 5.5H4.51C4.23 5.5 4 5.73 4 6.01V6.5H6.5Z" />
</svg>
