<svg width="18" height="18" viewBox="0 0 18 18" xmlns="http://www.w3.org/2000/svg">
  <path d="M13.747 3.518C13.747 3.512 13.75 3.507 13.75 3.5V2.5C13.75 2.086 13.414 1.75 13 1.75C12.586 1.75 12.25 2.086 12.25 2.5V3.5H9.75V2.5C9.75 2.086 9.414 1.75 9 1.75C8.586 1.75 8.25 2.086 8.25 2.5V3.5H5.75V2.5C5.75 2.086 5.414 1.75 5 1.75C4.586 1.75 4.25 2.086 4.25 2.5V3.5C4.25 3.506 4.253 3.511 4.253 3.518C2.721 3.61 1.5 4.873 1.5 6.428V13.072C1.5 14.686 2.813 16 4.428 16H13.572C15.187 16 16.5 14.686 16.5 13.072V6.428C16.5 4.873 15.279 3.61 13.747 3.518ZM15 13.072C15 13.861 14.361 14.5 13.572 14.5H4.428C3.639 14.5 3 13.861 3 13.072V8.75H11.5C12.328 8.75 13 8.078 13 7.25H3V6.428C3 5.639 3.639 5 4.428 5H13.572C14.361 5 15 5.639 15 6.428V13.072Z" />
</svg>
