<svg width="17" height="17" viewBox="0 0 17 17" xmlns="http://www.w3.org/2000/svg">
<path d="M15.5 10.56V4.38L12 0.880005L6 6.88L4 4.88L0.5 8.38V11.44C0.5 13.68 2.32 15.5 4.56 15.5H9.26C8.96 15.04 8.73 14.54 8.61 14H4.56C3.15 14 2 12.85 2 11.44V9L4 7L6 9L12 3L14 5V9.66C13.68 9.56 13.35 9.5 13 9.5C11.07 9.5 9.5 11.07 9.5 13C9.5 14.93 11.07 16.5 13 16.5C14.93 16.5 16.5 14.93 16.5 13C16.5 12.05 16.12 11.19 15.5 10.56ZM15 13.75H13.75V15H12.25V13.75H11V12.25H12.25V11H13.75V12.25H15V13.75Z" />
</svg>
