<svg viewBox="0 0 24 24"
    xmlns="http://www.w3.org/2000/svg">
    <path d="M15 19.5L18 19.5L18 22.5L19.5 22.5L19.5 19.5L22.5 19.5L22.5 18L19.5 18L19.5 15L18 15L18 18L15 18L15 19.5Z" />
    <path d="M9 19.5L12 19.5L12 18L9 18L9 19.5Z" />
    <path d="M6 19.5L6 18L3 18L3 15L1.5 15L1.5 18C1.5 18.3978 1.65804 18.7794 1.93934 19.0607C2.22064 19.342 2.60218 19.5 3 19.5L6 19.5Z" />
    <path d="M18 12L19.5 12L19.5 9L18 9L18 12Z" />
    <path d="M18 3L18 6L19.5 6L19.5 3C19.5 2.60218 19.342 2.22064 19.0607 1.93934C18.7794 1.65804 18.3978 1.5 18 1.5L15 1.5L15 3L18 3Z" />
    <path d="M1.5 12L3 12L3 9L1.5 9L1.5 12Z" />
    <path d="M9 3L12 3L12 1.5L9 1.5L9 3Z" />
    <path d="M3 6L3 3L6 3L6 1.5L3 1.5C2.60218 1.5 2.22065 1.65804 1.93934 1.93934C1.65804 2.22064 1.5 2.60217 1.5 3L1.5 6L3 6Z" />
</svg>
