<svg width="14" height="16" viewBox="0 0 14 16" xmlns="http://www.w3.org/2000/svg">
<path d="M6 2.25H8C8.41 2.25 8.75 1.91 8.75 1.5C8.75 1.09 8.41 0.75 8 0.75H6C5.59 0.75 5.25 1.09 5.25 1.5C5.25 1.91 5.59 2.25 6 2.25ZM12.09 5.47L12.78 4.78C13.07 4.49 13.07 4.01 12.78 3.72C12.49 3.43 12.01 3.43 11.72 3.72L11.03 4.41C10.09 3.66 8.94 3.17 7.68 3.04C7.55 2.73 7.24 2.5 6.88 2.5H6.24V3.05C5.01 3.19 3.88 3.68 2.96 4.41L2.27 3.72C1.98 3.43 1.5 3.43 1.21 3.72C0.92 4.01 0.92 4.49 1.21 4.78L1.9 5.47C1.03 6.58 0.5 7.98 0.5 9.5C0.5 13.08 3.42 16 7 16C10.58 16 13.5 13.08 13.5 9.5C13.5 7.98 12.97 6.58 12.09 5.47ZM7 14.5C4.24 14.5 2 12.26 2 9.5C2 8.39 2.38 7.37 2.99 6.53C3.28 6.13 3.63 5.78 4.03 5.49C4.87 4.88 5.89 4.5 7 4.5C8.11 4.5 9.13 4.88 9.97 5.49C10.37 5.78 10.72 6.13 11.01 6.53C11.63 7.36 12 8.38 12 9.5C12 12.26 9.76 14.5 7 14.5ZM7 6V9.5L9.77 11.64C10.24 11.03 10.5 10.27 10.5 9.5C10.5 7.58 8.92 6 7 6Z" />
</svg>
