<svg width="20" height="20" viewBox="0 0 20 20" xmlns="http://www.w3.org/2000/svg">
  <path d="M15 12.5898L9 6.58984L6 9.58984L4.5 8.08984L0 12.5898V15.1698C0 17.8398 2.17 19.9998 4.83 19.9998H15.16C17.83 19.9998 19.99 17.8298 19.99 15.1698V7.58984L15 12.5898ZM18 15.1698C18 16.7298 16.73 17.9998 15.17 17.9998H4.83C3.27 17.9998 2 16.7298 2 15.1698V13.4198L4.5 10.9198L6 12.4198L9 9.41984L15 15.4198L18 12.4198V15.1698ZM2 6.40984L4 4.40984L6 6.40984L9.5 2.90984L15 8.40984L17 6.40984L17.67 7.07984L19.08 5.66984L17 3.58984L15 5.58984L9.5 0.0898438L6 3.58984L4 1.58984L0 5.58984V9.75984L2 7.75984V6.40984Z" />
</svg>
