<svg width="16" height="15" viewBox="0 0 16 15"  xmlns="http://www.w3.org/2000/svg">
<path d="M10.2501 6.38C11.2801 6.38 12.1301 5.53 12.1301 4.5C12.1301 4.16 12.0401 3.83 11.8701 3.54L10.2501 4.5L10.8401 2.72C10.6501 2.66 10.4501 2.62 10.2501 2.62C9.22006 2.62 8.37006 3.47 8.37006 4.5C8.37006 5.53 9.22006 6.38 10.2501 6.38ZM10.8401 9.33L13.2501 10.83V12.62C13.2501 13.1 12.8601 13.5 12.3701 13.5H3.13006C2.65006 13.5 2.25006 13.11 2.25006 12.62V7.14L3.92006 8.25L4.94006 8.93L6.44006 7.43C7.43006 8.39 8.76006 9 10.2501 9C12.9501 9 15.1801 7.06 15.6501 4.5C15.1801 1.94 12.9401 0 10.2501 0C7.56006 0 5.32006 1.94 4.85006 4.5C4.97006 5.13 5.19006 5.72 5.50006 6.25L4.75006 7L1.75006 5H0.750061V12.62C0.750061 13.93 1.81006 15 3.13006 15H12.3701C13.6801 15 14.7501 13.94 14.7501 12.62V10L13.5801 9.27C12.7101 9.51 11.7701 9.54 10.8401 9.33ZM10.2501 1.5C12.0801 1.5 13.6701 2.75 14.1201 4.5C13.6701 6.25 12.0801 7.5 10.2501 7.5C8.42006 7.5 6.83006 6.25 6.38006 4.5C6.83006 2.75 8.42006 1.5 10.2501 1.5Z" />
</svg>
