<svg width="14" height="14" viewBox="0 0 14 14" xmlns="http://www.w3.org/2000/svg">
<path d="M7.5411 8.127C7.1681 8.306 7.0111 8.754 7.1901 9.128C7.3191 9.396 7.5871 9.553 7.8671 9.553C7.9751 9.553 8.0871 9.529 8.1911 9.478C9.1381 9.022 9.7501 8.05 9.7501 6.999C9.7501 5.482 8.5171 4.249 7.0001 4.249C6.5861 4.249 6.2501 4.585 6.2501 4.999C6.2501 5.413 6.5861 5.749 7.0001 5.749C7.6891 5.749 8.2501 6.31 8.2501 6.999C8.2501 7.478 7.9721 7.92 7.5411 8.127ZM7.0001 0C6.5861 0 6.2501 0.336 6.2501 0.75C6.2501 1.164 6.5861 1.5 7.0001 1.5C10.0321 1.5 12.5001 3.967 12.5001 7C12.5001 10.033 10.0321 12.5 7.0001 12.5C4.3981 12.5 2.1331 10.653 1.6111 8.109C1.5291 7.703 1.1321 7.443 0.726098 7.524C0.320098 7.607 0.0590977 8.003 0.142098 8.41C0.806098 11.649 3.6891 14 7.0001 14C10.8591 14 14.0001 10.86 14.0001 7C14.0001 3.14 10.8591 0 7.0001 0ZM7.0001 11.875C7.9791 11.875 8.9231 11.586 9.7311 11.038C11.0731 10.129 11.8751 8.619 11.8751 7C11.8751 4.312 9.6881 2.125 7.0001 2.125C6.5861 2.125 6.2501 2.461 6.2501 2.875C6.2501 3.289 6.5861 3.625 7.0001 3.625C8.8611 3.625 10.3751 5.139 10.3751 7C10.3751 8.121 9.8191 9.167 8.8901 9.797C8.3311 10.175 7.6781 10.375 7.0001 10.375C5.1391 10.375 3.6251 8.861 3.6251 7C3.6251 6.653 3.6771 6.312 3.7801 5.985C3.9041 5.59 3.6841 5.169 3.2891 5.045C2.8951 4.92 2.4741 5.141 2.3491 5.535C2.2001 6.008 2.1251 6.501 2.1251 7C2.1251 9.688 4.3121 11.875 7.0001 11.875Z" />
</svg>
