<svg width="24" height="24" viewBox="0 0 24 24" xmlns="http://www.w3.org/2000/svg">
    <path d="M19.46 13.9601C20.39 13.9601 21.25 14.2301 22 14.6801V5.59009L18.5 2.09009L9.5 11.0901L7 8.59009L2 13.5901V19.0601C2 20.6801 3.32 22.0001 4.94 22.0001H15.52C14.87 21.1501 14.46 20.1101 14.46 18.9601C14.46 16.2001 16.7 13.9601 19.46 13.9601ZM19.46 14.9601C17.25 14.9601 15.46 16.7501 15.46 18.9601C15.46 21.1701 17.25 22.9601 19.46 22.9601C21.67 22.9601 23.46 21.1701 23.46 18.9601C23.46 16.7501 21.67 14.9601 19.46 14.9601ZM20.46 19.9601V21.9601H18.46V19.9601H16.46V17.9601H18.46V15.9601H20.46V17.9601H22.46V19.9601H20.46Z" />
</svg>
