<svg width="16" height="16" viewBox="0 0 16 16" fill="none" xmlns="http://www.w3.org/2000/svg">
<path fill-rule="evenodd" clip-rule="evenodd" d="M12.9563 4.50327L6.95578 12.8366C6.90833 12.888 6.83068 13 6.73577 13C6.63655 13 6.57185 12.9253 6.51577 12.8646C6.45969 12.8039 3.11216 9.3212 3.11216 9.3212L3.04745 9.25117C3.02157 9.20915 3 9.1578 3 9.10177C3 9.04575 3.02157 8.9944 3.04745 8.95238C3.06471 8.93371 3.07765 8.9197 3.0949 8.89636C3.42707 8.51821 4.10003 7.75257 4.14316 7.70588C4.19924 7.64519 4.2467 7.56583 4.35023 7.56583C4.45807 7.56583 4.52709 7.66387 4.57886 7.71989C4.63063 7.77591 6.52008 9.74136 6.52008 9.74136L11.3214 3.06536C11.3645 3.02801 11.4163 3 11.4724 3C11.5284 3 11.5802 3.02334 11.6233 3.06069L12.9434 4.18581C12.9779 4.23249 12.9994 4.28852 12.9994 4.34921C13.0038 4.4099 12.9822 4.46125 12.9563 4.50327Z" fill="#23AE87"/>
<mask id="mask0" mask-type="alpha" maskUnits="userSpaceOnUse" x="3" y="3" width="10" height="10">
<path fill-rule="evenodd" clip-rule="evenodd" d="M12.9563 4.50327L6.95578 12.8366C6.90833 12.888 6.83068 13 6.73577 13C6.63655 13 6.57185 12.9253 6.51577 12.8646C6.45969 12.8039 3.11216 9.3212 3.11216 9.3212L3.04745 9.25117C3.02157 9.20915 3 9.1578 3 9.10177C3 9.04575 3.02157 8.9944 3.04745 8.95238C3.06471 8.93371 3.07765 8.9197 3.0949 8.89636C3.42707 8.51821 4.10003 7.75257 4.14316 7.70588C4.19924 7.64519 4.2467 7.56583 4.35023 7.56583C4.45807 7.56583 4.52709 7.66387 4.57886 7.71989C4.63063 7.77591 6.52008 9.74136 6.52008 9.74136L11.3214 3.06536C11.3645 3.02801 11.4163 3 11.4724 3C11.5284 3 11.5802 3.02334 11.6233 3.06069L12.9434 4.18581C12.9779 4.23249 12.9994 4.28852 12.9994 4.34921C13.0038 4.4099 12.9822 4.46125 12.9563 4.50327Z" fill="#23AE87"/>
</mask>
<g mask="url(#mask0)">
</g>
</svg>
