<svg width="16" height="16" viewBox="0 0 16 16" xmlns="http://www.w3.org/2000/svg">
<path d="M8.15101 11.2623L6.52434 8.00005L8.15101 4.73782C8.19545 4.64005 8.22212 4.54227 8.22212 4.44449C8.22212 4.1956 8.08879 3.96449 7.85768 3.84893C7.52879 3.68005 7.12879 3.81338 6.9599 4.15116L5.03101 8.00005L6.9599 11.8489C7.12879 12.1778 7.52879 12.3112 7.85768 12.1512C8.18657 11.9912 8.3199 11.5912 8.15101 11.2623ZM9.62657 4.15116L7.69768 8.00005L9.62657 11.8489C9.79546 12.1778 10.1955 12.3112 10.5243 12.1512C10.8532 11.9823 10.9866 11.5823 10.8266 11.2534L9.19101 8.00005L10.8177 4.73782C10.8621 4.64005 10.8888 4.54227 10.8888 4.44449C10.8888 4.1956 10.7555 3.96449 10.5243 3.84893C10.1866 3.68004 9.78657 3.81338 9.62657 4.15116Z"/>
</svg>
