<svg width="6" height="10" viewBox="0 0 6 10" xmlns="http://www.w3.org/2000/svg">
<path d="M2.2 4.20001L3 3.40001L3.8 4.20001C4 4.40001 4.2 4.50001 4.5 4.50001C4.8 4.50001 5 4.40001 5.2 4.20001C5.6 3.80001 5.6 3.20001 5.2 2.80001L3 0.600006L0.8 2.80001C0.4 3.20001 0.4 3.80001 0.8 4.20001C1.2 4.60001 1.8 4.60001 2.2 4.20001ZM3.8 5.80001L3 6.60001L2.2 5.80001C1.8 5.40001 1.2 5.40001 0.8 5.80001C0.4 6.20001 0.4 6.80001 0.8 7.20001L3 9.40001L5.2 7.20001C5.6 6.80001 5.6 6.20001 5.2 5.80001C4.8 5.40001 4.2 5.40001 3.8 5.80001Z" />
</svg>
