<svg width="8" height="6" viewBox="0 0 8 6" xmlns="http://www.w3.org/2000/svg">
<path d="M0.632185 1.57661L3.99996 3.26438L7.36774 1.57661C7.65552 1.42883 7.77219 1.07883 7.63219 0.791051C7.48441 0.503273 7.14219 0.386607 6.84663 0.526607L3.99996 1.95772L1.14552 0.534385C0.85774 0.386607 0.50774 0.511051 0.359962 0.798829C0.219962 1.08661 0.336629 1.43661 0.632185 1.57661ZM6.85441 2.86772L3.99996 4.29105L1.14552 2.86772C0.85774 2.71994 0.50774 2.84438 0.359962 3.13216C0.212185 3.41994 0.328851 3.76994 0.624407 3.91772L3.99996 5.59772L7.36774 3.90994C7.65552 3.76216 7.77219 3.41216 7.63219 3.12438C7.49219 2.83661 7.14219 2.71994 6.85441 2.86772Z"/>
</svg>
