<svg width="18" height="18" viewBox="0 0 18 18" xmlns="http://www.w3.org/2000/svg">
<path d="M10 8.99994L4.29001 14.7099C3.90001 15.0999 3.27001 15.0999 2.88001 14.7099C2.49001 14.3199 2.49001 13.6899 2.88001 13.2999L7.18 8.99994L2.89001 4.70994C2.50001 4.31994 2.50001 3.68994 2.89001 3.29994C3.28001 2.90994 3.91001 2.90994 4.30001 3.29994L10 8.99994Z" />
<path fill-rule="evenodd" clip-rule="evenodd" d="M14 15C13.4477 15 13 14.5523 13 14L13 4C13 3.44771 13.4477 3 14 3C14.5523 3 15 3.44772 15 4L15 14C15 14.5523 14.5523 15 14 15Z"/>
</svg>
