<svg width="18" height="18" viewBox="0 0 18 18" xmlns="http://www.w3.org/2000/svg">
<path d="M8 9.00006L13.71 3.29006C14.1 2.90006 14.73 2.90006 15.12 3.29006C15.51 3.68006 15.51 4.31006 15.12 4.70006L10.82 9.00006L15.11 13.2901C15.5 13.6801 15.5 14.3101 15.11 14.7001C14.72 15.0901 14.09 15.0901 13.7 14.7001L8 9.00006Z" />
<path fill-rule="evenodd" clip-rule="evenodd" d="M4 3C4.55228 3 5 3.44772 5 4L5 14C5 14.5523 4.55228 15 4 15C3.44771 15 3 14.5523 3 14L3 4C3 3.44772 3.44772 3 4 3Z" />
</svg>
