<svg width="22" height="21" viewBox="0 0 22 21" xmlns="http://www.w3.org/2000/svg">
<path d="M2.33648 20.9999H3.33648L3.33648 18.9999H2.33648L2.33648 20.9999ZM0.396484 20.9999H1.33648L1.33648 18.9999H0.396484L0.396484 20.9999ZM4.33648 20.9999H5.33648L5.33648 18.9999H4.33648L4.33648 20.9999ZM21.1035 5.29294L16.3965 0.585937L11.6895 5.29294C11.2985 5.68394 11.2985 6.31594 11.6895 6.70694C12.0805 7.09794 12.7125 7.09794 13.1035 6.70694L15.3965 4.41394L15.3965 14.0399C15.3965 14.1699 15.3865 14.2999 15.3765 14.4199C15.3665 14.5799 15.3465 14.7399 15.3165 14.8899C15.3065 14.9899 15.2865 15.0899 15.2565 15.1899C15.2565 15.2099 15.2465 15.2199 15.2465 15.2399C15.1765 15.5199 15.0865 15.7799 14.9765 16.0299C14.9165 16.1599 14.8565 16.2799 14.7965 16.3999C14.7365 16.5199 14.6565 16.6399 14.5865 16.7599C14.4265 16.9899 14.2565 17.2099 14.0665 17.4099C14.0265 17.4599 13.9865 17.4999 13.9365 17.5399C13.8265 17.6499 13.7065 17.7599 13.5865 17.8599C13.3265 18.0699 13.0465 18.2599 12.7565 18.4199C12.5165 18.5499 12.2565 18.6599 11.9965 18.7499C11.7365 18.8299 11.4665 18.8999 11.1865 18.9399C11.1065 18.9499 11.0265 18.9599 10.9365 18.9699C10.7665 18.9909 10.5765 18.9999 10.3365 18.9999H8.33648L8.33648 20.9999H10.4365C10.6665 20.9999 10.8965 20.9899 11.1165 20.9599C11.1465 20.9599 11.1765 20.9599 11.1965 20.9499C11.2565 20.9499 11.3165 20.9399 11.3665 20.9399C11.4065 20.9299 11.4465 20.9199 11.4865 20.9099C11.8765 20.8599 12.2565 20.7699 12.6265 20.6499C12.9965 20.5299 13.3565 20.3699 13.6965 20.1899C14.0365 20.0099 14.3665 19.7899 14.6765 19.5499C14.7065 19.5299 14.7365 19.5099 14.7665 19.4799C14.8465 19.4199 14.9265 19.3599 15.0065 19.2799C15.1965 19.1299 15.3765 18.9499 15.5365 18.7699C15.7965 18.4899 16.0365 18.1899 16.2565 17.8599C16.3565 17.6999 16.4565 17.5299 16.5565 17.3599C16.6065 17.2499 16.6665 17.1499 16.7065 17.0499C16.7465 16.9799 16.7765 16.8999 16.8065 16.8299C16.9665 16.4799 17.0965 16.1099 17.1865 15.7299C17.1965 15.6999 17.1965 15.6799 17.2065 15.6499C17.2365 15.5299 17.2565 15.4099 17.2765 15.2999C17.3165 15.1299 17.3365 14.9499 17.3565 14.7699V14.7399C17.3665 14.7099 17.3665 14.6699 17.3665 14.6299V14.5799C17.3865 14.3999 17.3965 14.2199 17.3965 14.0399L17.3965 4.41394L19.6895 6.70694C19.8845 6.90194 20.1405 6.99994 20.3965 6.99994C20.6525 6.99994 20.9085 6.90194 21.1035 6.70694C21.4945 6.31594 21.4945 5.68394 21.1035 5.29294ZM6.33648 20.9999H7.33648L7.33648 18.9999H6.33648L6.33648 20.9999ZM13.1565 0.999938L7.35648 0.999938C3.51648 0.999938 0.396484 4.11994 0.396484 7.95994L0.396484 16.9999H2.39648L2.39648 7.95994C2.39648 5.22994 4.62648 2.99994 7.35648 2.99994L11.1565 2.99994L13.1565 0.999938Z" />
</svg>
