<svg width="21" height="20" viewBox="0 0 21 20" xmlns="http://www.w3.org/2000/svg">
<path d="M7.73625 0.36C7.37625 0.46 7.01625 0.58 6.67625 0.72L7.42625 2.57C7.69625 2.46 7.97625 2.37 8.26625 2.29L7.73625 0.36ZM5.15625 3.95L3.84625 2.45C3.56625 2.69 3.30625 2.95 3.05625 3.22L4.51625 4.57C4.41625 4.68 4.31625 4.79 4.22625 4.91C4.55625 4.51 4.91625 4.15 5.31625 3.83C5.26625 3.86 5.20625 3.91 5.15625 3.95ZM1.23625 5.99C1.08625 6.32 0.95625 6.67 0.84625 7.03L2.75625 7.62C2.84625 7.34 2.95625 7.06 3.06625 6.79L1.23625 5.99ZM2.39625 10L2.39625 10.25L0.40625 10.32C0.41625 10.7 0.44625 11.06 0.50625 11.42L2.47625 11.14C2.42625 10.77 2.39625 10.39 2.39625 10ZM3.28625 13.66L1.50625 14.58C1.67625 14.91 1.86625 15.23 2.07625 15.54L3.73625 14.43C3.81625 14.55 3.89625 14.67 3.98625 14.78C3.72625 14.43 3.49625 14.05 3.28625 13.66ZM20.3762 9.37C20.3563 8.99 20.3062 8.63 20.2463 8.27C20.2362 8.23 20.2362 8.19 20.2262 8.15C20.2062 8.05 20.1862 7.96 20.1663 7.86C20.1462 7.74 20.1162 7.62 20.0763 7.5C20.0562 7.39 20.0262 7.29 19.9862 7.18C19.8862 6.82 19.7662 6.48 19.6162 6.14C19.6162 6.13 19.6163 6.12 19.6063 6.11C19.4963 5.83 19.3662 5.56 19.2262 5.3C19.1963 5.24 19.1662 5.19 19.1362 5.14C18.9562 4.82 18.7562 4.51 18.5362 4.21C18.5162 4.18 18.4963 4.14 18.4762 4.11C18.4562 4.08 18.4363 4.05 18.4062 4.02C18.3463 3.93 18.2763 3.84 18.2063 3.76C18.1163 3.65 18.0362 3.54 17.9362 3.44C17.9062 3.4 17.8762 3.37 17.8463 3.33C17.5963 3.06 17.3362 2.8 17.0662 2.55C17.0262 2.52 16.9963 2.49 16.9563 2.46C16.8563 2.36 16.7462 2.28 16.6362 2.19C16.4962 2.08 16.3462 1.96 16.1962 1.86C15.8962 1.64 15.5763 1.44 15.2563 1.26C15.2063 1.23 15.1562 1.2 15.0962 1.17C14.8263 1.03 14.5462 0.9 14.2662 0.78C13.9262 0.63 13.5762 0.509 13.2162 0.41C13.1062 0.37 13.0063 0.34 12.8963 0.32C12.6962 0.26 12.4963 0.22 12.2863 0.18C12.2362 0.17 12.1862 0.16 12.1362 0.16C11.7762 0.09 11.4063 0.0400001 11.0263 0.0200001C10.8263 0.0100001 10.6063 0 10.3963 0C10.2362 0 10.0763 3.7998e-08 9.92625 0.01C9.54625 0.031 9.17625 0.0699999 8.81625 0.13L9.13625 2.1C9.42625 2.05 9.71625 2.02 10.0162 2.01C10.1362 2 10.2663 2 10.3963 2C10.5662 2 10.7362 2.01 10.9062 2.02C11.2063 2.04 11.4963 2.07 11.7863 2.12C12.0862 2.17 12.3663 2.24 12.6463 2.32C12.9363 2.41 13.2162 2.51 13.4862 2.62C13.4962 2.62 13.4963 2.63 13.5063 2.63C13.7463 2.72 13.9763 2.84 14.2063 2.97C14.2362 2.98 14.2562 2.991 14.2862 3.01C14.5962 3.19 14.8962 3.38 15.1762 3.59C15.2762 3.67 15.3763 3.74 15.4762 3.83C15.7963 4.09 16.0863 4.36 16.3562 4.67C16.5163 4.85 16.6663 5.03 16.8062 5.22C17.0163 5.5 17.2062 5.8 17.3862 6.11C17.5362 6.37 17.6663 6.64 17.7763 6.91C17.8862 7.18 17.9862 7.46 18.0763 7.75C18.1162 7.89 18.1562 8.03 18.1862 8.18C18.2162 8.31 18.2463 8.44 18.2662 8.57C18.2762 8.58 18.2763 8.6 18.2763 8.61C18.3263 8.9 18.3563 9.19 18.3762 9.49C18.3862 9.66 18.3962 9.83 18.3962 10C18.3962 10.3 18.3762 10.6 18.3463 10.89C18.3162 11.19 18.2663 11.48 18.2063 11.76C18.1863 11.84 18.1663 11.92 18.1462 11.99C18.1162 12.12 18.0762 12.25 18.0362 12.37C17.8862 12.85 17.6862 13.32 17.4462 13.76C17.4462 13.77 17.4462 13.77 17.4362 13.781C17.4362 13.781 17.4363 13.791 17.4263 13.801C17.4062 13.831 17.3862 13.871 17.3662 13.911C17.1262 14.321 16.8562 14.721 16.5662 15.081C16.4963 15.181 16.4062 15.281 16.3162 15.371C16.0462 15.671 15.7562 15.951 15.4362 16.211C15.2062 16.401 14.9662 16.571 14.7162 16.731C14.4762 16.881 14.2162 17.031 13.9462 17.171C13.9162 17.181 13.8863 17.201 13.8562 17.211C13.7463 17.271 13.6263 17.321 13.5063 17.371C13.0463 17.561 12.5763 17.711 12.0862 17.821C11.8663 17.871 11.6363 17.911 11.4063 17.941C11.1163 17.971 10.8263 17.991 10.5263 18.001H10.3963C10.1363 18.001 9.88625 17.991 9.63625 17.961C9.33625 17.941 9.04625 17.891 8.75625 17.831C8.46625 17.771 8.17625 17.691 7.89625 17.601C7.61625 17.501 7.33625 17.401 7.07625 17.281C7.02625 17.26 6.97625 17.241 6.93625 17.211C6.81625 17.161 6.69625 17.101 6.58625 17.031C6.48625 16.981 6.38625 16.921 6.28625 16.861C5.83625 16.581 5.41625 16.271 5.02625 15.921C5.18625 16.081 5.36625 16.231 5.54625 16.371L4.34625 17.951C4.63625 18.181 4.93625 18.391 5.25625 18.581C5.51625 18.741 5.79625 18.881 6.06625 19.011C6.11625 19.041 6.17625 19.071 6.23625 19.091C6.56625 19.251 6.91625 19.391 7.27625 19.501C7.62625 19.621 7.98625 19.711 8.34625 19.791C8.70625 19.861 9.06625 19.921 9.44625 19.961C9.75625 19.981 10.0763 20.001 10.3963 20.001H10.5563C10.9263 19.991 11.2963 19.971 11.6563 19.921C11.7463 19.911 11.8363 19.901 11.9163 19.881C12.0662 19.861 12.2262 19.831 12.3663 19.811C12.4963 19.781 12.6263 19.751 12.7563 19.721V19.711C13.1163 19.631 13.4662 19.531 13.8162 19.401C13.8262 19.401 13.8262 19.391 13.8362 19.391C14.1362 19.281 14.4362 19.151 14.7262 19.011C14.7662 19.001 14.7962 18.981 14.8362 18.961C15.1762 18.791 15.4963 18.611 15.8063 18.411C15.8763 18.361 15.9462 18.321 16.0162 18.271C16.1362 18.191 16.2563 18.101 16.3763 18.011C16.4862 17.941 16.5963 17.851 16.7063 17.761C16.9862 17.521 17.2662 17.271 17.5162 17.011C17.6162 16.921 17.7062 16.821 17.7962 16.721C17.8762 16.631 17.9562 16.541 18.0362 16.451C18.1062 16.361 18.1863 16.271 18.2563 16.181C18.4862 15.891 18.6962 15.591 18.8862 15.271C18.9862 15.121 19.0863 14.961 19.1763 14.801C19.2563 14.641 19.3363 14.491 19.4062 14.331C19.4163 14.321 19.4163 14.311 19.4163 14.301H19.4263C19.5863 13.971 19.7262 13.621 19.8463 13.271C19.9362 13.021 20.0063 12.761 20.0763 12.501C20.1063 12.401 20.1262 12.301 20.1462 12.201C20.2362 11.851 20.2962 11.481 20.3362 11.111C20.3362 11.081 20.3463 11.051 20.3463 11.021C20.3762 10.681 20.3962 10.341 20.3962 10.001C20.3962 9.79 20.3862 9.58 20.3762 9.37ZM4.26625 15.14L2.73625 16.43C2.97625 16.71 3.23625 16.98 3.49625 17.23L4.87625 15.79C4.92625 15.84 4.97625 15.88 5.02625 15.92C4.73625 15.66 4.46625 15.38 4.22625 15.08C4.23625 15.1 4.24625 15.12 4.26625 15.14ZM2.64625 12.01L0.71625 12.51C0.80625 12.87 0.91625 13.22 1.05625 13.57L2.91625 12.85C2.94625 12.94 2.98625 13.03 3.02625 13.11C2.87625 12.75 2.75625 12.39 2.64625 12.01ZM2.53625 8.48L0.57625 8.11C0.50625 8.47 0.45625 8.83 0.42625 9.21L2.41625 9.36C2.41625 9.42 2.40625 9.47 2.40625 9.53C2.42625 9.17 2.47625 8.82 2.53625 8.48ZM3.95625 5.26L2.34625 4.07C2.12625 4.37 1.92625 4.68 1.73625 5L3.46625 6C3.42625 6.06 3.39625 6.13 3.36625 6.19C3.54625 5.87 3.74625 5.56 3.95625 5.26ZM6.61625 2.95L5.67625 1.18C5.34625 1.36 5.02625 1.55 4.72625 1.76L5.85625 3.41C5.79625 3.45 5.73625 3.5 5.67625 3.55C5.97625 3.33 6.28625 3.13 6.61625 2.95Z"/>
</svg>
