<svg width="25" height="19" viewBox="0 0 25 19" xmlns="http://www.w3.org/2000/svg">
<path d="M5.35672 7.55L3.23672 5.43C5.45672 3.49 8.28672 2.26 11.3967 2.04L11.3967 5.05C11.7267 5.02 12.0597 5 12.3967 5C12.7337 5 13.0667 5.021 13.3967 5.05L13.3967 2.04C16.5067 2.26 19.3367 3.49 21.5567 5.43L19.4367 7.55C19.9467 7.98 20.4167 8.45 20.8467 8.96L22.9667 6.84L24.3867 5.43C23.9467 4.92 23.4767 4.45 22.9667 4.01C20.1467 1.52 16.4467 -3.47068e-07 12.3967 -5.241e-07C8.34672 -7.01131e-07 4.64672 1.52 1.82672 4.01C1.31672 4.45 0.846721 4.92 0.406721 5.43L1.82672 6.84L3.94672 8.96C4.37672 8.45 4.84672 7.98 5.35672 7.55ZM14.9167 16.12L17.3107 6.406C17.4087 6.005 17.2557 5.566 16.8937 5.322C16.4297 5.008 15.7977 5.129 15.4837 5.594L9.87772 13.88C9.69972 14.144 9.55872 14.453 9.47772 14.78C9.10672 16.282 10.0247 17.8 11.5277 18.17C13.0307 18.54 14.5467 17.622 14.9167 16.12Z" />
</svg>
