<svg width="21" height="22" viewBox="0 0 21 22" xmlns="http://www.w3.org/2000/svg">
<path d="M10.3575 12.9509C9.41848 12.9509 8.65749 13.7119 8.65749 14.6509C8.65749 15.5899 9.41848 16.3509 10.3575 16.3509C11.2965 16.3509 12.0575 15.5899 12.0575 14.6509C12.0575 13.7119 11.2965 12.9509 10.3575 12.9509ZM9.88048 5.72694C8.91048 6.01194 8.35448 7.02894 8.63948 7.99894L9.51948 10.9989C9.60548 11.2839 9.83148 11.5279 10.1385 11.6179C10.6225 11.7599 11.1295 11.4829 11.2715 10.9989L12.1515 7.99894C12.2475 7.67294 12.2545 7.31794 12.1515 6.96794C11.8685 5.99794 10.8515 5.44194 9.88048 5.72694ZM18.0525 3.87194L12.7405 0.805938C11.2945 -0.0290625 9.49848 -0.0290625 8.05248 0.805938L2.74048 3.87194C1.29448 4.70694 0.396484 6.26294 0.396484 7.93294L0.396484 14.0659C0.396484 15.7359 1.29448 17.2919 2.74048 18.1269L8.05248 21.1929C8.77548 21.6109 9.58648 21.8189 10.3965 21.8189C11.2065 21.8189 12.0175 21.6109 12.7405 21.1929L18.0525 18.1269C19.4985 17.2919 20.3965 15.7359 20.3965 14.0659L20.3965 7.93294C20.3965 6.26294 19.4985 4.70694 18.0525 3.87194ZM18.3965 14.0649C18.3965 15.0229 17.8815 15.9149 17.0525 16.3939L11.7405 19.4609C10.9115 19.9399 9.88148 19.9399 9.05248 19.4609L3.74048 16.3939C2.91148 15.9149 2.39648 15.0229 2.39648 14.0649L2.39648 7.93294C2.39648 6.97494 2.91148 6.08294 3.74048 5.60394L9.05248 2.53694C9.46748 2.29794 9.93148 2.17894 10.3965 2.17894C10.8615 2.17894 11.3265 2.29794 11.7405 2.53694L17.0525 5.60394C17.8815 6.08294 18.3965 6.97494 18.3965 7.93294L18.3965 14.0649Z" />
</svg>
