<svg width="18" height="18" viewBox="0 0 18 18" xmlns="http://www.w3.org/2000/svg">
  <path d="M14.25 3C14.66 3 15 3.34 15 3.75C15 3.94 14.92 4.12 14.8 4.25C15.12 4.64 15.4 5.06 15.63 5.51C16.15 5.1 16.5 4.47 16.5 3.75C16.5 2.51 15.49 1.5 14.25 1.5C13.53 1.5 12.9 1.84 12.49 2.37C12.94 2.61 13.36 2.89 13.75 3.2C13.88 3.08 14.06 3 14.25 3ZM2.37 5.51C2.61 5.06 2.89 4.64 3.2 4.25C3.08 4.12 3 3.94 3 3.75C3 3.34 3.34 3 3.75 3C3.94 3 4.12 3.08 4.25 3.2C4.64 2.88 5.06 2.6 5.51 2.37C5.1 1.84 4.47 1.5 3.75 1.5C2.51 1.5 1.5 2.51 1.5 3.75C1.5 4.47 1.84 5.1 2.37 5.51ZM9 2C5.13 2 2 5.13 2 9C2 10.95 2.8 12.71 4.08 13.98L3.42 14.77C3.15 15.09 3.2 15.56 3.52 15.83C3.66 15.95 3.83 16 4 16C4.21 16 4.43 15.91 4.58 15.73L5.26 14.91C6.34 15.6 7.62 16 9 16C12.87 16 16 12.87 16 9C16 5.13 12.87 2 9 2ZM9 9V5C9.31 5 9.62 5.04 9.92 5.11C10.22 5.18 10.52 5.29 10.79 5.43L9 9ZM14.24 14.36C13.88 14.71 13.49 15.02 13.07 15.29L13.43 15.72C13.58 15.9 13.79 15.99 14.01 15.99C14.18 15.99 14.35 15.93 14.49 15.82C14.81 15.55 14.85 15.08 14.59 14.76L14.24 14.36Z" />
</svg>
