<svg width="10" height="10" viewBox="0 0 10 10" xmlns="http://www.w3.org/2000/svg">
<path d="M5 0C2.239 0 0 2.239 0 5C0 7.761 2.239 10 5 10C7.761 10 10 7.761 10 5C10 2.239 7.761 0 5 0ZM7.03 5.97C7.323 6.263 7.323 6.738 7.03 7.031C6.884 7.177 6.692 7.251 6.5 7.251C6.308 7.251 6.116 7.178 5.97 7.031L5 6.061L4.03 7.031C3.884 7.177 3.692 7.251 3.5 7.251C3.308 7.251 3.116 7.178 2.97 7.031C2.677 6.738 2.677 6.263 2.97 5.97L3.94 5L2.97 4.03C2.677 3.737 2.677 3.262 2.97 2.969C3.263 2.676 3.738 2.676 4.031 2.969L5.001 3.939L5.971 2.969C6.264 2.676 6.739 2.676 7.032 2.969C7.325 3.262 7.325 3.737 7.032 4.03L6.062 5L7.03 5.97Z"/>
</svg>
