<svg width="22" height="22" viewBox="0 0 22 22" xmlns="http://www.w3.org/2000/svg">
  <path
    d="M11 3.49414L4.5 7.24714V14.7531L11 18.5061L17.5 14.7531V7.24714L11 3.49414ZM11 5.22614L15.227 7.66614L13.237 8.82714L11 7.53614L8.736 8.84314L6.726 7.69514L11 5.22614ZM10.25 16.3411L6 13.8871V9.00714L8 10.1501V12.7321L10.25 14.0311V16.3411ZM9.5 11.8661V10.1341L11 9.26814L12.5 10.1341V11.8651L11 12.7311L9.5 11.8661ZM16 13.8871L11.773 16.3271L11.763 14.0231L11.75 14.0311L14 12.7321V10.1191L16 8.95214V13.8871Z" />
</svg>