<svg width="14" height="14" viewBox="0 0 16 16" xmlns="http://www.w3.org/2000/svg">
    <path 
      d="M9.24 4.29C8.85 4.16 8.42 4.37 8.29 4.76L6.29 10.76C6.16 11.15 6.37 11.58 6.76 11.71C6.84 11.74 6.92 11.75 7 11.75C7.31 11.75 7.61 11.55 7.71 11.24L9.71 5.24C9.84 4.84 9.63 4.42 9.24 4.29ZM5.32 5C5.02 5 4.76 5.17 4.63 5.45L3.5 8L4.64 10.55C4.76 10.82 5.03 11 5.33 11C5.87 11 6.24 10.44 6.02 9.95L5.14 8L6 6.05C6.23 5.56 5.86 5 5.32 5ZM10.68 5C10.14 5 9.77 5.56 9.99 6.05L10.85 8L9.99 9.95C9.77 10.45 10.13 11 10.68 11C10.98 11 11.24 10.83 11.37 10.55L12.5 8L11.36 5.45C11.24 5.17 10.98 5 10.68 5ZM12.35 2H3.65C2.19 2 1 3.19 1 4.65V11.34C1 12.81 2.19 13.99 3.65 13.99H12.34C13.81 13.99 14.99 12.8 14.99 11.34V4.65C15 3.19 13.81 2 12.35 2ZM13.5 11.35C13.5 11.99 12.98 12.5 12.35 12.5H3.65C3.01 12.5 2.5 11.98 2.5 11.35V4.65C2.5 4.02 3.02 3.5 3.65 3.5H12.34C12.98 3.5 13.49 4.02 13.49 4.65V11.35H13.5Z"/>
</svg>
