<svg width="24" height="24" viewBox="0 0 24 24" xmlns="http://www.w3.org/2000/svg">
<path d="M7.79 11.79C7.4 12.18 7.4 12.81 7.79 13.2L12 17.41L16.21 13.2C16.6 12.81 16.6 12.18 16.21 11.79C15.82 11.4 15.19 11.4 14.8 11.79L13 13.59V2H11V13.59L9.21 11.8C8.82 11.4 8.18 11.4 7.79 11.79ZM19.64 8H14V11.17L14.09 11.08C14.47 10.7 14.97 10.49 15.5 10.49C16.03 10.49 16.54 10.7 16.91 11.08C17.29 11.46 17.5 11.96 17.5 12.49C17.5 13.02 17.29 13.53 16.91 13.9L12 18.83L7.09 13.92C6.71 13.54 6.5 13.04 6.5 12.51C6.5 11.98 6.71 11.47 7.09 11.1C7.47 10.72 7.97 10.51 8.5 10.51C9.03 10.51 9.54 10.72 9.91 11.1L10 11.19V8H4V6.36C4 6.16 4.16 6 4.36 6H10V4H4.36C3.06 4 2 5.06 2 6.36V18.45C2 20.41 3.59 22 5.55 22H18.44C20.4 22 21.99 20.41 21.99 18.45V10.36C22 9.06 20.94 8 19.64 8Z" />
</svg>
