<svg width="19" height="18" viewBox="0 0 19 18" xmlns="http://www.w3.org/2000/svg">
<path d="M10.5 5.25H6.5V6.75H10.5V5.25ZM9 8.25H6.5V9.75H9V8.25ZM15.48 7.16C15.49 7.27 15.5 7.38 15.5 7.5C15.5 8.44 15.31 9.34 14.97 10.16C14.98 10.27 15 10.38 15 10.5V15H10.5C9.17 15 8 14.41 7.18 13.5H8.5C11.81 13.5 14.5 10.81 14.5 7.5C14.5 4.19 11.81 1.5 8.5 1.5C5.19 1.5 2.5 4.19 2.5 7.5V13.5H5.33C6.37 15.29 8.29 16.5 10.5 16.5H16.5V10.5C16.5 9.27 16.12 8.12 15.48 7.16ZM4 12V7.5C4 5.01 6.01 3 8.5 3C9.92 3 11.17 3.67 11.99 4.7C12.07 4.8 12.16 4.9 12.24 5C12.72 5.72 13 6.57 13 7.5C13 9.99 10.99 12 8.5 12H4Z"/>
</svg>
