<svg width="18" height="18" viewBox="0 0 18 18" xmlns="http://www.w3.org/2000/svg">
<path d="M10 5.25H6V6.75H10V5.25ZM8.5 8.25H6V9.75H8.5V8.25ZM14.98 7.16C14.99 7.27 15 7.38 15 7.5C15 8.44 14.81 9.34 14.47 10.16C14.48 10.27 14.5 10.38 14.5 10.5V15H10C8.67 15 7.5 14.41 6.68 13.5H8C11.31 13.5 14 10.81 14 7.5C14 4.19 11.31 1.5 8 1.5C4.69 1.5 2 4.19 2 7.5V13.5H4.83C5.87 15.29 7.79 16.5 10 16.5H16V10.5C16 9.27 15.62 8.12 14.98 7.16ZM3.5 12V7.5C3.5 5.01 5.51 3 8 3C9.42 3 10.67 3.67 11.49 4.7C11.57 4.8 11.66 4.9 11.74 5C12.22 5.72 12.5 6.57 12.5 7.5C12.5 9.99 10.49 12 8 12H3.5Z" />
</svg>
