<svg width="18" height="18" viewBox="0 0 18 18" fill="none" xmlns="http://www.w3.org/2000/svg">
  <circle cx="9" cy="9" r="9" fill="#FFEBEF" />
  <path d="M8.99999 2.77783C5.55999 2.77783 2.77777 5.56005 2.77777 9.00005C2.77777 12.4401 5.55999 15.2223 8.99999 15.2223C12.44 15.2223 15.2222 12.4401 15.2222 9.00005C15.2222 5.56005 12.44 2.77783 8.99999 2.77783ZM4.1111 9.00005C4.1111 6.30672 6.30666 4.11117 8.99999 4.11117C10.1111 4.11117 11.1244 4.4845 11.9511 5.10672L5.11555 11.9423C4.48444 11.1245 4.1111 10.1112 4.1111 9.00005ZM8.99999 13.8889C7.88888 13.8889 6.87555 13.5156 6.04888 12.8934L12.8844 6.05783C13.5067 6.87561 13.88 7.89783 13.88 9.00894C13.8889 11.6934 11.6933 13.8889 8.99999 13.8889Z" fill="#ED7374" />
</svg>
