<svg width="18" height="18" viewBox="0 0 18 18" fill="none" xmlns="http://www.w3.org/2000/svg">
  <circle cx="9" cy="9" r="9" fill="#BFE5C6"/>
  <path d="M6.90323 7.35106C6.90323 6.8125 7.10323 6.32713 7.4129 5.95479L6.68387 5.30984C6.22581 5.85505 5.93548 6.56649 5.93548 7.35106C5.93548 8.13564 6.22581 8.84707 6.68387 9.39894L7.4129 8.74734C7.10323 8.375 6.90323 7.88963 6.90323 7.35106ZM5.94194 4.6516L5.20645 4C4.45806 4.90426 4 6.07447 4 7.35106C4 8.62766 4.45806 9.79787 5.20645 10.7021L5.94194 10.0505C5.33548 9.3258 4.96774 8.38165 4.96774 7.35106C4.96774 6.32048 5.33548 5.37633 5.94194 4.6516ZM9 8.51463C9.61936 8.51463 10.129 7.98936 10.129 7.35106C10.129 6.71277 9.61936 6.1875 9 6.1875C8.38065 6.1875 7.87097 6.71277 7.87097 7.35106C7.87097 7.98936 8.38065 8.51463 9 8.51463ZM9 7.18484C9.09032 7.18484 9.16129 7.25798 9.16129 7.35106C9.16129 7.53723 8.83871 7.53723 8.83871 7.35106C8.83871 7.25798 8.90968 7.18484 9 7.18484ZM12.7935 4C12.5935 4.17287 12.3806 4.36569 12.0581 4.6516C12.6645 5.37633 13.0323 6.32048 13.0323 7.35106C13.0323 8.38165 12.6645 9.3258 12.0581 10.0505C12.3806 10.3364 12.5935 10.5226 12.7935 10.7021C13.5419 9.79787 14 8.63431 14 7.35106C14 6.06782 13.5419 4.90426 12.7935 4ZM11.3161 5.30319C10.9484 5.62899 10.9161 5.65559 10.5871 5.94814C10.9032 6.32713 11.0968 6.8125 11.0968 7.34442C11.0968 7.87633 10.8968 8.36835 10.5871 8.74069C10.9226 9.03325 10.9548 9.06649 11.3161 9.38564C11.7742 8.83378 12.0645 8.12234 12.0645 7.33777C12.0645 6.55319 11.7742 5.85505 11.3161 5.30319ZM9.96774 13.0027H9.48387V9.84442C9.48387 9.57181 9.26452 9.34575 9 9.34575C8.73548 9.34575 8.51613 9.57181 8.51613 9.84442V13.0027H8.03226C7.49677 13.0027 7.06452 13.4481 7.06452 14H10.9355C10.9355 13.4481 10.5032 13.0027 9.96774 13.0027Z" fill="#00AB44"/>
</svg>
