<svg width="18" height="18" viewBox="0 0 18 18" xmlns="http://www.w3.org/2000/svg">
<path d="M15.05 5.07C15.15 5.15 15.25 5.23 15.34 5.31C16.35 6.22 17 7.53 17 9C17 11.58 15.04 13.68 12.53 13.95L12.74 13.74C13.07 13.41 13.25 12.97 13.25 12.5C13.25 12.4281 13.2419 12.3642 13.233 12.2939C13.232 12.2861 13.231 12.2781 13.23 12.27C14.55 11.77 15.5 10.5 15.5 9C15.5 8.1 15.15 7.29 14.6 6.68C14.29 6.33 13.91 6.05 13.49 5.85C13.48 5.845 13.4725 5.84 13.465 5.835C13.4575 5.83 13.45 5.825 13.44 5.82C13.26 5.73 13.06 5.67 12.86 5.62C12.8488 5.61628 12.8363 5.61117 12.8229 5.60571C12.8002 5.5965 12.7751 5.58628 12.75 5.58C12.51 5.53 12.26 5.5 12.01 5.5C11.99 5.505 11.9675 5.5075 11.945 5.51C11.9225 5.5125 11.9 5.515 11.88 5.52C11.8 5.53 11.73 5.54 11.66 5.55L11.25 5.59C10.53 5.75 9.89 6.14 9.41 6.67L8.3 5.67C8.72 5.19 9.24 4.8 9.81 4.52C9.02 3.87 8.03 3.5 7 3.5C4.52 3.5 2.5 5.52 2.5 8C2.5 9.7 3.46 11.16 4.85 11.92C4.79 12.1 4.75 12.29 4.75 12.49C4.75 12.96 4.93 13.4 5.26 13.73L5.27 13.74C2.8 13 1 10.71 1 8C1 4.69 3.69 2 7 2C8.79 2 10.39 2.79 11.48 4.04C11.65 4.02 11.82 4.01 11.99 4.01C12.31 4.01 12.62 4.04 12.92 4.1C12.94 4.105 12.96 4.1075 12.98 4.11C13 4.1125 13.02 4.115 13.04 4.12C13.3 4.17 13.55 4.25 13.79 4.35C13.88 4.38 13.96 4.41 14.04 4.45C14.23 4.53 14.42 4.64 14.6 4.75C14.7232 4.82697 14.8345 4.90987 14.9476 4.99413C14.9815 5.01934 15.0155 5.04467 15.05 5.07Z"/>
<path d="M7.11867 13.0901L8.33867 11.8701V15.0601H9.83867V11.8701L11.0587 13.0901C11.3487 13.3801 12.1187 13.0901 12.1187 13.0901C12.1187 13.0901 12.4087 12.3201 12.1187 12.0301L9.08867 9.00006L6.05867 12.0301C5.76867 12.3201 5.76867 12.8001 6.05867 13.0901C6.34867 13.3801 6.82867 13.3801 7.11867 13.0901Z"/>
</svg>
