<svg width="18" height="18" viewBox="0 0 18 18" fill="none" xmlns="http://www.w3.org/2000/svg">
  <circle cx="9" cy="9" r="9" fill="#ECEEEF" />
  <path d="M7.03 4H5.47C4.66 4 4 4.66 4 5.47V12.53C4 13.34 4.66 14 5.47 14H7.03C7.84 14 8.5 13.34 8.5 12.53V5.47C8.5 4.66 7.84 4 7.03 4ZM5.5 12.53L5.47 5.5H7L7.03 12.5L5.5 12.53ZM12.53 4H10.97C10.16 4 9.5 4.66 9.5 5.47V12.53C9.5 13.34 10.16 14 10.97 14H12.53C13.34 14 14 13.34 14 12.53V5.47C14 4.66 13.34 4 12.53 4ZM11 12.53L10.97 5.5H12.5L12.53 12.5L11 12.53Z" fill="#8F9EAA" />
</svg>
