<svg width="22" height="22" viewBox="0 0 22 22" xmlns="http://www.w3.org/2000/svg">
  <path
    d="M10.25 15H11.75V13.5H10.25V15ZM13.439 4H8.561C6.042 4 4 6.042 4 8.561V13.44C4 15.958 6.042 18 8.561 18H13.44C15.959 18 18.001 15.958 18.001 13.439V8.561C18 6.042 15.958 4 13.439 4ZM16.5 13.439C16.5 15.127 15.127 16.5 13.439 16.5H8.561C6.873 16.5 5.5 15.127 5.5 13.439V8.561C5.5 6.873 6.873 5.5 8.561 5.5H13.44C15.127 5.5 16.5 6.873 16.5 8.561V13.439ZM13 9.25H11.75V7H10.25V9.25H9C8.035 9.25 7.25 10.035 7.25 11C7.25 11.965 8.035 12.75 9 12.75H13C13.965 12.75 14.75 11.965 14.75 11C14.75 10.035 13.965 9.25 13 9.25ZM13 11.25H9C8.862 11.25 8.75 11.138 8.75 11C8.75 10.862 8.862 10.75 9 10.75H13C13.138 10.75 13.25 10.862 13.25 11C13.25 11.138 13.138 11.25 13 11.25Z" />
</svg>