<svg width="22" height="22" viewBox="0 0 22 22" xmlns="http://www.w3.org/2000/svg">
  <path
    d="M15.613 5H6.387C5.068 5 4 6.068 4 7.387V14.614C4 15.932 5.068 17 6.387 17H15.614C16.932 17 18.001 15.932 18.001 14.613V7.387C18 6.068 16.932 5 15.613 5ZM16.5 14.613C16.5 15.102 16.102 15.5 15.613 15.5H6.387C5.898 15.5 5.5 15.102 5.5 14.613V7.387C5.5 6.898 5.898 6.5 6.387 6.5H15.614C16.103 6.5 16.501 6.898 16.501 7.387V14.613H16.5ZM10.249 14H11.749V8.002H10.249V14ZM7.249 14H8.749V8.002H7.249V14ZM13.249 14H14.749V8.002H13.249V14Z" />
</svg>