<svg width="22" height="22" viewBox="0 0 22 22" xmlns="http://www.w3.org/2000/svg">
  <path
    d="M12.2272 8.22805L8.87317 11.438C8.68617 11.618 8.53517 11.851 8.45017 12.115C8.17717 12.968 8.64817 13.881 9.50117 14.154C10.3542 14.427 11.2672 13.957 11.5402 13.104L12.9552 8.68205C13.0022 8.53305 12.9692 8.36305 12.8532 8.24205C12.6832 8.06505 12.4032 8.05905 12.2272 8.22805ZM14.7092 5.06205C13.5552 4.34105 12.2732 3.99805 11.0062 3.99805C8.67217 3.99805 6.39117 5.16505 5.06317 7.29005C3.01517 10.569 4.01217 14.887 7.29017 16.936C8.44417 17.657 9.72617 18 10.9932 18C13.3272 18 15.6082 16.833 16.9362 14.708C18.9852 11.43 17.9882 7.11105 14.7092 5.06205ZM15.6652 13.914C14.6532 15.534 12.9072 16.5 10.9942 16.5C9.96817 16.5 8.96217 16.21 8.08617 15.664C5.51417 14.057 4.73017 10.657 6.33617 8.08505C7.34817 6.46605 9.09517 5.49905 11.0082 5.49905C12.0342 5.49905 13.0392 5.78905 13.9152 6.33505C16.4862 7.94205 17.2712 11.342 15.6652 13.914Z" />
</svg>