<svg width="28" height="28" viewBox="0 0 28 28" fill="none" xmlns="http://www.w3.org/2000/svg">
<path d="M21.56 2.33331H6.79004C4.32837 2.33331 2.33337 4.32831 2.33337 6.78998V21.56C2.33337 23.8233 4.17671 25.6666 6.44004 25.6666H21.56C23.8234 25.6666 25.6667 23.8233 25.6667 21.56V6.43998C25.6667 4.17665 23.8234 2.33331 21.56 2.33331ZM19.8334 21H17.5V18.2233L15.3067 17.1266L17.92 15.82L19.845 16.7766V21H19.8334ZM21.8284 11.3283C21.595 11.5616 21.3034 11.6666 21 11.6666C20.6967 11.6666 20.405 11.55 20.1717 11.3283L19.8334 10.99V13.5566L10.5 18.2233V21H8.16671V16.7766L11.3867 15.1666L8.16671 13.5566V10.99L7.82837 11.3283C7.37337 11.7833 6.63837 11.7833 6.18337 11.3283C5.72837 10.8733 5.72837 10.1383 6.18337 9.68331L9.33337 6.52165L12.495 9.68331C12.95 10.1383 12.95 10.8733 12.495 11.3283C12.2617 11.5616 11.97 11.6666 11.6667 11.6666C11.3634 11.6666 11.0717 11.55 10.8384 11.3283L10.5 10.9783V12.11L14 13.86L17.5 12.11V10.9783L17.1617 11.3166C16.7067 11.7716 15.9717 11.7716 15.5167 11.3166C15.0617 10.8616 15.0617 10.1266 15.5167 9.67165L18.6667 6.52165L21.8284 9.68331C22.2834 10.1266 22.2834 10.8733 21.8284 11.3283Z" fill="#00AB44"/>
<path d="M21.8283 11.3283C21.595 11.5617 21.3033 11.6667 21 11.6667C20.6966 11.6667 20.405 11.55 20.1716 11.3283L19.8333 10.99V13.5567L10.5 18.2233V21H8.16662V16.7767L11.3866 15.1667L8.16662 13.5567V10.99L7.82829 11.3283C7.37329 11.7833 6.63829 11.7833 6.18329 11.3283C5.72829 10.8733 5.72829 10.1383 6.18329 9.68333L9.33329 6.52167L12.495 9.68333C12.95 10.1383 12.95 10.8733 12.495 11.3283C12.2616 11.5617 11.97 11.6667 11.6666 11.6667C11.3633 11.6667 11.0716 11.55 10.8383 11.3283L10.5 10.9783V12.11L14 13.86L17.5 12.11V10.9783L17.1616 11.3167C16.7066 11.7717 15.9716 11.7717 15.5166 11.3167C15.0616 10.8617 15.0616 10.1267 15.5166 9.67167L18.6666 6.52167L21.8283 9.68333C22.2833 10.1267 22.2833 10.8733 21.8283 11.3283Z" fill="white"/>
<path d="M19.8333 21H17.5V18.2233L15.3066 17.1267L17.92 15.82L19.845 16.7767V21H19.8333Z" fill="white"/>
</svg>
