<svg width="21" height="20" viewBox="0 0 21 20" xmlns="http://www.w3.org/2000/svg">
<path d="M16.71 0H4.57746C2.55538 0 0.916626 1.71 0.916626 3.82V16.48C0.916626 18.42 2.43079 20 4.28996 20H16.71C18.5691 20 20.0833 18.42 20.0833 16.48V3.52C20.0833 1.58 18.5691 0 16.71 0ZM18.1666 16.48C18.1666 17.32 17.515 18 16.71 18H4.28996C3.48496 18 2.83329 17.32 2.83329 16.48V3.82C2.83329 2.82 3.61913 2 4.57746 2H16.71C17.515 2 18.1666 2.68 18.1666 3.52V16.48ZM11.5733 12.68L13.375 13.62V16H15.2916V12.38L13.7104 11.56L11.5733 12.68ZM14.3333 3.59L11.7362 6.3C11.3625 6.69 11.3625 7.32 11.7362 7.71C12.11 8.1 12.7137 8.1 13.0875 7.71L13.3654 7.42V8.39L10.4904 9.89L7.61538 8.39V7.42L7.89329 7.71C8.08496 7.91 8.32454 8 8.57371 8C8.82288 8 9.06246 7.9 9.25413 7.71C9.62788 7.32 9.62788 6.69 9.25413 6.3L6.66663 3.59L4.06954 6.29C3.69579 6.68 3.69579 7.31 4.06954 7.7C4.44329 8.09 5.04704 8.09 5.42079 7.7L5.69871 7.41V9.61L8.35329 11L5.70829 12.38V16H7.62496V13.62L15.2916 9.62V7.42L15.5695 7.71C15.7612 7.91 16.0008 8 16.25 8C16.4991 8 16.7387 7.9 16.9304 7.71C17.3041 7.32 17.3041 6.69 16.9304 6.3L14.3333 3.59Z" />
</svg>
