<svg width="20" height="20" viewBox="0 0 20 20" xmlns="http://www.w3.org/2000/svg">
<path d="M16.48 0H3.82C1.71 0 0 1.71 0 3.82V16.48C0 18.42 1.58 20 3.52 20H16.48C18.42 20 20 18.42 20 16.48V3.52C20 1.58 18.42 0 16.48 0ZM15 16H13V13.62L11.12 12.68L13.36 11.56L15.01 12.38V16H15ZM16.71 7.71C16.51 7.91 16.26 8 16 8C15.74 8 15.49 7.9 15.29 7.71L15 7.42V9.62L7 13.62V16H5V12.38L7.76 11L5 9.62V7.42L4.71 7.71C4.32 8.1 3.69 8.1 3.3 7.71C2.91 7.32 2.91 6.69 3.3 6.3L6 3.59L8.71 6.3C9.1 6.69 9.1 7.32 8.71 7.71C8.51 7.91 8.26 8 8 8C7.74 8 7.49 7.9 7.29 7.71L7 7.41V8.38L10 9.88L13 8.38V7.41L12.71 7.7C12.32 8.09 11.69 8.09 11.3 7.7C10.91 7.31 10.91 6.68 11.3 6.29L14 3.59L16.71 6.3C17.1 6.68 17.1 7.32 16.71 7.71Z" />
</svg>
