<svg width="24" height="24" viewBox="0 0 24 24" xmlns="http://www.w3.org/2000/svg">
  <path d="M12.99 15.24L17 17.58V22H19V16.43L14.98 14.08L12.99 15.24ZM22.21 5.78997L18 1.58997L13.79 5.79997C13.4 6.18997 13.4 6.81997 13.79 7.20997C14.18 7.59997 14.81 7.59997 15.2 7.20997L17 5.40997V9.41997L12 12.34L7.00003 9.42997V5.40997L8.79003 7.19997C8.99003 7.39997 9.24003 7.48997 9.50003 7.48997C9.76003 7.48997 10.01 7.38997 10.21 7.19997C10.6 6.80997 10.6 6.17997 10.21 5.78997L6.00003 1.58997L1.79003 5.78997C1.40003 6.17997 1.40003 6.80997 1.79003 7.19997C2.18003 7.58997 2.81003 7.58997 3.20003 7.19997L5.00003 5.40997V10.57L10.02 13.5L5.00003 16.43V22H7.00003V17.57L19 10.57V5.40997L20.79 7.19997C20.99 7.39997 21.24 7.48997 21.5 7.48997C21.76 7.48997 22.01 7.38997 22.21 7.19997C22.6 6.81997 22.6 6.17997 22.21 5.78997Z" />
</svg>
