<svg viewBox="0 0 24 24"
    xmlns="http://www.w3.org/2000/svg">
    <path d="M12.9901 15.24L17.0001 17.58V22H19.0001V16.43L14.9801 14.08L12.9901 15.24ZM22.2101 5.78997L18.0001 1.58997L13.7901 5.79997C13.4001 6.18997 13.4001 6.81997 13.7901 7.20997C14.1801 7.59997 14.8101 7.59997 15.2001 7.20997L17.0001 5.40997V9.41997L12.0001 12.34L7.00006 9.42997V5.40997L8.79006 7.19997C8.99006 7.39997 9.24006 7.48997 9.50006 7.48997C9.76006 7.48997 10.0101 7.38997 10.2101 7.19997C10.6001 6.80997 10.6001 6.17997 10.2101 5.78997L6.00006 1.58997L1.79006 5.78997C1.40006 6.17997 1.40006 6.80997 1.79006 7.19997C2.18006 7.58997 2.81006 7.58997 3.20006 7.19997L5.00006 5.40997V10.57L10.0201 13.5L5.00006 16.43V22H7.00006V17.57L19.0001 10.57V5.40997L20.7901 7.19997C20.9901 7.39997 21.2401 7.48997 21.5001 7.48997C21.7601 7.48997 22.0101 7.38997 22.2101 7.19997C22.6001 6.81997 22.6001 6.17997 22.2101 5.78997Z" />
</svg>
