<svg width="18" height="18" viewBox="0 0 18 18" xmlns="http://www.w3.org/2000/svg">
    <path d="M10.9999 2L9.21995 8H13.9999L6.99995 16L8.77995 10H3.99995L10.9999 2ZM10.9999 0.5C10.5799 0.5 10.1599 0.68 9.86995 1.01L2.86995 9.01C2.47995 9.45 2.38995 10.08 2.62995 10.62C2.86995 11.16 3.40995 11.5 3.99995 11.5H6.76995L5.55995 15.57C5.35995 16.25 5.65995 16.97 6.26995 17.31C6.49995 17.44 6.74995 17.5 6.98995 17.5C7.40995 17.5 7.82995 17.32 8.11995 16.99L15.0799 9.03C15.3299 8.76 15.4899 8.4 15.4899 8C15.4899 7.17 14.8199 6.5 13.9899 6.5H13.9999H11.2299L12.4399 2.43C12.6399 1.75 12.3399 1.03 11.7299 0.69C11.4999 0.56 11.2499 0.5 10.9999 0.5Z" />
</svg>
