<svg width="16" height="16" viewBox="0 0 16 16" xmlns="http://www.w3.org/2000/svg">
<path d="M10.4 2H5.6C3.6 2 2 3.6 2 5.6V10.4C2 12.4 3.6 14 5.6 14H10.4C12.4 14 14 12.4 14 10.4V5.6C14 3.6 12.4 2 10.4 2ZM13 10.4C13 11.8 11.8 13 10.4 13H5.6C4.2 13 3 11.8 3 10.4V5.6C3 4.2 4.2 3 5.6 3H10.4C11.8 3 13 4.2 13 5.6V10.4Z" />
<path d="M5.81055 10.2988V5.59961C5.55664 5.5957 5.36914 5.53906 5.24805 5.42969C5.12695 5.31641 5.06641 5.17188 5.06641 4.99609C5.06641 4.81641 5.12695 4.67188 5.24805 4.5625C5.37305 4.44922 5.58008 4.39258 5.86914 4.39258L8.38281 4.39844C8.77344 4.39844 9.1543 4.4707 9.52539 4.61523C9.90039 4.75977 10.2012 4.94336 10.4277 5.16602C10.5996 5.33398 10.7773 5.56445 10.9609 5.85742C11.1484 6.15039 11.2891 6.44141 11.3828 6.73047C11.4766 7.01953 11.5234 7.37305 11.5234 7.79102V8.36523C11.5234 8.87305 11.4375 9.32422 11.2656 9.71875C11.0938 10.1094 10.8672 10.4297 10.5859 10.6797C10.3086 10.9258 10.0469 11.1074 9.80078 11.2246C9.41016 11.4082 8.9043 11.5 8.2832 11.5H5.86914C5.58008 11.5 5.37305 11.4453 5.24805 11.3359C5.12695 11.2227 5.06641 11.0762 5.06641 10.8965C5.06641 10.7207 5.12695 10.5762 5.24805 10.4629C5.37305 10.3496 5.56055 10.2949 5.81055 10.2988ZM7.01172 10.2988H8.28906C8.76562 10.2988 9.125 10.2305 9.36719 10.0938C9.68359 9.91406 9.92188 9.68555 10.082 9.4082C10.2422 9.13086 10.3223 8.77148 10.3223 8.33008V7.76172C10.3223 7.38281 10.25 7.05078 10.1055 6.76562C9.87891 6.32031 9.62305 6.01562 9.33789 5.85156C9.05664 5.68359 8.70312 5.59961 8.27734 5.59961H7.01172V10.2988Z"/>
</svg>
