<svg width="22" height="18" viewBox="0 0 22 18" xmlns="http://www.w3.org/2000/svg">
<path d="M11.98 11.29L4.27 8.53C4.06 8.46 3.82 8.51 3.66 8.7C3.47 8.93 3.5 9.28 3.73 9.47L10.02 14.71C10.19 14.85 10.4 14.98 10.63 15.06C11.67 15.43 12.81 14.89 13.18 13.85C13.55 12.81 13.02 11.66 11.98 11.29ZM11 0C4.93 0 0 4.93 0 11C0 13.39 0.77 15.68 2.22 17.6L2.52 18H19.48L19.78 17.6C21.23 15.67 22 13.39 22 11C22 4.93 17.07 0 11 0ZM18.47 16H3.53C2.53 14.51 2 12.79 2 11C2 6.38 5.51 2.56 10 2.06V3C10 3.55 10.45 4 11 4C11.55 4 12 3.55 12 3V2.06C15.21 2.42 17.9 4.46 19.19 7.29L18.3 7.58C17.77 7.75 17.49 8.31 17.66 8.84C17.8 9.26 18.19 9.53 18.61 9.53C18.71 9.53 18.82 9.51 18.92 9.48L19.82 9.19C19.94 9.78 20 10.38 20 11C20 12.79 19.47 14.51 18.47 16Z"/>
</svg>
