<svg viewBox="0 0 24 24"
    xmlns="http://www.w3.org/2000/svg">
    <path d="M20.3332 14.8444V7.97776L16.4443 4.08887L9.77762 10.7555L7.55539 8.53331L3.6665 12.4222V15.8222C3.6665 18.3111 5.68873 20.3333 8.17762 20.3333H13.3998C13.0665 19.8222 12.8109 19.2666 12.6776 18.6666H8.17762C6.61095 18.6666 5.33317 17.3889 5.33317 15.8222V13.1111L7.55539 10.8889L9.77762 13.1111L16.4443 6.44442L18.6665 8.66664V13.8444C18.3109 13.7333 17.9443 13.6666 17.5554 13.6666C15.4109 13.6666 13.6665 15.4111 13.6665 17.5555C13.6665 19.7 15.4109 21.4444 17.5554 21.4444C19.6998 21.4444 21.4443 19.7 21.4443 17.5555C21.4443 16.5 21.0221 15.5444 20.3332 14.8444ZM19.7776 18.3889H18.3887V19.7778H16.7221V18.3889H15.3332V16.7222H16.7221V15.3333H18.3887V16.7222H19.7776V18.3889Z" />
</svg>
