<svg width="16" height="10" viewBox="0 0 16 10" xmlns="http://www.w3.org/2000/svg">
<path d="M6.27 5.18L3.13 4.6C2.95 4.57 2.75 4.66 2.67 4.83C2.57 5.04 2.65 5.3 2.86 5.4L5.72 6.82C5.79 6.85 5.87 6.88 5.95 6.9C6.42 6.99 6.88 6.68 6.97 6.2C7.06 5.72 6.75 5.27 6.27 5.18ZM10 0C9.3 0 8.63 0.13 8.01 0.35C7.38 0.13 6.71 0 6 0C2.69 0 0 2.69 0 6C0 7.3 0.42 8.54 1.22 9.6L1.52 10H10.47L10.77 9.6C11.57 8.54 11.99 7.29 11.99 6C11.99 4.49 11.42 3.11 10.5 2.05C12.47 2.3 14 3.97 14 6C14 6.7 13.81 7.39 13.45 8H12.69C12.48 8.71 12.15 9.38 11.71 10H14.48L14.78 9.6C15.58 8.54 16 7.29 16 6C16 2.69 13.31 0 10 0ZM9.45 8H2.55C2.19 7.39 2 6.7 2 6C2 3.79 3.79 2 6 2C8.21 2 10 3.79 10 6C10 6.7 9.81 7.39 9.45 8Z" />
</svg>
