<svg width="16" height="16" viewBox="0 0 16 16" xmlns="http://www.w3.org/2000/svg">
<path fill-rule="evenodd" clip-rule="evenodd" d="M8.59398 9.357L3.92125 7.72144C3.79398 7.67996 3.64853 7.70959 3.55156 7.82218C3.4364 7.95848 3.45459 8.16588 3.59398 8.27848L7.4061 11.3837C7.50913 11.4666 7.6364 11.5437 7.7758 11.5911C8.08099 11.6972 8.4004 11.677 8.67415 11.5579C8.66922 11.4836 8.66671 11.4088 8.66671 11.3333C8.66671 10.7371 8.82321 10.1775 9.09737 9.69332C8.96659 9.54525 8.79619 9.42734 8.59398 9.357ZM3.47277 12.1481H8.76701C8.8764 12.5835 9.07142 12.9849 9.33313 13.3333H2.86065L2.67883 13.0963C1.80004 11.9585 1.33337 10.6014 1.33337 9.18514C1.33337 5.58811 4.32125 2.66663 8.00004 2.66663C11.6788 2.66663 14.6667 5.58811 14.6667 9.18514C14.6667 9.23377 14.6662 9.28231 14.6651 9.33078C14.3317 8.8879 13.8906 8.53077 13.3806 8.29841C13.3701 8.23625 13.3583 8.17431 13.3455 8.11255L13.1063 8.18792C12.7836 8.07443 12.4382 8.0092 12.0787 8.00087C12.0621 7.9707 12.0479 7.93873 12.0364 7.90514C11.9334 7.59107 12.1031 7.25922 12.4243 7.15848L12.9637 6.98663C12.1819 5.30959 10.5516 4.1007 8.6061 3.88737V4.4444C8.6061 4.77033 8.33337 5.037 8.00004 5.037C7.66671 5.037 7.39398 4.77033 7.39398 4.4444V3.88737C4.67277 4.18366 2.5455 6.44737 2.5455 9.18514C2.5455 10.2459 2.86671 11.2651 3.47277 12.1481ZM9.33337 11.3333C9.33337 9.85996 10.5267 8.66663 12 8.66663C13.4734 8.66663 14.6667 9.85996 14.6667 11.3333C14.6667 12.8066 13.4734 14 12 14C10.5267 14 9.33337 12.8066 9.33337 11.3333ZM12.6667 13.3333V12H14V10.6666H12.6667V9.33329H11.3334V10.6666H10V12H11.3334V13.3333H12.6667Z"/>
</svg>
