<svg viewBox="0 0 24 24"
    xmlns="http://www.w3.org/2000/svg">
    <path d="M12 14C17.607 14 22 11.364 22 8C22 4.636 17.607 2 12 2C6.393 2 2 4.636 2 8C2 11.364 6.393 14 12 14ZM12 4C16.714 4 20 6.108 20 8C20 9.892 16.714 12 12 12C7.286 12 4 9.892 4 8C4 6.108 7.286 4 12 4ZM19.627 17.126C18.644 18.641 15.785 20 12 20C8.215 20 5.356 18.641 4.373 17.126C3.44 16.566 2.674 15.898 2.108 15.147C2.044 15.426 2 15.709 2 16C2 19.364 6.393 22 12 22C17.607 22 22 19.364 22 16C22 15.709 21.956 15.426 21.892 15.146C21.325 15.898 20.56 16.566 19.627 17.126ZM19.627 13.126C18.644 14.641 15.785 16 12 16C8.215 16 5.356 14.641 4.373 13.126C3.44 12.566 2.674 11.898 2.108 11.147C2.044 11.426 2 11.709 2 12C2 15.364 6.393 18 12 18C17.607 18 22 15.364 22 12C22 11.709 21.956 11.426 21.892 11.146C21.325 11.898 20.56 12.566 19.627 13.126Z" />
</svg>
