<svg width="18" height="18" viewBox="0 0 18 18" xmlns="http://www.w3.org/2000/svg">
    <path d="M13.7799 4.82995L12.8499 1.36995C12.7399 0.96995 12.3299 0.72995 11.9299 0.83995C11.5299 0.94995 11.2899 1.35995 11.3999 1.75995L11.5999 2.51995C10.7999 2.19995 9.92994 1.99995 8.99994 1.99995C6.41994 1.99995 4.16994 3.39995 2.95994 5.47995L4.06994 6.58995C4.95994 4.75995 6.82994 3.49995 8.99994 3.49995C9.77994 3.49995 10.5199 3.67995 11.1999 3.97995L9.93994 4.31995C9.73994 4.36995 9.57994 4.49995 9.47994 4.66995C9.37994 4.83995 9.34994 5.03995 9.40994 5.23995C9.51994 5.63995 9.92994 5.87995 10.3299 5.76995L13.7799 4.82995ZM3.52994 9.58995L4.46994 10.53C4.61994 10.68 4.80994 10.75 4.99994 10.75C5.18994 10.75 5.37994 10.68 5.52994 10.53C5.81994 10.24 5.81994 9.75995 5.52994 9.46995L2.99994 6.93995L0.469941 9.46995C0.179941 9.75995 0.179941 10.24 0.469941 10.53C0.759941 10.82 1.23994 10.82 1.52994 10.53L2.07994 9.97995C2.55994 13.37 5.45994 15.98 8.97994 16L9.38994 14.48C9.25994 14.49 9.13994 14.5 9.00994 14.5C6.16994 14.5 3.82994 12.35 3.52994 9.58995ZM14.0599 14.7L13.3099 14.5C14.9399 13.22 15.9999 11.23 15.9999 8.99995C15.9999 7.72995 15.6599 6.54995 15.0699 5.51995L13.5599 5.91995C14.1499 6.79995 14.4999 7.84995 14.4999 8.98995C14.4999 10.8 13.6099 12.4 12.2599 13.4L12.5899 12.15C12.6399 11.95 12.6099 11.75 12.5199 11.58C12.4199 11.41 12.2599 11.28 12.0599 11.23C11.6599 11.12 11.2499 11.36 11.1399 11.76L10.2099 15.22L13.6699 16.15C14.0699 16.26 14.4799 16.02 14.5899 15.62C14.6999 15.22 14.4599 14.81 14.0599 14.7Z"/>
</svg>
