<svg width="18" height="18" viewBox="0 0 18 18" xmlns="http://www.w3.org/2000/svg">
  <path d="M15.52 5.97981L15.29 5.22981V5.13981V5.10981C15.37 5.04981 15.41 4.93982 15.38 4.83981C15.23 4.29981 14.89 3.69981 14.43 3.15981C14.04 2.69981 13.25 2.02981 12.92 1.92981C12.87 1.90981 12.82 1.91981 12.77 1.92981C12.76 1.91981 12.76 1.90981 12.75 1.88981C12.71 1.77981 12.61 1.71981 12.55 1.68981C12.34 1.59981 12.13 1.59981 11.95 1.66981C11.89 1.68981 11.85 1.68981 11.79 1.65981C11.66 1.57981 11.52 1.50981 11.36 1.45981C11.1 1.36981 10.85 1.27981 10.59 1.19981L10.33 1.10981C10.3 1.09981 10.24 1.09981 10.2 1.09981C10.13 1.09981 10.07 1.12981 10.03 1.17981C9.96997 1.16981 9.90997 1.16981 9.83997 1.16981C9.82997 1.14981 9.81997 1.13981 9.80997 1.12981C9.76997 1.07981 9.70997 1.03981 9.63997 1.03981L9.42997 1.01981C9.32997 1.00981 9.25997 1.05981 9.20997 1.12981C9.15997 1.12981 9.10997 1.11981 9.05997 1.10981C9.05997 1.10981 9.04997 1.10981 9.03997 1.10981C9.00997 1.02981 8.93997 0.969814 8.85997 0.949814C8.78997 0.929814 8.71997 0.929814 8.64997 0.949814L8.19997 1.02981C8.18997 1.01981 8.17997 1.01981 8.17997 1.00981C8.10997 0.969814 8.02997 0.969814 7.95997 0.999814C7.81997 1.05981 7.66997 1.11981 7.52997 1.18981C6.89997 1.45981 6.24997 1.72981 5.67997 2.16981C5.59997 2.14981 5.49997 2.17981 5.42997 2.23981L4.92997 2.70981C4.75997 2.86981 4.58997 3.02981 4.41997 3.19981C4.29997 3.31981 4.14997 3.48981 4.05997 3.71981C4.02997 3.73981 3.96997 3.78981 3.93997 3.85981L3.78997 4.18981C3.72997 4.31981 3.67997 4.43981 3.61997 4.56981C3.59997 4.61981 3.56997 4.66981 3.52997 4.68981L3.50997 4.69981C3.49997 4.69981 3.47997 4.70981 3.46997 4.70981C3.51997 4.60981 3.51997 4.49981 3.48997 4.38981C3.44997 4.26981 3.34997 4.19981 3.20997 4.20981L3.11997 4.21981C3.01997 4.22981 2.92997 4.33981 2.89997 4.43981L2.82997 4.70981C2.79997 4.80981 2.83997 4.90981 2.91997 4.96981C2.99997 5.02981 3.10997 5.03981 3.19997 4.97981C3.21997 4.96981 3.23997 4.95982 3.25997 4.93982C3.16997 5.12981 3.08997 5.31981 3.00997 5.50981C2.98997 5.48981 2.96997 5.46981 2.93997 5.45981C2.84997 5.40981 2.72997 5.41982 2.64997 5.48981C2.46997 5.65981 2.40997 5.88981 2.49997 6.13981C2.52997 6.23981 2.61997 6.30981 2.71997 6.30981C2.65997 6.47981 2.60997 6.64981 2.56997 6.80981C2.54997 6.87981 2.54997 6.94981 2.55997 6.97982L2.57997 7.10981C2.58997 7.17981 2.59997 7.23981 2.59997 7.30981C2.59997 7.46981 2.59997 7.62981 2.58997 7.78981L2.57997 8.14981C2.57997 8.24981 2.57997 8.34981 2.57997 8.44981C2.57997 8.56981 2.57997 8.68981 2.57997 8.80981C2.54997 9.59981 2.64997 10.3798 2.84997 11.1098C3.26997 12.5998 4.04997 13.9198 5.17997 15.0198C6.10997 15.9398 7.16997 16.5598 8.31997 16.8798C8.70997 16.9898 9.10997 16.9998 9.48997 17.0198H9.57997C9.61997 17.0198 9.64997 17.0198 9.68997 17.0198C9.71997 17.0198 9.74997 17.0198 9.76997 17.0198H9.84997C9.98997 17.0198 10.1 16.9298 10.1 16.7898C10.12 16.6598 10.03 16.5298 9.89997 16.5098L9.25997 16.3898C9.02997 16.3498 8.76997 16.2998 8.55997 16.1798C8.39997 16.0898 8.25997 15.9498 8.12997 15.8098C8.07997 15.7598 8.03997 15.7098 7.98997 15.6598L7.93997 15.5998C7.84997 15.5098 7.70997 15.5098 7.60997 15.5798C7.56997 15.5598 7.52997 15.5398 7.49997 15.5098C7.43997 15.4698 7.37997 15.4298 7.31997 15.3998C7.32997 15.3498 7.32997 15.3098 7.31997 15.2598C7.29997 15.1798 7.23997 15.1198 7.15997 15.0998C6.98997 15.0398 6.85997 14.9298 6.71997 14.7398C6.59997 14.5798 6.45997 14.5398 6.34997 14.5498L6.32997 14.5198C6.20997 14.3498 6.09997 14.2098 6.06997 14.0298C6.04997 13.9298 5.95997 13.8698 5.85997 13.8498C5.84997 13.8498 5.83997 13.8498 5.82997 13.8498C5.68997 13.6598 5.55997 13.4698 5.41997 13.2798C5.40997 13.2598 5.39997 13.2398 5.38997 13.2298C5.41997 13.1398 5.39997 13.0398 5.33997 12.9798L5.29997 12.9298C5.26997 12.8998 5.23997 12.8698 5.21997 12.8398C5.22997 12.8198 5.23997 12.7898 5.23997 12.7798C5.25997 12.7098 5.23997 12.6298 5.19997 12.5698C5.13997 12.4898 5.07997 12.4098 5.02997 12.3298C5.03997 12.3198 5.05997 12.3098 5.06997 12.2898C5.12997 12.2198 5.13997 12.1198 5.10997 12.0398C5.01997 11.8098 4.92997 11.6198 4.80997 11.4498C4.64997 11.2198 4.44997 11.1698 4.30997 11.1498C4.23997 11.0498 4.18997 10.9298 4.13997 10.7998C4.13997 10.7898 4.14997 10.7798 4.14997 10.7698C4.17997 10.6998 4.16997 10.6298 4.13997 10.5698L4.10997 10.4998C4.07997 10.4398 4.05997 10.3898 4.02997 10.3398C4.01997 10.3198 4.01997 10.3098 4.01997 10.2698C4.02997 10.1898 4.03997 10.1098 4.04997 10.0198C4.04997 9.95981 4.03997 9.89981 4.00997 9.82981C3.98997 9.78981 3.96997 9.74981 3.94997 9.70982C3.91997 9.64981 3.89997 9.58982 3.87997 9.53981C3.78997 9.15981 3.82997 8.76981 3.85997 8.34981C3.86997 8.19981 3.88997 8.03981 3.90997 7.88981C3.92997 7.69981 3.94997 7.50981 3.95997 7.31981C3.97997 7.06981 4.03997 6.85981 4.13997 6.66981C4.21997 6.51981 4.29997 6.36981 4.36997 6.21981L4.43997 6.07981C4.45997 6.02981 4.47997 5.97981 4.52997 5.87981C4.55997 5.80981 4.55997 5.73981 4.52997 5.66981L4.59997 5.57981C4.71997 5.41981 4.84997 5.26981 4.97997 5.11981C5.32997 4.73981 5.61997 4.48981 5.91997 4.29981C6.03997 4.21981 6.12997 4.17981 6.21997 4.17981C6.43997 4.16981 6.53997 4.01981 6.59997 3.91981C6.62997 3.86981 6.63997 3.80981 6.63997 3.74981C6.82997 3.60981 7.01997 3.54981 7.22997 3.53981C7.30997 3.53981 7.53997 3.52981 7.71997 3.32981C7.74997 3.29981 7.76997 3.24981 7.77997 3.20981C7.82997 3.18981 7.87997 3.15981 7.92997 3.12981C8.16997 2.96981 8.44997 2.87981 8.76997 2.84981C8.80997 2.85981 8.89997 2.87981 8.92997 2.87981L9.11997 2.85981C9.20997 2.84981 9.28997 2.83981 9.37997 2.82981C9.70997 2.80981 10.06 2.82981 10.4 2.88981C10.91 2.97981 11.27 3.09981 11.59 3.28981C12.14 3.61981 12.59 4.07981 12.98 4.68981C13.33 5.23981 13.51 5.74981 13.54 6.27981C13.54 6.32981 13.57 6.38981 13.6 6.43982V6.88981C13.6 7.13981 13.6 7.38981 13.59 7.64981C13.59 7.70981 13.58 7.75982 13.57 7.82981L13.55 7.95981C13.54 8.02981 13.56 8.08981 13.6 8.14981C13.58 8.22981 13.55 8.29982 13.53 8.37982C13.5 8.46982 13.47 8.55981 13.41 8.67981C13.17 8.77982 13.05 9.02981 13.09 9.31981L12.92 9.46981C12.77 9.60981 12.61 9.73981 12.45 9.86981C12.43 9.88981 12.41 9.90981 12.39 9.91981C12.31 9.88981 12.21 9.89981 12.14 9.94981C12.04 10.0298 11.94 10.1098 11.85 10.1998C11.76 10.2898 11.63 10.3498 11.44 10.3898C11.4 10.3898 11.33 10.3898 11.25 10.4198C10.96 10.5398 10.65 10.5698 10.3 10.5098C9.85997 10.4398 9.45997 10.2398 9.09997 9.92982C8.63997 9.52981 8.36997 9.05981 8.26997 8.48981C8.25997 8.40981 8.24997 8.32981 8.23997 8.24981L8.22997 8.12982C8.21997 8.06982 8.19997 8.01981 8.15997 7.97982C8.17997 7.27982 8.43997 6.75981 8.92997 6.38981C9.74997 5.76981 10.58 5.74981 11.46 6.33981C11.56 6.40981 11.71 6.38981 11.79 6.28981C11.87 6.18982 11.87 6.04981 11.78 5.95981C11.28 5.42981 10.74 5.15981 10.11 5.12981C9.37997 5.08981 8.76997 5.32981 8.25997 5.83981C8.14997 5.94981 8.05997 6.06981 7.96997 6.19981C7.89997 6.29981 7.82997 6.38981 7.74997 6.47982C7.67997 6.54982 7.64997 6.62981 7.61997 6.68982L7.48997 7.09981C7.46997 7.15981 7.43997 7.21981 7.40997 7.27982L7.34997 7.41981C7.32997 7.45981 7.29997 7.50981 7.28997 7.63981C7.26997 7.79981 7.25997 7.94981 7.25997 8.10981C7.24997 8.56981 7.32997 8.99981 7.48997 9.38982C7.44997 9.42982 7.41997 9.48981 7.41997 9.54982C7.39997 9.54982 7.36997 9.54982 7.34997 9.54982C7.22997 9.56981 7.13997 9.71982 7.14997 9.83982C7.14997 9.89981 7.13997 9.99981 7.19997 10.0898C7.28997 10.2298 7.38997 10.3698 7.49997 10.5198C7.53997 10.5698 7.57997 10.6198 7.61997 10.6598L7.65997 10.7098C7.73997 10.7998 7.89997 10.8098 7.99997 10.7398C8.39997 11.1398 8.89997 11.4398 9.49997 11.6598C9.97997 11.8298 10.41 11.8998 10.81 11.8598C10.9 11.8498 10.98 11.8298 11.07 11.8098L11.17 11.7898C11.3 11.7598 11.38 11.6198 11.37 11.4898C11.37 11.4698 11.36 11.4598 11.36 11.4398C12.16 11.3098 12.88 10.9398 13.5 10.3498L13.66 10.1998C13.67 10.1998 13.68 10.2098 13.7 10.2098C13.81 10.2298 13.94 10.1598 13.98 10.0598C14.02 9.97981 14.07 9.84981 14.02 9.70982C14.03 9.69981 14.03 9.67981 14.04 9.66981C14.08 9.67981 14.12 9.68981 14.16 9.67982C14.25 9.65981 14.33 9.59981 14.36 9.50981L14.4 9.38982C14.42 9.30981 14.45 9.23981 14.48 9.16981C14.51 9.09981 14.54 9.03981 14.57 8.96981L14.63 8.85981C14.72 8.65981 14.82 8.42981 14.84 8.16981C14.85 8.16981 14.85 8.16981 14.86 8.16981C14.98 8.13981 15.06 8.02981 15.05 7.90981C15.04 7.73981 15.1 7.57981 15.17 7.38981C15.2 7.29981 15.24 7.20981 15.26 7.11981C15.28 7.03981 15.24 6.94981 15.18 6.87982C15.15 6.84981 15.11 6.82981 15.07 6.81981C15.06 6.75981 15.06 6.70981 15.07 6.65981C15.07 6.64981 15.1 6.58981 15.1 6.58981C15.13 6.50981 15.12 6.41982 15.07 6.33981C15.06 6.32981 15.05 6.31981 15.05 6.29981C15.06 6.27981 15.08 6.25981 15.08 6.23981C15.13 6.29981 15.2 6.33981 15.29 6.32981C15.4 6.31981 15.5 6.23981 15.52 6.12981C15.54 6.09981 15.53 6.01981 15.52 5.97981ZM7.55997 7.55981C7.56997 7.55981 7.56997 7.55981 7.55997 7.55981V7.55981ZM14.53 4.92981L14.5 5.04981L14.53 4.92981ZM10.87 9.13982H10.17C10.08 9.13982 10.01 9.19981 9.95997 9.27981C9.90997 9.35981 9.92997 9.46981 9.97997 9.54982C10.01 9.59981 10.07 9.64981 10.13 9.66981C10.13 9.66981 10.13 9.66981 10.14 9.66981C10.29 9.70981 10.43 9.75981 10.58 9.79982C10.6 9.79982 10.62 9.80981 10.64 9.80981C10.71 9.80981 10.8 9.77981 10.85 9.73981L11.04 9.57981C11.12 9.50982 11.15 9.39981 11.11 9.29982C11.06 9.20982 10.97 9.13982 10.87 9.13982ZM12.22 7.98981C12.31 7.96981 12.39 7.89981 12.41 7.79981C12.45 7.61981 12.45 7.45981 12.4 7.29981C12.38 7.21981 12.31 7.14982 12.23 7.12982C12.15 7.10982 12.06 7.12981 11.99 7.18982C11.89 7.27981 11.69 7.53981 11.97 7.89981C12.02 7.95981 12.09 7.99981 12.17 7.99981C12.18 7.99981 12.2 7.99981 12.22 7.98981ZM11.36 9.10981C11.38 9.12981 11.41 9.14981 11.44 9.15981L11.58 9.22982C11.62 9.24981 11.65 9.25981 11.69 9.25981C11.78 9.25981 11.87 9.20982 11.91 9.12982L12.13 8.70981C12.16 8.64981 12.16 8.57981 12.14 8.50981C12.12 8.44981 12.07 8.38981 12.01 8.35981C11.96 8.32981 11.9 8.32981 11.84 8.33981L11.83 8.32981C11.77 8.28981 11.7 8.27981 11.63 8.28981C11.56 8.30981 11.5 8.34981 11.47 8.40981L11.42 8.48981C11.37 8.56981 11.33 8.64982 11.28 8.72982C11.23 8.82981 11.26 8.91981 11.27 8.91981V8.92981C11.28 8.98981 11.31 9.05981 11.36 9.10981Z" fill="#D61C53"/>
</svg>
