<svg viewBox="0 0 24 24"
    xmlns="http://www.w3.org/2000/svg">
    <path d="M4.77734 5.88874H5.88845V4.22207H4.77734V5.88874ZM6.99957 19.7776H8.11068V18.111H6.99957V19.7776ZM8.11068 4.22207H6.99957V5.88874H8.11068V4.22207ZM4.77734 19.7776H5.88845V18.111H4.77734V19.7776ZM15.8885 19.7776H16.9996V18.111H15.8885V19.7776ZM16.4773 15.3665L15.2996 14.1887L12.8329 16.6554V7.34541L15.2996 9.81207L16.4773 8.63319L13.734 5.88874H14.7773V4.22207H13.6662V5.82096L11.9996 4.1543L10.3329 5.82096V4.22207H9.22179V5.88874H10.2651L7.52179 8.63319L8.69957 9.81096L11.1662 7.3443V16.6543L8.69957 14.1876L7.52179 15.3665L10.2662 18.111H9.22179V19.7776H10.3329V18.1787L11.9996 19.8454L13.6662 18.1787V19.7776H14.7773V18.111H13.734L16.4773 15.3665ZM18.1107 19.7776H19.2218V18.111H18.1107V19.7776ZM18.1107 4.22207V5.88874H19.2218V4.22207H18.1107ZM15.8885 5.88874H16.9996V4.22207H15.8885V5.88874Z" />
</svg>
