<svg width="16" height="16" viewBox="0 0 16 16" xmlns="http://www.w3.org/2000/svg">
<path fill-rule="evenodd" clip-rule="evenodd" d="M1 2.93333C1 2.41787 1.34822 2 1.77778 2H4.66667C5.21895 2 5.66667 2.44771 5.66667 3V3.63333H14C14.5523 3.63333 15 4.08105 15 4.63333V12.2667C15 12.7821 14.6518 13.2 14.2222 13.2H1.77778C1.34822 13.2 1 12.7821 1 12.2667V2.93333ZM9.95855 9.26731C10.3228 8.8223 10.54 8.26123 10.54 7.65147C10.54 6.20551 9.31849 5.03333 7.81167 5.03333C6.30485 5.03333 5.08333 6.20551 5.08333 7.65147C5.08333 9.09742 6.30485 10.2696 7.81167 10.2696C8.4471 10.2696 9.03179 10.0612 9.49553 9.71163L10.9364 11.0943C11.0643 11.217 11.2716 11.217 11.3994 11.0943C11.5273 10.9716 11.5273 10.7727 11.3994 10.65L9.95855 9.26731ZM7.81167 9.43199C6.78692 9.43199 5.9562 8.63482 5.9562 7.65147C5.9562 6.66811 6.78692 5.87094 7.81167 5.87094C8.83642 5.87094 9.66715 6.66811 9.66715 7.65147C9.66715 8.63482 8.83642 9.43199 7.81167 9.43199ZM7.95633 6.29713C7.71657 6.27355 7.47449 6.30897 7.25295 6.40005C7.03141 6.49114 6.8377 6.63488 6.6901 6.81772C6.5425 7.00056 6.44587 7.21647 6.40933 7.44508C6.3728 7.67369 6.39755 7.90746 6.48127 8.12434L6.9069 7.97306C6.84997 7.82556 6.83313 7.66658 6.85798 7.51111C6.88283 7.35563 6.94854 7.2088 7.04892 7.08446C7.1493 6.96011 7.28104 6.86236 7.4317 6.80041C7.58237 6.73847 7.74699 6.71438 7.91005 6.73042L7.95633 6.29713Z" />
</svg>
