<svg width="18" height="18" viewBox="0 0 18 18" xmlns="http://www.w3.org/2000/svg">
    <path d="M4 13.5H6V12H4V13.5ZM16.44 9.59L14.62 3.22C14.33 2.21 13.4 1.5 12.35 1.5H5.65C4.6 1.5 3.67 2.21 3.38 3.22L1.56 9.59L1.5 9.79V13.37C1.5 14.82 2.68 16 4.13 16H13.87C15.32 16 16.5 14.82 16.5 13.37V9.79L16.44 9.59ZM15 13.37C15 13.99 14.49 14.5 13.87 14.5H4.13C3.51 14.5 3 13.99 3 13.37V10.75H11.5C12.33 10.75 13 10.08 13 9.25H3.21L4.82 3.63C4.93 3.26 5.27 3 5.65 3H12.34C12.73 3 13.07 3.26 13.17 3.63L15 10V13.37Z" />
</svg>
