<svg width="19" height="18" viewBox="0 0 19 18" xmlns="http://www.w3.org/2000/svg">
<path d="M16.5 9V5.25C16.5 3.45 15.04 2 13.25 2H5.75C3.96 2 2.5 3.46 2.5 5.25V13C2.5 14.66 3.84 16 5.5 16H15.75C16.16 16 16.5 15.66 16.5 15.25C16.5 14.84 16.16 14.5 15.75 14.5H5.5C4.67 14.5 4 13.83 4 13C4 12.17 4.67 11.5 5.5 11.5H13.96C15.35 11.5 16.47 10.38 16.5 9ZM15 8.96C15 9.53 14.53 10 13.96 10H5.5C4.95 10 4.44 10.16 4 10.42V5.25C4 4.29 4.79 3.5 5.75 3.5H13.25C14.22 3.5 15 4.29 15 5.25V8.96ZM5.5 12.5C5.22 12.5 5 12.72 5 13C5 13.28 5.22 13.5 5.5 13.5H14.5C14.78 13.5 15 13.28 15 13C15 12.72 14.78 12.5 14.5 12.5H5.5Z"/>
</svg>
