<svg width="24" height="24" viewBox="0 0 24 24" xmlns="http://www.w3.org/2000/svg">
<path d="M19.5 16H6.5C6.22 16 6 16.22 6 16.5C6 16.78 6.22 17 6.5 17H19.5C19.78 17 20 16.78 20 16.5C20 16.22 19.78 16 19.5 16ZM19.5 18H6.5C6.22 18 6 18.22 6 18.5C6 18.78 6.22 19 6.5 19H19.5C19.78 19 20 18.78 20 18.5C20 18.22 19.78 18 19.5 18ZM22 12.3V5.63C22 3.63 20.37 2 18.37 2H7C4.24 2 2 4.24 2 7V18C2 18.15 2.03 18.3 2.1 18.43C2.53 20.47 4.34 22 6.5 22H21C21.55 22 22 21.55 22 21C22 20.45 21.55 20 21 20H6.5C5.12 20 4 18.88 4 17.5C4 16.12 5.12 15 6.5 15H19.3C20.79 15 22 13.79 22 12.3ZM20 12.3C20 12.69 19.69 13 19.3 13H6.5C5.58 13 4.72 13.28 4 13.76V7C4 5.35 5.35 4 7 4H18.37C19.27 4 20 4.73 20 5.63V12.3Z" />
</svg>
