<svg width="6" height="10" viewBox="0 0 6 10" xmlns="http://www.w3.org/2000/svg">
<path d="M1 8C0.4 8 0 8.4 0 9C0 9.6 0.4 10 1 10C1.6 10 2 9.6 2 9C2 8.4 1.6 8 1 8ZM1 4C0.4 4 0 4.4 0 5C0 5.6 0.4 6 1 6C1.6 6 2 5.6 2 5C2 4.4 1.6 4 1 4ZM5 2C5.6 2 6 1.6 6 1C6 0.4 5.6 0 5 0C4.4 0 4 0.4 4 1C4 1.6 4.4 2 5 2ZM5 8C4.4 8 4 8.4 4 9C4 9.6 4.4 10 5 10C5.6 10 6 9.6 6 9C6 8.4 5.6 8 5 8ZM1 0C0.4 0 0 0.4 0 1C0 1.6 0.4 2 1 2C1.6 2 2 1.6 2 1C2 0.4 1.6 0 1 0ZM5 4C4.4 4 4 4.4 4 5C4 5.6 4.4 6 5 6C5.6 6 6 5.6 6 5C6 4.4 5.6 4 5 4Z"/>
</svg>
