<svg width="16" height="16" viewBox="0 0 16 16" xmlns="http://www.w3.org/2000/svg">
<path fill-rule="evenodd" clip-rule="evenodd" d="M14.8529 6.35088L14.9439 7.03885C14.986 7.37241 15 7.66428 15 7.94225C15 8.22021 14.979 8.51208 14.9369 8.84564L14.8458 9.53361L14.2432 9.87412L13.9279 10.0548C13.8579 10.2424 13.7808 10.4301 13.6967 10.6107L13.7948 10.9582L13.977 11.6253L13.5566 12.1743C13.3463 12.4453 13.1572 12.6607 12.954 12.8623C12.7578 13.0569 12.5405 13.2445 12.2673 13.453L11.7137 13.8699L11.041 13.6892L10.6907 13.5919C10.5085 13.6753 10.3193 13.7518 10.1301 13.8213L9.94795 14.134L9.6046 14.7316L8.91091 14.8219C8.57458 14.8636 8.28028 14.8845 8 14.8845C7.71972 14.8845 7.42543 14.8636 7.08909 14.8219L6.3954 14.7316L6.05205 14.134L5.86987 13.8213C5.68068 13.7518 5.49149 13.6753 5.30931 13.5919L5.10302 13.6492C5.0209 13.7924 4.93865 13.9356 4.85624 14.0786C4.72946 14.2975 4.57605 14.5065 4.42277 14.7154C4.35334 14.81 4.28393 14.9046 4.21703 15L4.04084 14.9186C4.14153 14.5653 4.23878 14.2116 4.33256 13.8575L4.28629 13.8699L3.73273 13.453C3.45946 13.2445 3.24224 13.0569 3.03904 12.8553C2.84284 12.6607 2.65365 12.4453 2.44344 12.1743L2.02302 11.6253L2.20521 10.9582L2.3033 10.6107C2.21922 10.4301 2.14214 10.2424 2.07207 10.0548L1.75676 9.87412L1.15415 9.53361L1.06306 8.84564C1.02102 8.51208 1 8.22021 1 7.94225C1 7.66428 1.02102 7.37241 1.06306 7.03885L1.15415 6.35088L1.75676 6.01037L2.07207 5.82969C2.14214 5.64206 2.21922 5.45443 2.3033 5.27375L2.20521 4.92629L2.02302 4.25917L2.44344 3.71019C2.65365 3.43917 2.84284 3.22374 3.04605 3.02222C3.24224 2.82764 3.45946 2.64001 3.73273 2.43153L4.28629 2.01458L4.96597 2.19526L5.31632 2.29255C5.4985 2.20916 5.68769 2.13272 5.87688 2.06323L6.05906 1.75051L6.4024 1.15288L7.0961 1.06254C7.43243 1.02085 7.72673 1 8.00701 1C8.28729 1 8.58158 1.02085 8.91792 1.06254L9.61161 1.15288L9.95496 1.75051L10.1371 2.06323C10.3263 2.13272 10.5155 2.20916 10.6977 2.29255L11.048 2.19526L11.7207 2.01458L11.948 2.18579C12.0003 2.10983 12.0525 2.03386 12.1048 1.9579L12.1748 1.85605C12.3117 1.68121 12.4619 1.51413 12.6245 1.35607C12.8279 1.43643 12.7711 1.55565 12.7235 1.65549C12.7123 1.679 12.7016 1.70144 12.695 1.72204C12.6812 1.76303 12.6674 1.80403 12.6536 1.84503C12.5754 2.07774 12.4972 2.31055 12.4177 2.54317C12.6259 2.70856 12.8016 2.86421 12.968 3.02916C13.1642 3.22374 13.3534 3.43917 13.5636 3.71019L13.984 4.25917L13.8018 4.92629L13.7037 5.27375C13.7878 5.45443 13.8649 5.64206 13.9349 5.82969L14.2503 6.01037L14.8529 6.35088ZM11.9116 3.95075C11.9298 3.96777 11.9479 3.98487 11.966 4.00205C12.1411 4.17578 12.2953 4.35646 12.4424 4.55104L12.2042 5.44054C12.4565 5.85749 12.6386 6.30224 12.7578 6.76783L13.5566 7.21953C13.5846 7.4558 13.6126 7.69902 13.6126 7.94225C13.6126 8.18547 13.5846 8.42869 13.5496 8.66496L12.7508 9.11666C12.6316 9.57531 12.4494 10.0201 12.1972 10.444L12.4424 11.3265C12.2953 11.5211 12.1341 11.7018 11.966 11.8755C11.7908 12.0492 11.6086 12.2021 11.4124 12.348L10.5225 12.1118C10.1021 12.3619 9.65365 12.5426 9.18418 12.6607L8.72873 13.453C8.49049 13.4808 8.24525 13.5085 8 13.5085C7.75476 13.5085 7.50951 13.4877 7.27127 13.453L6.81582 12.6607C6.49052 12.5776 6.17215 12.4636 5.86316 12.3162C6.0917 11.9136 6.31976 11.5108 6.54783 11.1079C6.86098 10.5547 7.17416 10.0015 7.48864 9.44899C7.57729 9.28525 7.6786 9.12626 7.79183 8.9732C7.86607 8.86804 7.98126 8.78822 8.1143 8.74975C8.24735 8.71127 8.38842 8.71699 8.50922 8.76575C8.57529 8.78915 8.63277 8.82462 8.69084 8.86045C8.73707 8.88897 8.78368 8.91773 8.8353 8.94082C8.92689 8.97986 9.01675 9.02106 9.10678 9.06234C9.41691 9.20453 9.72904 9.34764 10.1207 9.4065C10.5734 7.53937 11.2237 5.74165 11.9116 3.95075ZM10.9378 3.65921C10.5131 4.28206 10.0914 4.90636 9.67624 5.53355C9.44704 5.88141 9.21519 6.2058 8.79813 6.42909C8.30972 6.41635 7.881 6.247 7.44682 6.0755C6.95887 5.88276 6.46404 5.6873 5.86986 5.70837C5.61917 7.92001 5.23442 10.1268 4.71747 12.3195L4.58759 12.355C4.39139 12.2091 4.20921 12.0492 4.03403 11.8824C3.85886 11.7087 3.7047 11.528 3.55756 11.3335L3.7958 10.444C3.54354 10.027 3.36136 9.58225 3.24224 9.11666L2.44344 8.66496C2.41542 8.42869 2.39439 8.18547 2.39439 7.94225C2.39439 7.69902 2.41542 7.4558 2.45045 7.21953L3.24925 6.76783C3.36837 6.30918 3.55055 5.86444 3.8028 5.44054L3.55756 4.55799C3.7047 4.36341 3.86587 4.18273 4.03403 4.009C4.20921 3.83527 4.39139 3.68239 4.58759 3.53646L5.47748 3.77273C5.8979 3.52256 6.34635 3.34188 6.81582 3.22374L7.27127 2.43153C7.50951 2.40374 7.75476 2.37594 8 2.37594C8.24525 2.37594 8.49049 2.39679 8.72873 2.43153L9.18418 3.22374C9.64665 3.34188 10.0951 3.52256 10.5225 3.77273L10.9378 3.65921Z"/>
</svg>
