<svg width="16" height="16" viewBox="0 0 16 16" xmlns="http://www.w3.org/2000/svg">
<path d="M8.00003 7.27613C7.60628 7.27613 7.28412 7.6305 7.28412 8.06363C7.28412 8.49675 7.60628 8.85113 8.00003 8.85113C8.39378 8.85113 8.71594 8.49675 8.71594 8.06363C8.71594 7.6305 8.39378 7.27613 8.00003 7.27613Z" />
<path fill-rule="evenodd" clip-rule="evenodd" d="M12.0091 7.473L11.8874 7.39425C11.8791 7.33723 11.8696 7.2802 11.8589 7.22337L12.2252 6.07858L12.2597 6.024L12.2488 6.00494L12.3089 5.81693H13.4856L13.1057 6.36315C13.0265 6.47695 12.9896 6.6211 12.9896 6.76524C12.9896 6.90938 13.0265 7.05353 13.1057 7.16732C13.2587 7.38733 13.512 7.38733 13.665 7.16732L15 5.24794L13.665 3.32856C13.512 3.10855 13.2587 3.10855 13.1057 3.32856C12.9527 3.54856 12.9527 3.91272 13.1057 4.13272L13.4856 4.67895H11.8024L11.6842 5.04711C11.551 4.84636 11.4126 4.6643 11.2646 4.49625L10.7634 3.93713L10.1048 4.2285L9.9473 4.29938C9.7898 4.197 9.62514 4.11038 9.46048 4.0395L9.41753 3.88988L9.20991 3.14175L8.50116 3.05512L8.41526 3.03938L8.36324 3.03201C8.26003 3.01718 8.14044 3 8.00003 3C7.84967 3 7.71722 3.0197 7.61358 3.03511L7.5848 3.03938L7.49889 3.05512L6.79014 3.14175L6.58253 3.88988L6.54673 4.04738C6.38207 4.11825 6.21741 4.21275 6.05991 4.30725L5.90241 4.23638L5.24378 3.945L4.74264 4.50412C4.52071 4.74825 4.32025 5.03175 4.12696 5.37038L4.09416 5.42755L3.87788 4.67895H2.36296L2.70488 4.13272C2.84261 3.91272 2.84261 3.54856 2.70488 3.32856C2.56716 3.10855 2.33921 3.10855 2.20149 3.32856L1 5.24794L2.20149 7.16732C2.33921 7.38733 2.56716 7.38733 2.70488 7.16732C2.77612 7.05353 2.80936 6.90938 2.80936 6.76524C2.80936 6.62109 2.77612 6.47695 2.70488 6.36315L2.36296 5.81693H3.42198L3.91594 7.53236L3.38241 7.86675L3.46116 8.64638C3.47869 8.83141 3.5065 9.01266 3.54293 9.19015L3.42198 9.61017H2.36296L2.70488 9.06395C2.77612 8.95015 2.80936 8.80601 2.80936 8.66186C2.80936 8.51772 2.77612 8.37357 2.70488 8.25978C2.56716 8.03977 2.33921 8.03977 2.20149 8.25978L1 10.1792L2.20149 12.0985C2.33921 12.3186 2.56716 12.3186 2.70488 12.0985C2.84261 11.8785 2.84261 11.5144 2.70488 11.2944L2.36296 10.7481H3.87788L3.95644 10.4763L4.6281 10.5285L4.7856 10.5364C4.78568 10.5365 4.78552 10.5363 4.7856 10.5364L4.84668 10.7481H4.92937C4.99066 10.8328 5.05529 10.9153 5.12207 10.9931L5.09344 11.1664L4.97889 11.9381L5.58025 12.3555C5.8523 12.5445 6.15298 12.702 6.48946 12.828L7.16241 13.0879L7.64207 12.513L7.7423 12.3949C7.83537 12.4028 7.92844 12.4106 8.01435 12.4106C8.10025 12.4106 8.19333 12.4106 8.28639 12.3949L8.38662 12.513L8.86628 13.0879L9.53923 12.828C9.87571 12.6941 10.1764 12.5445 10.4484 12.3555L11.0498 11.9381L10.9353 11.1664L10.9066 10.9931C11.0283 10.8514 11.1429 10.6939 11.2431 10.5364L11.4006 10.5285L11.7238 10.5034L11.8024 10.7481H13.4856L13.1057 11.2944C12.9527 11.5144 12.9527 11.8785 13.1057 12.0985C13.2587 12.3186 13.512 12.3186 13.665 12.0985L15 10.1792L13.665 8.25978C13.512 8.03977 13.2587 8.03977 13.1057 8.25978C13.0265 8.37357 12.9896 8.51772 12.9896 8.66186C12.9896 8.80601 13.0265 8.95015 13.1057 9.06395L13.4856 9.61017H12.3827C12.4698 9.3072 12.5297 8.98594 12.5675 8.64638L12.6463 7.86675L12.0091 7.473ZM8.00003 10.0324C7.01207 10.0324 6.21026 9.15038 6.21026 8.06363C6.21026 6.97688 7.01207 6.09488 8.00003 6.09488C8.98798 6.09488 9.7898 6.97688 9.7898 8.06363C9.7898 9.15038 8.98798 10.0324 8.00003 10.0324Z" />
</svg>
