<svg width="18" height="18" viewBox="0 0 18 18" xmlns="http://www.w3.org/2000/svg">
<path fill-rule="evenodd" clip-rule="evenodd" d="M10.8764 11.9415C10.8764 14.183 9.11323 16 6.93821 16C4.7632 16 3 14.183 3 11.9415C3 9.70008 4.7632 7.88302 6.93821 7.88302C7.70883 7.88302 8.42774 8.11112 9.03487 8.50537L14.3771 3L17 5.70306L15.7624 6.97853L14.3771 5.55093L12.9892 6.98113L14.3745 8.40873L13.1369 9.6842L11.7516 8.25659L10.2725 9.78083C10.6551 10.4065 10.8764 11.1474 10.8764 11.9415ZM9.12611 11.9415C9.12611 13.1867 8.14655 14.1962 6.93821 14.1962C5.72987 14.1962 4.75032 13.1867 4.75032 11.9415C4.75032 10.6963 5.72987 9.6868 6.93821 9.6868C8.14655 9.6868 9.12611 10.6963 9.12611 11.9415Z"/>
<path d="M8.5 3L9 4L10 4.5L9 5L8.5 6L8 5L7 4.5L8 4L8.5 3Z" fill="#FFD700"/>
<path d="M1.66675 6.66675L2.00008 7.33341L2.66675 7.66675L2.00008 8.00008L1.66675 8.66675L1.33341 8.00008L0.666748 7.66675L1.33341 7.33341L1.66675 6.66675Z" fill="#FFA500"/>
<path d="M3.00008 3.33325C3.36827 3.33325 3.66675 3.03478 3.66675 2.66659C3.66675 2.2984 3.36827 1.99992 3.00008 1.99992C2.63189 1.99992 2.33341 2.2984 2.33341 2.66659C2.33341 3.03478 2.63189 3.33325 3.00008 3.33325Z" fill="#FFB6C1"/>
<path d="M3.00008 1.33325V3.99992ZM1.66675 2.66659H4.33341Z" fill="#FFB6C1"/>
<path d="M13 14.2001C13.2946 14.2001 13.5333 13.9613 13.5333 13.6667C13.5333 13.3722 13.2946 13.1334 13 13.1334C12.7054 13.1334 12.4667 13.3722 12.4667 13.6667C12.4667 13.9613 12.7054 14.2001 13 14.2001Z" fill="#98FB98"/>
<path d="M13 12.6667V14.6667ZM12 13.6667H14Z" fill="#98FB98"/>
<path d="M5.33333 6.66667C5.51743 6.66667 5.66667 6.51743 5.66667 6.33333C5.66667 6.14924 5.51743 6 5.33333 6C5.14924 6 5 6.14924 5 6.33333C5 6.51743 5.14924 6.66667 5.33333 6.66667Z" fill="#E6E6FA"/>
<path d="M15.6666 11.3334C15.8507 11.3334 15.9999 11.1842 15.9999 11.0001C15.9999 10.816 15.8507 10.6667 15.6666 10.6667C15.4825 10.6667 15.3333 10.816 15.3333 11.0001C15.3333 11.1842 15.4825 11.3334 15.6666 11.3334Z" fill="#E6E6FA"/>
</svg>
