<svg width="16" height="16" viewBox="0 0 16 16" fill="none" xmlns="http://www.w3.org/2000/svg">
<circle cx="8" cy="8" r="8" fill="#536775"/>
<path d="M12.2301 3.76503C11.5651 3.11003 10.6151 2.84503 9.67511 3.09503C9.22011 3.21503 8.81511 3.47503 8.48511 3.81003L7.29511 5.00003L9.19011 6.89503C9.58011 7.28503 10.2151 7.28503 10.6051 6.89503L8.70511 5.00003L9.23011 4.47503C9.83511 3.87003 10.9101 3.87003 11.5201 4.47503C11.8251 4.78503 11.9951 5.19503 11.9951 5.62503C11.9951 6.05003 11.8201 6.47003 11.5201 6.77003L6.76011 11.53L5.85011 11.66C5.60011 10.96 5.04511 10.405 4.34511 10.155L4.47511 9.24003L7.65011 6.06503L6.94011 5.35503L3.53011 8.76503L3.06011 12.05C3.02011 12.295 3.10011 12.545 3.27511 12.72C3.42011 12.865 3.62011 12.95 3.82011 12.95C3.86011 12.95 3.90011 12.945 3.93511 12.94L7.23011 12.47L12.1951 7.50503C12.5251 7.17503 12.7851 6.77003 12.9051 6.31503C13.1551 5.38003 12.8951 4.43503 12.2301 3.76503ZM4.09011 11.91L4.19511 11.175C4.46511 11.315 4.68511 11.535 4.82511 11.805L4.09011 11.91Z" fill="white"/>
</svg>
