<svg width="24" height="24" viewBox="0 0 24 24" xmlns="http://www.w3.org/2000/svg">
    <path d="M11.865 14.3543L11.209 9.69829V6.54629H13.385V9.69829L12.761 14.3543H11.865ZM12.297 17.9063C11.8383 17.9063 11.5077 17.7996 11.305 17.5863C11.1023 17.373 11.001 17.101 11.001 16.7703V16.4503C11.001 16.1196 11.1023 15.8476 11.305 15.6343C11.5077 15.421 11.8383 15.3143 12.297 15.3143C12.745 15.3143 13.0703 15.421 13.273 15.6343C13.4757 15.8476 13.577 16.1196 13.577 16.4503V16.7703C13.577 17.101 13.4757 17.373 13.273 17.5863C13.0703 17.7996 12.745 17.9063 12.297 17.9063Z" />
</svg>
