<svg width="18" height="18" viewBox="0 0 18 18" xmlns="http://www.w3.org/2000/svg">
    <g clip-path="url(#clip0_1446_32)">
        <path d="M12.12 7.99999C13.16 7.99999 14 7.16 14 6.12V2.88C14 1.84 13.16 1 12.12 1H3.88C2.84 1 2 1.84 2 2.88V9.99999L4 7.99999H12.12ZM3.5 2.88C3.5 2.67 3.67 2.5 3.88 2.5H12.13C12.34 2.5 12.51 2.67 12.51 2.88V6.13C12.51 6.34 12.34 6.51 12.13 6.51H3.5V2.88ZM5.29 3.81C5.2 3.77 5.1 3.75 5 3.75C4.9 3.75 4.8 3.77 4.71 3.81C4.44 3.92 4.25 4.19 4.25 4.5C4.25 4.81 4.44 5.08 4.71 5.19C4.8 5.23 4.9 5.25 5 5.25C5.1 5.25 5.2 5.23 5.29 5.19C5.56 5.08 5.75 4.81 5.75 4.5C5.75 4.19 5.56 3.92 5.29 3.81ZM7.29 3.81C7.2 3.77 7.1 3.75 7 3.75C6.9 3.75 6.8 3.77 6.71 3.81C6.44 3.92 6.25 4.19 6.25 4.5C6.25 4.81 6.44 5.08 6.71 5.19C6.8 5.23 6.9 5.25 7 5.25C7.1 5.25 7.2 5.23 7.29 5.19C7.56 5.08 7.75 4.81 7.75 4.5C7.75 4.19 7.56 3.92 7.29 3.81ZM14.12 8.99999H5.88C4.84 8.99999 4 9.83999 4 10.88V14.13C4 15.17 4.84 16.01 5.88 16.01H14L16 18.01V10.89C16 9.83999 15.16 8.99999 14.12 8.99999ZM14.5 14.5H5.88C5.67 14.5 5.5 14.33 5.5 14.12V10.87C5.5 10.66 5.67 10.49 5.88 10.49H14.13C14.34 10.49 14.51 10.66 14.51 10.87V14.5H14.5ZM11.29 11.81C11.2 11.77 11.1 11.75 11 11.75C10.9 11.75 10.8 11.77 10.71 11.81C10.44 11.92 10.25 12.19 10.25 12.5C10.25 12.81 10.44 13.08 10.71 13.19C10.8 13.23 10.9 13.25 11 13.25C11.1 13.25 11.2 13.23 11.29 13.19C11.56 13.08 11.75 12.81 11.75 12.5C11.75 12.19 11.56 11.92 11.29 11.81ZM13.29 11.81C13.2 11.77 13.1 11.75 13 11.75C12.9 11.75 12.8 11.77 12.71 11.81C12.44 11.92 12.25 12.19 12.25 12.5C12.25 12.81 12.44 13.08 12.71 13.19C12.8 13.23 12.9 13.25 13 13.25C13.1 13.25 13.2 13.23 13.29 13.19C13.56 13.08 13.75 12.81 13.75 12.5C13.75 12.19 13.56 11.92 13.29 11.81Z" />
    </g>
    <defs>
        <clipPath id="clip0_1446_32">
            <rect width="18" height="18" />
        </clipPath>
    </defs>
</svg>
