<svg viewBox="0 0 24 24"
    xmlns="http://www.w3.org/2000/svg">
    <path d="M14.8112 10.3665L18.1112 7.0665V9.49983C18.1112 9.95983 18.4845 10.3332 18.9445 10.3332C19.4045 10.3332 19.7779 9.95983 19.7779 9.49983V5.40094L19.8112 5.36761L19.7779 5.33317V4.22205H18.6667L18.6334 4.18872L18.6001 4.22205H14.5001C14.0401 4.22205 13.6667 4.59539 13.6667 5.05539C13.6667 5.51539 14.0401 5.88872 14.5001 5.88872H16.9323L13.6323 9.18872L14.8112 10.3665ZM9.18896 13.6332L5.88896 16.9321V14.4998C5.88896 14.0398 5.51563 13.6665 5.05563 13.6665C4.59563 13.6665 4.2223 14.0398 4.2223 14.4998V18.5987L4.18896 18.6321L4.2223 18.6665V19.7776H5.33341L5.36674 19.8109L5.40008 19.7776H9.50008C9.96008 19.7776 10.3334 19.4043 10.3334 18.9443C10.3334 18.4843 9.96008 18.1109 9.50008 18.1109H7.06785L10.3679 14.8109L9.18896 13.6332ZM9.50008 5.88872C9.96008 5.88872 10.3334 5.51539 10.3334 5.05539C10.3334 4.59539 9.96008 4.22205 9.50008 4.22205H5.40119L5.36785 4.18872L5.33341 4.22205H4.2223V5.33317L4.18896 5.3665L4.2223 5.39983V9.49983C4.2223 9.95983 4.59563 10.3332 5.05563 10.3332C5.51563 10.3332 5.88896 9.95983 5.88896 9.49983V7.06761L9.18896 10.3676L10.3667 9.18872L7.06785 5.88872H9.50008ZM19.7779 14.4998C19.7779 14.0398 19.4045 13.6665 18.9445 13.6665C18.4845 13.6665 18.1112 14.0398 18.1112 14.4998V16.9321L14.8112 13.6321L13.6334 14.8109L16.9334 18.1109H14.5001C14.0401 18.1109 13.6667 18.4843 13.6667 18.9443C13.6667 19.4043 14.0401 19.7776 14.5001 19.7776H18.599L18.6323 19.8109L18.6656 19.7776H19.7767V18.6665L19.8101 18.6332L19.7767 18.5998V14.4998H19.7779Z" />
</svg>
