<svg width="18" height="18" viewBox="0 0 18 18" xmlns="http://www.w3.org/2000/svg">
<path d="M11.53 7.52973L14.5 4.55973V6.74973C14.5 7.16373 14.836 7.49973 15.25 7.49973C15.664 7.49973 16 7.16373 16 6.74973V3.06073L16.03 3.03073L16 2.99973V1.99973H15L14.97 1.96973L14.94 1.99973H11.25C10.836 1.99973 10.5 2.33573 10.5 2.74973C10.5 3.16373 10.836 3.49973 11.25 3.49973H13.439L10.469 6.46973L11.53 7.52973ZM6.46997 10.4697L3.49997 13.4387V11.2497C3.49997 10.8357 3.16397 10.4997 2.74997 10.4997C2.33597 10.4997 1.99997 10.8357 1.99997 11.2497V14.9387L1.96997 14.9687L1.99997 14.9997V15.9997H2.99997L3.02997 16.0297L3.05997 15.9997H6.74997C7.16397 15.9997 7.49997 15.6637 7.49997 15.2497C7.49997 14.8357 7.16397 14.4997 6.74997 14.4997H4.56097L7.53097 11.5297L6.46997 10.4697ZM6.74997 3.49973C7.16397 3.49973 7.49997 3.16373 7.49997 2.74973C7.49997 2.33573 7.16397 1.99973 6.74997 1.99973H3.06097L3.03097 1.96973L2.99997 1.99973H1.99997V2.99973L1.96997 3.02973L1.99997 3.05973V6.74973C1.99997 7.16373 2.33597 7.49973 2.74997 7.49973C3.16397 7.49973 3.49997 7.16373 3.49997 6.74973V4.56073L6.46997 7.53073L7.52997 6.46973L4.56097 3.49973H6.74997ZM16 11.2497C16 10.8357 15.664 10.4997 15.25 10.4997C14.836 10.4997 14.5 10.8357 14.5 11.2497V13.4387L11.53 10.4687L10.47 11.5297L13.44 14.4997H11.25C10.836 14.4997 10.5 14.8357 10.5 15.2497C10.5 15.6637 10.836 15.9997 11.25 15.9997H14.939L14.969 16.0297L14.999 15.9997H15.999V14.9997L16.029 14.9697L15.999 14.9397V11.2497H16Z" />
</svg>
