<svg width="18" height="18" viewBox="0 0 18 18" xmlns="http://www.w3.org/2000/svg">
  <path d="M7.38102 2.26845L7.38931 2.22215L6.76208 2.06134C6.13876 1.90154 5.48796 2.05713 4.96384 2.49125C4.42542 2.93722 4.07058 3.63573 3.98766 4.41291L3.90935 5.14679H3.43571L3.02196 6.43902H3.77147L3.49817 9.00039L3.08605 12.649C3.04453 13.0167 2.9368 13.3692 2.77032 13.6822C2.61307 13.9779 2.40726 14.231 2.16615 14.4269L2 15.9293L2.03224 16L2.50573 15.691C2.98431 15.3787 3.38886 14.9262 3.68154 14.376C3.93193 13.9052 4.09394 13.3751 4.1564 12.8221L4.56904 9.16874L4.86031 6.43902H5.80982L6.1953 5.23507V5.14679H4.99819L5.05903 4.57655C5.10317 4.16288 5.29204 3.79109 5.57862 3.55371C5.8576 3.32264 6.204 3.23982 6.53577 3.32488L6.8766 3.41226L7.38102 2.26845Z" />
  <path d="M9.1856 8.59786L10.4617 10.7425L9.1856 12.8872L10.0655 13.6366L11.1245 11.8566L12.1836 13.6366L13.0635 12.8872L11.7874 10.7425L13.0635 8.59786L12.1836 7.84846L11.1245 9.6284L10.0655 7.84846L9.1856 8.59786Z" />
  <path d="M6.23359 9.73286C6.49162 7.94365 7.36706 6.48247 8.09717 5.67135L8.25049 5.86891V7.39851C7.82738 8.07332 7.44108 8.96002 7.29794 9.95257C7.12672 11.1399 7.29449 12.5294 8.25049 13.9626V15.4631L8.08978 15.6625C6.36631 13.6742 5.96899 11.5677 6.23359 9.73286Z" />
  <path d="M14.0617 15.6653C14.7918 14.8542 15.6673 13.393 15.9253 11.6038C16.1899 9.76896 15.7926 7.66254 14.0691 5.67419L13.9084 5.87359V7.37414C14.8644 8.80727 15.0322 10.1968 14.861 11.3841C14.7178 12.3767 14.3315 13.2634 13.9084 13.9382V15.4678L14.0617 15.6653Z" />
</svg>
