<svg width="20" height="20" viewBox="0 0 20 20" xmlns="http://www.w3.org/2000/svg">
<path d="M7.17001 7.17001C6.42001 7.93001 6.00001 8.93001 6.00001 10C6.00001 11.07 6.42001 12.07 7.17001 12.83C7.95001 13.61 8.97001 14 10 14C11.03 14 12.05 13.61 12.83 12.83C13.59 12.07 14 11.07 14 10C14 8.93001 13.58 7.93001 12.83 7.17001C11.27 5.61001 8.73001 5.61001 7.17001 7.17001ZM11.41 11.41C10.63 12.19 9.36001 12.19 8.58001 11.41C8.20001 11.03 7.99001 10.53 7.99001 10C7.99001 9.47001 8.20001 8.96001 8.58001 8.59001C8.97001 8.20001 9.48001 8.01001 9.99001 8.01001C10.5 8.01001 11.01 8.20001 11.4 8.59001C11.78 8.97001 11.99 9.47001 11.99 10C11.99 10.53 11.79 11.04 11.41 11.41ZM19.91 8.70001L19.78 7.71001L18.92 7.22001L18.47 6.96001C18.37 6.69001 18.26 6.42001 18.14 6.16001L18.28 5.66001L18.54 4.70001L17.94 3.91001C17.64 3.52001 17.37 3.21001 17.09 2.93001C16.8 2.64001 16.49 2.37001 16.1 2.07001L15.31 1.47001L14.35 1.73001L13.85 1.87001C13.59 1.75001 13.32 1.64001 13.05 1.54001L12.79 1.09001L12.3 0.23001L11.31 0.10001C10.83 0.0400097 10.41 0.0100098 10.01 0.0100098C9.61001 0.0100098 9.19001 0.0400097 8.71001 0.10001L7.72001 0.23001L7.23001 1.09001L6.97001 1.54001C6.70001 1.64001 6.43001 1.75001 6.17001 1.87001L5.67001 1.73001L4.70001 1.47001L3.91001 2.07001C3.52001 2.37001 3.21001 2.64001 2.93001 2.92001C2.64001 3.21001 2.37001 3.52001 2.07001 3.91001L1.47001 4.70001L1.73001 5.66001L1.87001 6.16001C1.75001 6.42001 1.64001 6.69001 1.54001 6.96001L1.09001 7.22001L0.23001 7.71001L0.10001 8.70001C0.0400097 9.18001 0.0100098 9.60001 0.0100098 10C0.0100098 10.4 0.0400097 10.82 0.10001 11.3L0.23001 12.29L1.09001 12.78L1.54001 13.04C1.64001 13.31 1.75001 13.58 1.87001 13.84L1.73001 14.34L1.47001 15.3L2.07001 16.09C2.37001 16.48 2.64001 16.79 2.92001 17.07C3.21001 17.36 3.52001 17.63 3.91001 17.93L4.70001 18.53L5.66001 18.27L6.16001 18.13C6.42001 18.25 6.69001 18.36 6.96001 18.46L7.22001 18.91L7.71001 19.77L8.70001 19.9C9.18001 19.96 9.60001 19.99 10 19.99C10.4 19.99 10.82 19.96 11.3 19.9L12.29 19.77L12.78 18.91L13.04 18.46C13.31 18.36 13.58 18.25 13.84 18.13L14.34 18.27L15.3 18.53L16.09 17.93C16.48 17.63 16.79 17.36 17.07 17.08C17.36 16.79 17.63 16.48 17.93 16.09L18.53 15.3L18.27 14.34L18.13 13.84C18.25 13.58 18.36 13.31 18.46 13.04L18.91 12.78L19.77 12.29L19.9 11.3C19.96 10.82 19.99 10.4 19.99 10C19.99 9.60001 19.97 9.18001 19.91 8.70001ZM17.92 11.04L16.78 11.69C16.61 12.35 16.35 12.99 15.99 13.6L16.34 14.87C16.13 15.15 15.9 15.41 15.66 15.66C15.41 15.91 15.15 16.13 14.87 16.34L13.6 16C13 16.36 12.36 16.62 11.69 16.79L11.04 17.93C10.7 17.97 10.35 18.01 10 18.01C9.65001 18.01 9.30001 17.98 8.96001 17.93L8.31001 16.79C7.65001 16.62 7.01001 16.36 6.40001 16L5.13001 16.35C4.85001 16.14 4.59001 15.91 4.34001 15.67C4.09001 15.42 3.87001 15.16 3.66001 14.88L4.00001 13.6C3.64001 13 3.38001 12.36 3.21001 11.69L2.07001 11.04C2.03001 10.7 2.00001 10.35 2.00001 10C2.00001 9.65001 2.03001 9.30001 2.08001 8.96001L3.22001 8.31001C3.39001 7.65001 3.65001 7.01001 4.01001 6.40001L3.66001 5.13001C3.87001 4.85001 4.10001 4.59001 4.34001 4.34001C4.59001 4.09001 4.85001 3.87001 5.13001 3.66001L6.40001 4.00001C7.00001 3.64001 7.64001 3.38001 8.31001 3.21001L8.96001 2.07001C9.30001 2.03001 9.65001 1.99001 10 1.99001C10.35 1.99001 10.7 2.02001 11.04 2.07001L11.69 3.21001C12.35 3.38001 12.99 3.64001 13.6 4.00001L14.87 3.65001C15.15 3.86001 15.41 4.09001 15.66 4.33001C15.91 4.58001 16.13 4.84001 16.34 5.12001L16 6.40001C16.36 7.00001 16.62 7.64001 16.79 8.31001L17.93 8.96001C17.97 9.30001 18.01 9.65001 18.01 10C18.01 10.35 17.97 10.7 17.92 11.04Z" />
</svg>
