<svg width="24" height="24" viewBox="0 0 24 24">
<path d="M21.0336 8.30736C20.8712 7.92072 20.6041 7.59656 20.2636 7.36614C20.0933 7.24898 19.9076 7.15915 19.7064 7.09666C19.5052 7.03418 19.2924 6.99902 19.0756 6.99902H17.1292C17.2956 6.74517 17.431 6.46788 17.5239 6.16715C17.6168 5.86643 17.6671 5.54228 17.6671 5.21031C17.6671 4.76899 17.5781 4.3433 17.4156 3.96055C17.1718 3.38254 16.7693 2.89436 16.2624 2.54677C16.007 2.37493 15.7284 2.23433 15.4266 2.1406C15.1286 2.05077 14.8113 2 14.4824 2C14.0452 2 13.6233 2.08983 13.2441 2.25386C12.7565 2.46475 12.3348 2.78891 12.0059 3.19898C11.8085 2.94903 11.5724 2.73033 11.3093 2.55067C11.054 2.37883 10.7753 2.23823 10.4735 2.1445C10.1755 2.05077 9.85822 2 9.5293 2C9.09203 2 8.67025 2.08983 8.29102 2.25386C7.71832 2.4999 7.23462 2.90607 6.89022 3.41769C6.71997 3.67546 6.58066 3.95665 6.48779 4.26128C6.39492 4.562 6.34461 4.88615 6.34461 5.21812C6.34461 5.65944 6.43362 6.08514 6.59614 6.46788C6.67353 6.65534 6.77027 6.83109 6.88249 6.99902H4.92834V7.71373V8.42843H9.38226C9.43256 8.43234 9.48286 8.43234 9.53317 8.43234H11.2977V11.9981H4.92834C4.82773 11.9981 4.73872 11.9786 4.65359 11.9434C4.5259 11.8887 4.41754 11.7989 4.34015 11.6856C4.30146 11.627 4.2705 11.5646 4.25115 11.4982C4.23181 11.4318 4.22019 11.3614 4.22019 11.2873V9.14314C4.22019 9.04159 4.23954 8.95177 4.27437 8.86585C4.32854 8.73697 4.41754 8.62761 4.52976 8.5495C4.58781 8.51045 4.64972 8.4792 4.7155 8.45967C4.78129 8.44015 4.85094 8.42843 4.92446 8.42843V7.71373V6.99902C4.63424 6.99902 4.35176 7.05761 4.09637 7.16696C3.71328 7.33099 3.3921 7.60047 3.16379 7.94415C3.0477 8.11599 2.9587 8.30346 2.89679 8.50654C2.83488 8.70962 2.80005 8.92443 2.80005 9.14314V11.2873C2.80005 11.5802 2.85809 11.8653 2.96644 12.123C3.12897 12.5097 3.39597 12.8338 3.7365 13.0642C3.88741 13.1697 4.04994 13.2517 4.22406 13.3103V19.1412C4.22406 19.5318 4.30146 19.9106 4.4485 20.2542C4.6652 20.7658 5.02121 21.2033 5.47395 21.5118C5.69838 21.6642 5.94991 21.7891 6.21691 21.8711C6.48392 21.9531 6.7664 22 7.05663 22H16.9628C17.3498 22 17.7252 21.9219 18.0656 21.7735C18.5726 21.5548 19.006 21.1954 19.3116 20.7386C19.4626 20.512 19.5864 20.2582 19.6676 19.9886C19.7489 19.7192 19.7954 19.4341 19.7954 19.1412V13.3064C19.8302 13.2946 19.8689 13.279 19.9037 13.2634C20.2868 13.0994 20.608 12.8299 20.8363 12.4862C20.9524 12.3144 21.0414 12.127 21.1033 11.9238C21.1652 11.7207 21.2 11.5059 21.2 11.2873V9.14314C21.2 8.85022 21.142 8.56513 21.0336 8.30736ZM13.4956 3.73794C13.6388 3.6403 13.7936 3.5661 13.9561 3.51533C14.1225 3.46456 14.2967 3.43331 14.4824 3.43331C14.73 3.43331 14.9584 3.48409 15.1712 3.57391C15.4885 3.7106 15.7594 3.93712 15.949 4.22222C16.0457 4.36673 16.1192 4.52294 16.1696 4.68698C16.2199 4.85491 16.2508 5.03066 16.2508 5.21812C16.2508 5.46807 16.2005 5.6985 16.1115 5.9133C15.976 6.23354 15.7516 6.50694 15.4692 6.6983C15.326 6.79594 15.1712 6.87014 15.0087 6.92091C14.8771 6.95997 14.7378 6.99122 14.5908 6.99902H12.7179C12.7179 6.4132 12.7179 5.6243 12.7179 5.21812H12.714C12.714 4.96817 12.7643 4.73774 12.8533 4.52294C12.9888 4.2027 13.2132 3.92931 13.4956 3.73794ZM8.84051 6.85842C8.5232 6.72174 8.25233 6.49522 8.06272 6.21011C7.96598 6.06562 7.89246 5.90939 7.84215 5.74536C7.79185 5.57742 7.76089 5.40168 7.76089 5.21422C7.76089 4.96426 7.81119 4.73384 7.90019 4.51904C8.03563 4.19879 8.26007 3.92541 8.54255 3.73404C8.68573 3.6364 8.84051 3.56219 9.00303 3.51142C9.16942 3.46066 9.34356 3.42941 9.5293 3.42941C9.77696 3.42941 10.0053 3.48018 10.2181 3.57001C10.5354 3.7067 10.8063 3.93322 10.9959 4.21832C11.0926 4.36282 11.1661 4.51904 11.2164 4.68307C11.2668 4.85101 11.2977 5.02675 11.2977 5.21422V6.99902H9.5293C9.28165 6.99902 9.05334 6.94826 8.84051 6.85842ZM12.714 8.43234H12.7179V8.42843H14.4824H19.0795C19.1801 8.42843 19.2691 8.44796 19.3542 8.48311C19.482 8.53778 19.5903 8.62762 19.6676 8.74087C19.7064 8.79946 19.7373 8.86194 19.7567 8.92834C19.776 8.99473 19.7876 9.06502 19.7876 9.13923V11.2834C19.7876 11.3849 19.7683 11.4747 19.7335 11.5606C19.6793 11.6895 19.5903 11.7989 19.478 11.877C19.42 11.916 19.3581 11.9473 19.2924 11.9668C19.2265 11.9863 19.1569 11.9981 19.0834 11.9981H12.714V8.43234ZM7.05275 20.5667C6.8554 20.5667 6.66966 20.5276 6.50327 20.4534C6.25175 20.3441 6.03118 20.1644 5.88026 19.934C5.80286 19.8207 5.74482 19.6958 5.70226 19.559C5.65969 19.4263 5.64034 19.2818 5.64034 19.1334V13.4314H11.2977V20.5667H7.05275ZM18.263 19.6958C18.1547 19.9496 17.9767 20.1722 17.7484 20.3246C17.6361 20.4026 17.5123 20.4612 17.3768 20.5042C17.2453 20.5472 17.1021 20.5667 16.9551 20.5667H12.714V13.4314H18.3752V19.1412C18.3752 19.3404 18.3365 19.5278 18.263 19.6958Z"></path>
</svg>