<svg width="24" height="24" viewBox="0 0 24 24" fill="none" xmlns="http://www.w3.org/2000/svg">
<path fill-rule="evenodd" clip-rule="evenodd" d="M11.9992 3C7.02996 3 3 7.02941 3 12.0003C3 15.9766 5.57853 19.3497 9.15488 20.5398C9.60518 20.6226 9.76927 20.3447 9.76927 20.1061C9.76927 19.8928 9.76153 19.3265 9.75711 18.5756C7.25372 19.1193 6.72553 17.3689 6.72553 17.3689C6.31612 16.3291 5.72605 16.0523 5.72605 16.0523C4.9089 15.4943 5.78793 15.5054 5.78793 15.5054C6.69127 15.5689 7.16643 16.433 7.16643 16.433C7.96921 17.8082 9.27312 17.4109 9.78584 17.1805C9.86761 16.5993 10.1002 16.2026 10.3571 15.9777C8.35873 15.7507 6.25756 14.9783 6.25756 11.5295C6.25756 10.5472 6.6084 9.7433 7.18411 9.11455C7.09129 8.88692 6.78244 7.97142 7.27251 6.73271C7.27251 6.73271 8.02778 6.49072 9.74717 7.65539C10.4649 7.45539 11.2351 7.35594 12.0003 7.35207C12.7649 7.35594 13.5346 7.45539 14.2534 7.65539C15.9717 6.49072 16.7258 6.73271 16.7258 6.73271C17.217 7.97142 16.9082 8.88692 16.8159 9.11455C17.3927 9.7433 17.7408 10.5472 17.7408 11.5295C17.7408 14.9871 15.6363 15.7479 13.6318 15.9706C13.9545 16.2485 14.2423 16.7977 14.2423 17.6375C14.2423 18.8403 14.2313 19.811 14.2313 20.1061C14.2313 20.3469 14.3937 20.6271 14.8501 20.5392C18.4237 19.3464 21 15.9755 21 12.0003C21 7.02941 16.97 3 11.9992 3Z" fill="#161514"/>
</svg>
