<svg width="18" height="18" viewBox="0 0 18 18" xmlns="http://www.w3.org/2000/svg">
  <path d="M13.5 11.57C13.5 12.64 12.64 13.5 11.57 13.5H6.43C5.36 13.5 4.5 12.64 4.5 11.57V6.43C4.5 5.36 5.36 4.5 6.43 4.5H6.5C7.33 4.5 8 3.83 8 3H6.43C4.54 3 3 4.54 3 6.43V11.57C3 13.47 4.54 15 6.43 15H11.57C13.47 15 15 13.46 15 11.57V10C14.17 10 13.5 10.67 13.5 11.5V11.57ZM10 3C9.59 3 9.25 3.34 9.25 3.75C9.25 4.16 9.59 4.5 10 4.5H12.44L8.97 7.97C8.68 8.26 8.68 8.74 8.97 9.03C9.12 9.18 9.31 9.25 9.5 9.25C9.69 9.25 9.88 9.18 10.03 9.03L13.5 5.56V8C13.5 8.41 13.84 8.75 14.25 8.75C14.66 8.75 15 8.41 15 8V3H10Z" />
</svg>
