<svg width="16" height="16" viewBox="0 0 16 16" xmlns="http://www.w3.org/2000/svg">
<path d="M2 13.8C2 13.9105 2.08954 14 2.2 14H7.2C7.31046 14 7.4 13.9105 7.4 13.8V9.2C7.4 9.08954 7.31046 9 7.2 9H2.2C2.08954 9 2 9.08954 2 9.2V13.8ZM2 6.8C2 6.91046 2.08954 7 2.2 7H7.2C7.31046 7 7.4 6.91046 7.4 6.8V2.2C7.4 2.08954 7.31046 2 7.2 2H2.2C2.08954 2 2 2.08954 2 2.2V6.8ZM8.6 13.8C8.6 13.9105 8.68954 14 8.8 14H13.8C13.9105 14 14 13.9105 14 13.8V9.2C14 9.08954 13.9105 9 13.8 9H8.8C8.68954 9 8.6 9.08954 8.6 9.2V13.8ZM8.8 2C8.68954 2 8.6 2.08954 8.6 2.2V6.8C8.6 6.91046 8.68954 7 8.8 7H13.8C13.9105 7 14 6.91046 14 6.8V2.2C14 2.08954 13.9105 2 13.8 2H8.8Z" />
</svg>
