<svg width="13" height="13" viewBox="0 0 13 13" xmlns="http://www.w3.org/2000/svg">
<path d="M1.33333 1.33333H3.55556V0H0V3.55556H1.33333V1.33333ZM8.88889 0V1.33333H11.1111V3.55556H12.4444V0H8.88889ZM11.1111 11.1111H8.88889V12.4444H12.4444V8.88889H11.1111V11.1111ZM2.66667 9.77778H9.77778V2.66667H2.66667V9.77778ZM7.11111 3.55556H8.88889V5.33333H7.11111V3.55556ZM7.11111 7.11111H8.88889V8.88889H7.11111V7.11111ZM3.55556 3.55556H5.33333V5.33333H3.55556V3.55556ZM3.55556 7.11111H5.33333V8.88889H3.55556V7.11111ZM1.33333 8.88889H0V12.4444H3.55556V11.1111H1.33333V8.88889Z" />
</svg>
