<svg width="14" height="12" viewBox="0 0 14 12" xmlns="http://www.w3.org/2000/svg">
<path d="M6.25 1.5H7.25V5.25H2.75V1.5H3.75V0H0.25V1.5H1.25V10.5H0.25V12H3.75V10.5H2.75V6.75H7.25V10.5H6.25V12H9.75V10.5H8.75V1.5H9.75V0H6.25V1.5ZM12.15 10.56L13.56 9.15C13.84 8.87 14 8.49 14 8.09V7.5C14 6.67 13.33 6 12.5 6C11.67 6 11 6.67 11 7.5V8H12V7.5C12 7.22 12.22 7 12.5 7C12.78 7 13 7.22 13 7.5V8.09C13 8.22 12.95 8.35 12.85 8.44L11.44 9.85C11.16 10.13 11 10.51 11 10.91V12H14V11H12V10.91C12 10.78 12.05 10.65 12.15 10.56Z" />
</svg>
