<svg width="24" height="24" viewBox="0 0 24 24" fill="none" xmlns="http://www.w3.org/2000/svg">
<path d="M3 13H21C21.5523 13 22 12.5523 22 12C22 11.4477 21.5523 11 21 11H3C2.44772 11 2 11.4477 2 12C2 12.5523 2.44772 13 3 13Z" fill="#F2F3F5"/>
<path d="M3 7H21C21.5523 7 22 6.55228 22 6C22 5.44772 21.5523 5 21 5H3C2.44772 5 2 5.44772 2 6C2 6.55228 2.44772 7 3 7Z" fill="#F2F3F5"/>
<path d="M3 19H21C21.5523 19 22 18.5523 22 18C22 17.4477 21.5523 17 21 17H3C2.44772 17 2 17.4477 2 18C2 18.5523 2.44772 19 3 19Z" fill="#F2F3F5"/>
</svg>
