<svg width="12" height="11" viewBox="0 0 12 11" xmlns="http://www.w3.org/2000/svg">
  <path
     d="M10.5065 1.27526C10.2117 0.97686 9.86053 0.739947 9.47346 0.578252C9.08639 0.416558 8.67107 0.333298 8.25158 0.333298C7.83209 0.333298 7.41677 0.416558 7.0297 0.578252C6.64262 0.739947 6.29149 0.97686 5.99666 1.27526C5.70182 0.97686 5.35069 0.739947 4.96361 0.578252C4.57654 0.416558 4.16122 0.333298 3.74173 0.333298C3.32224 0.333298 2.90692 0.416558 2.51985 0.578252C2.13278 0.739947 1.78165 0.97686 1.48681 1.27526C0.890071 1.88061 0.555542 2.6965 0.555542 3.54652C0.555542 4.39655 0.890071 5.21243 1.48681 5.81779L5.60994 9.96816C5.66058 10.0192 5.72082 10.0597 5.78719 10.0874C5.85356 10.115 5.92475 10.1293 5.99666 10.1293C6.06856 10.1293 6.13975 10.115 6.20612 10.0874C6.27249 10.0597 6.33274 10.0192 6.38337 9.96816L10.5065 5.81779C11.1072 5.21451 11.4444 4.39785 11.4444 3.54652C11.4444 2.6952 11.1072 1.87853 10.5065 1.27526Z" />
</svg>
  