<svg width="18" height="18" viewBox="0 0 18 18" xmlns="http://www.w3.org/2000/svg">
    <path fill-rule="evenodd" clip-rule="evenodd"
        d="M14.0855 4.91668L14.0827 4.91395C13.7967 4.62442 13.456 4.39455 13.0804 4.23767C12.7049 4.08078 12.3019 4 11.8949 4C11.4879 4 11.0849 4.08078 10.7094 4.23767C10.3338 4.39455 9.99312 4.62442 9.70706 4.91394L8.99572 5.63388L8.28438 4.91394C7.99831 4.62442 7.65762 4.39455 7.28206 4.23767C6.9065 4.08078 6.50354 4 6.09653 4C5.68952 4 5.28656 4.08078 4.911 4.23767C4.53561 4.39448 4.19507 4.6242 3.90908 4.91353C3.32655 5.5047 3 6.30133 3 7.13129C3 7.96083 3.32622 8.75707 3.90819 9.34813C3.90862 9.34858 3.90906 9.34902 3.9095 9.34947L8.99572 14.4693L14.0855 9.3459C14.6712 8.75768 15 7.96139 15 7.13129C15 6.3012 14.6712 5.5049 14.0855 4.91668ZM3.19734 10.0515C2.43011 9.27318 2 8.22418 2 7.13129C2 6.0384 2.43011 4.98941 3.19734 4.21109C3.57642 3.82744 4.02787 3.52283 4.52554 3.31494C5.02321 3.10705 5.55719 3 6.09653 3C6.63587 3 7.16985 3.10705 7.66752 3.31494C8.13505 3.51025 8.5618 3.7909 8.92606 4.14227C8.94954 4.16492 8.97276 4.18786 8.99572 4.21109C9.01867 4.18787 9.04188 4.16493 9.06535 4.14229C9.42962 3.79091 9.85638 3.51025 10.3239 3.31494C10.8216 3.10705 11.3556 3 11.8949 3C12.4342 3 12.9682 3.10705 13.4659 3.31494C13.9636 3.52283 14.415 3.82744 14.7941 4.21109C15.5664 4.98673 16 6.03673 16 7.13129C16 8.22586 15.5664 9.27585 14.7941 10.0515L9.49292 15.3877C9.42782 15.4533 9.35037 15.5054 9.26503 15.541C9.1797 15.5765 9.08816 15.5948 8.99572 15.5948C8.90327 15.5948 8.81174 15.5765 8.7264 15.541C8.64107 15.5054 8.56361 15.4533 8.49851 15.3877L3.19734 10.0515Z" />
</svg>