<svg width="14" height="12" viewBox="0 0 14 12" xmlns="http://www.w3.org/2000/svg">
  <path fill-rule="evenodd" clip-rule="evenodd"
    d="M5.59243 0.861912C5.21528 0.732807 4.81886 0.666656 4.41913 0.666656C3.93971 0.666656 3.46507 0.761811 3.0227 0.946605C2.58032 1.1314 2.17903 1.40216 1.84207 1.74318C1.16009 2.43502 0.777771 3.36745 0.777771 4.33891C0.777771 5.31038 1.16009 6.24281 1.84207 6.93464L6.15522 11.2763L7.43877 8.38831L5.58077 6.53032L5.10611 6.05565L5.52545 5.53147L7.00346 3.68397L5.59243 0.861912ZM7.76395 11.35L12.1503 6.93464C12.8368 6.24519 13.2222 5.31186 13.2222 4.33891C13.2222 3.36597 12.8368 2.43264 12.1503 1.74318C11.8133 1.40216 11.412 1.1314 10.9697 0.946605C10.5273 0.761811 10.0527 0.666656 9.57324 0.666656C9.09383 0.666656 8.61918 0.761811 8.17681 0.946605C7.9374 1.04661 7.71002 1.1718 7.49836 1.31968L8.5597 3.44236L8.77431 3.87157L8.47453 4.24629L7.1161 5.94433L8.86366 7.69188L9.22789 8.05611L9.01869 8.52682L7.76395 11.35Z" />
</svg>
  