<svg width="20" height="21" viewBox="0 0 20 21" xmlns="http://www.w3.org/2000/svg">
<path d="M10 12.2C9.28 12.2 8.7 12.78 8.7 13.5C8.7 14.22 9.28 14.8 10 14.8C10.72 14.8 11.3 14.22 11.3 13.5C11.3 12.78 10.72 12.2 10 12.2ZM13 0C11.8 0 10.73 0.54 10 1.38C9.27 0.54 8.2 0 7 0H0V19H7C8.1 19 9 19.9 9 21H11C11 19.9 11.9 19 13 19H20V0H13ZM18 17H13C11.8 17 10.73 17.54 10 18.38C9.27 17.54 8.2 17 7 17H2V2H7C7.74 2 8.37 2.41 8.72 3H11.28C11.63 2.41 12.26 2 13 2H18V17ZM10.88 5.13C8.85 4.54 7 6.06 7 8H9C9 7.45 9.45 7 10 7C10.55 7 11 7.45 11 8C11 8.37 10.79 8.71 10.46 8.89C9.56 9.36 9 10.34 9 11.44H11C11 11.1 11.16 10.79 11.39 10.67C12.69 9.99 13.35 8.46 12.82 6.95C12.51 6.07 11.77 5.38 10.88 5.13Z" />
</svg>
