<svg width="18" height="18" viewBox="0 0 18 18" xmlns="http://www.w3.org/2000/svg">
<path d="M12 11C13.1 11 14 10.1 14 9C14 8.14 13.46 7.42 12.7 7.13L11.3 10.86C11.52 10.95 11.75 11 12 11ZM11.53 2.27C11.76 1.66 11.31 1 10.65 1C10.26 1 9.91 1.24 9.77 1.61L9.25 3H6C2.69 3 0 5.69 0 9C0 11.9 2.06 14.32 4.8 14.88L4.48 15.74C4.25 16.35 4.7 17.01 5.36 17.01C5.75 17.01 6.1 16.77 6.24 16.4L11.25 3L11.53 2.27ZM7.49 7.68C7.13 7.27 6.6 7 6 7C4.9 7 4 7.9 4 9C4 10.1 4.9 11 6 11C6.09 11 6.17 10.99 6.26 10.97L5.34 13.43C3.17 13.11 1.5 11.25 1.5 9C1.5 6.52 3.52 4.5 6 4.5H8.69L7.49 7.68ZM14.1 3.39L13.58 4.8C15.28 5.44 16.5 7.07 16.5 9C16.5 11.48 14.48 13.5 12 13.5H10.31L9.75 15H12C15.31 15 18 12.31 18 9C18 6.43 16.38 4.24 14.1 3.39Z" />
</svg>
