<svg width="16" height="16" viewBox="0 0 16 16"
  xmlns="http://www.w3.org/2000/svg">
  <g clip-path="url(#clip0_3271_101161)">
    <path d="M10 13L12 13L12 15L13 15L13 13L15 13L15 12L13 12L13 10L12 10L12 12L10 12L10 13Z" />
    <path d="M6 13L8 13L8 12L6 12L6 13Z" />
    <path d="M4 13L4 12L2 12L2 10L1 10L1 12C1 12.2652 1.10536 12.5196 1.29289 12.7071C1.48043 12.8946 1.73478 13 2 13L4 13Z" />
    <path d="M12 8L13 8L13 6L12 6L12 8Z" />
    <path d="M12 2L12 4L13 4L13 2C13 1.73478 12.8946 1.48043 12.7071 1.29289C12.5196 1.10536 12.2652 1 12 1L10 1L10 2L12 2Z" />
    <path d="M1 8L2 8L2 6L1 6L1 8Z" />
    <path d="M6 2L8 2L8 1L6 1L6 2Z" />
    <path d="M2 4L2 2L4 2L4 1L2 1C1.73478 1 1.48043 1.10536 1.29289 1.29289C1.10536 1.48043 1 1.73478 1 2L1 4L2 4Z" />
  </g>
  <defs>
    <clipPath id="clip0_3271_101161">
      <rect width="16" height="16" />
    </clipPath>
  </defs>
</svg>
