<svg width="16" height="16" viewBox="0 0 16 16" xmlns="http://www.w3.org/2000/svg">
<path d="M10.4 2H5.6C3.6 2 2 3.6 2 5.6V10.4C2 12.4 3.6 14 5.6 14H10.4C12.4 14 14 12.4 14 10.4V5.6C14 3.6 12.4 2 10.4 2ZM13 10.4C13 11.8 11.8 13 10.4 13H5.6C4.2 13 3 11.8 3 10.4V5.6C3 4.2 4.2 3 5.6 3H10.4C11.8 3 13 4.2 13 5.6V10.4Z" />
<path d="M8.59766 5.59961V10.2988H9.81055C10.0996 10.2988 10.3047 10.3555 10.4258 10.4688C10.5508 10.5781 10.6133 10.7227 10.6133 10.9023C10.6133 11.0781 10.5508 11.2227 10.4258 11.3359C10.3047 11.4453 10.0996 11.5 9.81055 11.5H6.18359C5.89453 11.5 5.6875 11.4453 5.5625 11.3359C5.44141 11.2227 5.38086 11.0762 5.38086 10.8965C5.38086 10.7207 5.44141 10.5781 5.5625 10.4688C5.6875 10.3555 5.89453 10.2988 6.18359 10.2988H7.39648V5.59961H6.18359C5.89453 5.59961 5.6875 5.54492 5.5625 5.43555C5.44141 5.32227 5.38086 5.17578 5.38086 4.99609C5.38086 4.81641 5.44141 4.67188 5.5625 4.5625C5.6875 4.44922 5.89453 4.39258 6.18359 4.39258L9.81055 4.39844C10.0996 4.39844 10.3047 4.45312 10.4258 4.5625C10.5508 4.67188 10.6133 4.81641 10.6133 4.99609C10.6133 5.17578 10.5508 5.32227 10.4258 5.43555C10.3047 5.54492 10.0996 5.59961 9.81055 5.59961H8.59766Z" />
</svg>
