<svg width="16" height="16" viewBox="0 0 16 16" xmlns="http://www.w3.org/2000/svg">
<path d="M10.5 7.06001L12.53 5.03C12.82 4.74 12.82 4.26 12.53 3.97C12.24 3.68 11.76 3.68 11.47 3.97L11.25 4.19V2H9.75V4.19L9.53 3.97C9.24 3.68 8.76 3.68 8.47 3.97C8.18 4.26 8.18 4.74 8.47 5.03L10.5 7.06001ZM4.53 5.03L4.75 4.81V7.00001H6.25V4.81L6.47 5.03C6.62 5.18 6.81 5.25 7 5.25C7.19 5.25 7.38 5.18 7.53 5.03C7.82 4.74 7.82 4.26 7.53 3.97L5.5 1.94L3.47 3.97C3.18 4.26 3.18 4.74 3.47 5.03C3.76 5.32 4.24 5.32 4.53 5.03ZM12.65 8.00001H3.35C2.6 8.00001 2 8.60001 2 9.35001V12.65C2 13.4 2.6 14 3.35 14H12.65C13.4 14 14 13.4 14 12.65V9.35001C14 8.60001 13.4 8.00001 12.65 8.00001ZM5.5 12H4V10.5H5.5V12Z" />
</svg>
