<svg width="18" height="18" viewBox="0 0 18 18" xmlns="http://www.w3.org/2000/svg">
    <path d="M8.99988 10.2999C8.33988 10.2999 7.79988 10.8399 7.79988 11.4999C7.79988 12.1599 8.33988 12.6999 8.99988 12.6999C9.65988 12.6999 10.1999 12.1599 10.1999 11.4999C10.1999 10.8399 9.65988 10.2999 8.99988 10.2999ZM8.86988 9.61993C9.27988 9.68993 9.67988 9.41993 9.74988 8.99993L10.1099 6.99993C10.1299 6.87993 10.1299 6.73993 10.1099 6.60993C9.99988 5.99993 9.40988 5.58993 8.79988 5.69993C8.18988 5.80993 7.77988 6.38993 7.88988 6.99993L8.24988 8.99993C8.29988 9.30993 8.53988 9.55993 8.86988 9.61993ZM14.8199 4.13993L10.2999 1.52993C9.90988 1.29993 9.45988 1.17993 8.99988 1.17993C8.53988 1.17993 8.08988 1.29993 7.69988 1.52993L3.17988 4.13993C2.37988 4.59993 1.87988 5.46993 1.87988 6.38993V11.6099C1.87988 12.5399 2.37988 13.3999 3.17988 13.8599L7.69988 16.4699C8.08988 16.6999 8.53988 16.8199 8.99988 16.8199C9.45988 16.8199 9.90988 16.6999 10.2999 16.4699L14.8199 13.8599C15.6199 13.3999 16.1199 12.5299 16.1199 11.6099V6.38993C16.1199 5.46993 15.6199 4.59993 14.8199 4.13993ZM14.6199 11.6099C14.6199 11.9999 14.4099 12.3699 14.0699 12.5599L9.54988 15.1699C9.37988 15.2699 9.18988 15.3199 8.99988 15.3199C8.80988 15.3199 8.61988 15.2699 8.44988 15.1699L3.92988 12.5599C3.58988 12.3599 3.37988 11.9999 3.37988 11.6099V6.38993C3.37988 5.99993 3.58988 5.62993 3.92988 5.43993L8.44988 2.82993C8.61988 2.72993 8.80988 2.67993 8.99988 2.67993C9.18988 2.67993 9.37988 2.72993 9.54988 2.82993L14.0699 5.43993C14.4099 5.63993 14.6199 5.99993 14.6199 6.38993V11.6099Z"/>
</svg>
