<svg width="18" height="18" viewBox="0 0 18 18" xmlns="http://www.w3.org/2000/svg">
  <path d="M9.00011 6.99987C9.55211 6.99987 10.0001 6.55187 10.0001 5.99987C10.0001 5.44787 9.55211 4.99987 9.00011 4.99987C8.44811 4.99987 8.00011 5.44787 8.00011 5.99987C8.00011 6.55187 8.44811 6.99987 9.00011 6.99987ZM9.75011 7.99987H8.50011C7.67211 7.99987 7.00011 8.67187 7.00011 9.49987H8.25011V11.2579C7.55711 11.2789 7.00011 11.8409 7.00011 12.5389V12.7499H9.75311C10.4411 12.7499 11.0001 12.1919 11.0001 11.5029V11.2499H9.75011V7.99987ZM9.00011 1.71387C4.98311 1.71387 1.71411 4.98187 1.71411 8.99987C1.71411 13.0179 4.98311 16.2859 9.00011 16.2859C13.0171 16.2859 16.2861 13.0179 16.2861 8.99987C16.2861 4.98187 13.0171 1.71387 9.00011 1.71387ZM9.00011 14.9999C5.68611 14.9999 3.00011 12.3139 3.00011 8.99987C3.00011 5.68587 5.68611 2.99987 9.00011 2.99987C12.3141 2.99987 15.0001 5.68587 15.0001 8.99987C15.0001 12.3139 12.3141 14.9999 9.00011 14.9999Z" />
</svg>
