<svg width="18" height="18" viewBox="0 0 18 18" xmlns="http://www.w3.org/2000/svg">
  <path d="M9.00011 1.71387C4.98311 1.71387 1.71411 4.98187 1.71411 8.99987C1.71411 13.0179 4.98311 16.2859 9.00011 16.2859C13.0171 16.2859 16.2861 13.0179 16.2861 8.99987C16.2861 4.98187 13.0171 1.71387 9.00011 1.71387ZM9.00011 4.99987C9.55211 4.99987 10.0001 5.44787 10.0001 5.99987C10.0001 6.55187 9.55211 6.99987 9.00011 6.99987C8.44811 6.99987 8.00011 6.55187 8.00011 5.99987C8.00011 5.44787 8.44811 4.99987 9.00011 4.99987ZM11.0001 11.5029C11.0001 12.1909 10.4421 12.7499 9.75311 12.7499H7.00011V12.5389C7.00011 11.8409 7.55711 11.2799 8.25011 11.2579V9.49987H7.00011C7.00011 8.67187 7.67211 7.99987 8.50011 7.99987H9.75011V11.2499H11.0001V11.5029Z" />
</svg>
