<svg viewBox="0 0 24 24"
    xmlns="http://www.w3.org/2000/svg">
    <path d="M12.0003 9.77763C12.6137 9.77763 13.1115 9.27985 13.1115 8.66652C13.1115 8.05319 12.6137 7.55541 12.0003 7.55541C11.387 7.55541 10.8892 8.05319 10.8892 8.66652C10.8892 9.27985 11.387 9.77763 12.0003 9.77763ZM12.8337 10.8887H11.4448C10.5248 10.8887 9.77812 11.6354 9.77812 12.5554H11.167V14.5087C10.397 14.5321 9.77812 15.1565 9.77812 15.9321V16.1665H12.837C13.6015 16.1665 14.2226 15.5465 14.2226 14.781V14.4999H12.8337V10.8887ZM12.0003 3.9043C7.53701 3.9043 3.90479 7.53541 3.90479 11.9999C3.90479 16.4643 7.53701 20.0954 12.0003 20.0954C16.4637 20.0954 20.0959 16.4643 20.0959 11.9999C20.0959 7.53541 16.4637 3.9043 12.0003 3.9043ZM12.0003 18.6665C8.31812 18.6665 5.33367 15.6821 5.33367 11.9999C5.33367 8.31763 8.31812 5.33319 12.0003 5.33319C15.6826 5.33319 18.667 8.31763 18.667 11.9999C18.667 15.6821 15.6826 18.6665 12.0003 18.6665Z"/>
</svg>
