<svg width="18" height="18" viewBox="0 0 18 18" xmlns="http://www.w3.org/2000/svg">
  <path d="M0.5 6.25H2.059C2.006 6.756 1.994 7.259 2.048 7.75H2C1.171 7.75 0.5 7.078 0.5 6.25Z" />
  <path d="M1.541 11.145L1.54 11.144L2.833 10.269C3.068 10.712 3.344 11.131 3.669 11.515L3.623 11.546C2.938 12.01 2.005 11.83 1.541 11.145Z" />
  <path d="M2.382 1.614L3.666 2.483C3.343 2.866 3.051 3.275 2.816 3.719L2.783 3.697C2.097 3.233 1.917 2.3 2.382 1.614Z" />
  <path d="M14.337 2.481L15.618 1.614C16.083 2.3 15.903 3.233 15.217 3.697L15.181 3.722C14.944 3.277 14.66 2.862 14.337 2.481Z" />
  <path d="M6.119 6.163C5.893 6.969 5 7 5 7C5 4.791 6.791 3 9 3L9 4C7.636 4 6.47 4.911 6.119 6.163Z" />
  <path fillRule="evenodd" clipRule="evenodd" d="M7.615 0.645C8.074 0.549 8.54 0.5 9 0.5C12.584 0.5 15.5 3.416 15.5 7C15.5 9.236 14.35 11.29 12.5 12.472V13.594C12.5 15.196 11.196 16.5 9.594 16.5H8.406C6.804 16.5 5.5 15.196 5.5 13.594V12.473C3.319 11.079 2.147 8.493 2.598 5.862C3.042 3.276 5.058 1.179 7.615 0.645ZM11 13.594V11.578C12.764 10.806 14 9.049 14 7C14 4.239 11.761 2 9 2C8.647 2 8.287 2.036 7.921 2.113C5.966 2.521 4.414 4.146 4.076 6.115C3.671 8.473 4.926 10.578 6.855 11.5H10C10 12.329 9.328 13 8.5 13H7V13.594C7 14.371 7.63 15 8.406 15H9.594C10.37 15 11 14.371 11 13.594Z" />
  <path d="M14.377 11.546L14.335 11.517C14.659 11.134 14.946 10.721 15.181 10.278L16.46 11.144L16.459 11.145C15.995 11.831 15.063 12.01 14.377 11.546Z" />
  <path d="M16 7C16 6.747 15.984 6.497 15.958 6.25H17.5C17.5 7.079 16.828 7.75 16 7.75H15.954C15.981 7.502 16 7.253 16 7Z" />
</svg>
