<svg width="20" height="22" viewBox="0 0 20 22" fill="none" xmlns="http://www.w3.org/2000/svg">
<path d="M9.99939 3.30238C9.6758 3.30238 9.41345 3.56613 9.41345 3.89145C9.41345 4.21678 9.6758 4.48053 9.99939 4.48053C11.9382 4.48053 13.5156 6.06609 13.5156 8.01498C13.5156 8.34031 13.7779 8.60406 14.1015 8.60406C14.4251 8.60406 14.6875 8.34031 14.6875 8.01498C14.6875 5.41645 12.5844 3.30238 9.99939 3.30238Z" fill="white"/>
<path fill-rule="evenodd" clip-rule="evenodd" d="M17.4757 8.01502C17.4757 3.27186 13.1561 -0.331805 8.39876 0.667411C5.57971 1.25962 3.29782 3.53164 2.69633 6.38353C2.19074 8.78087 2.81401 11.1965 4.41142 13.0019C5.0752 13.7521 5.45401 14.7422 5.45401 15.7123V16.8904C5.45401 17.779 5.97652 18.5447 6.72705 18.8972C7.08767 20.3558 8.39285 21.5 10 21.5C11.6067 21.5 12.9122 20.3561 13.2729 18.8971C14.0235 18.5447 14.546 17.779 14.546 16.8904V15.7122C14.546 14.7446 14.9231 13.7654 15.6249 12.9605C16.8184 11.5917 17.4757 9.83523 17.4757 8.01502ZM7.42297 13.9043H12.5773C12.7766 12.7862 13.2935 12.4916 14.0752 11.5949C14.9392 10.604 15.4149 9.3327 15.4149 8.01502C15.4149 4.58531 12.295 1.96539 8.82027 2.69542C6.79548 3.12076 5.1413 4.7789 4.71225 6.81327C4.34195 8.56893 4.79591 10.3193 5.9512 11.625C6.71256 12.4855 7.22482 12.7865 7.42297 13.9043ZM12.4853 16.8904C12.4853 16.9685 12.4214 17.0327 12.3437 17.0327H7.65625C7.57861 17.0327 7.51473 16.9685 7.51473 16.8904V15.6312H12.4853V16.8904Z" fill="white"/>
<path d="M1.75781 8.01499H0.585937C0.262344 8.01499 0 8.27873 0 8.60406C0 8.92939 0.262344 9.19314 0.585937 9.19314H1.75781C2.08141 9.19314 2.34375 8.92939 2.34375 8.60406C2.34375 8.27873 2.08141 8.01499 1.75781 8.01499Z" fill="white"/>
<path d="M1.17188 4.23667L2.00052 5.06974C2.22935 5.29979 2.22935 5.67276 2.00052 5.90281C1.77169 6.1329 1.40067 6.13286 1.17188 5.90281L0.343252 5.06974C0.114424 4.83968 0.114424 4.46672 0.343252 4.23667C0.57208 4.00661 0.943096 4.00661 1.17188 4.23667Z" fill="white"/>
<path d="M2.00052 11.3056C1.77169 11.0755 1.40067 11.0755 1.17188 11.3056L0.343252 12.1386C0.114424 12.3687 0.114424 12.7417 0.343252 12.9717C0.572041 13.2018 0.943057 13.2018 1.17188 12.9717L2.00052 12.1386C2.22935 11.9086 2.22935 11.5356 2.00052 11.3056Z" fill="white"/>
<path d="M18.2422 8.01499H19.4141C19.7377 8.01499 20 8.27873 20 8.60406C20 8.92939 19.7377 9.19314 19.4141 9.19314H18.2422C17.9186 9.19314 17.6563 8.92939 17.6563 8.60406C17.6563 8.27873 17.9186 8.01499 18.2422 8.01499Z" fill="white"/>
<path d="M19.6568 4.23667C19.428 4.00661 19.057 4.00661 18.8281 4.23667L17.9995 5.06974C17.7707 5.29979 17.7707 5.67276 17.9995 5.90281C18.2283 6.13282 18.5993 6.13286 18.8281 5.90281L19.6568 5.06974C19.8856 4.83968 19.8856 4.46672 19.6568 4.23667Z" fill="white"/>
<path d="M18.8281 11.3056L19.6568 12.1386C19.8856 12.3687 19.8856 12.7417 19.6568 12.9717C19.4279 13.2018 19.0569 13.2017 18.8281 12.9717L17.9995 12.1386C17.7707 11.9086 17.7707 11.5356 17.9995 11.3056C18.2283 11.0755 18.5993 11.0755 18.8281 11.3056Z" fill="white"/>
</svg>
