<svg width="16" height="16" viewBox="0 0 16 16" xmlns="http://www.w3.org/2000/svg">
    <path d="M15.0299 3.97C14.7399 3.68 14.2599 3.68 13.9699 3.97L12.0299 5.91L10.0899 3.97L12.0299 2.03C12.3199 1.74 12.3199 1.26 12.0299 0.970002C11.7399 0.680002 11.2599 0.680002 10.9699 0.970002L9.02994 2.91L7.49994 1.38L4.74994 4.13C3.93994 4.93 3.49994 6.01 3.49994 7.15V7.38L3.22994 7.65C2.03994 8.83 1.95994 10.7 2.93994 12L1.46994 13.47C1.17994 13.76 1.17994 14.24 1.46994 14.53C1.61994 14.68 1.80994 14.75 1.99994 14.75C2.18994 14.75 2.37994 14.68 2.52994 14.53L3.99994 13.06C4.56994 13.5 5.26994 13.74 5.99994 13.74C6.88994 13.74 7.71994 13.39 8.34994 12.77L8.61994 12.5H8.84994C9.98994 12.5 11.0599 12.06 11.8699 11.25L14.6199 8.5L13.0899 6.97L15.0299 5.03C15.3199 4.74 15.3199 4.26 15.0299 3.97ZM10.8099 10.19C10.2899 10.71 9.58994 11 8.84994 11H7.99994L7.28994 11.71C6.92994 12.07 6.46994 12.24 5.99994 12.24C5.52994 12.24 5.06994 12.06 4.70994 11.71L4.28994 11.29C3.57994 10.58 3.57994 9.42 4.28994 8.71L4.46994 8.53L5.40994 9.47C5.99994 10.06 6.94994 10.06 7.52994 9.47L5.01994 6.96C5.06994 6.3 5.33994 5.67 5.80994 5.19L7.49994 3.5L12.4999 8.5L10.8099 10.19Z" />
</svg>
