<svg width="16" height="16" viewBox="0 0 16 16" xmlns="http://www.w3.org/2000/svg">
<path d="M7.22223 1.00157C7.18082 1.00625 7.1388 1.01126 7.0961 1.01662L6.4024 1.10801L6.05906 1.71262L5.87688 2.02899C5.68769 2.09929 5.4985 2.17663 5.31632 2.26099L4.96597 2.16257L4.28629 1.97978L3.73273 2.4016C3.45946 2.61251 3.24224 2.80233 3.04605 2.99918C2.84284 3.20306 2.65365 3.421 2.44344 3.69518L2.02302 4.25058L2.20521 4.9255L2.3033 5.27702C2.21922 5.4598 2.14214 5.64962 2.07207 5.83944L1.75676 6.02223L1.15415 6.36672L1.06306 7.06273C1.02102 7.40018 1 7.69546 1 7.97667C1 8.25789 1.02102 8.55316 1.06306 8.89062L1.15415 9.58663L1.75676 9.93111L2.07207 10.1139C2.14214 10.3037 2.21922 10.4935 2.3033 10.6763L2.20521 11.0278L2.02302 11.7028L2.44344 12.2582C2.65365 12.5323 2.84284 12.7503 3.03904 12.9471C3.24224 13.151 3.45946 13.3408 3.73273 13.5517L4.28629 13.9736L4.95896 13.7908L5.30931 13.6924C5.49149 13.7767 5.68068 13.8541 5.86987 13.9244L6.05205 14.2407L6.3954 14.8453L7.08909 14.9367C7.42543 14.9789 7.71972 15 8 15C8.28028 15 8.57457 14.9789 8.91091 14.9367L9.6046 14.8453L9.94795 14.2407L10.1301 13.9244C10.3193 13.8541 10.5085 13.7767 10.6907 13.6924L11.041 13.7908L11.7137 13.9736L12.2673 13.5517C12.5405 13.3408 12.7578 13.151 12.954 12.9542C13.1572 12.7503 13.3463 12.5323 13.5566 12.2582L13.977 11.7028L13.7948 11.0278L13.6967 10.6763C13.7808 10.4935 13.8579 10.3037 13.9279 10.1139L14.2432 9.93111L14.8458 9.58663L14.9369 8.89062C14.979 8.55316 15 8.25789 15 7.97667C15 7.69546 14.986 7.40018 14.9439 7.06273L14.8529 6.36672L14.2503 6.02223L13.9349 5.83944C13.8649 5.64962 13.7878 5.4598 13.7037 5.27702L13.8018 4.9255L13.984 4.25058L13.5636 3.69518C13.3534 3.421 13.1642 3.20306 12.968 3.00621C12.7648 2.80233 12.5475 2.61251 12.2743 2.4016L11.7207 1.97978L11.048 2.16257L10.6977 2.26099C10.5155 2.17663 10.3263 2.09929 10.1371 2.02899L9.95496 1.71262L9.61161 1.10801L8.91792 1.01662C8.87039 1.01066 8.82371 1.00512 8.77778 1V5.27402C9.21945 5.4011 9.63584 5.63878 9.98298 5.98708C10.3451 6.35045 10.5939 6.79185 10.716 7.2737H10.7222L10.7176 7.28025C10.774 7.50491 10.8028 7.73832 10.8028 7.97667C10.8028 8.25145 10.7635 8.51966 10.6881 8.77548C10.7627 8.52225 10.8028 8.25418 10.8028 7.97667C10.8028 7.73685 10.7729 7.50399 10.7166 7.28174L8.2556 10.7772C9.0862 10.7019 9.81224 10.263 10.2744 9.62035C10.1872 9.74196 10.0899 9.8576 9.98298 9.96626C9.50108 10.4498 8.88851 10.72 8.2556 10.7772L8 11.1403L7.74446 10.7773C7.11156 10.7201 6.49892 10.4498 6.01702 9.96626C5.91612 9.86368 5.82375 9.75488 5.74034 9.6407C6.20312 10.2722 6.92264 10.7028 7.74446 10.7773L5.27778 7.2737H7.22223V5.27416C6.63297 5.44457 6.12345 5.80374 5.76289 6.2822C5.8403 6.17909 5.92513 6.08051 6.01702 5.98708C6.36416 5.63878 6.78056 5.40123 7.22223 5.27416V1.00157Z" />
<path d="M10.7145 7.2737C10.4677 6.31139 9.72596 5.54825 8.77778 5.27402V7.2737H10.7145Z" />
</svg>
