<svg width="16" height="16" viewBox="0 0 16 16" xmlns="http://www.w3.org/2000/svg">
    <path d="M12 5.33331C12 3.12798 10.2053 1.33331 8.00001 1.33331C5.79467 1.33331 4.00001 3.12798 4.00001 5.33331C4.00001 6.41509 4.43556 7.39554 5.13601 8.11554C3.46845 8.51909 2.22223 10.0142 2.22223 11.8035V14.6666H3.55556V11.8035C3.55556 10.4391 4.66134 9.33331 6.02579 9.33331H8.00001C10.2053 9.33331 12 7.53865 12 5.33331Z" />
    <path d="M11.275 14.485L9.145 12.355C8.95 12.16 8.95 11.845 9.145 11.65C9.34 11.455 9.655 11.455 9.85 11.65L11.22 13.02L14.12 9.67499C14.3 9.46499 14.615 9.44499 14.825 9.62499C15.035 9.80499 15.055 10.12 14.875 10.33L11.275 14.485Z" />
</svg>
