<svg width="16" height="16" viewBox="0 0 16 16" xmlns="http://www.w3.org/2000/svg">
  <path d="M13.1 6.2C13 6 12.8 5.9 12.6 5.7C12.4 5.6 12.2 5.4 12 5.3C12 5.3 12 5.3 11.9 5.3C11.7 5.2 11.5 5.1 11.3 5.1H11.2C11 5 10.8 5 10.5 5C10.4 5 10.3 5 10.2 5C9.4 3.8 8 3 6.5 3C4 3 2 5 2 7.5C2 10 4 12 6.5 12H10.5C12.4 12 14 10.4 14 8.5C14 7.6 13.7 6.8 13.1 6.2ZM10.5 11H6.5C4.6 11 3 9.4 3 7.5C3 5.6 4.6 4 6.5 4C7.6 4 8.5 4.5 9.2 5.3C8.5 5.5 7.9 6.1 7.5 6.7L8.4 7.2C8.7 6.7 9.2 6.3 9.8 6.1C9.9 6.1 10 6.1 10 6C10.1 6 10.3 6 10.5 6C10.7 6 10.9 6 11 6.1H11.1C11.2 6.1 11.4 6.2 11.5 6.2C11.5 6.2 11.5 6.2 11.6 6.2C11.7 6.3 11.9 6.4 12 6.5C12.1 6.6 12.3 6.7 12.4 6.9C12.8 7.3 13 7.9 13 8.5C13 9.9 11.9 11 10.5 11Z" />
</svg>
