<svg width="16" height="16" viewBox="0 0 16 16" xmlns="http://www.w3.org/2000/svg">
<path d="M10.4 2H5.6C3.6 2 2 3.6 2 5.6V10.4C2 12.4 3.6 14 5.6 14H10.4C12.4 14 14 12.4 14 10.4V5.6C14 3.6 12.4 2 10.4 2ZM13 10.4C13 11.8 11.8 13 10.4 13H5.6C4.2 13 3 11.8 3 10.4V5.6C3 4.2 4.2 3 5.6 3H10.4C11.8 3 13 4.2 13 5.6V10.4Z" />
<path d="M7.49609 5.59961V10.2988H10.0859V9.16211C10.0859 8.87305 10.1406 8.66797 10.25 8.54688C10.3633 8.42188 10.5098 8.35938 10.6895 8.35938C10.8652 8.35938 11.0078 8.42188 11.1172 8.54688C11.2305 8.66797 11.2871 8.87305 11.2871 9.16211V11.5H5.59766C5.30859 11.5 5.10156 11.4453 4.97656 11.3359C4.85547 11.2227 4.79492 11.0762 4.79492 10.8965C4.79492 10.7207 4.85547 10.5781 4.97656 10.4688C5.10156 10.3555 5.30859 10.2988 5.59766 10.2988H6.29492V5.59961H5.59766C5.30859 5.59961 5.10156 5.54492 4.97656 5.43555C4.85547 5.32227 4.79492 5.17578 4.79492 4.99609C4.79492 4.81641 4.85547 4.67188 4.97656 4.5625C5.10156 4.44922 5.30859 4.39258 5.59766 4.39258L8.19922 4.39844C8.48828 4.39844 8.69336 4.45312 8.81445 4.5625C8.93945 4.67188 9.00195 4.81641 9.00195 4.99609C9.00195 5.17578 8.93945 5.32227 8.81445 5.43555C8.69336 5.54492 8.48828 5.59961 8.19922 5.59961H7.49609Z" />
</svg>
