<svg width="18" height="18" viewBox="0 0 18 18" xmlns="http://www.w3.org/2000/svg">
    <path d="M10.75 11.083L9 8.75L7.25 11.083V5.5H5.75V12.75H7.875L9 11.25L10.125 12.75H12.25V5.5H10.75V11.083ZM11.562 2H6.438C3.987 2 2 3.987 2 6.438V11.562C2 14.013 3.987 16 6.438 16H11.562C14.013 16 16 14.013 16 11.562V6.438C16 3.987 14.013 2 11.562 2ZM14.5 11.562C14.5 13.182 13.182 14.5 11.562 14.5H6.438C4.818 14.5 3.5 13.182 3.5 11.562V6.438C3.5 4.818 4.818 3.5 6.438 3.5H11.562C13.182 3.5 14.5 4.818 14.5 6.438V11.562Z"/>
</svg>
