<svg width="15" height="15" viewBox="0 0 15 15" xmlns="http://www.w3.org/2000/svg">
<path d="M14 3.24C14 1.45 12.55 0 10.76 0H3.24C1.45 0 0 1.45 0 3.24V10.77C0 12.56 1.45 14.01 3.24 14.01H10.77C12.56 14.01 14.01 12.56 14.01 10.77V6.48C13.59 6.8 13.07 7 12.51 7V10.76C12.51 11.72 11.73 12.5 10.77 12.5H3.24C2.28 12.5 1.5 11.72 1.5 10.76V10C2.33 10 3 9.33 3 8.5C3 8.27 2.94 8.05 2.85 7.86L3.86 6.85C4.06 6.94 4.27 7 4.5 7C4.86 7 5.19 6.87 5.45 6.65L8.03 8.2C8.01 8.3 8 8.4 8 8.5C8 9.33 8.67 10 9.5 10C10.33 10 11 9.33 11 8.5C11 8.19 10.91 7.91 10.75 7.67L12.06 5.93C12.2 5.97 12.35 6 12.5 6C13.33 6 14 5.33 14 4.5C14 4.5 14 4.5 14 4.49V3.24ZM11.25 5.33L9.94 7.07C9.8 7.03 9.65 7 9.5 7C9.14 7 8.81 7.13 8.55 7.35L5.97 5.8C5.99 5.7 6 5.6 6 5.5C6 4.67 5.33 4 4.5 4C3.67 4 3 4.67 3 5.5C3 5.73 3.06 5.95 3.15 6.14L2.14 7.15C1.94 7.06 1.73 7 1.5 7V3.24C1.5 2.28 2.28 1.5 3.24 1.5H10.77C11.65 1.5 12.37 2.16 12.48 3C11.66 3.01 11 3.68 11 4.5C11 4.81 11.09 5.09 11.25 5.33Z" />
</svg>
