<svg width="16" height="16" viewBox="0 0 16 16" xmlns="http://www.w3.org/2000/svg">
<path d="M2 2.99998C2 3.36817 2.29848 3.66665 2.66667 3.66665H3.33333C3.70152 3.66665 4 3.36817 4 2.99998C4 2.63179 3.70152 2.33331 3.33333 2.33331H2.66667C2.29848 2.33331 2 2.63179 2 2.99998Z" />
<path d="M6 2.99998C6 3.36817 6.29848 3.66665 6.66667 3.66665H13.3333C13.7015 3.66665 14 3.36817 14 2.99998C14 2.63179 13.7015 2.33331 13.3333 2.33331H6.66667C6.29848 2.33331 6 2.63179 6 2.99998Z" />
<path d="M4 7.99998C4 8.36817 3.70152 8.66665 3.33333 8.66665H2.66667C2.29848 8.66665 2 8.36817 2 7.99998C2 7.63179 2.29848 7.33331 2.66667 7.33331H3.33333C3.70152 7.33331 4 7.63179 4 7.99998Z" />
<path d="M6 7.99998C6 8.36817 6.29848 8.66665 6.66667 8.66665H13.3333C13.7015 8.66665 14 8.36817 14 7.99998C14 7.63179 13.7015 7.33331 13.3333 7.33331H6.66667C6.29848 7.33331 6 7.63179 6 7.99998Z" />
<path d="M4 13C4 13.3682 3.70152 13.6666 3.33333 13.6666H2.66667C2.29848 13.6666 2 13.3682 2 13C2 12.6318 2.29848 12.3333 2.66667 12.3333H3.33333C3.70152 12.3333 4 12.6318 4 13Z" />
<path d="M6 13C6 13.3682 6.29848 13.6666 6.66667 13.6666H13.3333C13.7015 13.6666 14 13.3682 14 13C14 12.6318 13.7015 12.3333 13.3333 12.3333H6.66667C6.29848 12.3333 6 12.6318 6 13Z" />
</svg>
