<svg width="16" height="16" viewBox="0 0 16 16" xmlns="http://www.w3.org/2000/svg">
<path d="M4.03995 3.19882C4.31324 3.46391 4.31324 3.89372 4.03995 4.15881C1.85287 6.28024 1.85287 9.71976 4.03995 11.8412C4.31324 12.1063 4.31324 12.5361 4.03995 12.8012C3.76665 13.0663 3.32355 13.0663 3.05025 12.8012C0.316582 10.1496 0.316582 5.85044 3.05025 3.19882C3.32355 2.93373 3.76665 2.93373 4.03995 3.19882ZM12.9497 3.19882C15.6834 5.85044 15.6834 10.1496 12.9497 12.8012C12.6765 13.0663 12.2333 13.0663 11.9601 12.8012C11.6868 12.5361 11.6868 12.1063 11.9601 11.8412C14.1471 9.71976 14.1471 6.28024 11.9601 4.15881C11.6868 3.89372 11.6868 3.46391 11.9601 3.19882C12.2333 2.93373 12.6765 2.93373 12.9497 3.19882ZM6.11607 5.14931C6.38936 5.4144 6.38936 5.8442 6.11607 6.1093C5.04467 7.14854 5.04467 8.83348 6.11607 9.87272C6.38936 10.1378 6.38936 10.5676 6.11607 10.8327C5.84277 11.0978 5.39967 11.0978 5.12637 10.8327C3.50838 9.26328 3.50838 6.71874 5.12637 5.14931C5.39967 4.88422 5.84277 4.88422 6.11607 5.14931ZM10.9856 5.14931C12.6036 6.71874 12.6036 9.26328 10.9856 10.8327C10.7123 11.0978 10.2692 11.0978 9.99594 10.8327C9.72264 10.5676 9.72264 10.1378 9.99594 9.87272C11.0673 8.83348 11.0673 7.14854 9.99594 6.1093C9.72264 5.8442 9.72264 5.4144 9.99594 5.14931C10.2692 4.88422 10.7123 4.88422 10.9856 5.14931ZM8.056 7.02923C8.63575 7.02923 9.10573 7.48511 9.10573 8.04746C9.10573 8.6098 8.63575 9.06568 8.056 9.06568C7.47625 9.06568 7.00627 8.6098 7.00627 8.04746C7.00627 7.48511 7.47625 7.02923 8.056 7.02923Z"/>
</svg>
