<svg width="16" height="16" viewBox="0 0 16 16" xmlns="http://www.w3.org/2000/svg">
<path d="M2 9.60111C2 9.32497 2.25184 9.10111 2.5625 9.10111H13.4375C13.7482 9.10111 14 9.32497 14 9.60111C14 9.87726 13.7482 10.1011 13.4375 10.1011H2.5625C2.25184 10.1011 2 9.87726 2 9.60111Z" />
<path d="M2 11.6011C2 11.325 2.25184 11.1011 2.5625 11.1011H10.4375C10.7482 11.1011 11 11.325 11 11.6011C11 11.8773 10.7482 12.1011 10.4375 12.1011H2.5625C2.25184 12.1011 2 11.8773 2 11.6011Z" />
<path d="M2 13.6011C2 13.325 2.25184 13.1011 2.5625 13.1011H7.4375C7.74816 13.1011 8 13.325 8 13.6011C8 13.8773 7.74816 14.1011 7.4375 14.1011H2.5625C2.25184 14.1011 2 13.8773 2 13.6011Z" />
<path d="M5.32961 3.15308C5.13195 2.95428 4.80572 2.94833 4.60094 3.13978L2.37073 5.22487C2.24903 5.33865 2.19762 5.49655 2.21743 5.64767C2.15209 5.85642 2.23288 6.08866 2.42976 6.20984L5.05564 7.82612C5.29294 7.97219 5.60902 7.9016 5.76164 7.66845C5.91425 7.43531 5.8456 7.12791 5.6083 6.98185L3.41875 5.63414L5.31671 3.85968C5.52149 3.66823 5.52726 3.35187 5.32961 3.15308Z" />
<path d="M8.69962 3.25409C8.89727 3.0553 9.22351 3.04935 9.42828 3.2408L11.6585 5.32588C11.7802 5.43967 11.8316 5.59757 11.8118 5.74869C11.8771 5.95743 11.7963 6.18967 11.5995 6.31085L8.97358 7.92714C8.73628 8.0732 8.4202 8.00261 8.26759 7.76947C8.11497 7.53633 8.18363 7.22892 8.42093 7.08286L10.6105 5.73515L8.71251 3.96069C8.50773 3.76924 8.50196 3.45288 8.69962 3.25409Z" />
</svg>
