<svg width="24" height="24" viewBox="0 0 24 24" xmlns="http://www.w3.org/2000/svg">
  <path d="M11.5 19H7.5C7.22 19 7 19.22 7 19.5C7 19.78 7.22 20 7.5 20H11.5C11.78 20 12 19.78 12 19.5C12 19.22 11.78 19 11.5 19ZM22.09 7.67L22 7.58V6C22 3.24 19.76 1 17 1C16.25 1 15.54 1.18 14.9 1.48C14.35 1.19 13.73 1 13.07 1H5.93C3.76 1 2 2.76 2 4.93V19.07C2 21.24 3.76 23 5.93 23H13.07C15.24 23 17 21.24 17 19.07V14H15V19.07C15 20.13 14.13 21 13.07 21H5.93C4.87 21 4 20.13 4 19.07V4.93C4 3.87 4.87 3 5.93 3H13.02C12.39 3.84 11.99 4.87 11.99 6V7.59L11.9 7.68C11.31 8.27 10.99 9.05 10.99 9.89C10.99 11.61 12.39 13.01 14.11 13.01H19.87C21.59 13.01 22.99 11.61 22.99 9.89C23 9.05 22.68 8.26 22.09 7.67ZM19.88 11H14.12C13.5 11 13 10.5 13 9.88C13 9.58 13.12 9.3 13.33 9.09L13.42 9H16C17.1 9 18 8.1 18 7H14V6.12C14 4.67 14.98 3.34 16.4 3.06C18.32 2.69 20 4.15 20 6V8.41L20.67 9.08C20.88 9.29 21 9.58 21 9.87C21 10.5 20.5 11 19.88 11Z" />
</svg>
