<svg width="20" height="20" viewBox="0 0 20 20" xmlns="http://www.w3.org/2000/svg">
    <path d="M13.5 9.38L11.5 13.38L10.81 12H4V13H10.19L11.5 15.62L13.5 11.62L14.19 13H16V12H14.81L13.5 9.38ZM15.87 0H4.13C1.85 0 0 1.85 0 4.13V15.87C0 18.15 1.85 20 4.13 20H15.87C18.15 20 20 18.15 20 15.87V4.13C20 1.85 18.15 0 15.87 0ZM18 15.87C18 17.04 17.04 18 15.87 18H4.13C2.96 18 2 17.04 2 15.87V4.13C2 2.96 2.96 2 4.13 2H15.87C17.04 2 18 2.96 18 4.13V15.87ZM9.5 4.38L7.5 8.38L6.81 7H4V8H6.19L7.5 10.62L9.5 6.62L10.19 8H16V7H10.81L9.5 4.38Z" />
</svg>
