<svg width="18" height="4" viewBox="0 0 18 4" xmlns="http://www.w3.org/2000/svg">
<path d="M14 2C14 3.104 14.896 4 16 4C17.104 4 18 3.104 18 2C18 0.896 17.104 -3.91654e-08 16 -8.74228e-08C14.896 -1.3568e-07 14 0.896 14 2ZM11 2C11 0.896 10.104 -3.45145e-07 9 -3.93402e-07C7.896 -4.4166e-07 7 0.896 7 2C7 3.104 7.896 4 9 4C10.104 4 11 3.104 11 2ZM4 2C4 0.895999 3.104 -6.51125e-07 2 -6.99382e-07C0.896 -7.4764e-07 -3.91654e-08 0.895999 -8.74228e-08 2C-1.3568e-07 3.104 0.896 4 2 4C3.104 4 4 3.104 4 2Z" />
</svg>
