<svg width="16" height="16" viewBox="0 0 16 16" xmlns="http://www.w3.org/2000/svg">
<path d="M10.4 2H5.6C3.6 2 2 3.6 2 5.6V10.4C2 12.4 3.6 14 5.6 14H10.4C12.4 14 14 12.4 14 10.4V5.6C14 3.6 12.4 2 10.4 2ZM13 10.4C13 11.8 11.8 13 10.4 13H5.6C4.2 13 3 11.8 3 10.4V5.6C3 4.2 4.2 3 5.6 3H10.4C11.8 3 13 4.2 13 5.6V10.4Z" />
<path d="M6.49414 6.66602V10.2988H6.92773C7.2168 10.2988 7.42188 10.3555 7.54297 10.4688C7.66797 10.5781 7.73047 10.7227 7.73047 10.9023C7.73047 11.0781 7.66797 11.2227 7.54297 11.3359C7.42188 11.4453 7.2168 11.5 6.92773 11.5H5.35156C5.0625 11.5 4.85547 11.4453 4.73047 11.3359C4.60938 11.2227 4.54883 11.0762 4.54883 10.8965C4.54883 10.7246 4.60938 10.582 4.73047 10.4688C4.85156 10.3555 5.03906 10.2988 5.29297 10.2988V5.59961H5.10547C4.81641 5.59961 4.60938 5.54492 4.48438 5.43555C4.36328 5.32227 4.30273 5.17578 4.30273 4.99609C4.30273 4.81641 4.36328 4.67188 4.48438 4.5625C4.60938 4.44922 4.81641 4.39258 5.10547 4.39258L6.49414 4.39844L9.56445 9.21484V5.59961H9.13086C8.8418 5.59961 8.63477 5.54492 8.50977 5.43555C8.38867 5.32227 8.32812 5.17578 8.32812 4.99609C8.32812 4.81641 8.38867 4.67188 8.50977 4.5625C8.63477 4.44922 8.8418 4.39258 9.13086 4.39258L10.707 4.39844C10.9961 4.39844 11.2012 4.45312 11.3223 4.5625C11.4473 4.67188 11.5098 4.81641 11.5098 4.99609C11.5098 5.17188 11.4492 5.31641 11.3281 5.42969C11.207 5.54297 11.0215 5.59961 10.7715 5.59961V11.5H9.58203L6.49414 6.66602Z" />
</svg>
