<svg width="24" height="24" viewBox="0 0 8 10" xmlns="http://www.w3.org/2000/svg">
<path d="M4.17016 8.67006L2.34016 5.00005L4.17016 1.33005C4.22016 1.22005 4.25016 1.11005 4.25016 1.00005C4.25016 0.720051 4.10016 0.46005 3.84016 0.33005C3.47016 0.14005 3.02016 0.290049 2.83016 0.67005L0.660156 5.00005L2.83016 9.33006C3.02016 9.70006 3.47016 9.85006 3.84016 9.67006C4.21016 9.49006 4.36016 9.04006 4.17016 8.67006ZM5.83016 0.670049L3.66016 5.00005L5.83016 9.33006C6.02016 9.70006 6.47016 9.85006 6.84016 9.67006C7.21016 9.48006 7.36016 9.03006 7.18016 8.66006L5.34016 5.00005L7.17016 1.33005C7.22016 1.22005 7.25016 1.11005 7.25016 1.00005C7.25016 0.720051 7.10016 0.46005 6.84016 0.33005C6.46016 0.14005 6.01016 0.290049 5.83016 0.670049Z"/>
</svg>
