<svg width="14" height="14" viewBox="0 0 14 14" xmlns="http://www.w3.org/2000/svg">
<path d="M10.3569 2.72222H11.8611C12.1831 2.72222 12.4444 2.46089 12.4444 2.13889C12.4444 1.81689 12.1831 1.55556 11.8611 1.55556H7.77778V5.63889C7.77778 5.96089 8.03911 6.22222 8.36111 6.22222C8.68311 6.22222 8.94444 5.96089 8.94444 5.63889V3.20911C10.3242 3.91922 11.2778 5.34411 11.2778 7C11.2778 9.359 9.359 11.2778 7 11.2778C4.641 11.2778 2.72222 9.359 2.72222 7C2.72222 4.907 4.23422 3.164 6.22222 2.79689V1.61778C3.58478 1.99578 1.55556 4.25756 1.55556 7C1.55556 10.0069 3.99311 12.4444 7 12.4444C10.0069 12.4444 12.4444 10.0069 12.4444 7C12.4444 5.26089 11.627 3.717 10.3569 2.72222Z"/>
</svg>
