<svg width="24" height="24" viewBox="0 0 8 10" xmlns="http://www.w3.org/2000/svg">
<path d="M3.82984 1.32994L5.65984 4.99995L3.82984 8.66995C3.77984 8.77995 3.74984 8.88995 3.74984 8.99995C3.74984 9.27995 3.89984 9.53995 4.15984 9.66995C4.52984 9.85995 4.97984 9.70995 5.16984 9.32995L7.33984 4.99995L5.16984 0.669942C4.97984 0.299942 4.52984 0.149941 4.15984 0.329942C3.78984 0.509942 3.63984 0.959942 3.82984 1.32994ZM2.16984 9.32995L4.33984 4.99995L2.16984 0.669942C1.97984 0.299942 1.52984 0.149941 1.15984 0.329941C0.789836 0.519942 0.639836 0.969942 0.819836 1.33994L2.65984 4.99995L0.829836 8.66995C0.779836 8.77995 0.749836 8.88995 0.749836 8.99995C0.749836 9.27995 0.899836 9.53995 1.15984 9.66995C1.53984 9.85995 1.98984 9.70995 2.16984 9.32995Z"/>
</svg>
