<svg width="10" height="10" viewBox="0 0 10 10" xmlns="http://www.w3.org/2000/svg">
  <path d="M8.5 7.6C8.5 8.1 8.1 8.5 7.6 8.5H2.4C1.9 8.5 1.5 8.1 1.5 7.6V2.4C1.5 1.9 1.9 1.5 2.4 1.5H2.5C3.33 1.5 4 0.83 4 0H2.4C1.07 0 0 1.08 0 2.4V7.6C0 8.93 1.08 10 2.4 10H7.6C8.93 10 10 8.92 10 7.6V6C9.17 6 8.5 6.67 8.5 7.5V7.6ZM5.75 0C5.34 0 5 0.34 5 0.75C5 1.16 5.34 1.5 5.75 1.5H7.44L3.97 4.97C3.68 5.26 3.68 5.74 3.97 6.03C4.12 6.18 4.31 6.25 4.5 6.25C4.69 6.25 4.88 6.18 5.03 6.03L8.5 2.56V4.25C8.5 4.66 8.84 5 9.25 5C9.66 5 10 4.66 10 4.25V0H5.75Z" />
</svg>
