<svg width="236" height="36" viewBox="0 0 236 36" fill="none" xmlns="http://www.w3.org/2000/svg">
<path d="M27.5999 36H18.5492L0 0H26.325C36.5463 0 44.8622 8.36218 44.8622 18.6409C44.8622 28.2127 37.1182 36 27.5999 36Z" fill="white"/>
<path d="M155.664 28.1343H150.292L150.248 7.78271H154.97C160.741 7.78271 165.436 12.504 165.436 18.3073C165.436 23.7258 161.052 28.1343 155.664 28.1343ZM151.403 27.0145H155.664C160.438 27.0145 164.323 23.1085 164.323 18.3073C164.323 13.1213 160.127 8.90248 154.97 8.90248H151.364L151.403 27.0145Z" fill="white"/>
<path d="M74.2354 7.76843H75.8023L88.65 26.5322H88.707V7.76843H89.9603V28.2223H88.4792L75.5457 9.31521H75.4886V28.2223H74.2354V7.76843Z" fill="white"/>
<path d="M102.096 7.76843H115.77V8.85704H103.349V17.0503H115.029V18.1389H103.349V27.1337H115.912V28.2223H102.096V7.76843Z" fill="white"/>
<path d="M124.401 8.85704V7.76843H139.984V8.85704H132.805V28.2223H131.552V8.85704H124.401Z" fill="white"/>
<path d="M182.272 7.76843H183.64L191.673 28.2223H190.335L187.77 21.6622H178.028L175.435 28.2223H174.096L182.272 7.76843ZM187.372 20.5736L183.013 9.00028H182.956L178.426 20.5736H187.372Z" fill="white"/>
<path d="M197.257 8.85704V7.76843H212.84V8.85704H205.661V28.2223H204.407V8.85704H197.257Z" fill="white"/>
<path d="M226.599 7.76843H227.967L236 28.2223H234.661L232.097 21.6622H222.355L219.762 28.2223H218.423L226.599 7.76843ZM231.699 20.5736L227.34 9.00028H227.283L222.753 20.5736H231.699Z" fill="white"/>
</svg>
