<svg viewBox="0 0 24 24"
    xmlns="http://www.w3.org/2000/svg">
    <g clip-path="url(#clip0)">
        <path d="M13.6449 4.5H2.52612L10.3592 19.5H14.1811C18.2055 19.5 21.4667 16.2681 21.4736 12.2719C21.4717 7.98375 17.9686 4.5075 13.6449 4.5ZM14.1811 17.625H11.4955L5.6205 6.375H13.6411C16.9242 6.38125 19.5967 9.02688 19.598 12.2688C19.5936 15.2225 17.163 17.625 14.1811 17.625Z" />
    </g>
    <defs>
        <clipPath id="clip0">
            <path d="M1.99976 5.2C1.99976 4.0799 1.99976 3.51984 2.21774 3.09202C2.40949 2.71569 2.71545 2.40973 3.09177 2.21799C3.5196 2 4.07965 2 5.19976 2H18.7998C19.9199 2 20.4799 2 20.9077 2.21799C21.2841 2.40973 21.59 2.71569 21.7818 3.09202C21.9998 3.51984 21.9998 4.0799 21.9998 5.2V18.8C21.9998 19.9201 21.9998 20.4802 21.7818 20.908C21.59 21.2843 21.2841 21.5903 20.9077 21.782C20.4799 22 19.9199 22 18.7998 22H5.19976C4.07965 22 3.5196 22 3.09177 21.782C2.71545 21.5903 2.40949 21.2843 2.21774 20.908C1.99976 20.4802 1.99976 19.9201 1.99976 18.8V5.2Z" />
        </clipPath>
    </defs>
</svg>
