<svg viewBox="0 0 18 18" xmlns="http://www.w3.org/2000/svg">
<path d="M2.94 9.25996L6.67 11.41C7.38 11.82 8.2 12.04 9.02 12.04C9.84 12.04 10.66 11.82 11.37 11.41L15.06 9.27996C15.88 8.80996 16.37 7.95996 16.37 7.00996C16.37 6.05996 15.88 5.20996 15.06 4.73996L11.33 2.58996C10.62 2.17996 9.8 1.95996 8.98 1.95996C8.16 1.95996 7.34 2.17996 6.63 2.58996L2.94 4.71996C2.12 5.18996 1.63 6.03996 1.63 6.98996C1.63 7.93996 2.12 8.77996 2.94 9.25996ZM3.69 6.01996L7.38 3.88996C7.88 3.59996 8.43 3.45996 8.98 3.45996C9.53 3.45996 10.09 3.59996 10.58 3.88996L14.31 6.03996C15.06 6.46996 15.06 7.54996 14.31 7.97996L10.62 10.11C10.12 10.4 9.57 10.54 9.02 10.54C8.47 10.54 7.91 10.4 7.42 10.11L3.69 7.95996C2.94 7.52996 2.94 6.44996 3.69 6.01996ZM7.15 7.81996C7.87 8.22996 9.03 8.23996 9.74 7.81996C10.01 7.66996 10.8 7.20996 11.03 7.06996C11.51 6.79996 11.5 6.34996 11.02 6.06996C10.54 5.78996 9.77 5.78996 9.29 6.06996C8.87 6.30996 8.84 6.68996 9.17 6.95996C9.06 6.91996 8.96 6.86996 8.86 6.81996C8.48 6.59996 8.3 6.30996 8.33 6.01996C7.89 6.02996 7.46 6.12996 7.13 6.31996C6.43 6.72996 6.43 7.39996 7.15 7.81996ZM15.41 11.89L11.72 14.02C10.9 14.49 9.97 14.74 9.02 14.74C8.07 14.74 7.14 14.49 6.32 14.02L2.59 11.87C2.21 11.65 1.89 11.37 1.63 11.04C1.65 11.97 2.13 12.79 2.93 13.26L6.66 15.41C7.37 15.82 8.19 16.04 9.01 16.04C9.83 16.04 10.65 15.82 11.36 15.41L15.05 13.28C15.86 12.82 16.34 11.99 16.35 11.06C16.11 11.39 15.79 11.67 15.41 11.89ZM15.41 9.88996L11.72 12.02C10.9 12.49 9.97 12.74 9.02 12.74C8.07 12.74 7.14 12.49 6.32 12.02L2.59 9.85996C2.21 9.63996 1.89 9.35996 1.63 9.02996C1.65 9.95996 2.13 10.78 2.93 11.25L6.66 13.4C7.37 13.81 8.19 14.03 9.01 14.03C9.83 14.03 10.65 13.81 11.36 13.4L15.05 11.27C15.86 10.81 16.34 9.97996 16.35 9.04996C16.11 9.38996 15.79 9.66996 15.41 9.88996Z" />
</svg>
