<svg width="18" height="18" viewBox="0 0 18 18" xmlns="http://www.w3.org/2000/svg">
<path d="M2.5 15.5H4V14H2.5V15.5ZM15.88 0H2.12C0.95 0 0 0.95 0 2.12V6.38C0 7.55 0.95 8.5 2.12 8.5H15.88C17.05 8.5 18 7.55 18 6.38V2.12C18 0.95 17.05 0 15.88 0ZM16.5 6.38C16.5 6.72 16.22 7 15.88 7H2.12C1.78 7 1.5 6.72 1.5 6.38V2.12C1.5 1.78 1.78 1.5 2.12 1.5H15.88C16.22 1.5 16.5 1.78 16.5 2.12V6.38ZM2.5 6H4V4.5H2.5V6ZM15.88 9.5H2.12C0.95 9.5 0 10.45 0 11.62V15.88C0 17.05 0.95 18 2.12 18H15.88C17.05 18 18 17.05 18 15.88V11.62C18 10.45 17.05 9.5 15.88 9.5ZM16.5 15.88C16.5 16.22 16.22 16.5 15.88 16.5H2.12C1.78 16.5 1.5 16.22 1.5 15.88V11.62C1.5 11.28 1.78 11 2.12 11H15.88C16.22 11 16.5 11.28 16.5 11.62V15.88Z" />
</svg>
