<svg width="40" height="40" viewBox="0 0 40 40" fill="none" xmlns="http://www.w3.org/2000/svg">
<rect x="0.5" y="0.5" width="39" height="39" rx="7.5" fill="#00AB44" stroke="#00AB4E"/>
<path fill-rule="evenodd" clip-rule="evenodd" d="M24.6328 15.5882C25.4868 15.5882 26.1765 14.8969 26.1765 14.0443C26.1765 13.1915 25.4867 12.5 24.6328 12.5C23.7798 12.5 23.0882 13.1915 23.0882 14.0443C23.0882 14.8969 23.7798 15.5882 24.6328 15.5882ZM26.0095 15.934C25.6509 16.1899 25.212 16.3412 24.7382 16.3412C23.5209 16.3412 22.5354 15.3482 22.5354 14.1227C22.5354 14.0576 22.5383 13.9947 22.5431 13.9315C22.173 13.8602 21.7906 13.8235 21.4 13.8235C20.4217 13.8235 19.4964 14.0555 18.6765 14.4663L19.8928 16.624C20.3528 16.4152 20.863 16.2978 21.4 16.2978C23.2787 16.2978 24.8272 17.7231 25.0388 19.5588L27.5 19.4831C27.3913 18.1295 26.8471 16.8998 26.0095 15.934ZM19.1176 17.2715C18.284 17.9532 17.7473 19.0121 17.7473 20.2015C17.7473 21.3725 18.2677 22.4172 19.0807 23.0986L17.8941 25.2941C16.8566 24.5366 16.0613 23.4452 15.6532 22.1701C16.2123 21.7657 16.5766 21.0938 16.5766 20.3316C16.5766 19.5415 16.1825 18.8462 15.5882 18.4484C15.9678 17.1023 16.7724 15.946 17.8417 15.1471L19.1176 17.2715ZM14.0441 21.7647C14.8961 21.7647 15.5882 21.073 15.5882 20.2204C15.5882 19.3682 14.8961 18.6765 14.0441 18.6765C13.1916 18.6765 12.5 19.3682 12.5 20.2204C12.5 21.073 13.1916 21.7647 14.0441 21.7647ZM24.8095 24.0189C25.1788 24.0189 25.5265 24.109 25.832 24.2689C26.7835 23.2691 27.3983 21.9499 27.5 20.4888L25.0339 20.4412C24.8441 22.2851 23.2815 23.7217 21.3824 23.7217C20.8567 23.7217 20.355 23.6115 19.9023 23.4121L18.6765 25.5503C19.4937 25.9512 20.4111 26.1765 21.3823 26.1765C21.8015 26.1765 22.2125 26.1342 22.6086 26.0536C22.6931 24.9164 23.646 24.0189 24.8095 24.0189ZM24.6326 27.9412C25.4855 27.9412 26.1765 27.2498 26.1765 26.3973C26.1765 25.5442 25.4855 24.8529 24.6326 24.8529C23.7797 24.8529 23.0882 25.5442 23.0882 26.3973C23.0882 27.2498 23.7797 27.9412 24.6326 27.9412Z" fill="white"/>
</svg>
