<svg width="16" height="16" viewBox="0 0 16 16" xmlns="http://www.w3.org/2000/svg">
  <path d="M15.1111 8.88889H0.888889C0.4 8.88889 0 9.28889 0 9.77778V15.1111C0 15.6 0.4 16 0.888889 16H15.1111C15.6 16 16 15.6 16 15.1111V9.77778C16 9.28889 15.6 8.88889 15.1111 8.88889ZM3.55556 14.2222C2.57778 14.2222 1.77778 13.4222 1.77778 12.4444C1.77778 11.4667 2.57778 10.6667 3.55556 10.6667C4.53333 10.6667 5.33333 11.4667 5.33333 12.4444C5.33333 13.4222 4.53333 14.2222 3.55556 14.2222ZM15.1111 0H0.888889C0.4 0 0 0.4 0 0.888889V6.22222C0 6.71111 0.4 7.11111 0.888889 7.11111H15.1111C15.6 7.11111 16 6.71111 16 6.22222V0.888889C16 0.4 15.6 0 15.1111 0ZM3.55556 5.33333C2.57778 5.33333 1.77778 4.53333 1.77778 3.55556C1.77778 2.57778 2.57778 1.77778 3.55556 1.77778C4.53333 1.77778 5.33333 2.57778 5.33333 3.55556C5.33333 4.53333 4.53333 5.33333 3.55556 5.33333Z" />
</svg>