<svg width="16" height="15" viewBox="0 0 16 15" fill="none" xmlns="http://www.w3.org/2000/svg">
<path d="M8.5 2.35V4H16V6.5H15V5H1V6.5H0V4H7.5V2.35C7.35 2.26 7.24 2.14 7.15 2H3C2.72 2 2.5 1.78 2.5 1.5C2.5 1.22 2.72 1 3 1H7.15C7.33 0.71 7.63 0.5 8 0.5C8.37 0.5 8.68 0.71 8.85 1H13C13.28 1 13.5 1.22 13.5 1.5C13.5 1.78 13.28 2 13 2H8.85C8.76 2.15 8.64 2.26 8.5 2.35Z" fill="#35414A"/>
<path d="M4 12.5H2.5V11H4V12.5Z" fill="#35414A"/>
<path fill-rule="evenodd" clip-rule="evenodd" d="M1.51 8H14.49C15.32 8 16 8.68 15.99 9.51V13.48C15.99 14.31 15.32 14.99 14.48 14.99H1.51C0.68 14.99 0 14.32 0 13.48V9.51C0 8.68 0.68 8 1.51 8ZM1.5 13.49L14.49 13.5V9.51L14.48 9.5H1.51L1.5 13.49Z" fill="#35414A"/>
</svg>
