<svg width="18" height="18" viewBox="0 0 18 18" xmlns="http://www.w3.org/2000/svg">
<path d="M9.5 3.35V5H17V7.5H16V6H2V7.5H1V5H8.5V3.35C8.35 3.26 8.24 3.14 8.15 3H4C3.72 3 3.5 2.78 3.5 2.5C3.5 2.22 3.72 2 4 2H8.15C8.33 1.71 8.63 1.5 9 1.5C9.37 1.5 9.68 1.71 9.85 2H14C14.28 2 14.5 2.22 14.5 2.5C14.5 2.78 14.28 3 14 3H9.85C9.76 3.15 9.64 3.26 9.5 3.35Z" />
<path d="M5 13.5H3.5V12H5V13.5Z"/>
<path fillRule="evenodd" clipRule="evenodd" d="M2.51 9H15.49C16.32 9 17 9.68 16.99 10.51V14.48C16.99 15.31 16.32 15.99 15.48 15.99H2.51C1.68 15.99 1 15.32 1 14.48V10.51C1 9.68 1.68 9 2.51 9ZM2.5 14.49L15.49 14.5V10.51L15.48 10.5H2.51L2.5 14.49Z" />
</svg>
