<svg width="16" height="13" viewBox="0 0 16 13" fill="none" xmlns="http://www.w3.org/2000/svg">
<path d="M2.5 10.5H4V9H2.5V10.5ZM14.49 6H8.5V2.91C8.92 2.76 9.26 2.43 9.41 2H13C13.28 2 13.5 1.78 13.5 1.5C13.5 1.22 13.28 1 13 1H9.41C9.2 0.42 8.65 0 8 0C7.35 0 6.8 0.42 6.59 1H3C2.72 1 2.5 1.22 2.5 1.5C2.5 1.78 2.72 2 3 2H6.59C6.74 2.42 7.07 2.76 7.5 2.91V6H1.51C0.68 6 0 6.68 0 7.51V11.48C0 12.32 0.68 12.99 1.51 12.99H14.48C15.32 12.99 15.99 12.31 15.99 11.48V7.51C16 6.68 15.32 6 14.49 6ZM14.49 11.5L1.5 11.49L1.51 7.5H14.48L14.49 7.51V11.5Z" fill="#35414A"/>
</svg>
