<svg width="24" height="24" viewBox="0 0 24 24" xmlns="http://www.w3.org/2000/svg">
<path d="M7 11.41L10.71 7.69997C11.1 7.30997 11.1 6.67997 10.71 6.28997C10.32 5.89997 9.69 5.89997 9.3 6.28997L8 7.58997V1.99997H6V7.58997L4.71 6.28997C4.32 5.89997 3.69 5.89997 3.3 6.28997C2.91 6.67997 2.91 7.30997 3.3 7.69997L7 11.41ZM14.71 6.70997L16 5.40997V11H18V5.40997L19.29 6.69997C19.49 6.89997 19.74 6.98997 20 6.98997C20.26 6.98997 20.51 6.88997 20.71 6.69997C21.1 6.30997 21.1 5.67997 20.71 5.28997L17 1.58997L13.29 5.29997C12.9 5.68997 12.9 6.31997 13.29 6.70997C13.68 7.09997 14.32 7.09997 14.71 6.70997ZM7 17H5V19H7V17ZM20.61 13H3.39C2.62 13 2 13.62 2 14.39V20.61C2 21.38 2.62 22 3.39 22H20.61C21.38 22 22 21.38 22 20.61V14.39C22 13.62 21.38 13 20.61 13ZM20 20H4V15H20V20Z" />
</svg>
