<svg width="40" height="40" viewBox="0 0 40 40" fill="none" xmlns="http://www.w3.org/2000/svg">
<rect width="40" height="40" rx="20" fill="#F9A825"/>
<path d="M19.9998 10.2854C14.6438 10.2854 10.2852 14.6427 10.2852 20.0001C10.2852 25.3574 14.6438 29.7147 19.9998 29.7147C25.3558 29.7147 29.7145 25.3574 29.7145 20.0001C29.7145 14.6427 25.3558 10.2854 19.9998 10.2854ZM19.9998 14.6667C20.7358 14.6667 21.3332 15.2641 21.3332 16.0001C21.3332 16.7361 20.7358 17.3334 19.9998 17.3334C19.2638 17.3334 18.6665 16.7361 18.6665 16.0001C18.6665 15.2641 19.2638 14.6667 19.9998 14.6667ZM22.6665 23.3374C22.6665 24.2547 21.9225 25.0001 21.0038 25.0001H17.3332V24.7187C17.3332 23.7881 18.0758 23.0401 18.9998 23.0107V20.6667H17.3332C17.3332 19.5627 18.2292 18.6667 19.3332 18.6667H20.9998V23.0001H22.6665V23.3374Z" fill="#FFF8E1"/>
</svg>
