<svg width="40" height="24" viewBox="0 0 40 24" fill="none" xmlns="http://www.w3.org/2000/svg">
<path fill-rule="evenodd" clip-rule="evenodd" d="M28 24C34.6274 24 40 18.6274 40 12C40 5.37258 34.6274 0 28 0C21.3726 0 16 5.37258 16 12C16 18.6274 21.3726 24 28 24Z" fill="#F5A623"/>
<path d="M23.5 12C23.5 18.3513 18.3513 23.5 12 23.5C5.64873 23.5 0.5 18.3513 0.5 12C0.5 5.64873 5.64873 0.5 12 0.5C18.3513 0.5 23.5 5.64873 23.5 12Z" fill="#F75050" stroke="white"/>
<path d="M14.7178 15H9.45947V14.103L12.0645 11.2617C12.4404 10.8428 12.7072 10.4937 12.8647 10.2144C13.0259 9.93148 13.1064 9.6486 13.1064 9.36572C13.1064 8.99333 13.0008 8.69255 12.7896 8.46338C12.5819 8.23421 12.3008 8.11963 11.9463 8.11963C11.5238 8.11963 11.1961 8.24854 10.9634 8.50635C10.7306 8.76416 10.6143 9.11686 10.6143 9.56445H9.30908C9.30908 9.08822 9.4165 8.66032 9.63135 8.28076C9.84977 7.89762 10.1595 7.60042 10.5605 7.38916C10.9652 7.1779 11.4307 7.07227 11.957 7.07227C12.7161 7.07227 13.3141 7.26383 13.751 7.64697C14.1914 8.02653 14.4116 8.5529 14.4116 9.22607C14.4116 9.61637 14.3006 10.0264 14.0786 10.4561C13.8602 10.8822 13.5003 11.3674 12.999 11.9116L11.0869 13.958H14.7178V15Z" fill="white"/>
<path d="M26.9688 10.4937H27.7637C28.1647 10.4901 28.4816 10.3862 28.7144 10.1821C28.9507 9.97803 29.0688 9.68262 29.0688 9.2959C29.0688 8.9235 28.9704 8.63525 28.7734 8.43115C28.5801 8.22347 28.2829 8.11963 27.8818 8.11963C27.5309 8.11963 27.2427 8.22168 27.0171 8.42578C26.7915 8.6263 26.6787 8.88949 26.6787 9.21533H25.3735C25.3735 8.81429 25.4792 8.44906 25.6904 8.11963C25.9053 7.7902 26.2025 7.53418 26.582 7.35156C26.9652 7.16536 27.3931 7.07227 27.8657 7.07227C28.6463 7.07227 29.2586 7.26921 29.7026 7.66309C30.1502 8.05339 30.374 8.59766 30.374 9.2959C30.374 9.64681 30.2612 9.97803 30.0356 10.2896C29.8136 10.5975 29.5254 10.8302 29.1709 10.9878C29.6006 11.1346 29.9264 11.3656 30.1484 11.6807C30.374 11.9958 30.4868 12.3717 30.4868 12.8086C30.4868 13.5104 30.2451 14.069 29.7617 14.4844C29.2819 14.8997 28.6499 15.1074 27.8657 15.1074C27.1138 15.1074 26.4979 14.9069 26.0181 14.5059C25.5382 14.1048 25.2983 13.5713 25.2983 12.9053H26.6035C26.6035 13.249 26.7181 13.5283 26.9473 13.7432C27.18 13.958 27.4915 14.0654 27.8818 14.0654C28.2865 14.0654 28.6051 13.958 28.8379 13.7432C29.0706 13.5283 29.187 13.2168 29.187 12.8086C29.187 12.3968 29.0653 12.0799 28.8218 11.8579C28.5783 11.6359 28.2166 11.5249 27.7368 11.5249H26.9688V10.4937Z" fill="white"/>
</svg>
