<svg width="24" height="24" viewBox="0 0 24 24"  xmlns="http://www.w3.org/2000/svg">
<path d="M11 15.18L14.49 13H19.88C21.6 13 23 11.6 23 9.88C23 9.05 22.68 8.26 22.09 7.67L22 7.58V6C22 3.24 19.76 1 17 1C14.59 1 12.57 2.72 12.1 5H5.86C3.73 5 2 6.73 2 8.86V18.15C2 20.28 3.73 22.01 5.86 22.01H16.15C18.28 22.01 20.01 20.28 20.01 18.15V13.99C19.97 13.99 19.93 14 19.89 14H18V18.14C18 19.16 17.17 20 16.14 20H5.86C4.84 20 4 19.17 4 18.14V10.8L11 15.18ZM13.33 9.09L13.42 9H16C17.1 9 18 8.1 18 7H14V6.12C14 4.67 14.98 3.34 16.4 3.06C18.32 2.69 20 4.15 20 6V8.41L20.67 9.08C20.88 9.29 21 9.58 21 9.87C21 10.49 20.5 10.99 19.88 10.99H14.12C13.5 10.99 13 10.49 13 9.87C13 9.58 13.12 9.29 13.33 9.09ZM5.86 7H12V7.59L11.91 7.68C11.32 8.27 11 9.05 11 9.89C11 10.8 11.4 11.62 12.03 12.19L11 12.83L4.04 8.47C4.22 7.63 4.97 7 5.86 7Z" />
<path d="M20 6.99984C20.5 4.5 18.7188 3 17 3C14.6 3 13.5 5.5 14 6.99984L18 7L17.5 8L17 8.5L16.582 8.91797L15.5 9.00001L13.5 9C13.5 9 13 9 13 10C13 11 13.5 11 14 11H14H14.5H19.5C20 11 21 11 21 10C21 9.20001 20 7.50001 20 7.50001V6.99984Z" fill="#F59B9B"/>
</svg>