<svg width="18" height="18" viewBox="0 0 18 18" xmlns="http://www.w3.org/2000/svg">
<path d="M10 9C10 8.45 9.55 8 9 8C8.45 8 8 8.45 8 9C8 9.55 8.45 10 9 10C9.55 10 10 9.55 10 9ZM6.89 3.92L6.31 2.53C4.61 3.24 3.25 4.6 2.54 6.3L3.93 6.88C4.48 5.55 5.55 4.48 6.89 3.92ZM6.5 9C6.5 8.83 6.52 8.67 6.55 8.51L5.08 8.22C5.03 8.47 5 8.73 5 9C5 11.21 6.79 13 9 13C9.27 13 9.53 12.97 9.78 12.92L9.49 11.45C9.33 11.48 9.17 11.5 9 11.5C7.62 11.5 6.5 10.38 6.5 9ZM11.11 14.08L11.69 15.47C13.39 14.76 14.75 13.4 15.46 11.7L14.07 11.12C13.52 12.45 12.45 13.52 11.11 14.08ZM9 14.5C5.97 14.5 3.5 12.03 3.5 9C3.5 8.63 3.54 8.27 3.61 7.92L2.14 7.63C2.05 8.07 2 8.53 2 9C2 12.87 5.13 16 9 16C9.47 16 9.93 15.95 10.37 15.86L10.08 14.39C9.73 14.46 9.37 14.5 9 14.5ZM9 2C8.53 2 8.07 2.05 7.63 2.14L7.92 3.61C8.27 3.54 8.63 3.5 9 3.5C12.03 3.5 14.5 5.97 14.5 9C14.5 9.37 14.46 9.73 14.39 10.08L15.86 10.37C15.95 9.93 16 9.47 16 9C16 5.13 12.87 2 9 2ZM11.45 9.49L12.92 9.78C12.97 9.53 13 9.26 13 9C13 6.79 11.21 5 9 5C8.73 5 8.47 5.03 8.22 5.08L8.51 6.55C8.67 6.52 8.83 6.5 9 6.5C10.38 6.5 11.5 7.62 11.5 9C11.5 9.17 11.48 9.33 11.45 9.49Z"/>
</svg>
