<svg width="16" height="16" viewBox="0 0 16 16" xmlns="http://www.w3.org/2000/svg">
<path fill-rule="evenodd" clip-rule="evenodd" d="M8.80594 0.115506L8.47683 4.16884C8.32117 4.15106 8.16551 4.14217 8.0054 4.14217C7.80526 4.14217 7.60957 4.15551 7.41833 4.18662L7.23154 2.22217C7.22709 2.15995 7.27601 2.10662 7.33828 2.10662H7.67184L7.51173 0.11995C7.50728 0.0577279 7.5562 0.00439453 7.61402 0.00439453H8.70365C8.76591 0.00439453 8.81484 0.0577279 8.80594 0.11995V0.115506ZM6.05741 0.315506C6.03962 0.257728 5.97735 0.222172 5.91954 0.244395L4.89662 0.617728C4.8388 0.63995 4.81212 0.706617 4.8388 0.75995L5.67048 2.57328L5.35471 2.68884C5.29689 2.71106 5.27021 2.77773 5.29689 2.83106L6.14636 4.61328C6.45323 4.44439 6.78679 4.31551 7.13814 4.23551L6.06186 0.315506H6.05741ZM3.54904 1.44439L5.90175 4.75995C5.60377 4.95551 5.33247 5.18662 5.1012 5.45328L3.69136 4.06662C3.64688 4.02217 3.65133 3.95106 3.6958 3.91106L3.95376 3.69773L2.55281 2.27995C2.50833 2.23551 2.51278 2.16439 2.5617 2.12439L3.39338 1.42662C3.4423 1.38662 3.50901 1.39551 3.54459 1.44439H3.54904ZM1.57436 3.36439C1.52544 3.32884 1.45428 3.34662 1.42315 3.39995L0.880558 4.34217C0.849426 4.39551 0.871663 4.46217 0.925033 4.48884L2.7307 5.34217L2.5617 5.63106C2.53057 5.68439 2.55281 5.75551 2.61062 5.77773L4.4074 6.59995C4.53637 6.26662 4.70983 5.95551 4.9233 5.67551L1.57436 3.36439ZM0.244571 5.92439C0.253466 5.86217 0.31573 5.82662 0.373547 5.83995L4.30955 6.86662C4.20726 7.19995 4.14945 7.55106 4.14055 7.91551L2.17032 7.75551C2.10806 7.75106 2.06358 7.69328 2.07693 7.63106L2.13474 7.30217L0.146727 7.11551C0.084462 7.11106 0.0444348 7.05328 0.0533297 6.99106L0.240123 5.91995L0.244571 5.92439ZM0.0978044 8.58217C0.0355399 8.58662 -0.00448732 8.64439 0.00440761 8.70662L0.195649 9.77773C0.204544 9.83995 0.266808 9.87551 0.324625 9.86217L2.25483 9.35995L2.31264 9.68884C2.32154 9.75106 2.3838 9.78662 2.44162 9.77328L4.34513 9.24884C4.23395 8.91995 4.16279 8.56884 4.145 8.20884L0.0933569 8.58217H0.0978044ZM0.729344 11.3999C0.698212 11.3466 0.72045 11.2799 0.773819 11.2533L4.44743 9.51106C4.5853 9.83995 4.77209 10.1466 4.99446 10.4222L3.38448 11.5688C3.33556 11.6044 3.2644 11.5911 3.23327 11.5377L3.06426 11.2444L1.42315 12.3777C1.37423 12.4133 1.30307 12.3955 1.27194 12.3422L0.724897 11.3999H0.729344ZM5.18126 10.6355L2.32154 13.5288C2.27706 13.5733 2.28151 13.6444 2.33043 13.6844L3.16656 14.3822C3.21548 14.4222 3.28219 14.4133 3.31777 14.3644L4.47411 12.7377L4.73206 12.9555C4.78099 12.9955 4.85214 12.9866 4.88772 12.9333L6.00849 11.3066C5.70606 11.12 5.42587 10.8933 5.1857 10.6355H5.18126ZM4.61643 15.28C4.55861 15.2577 4.53193 15.1911 4.55861 15.1377L6.2531 11.4399C6.56442 11.5999 6.90243 11.72 7.25378 11.7866L6.75566 13.6977C6.74232 13.7555 6.67561 13.7911 6.61779 13.7688L6.30202 13.6533L5.77277 15.5777C5.75498 15.6355 5.69272 15.6711 5.6349 15.6488L4.61198 15.2755L4.61643 15.28ZM7.53397 11.8355L7.20485 15.8888C7.20041 15.9511 7.24933 16.0044 7.30715 16.0044H8.39677C8.45904 16.0044 8.50796 15.9511 8.49907 15.8888L8.33896 13.9022H8.67252C8.73478 13.9022 8.7837 13.8488 8.77926 13.7866L8.59246 11.8222C8.40122 11.8533 8.20553 11.8666 8.0054 11.8666C7.84529 11.8666 7.68963 11.8577 7.53397 11.8355ZM11.4566 0.862172C11.4833 0.804395 11.4566 0.742172 11.3988 0.71995L10.3759 0.346617C10.3181 0.324395 10.2558 0.35995 10.238 0.417728L9.70878 2.34217L9.39301 2.22662C9.33519 2.20439 9.27293 2.23995 9.25514 2.29773L8.75702 4.20884C9.11282 4.27995 9.44638 4.39995 9.7577 4.55551L11.4566 0.862172ZM13.6893 2.47551L10.8295 5.36884C10.5894 5.11106 10.3136 4.88439 10.0068 4.69773L11.1275 3.07106C11.1631 3.02217 11.2343 3.00884 11.2832 3.04884L11.5411 3.26662L12.6975 1.63995C12.7331 1.59106 12.8042 1.58217 12.8487 1.62217L13.6848 2.31995C13.7337 2.35995 13.7337 2.43106 13.6937 2.47551H13.6893ZM15.237 4.75106C15.2948 4.72439 15.3126 4.65773 15.2815 4.60439L14.7344 3.66217C14.7033 3.60884 14.6321 3.59551 14.5832 3.62662L12.9421 4.75995L12.7731 4.47106C12.7419 4.41773 12.6708 4.39995 12.6219 4.43995L11.0119 5.58662C11.2343 5.86217 11.4166 6.16884 11.5589 6.49773L15.2325 4.75551L15.237 4.75106ZM15.8151 6.22662L16.0019 7.29773C16.0108 7.35995 15.9708 7.41328 15.9085 7.42217L11.8569 7.79995C11.8391 7.43551 11.768 7.08884 11.6568 6.75995L13.5603 6.23551C13.6181 6.21773 13.6804 6.25773 13.6893 6.31995L13.7471 6.64884L15.6773 6.14662C15.7351 6.13328 15.7974 6.16884 15.8063 6.23106L15.8151 6.22662ZM15.6328 10.16C15.6906 10.1733 15.7529 10.1377 15.7618 10.0755L15.9486 9.00439C15.9575 8.94217 15.9174 8.88884 15.8552 8.87995L13.8672 8.69328L13.925 8.36439C13.9339 8.30217 13.8938 8.24884 13.8316 8.23995L11.8614 8.07995C11.8525 8.44439 11.7946 8.79551 11.6923 9.12884L15.6284 10.1555L15.6328 10.16ZM14.5832 12.6044C14.5521 12.6577 14.4809 12.6711 14.432 12.64L11.083 10.3288C11.2965 10.0488 11.47 9.73773 11.5989 9.40439L13.3957 10.2266C13.4535 10.2533 13.4758 10.32 13.4446 10.3733L13.2756 10.6622L15.0813 11.5155C15.1347 11.5422 15.1569 11.6088 15.1258 11.6622L14.5832 12.6044ZM10.1046 11.24L12.4573 14.5555C12.4929 14.6044 12.564 14.6133 12.6085 14.5733L13.4402 13.8755C13.4891 13.8355 13.4891 13.7644 13.4491 13.72L12.0481 12.3022L12.3061 12.0888C12.355 12.0488 12.355 11.9777 12.3105 11.9333L10.9007 10.5466C10.665 10.8133 10.3981 11.0488 10.1002 11.24H10.1046ZM10.0824 15.7555C10.0245 15.7777 9.96228 15.7422 9.94449 15.6844L8.86821 11.7644C9.21956 11.6844 9.55312 11.5555 9.85999 11.3866L10.7095 13.1688C10.7361 13.2266 10.7095 13.2933 10.6516 13.3111L10.3359 13.4266L11.1675 15.24C11.1942 15.2977 11.1675 15.36 11.1097 15.3822L10.0868 15.7555H10.0824Z"/>
</svg>
