<svg width="16" height="16" viewBox="0 0 16 16" fill="none" xmlns="http://www.w3.org/2000/svg">
<path d="M7.339 13.0938V13.3007C4.86187 12.9895 2.98481 11.6322 2.98481 9.99581C2.98481 8.76728 4.04334 7.69597 5.62497 7.10484L5.56319 5.625C2.77784 6.32803 0.8125 8.01897 0.8125 9.99581C0.8125 12.3798 3.65222 14.3436 7.34219 14.6741L7.34275 14.6738V13.0938H7.339Z" fill="#B2B2B2"/>
<path d="M9.52408 13.6473H9.5209V6.92712V6.67712V1.32593L7.33899 2.44533V6.92712H7.34274V14.6739L9.52408 13.6473Z" fill="#F7931E"/>
<path d="M15.1875 9.12308L14.8923 5.99452L13.7692 6.62987C12.9715 6.1453 11.9531 5.5469 10.625 5.53943L10.6251 6.67712V6.91143C10.7345 6.94168 10.8414 6.97468 10.947 7.00908C11.389 7.15318 11.7962 7.33258 12.1553 7.54433L10.9745 8.20852L15.1875 9.12308Z" fill="#B2B2B2"/>
</svg>
