<svg width="18" height="18" viewBox="0 0 18 18" xmlns="http://www.w3.org/2000/svg">
<path d="M13 7.5V5.5C13 3.29 11.21 1.5 9 1.5C6.79 1.5 5 3.29 5 5.5V7.5H3.5V11C3.5 14.03 5.97 16.5 9 16.5C12.03 16.5 14.5 14.03 14.5 11V7.5H13ZM6.5 5.5C6.5 4.12 7.62 3 9 3C10.38 3 11.5 4.12 11.5 5.5V7.5H6.5V5.5ZM13 11C13 13.21 11.21 15 9 15C6.79 15 5 13.21 5 11V9H13V11ZM8.25 12.75C8.25 13.16 8.59 13.5 9 13.5C9.41 13.5 9.75 13.16 9.75 12.75V11.8C9.96 11.6 10.1 11.32 10.1 11C10.1 10.39 9.61 9.9 9 9.9C8.39 9.9 7.9 10.39 7.9 11C7.9 11.32 8.04 11.6 8.25 11.8V12.75Z" />
</svg>
