<svg width="12" height="16" viewBox="0 0 12 16" xmlns="http://www.w3.org/2000/svg">
<path d="M10 6.5V4.5C10 2.29 8.21 0.5 6 0.5C3.79 0.5 2 2.29 2 4.5V6.5H0.5V10C0.5 13.03 2.97 15.5 6 15.5C9.03 15.5 11.5 13.03 11.5 10V6.5H10ZM3.5 4.5C3.5 3.12 4.62 2 6 2C7.38 2 8.5 3.12 8.5 4.5V6.5H3.5V4.5ZM10 10C10 12.21 8.21 14 6 14C3.79 14 2 12.21 2 10V8H10V10ZM5.25 11.75C5.25 12.16 5.59 12.5 6 12.5C6.41 12.5 6.75 12.16 6.75 11.75V10.8C6.96 10.6 7.1 10.32 7.1 10C7.1 9.39 6.61 8.9 6 8.9C5.39 8.9 4.9 9.39 4.9 10C4.9 10.32 5.04 10.6 5.25 10.8V11.75Z" />
</svg>
