<svg width="16" height="16" viewBox="0 0 16 16" xmlns="http://www.w3.org/2000/svg">
    <path
        d="M13.7812 10.5063L13.7794 10.5047C13.4691 10.2178 13.0675 10.1503 12.7744 10.1009L12.7528 10.0972C12.47 10.0506 12.4253 10.0191 12.2972 9.90438C12.2209 9.83656 12.13 9.72781 12.13 9.59375C12.13 9.45969 12.2209 9.35094 12.2969 9.28312L13.2431 8.44344C14.0531 7.7275 14.4994 6.76656 14.4994 5.7375C14.4994 4.70844 14.0541 3.7475 13.2431 3.03125C12.1216 2.04406 10.5869 1.5 8.91906 1.5C6.99125 1.5 5.0625 2.23031 3.625 3.50344C2.25406 4.715 1.5 6.33813 1.5 8.07344C1.5 9.80875 2.255 11.4319 3.625 12.6431C4.30469 13.2444 5.10906 13.7113 6.01625 14.0312C6.8888 14.3373 7.80628 14.4957 8.73094 14.5H8.7875C10.6938 14.5 12.5091 13.8572 13.7684 12.7375C14.0716 12.47 14.2419 12.0866 14.2478 11.6575C14.2544 11.2147 14.08 10.7841 13.7812 10.5063ZM3.5 6.5C3.5 6.30222 3.55865 6.10888 3.66853 5.94443C3.77841 5.77998 3.93459 5.65181 4.11732 5.57612C4.30004 5.50043 4.50111 5.48063 4.69509 5.51921C4.88907 5.5578 5.06725 5.65304 5.20711 5.79289C5.34696 5.93275 5.4422 6.11093 5.48079 6.30491C5.51937 6.49889 5.49957 6.69996 5.42388 6.88268C5.34819 7.06541 5.22002 7.22159 5.05557 7.33147C4.89112 7.44135 4.69778 7.5 4.5 7.5C4.23478 7.5 3.98043 7.39464 3.79289 7.20711C3.60536 7.01957 3.5 6.76522 3.5 6.5ZM4.75 10.7188C4.55222 10.7188 4.35888 10.6601 4.19443 10.5502C4.02998 10.4403 3.90181 10.2842 3.82612 10.1014C3.75043 9.91871 3.73063 9.71764 3.76921 9.52366C3.8078 9.32968 3.90304 9.1515 4.04289 9.01164C4.18275 8.87179 4.36093 8.77655 4.55491 8.73796C4.74889 8.69938 4.94996 8.71918 5.13268 8.79487C5.31541 8.87056 5.47159 8.99873 5.58147 9.16318C5.69135 9.32763 5.75 9.52097 5.75 9.71875C5.75 9.98397 5.64464 10.2383 5.45711 10.4259C5.26957 10.6134 5.01522 10.7188 4.75 10.7188ZM6 4.5C6 4.30222 6.05865 4.10888 6.16853 3.94443C6.27841 3.77998 6.43459 3.65181 6.61732 3.57612C6.80004 3.50043 7.00111 3.48063 7.19509 3.51921C7.38907 3.5578 7.56725 3.65304 7.70711 3.79289C7.84696 3.93275 7.9422 4.11093 7.98079 4.30491C8.01937 4.49889 7.99957 4.69996 7.92388 4.88268C7.84819 5.06541 7.72002 5.22159 7.55557 5.33147C7.39112 5.44135 7.19778 5.5 7 5.5C6.73478 5.5 6.48043 5.39464 6.29289 5.20711C6.10536 5.01957 6 4.76522 6 4.5ZM8 12.9688C7.70333 12.9687 7.41332 12.8808 7.16664 12.716C6.91997 12.5511 6.72771 12.3169 6.61418 12.0428C6.50065 11.7687 6.47094 11.4671 6.52882 11.1761C6.5867 10.8851 6.72956 10.6179 6.93934 10.4081C7.14912 10.1983 7.41639 10.0554 7.70736 9.99757C7.99834 9.93969 8.29994 9.9694 8.57403 10.0829C8.84811 10.1965 9.08238 10.3887 9.2472 10.6354C9.41203 10.8821 9.5 11.1721 9.5 11.4688C9.5 11.8666 9.34196 12.2481 9.06066 12.5294C8.77936 12.8107 8.39782 12.9687 8 12.9688ZM10.25 5.5C10.0522 5.5 9.85888 5.44135 9.69443 5.33147C9.52998 5.22159 9.40181 5.06541 9.32612 4.88268C9.25043 4.69996 9.23063 4.49889 9.26921 4.30491C9.3078 4.11093 9.40304 3.93275 9.54289 3.79289C9.68275 3.65304 9.86093 3.5578 10.0549 3.51921C10.2489 3.48063 10.45 3.50043 10.6327 3.57612C10.8154 3.65181 10.9716 3.77998 11.0815 3.94443C11.1914 4.10888 11.25 4.30222 11.25 4.5C11.25 4.76522 11.1446 5.01957 10.9571 5.20711C10.7696 5.39464 10.5152 5.5 10.25 5.5Z" />
</svg>