<svg viewBox="0 0 24 24"
    xmlns="http://www.w3.org/2000/svg">
    <path d="M18.4808 8.38993L18.4811 8.38974C18.6362 8.28664 18.8416 8.32844 18.9438 8.48178C18.9438 8.48179 18.9438 8.4818 18.9438 8.48181L21.2889 12L18.943 15.5178C18.8786 15.6142 18.7733 15.6667 18.6643 15.6667C18.6019 15.6667 18.5384 15.6491 18.4798 15.6102L18.4797 15.6101C18.3287 15.5099 18.2855 15.3033 18.3885 15.1479C18.3886 15.1478 18.3886 15.1477 18.3887 15.1476L19.747 13.1107L20.2654 12.3333H19.331H17.471H17.041L16.9766 12.7585C16.6082 15.1908 14.5281 17.0556 11.9999 17.0556C9.47168 17.0556 7.39146 15.1908 7.02197 12.7583L6.95743 12.3333H6.52764H4.66764H3.73324L4.25165 13.1107L5.6105 15.1485C5.61052 15.1485 5.61053 15.1485 5.61054 15.1485C5.71325 15.3027 5.67093 15.5092 5.5189 15.6101L5.51882 15.6102C5.46019 15.6491 5.39674 15.6667 5.33431 15.6667C5.22541 15.6667 5.12024 15.6143 5.05577 15.518C5.05571 15.518 5.05565 15.5179 5.05559 15.5178L2.71076 12L5.05589 8.48181C5.05589 8.4818 5.0559 8.48179 5.05591 8.48178C5.15765 8.32919 5.36403 8.28713 5.5189 8.38993C5.66989 8.49015 5.71307 8.69667 5.61015 8.85208C5.61009 8.85218 5.61002 8.85229 5.60995 8.85239L4.25165 10.8893L3.73324 11.6667H4.66764H6.52875H6.95872L7.02311 11.2416C7.39155 8.80924 9.47164 6.94446 11.9999 6.94446C14.528 6.94446 16.6083 8.80923 16.9778 11.2418L17.0423 11.6667H17.4721H19.3321H20.2665L19.7481 10.8893L18.3892 8.85155C18.2865 8.69742 18.3288 8.49085 18.4808 8.38993ZM11.3888 12C11.3888 11.6628 11.6627 11.3889 11.9999 11.3889C12.3371 11.3889 12.611 11.6628 12.611 12C12.611 12.3372 12.3371 12.6111 11.9999 12.6111C11.6627 12.6111 11.3888 12.3372 11.3888 12ZM7.61097 12C7.61097 14.4206 9.57928 16.3889 11.9999 16.3889C14.4204 16.3889 16.3888 14.4206 16.3888 12C16.3888 9.57943 14.4204 7.61112 11.9999 7.61112C9.57928 7.61112 7.61097 9.57943 7.61097 12Z" />
</svg>
