<svg viewBox="0 0 24 24"
    xmlns="http://www.w3.org/2000/svg">
    <path d="M20.75 7.0284V17.3693C20.75 19.1193 19.3182 20.5511 17.5682 20.5511H11.7614C10.9023 20.5511 10.0909 20.2091 9.49432 19.6045L3.25 14.45C3.25 14.45 4.18069 12.4455 4.21251 12.4295C4.38751 12.2784 4.60228 12.1989 4.84092 12.1989C5.01592 12.1989 5.17501 12.2466 5.31819 12.3261C5.75701 12.5699 8.81818 13.9886 8.81818 13.9886V6.55806C8.81818 5.89784 9.20954 5.03977 10.2102 5.03977C11.2109 5.03977 12 5.89784 12 6.55806V11.4034L12 4.44318C12 3.78295 12.5966 3.25 13.7898 3.25C14.45 3.25 15.1818 3.78295 15.1818 4.44318V11.4034V5.83521C15.1818 5.17499 15.5796 3.84659 16.7727 3.84659C17.8914 3.84659 18.3636 4.73394 18.3636 5.39417V11.4034V7.0284C18.3636 6.36817 18.8966 5.83521 19.5568 5.83521C20.217 5.83521 20.75 6.36817 20.75 7.0284Z" />
</svg>
