<svg viewBox="0 0 24 24"
    xmlns="http://www.w3.org/2000/svg">
    <path d="M9.89342 3.57875L10.3121 3.73597L10.5148 3.3374C10.7685 2.83886 11.2681 2.5 11.8438 2.5C12.4183 2.5 12.9167 2.83741 13.1708 3.34923L13.3726 3.7557L13.7967 3.59412C13.9381 3.54023 14.1 3.51135 14.2771 3.51135C15.0396 3.51135 15.6817 4.09821 15.7484 4.86028L15.7986 5.43325L16.359 5.30385C16.4672 5.27886 16.5841 5.26574 16.7104 5.26574C17.0932 5.26574 17.466 5.41928 17.7585 5.68304C18.0425 5.97935 18.1875 6.33641 18.1875 6.72652V14.9825C18.1875 18.5832 15.3359 21.5 11.8438 21.5C10.1536 21.5 8.56118 20.8308 7.37001 19.5891L7.37005 19.5891L7.36459 19.5835C6.15457 18.3608 5.5 16.7233 5.5 14.9825V10.2766C5.5 9.47126 6.15068 8.81579 6.97708 8.81579C7.08896 8.81579 7.20909 8.82844 7.32412 8.85419L7.93333 8.99055V8.36626V4.97214C7.93333 4.16212 8.5887 3.49071 9.41042 3.49071C9.57361 3.49071 9.73697 3.52 9.89342 3.57875ZM10.9277 3.99657V11.4118C10.9277 11.5795 10.7976 11.6961 10.6572 11.6961C10.512 11.6961 10.3868 11.5746 10.3868 11.4118V4.99278C10.3868 4.47046 9.9447 4.05934 9.43053 4.05934C8.91636 4.05934 8.47428 4.47046 8.47428 4.99278V14.7967C8.47428 14.9644 8.34419 15.081 8.20381 15.081C8.05858 15.081 7.93333 14.9595 7.93333 14.7967V10.2972C7.93333 10.0771 7.8438 9.83797 7.66896 9.65853L7.31664 10.0018L7.66896 9.65853C7.48187 9.46651 7.21891 9.38442 6.97708 9.38442C6.47253 9.38442 6.02083 9.7657 6.02083 10.2972V15.0031C6.02083 16.587 6.63428 18.0847 7.73314 19.2125C8.83217 20.3405 10.2945 20.9727 11.8438 20.9727C14.9718 20.9727 17.5098 18.4349 17.6597 15.2967H17.7069V14.7967V6.72652C17.7069 6.40353 17.5199 6.18792 17.4425 6.10848C17.2554 5.91646 16.9925 5.83437 16.7506 5.83437C16.2561 5.83437 15.7944 6.20636 15.7944 6.70588V11.4118C15.7944 11.5795 15.6643 11.6961 15.5239 11.6961C15.3787 11.6961 15.2534 11.5746 15.2534 11.4118V4.99278C15.2534 4.47046 14.8114 4.05934 14.2972 4.05934C13.783 4.05934 13.3409 4.47046 13.3409 4.99278V11.4118C13.3409 11.5795 13.2109 11.6961 13.0705 11.6961C12.9252 11.6961 12.8 11.5746 12.8 11.4118V3.98142C12.8 3.4591 12.3579 3.04799 11.8438 3.04799C11.3364 3.04799 10.8772 3.45756 10.9277 3.99657Z" />
</svg>
