<svg width="18" height="18" viewBox="0 0 18 18" xmlns="http://www.w3.org/2000/svg">
<path d="M6.43 3H5.07C3.93 3 3 3.93 3 5.07V12.93C3 14.07 3.93 15 5.07 15H6.43C7.57 15 8.5 14.07 8.5 12.93V5.07C8.5 3.93 7.57 3 6.43 3ZM7 12.93C7 13.24 6.74 13.5 6.43 13.5H5.07C4.75 13.5 4.5 13.24 4.5 12.93V5.07C4.5 4.76 4.76 4.5 5.07 4.5H6.43C6.75 4.5 7 4.76 7 5.07V12.93ZM12.93 3H11.57C10.43 3 9.5 3.93 9.5 5.07V12.93C9.5 14.07 10.43 15 11.57 15H12.93C14.07 15 15 14.07 15 12.93V5.07C15 3.93 14.07 3 12.93 3ZM13.5 12.93C13.5 13.24 13.24 13.5 12.93 13.5H11.57C11.25 13.5 11 13.24 11 12.93V5.07C11 4.76 11.26 4.5 11.57 4.5H12.93C13.25 4.5 13.5 4.76 13.5 5.07V12.93Z" />
</svg>
