<svg width="14" height="14" viewBox="0 0 14 14" xmlns="http://www.w3.org/2000/svg">
<path d="M9.76 0C8.63 0 7.56 0.45 6.76 1.24L6 2L4.94 3.06L0.5 7.5L0 14L6.5 13.5L12.76 7.24C13.56 6.44 14 5.36 14 4.24C14 1.9 12.1 0 9.76 0ZM11.7 6.18L5.84 12.04L3.58 12.21C3.37 11.78 3.09 11.39 2.74 11.06C2.46 10.8 2.14 10.58 1.79 10.41L1.96 8.16L6 4.12L8.38 6.5C8.67 6.79 9.06 6.94 9.44 6.94C9.82 6.94 10.21 6.79 10.5 6.5L7.06 3.06L7.82 2.3C8.34 1.78 9.03 1.5 9.76 1.5C11.27 1.5 12.5 2.73 12.5 4.24C12.5 4.98 12.21 5.66 11.7 6.18Z"/>
</svg>
