<svg width="100" height="100" viewBox="0 0 100 100" xmlns="http://www.w3.org/2000/svg">
<path fill-rule="evenodd" clip-rule="evenodd" d="M68.2544 96.5626L66.7105 87.8071C61.5929 90.0419 55.9411 91.2816 49.9998 91.2816C26.9172 91.2816 8.20508 72.5695 8.20508 49.4869C8.20508 26.4043 26.9172 7.69217 49.9998 7.69217C50.8724 7.69217 51.7388 7.71891 52.5981 7.77162L51.2304 0.0148776C50.8214 0.00499846 50.4112 3.05176e-05 49.9998 3.05176e-05C22.3857 3.05176e-05 0 22.3857 0 49.9998C0 77.614 22.3857 99.9997 49.9998 99.9997C56.4418 99.9997 62.5993 98.7814 68.2544 96.5626ZM99.346 41.8941C99.2766 41.469 99.202 41.0456 99.122 40.6242L99.346 41.8941Z"/>
<path fill-rule="evenodd" clip-rule="evenodd" d="M95.0393 28.2623L96.7269 32.8988L89.4174 35.5592C90.9567 39.9158 91.7943 44.6038 91.7943 49.4874C91.7943 72.57 73.0822 91.2821 49.9996 91.2821C49.7747 91.2821 49.5502 91.2803 49.3262 91.2768L52.4791 99.9395C78.9413 98.6471 99.9992 76.7827 99.9992 50.0001C99.9992 42.2096 98.2175 34.8353 95.0393 28.2623Z" />
<path fill-rule="evenodd" clip-rule="evenodd" d="M99.5141 57C99.8346 54.7126 100 52.3756 100 49.9998C100 22.3857 77.6146 0 50.0004 0C49.9148 0 49.8292 0.000215319 49.7437 0.000645445V7.69291C49.8292 7.6924 49.9148 7.69214 50.0004 7.69214C73.083 7.69214 91.7952 26.4043 91.7952 49.4869C91.7952 52.0518 91.5641 54.5627 91.1217 57H99.5141Z" />
</svg>
