<svg viewBox="0 0 24 24"
    xmlns="http://www.w3.org/2000/svg">
    <path d="M14.6665 5.33329C15.0332 5.33329 15.3332 5.63329 15.3332 5.99996V6.16663L14.4998 6.99996V11.1666L16.1665 12V12.275C16.1665 13.0416 15.5415 13.6666 14.7748 13.6666H12.8332V18.6666L11.9998 19.5H11.1665V13.6666H9.22484C8.45817 13.6666 7.83317 13.0416 7.83317 12.275V12L9.49984 11.1666V6.99996L8.6665 6.16663V5.99996C8.6665 5.63329 8.9665 5.33329 9.33317 5.33329H14.6665ZM14.6665 3.66663H9.33317C8.04984 3.66663 6.99984 4.70829 6.99984 5.99996V6.16663V6.85829L7.4915 7.34996L7.83317 7.69163V10.1416L7.0915 10.5166L6.1665 10.9666V12V12.275C6.1665 13.9666 7.5415 15.3333 9.22484 15.3333H9.49984V19.5V21.1666H11.1665H11.9998H12.6915L13.1832 20.675L14.0165 19.8416L14.5082 19.35V18.6666V15.3333H14.7832C16.4748 15.3333 17.8415 13.9583 17.8415 12.275V12V10.9666L16.9165 10.5083L16.1748 10.1333V7.69163L16.5165 7.34996L17.0082 6.85829V6.16663V5.99996C16.9998 4.70829 15.9582 3.66663 14.6665 3.66663Z" />
</svg>
