<svg width="14" height="14" viewBox="0 0 14 14" xmlns="http://www.w3.org/2000/svg">
<path d="M3.75 0H10.25C12.321 0 14 1.679 14 3.75C14 4.44 13.44 5 12.75 5H12.5V3.75C12.5 2.507 11.493 1.5 10.25 1.5H3.75C2.507 1.5 1.5 2.507 1.5 3.75V10.25C1.5 11.493 2.507 12.5 3.75 12.5H5V12.75C5 13.44 4.44 14 3.75 14C1.679 14 0 12.321 0 10.25V3.75C0 1.679 1.679 0 3.75 0Z" />
<path d="M12.5001 7.24997C12.5001 6.83597 12.8361 6.49997 13.2501 6.49997C13.6641 6.49997 14.0001 6.83597 14.0001 7.24997V14H7.25009C6.83609 14 6.50009 13.664 6.50009 13.25C6.50009 12.836 6.83609 12.5 7.25009 12.5H11.4401L6.47009 7.52997L7.53009 6.46997L12.5001 11.439V7.24997Z" />
</svg>
