<svg viewBox="0 0 24 24"
     xmlns="http://www.w3.org/2000/svg">
    <path d="M21.7101 7.29009C20.7701 6.35009 19.2401 6.35009 18.3001 7.29009L16.0001 9.59009L14.4101 8.00009L16.7001 5.71009C17.6401 4.77009 17.6401 3.24009 16.7001 2.30009C15.7601 1.36009 14.2301 1.36009 13.2901 2.30009L11.0001 4.59009L10.4301 4.02009C9.92007 3.51009 9.09007 3.51009 8.58007 4.02009L6.86007 5.73009C6.02007 6.57009 5.46007 7.62009 5.23007 8.78009L4.58007 12.0101L4.25007 12.3401C3.67007 12.9201 3.35007 13.6901 3.35007 14.5101C3.35007 15.3301 3.67007 16.1001 4.25007 16.6701L5.09007 17.5101L2.30007 20.3001C1.91007 20.6901 1.91007 21.3201 2.30007 21.7101C2.50007 21.9101 2.75007 22.0001 3.01007 22.0001C3.27007 22.0001 3.52007 21.9001 3.72007 21.7101L6.50007 18.9101L7.34007 19.7501C7.94007 20.3501 8.72007 20.6401 9.50007 20.6401C10.2801 20.6401 11.0701 20.3401 11.6701 19.7401L12.0001 19.4101L15.2301 18.7601C16.3901 18.5301 17.4401 17.9601 18.2801 17.1301L20.0001 15.4101C20.5101 14.9001 20.5101 14.0701 20.0001 13.5601L19.4301 12.9901L21.7201 10.7001C22.6501 9.77009 22.6501 8.23009 21.7101 7.29009ZM14.7101 3.71009C14.8701 3.55009 15.1301 3.55009 15.3001 3.71009C15.4601 3.87009 15.4601 4.13009 15.3001 4.30009L13.0001 6.59009L12.4101 6.00009L14.7101 3.71009ZM16.8601 15.7301C16.3001 16.2901 15.6001 16.6601 14.8301 16.8201L11.0101 17.5801L10.2501 18.3401C9.84007 18.7501 9.16007 18.7501 8.75007 18.3401L5.67007 15.2501C5.47007 15.0501 5.36007 14.7801 5.36007 14.5001C5.36007 14.2201 5.47007 13.9501 5.67007 13.7501L6.43007 12.9901L7.12007 9.53009L10.8901 13.2901C11.6701 14.0701 12.9401 14.0701 13.7201 13.2901L7.94007 7.53009C8.04007 7.40009 8.15007 7.27009 8.27007 7.15009L9.50007 5.91009L18.0901 14.5001L16.8601 15.7301ZM20.2901 9.29009L18.0001 11.5901L17.4101 11.0001L19.7001 8.71009C19.8601 8.55009 20.1201 8.55009 20.2901 8.71009C20.4501 8.87009 20.4501 9.13009 20.2901 9.29009Z" />
</svg>
