<svg width="16" height="16" viewBox="0 0 16 16"  xmlns="http://www.w3.org/2000/svg">
<path d="M9.75087 5.75117L7.55532 7.94672L6.6931 7.0845C6.43532 6.82672 6.00865 6.82672 5.75087 7.0845C5.4931 7.34228 5.4931 7.76894 5.75087 8.02672L7.55532 9.83117L10.6931 6.69339C10.9509 6.43561 10.9509 6.00894 10.6931 5.75117C10.4353 5.49339 10.0087 5.49339 9.75087 5.75117ZM7.99976 1.77783C5.40421 1.8045 3.35976 2.42672 1.77754 3.55561V7.11117C1.75087 9.61783 4.42643 12.9689 7.99976 14.2223C11.5731 12.9689 14.2487 9.61783 14.222 7.11117V3.55561C12.6398 2.42672 10.5953 1.8045 7.99976 1.77783ZM7.99976 12.7912C5.15532 11.6089 3.0931 8.89783 3.11087 7.11117V4.2845C4.41754 3.52894 6.0531 3.13783 7.99976 3.11117C9.94643 3.12894 11.582 3.52894 12.8887 4.27561V7.12005C12.9064 8.89783 10.8442 11.6089 7.99976 12.7912Z" />
</svg>
