<svg width="16" height="16" viewBox="0 0 16 16"  xmlns="http://www.w3.org/2000/svg">
<path d="M11.5558 6.66671V4.88893C11.5558 2.92449 9.96466 1.33337 8.00022 1.33337C6.03577 1.33337 4.44466 2.92449 4.44466 4.88893V6.66671H3.11133V9.77782C3.11133 12.4712 5.30688 14.6667 8.00022 14.6667C10.6936 14.6667 12.8891 12.4712 12.8891 9.77782V6.66671H11.5558ZM5.778 4.88893C5.778 3.66226 6.77355 2.66671 8.00022 2.66671C9.22688 2.66671 10.2224 3.66226 10.2224 4.88893V6.66671H5.778V4.88893ZM11.5558 9.77782C11.5558 11.7423 9.96466 13.3334 8.00022 13.3334C6.03577 13.3334 4.44466 11.7423 4.44466 9.77782V8.00004H11.5558V9.77782ZM7.33355 11.3334C7.33355 11.6978 7.63577 12 8.00022 12C8.36466 12 8.66688 11.6978 8.66688 11.3334V10.4889C8.85355 10.3112 8.978 10.0623 8.978 9.77782C8.978 9.2356 8.54244 8.80004 8.00022 8.80004C7.458 8.80004 7.02244 9.2356 7.02244 9.77782C7.02244 10.0623 7.14688 10.3112 7.33355 10.4889V11.3334Z"/>
</svg>
