<svg width="18" height="18" viewBox="0 0 18 18" xmlns="http://www.w3.org/2000/svg">
<path d="M11.3226 16.2258C11.3226 15.7982 11.6692 15.4516 12.0968 15.4516C13.9496 15.4516 15.4516 13.9496 15.4516 12.0968V11.0645C15.4516 10.637 15.7982 10.2903 16.2258 10.2903C16.6534 10.2903 17 10.637 17 11.0645V12.0968C17 14.8048 14.8048 17 12.0968 17C11.6692 17 11.3226 16.6534 11.3226 16.2258Z" />
<path d="M6.67742 16.2258C6.67742 16.6534 6.3308 17 5.90323 17C3.19525 17 1 14.8048 1 12.0968V11.0645C1 10.637 1.34662 10.2903 1.77419 10.2903C2.20177 10.2903 2.54839 10.637 2.54839 11.0645V12.0968C2.54839 13.9496 4.05039 15.4516 5.90323 15.4516C6.3308 15.4516 6.67742 15.7982 6.67742 16.2258Z" />
<path d="M6.67742 1.77419C6.67742 2.20177 6.3308 2.54839 5.90323 2.54839C4.05039 2.54839 2.54839 4.05039 2.54839 5.90323V6.93548C2.54839 7.36304 2.20177 7.70968 1.77419 7.70968C1.34662 7.70968 1 7.36304 1 6.93548V5.90323C1 3.19525 3.19525 1 5.90323 1C6.3308 1 6.67742 1.34662 6.67742 1.77419Z" />
<path d="M11.3226 1.77419C11.3226 1.34662 11.6692 1 12.0968 1C14.8048 1 17 3.19525 17 5.90323V6.93548C17 7.36304 16.6534 7.70968 16.2258 7.70968C15.7982 7.70968 15.4516 7.36304 15.4516 6.93548V5.90323C15.4516 4.05039 13.9496 2.54839 12.0968 2.54839C11.6692 2.54839 11.3226 2.20177 11.3226 1.77419Z" />
<path d="M3.68387 8.07097C3.2563 8.07097 2.90968 8.41759 2.90968 8.84516C2.90968 9.27274 3.2563 9.61935 3.68387 9.61935H14.0065C14.434 9.61935 14.7806 9.27274 14.7806 8.84516C14.7806 8.41759 14.434 8.07097 14.0065 8.07097H3.68387Z" />
</svg>
