<svg viewBox="0 0 24 24" xmlns="http://www.w3.org/2000/svg">
<path d="M22.2801 8.88005L20.2901 7.21005L19.8401 4.65005C19.6701 3.69005 18.8401 3.00005 17.8701 3.00005H15.2701L13.2801 1.33005C12.9101 1.02005 12.4501 0.860046 11.9901 0.860046C11.5301 0.860046 11.0801 1.02005 10.7001 1.33005L8.72006 3.00005H6.12006C5.15006 3.00005 4.32006 3.70005 4.15006 4.65005L3.70006 7.21005L1.72006 8.88005C0.980058 9.50005 0.790057 10.57 1.27006 11.41L2.57006 13.66L2.12006 16.22C1.95006 17.18 2.49006 18.11 3.41006 18.45L5.85006 19.34L7.15006 21.59C7.52006 22.22 8.18006 22.59 8.88006 22.59C9.11006 22.59 9.34006 22.55 9.56006 22.47L12.0001 21.58L14.4401 22.47C14.6601 22.55 14.9001 22.59 15.1201 22.59C15.8201 22.59 16.4901 22.22 16.8501 21.59L18.1501 19.34L20.5901 18.45C21.5001 18.12 22.0401 17.18 21.8801 16.22L21.4301 13.66L22.7301 11.41C23.2201 10.57 23.0301 9.50005 22.2801 8.88005ZM16.7101 10.71L11.0001 16.41L7.29006 12.7C6.90006 12.31 6.90006 11.68 7.29006 11.29C7.68006 10.9 8.31006 10.9 8.70006 11.29L10.9901 13.58L15.2801 9.29005C15.6701 8.90005 16.3001 8.90005 16.6901 9.29005C17.0801 9.68005 17.1001 10.32 16.7101 10.71Z" />
</svg>
