<svg width="24" height="24" viewBox="0 0 24 24" xmlns="http://www.w3.org/2000/svg">
<path d="M12 2C6.49 2 2 6.49 2 12C2 17.51 6.49 22 12 22C17.51 22 22 17.51 22 12C22 6.49 17.51 2 12 2ZM12 17.4C11.23 17.4 10.6 16.77 10.6 16C10.6 15.23 11.23 14.6 12 14.6C12.77 14.6 13.4 15.23 13.4 16C13.4 16.77 12.77 17.4 12 17.4ZM13.55 12.34C13.07 12.56 13 12.81 13 13.1V13.75H11V12.79C11 11.92 11.48 11.14 12.26 10.75L12.66 10.55C12.87 10.44 13 10.23 13 10C13 9.45 12.55 9 12 9C11.45 9 11 9.45 11 10H9C9 8.35 10.35 7 12 7C13.65 7 15 8.35 15 10C15 11 14.45 11.9 13.55 12.34Z" />
</svg>
