<svg width="18" height="18" viewBox="0 0 18 18" xmlns="http://www.w3.org/2000/svg">
<path d="M9 1.5C4.86 1.5 1.5 4.86 1.5 9C1.5 13.14 4.86 16.5 9 16.5C13.14 16.5 16.5 13.14 16.5 9C16.5 4.86 13.14 1.5 9 1.5ZM9 13C8.45 13 8 12.55 8 12C8 11.45 8.45 11 9 11C9.55 11 10 11.45 10 12C10 12.55 9.55 13 9 13ZM9.75 9.87V10.5H8.25V9.29C8.25 8.87 8.58 8.53 9 8.51C9 8.51 9.12 8.5 9.18 8.49C9.65 8.41 10 8 10 7.51C10 6.96 9.55 6.51 9 6.51C8.45 6.51 8 6.96 8 7.51H6.5C6.5 6.13 7.62 5.01 9 5.01C10.38 5.01 11.5 6.13 11.5 7.51C11.5 8.62 10.76 9.55 9.75 9.87Z"/>
</svg>
