<svg width="20" height="20" viewBox="0 0 20 20" xmlns="http://www.w3.org/2000/svg">
<path d="M10 12.6C9.23 12.6 8.6 13.23 8.6 14C8.6 14.77 9.23 15.4 10 15.4C10.77 15.4 11.4 14.77 11.4 14C11.4 13.23 10.77 12.6 10 12.6ZM10 0C4.49 0 0 4.49 0 10C0 15.51 4.49 20 10 20C15.51 20 20 15.51 20 10C20 4.49 15.51 0 10 0ZM10 18C5.59 18 2 14.41 2 10C2 5.59 5.59 2 10 2C14.41 2 18 5.59 18 10C18 14.41 14.41 18 10 18ZM10.06 5H9.95C8.32 5 7 6.32 7 7.94V8L9 7.94C9 7.42 9.42 7 9.94 7H10.05C10.57 7 10.99 7.42 10.99 7.94C10.99 8.19 10.84 8.43 10.61 8.54L10.49 8.59C9.49 9.06 8.84 10.07 8.84 11.18V11.79H10.84V11.18C10.84 10.85 11.03 10.54 11.33 10.4L11.45 10.35C12.38 9.91 12.98 8.97 12.98 7.94C13 6.32 11.68 5 10.06 5Z" />
</svg>
