<svg width="8" height="14" viewBox="0 0 8 14" xmlns="http://www.w3.org/2000/svg">
<path d="M1.5 3.5C2.3 3.5 3 2.8 3 2C3 1.2 2.3 0.5 1.5 0.5C0.7 0.5 0 1.2 0 2C0 2.8 0.7 3.5 1.5 3.5ZM1.5 10.5C0.7 10.5 0 11.2 0 12C0 12.8 0.7 13.5 1.5 13.5C2.3 13.5 3 12.8 3 12C3 11.2 2.3 10.5 1.5 10.5ZM1.5 5.5C0.7 5.5 0 6.2 0 7C0 7.8 0.7 8.5 1.5 8.5C2.3 8.5 3 7.8 3 7C3 6.2 2.3 5.5 1.5 5.5Z" />
<path d="M6.5 3.5C7.3 3.5 8 2.8 8 2C8 1.2 7.3 0.5 6.5 0.5C5.7 0.5 5 1.2 5 2C5 2.8 5.7 3.5 6.5 3.5ZM6.5 10.5C5.7 10.5 5 11.2 5 12C5 12.8 5.7 13.5 6.5 13.5C7.3 13.5 8 12.8 8 12C8 11.2 7.3 10.5 6.5 10.5ZM6.5 5.5C5.7 5.5 5 6.2 5 7C5 7.8 5.7 8.5 6.5 8.5C7.3 8.5 8 7.8 8 7C8 6.2 7.3 5.5 6.5 5.5Z" />
</svg>
