<svg width="18" height="18" viewBox="0 0 18 18" xmlns="http://www.w3.org/2000/svg">
<path d="M2.00003 6.74979C2.00003 6.33579 2.33603 5.99979 2.75003 5.99979L4.93903 5.99979L1.97003 3.02979L3.03003 1.96879L6.00003 4.93879L6.00003 2.74979C6.00003 2.33579 6.33603 1.99979 6.75003 1.99979C7.16403 1.99978 7.50003 2.33578 7.50003 2.74978L7.50003 6.43979L7.53003 6.46979L7.50003 6.49979L7.50003 7.49979L6.50003 7.49979L6.46903 7.52979L6.43903 7.49979L2.75003 7.49979C2.33603 7.49979 2.00003 7.16379 2.00003 6.74979Z" />
<path d="M11.31 1.99979C11.724 1.99979 12.06 2.33579 12.06 2.74979L12.06 4.93879L15.03 1.96979L16.091 3.02979L13.121 5.99979L15.31 5.99979C15.724 5.99979 16.06 6.33579 16.06 6.74979C16.06 7.16379 15.724 7.49979 15.31 7.49979L11.62 7.49979L11.59 7.52979L11.56 7.49979L10.56 7.49979L10.56 6.49979L10.53 6.46879L10.56 6.43879L10.56 2.74979C10.56 2.33579 10.896 1.99979 11.31 1.99979Z" />
<path d="M2.00003 11.3098C2.00003 11.7238 2.33603 12.0598 2.75003 12.0598L4.93903 12.0598L1.97003 15.0298L3.03003 16.0908L6.00003 13.1208L6.00003 15.3098C6.00003 15.7238 6.33603 16.0598 6.75003 16.0598C7.16403 16.0598 7.50003 15.7238 7.50003 15.3098L7.50003 11.6198L7.53003 11.5898L7.50003 11.5598L7.50003 10.5598L6.50003 10.5598L6.46903 10.5298L6.43903 10.5598L2.75003 10.5598C2.33603 10.5598 2.00003 10.8958 2.00003 11.3098Z" />
<path d="M11.31 16.0598C11.724 16.0598 12.06 15.7238 12.06 15.3098L12.06 13.1208L15.03 16.0898L16.091 15.0298L13.121 12.0598L15.31 12.0598C15.724 12.0598 16.06 11.7238 16.06 11.3098C16.06 10.8958 15.724 10.5598 15.31 10.5598L11.62 10.5598L11.59 10.5298L11.56 10.5598L10.56 10.5598L10.56 11.5598L10.53 11.5908L10.56 11.6208L10.56 15.3098C10.56 15.7238 10.896 16.0598 11.31 16.0598Z" />
</svg>
