<svg width="18" height="19" viewBox="0 0 18 19" xmlns="http://www.w3.org/2000/svg">
<path d="M9 14.5243C7.1325 14.5243 5.5125 13.5005 4.635 11.993H7.5825C8.04375 11.993 8.42625 11.6105 8.42625 11.1493C8.42625 10.688 8.04375 10.3055 7.5825 10.3055H2.25V15.6493C2.25 16.1105 2.6325 16.493 3.09375 16.493C3.555 16.493 3.9375 16.1105 3.9375 15.6493V13.8943C5.175 15.3118 6.975 16.2118 9 16.2118C12.5325 16.2118 15.435 13.4893 15.7162 10.0243H13.995C13.725 12.5443 11.5988 14.5243 9 14.5243ZM14.9062 2.43054C14.445 2.43054 14.0625 2.81304 14.0625 3.27429V5.02929C12.825 3.61179 11.025 2.71179 9 2.71179C5.4675 2.71179 2.565 5.43429 2.28375 8.89929H4.005C4.275 6.37929 6.40125 4.39929 9 4.39929C10.8675 4.39929 12.4875 5.42304 13.365 6.93054H10.4062C9.945 6.93054 9.5625 7.31304 9.5625 7.77429C9.5625 8.23554 9.945 8.61804 10.4062 8.61804H15.75V3.27429C15.75 2.81304 15.3675 2.43054 14.9062 2.43054Z" />
</svg>
