<svg viewBox="0 0 24 24"
    xmlns="http://www.w3.org/2000/svg">
    <path d="M16.7953 5.88883H18.9441C19.4041 5.88883 19.7775 5.5155 19.7775 5.0555C19.7775 4.5955 19.4041 4.22217 18.9441 4.22217H13.1108V10.0555C13.1108 10.5155 13.4841 10.8888 13.9441 10.8888C14.4041 10.8888 14.7775 10.5155 14.7775 10.0555V6.58439C16.7486 7.59883 18.1108 9.63439 18.1108 11.9999C18.1108 15.3699 15.3697 18.1111 11.9997 18.1111C8.6297 18.1111 5.88859 15.3699 5.88859 11.9999C5.88859 9.00995 8.04859 6.51995 10.8886 5.9955V4.31106C7.12081 4.85106 4.22192 8.08217 4.22192 11.9999C4.22192 16.2955 7.70415 19.7777 11.9997 19.7777C16.2953 19.7777 19.7775 16.2955 19.7775 11.9999C19.7775 9.5155 18.6097 7.30995 16.7953 5.88883Z" />
</svg>
