<svg width="24" height="24" viewBox="0 0 24 24" fill="none" xmlns="http://www.w3.org/2000/svg">
<path fill-rule="evenodd" clip-rule="evenodd" d="M12.7695 20.0467C15.9975 19.6851 18.5845 17.1047 18.9527 13.8767C19.4359 9.65593 16.1553 6.06305 12.043 6.01703V4.12361C12.043 4.01843 11.9115 3.96254 11.8228 4.02829L7.9242 6.89141C7.85846 6.94072 7.85846 7.03605 7.9242 7.08536L11.8228 9.94849C11.9115 10.0142 12.043 9.95506 12.043 9.85316V7.96303C14.9325 8.00905 17.2466 10.4679 17.0494 13.4066C16.8817 15.9344 14.8207 17.9856 12.2929 18.1467C9.61381 18.3176 7.33579 16.4045 6.92819 13.8734C6.85258 13.4033 6.44168 13.0614 5.96833 13.0614C5.37993 13.0614 4.91972 13.5841 5.01176 14.1659C5.58373 17.772 8.91364 20.4773 12.7695 20.0467Z" fill="white"/>
</svg>
