<svg width="18" height="18" viewBox="0 0 18 18" xmlns="http://www.w3.org/2000/svg">
<path d="M3.5 6.55002C3.5 4.87002 4.87 3.50002 6.55 3.50002H8V2.00002H6.55C4.04 2.00002 2 4.04002 2 6.55002V8.00002H3.5V6.55002ZM11.21 1.28002C10.81 1.16002 10.4 1.40002 10.28 1.80002L10.22 2.01002L10 2.78002L8.79 7.02002C7.78 7.13002 7 7.97002 7 9.00002C7 9.64002 7.31 10.2 7.77 10.56L6.65 14.5H6.55C4.87 14.5 3.5 13.13 3.5 11.45V10H2V11.45C2 13.86 3.89 15.82 6.27 15.97C6.26 16.31 6.46 16.62 6.8 16.72C6.87 16.74 6.94 16.75 7.01 16.75C7.34 16.75 7.64 16.54 7.73 16.21L11.73 2.21002C11.83 1.81002 11.6 1.39002 11.21 1.28002ZM13.81 2.67002L13.37 4.20002C14.05 4.76002 14.5 5.60002 14.5 6.55002V8.00002H16V6.55002C16 4.90002 15.12 3.47002 13.81 2.67002ZM14.5 11.45C14.5 13.13 13.13 14.5 11.45 14.5H10.42L9.99 16H11.44C13.95 16 15.99 13.96 15.99 11.45V10H14.49V11.45H14.5Z" />
</svg>
