<svg viewBox="0 0 16 16"
    xmlns="http://www.w3.org/2000/svg">
    <path d="M4 11C3.45 11 3 11.45 3 12C3 12.55 3.45 13 4 13C4.55 13 5 12.55 5 12C5 11.45 4.55 11 4 11ZM12 5C12.55 5 13 4.55 13 4C13 3.45 12.55 3 12 3C11.45 3 11 3.45 11 4C11 4.55 11.45 5 12 5ZM8 11C7.45 11 7 11.45 7 12C7 12.55 7.45 13 8 13C8.55 13 9 12.55 9 12C9 11.45 8.55 11 8 11ZM8 7C7.45 7 7 7.45 7 8C7 8.55 7.45 9 8 9C8.55 9 9 8.55 9 8C9 7.45 8.55 7 8 7ZM12 11C11.45 11 11 11.45 11 12C11 12.55 11.45 13 12 13C12.55 13 13 12.55 13 12C13 11.45 12.55 11 12 11ZM12 7C11.45 7 11 7.45 11 8C11 8.55 11.45 9 12 9C12.55 9 13 8.55 13 8C13 7.45 12.55 7 12 7Z" />
</svg>
