<svg width="18" height="18" viewBox="0 0 18 18" xmlns="http://www.w3.org/2000/svg">
<path d="M15.7876 11.2498L12.9263 9.53309C12.8881 10.4735 12.7542 11.34 12.5995 12.0623H16V11.6248C16 11.4712 15.9195 11.3288 15.7876 11.2498Z" />
<path d="M12.2605 13.375H15.5625C15.804 13.375 16 13.179 16 12.9375V12.5H12.4998C12.418 12.8362 12.3348 13.132 12.2605 13.375Z" />
<path d="M5.07366 9.53331L2.21241 11.2501C2.0805 11.3288 2 11.4712 2 11.625V12.0625H5.40047C5.24603 11.34 5.11194 10.4737 5.07366 9.53331Z" />
<path d="M2 12.5V12.9375C2 13.179 2.196 13.375 2.4375 13.375H5.73953C5.66516 13.132 5.58203 12.8362 5.50044 12.5H2Z" />
<path d="M9 16C9.45062 16 9.92728 15.4875 10.0581 14.6875H7.94234C8.07316 15.4873 8.54937 16 9 16Z" />
<path d="M9.24259 2.0735C9.16909 2.0245 9.08466 2 9 2C8.91534 2 8.83091 2.0245 8.75741 2.0735C7.18262 3.12328 5.5 5.49431 5.5 9C5.5 9.96228 5.61287 10.8611 5.75834 11.625H12.2419C12.3871 10.8611 12.5 9.96228 12.5 9C12.5 5.49431 10.8174 3.12328 9.24259 2.0735ZM9 8.5625C8.27528 8.5625 7.6875 7.97472 7.6875 7.25C7.6875 6.52528 8.27528 5.9375 9 5.9375C9.72472 5.9375 10.3125 6.52528 10.3125 7.25C10.3125 7.97472 9.72472 8.5625 9 8.5625Z" />
<path d="M9 8.125C9.48325 8.125 9.875 7.73325 9.875 7.25C9.875 6.76675 9.48325 6.375 9 6.375C8.51675 6.375 8.125 6.76675 8.125 7.25C8.125 7.73325 8.51675 8.125 9 8.125Z" />
<path d="M6.40628 13.9748C6.47278 14.1411 6.63378 14.25 6.8125 14.25H11.1875C11.3662 14.25 11.5272 14.1411 11.5937 13.9748C11.6149 13.9223 11.9059 13.1829 12.1524 12.0625H5.84759C6.09413 13.1829 6.38506 13.9223 6.40628 13.9748Z" />
</svg>
