<svg width="20" height="20" viewBox="0 0 20 20"  xmlns="http://www.w3.org/2000/svg">
<path d="M2.567 10H9.433C10.849 10 12 8.849 12 7.433V2.567C12 1.151 10.849 0 9.433 0H2.567C1.151 0 0 1.151 0 2.567V7.433C0 8.849 1.151 10 2.567 10ZM2 2.567C2 2.255 2.254 2 2.567 2H9.433C9.745 2 10 2.254 10 2.567V7.433C10 7.745 9.746 8 9.433 8H2.567C2.255 8 2 7.746 2 7.433V2.567ZM15.14 0H13.207C13.605 0.583 13.851 1.267 13.943 2H15.14C16.717 2 18 3.283 18 4.86V15.14C18 16.717 16.717 18 15.14 18H4.86C3.283 18 2 16.717 2 15.14V11.943C1.267 11.851 0.583 11.604 0 11.207V15.14C0 17.82 2.18 20 4.86 20H15.14C17.82 20 20 17.82 20 15.14V4.86C20 2.18 17.82 0 15.14 0Z" />
</svg>
