<svg width="24" height="24" viewBox="0 0 24 24" xmlns="http://www.w3.org/2000/svg">
  <path fill-rule="evenodd" clip-rule="evenodd" d="M9 6C8.44772 6 8 6.44772 8 7V8H7C6.44772 8 6 8.44771 6 9C6 9.55228 6.44771 10 7 10H8V14H7C6.44772 14 6 14.4477 6 15C6 15.5523 6.44771 16 7 16H8V17C8 17.5523 8.44772 18 9 18C9.55228 18 10 17.5523 10 17V16H14V17C14 17.5523 14.4477 18 15 18C15.5523 18 16 17.5523 16 17V16H17C17.5523 16 18 15.5523 18 15C18 14.4477 17.5523 14 17 14H16V10H17C17.5523 10 18 9.55228 18 9C18 8.44772 17.5523 8 17 8H16V7C16 6.44772 15.5523 6 15 6C14.4477 6 14 6.44772 14 7V8L10 8V7C10 6.44772 9.55228 6 9 6ZM14 14V10L10 10V14L14 14Z" />
</svg>