<svg width="14" height="12" viewBox="0 0 14 12" xmlns="http://www.w3.org/2000/svg">
<path d="M11.93 0H2.07C0.93 0 0 0.93 0 2.07V7.92C0 9.06 0.93 9.99 2.07 9.99H6.5V10.99H4.5C4.22 10.99 4 11.21 4 11.49C4 11.77 4.22 11.99 4.5 11.99H9.5C9.78 11.99 10 11.77 10 11.49C10 11.21 9.78 10.99 9.5 10.99H7.5V9.99H11.93C13.07 9.99 14 9.06 14 7.92V2.07C14 0.93 13.07 0 11.93 0ZM11.93 9H2.07C1.5 9 1.05 8.56 1.01 8H12.98C12.95 8.56 12.49 9 11.93 9ZM13 7H1V2.07C1 1.48 1.48 1 2.07 1H11.92C12.51 1 12.99 1.48 12.99 2.07V7H13Z"/>
</svg>
