<svg width="24" height="25" viewBox="0 0 24 25" xmlns="http://www.w3.org/2000/svg">
<path d="M16.0003 8.50033L18.667 5.83366L21.3337 8.50033V8.66033L19.3337 10.167V9.32699L18.667 8.66033L16.0003 11.327L10.667 5.99366L8.00033 8.66033L6.66699 7.32699L4.66699 9.32699V10.3403L2.66699 12.3403V8.50033L6.66699 4.50033L8.00033 5.83366L10.667 3.16699L16.0003 8.50033Z"/>
<path fill-rule="evenodd" clip-rule="evenodd" d="M8.00033 12.5003L10.667 9.83366L16.0003 15.167L21.3337 11.167V17.2737C21.3337 19.7937 19.2937 21.8337 16.7737 21.8337H7.22699C4.70699 21.8337 2.66699 19.7937 2.66699 17.2737V15.167L6.66699 11.167L8.00033 12.5003ZM19.3337 17.2737V15.167L15.8137 17.807L10.667 12.6603L8.00033 15.327L6.66699 13.9937L4.66699 15.9937V17.2737C4.66699 18.687 5.81366 19.8337 7.22699 19.8337H16.7737C18.187 19.8337 19.3337 18.687 19.3337 17.2737Z"/>
</svg>
