<svg width="24" height="24" viewBox="0 0 24 24" fill="none" xmlns="http://www.w3.org/2000/svg">
<path fill-rule="evenodd" clip-rule="evenodd" d="M17.9301 20.6663C16.2011 21.852 14.1492 22.5 12 22.5C6.20101 22.5 1.5 17.799 1.5 12C1.5 6.20101 6.20101 1.5 12 1.5C17.799 1.5 22.5 6.20101 22.5 12C22.5 13.4825 22.1922 14.9222 21.6051 16.2478L22.9448 18.7239C23.0994 19.0093 23.1572 19.3372 23.1096 19.6582C22.9976 20.4134 22.3371 20.9615 21.5507 20.9358L21.4058 20.922L18.2319 20.4515L17.9301 20.6663ZM8.5 11C9.32843 11 10 10.3284 10 9.5C10 8.67157 9.32843 8 8.5 8C7.67157 8 7 8.67157 7 9.5C7 10.3284 7.67157 11 8.5 11ZM16.0141 16.8325C13.2034 15.0583 10.6077 15.0583 8.12503 16.8176C7.89972 16.9773 7.58765 16.9241 7.42798 16.6988C7.26832 16.4735 7.32154 16.1614 7.54685 16.0017C10.3689 14.0019 13.4032 14.0019 16.5479 15.9869C16.7814 16.1343 16.8512 16.443 16.7038 16.6766C16.5564 16.9101 16.2476 16.9799 16.0141 16.8325ZM15.5 11C16.3284 11 17 10.3284 17 9.5C17 8.67157 16.3284 8 15.5 8C14.6716 8 14 8.67157 14 9.5C14 10.3284 14.6716 11 15.5 11ZM2.5 12C2.5 6.75329 6.75329 2.5 12 2.5C17.2467 2.5 21.5 6.75329 21.5 12C21.5 13.421 21.1881 14.7968 20.5947 16.0529L20.4865 16.2818L22.0654 19.1999C22.117 19.2952 22.1362 19.4045 22.1204 19.5115C22.0831 19.7631 21.8627 19.946 21.6112 19.9381L21.5238 19.9294L17.9611 19.4004L17.7928 19.5301C16.1443 20.8003 14.126 21.5 12 21.5C6.75329 21.5 2.5 17.2467 2.5 12Z" fill="#FF0000"/>
</svg>
