<svg width="14" height="14" viewBox="0 0 14 14" xmlns="http://www.w3.org/2000/svg">
<path d="M11.7935 0.333344H2.20683C1.1735 0.333344 0.333496 1.17334 0.333496 2.20668V5.66668H1.00016V11.7933C1.00016 12.8267 1.84016 13.6667 2.8735 13.6667H11.1268C12.1602 13.6667 13.0002 12.8267 13.0002 11.7933V5.66668C13.0002 6.03334 12.7002 6.33334 12.3335 6.33334H11.6668V11.7933C11.6668 12.0933 11.4268 12.3333 11.1268 12.3333H2.8735C2.5735 12.3333 2.3335 12.0933 2.3335 11.7933V5.66668H5.00016V6.38001C5.00016 7.08668 5.5735 7.66668 6.28683 7.66668H7.72016C8.42683 7.66668 9.00683 7.09334 9.00683 6.38001V5.66668H13.6735V2.20668C13.6668 1.17334 12.8268 0.333344 11.7935 0.333344ZM7.66683 6.33334H6.3335V5.66668H7.66683V6.33334ZM12.3335 4.33334H1.66683V2.20668C1.66683 1.90668 1.90683 1.66668 2.20683 1.66668H11.7935C12.0935 1.66668 12.3335 1.90668 12.3335 2.20668V4.33334Z" />
</svg>
