<svg width="24" height="24" viewBox="0 0 24 24" xmlns="http://www.w3.org/2000/svg">
<path d="M19.79 19.26C19.37 19.78 18.9 20.26 18.39 20.69L19.25 21.66C19.45 21.88 19.72 22 20 22C20.24 22 20.47 21.92 20.66 21.75C21.07 21.38 21.11 20.75 20.74 20.34L19.79 19.26ZM18 4C19.1 4 20 4.9 20 6C20 6.28 19.94 6.55 19.83 6.79C20.28 7.36 20.66 7.97 20.98 8.63C21.61 7.93 22 7.01 22 6C22 3.79 20.21 2 18 2C16.77 2 15.68 2.57 14.95 3.44C15.65 3.66 16.31 3.95 16.94 4.31C17.25 4.12 17.61 4 18 4ZM4.17 6.79C4.06 6.55 4 6.28 4 6C4 4.9 4.9 4 6 4C6.39 4 6.75 4.12 7.06 4.31C7.69 3.95 8.35 3.66 9.05 3.44C8.32 2.57 7.23 2 6 2C3.79 2 2 3.79 2 6C2 7.01 2.39 7.93 3.01 8.63C3.33 7.98 3.72 7.36 4.17 6.79ZM12 4C7.04 4 3 8.04 3 13C3 15.07 3.71 16.97 4.89 18.5L3.25 20.34C2.88 20.75 2.92 21.38 3.33 21.75C3.52 21.92 3.76 22 3.99 22C4.27 22 4.54 21.89 4.74 21.66L6.27 19.94C7.83 21.23 9.83 22 12 22C16.96 22 21 17.96 21 13C21 8.04 16.96 4 12 4ZM12 20C8.14 20 5 16.86 5 13C5 9.14 8.14 6 12 6C15.86 6 19 9.14 19 13C19 16.86 15.86 20 12 20ZM12 8V13H7C7 15.74 9.26 18 12 18C14.74 18 17 15.74 17 13C17 10.26 14.74 8 12 8Z"/>
</svg>
