<svg width="18" height="18" viewBox="0 0 18 18" xmlns="http://www.w3.org/2000/svg">
  <path d="M5 8H6C6 6.9 6.9 6 8 6V5C6.34 5 5 6.34 5 8ZM15.53 14.47L12.74 11.68C13.53 10.66 14 9.39 14 8C14 4.69 11.31 2 8 2C4.69 2 2 4.69 2 8C2 11.31 4.69 14 8 14C9.39 14 10.66 13.53 11.68 12.74L14.47 15.53C14.62 15.68 14.81 15.75 15 15.75C15.19 15.75 15.38 15.68 15.53 15.53C15.82 15.24 15.82 14.76 15.53 14.47ZM8 12.5C5.52 12.5 3.5 10.48 3.5 8C3.5 5.52 5.52 3.5 8 3.5C10.48 3.5 12.5 5.52 12.5 8C12.5 10.48 10.48 12.5 8 12.5Z" />
</svg>
