<svg viewBox="0 0 24 24"
    xmlns="http://www.w3.org/2000/svg">
    <path d="M5.33317 6.81496H3.6665V8.29663H5.33317V6.81496ZM3.6665 20.3333H14.4998V9.49996H3.6665V20.3333ZM5.33317 11.1666H12.8332V18.6666H5.33317V11.1666ZM5.33317 3.66663H3.6665V5.33329H5.33317V3.66663ZM14.2223 3.66663H12.7415V5.33329H14.2223V3.66663ZM8.2965 3.66663H6.81484V5.33329H8.2965V3.66663ZM15.7032 20.3333H17.1848V18.6666H15.7032V20.3333ZM11.259 3.66663H9.77734V5.33329H11.259V3.66663ZM18.6665 8.29663H20.3332V6.81496H18.6665V8.29663ZM18.6665 3.66663V5.33329H20.3332V3.66663H18.6665ZM18.6665 11.2591H20.3332V9.77746H18.6665V11.2591ZM18.6665 20.3333H20.3332V18.6666H18.6665V20.3333ZM15.7032 5.33329H17.1848V3.66663H15.7032V5.33329ZM18.6665 14.2225H20.3332V12.7408H18.6665V14.2225ZM18.6665 17.185H20.3332V15.7033H18.6665V17.185Z" />
</svg>
