<svg width="14" height="14" viewBox="0 0 14 14" xmlns="http://www.w3.org/2000/svg">
<path d="M0.75 4.5H6.61C6.95 5.79 8.11 6.75 9.5 6.75C11.15 6.75 12.5 5.4 12.5 3.75C12.5 2.1 11.15 0.75 9.5 0.75C8.11 0.75 6.94 1.71 6.61 3H0.75C0.34 3 0 3.34 0 3.75C0 4.16 0.34 4.5 0.75 4.5ZM8.21 3C8.34 2.78 8.51 2.6 8.73 2.47C8.75 2.46 8.76 2.45 8.78 2.44C8.87 2.39 8.96 2.35 9.05 2.32C9.08 2.31 9.11 2.3 9.14 2.29C9.26 2.26 9.38 2.24 9.5 2.24C9.71 2.24 9.9 2.28 10.08 2.36C10.62 2.59 11 3.12 11 3.74C11 4.36 10.62 4.89 10.08 5.12C9.9 5.2 9.7 5.24 9.5 5.24C9.37 5.24 9.25 5.22 9.14 5.19C9.11 5.18 9.08 5.17 9.05 5.16C8.95 5.13 8.86 5.09 8.78 5.04C8.76 5.03 8.75 5.02 8.73 5.01C8.51 4.88 8.34 4.7 8.21 4.48C8.08 4.26 8 4 8 3.73C8 3.46 8.08 3.22 8.21 3ZM13.25 4.5C13.66 4.5 14 4.16 14 3.75C14 3.34 13.66 3 13.25 3H12.91C12.96 3.24 13 3.49 13 3.75C13 4.01 12.96 4.26 12.91 4.5H13.25ZM4.5 7.25C3.11 7.25 1.94 8.21 1.61 9.5H0.75C0.34 9.5 0 9.84 0 10.25C0 10.66 0.34 11 0.75 11H1.61C1.95 12.29 3.11 13.25 4.5 13.25C6.15 13.25 7.5 11.9 7.5 10.25C7.5 8.6 6.15 7.25 4.5 7.25ZM5.08 11.63C4.9 11.71 4.7 11.75 4.5 11.75C4.37 11.75 4.25 11.73 4.14 11.7C4.11 11.69 4.08 11.68 4.05 11.67C3.95 11.64 3.86 11.6 3.78 11.55C3.76 11.54 3.75 11.53 3.73 11.52C3.51 11.39 3.34 11.21 3.21 10.99C3.08 10.77 3 10.51 3 10.24C3 9.97 3.08 9.71 3.21 9.49C3.34 9.27 3.51 9.09 3.73 8.96C3.75 8.95 3.76 8.94 3.78 8.93C3.87 8.88 3.96 8.84 4.05 8.81C4.08 8.8 4.11 8.79 4.14 8.78C4.26 8.75 4.38 8.73 4.5 8.73C4.71 8.73 4.9 8.77 5.08 8.85C5.62 9.08 6 9.61 6 10.23C6 10.85 5.62 11.4 5.08 11.63ZM13.25 9.5H7.91C7.96 9.74 8 9.99 8 10.25C8 10.51 7.96 10.76 7.91 11H13.25C13.66 11 14 10.66 14 10.25C14 9.84 13.66 9.5 13.25 9.5Z" />
</svg>
