<svg width="17" height="15" viewBox="0 0 17 15" xmlns="http://www.w3.org/2000/svg">
<path d="M14.5137 7.41005V1.55005C14.5137 1.14005 14.1737 0.800049 13.7637 0.800049C13.3537 0.800049 13.0137 1.14005 13.0137 1.55005V7.41005C11.7237 7.75005 10.7637 8.91005 10.7637 10.3C10.7637 11.95 12.1137 13.3 13.7637 13.3C15.4137 13.3 16.7637 11.95 16.7637 10.3C16.7637 8.91005 15.8037 7.74005 14.5137 7.41005ZM14.3437 11.68C14.1637 11.76 13.9637 11.8 13.7637 11.8C13.5637 11.8 13.3637 11.76 13.1837 11.68C12.6437 11.45 12.2637 10.92 12.2637 10.3C12.2637 10.17 12.2837 10.05 12.3137 9.94005C12.3237 9.91005 12.3337 9.88005 12.3437 9.85005C12.3737 9.75005 12.4137 9.66005 12.4637 9.58005C12.4737 9.56005 12.4837 9.55005 12.4937 9.53005C12.6237 9.31005 12.8037 9.14005 13.0237 9.01005C13.2437 8.88005 13.5037 8.80005 13.7737 8.80005C14.0437 8.80005 14.3037 8.88005 14.5237 9.01005C14.7437 9.14005 14.9237 9.31005 15.0537 9.53005C15.0637 9.55005 15.0737 9.56005 15.0837 9.58005C15.1337 9.67005 15.1737 9.76005 15.2037 9.85005C15.2137 9.88005 15.2237 9.91005 15.2337 9.94005C15.2637 10.06 15.2837 10.18 15.2837 10.3C15.2637 10.92 14.8837 11.45 14.3437 11.68ZM4.01367 5.41005V1.55005C4.01367 1.14005 3.67367 0.800049 3.26367 0.800049C2.85367 0.800049 2.51367 1.14005 2.51367 1.55005V5.41005C1.22367 5.74005 0.263672 6.91005 0.263672 8.30005C0.263672 9.95005 1.61367 11.3 3.26367 11.3C4.91367 11.3 6.26367 9.95005 6.26367 8.30005C6.26367 6.91005 5.30367 5.74005 4.01367 5.41005ZM4.71367 8.66005C4.70367 8.69005 4.69367 8.72005 4.68367 8.75005C4.65367 8.85005 4.61367 8.94005 4.56367 9.02005C4.55367 9.04005 4.54367 9.05005 4.53367 9.07005C4.40367 9.29005 4.22367 9.46005 4.00367 9.59005C3.78367 9.72005 3.52367 9.80005 3.25367 9.80005C2.98367 9.80005 2.72367 9.72005 2.50367 9.59005C2.28367 9.46005 2.10367 9.29005 1.97367 9.07005C1.96367 9.05005 1.95367 9.04005 1.94367 9.02005C1.89367 8.93005 1.85367 8.84005 1.82367 8.75005C1.81367 8.72005 1.80367 8.69005 1.79367 8.66005C1.76367 8.54005 1.74367 8.42005 1.74367 8.30005C1.74367 8.18005 1.76367 8.05005 1.79367 7.94005C1.80367 7.91005 1.81367 7.88005 1.82367 7.85005C1.85367 7.75005 1.89367 7.66005 1.94367 7.58005C1.95367 7.56005 1.96367 7.55005 1.97367 7.53005C2.10367 7.31005 2.28367 7.14005 2.50367 7.01005C2.72367 6.88005 2.98367 6.80005 3.25367 6.80005C3.52367 6.80005 3.78367 6.88005 4.00367 7.01005C4.22367 7.14005 4.40367 7.31005 4.53367 7.53005C4.54367 7.55005 4.55367 7.56005 4.56367 7.58005C4.61367 7.67005 4.65367 7.76005 4.68367 7.85005C4.69367 7.88005 4.70367 7.91005 4.71367 7.94005C4.74367 8.06005 4.76367 8.18005 4.76367 8.30005C4.76367 8.42005 4.74367 8.55005 4.71367 8.66005ZM9.23367 1.40005C9.16367 1.06005 8.87367 0.800049 8.51367 0.800049C8.15367 0.800049 7.86367 1.06005 7.79367 1.40005C6.48367 1.72005 5.51367 2.89005 5.51367 4.30005C5.51367 5.95005 6.86367 7.30005 8.51367 7.30005C10.1637 7.30005 11.5137 5.95005 11.5137 4.30005C11.5137 2.89005 10.5437 1.72005 9.23367 1.40005ZM9.96367 4.66005C9.95367 4.69005 9.94367 4.72005 9.93367 4.75005C9.90367 4.85005 9.86367 4.94005 9.81367 5.02005C9.80367 5.04005 9.79367 5.05005 9.78367 5.07005C9.65367 5.29005 9.47367 5.46005 9.25367 5.59005C9.04367 5.72005 8.78367 5.80005 8.51367 5.80005C8.24367 5.80005 7.98367 5.72005 7.76367 5.59005C7.54367 5.46005 7.36367 5.29005 7.23367 5.07005C7.22367 5.05005 7.21367 5.04005 7.20367 5.02005C7.15367 4.93005 7.11367 4.84005 7.08367 4.75005C7.07367 4.72005 7.06367 4.69005 7.05367 4.66005C7.03367 4.55005 7.01367 4.43005 7.01367 4.30005C7.01367 4.17005 7.03367 4.05005 7.06367 3.94005C7.07367 3.91005 7.08367 3.88005 7.09367 3.85005C7.12367 3.75005 7.16367 3.66005 7.21367 3.58005C7.22367 3.56005 7.23367 3.55005 7.24367 3.53005C7.37367 3.31005 7.55367 3.14005 7.77367 3.01005C7.99367 2.88005 8.25367 2.80005 8.52367 2.80005C8.79367 2.80005 9.05367 2.88005 9.27367 3.01005C9.49367 3.14005 9.67367 3.31005 9.80367 3.53005C9.81367 3.55005 9.82367 3.56005 9.83367 3.58005C9.88367 3.67005 9.92367 3.76005 9.95367 3.85005C9.96367 3.88005 9.97367 3.91005 9.98367 3.94005C10.0137 4.06005 10.0337 4.18005 10.0337 4.30005C10.0337 4.42005 9.99367 4.55005 9.96367 4.66005ZM2.51367 11.71V14.05C2.51367 14.46 2.85367 14.8 3.26367 14.8C3.67367 14.8 4.01367 14.46 4.01367 14.05V11.71C3.77367 11.7701 3.52367 11.8 3.26367 11.8C3.00367 11.8 2.75367 11.76 2.51367 11.71ZM7.76367 7.71005V14.05C7.76367 14.46 8.10367 14.8 8.51367 14.8C8.92367 14.8 9.26367 14.46 9.26367 14.05V7.71005C9.02367 7.76005 8.77367 7.80005 8.51367 7.80005C8.25367 7.80005 8.00367 7.76005 7.76367 7.71005ZM13.0137 13.71V14.05C13.0137 14.46 13.3537 14.8 13.7637 14.8C14.1737 14.8 14.5137 14.46 14.5137 14.05V13.71C14.2737 13.7701 14.0237 13.8 13.7637 13.8C13.5037 13.8 13.2537 13.76 13.0137 13.71Z"/>
</svg>
