<svg viewBox="0 0 24 24"
    xmlns="http://www.w3.org/2000/svg">
    <path d="M15.8891 13.1111C15.1669 13.1111 14.4891 13.3111 13.9113 13.6555C13.5669 13.8555 13.2558 14.1111 13.0002 14.4222L10.7113 13.1333C10.8336 12.7778 10.8891 12.3889 10.8891 12V11.9555C10.8891 11.5666 10.8224 11.2 10.7224 10.8555L13.0002 9.57775L14.5002 8.73331C14.0669 8.37775 13.7669 7.86664 13.6891 7.28886C13.678 7.19997 13.6669 7.09997 13.6669 6.99997C13.6669 6.57775 13.7891 6.17775 14.0002 5.83331C14.3891 5.19997 15.0891 4.77775 15.8891 4.77775C17.1113 4.77775 18.1113 5.77775 18.1113 6.99997C18.1113 8.21108 17.1224 9.21108 15.9113 9.2222L13.9113 10.3444C14.4902 10.6889 15.1669 10.8889 15.8891 10.8889C18.0336 10.8889 19.778 9.14442 19.778 6.99997C19.778 4.85553 18.0336 3.11108 15.8891 3.11108C13.7558 3.11108 12.0224 4.83331 12.0002 6.95553V6.99997C12.0002 7.38886 12.0558 7.77775 12.178 8.13331L9.90022 9.41108C9.18911 8.61108 8.15577 8.11108 7.00022 8.11108C4.85577 8.11108 3.11133 9.85553 3.11133 12C3.11133 14.1444 4.85577 15.8889 7.00022 15.8889C7.71133 15.8889 8.38911 15.7 8.96688 15.3444L6.96688 14.2222C5.75577 14.2 4.77799 13.2111 4.77799 12C4.77799 10.7778 5.778 9.77775 7.00022 9.77775C7.52244 9.77775 8.01133 9.95553 8.38911 10.2666C8.58911 10.4222 8.75577 10.6222 8.88911 10.8333C9.05577 11.1 9.15577 11.4 9.20022 11.7111C9.21133 11.8 9.22244 11.9 9.22244 12C9.22244 12.1 9.21133 12.2 9.20022 12.2889C9.12244 12.8678 8.82244 13.3778 8.38911 13.7333L9.90022 14.5778L12.178 15.8666L13.6891 16.7111C13.7669 16.1322 14.0669 15.6222 14.5002 15.2666C14.878 14.9555 15.3669 14.7778 15.8891 14.7778H15.9002C17.1224 14.7889 18.1113 15.7778 18.1113 17C18.1113 18.2222 17.1113 19.2222 15.8891 19.2222C15.1002 19.2222 14.4002 18.8 14.0002 18.1778L12.0002 17.0555C12.0336 19.1778 13.7669 20.8889 15.8891 20.8889C18.0336 20.8889 19.778 19.1444 19.778 17C19.778 14.8555 18.0336 13.1111 15.8891 13.1111Z" />
</svg>
