<svg width="18" height="18" viewBox="0 0 18 18" xmlns="http://www.w3.org/2000/svg">
    <g clip-path="url(#clip0_10315_277283)">
        <path d="M6.75974 4.23127C7.13924 3.92291 7.75447 3.92291 8.13396 4.23127L14 9.00092L8.13267 13.7685C7.94357 13.9232 7.69488 14 7.4462 14C7.19752 14 6.94884 13.9221 6.75974 13.7685C6.38024 13.4601 6.38024 12.9602 6.75974 12.6518L10.2827 9.7892H0.971413C0.435193 9.7892 1.90455e-08 9.43558 0 8.99987C-1.90454e-08 8.56416 0.435193 8.21054 0.971413 8.21054H10.2827L6.75974 5.34791C6.38024 5.03955 6.38024 4.53964 6.75974 4.23127Z" />
        <path d="M2.6 3.88C2.25 3.6 2.22 3.08 2.53 2.76C4.16 1.06 6.46 1.11027e-07 9 0C13.97 -2.17246e-07 17.99 4.03 17.99 9C17.99 13.97 13.97 18 9 18C6.46 18 4.16 16.94 2.53 15.24C2.22 14.92 2.25 14.4 2.6 14.12C2.9 13.89 3.33 13.9 3.59 14.17C5.28 15.95 7.84 16.9 10.59 16.33C13.48 15.74 15.79 13.4 16.36 10.51C16.46 10 16.5 9.49 16.5 9C16.5 8.51 16.46 8 16.36 7.49C15.79 4.6 13.47 2.27 10.59 1.67C7.85 1.1 5.29 2.05 3.59 3.83C3.33 4.11 2.89 4.12 2.6 3.88Z" />
    </g>
    <defs>
        <clipPath id="clip0_10315_277283">
            <rect width="18" height="18" transform="translate(0 18) rotate(-90)"/>
        </clipPath>
    </defs>
</svg>
