<svg width="32" height="32" viewBox="0 0 32 32" xmlns="http://www.w3.org/2000/svg">
  <path
    d="M29.3334 18.6667C29.3334 14.4 26.8 10.6667 23.0667 8.93334C21.3334 5.2 17.6 2.66667 13.3334 2.66667C7.46669 2.66667 2.66669 7.46667 2.66669 13.3333C2.66669 15.0667 3.06669 16.6667 3.86669 18.1333L2.80002 23.8667L8.53335 22.8C10 23.6 11.6 24 13.3334 24C19.2 24 24 19.2 24 13.3333C24 13.0667 24 12.9333 24 12.6667C25.6 14.1333 26.6667 16.2667 26.6667 18.6667C26.6667 20.4 26.1334 22 25.2 23.3333L26 26L23.3334 25.2C22 26.1333 20.4 26.6667 18.6667 26.6667C16.9334 26.6667 15.4667 26.1333 14.1334 25.3333C13.8667 25.3333 13.6 25.3333 13.3334 25.3333C12.1334 25.3333 11.0667 25.2 10 24.8C12 27.4667 15.0667 29.3333 18.6667 29.3333C20.4 29.3333 22 28.9333 23.4667 28.1333L29.2 29.2L28.1334 23.4667C28.9334 22 29.3334 20.4 29.3334 18.6667ZM9.33335 14.6667C8.53335 14.6667 8.00002 14.1333 8.00002 13.3333C8.00002 12.5333 8.53335 12 9.33335 12C10.1334 12 10.6667 12.5333 10.6667 13.3333C10.6667 14.1333 10.1334 14.6667 9.33335 14.6667ZM13.3334 14.6667C12.5334 14.6667 12 14.1333 12 13.3333C12 12.5333 12.5334 12 13.3334 12C14.1334 12 14.6667 12.5333 14.6667 13.3333C14.6667 14.1333 14.1334 14.6667 13.3334 14.6667ZM17.3334 14.6667C16.5334 14.6667 16 14.1333 16 13.3333C16 12.5333 16.5334 12 17.3334 12C18.1334 12 18.6667 12.5333 18.6667 13.3333C18.6667 14.1333 18.1334 14.6667 17.3334 14.6667Z" />
</svg>