<svg width="18" height="18" viewBox="0 0 18 18"  xmlns="http://www.w3.org/2000/svg">
<path d="M5.99994 2.44019L3.46994 4.97019C3.17994 5.26019 3.17994 5.74019 3.46994 6.03019C3.75994 6.32019 4.23994 6.32019 4.52994 6.03019L5.24994 5.31019V15.0002C5.24994 15.4102 5.58994 15.7502 5.99994 15.7502C6.40994 15.7502 6.74994 15.4102 6.74994 15.0002V5.31019L7.46994 6.03019C7.61994 6.18019 7.80994 6.25019 7.99994 6.25019C8.18994 6.25019 8.37994 6.18019 8.52994 6.03019C8.81994 5.74019 8.81994 5.26019 8.52994 4.97019L5.99994 2.44019Z" />
<path d="M11.9999 15.7502L14.5299 13.2202C14.8199 12.9302 14.8199 12.4502 14.5299 12.1602C14.2399 11.8702 13.7599 11.8702 13.4699 12.1602L12.7499 12.8802V3.19019C12.7499 2.78019 12.4099 2.44019 11.9999 2.44019C11.5899 2.44019 11.2499 2.78019 11.2499 3.19019V12.8802L10.5299 12.1602C10.3799 12.0102 10.1899 11.9402 9.99994 11.9402C9.80994 11.9402 9.61994 12.0102 9.46994 12.1602C9.17994 12.4502 9.17994 12.9302 9.46994 13.2202L11.9999 15.7502Z" />
</svg>
