<svg width="18" height="18" viewBox="0 0 18 18" xmlns="http://www.w3.org/2000/svg">
<path d="M5.99994 2.44019L3.46994 4.97019C3.17994 5.26019 3.17994 5.74019 3.46994 6.03019C3.75994 6.32019 4.23994 6.32019 4.52994 6.03019L5.24994 5.31019V15.0002C5.24994 15.4102 5.58994 15.7502 5.99994 15.7502C6.40994 15.7502 6.74994 15.4102 6.74994 15.0002V5.31019L7.46994 6.03019C7.61994 6.18019 7.80994 6.25019 7.99994 6.25019C8.18994 6.25019 8.37994 6.18019 8.52994 6.03019C8.81994 5.74019 8.81994 5.26019 8.52994 4.97019L5.99994 2.44019ZM14.5299 4.97019L11.9999 2.44019L9.46994 4.97019C9.17994 5.26019 9.17994 5.74019 9.46994 6.03019C9.75994 6.32019 10.2399 6.32019 10.5299 6.03019L11.2499 5.31019V15.0002C11.2499 15.4102 11.5899 15.7502 11.9999 15.7502C12.4099 15.7502 12.7499 15.4102 12.7499 15.0002V5.31019L13.4699 6.03019C13.6199 6.18019 13.8099 6.25019 13.9999 6.25019C14.1899 6.25019 14.3799 6.18019 14.5299 6.03019C14.8199 5.74019 14.8199 5.26019 14.5299 4.97019Z" />
</svg>
