<svg viewBox="0 0 24 24"
    xmlns="http://www.w3.org/2000/svg">
    <path d="M10.3001 15.3L9.50012 16.1V5.33333C9.50012 4.87778 9.12234 4.5 8.66679 4.5C8.21123 4.5 7.83346 4.87778 7.83346 5.33333V16.1L7.03346 15.3C6.71124 14.9778 6.1779 14.9778 5.85568 15.3C5.53346 15.6222 5.53346 16.1556 5.85568 16.4778L8.66679 19.2889L11.4779 16.4778C11.8001 16.1556 11.8001 15.6222 11.4779 15.3C11.1557 14.9778 10.6223 14.9778 10.3001 15.3ZM18.1446 15.3C17.8223 14.9778 17.289 14.9778 16.9668 15.3L16.1668 16.1V5.33333C16.1668 4.87778 15.789 4.5 15.3335 4.5C14.8779 4.5 14.5001 4.87778 14.5001 5.33333V16.1L13.7001 15.3C13.3779 14.9778 12.8446 14.9778 12.5223 15.3C12.2001 15.6222 12.2001 16.1556 12.5223 16.4778L15.3335 19.2889L18.1446 16.4778C18.4668 16.1556 18.4668 15.6222 18.1446 15.3Z" />
</svg>
