<svg width="18" height="18" viewBox="0 0 18 18" xmlns="http://www.w3.org/2000/svg">
<path d="M7.46994 11.97L6.74994 12.69V3C6.74994 2.59 6.40994 2.25 5.99994 2.25C5.58994 2.25 5.24994 2.59 5.24994 3V12.69L4.52994 11.97C4.23994 11.68 3.75994 11.68 3.46994 11.97C3.17994 12.26 3.17994 12.74 3.46994 13.03L5.99994 15.56L8.52994 13.03C8.81994 12.74 8.81994 12.26 8.52994 11.97C8.23994 11.68 7.75994 11.68 7.46994 11.97ZM14.5299 11.97C14.2399 11.68 13.7599 11.68 13.4699 11.97L12.7499 12.69V3C12.7499 2.59 12.4099 2.25 11.9999 2.25C11.5899 2.25 11.2499 2.59 11.2499 3V12.69L10.5299 11.97C10.2399 11.68 9.75994 11.68 9.46994 11.97C9.17994 12.26 9.17994 12.74 9.46994 13.03L11.9999 15.56L14.5299 13.03C14.8199 12.74 14.8199 12.26 14.5299 11.97Z" />
</svg>
