<svg width="24" height="24" viewBox="0 0 24 24" xmlns="http://www.w3.org/2000/svg">
<path fill-rule="evenodd" clip-rule="evenodd" d="M11.9852 2C14.6524 2 17.1598 3.03862 19.0458 4.92458C20.9318 6.81054 21.9704 9.31804 21.9704 11.9852C21.9704 14.6523 20.9317 17.1598 19.0458 19.0457C17.1598 20.9317 14.6524 21.9704 11.9852 21.9704C9.31804 21.9704 6.81058 20.9318 4.92462 19.0458C3.03867 17.1598 2 14.6523 2 11.9852C2 10.6398 2.26317 9.33413 2.78225 8.10463C2.90675 7.80983 3.24667 7.67171 3.54142 7.79617C3.83625 7.92063 3.97438 8.26054 3.84988 8.55533C3.39138 9.64146 3.15888 10.7954 3.15888 11.9852C3.15888 16.8521 7.11833 20.8115 11.9852 20.8115C16.8521 20.8115 20.8115 16.8521 20.8115 11.9852C20.8115 7.11833 16.8521 3.15888 11.9852 3.15888C10.8889 3.15888 9.81933 3.35725 8.80638 3.7485C8.50779 3.86375 8.17242 3.71529 8.05708 3.41675C7.94179 3.11825 8.09033 2.78279 8.38883 2.6675C9.5355 2.22458 10.7455 2 11.9852 2ZM12.1804 15.9626C13.0749 15.9626 13.8026 16.6903 13.8026 17.5848C13.8026 18.4792 13.0749 19.2069 12.1804 19.2069C11.2859 19.2069 10.5582 18.4792 10.5582 17.5848C10.5582 16.6903 11.2859 15.9626 12.1804 15.9626ZM12.1804 17.1214C11.9249 17.1214 11.7171 17.3293 11.7171 17.5848C11.7171 17.8403 11.9249 18.0481 12.1804 18.0481C12.4359 18.0481 12.6438 17.8403 12.6438 17.5848C12.6438 17.3293 12.4359 17.1214 12.1804 17.1214ZM11.9852 5.80625C15.3923 5.80625 18.1642 8.57813 18.1642 11.9852C18.1642 14.041 17.1459 15.9563 15.4404 17.1085C15.1751 17.2877 14.815 17.2179 14.6358 16.9528C14.4567 16.6876 14.5265 16.3275 14.7916 16.1483C16.1777 15.2118 17.0053 13.6555 17.0053 11.9852C17.0053 9.21708 14.7533 6.96504 11.9852 6.96504C9.21713 6.96504 6.96513 9.21713 6.96513 11.9852C6.96513 13.7644 7.921 15.4273 9.45979 16.3249C9.73621 16.4862 9.82958 16.841 9.66833 17.1174C9.56067 17.302 9.36662 17.4049 9.16729 17.4049C9.06812 17.4049 8.96767 17.3795 8.87587 17.3259C7.95904 16.7911 7.19042 16.0245 6.65304 15.1091C6.09904 14.1654 5.80625 13.0852 5.80625 11.9852C5.80625 8.57813 8.57808 5.80625 11.9852 5.80625ZM11.9852 8.50446C13.9045 8.50446 15.466 10.0659 15.466 11.9852C15.466 13.9045 13.9045 15.466 11.9852 15.466C10.0659 15.466 8.50446 13.9045 8.50446 11.9852C8.50446 10.0659 10.0659 8.50446 11.9852 8.50446ZM11.9852 9.66329C10.7049 9.66329 9.66329 10.7049 9.66329 11.9852C9.66329 13.2655 10.7049 14.3071 11.9852 14.3071C13.2655 14.3071 14.3071 13.2655 14.3071 11.9852C14.3071 10.7049 13.2655 9.66329 11.9852 9.66329ZM5.22833 2.94737C6.48604 2.94737 7.50929 3.97062 7.50929 5.22833C7.50929 6.48604 6.48608 7.50929 5.22833 7.50929C3.97058 7.50929 2.94737 6.48604 2.94737 5.22833C2.94737 3.97062 3.97062 2.94737 5.22833 2.94737ZM5.22833 4.10621C4.60958 4.10621 4.10621 4.60958 4.10621 5.22829C4.10621 5.847 4.60958 6.35038 5.22833 6.35038C5.84708 6.35038 6.35046 5.847 6.35046 5.22829C6.35046 4.60958 5.84708 4.10621 5.22833 4.10621Z" />
</svg>