<svg width="24" height="24" viewBox="0 0 24 24" xmlns="http://www.w3.org/2000/svg">
    <path d="M22.27 4.22C22.1 3.37 21.62 2.73 20.89 2.37C20 1.92 18.78 1.94 17.31 2.39C18.13 2.85 18.89 3.41 19.56 4.05C19.74 4.07 19.88 4.1 19.99 4.16C20.11 4.22 20.24 4.32 20.3 4.63C20.38 5.03 20.31 5.57 20.11 6.19C18.31 3.65 15.34 2 12 2C6.49003 2 2.00004 6.49 2.00004 12C2.00004 13.25 2.25004 14.43 2.67004 15.54C1.82004 17.24 1.50004 18.67 1.73004 19.79C1.93004 20.75 2.53003 21.46 3.43003 21.78C3.79003 21.91 4.19003 21.97 4.63003 21.97C6.88003 21.97 10.17 20.38 13.61 17.57C18.34 13.7 22.98 7.71 22.27 4.22ZM4.10003 19.89C3.90003 19.82 3.76004 19.71 3.69004 19.38C3.61004 18.99 3.69004 18.44 3.89004 17.8C4.43004 18.55 5.06003 19.21 5.78003 19.79C5.06003 19.98 4.48003 20.02 4.10003 19.89ZM8.01003 18.9C5.62003 17.52 4.00003 14.95 4.00003 12C4.00003 7.59 7.59003 4 12 4C15.1 4 17.79 5.78 19.11 8.36C17.78 10.67 15.42 13.5 12.34 16.01C10.76 17.31 9.29003 18.25 8.01003 18.9ZM20.57 13.55C20.23 13.95 19.88 14.33 19.51 14.71C18.47 17.6 15.82 19.71 12.64 19.97C12.64 19.97 12.63 19.97 12.63 19.98C11.56 20.58 10.48 21.16 9.31003 21.63C10.16 21.87 11.06 22 11.98 22C17.49 22 21.98 17.51 21.98 12C21.98 11.9 21.97 11.8 21.97 11.71C21.55 12.36 21.08 12.97 20.57 13.55Z" />
</svg>
