<svg width="18" height="18" viewBox="0 0 18 18" fill="none" xmlns="http://www.w3.org/2000/svg">
<path fill-rule="evenodd" clip-rule="evenodd" d="M6.75 3C6.75 2.44772 7.19772 2 7.75 2H10.25C10.8023 2 11.25 2.44772 11.25 3V10.75H6.75V3ZM7.875 3.5C7.875 3.22386 8.09886 3 8.375 3H9.625C9.90114 3 10.125 3.22386 10.125 3.5V9.5H7.875V3.5Z M2 6C2 5.44772 2.44772 5 3 5H6.5V9.75H2V6ZM3.125 6.6875C3.125 6.41136 3.34886 6.1875 3.625 6.1875H5.375V8.82639H3.125V6.6875Z M2 10H6.5V16H4.3C3.02975 16 2 14.9703 2 13.7V10ZM3.125 11H5.375V15H4.625C3.79657 15 3.125 14.3284 3.125 13.5V11Z M11.25 11H6.75V16H11.25V11ZM10.125 12H7.875V15H10.125V12Z M16 9H11.5V16H13.7C14.9703 16 16 14.9703 16 13.7V9ZM14.875 10H12.625V15H13.375C14.2034 15 14.875 14.3284 14.875 13.5V10Z M11.5 4H15C15.5523 4 16 4.44772 16 5V8.75H11.5V4ZM12.625 5.125H14.875V7.625H12.625V5.125Z" />
</svg>
