<svg viewBox="0 0 24 24" fill="none"
    xmlns="http://www.w3.org/2000/svg">
    <path d="M18.116 6.78254L13.3813 2.72388L8.58129 6.25321L5.64529 5.55454L2.66663 8.95721V17.4079C2.66663 19.5732 4.42663 21.3332 6.59063 21.3332H17.408C19.572 21.3332 21.332 19.5732 21.332 17.4092V4.94388L18.116 6.78254ZM19.3333 17.4092C19.3333 18.4705 18.4706 19.3332 17.4093 19.3332H6.59063C5.52929 19.3332 4.66663 18.4705 4.66663 17.4092V14.4705L6.57729 15.8292L9.26263 14.4865L13.3053 17.1825L19.3333 13.5652V17.4092ZM19.3333 11.2332L13.3613 14.8172L9.40529 12.1799L6.75729 13.5039L4.66663 12.0172V9.70921L6.35596 7.77988L9.01863 8.41454L13.2853 5.27721L17.884 9.21854L19.3333 8.38921V11.2332Z" />
</svg>
