<svg width="16" height="16" viewBox="0 0 16 16" xmlns="http://www.w3.org/2000/svg">
<path fill-rule="evenodd" clip-rule="evenodd" d="M1 2.93333C1 2.41787 1.34822 2 1.77778 2H4.96667C5.35327 2 5.66667 2.3134 5.66667 2.7V3.63333H14.3C14.6866 3.63333 15 3.94673 15 4.33333V12.2667C15 12.7821 14.6518 13.2 14.2222 13.2H1.77778C1.34822 13.2 1 12.7821 1 12.2667V2.93333ZM7.0116 6.38023L6.91374 7.21965L6.05361 7.43709L4.69541 6.04459C4.56847 6.33093 4.5 6.62706 4.5 6.96302C4.5 8.15799 5.45768 9.13583 6.63985 9.13583C6.87434 9.13583 7.08914 9.08653 7.30425 9.01732L9.67859 11.437C10.1282 11.8914 10.822 11.9208 11.2225 11.516C11.623 11.1111 11.5839 10.4199 11.1443 9.96545L8.71153 7.5161C8.75061 7.33848 8.78001 7.14095 8.78001 6.96302C8.78001 5.75794 7.82233 4.8 6.64016 4.8C6.29842 4.8 5.97576 4.88881 5.69249 5.02724L7.0116 6.38023Z" />
</svg>
