<svg width="14" height="15" viewBox="0 0 14 15" xmlns="http://www.w3.org/2000/svg">
<path d="M11.58 2.712C11.268 2.442 10.792 2.476 10.522 2.79C10.251 3.104 10.286 3.577 10.599 3.848C11.807 4.89 12.499 6.404 12.499 8C12.499 11.033 10.031 13.5 6.999 13.5C3.967 13.5 1.499 11.033 1.499 8C1.499 6.404 2.191 4.891 3.399 3.848C3.712 3.577 3.748 3.104 3.476 2.79C3.204 2.476 2.731 2.443 2.418 2.712C0.882 4.04 0 5.967 0 8C0 11.86 3.141 15 7 15C10.859 15 14 11.86 14 8C14 5.967 13.118 4.04 11.58 2.712ZM7 8.75C7.414 8.75 7.75 8.414 7.75 8V1C7.75 0.586 7.414 0.25 7 0.25C6.586 0.25 6.25 0.586 6.25 1V8C6.25 8.414 6.586 8.75 7 8.75Z"/>
</svg>
