<svg width="32" height="32" viewBox="0 0 32 32" xmlns="http://www.w3.org/2000/svg">
<path d="M15.9999 13.9996C16.5099 13.9996 16.9799 14.1996 17.3299 14.5196L20.0099 11.5396C18.9099 10.5496 17.4799 10.0096 15.9999 10.0096C12.7099 10.0096 9.99992 12.7196 9.99992 16.0097C9.99992 19.2997 12.7099 22.0096 15.9999 22.0096C19.2899 22.0096 21.9999 19.2997 21.9999 16.0097C21.9999 15.1996 21.8399 14.3996 21.5199 13.6496L17.8399 15.2196C17.9399 15.4596 17.9999 15.7296 17.9999 16.0097C17.9999 17.1096 17.0999 18.0097 15.9999 18.0097C14.8999 18.0097 13.9999 17.1096 13.9999 16.0097C13.9999 14.9096 14.8999 13.9996 15.9999 13.9996ZM3.46992 15.9996C4.83992 10.2496 10.0599 6.10965 15.9999 6.10965C18.4099 6.10965 20.6899 6.79965 22.6499 7.99965H21.4999C20.6699 7.99965 19.9999 8.66965 19.9999 9.49965C19.9999 10.3296 20.6699 10.9996 21.4999 10.9996H27.9999V4.49965C27.9999 3.66965 27.3299 2.99965 26.4999 2.99965C25.6699 2.99965 24.9999 3.66965 24.9999 4.49965V5.68965C22.3999 3.92965 19.2999 2.88965 15.9999 2.88965C8.42992 2.88965 1.79992 8.25965 0.239922 15.6696L0.169922 15.9996L0.239922 16.3296C0.429922 17.2497 0.709922 18.1396 1.04992 18.9996H4.59992C4.09992 18.0596 3.71992 17.0596 3.46992 15.9996ZM31.7599 15.6696C31.5699 14.7496 31.2899 13.8596 30.9499 12.9996H27.3999C27.8999 13.9396 28.2799 14.9396 28.5299 15.9996C27.1599 21.7496 21.9399 25.8896 15.9999 25.8896C13.5899 25.8896 11.3099 25.1996 9.34992 23.9996H10.4999C11.3299 23.9996 11.9999 23.3296 11.9999 22.4996C11.9999 21.6696 11.3299 20.9996 10.4999 20.9996H3.99992V27.4996C3.99992 28.3296 4.66992 28.9996 5.49992 28.9996C6.32992 28.9996 6.99992 28.3296 6.99992 27.4996V26.3097C9.59992 28.0697 12.6999 29.1096 15.9999 29.1096C23.5699 29.1096 30.1999 23.7396 31.7599 16.3296L31.8299 15.9996L31.7599 15.6696Z"/>
</svg>
