<svg width="15" height="15" viewBox="0 0 15 15" xmlns="http://www.w3.org/2000/svg">
<path d="M7.66683 12.3333V1.66668H11.8802C12.1268 1.66668 12.3335 1.86668 12.3335 2.12001V4.33334H13.6668V2.12001C13.6668 1.13334 12.8668 0.333344 11.8802 0.333344H2.12016C1.1335 0.333344 0.333496 1.13334 0.333496 2.12001V4.33334H1.66683V2.12001C1.66683 1.87334 1.86683 1.66668 2.12016 1.66668H6.3335V12.3333H4.3335V13.6667H9.0135C8.72016 13.28 8.50016 12.8267 8.40016 12.3333H7.66683ZM11.6668 9.00001C10.1935 9.00001 9.00016 10.1933 9.00016 11.6667C9.00016 13.14 10.1935 14.3333 11.6668 14.3333C13.1402 14.3333 14.3335 13.14 14.3335 11.6667C14.3335 10.1933 13.1402 9.00001 11.6668 9.00001ZM12.3335 12.3333V13.6667H11.0002V12.3333H9.66683V11H11.0002V9.66668H12.3335V11H13.6668V12.3333H12.3335Z" />
</svg>
