<svg width="22" height="22" viewBox="0 0 22 22" xmlns="http://www.w3.org/2000/svg">
    <path d="M14.525 18.5H16.175V17H14.525V18.5ZM14.75 3.5H3.5V14.75H7.25V16.175H8.75V14.75H14.75V8.75H16.175V7.25H14.75V3.5ZM13.25 13.25H5V5H13.25V13.25ZM12.05 18.5H13.7V17H12.05V18.5ZM9.575 18.5H11.225V17H9.575V18.5ZM7.25 18.5H8.75V17H7.25V18.5ZM17 7.25V8.75H18.5V7.25H17ZM17 11.225H18.5V9.575H17V11.225ZM17 18.5H18.5V17H17V18.5ZM17 16.175H18.5V14.525H17V16.175ZM17 13.7H18.5V12.05H17V13.7Z" />
    <path d="M4 1H18V-1H4V1ZM21 4V18H23V4H21ZM18 21H4V23H18V21ZM1 18V4H-1V18H1ZM4 21C2.34315 21 1 19.6569 1 18H-1C-1 20.7614 1.23858 23 4 23V21ZM21 18C21 19.6569 19.6569 21 18 21V23C20.7614 23 23 20.7614 23 18H21ZM18 1C19.6569 1 21 2.34315 21 4H23C23 1.23858 20.7614 -1 18 -1V1ZM4 -1C1.23858 -1 -1 1.23858 -1 4H1C1 2.34315 2.34315 1 4 1V-1Z" />
</svg>
