<svg width="14" height="15" viewBox="0 0 14 15" xmlns="http://www.w3.org/2000/svg">
    <path
        d="M6 3.88V4.76667C6.21333 4.71333 6.43333 4.67333 6.66667 4.67333C6.9 4.67333 7.12 4.71333 7.33333 4.76667V3.88C8.10667 3.6 8.66667 2.86667 8.66667 2C8.66667 0.9 7.76667 0 6.66667 0C5.56667 0 4.66667 0.9 4.66667 2C4.66667 2.86667 5.22667 3.6 6 3.88ZM8.36667 5.3C8.71333 5.58667 8.98 5.95333 9.14667 6.38L10.1867 5.64C10.5133 5.86667 10.9067 6.00667 11.3333 6.00667C12.4333 6.00667 13.3333 5.10667 13.3333 4.00667C13.3333 2.90667 12.4333 2.00667 11.3333 2.00667C10.2333 2.00667 9.33333 2.90667 9.33333 4.00667C9.33333 4.2 9.36667 4.38 9.42 4.55333L8.36667 5.3ZM6.66667 5.33333C5.56667 5.33333 4.66667 6.23333 4.66667 7.33333C4.66667 8.43333 5.56667 9.33333 6.66667 9.33333C7.76667 9.33333 8.66667 8.43333 8.66667 7.33333C8.66667 6.23333 7.76667 5.33333 6.66667 5.33333ZM6.66667 8C6.3 8 6 7.7 6 7.33333C6 6.96667 6.3 6.66667 6.66667 6.66667C7.03333 6.66667 7.33333 6.96667 7.33333 7.33333C7.33333 7.7 7.03333 8 6.66667 8ZM7.33333 10.7867V9.9C7.12 9.95333 6.9 9.99333 6.66667 9.99333C6.43333 9.99333 6.21333 9.95333 6 9.9V10.7867C5.22667 11.0667 4.66667 11.8 4.66667 12.6667C4.66667 13.7667 5.56667 14.6667 6.66667 14.6667C7.76667 14.6667 8.66667 13.7667 8.66667 12.6667C8.66667 11.8 8.10667 11.0667 7.33333 10.7867ZM11.3333 8.66667C10.9067 8.66667 10.5133 8.8 10.1867 9.03333L9.14667 8.29333C8.98 8.72 8.71333 9.08667 8.36667 9.37333L9.41333 10.12C9.36 10.2933 9.32667 10.4733 9.32667 10.6667C9.32667 11.7667 10.2267 12.6667 11.3267 12.6667C12.4267 12.6667 13.3267 11.7667 13.3267 10.6667C13.3267 9.56667 12.4333 8.66667 11.3333 8.66667ZM2 6C2.42667 6 2.82 5.86667 3.14667 5.63333L4.18667 6.37333C4.35333 5.94667 4.62 5.58 4.96667 5.29333L3.91333 4.54667C3.96667 4.37333 4 4.19333 4 4C4 2.9 3.1 2 2 2C0.9 2 0 2.9 0 4C0 5.1 0.9 6 2 6ZM4.96667 9.36667C4.62 9.08 4.35333 8.71333 4.18667 8.28667L3.14667 9.02667C2.82 8.8 2.42667 8.66667 2 8.66667C0.9 8.66667 0 9.56667 0 10.6667C0 11.7667 0.9 12.6667 2 12.6667C3.1 12.6667 4 11.7667 4 10.6667C4 10.4733 3.96667 10.2933 3.91333 10.12L4.96667 9.36667Z" />
</svg>