<svg width="32" height="32" viewBox="0 0 32 32" xmlns="http://www.w3.org/2000/svg">
    <path
        d="M17.2802 11.9469L19.1646 13.8314L22.2224 10.7736L25.778 14.3291L31.2197 8.88913L25.442 3.11135H19.2126L16.706 5.25713L20.3362 8.88913L17.2802 11.9469ZM24.3362 5.77802L27.4473 8.88913L25.778 10.5585L20.9975 5.77802H24.3362ZM22.2757 16.8358C21.234 17.8776 21.234 19.5647 22.2757 20.6065L25.5397 23.8705C25.7637 24.0927 25.8864 24.3896 25.8864 24.7042C25.8864 25.0207 25.7637 25.3158 25.5397 25.5398C25.0971 25.9842 24.3184 25.986 23.8704 25.5398L19.1113 20.7807V17.2251L9.27664 7.39046L10.6082 6.05891L6.02864 2.86069L2.86064 6.02869L6.05886 10.6082L7.39042 9.27669L13.6695 15.5558L12.7806 16.4447H9.22508L3.68553 21.9842C2.95842 22.7114 2.55664 23.6767 2.55664 24.7042C2.55664 25.7318 2.95842 26.6989 3.68553 27.4242C4.41086 28.1514 5.37797 28.5514 6.40553 28.5514C7.43131 28.5514 8.39842 28.1514 9.12553 27.4242L14.2758 22.2758C13.234 21.234 11.5469 21.234 10.5051 22.2758L7.24108 25.5398C6.79131 25.9878 6.01442 25.986 5.57175 25.5398C5.34775 25.3176 5.22508 25.0207 5.22508 24.7042C5.22508 24.3896 5.34775 24.0927 5.57175 23.8687L10.3309 19.1096H13.8864L15.5558 17.4402L16.4446 18.3291V21.8847L21.9842 27.426C22.7113 28.1531 23.6784 28.5514 24.7042 28.5514C25.7318 28.5514 26.6989 28.1514 27.4242 27.426C28.1513 26.6989 28.5531 25.7318 28.5531 24.7042C28.5531 23.6767 28.1513 22.7096 27.4242 21.9842L22.2757 16.8358Z"
    />
</svg>