<svg width="16" height="16" viewBox="0 0 16 16" xmlns="http://www.w3.org/2000/svg">
<path fill-rule="evenodd" clip-rule="evenodd" d="M1.29949 6.66127L3.50753 7.79928V10.7691L3.50789 10.7752C3.5239 11.0514 3.60777 11.3186 3.75122 11.5517C3.89308 11.7822 4.0885 11.9718 4.3191 12.1035C5.18989 12.704 6.63346 13 8 13C9.36655 13 10.8101 12.704 11.6809 12.1035C11.9115 11.9718 12.1069 11.7822 12.2488 11.5517C12.3922 11.3186 12.4761 11.0514 12.4921 10.7752L12.4925 10.7691V7.79625L12.8294 7.61278V10.9633L12.8394 10.9944C12.8773 11.1132 12.9504 11.2156 13.0472 11.2878C13.144 11.3599 13.2598 11.3983 13.3782 11.3983C13.4965 11.3983 13.6123 11.3599 13.7091 11.2878C13.8059 11.2156 13.879 11.1132 13.917 10.9944L13.9269 10.9633V7.05934L14.6986 6.66228L14.7005 6.66126C14.7941 6.6117 14.8726 6.53497 14.9259 6.43957C14.9792 6.3441 15.0048 6.23433 14.9992 6.12353C14.9936 6.01275 14.9571 5.90649 14.8946 5.8175C14.8322 5.72857 14.7466 5.66081 14.6488 5.6216L14.6164 5.60862H14.5786L8.17847 3.03994C8.05187 2.98669 7.91028 2.98669 7.78368 3.03994L1.35114 5.62164C1.25333 5.66086 1.16783 5.7286 1.10541 5.8175C1.04292 5.90649 1.00636 6.01275 1.00076 6.12353C0.995154 6.23433 1.0208 6.34411 1.07414 6.43957C1.12744 6.53497 1.2059 6.61171 1.29949 6.66127ZM11.3692 8.36242L11.3571 9.60802L11.3571 10.7785C11.3571 10.8261 11.3232 10.9239 11.1759 11.0569C11.0346 11.1844 10.8154 11.3191 10.5185 11.4419C9.92625 11.6867 9.05434 11.8716 7.96215 11.8716C6.87042 11.8716 5.99881 11.6829 5.40675 11.4344C5.10994 11.3099 4.89061 11.1733 4.74913 11.0444C4.60154 10.9098 4.56717 10.811 4.56717 10.763V8.35691L6.02074 9.10813L7.12197 9.68061L7.69866 9.97929C7.7753 10.0215 7.86059 10.0435 7.94701 10.0435C8.03274 10.0435 8.11735 10.0219 8.19351 9.98031L8.79896 9.68233L9.91773 9.11253L11.3692 8.36242ZM7.45255 8.5957L2.86609 6.22138L7.96221 4.17633L13.0582 6.21778L8.47169 8.59573L7.96215 8.84111L7.45255 8.5957Z" fill="#8F9EAA"/>
</svg>
