<svg width="14" height="15" viewBox="0 0 14 15" xmlns="http://www.w3.org/2000/svg">
<path d="M4.75002 5.1875V11.9375C4.75002 12.2525 4.99752 12.5 5.31252 12.5C5.62752 12.5 5.87502 12.2525 5.87502 11.9375V5.1875C5.87502 4.8725 5.62752 4.625 5.31252 4.625C4.99752 4.625 4.75002 4.8725 4.75002 5.1875ZM8.12502 5.1875V11.9375C8.12502 12.2525 8.37252 12.5 8.68752 12.5C9.00253 12.5 9.25002 12.2525 9.25002 11.9375V5.1875C9.25002 4.8725 9.00253 4.625 8.68752 4.625C8.37252 4.625 8.12502 4.8725 8.12502 5.1875ZM12.7938 5.91875L12.535 6.1775L12.625 4.70375V4.63625H11.5L11.005 12.5562C10.9713 13.1637 10.465 13.6363 9.85753 13.6363H4.14252C3.53502 13.6363 3.02877 13.1637 2.99502 12.5562L2.56752 5.75L2.43252 3.5H13.1875C13.5025 3.5 13.75 3.2525 13.75 2.9375C13.75 2.6225 13.5025 2.375 13.1875 2.375H9.25002C9.25002 1.1375 8.23752 0.125 7.00002 0.125C5.76252 0.125 4.75002 1.1375 4.75002 2.375H0.81252C0.49752 2.375 0.25002 2.6225 0.25002 2.9375C0.25002 3.2525 0.49752 3.5 0.81252 3.5H1.30752L1.37502 4.6925L1.46502 6.16625L1.20627 5.9075C0.98127 5.6825 0.63252 5.6825 0.40752 5.9075C0.182519 6.1325 0.182519 6.48125 0.40752 6.70625L1.53252 7.83125C1.54377 7.8425 1.55502 7.8425 1.56627 7.85375L1.85877 12.6125C1.93752 13.8162 2.93877 14.75 4.13127 14.75H9.83502C11.0388 14.75 12.04 13.8162 12.1075 12.6125L12.4 7.865C12.4113 7.85375 12.4225 7.85375 12.4338 7.8425L13.5588 6.7175C13.7838 6.4925 13.7838 6.14375 13.5588 5.91875C13.3338 5.69375 13.0075 5.69375 12.7938 5.91875ZM7.00002 1.25C7.61877 1.25 8.12502 1.75625 8.12502 2.375H5.87502C5.87502 1.75625 6.38127 1.25 7.00002 1.25Z" />
</svg>
