<svg width="18" height="18" viewBox="0 0 18 18" xmlns="http://www.w3.org/2000/svg">
<path d="M2.94999 7.54C2.13999 7.54 1.48999 8.19 1.48999 9C1.48999 9.81 2.13999 10.46 2.94999 10.46C3.75999 10.46 4.40999 9.81 4.40999 9C4.40999 8.2 3.75999 7.54 2.94999 7.54ZM9.92999 5.39C11.75 5.39 13.25 6.74 13.5 8.49H16C15.89 7.12 15.32 5.83 14.36 4.82C13.75 5.13 13 5.14 12.36 4.77C11.72 4.4 11.35 3.75 11.32 3.06C10.86 2.95 10.39 2.9 9.91999 2.9C9.00999 2.9 8.12999 3.1 7.31999 3.48L8.56999 5.65C9.00999 5.48 9.46999 5.39 9.92999 5.39ZM13.41 4.42C14.22 4.42 14.87 3.77 14.87 2.96C14.87 2.15 14.22 1.5 13.41 1.5C12.6 1.5 11.95 2.15 11.95 2.96C11.95 3.77 12.61 4.42 13.41 4.42ZM6.31999 9C6.31999 7.85 6.85999 6.82 7.69999 6.16L6.43999 4C6.13999 4.21 5.86999 4.44 5.60999 4.7C4.88999 5.42 4.36999 6.3 4.07999 7.25C4.65999 7.62 5.03999 8.27 5.03999 9.01C5.03999 9.75 4.65999 10.39 4.07999 10.77C4.36999 11.72 4.88999 12.6 5.60999 13.32C5.86999 13.58 6.13999 13.81 6.43999 14.02L7.69999 11.84C6.85999 11.18 6.31999 10.15 6.31999 9ZM9.92999 12.61C9.45999 12.61 8.99999 12.52 8.58999 12.35L7.33999 14.52C8.13999 14.9 9.01999 15.1 9.93999 15.1C10.42 15.1 10.89 15.05 11.34 14.94C11.37 14.25 11.74 13.6 12.38 13.23C13.02 12.86 13.77 12.87 14.38 13.18C15.33 12.17 15.9 10.89 16.01 9.51H13.51C13.25 11.26 11.74 12.61 9.92999 12.61ZM13.41 13.58C12.6 13.58 11.95 14.23 11.95 15.04C11.95 15.85 12.6 16.5 13.41 16.5C14.22 16.5 14.87 15.85 14.87 15.04C14.87 14.23 14.22 13.58 13.41 13.58Z" />
</svg>
