<svg width="18" height="18" viewBox="0 0 18 18" xmlns="http://www.w3.org/2000/svg">
  <path d="M9.00008 13.3501C9.75008 13.3501 10.3501 12.7501 10.3501 12.0001C10.3501 11.2501 9.75008 10.6501 9.00008 10.6501C8.25008 10.6501 7.65008 11.2501 7.65008 12.0001C7.65008 12.7501 8.25008 13.3501 9.00008 13.3501ZM11.2301 11.2301C11.5801 11.5801 12.1601 11.4901 12.4201 11.0701C12.7901 10.4701 13.0001 9.76009 13.0001 9.00009C13.0001 6.79009 11.2101 5.03009 9.00008 5.02009C6.79008 5.02009 5.00008 6.79009 5.00008 9.00009C5.00008 9.76009 5.21008 10.4701 5.58008 11.0701C5.84008 11.5001 6.42008 11.5801 6.77008 11.2301C7.02008 10.9801 7.05008 10.6001 6.87008 10.3001C6.64008 9.93009 6.50008 9.48009 6.50008 9.00009C6.50008 7.62009 7.62008 6.51009 9.00008 6.51009C10.3801 6.51009 11.5001 7.63009 11.5001 9.00009C11.5001 9.48009 11.3601 9.93009 11.1301 10.3101C10.9501 10.6001 10.9801 10.9801 11.2301 11.2301ZM5.71008 5.71009C6.24008 5.18009 6.24008 4.33009 5.71008 3.80009C5.18008 3.27009 4.33008 3.27009 3.80008 3.80009C3.27008 4.33009 3.27008 5.18009 3.80008 5.71009C4.33008 6.24009 5.18008 6.24009 5.71008 5.71009ZM9.00008 10.0001C9.55008 10.0001 10.0001 9.55009 10.0001 9.00009C10.0001 8.45009 9.55008 8.00009 9.00008 8.00009C8.45008 8.00009 8.00008 8.45009 8.00008 9.00009C8.00008 9.55009 8.45008 10.0001 9.00008 10.0001ZM9.42008 2.01009C8.61008 1.96009 7.84008 2.05009 7.11008 2.26009C6.68008 2.38009 6.45008 2.85009 6.62008 3.27009L6.63008 3.28009C6.77008 3.62009 7.14008 3.81009 7.49008 3.71009C8.38008 3.45009 9.36008 3.41009 10.3701 3.66009C12.3501 4.14009 13.9401 5.77009 14.3801 7.76009C15.2501 11.7501 11.7701 15.2301 7.78008 14.3601C5.79008 13.9201 4.16008 12.3401 3.68008 10.3601C3.43008 9.35009 3.47008 8.36009 3.73008 7.47009C3.83008 7.12009 3.63008 6.75009 3.30008 6.61009C3.30008 6.61009 3.29008 6.61009 3.29008 6.60009C2.88008 6.43009 2.41008 6.66009 2.28008 7.09009C2.08008 7.82009 1.98008 8.59009 2.03008 9.39009C2.23008 12.9801 5.27008 15.9101 8.87008 15.9901C12.8501 16.0701 16.0901 12.8401 16.0201 8.87009C15.9401 5.28009 13.0101 2.22009 9.42008 2.01009Z" />
</svg>
