<svg width="16" height="16" viewBox="0 0 16 16" xmlns="http://www.w3.org/2000/svg">
<path d="M11.1701 2H4.83005C2.26005 2 0.680055 4.8 2.00005 7L5.35005 12.59C5.95005 13.59 6.97005 14.09 8.00005 14.09C9.03005 14.09 10.0501 13.59 10.6501 12.59L14.0001 7C15.3201 4.8 13.7401 2 11.1701 2ZM12.7201 6.23L9.37005 11.82C8.95005 12.52 8.28005 12.59 8.01005 12.59C7.74005 12.59 7.07005 12.52 6.65005 11.82L3.28005 6.23C2.79005 5.42 3.10005 4.69 3.26005 4.42C3.42005 4.15 3.88005 3.5 4.83005 3.5H11.1701C12.1201 3.5 12.5801 4.14 12.7401 4.41C12.9001 4.68 13.2001 5.41 12.7201 6.23ZM8.00005 8.35C7.59005 8.35 7.25005 8.69 7.25005 9.1C7.25005 9.51 7.59005 9.85 8.00005 9.85C8.41005 9.85 8.75005 9.51 8.75005 9.1C8.75005 8.69 8.41005 8.35 8.00005 8.35ZM7.82005 5.04C7.39005 5.14 7.11005 5.57 7.21005 6L7.57005 7.6C7.61005 7.76 7.73005 7.89 7.90005 7.93C8.13005 7.98 8.37005 7.84 8.42005 7.6L8.78005 6C8.80005 5.89 8.81005 5.76 8.78005 5.65C8.69005 5.21 8.26005 4.94 7.82005 5.04Z" />
</svg>
