<svg width="12" height="14" viewBox="0 0 12 14" xmlns="http://www.w3.org/2000/svg">
    <path d="M10 8.49996H8.00004V9.99996H5.62004L4.24004 11.5H5.20004V13.5H6.82004V11.5H9.50005V9.99996H11.5V3.61996L10 5.23996V8.49996ZM11.5 0.449958C11.19 0.169958 10.72 0.189958 10.44 0.499958L9.98005 0.999958H0.50004V9.99996H1.80004L0.44004 11.5C0.16004 11.81 0.18004 12.28 0.49004 12.56C0.63004 12.69 0.81004 12.76 0.99004 12.76C1.19004 12.76 1.40004 12.68 1.54004 12.51L11.54 1.50996C11.83 1.19996 11.81 0.719958 11.5 0.449958ZM3.17004 8.49996H2.00004V2.49996H3.25004V3.99996H4.75004V2.49996H8.62004L3.17004 8.49996Z" />
</svg>
