<svg width="231" height="230" viewBox="0 0 231 230" fill="none" xmlns="http://www.w3.org/2000/svg">
  <path d="M115.5 226C176.804 226 226.5 176.304 226.5 115C226.5 53.6964 176.804 4 115.5 4C54.1964 4 4.5 53.6964 4.5 115C4.5 176.304 54.1964 226 115.5 226Z" fill="#EDF2F6"/>
  <path d="M212.149 115C212.151 130.433 208.457 145.642 201.377 159.355C194.296 173.068 184.035 184.886 171.451 193.821C158.867 202.755 144.326 208.546 129.045 210.709C113.764 212.872 98.1875 211.344 83.6182 206.253C69.0489 201.162 55.9106 192.656 45.3024 181.447C34.6943 170.237 26.9247 156.65 22.6437 141.823C18.3628 126.995 17.6949 111.358 20.696 96.2197C23.6971 81.0811 30.2799 66.8814 39.8936 54.8083L43.1968 50.7711C56.2136 36.0964 73.3875 25.7299 92.4367 21.049C111.486 16.3681 131.508 17.5943 149.844 24.5647C168.18 31.5352 183.96 43.9199 195.089 60.0733C206.218 76.2266 212.168 95.384 212.149 115V115Z" fill="#E2E6EC"/>
  <mask id="mask0_3243_260237" style="mask-type:alpha" maskUnits="userSpaceOnUse" x="6" y="18" width="206" height="194">
    <path d="M211.798 114.743C211.8 130.176 208.107 145.385 201.026 159.098C193.945 172.812 183.684 184.63 171.1 193.564C158.516 202.498 143.975 208.289 128.694 210.452C113.413 212.615 97.8365 211.087 83.2672 205.996C68.6979 200.905 26.1082 203.209 15.5 192C4.89183 180.791 15.781 156.828 11.5 142C7.21904 127.172 5.4991 110.639 8.50018 95.5C11.5013 80.3614 7.88624 59.573 17.5 47.5H40C53.0168 32.8253 73.0365 25.4731 92.0857 20.7922C111.135 16.1112 131.157 17.3374 149.493 24.3079C167.829 31.2784 183.609 43.663 194.738 59.8164C205.867 75.9698 211.817 95.1271 211.798 114.743Z" fill="#E2E6EC"/>
  </mask>
  <g mask="url(#mask0_3243_260237)">
    <g clip-path="url(#clip0_3243_260237)">
      <path d="M217.255 50H19.1415C17.6826 50 16.5 51.1826 16.5 52.6415V187.358C16.5 188.817 17.6826 190 19.1415 190H217.255C218.714 190 219.896 188.817 219.896 187.358V52.6415C219.896 51.1826 218.714 50 217.255 50Z" fill="#45535C"/>
      <path d="M19.1415 50H217.255C217.955 50 218.627 50.2783 219.123 50.7737C219.618 51.2691 219.896 51.9409 219.896 52.6415V56.6038H16.5V52.6415C16.5 51.9409 16.7783 51.2691 17.2737 50.7737C17.7691 50.2783 18.4409 50 19.1415 50V50Z" fill="#546C82"/>
      <path opacity="0.5" d="M21.1227 55.2826C22.2169 55.2826 23.1039 54.3956 23.1039 53.3014C23.1039 52.2073 22.2169 51.3203 21.1227 51.3203C20.0286 51.3203 19.1416 52.2073 19.1416 53.3014C19.1416 54.3956 20.0286 55.2826 21.1227 55.2826Z" fill="#00FF00"/>
      <path opacity="0.5" d="M27.7265 55.2826C28.8206 55.2826 29.7076 54.3956 29.7076 53.3014C29.7076 52.2073 28.8206 51.3203 27.7265 51.3203C26.6323 51.3203 25.7454 52.2073 25.7454 53.3014C25.7454 54.3956 26.6323 55.2826 27.7265 55.2826Z" fill="#FFFF00"/>
      <path opacity="0.5" d="M34.3303 55.2826C35.4244 55.2826 36.3114 54.3956 36.3114 53.3014C36.3114 52.2073 35.4244 51.3203 34.3303 51.3203C33.2361 51.3203 32.3491 52.2073 32.3491 53.3014C32.3491 54.3956 33.2361 55.2826 34.3303 55.2826Z" fill="#FF0000"/>
      <path d="M34.3301 88.9624L40.9339 82.3587L34.3301 75.7549" stroke="white" stroke-width="2" stroke-miterlimit="10"/>
      <path d="M44.2358 88.3018H56.1226" stroke="white" stroke-width="2" stroke-miterlimit="10"/>
    </g>
    <path d="M145.374 81.9888C145.374 80.7032 144.331 79.6611 143.046 79.6611C141.76 79.6611 140.718 80.7032 140.718 81.9888V101.541C140.718 102.826 141.76 103.868 143.046 103.868C144.331 103.868 145.374 102.826 145.374 101.541V81.9888Z" fill="#7698B0"/>
    <path d="M145.373 83.3857H153.194C153.836 83.3857 154.452 83.6408 154.906 84.0948C155.36 84.5487 155.615 85.1645 155.615 85.8065V97.7239C155.615 98.366 155.36 98.9817 154.906 99.4357C154.452 99.8896 153.836 100.145 153.194 100.145H145.373V83.3857Z" fill="#6D8CA3"/>
    <path d="M155.615 88.9717H158.594C159.286 88.9717 159.949 89.2463 160.438 89.7352C160.926 90.2241 161.201 90.8872 161.201 91.5786V91.951C161.201 92.6425 160.926 93.3055 160.438 93.7944C159.949 94.2833 159.286 94.558 158.594 94.558H155.615V88.9717Z" fill="#658196"/>
    <path d="M219.897 143.904C219.897 144.434 219.897 145.094 219.897 145.766H183.547C181.077 145.766 178.709 144.785 176.963 143.039C175.217 141.293 174.236 138.925 174.236 136.456V100.144C174.236 96.0479 171.536 92.6961 168.184 92.6961H161.201V90.834H168.184C172.56 90.834 176.098 95.0237 176.098 100.144V136.456C176.098 138.431 176.883 140.325 178.28 141.722C179.677 143.119 181.571 143.904 183.547 143.904H219.897Z" fill="#7698B0"/>
    <path d="M124.89 85.2471H115.58C114.551 85.2471 113.718 86.0808 113.718 87.1092C113.718 88.1376 114.551 88.9713 115.58 88.9713H124.89C125.919 88.9713 126.752 88.1376 126.752 87.1092C126.752 86.0808 125.919 85.2471 124.89 85.2471Z" fill="#80A4BF"/>
    <path d="M124.89 94.5576H115.58C114.551 94.5576 113.718 95.3913 113.718 96.4197C113.718 97.4481 114.551 98.2818 115.58 98.2818H124.89C125.919 98.2818 126.752 97.4481 126.752 96.4197C126.752 95.3913 125.919 94.5576 124.89 94.5576Z" fill="#80A4BF"/>
    <path d="M127.777 81.5234H140.718V102.007H127.777C126.764 102.007 125.793 101.604 125.077 100.889C124.361 100.173 123.959 99.2017 123.959 98.1893V85.3407C123.959 84.8395 124.058 84.3431 124.25 83.8799C124.442 83.4168 124.723 82.996 125.077 82.6415C125.432 82.287 125.853 82.0059 126.316 81.814C126.779 81.6222 127.275 81.5234 127.777 81.5234Z" fill="#6D8CA3"/>
    <path d="M106.269 107.127C106.269 105.842 105.227 104.8 103.942 104.8C102.656 104.8 101.614 105.842 101.614 107.127V126.68C101.614 127.965 102.656 129.007 103.942 129.007C105.227 129.007 106.269 127.965 106.269 126.68V107.127Z" fill="#19B357"/>
    <path d="M106.269 108.523H114.09C114.732 108.523 115.347 108.778 115.801 109.232C116.255 109.686 116.51 110.302 116.51 110.944V122.862C116.51 123.504 116.255 124.119 115.801 124.573C115.347 125.027 114.732 125.282 114.09 125.282H106.269V108.523Z" fill="#00AB44"/>
    <path d="M116.51 114.11H119.49C120.181 114.11 120.844 114.385 121.333 114.874C121.822 115.363 122.097 116.026 122.097 116.717V117.09C122.097 117.781 121.822 118.444 121.333 118.933C120.844 119.422 120.181 119.697 119.49 119.697H116.51V114.11Z" fill="#00993D"/>
    <path d="M219.896 132.732C219.88 133.356 219.896 133.868 219.896 134.594H144.442C141.973 134.594 139.604 133.613 137.858 131.867C136.112 130.121 135.131 127.752 135.131 125.283C135.131 121.187 132.431 117.835 129.08 117.835H122.097V115.973H129.08C133.456 115.973 136.994 120.162 136.994 125.283C136.994 127.259 137.778 129.153 139.175 130.55C140.572 131.947 142.466 132.732 144.442 132.732H219.896Z" fill="#00AB44"/>
    <path d="M85.7859 110.386H76.4754C75.447 110.386 74.6133 111.219 74.6133 112.248C74.6133 113.276 75.447 114.11 76.4754 114.11H85.7859C86.8143 114.11 87.648 113.276 87.648 112.248C87.648 111.219 86.8143 110.386 85.7859 110.386Z" fill="#00CB51"/>
    <path d="M85.7859 119.696H76.4754C75.447 119.696 74.6133 120.53 74.6133 121.558C74.6133 122.587 75.447 123.42 76.4754 123.42H85.7859C86.8143 123.42 87.648 122.587 87.648 121.558C87.648 120.53 86.8143 119.696 85.7859 119.696Z" fill="#00CB51"/>
    <path d="M88.6723 106.662H101.614V127.145H88.6723C87.6599 127.145 86.6889 126.743 85.973 126.027C85.2572 125.311 84.855 124.34 84.855 123.328V110.479C84.855 109.467 85.2572 108.496 85.973 107.78C86.6889 107.064 87.6599 106.662 88.6723 106.662Z" fill="#00AB44"/>
    <path d="M124.89 149.025C124.89 147.739 123.848 146.697 122.562 146.697C121.277 146.697 120.235 147.739 120.235 149.025V168.577C120.235 169.862 121.277 170.905 122.562 170.905C123.848 170.905 124.89 169.862 124.89 168.577V149.025Z" fill="#7698B0"/>
    <path d="M124.89 150.421H132.711C133.353 150.421 133.969 150.676 134.423 151.13C134.877 151.584 135.132 152.2 135.132 152.842V164.666C135.132 165.308 134.877 165.924 134.423 166.378C133.969 166.832 133.353 167.087 132.711 167.087H124.89V150.421Z" fill="#6D8CA3"/>
    <path d="M135.131 156.008H138.111C138.802 156.008 139.465 156.282 139.954 156.771C140.443 157.26 140.718 157.923 140.718 158.615V158.987C140.718 159.679 140.443 160.342 139.954 160.831C139.465 161.319 138.802 161.594 138.111 161.594H135.131V156.008Z" fill="#658196"/>
    <path d="M219.896 122.49H163.063C161.088 122.49 159.194 123.275 157.797 124.672C156.4 126.068 155.615 127.963 155.615 129.938V150.422C155.615 155.542 152.077 159.732 147.701 159.732H140.718V157.87H147.701C151.053 157.87 153.753 154.518 153.753 150.422V129.938C153.753 127.469 154.734 125.101 156.48 123.355C158.226 121.609 160.594 120.628 163.063 120.628H219.896C219.896 121.28 219.896 121.838 219.896 122.49Z" fill="#7698B0"/>
    <path d="M104.407 152.283H95.0962C94.0678 152.283 93.2341 153.117 93.2341 154.145C93.2341 155.174 94.0678 156.007 95.0962 156.007H104.407C105.435 156.007 106.269 155.174 106.269 154.145C106.269 153.117 105.435 152.283 104.407 152.283Z" fill="#80A4BF"/>
    <path d="M104.407 161.594H95.0962C94.0678 161.594 93.2341 162.427 93.2341 163.456C93.2341 164.484 94.0678 165.318 95.0962 165.318H104.407C105.435 165.318 106.269 164.484 106.269 163.456C106.269 162.427 105.435 161.594 104.407 161.594Z" fill="#80A4BF"/>
    <path d="M107.293 148.559H120.235V169.042H107.293C106.281 169.042 105.31 168.64 104.594 167.924C103.878 167.208 103.476 166.237 103.476 165.224V152.376C103.476 151.363 103.878 150.393 104.594 149.677C105.31 148.961 106.281 148.559 107.293 148.559Z" fill="#6D8CA3"/>
  </g>
  <defs>
    <clipPath id="clip0_3243_260237">
      <rect width="203.396" height="140" fill="white" transform="translate(16.5 50)"/>
    </clipPath>
  </defs>
</svg>
