<svg width="20" height="20" viewBox="0 0 20 20" xmlns="http://www.w3.org/2000/svg">
<path d="M12.29 7.29L9 10.59L7.71 9.3C7.32 8.91 6.69 8.91 6.3 9.3C5.91 9.69 5.91 10.32 6.3 10.71L9.01 13.42L13.72 8.71C14.11 8.32 14.11 7.69 13.72 7.3C13.33 6.91 12.68 6.9 12.29 7.29ZM2 10C2 5.59 5.59 2 10 2C12.02 2 13.85 2.76 15.26 4H13V6H19V0H17V2.89C15.2 1.11 12.73 0 10 0C4.49 0 0 4.49 0 10C0 10.34 0.02 10.67 0.05 11H2.07C2.03 10.67 2 10.34 2 10ZM19.95 9H17.93C17.97 9.33 18 9.66 18 10C18 14.41 14.41 18 10 18C7.98 18 6.15 17.24 4.74 16H7V14H1V20H3V17.11C4.8 18.89 7.27 20 10 20C15.51 20 20 15.51 20 10C20 9.66 19.98 9.33 19.95 9Z" />
</svg>
