<svg width="20" height="20" viewBox="0 0 20 20" xmlns="http://www.w3.org/2000/svg">
<path d="M2 10C2 5.59 5.59 2 10 2C12.02 2 13.85 2.76 15.26 4H13V6H19V0H17V2.89C15.2 1.11 12.73 0 10 0C4.49 0 0 4.49 0 10C0 10.34 0.02 10.67 0.05 11H2.07C2.03 10.67 2 10.34 2 10ZM11.5 6.79C11.3 5.96 10.47 5.45 9.64 5.65C8.81 5.85 8.3 6.67 8.5 7.5L9.09 10C9.17 10.33 9.43 10.61 9.78 10.69C10.28 10.81 10.78 10.5 10.9 10L11.49 7.5C11.55 7.27 11.56 7.03 11.5 6.79ZM10 11.24C9.3 11.24 8.74 11.8 8.74 12.5C8.74 13.2 9.3 13.76 10 13.76C10.7 13.76 11.26 13.2 11.26 12.5C11.26 11.8 10.7 11.24 10 11.24ZM19.95 9H17.93C17.97 9.33 18 9.66 18 10C18 14.41 14.41 18 10 18C7.98 18 6.15 17.24 4.74 16H7V14H1V20H3V17.11C4.8 18.89 7.27 20 10 20C15.51 20 20 15.51 20 10C20 9.66 19.98 9.33 19.95 9Z" />
</svg>
