<svg width="24" height="24" viewBox="0 0 24 24" xmlns="http://www.w3.org/2000/svg">
<path d="M8.21 8.21009L11 5.41009V15.0001C11 15.5501 11.45 16.0001 12 16.0001C12.55 16.0001 13 15.5501 13 15.0001V5.41009L15.79 8.20009C15.99 8.40009 16.24 8.49009 16.5 8.49009C16.76 8.49009 17.01 8.39009 17.21 8.20009C17.6 7.81009 17.6 7.18009 17.21 6.79009L12 1.59009L6.79 6.79009C6.4 7.18009 6.4 7.81009 6.79 8.20009C7.18 8.59009 7.82 8.60009 8.21 8.21009ZM20 15.0001V18.1001C20 19.1501 19.15 20.0001 18.1 20.0001H5.9C4.85 20.0001 4 19.1501 4 18.1001V15.0001H2V18.1001C2 20.2501 3.75 22.0001 5.9 22.0001H18.1C20.25 22.0001 22 20.2501 22 18.1001V15.0001H20Z" />
</svg>
