<svg width="20" height="21" viewBox="0 0 20 21" xmlns="http://www.w3.org/2000/svg">
<path d="M6.21 7.21009L9 4.41009V14.0001C9 14.5501 9.45 15.0001 10 15.0001C10.55 15.0001 11 14.5501 11 14.0001V4.41009L13.79 7.20009C13.99 7.40009 14.24 7.49009 14.5 7.49009C14.76 7.49009 15.01 7.39009 15.21 7.20009C15.6 6.81009 15.6 6.18009 15.21 5.79009L10 0.590088L4.79 5.79009C4.4 6.18009 4.4 6.81009 4.79 7.20009C5.18 7.59009 5.82 7.60009 6.21 7.21009ZM18 14.0001V17.1001C18 18.1501 17.15 19.0001 16.1 19.0001H3.9C2.85 19.0001 2 18.1501 2 17.1001V14.0001H0V17.1001C0 19.2501 1.75 21.0001 3.9 21.0001H16.1C18.25 21.0001 20 19.2501 20 17.1001V14.0001H18Z" />
</svg>
