<svg width="14" height="14" viewBox="0 0 14 14" xmlns="http://www.w3.org/2000/svg">
<path d="M11.71 6.92C12.5 6.19 13 5.16 13 4C13 1.79 11.21 0 9 0C7.89 0 6.9 0.46 6.18 1.2C5.81 1.08 5.42 1 5 1C2.79 1 1 2.79 1 5C1 6.16 1.5 7.19 2.29 7.92C0.94 8.58 0 9.96 0 11.56V14H1.5V11.56C1.5 10.15 2.65 9 4.06 9H5.94C7.35 9 8.5 10.15 8.5 11.56V14H10V11.56C10 9.96 9.06 8.58 7.71 7.92C8.5 7.19 9 6.16 9 5C9 3.78 8.44 2.7 7.58 1.97C7.99 1.68 8.47 1.5 9 1.5C10.38 1.5 11.5 2.62 11.5 4C11.5 5.1 10.79 6.02 9.8 6.36C9.71 6.68 9.57 6.99 9.42 7.28L9.66 8H9.93C11.34 8 12.49 9.15 12.49 10.56V14H13.99V10.56C14 8.96 13.06 7.58 11.71 6.92ZM5 7.5C3.62 7.5 2.5 6.38 2.5 5C2.5 3.62 3.62 2.5 5 2.5C6.38 2.5 7.5 3.62 7.5 5C7.5 6.38 6.38 7.5 5 7.5Z"/>
</svg>
