<svg width="16" height="18" viewBox="0 0 16 18" xmlns="http://www.w3.org/2000/svg">
<path d="M13.72 11.59C13.7 11.61 13.68 11.64 13.66 11.66C13.31 12.01 12.92 12.32 12.52 12.6C13.7 13.31 14.5 14.6 14.5 16.08V18H16V16.08C16 14.23 15.1 12.6 13.72 11.59ZM8 0C4.69 0 2 2.69 2 6C2 7.89 2.87 9.57 4.24 10.67C1.81 11.27 0 13.46 0 16.08V18H1.5V16.08C1.5 13.83 3.33 12 5.58 12H8C11.31 12 14 9.31 14 6C14 2.69 11.31 0 8 0ZM8 10.5C5.52 10.5 3.5 8.48 3.5 6C3.5 3.52 5.52 1.5 8 1.5C10.48 1.5 12.5 3.52 12.5 6C12.5 8.48 10.48 10.5 8 10.5Z" />
</svg>
