<svg width="16" height="16" viewBox="0 0 16 16" xmlns="http://www.w3.org/2000/svg">
<path d="M8 1.33325C10.206 1.33325 12 3.12725 12 5.33325C12 7.53925 10.206 9.33325 8 9.33325H6.16733C4.60467 9.33325 3.33333 10.6046 3.33333 12.1673V14.6666H2V12.1673C2 10.2219 3.34133 8.58859 5.14667 8.13125C4.43867 7.40925 4 6.42192 4 5.33325C4 3.12725 5.794 1.33325 8 1.33325Z" />
<path d="M11.2917 12.3333C11.2917 12.127 11.4604 11.9583 11.6667 11.9583C11.8729 11.9583 12.0417 12.127 12.0417 12.3333C12.0417 12.5395 11.8729 12.7083 11.6667 12.7083C11.4604 12.7083 11.2917 12.5395 11.2917 12.3333Z" />
<path fill-rule="evenodd" clip-rule="evenodd" d="M13.7029 12.0145L13.7667 12.052L14.1004 12.2395L14.0592 12.6108C14.0367 12.7945 13.9992 12.967 13.9429 13.1283L13.8192 13.4808L13.4479 13.507L13.3654 13.5108C13.3129 13.5858 13.2529 13.6608 13.1892 13.7283L13.2042 13.8108L13.2642 14.1783L12.9492 14.377C12.8067 14.467 12.6492 14.5383 12.4729 14.602L12.1204 14.7258L11.8692 14.452L11.8167 14.3958C11.7679 14.4033 11.7192 14.4033 11.6742 14.4033C11.6292 14.4033 11.5804 14.3995 11.5317 14.3958L11.4792 14.452L11.2279 14.7258L10.8754 14.602C10.6992 14.542 10.5417 14.467 10.3992 14.377L10.0842 14.1783L10.1442 13.8108L10.1592 13.7283C10.0954 13.6608 10.0354 13.5858 9.98292 13.5108L9.90042 13.507L9.52917 13.4808L9.40542 13.1283C9.34917 12.9633 9.30792 12.7908 9.28917 12.6108L9.24792 12.2395L9.57042 12.0558L9.63417 12.0183C9.65292 11.9245 9.67167 11.8308 9.70167 11.7408L9.65292 11.6733L9.43917 11.3658L9.63792 11.0508C9.73917 10.8895 9.84417 10.7545 9.96042 10.6383L10.2229 10.372L10.5679 10.5108L10.6504 10.5445C10.7329 10.4995 10.8192 10.4545 10.9054 10.4208L10.9242 10.3458L11.0329 9.98952L11.4042 9.94827L11.4492 9.94077C11.4541 9.94012 11.4591 9.93944 11.4643 9.93874C11.5185 9.9314 11.5879 9.92202 11.6667 9.92202C11.7402 9.92202 11.8029 9.9302 11.8569 9.93726C11.8663 9.93848 11.8753 9.93966 11.8842 9.94077L11.9292 9.94827L12.3004 9.98952L12.4092 10.3458L12.4317 10.417C12.5179 10.4508 12.6042 10.492 12.6867 10.5408L12.7692 10.507L13.1142 10.3683L13.3767 10.6345C13.4929 10.7545 13.5979 10.8895 13.6992 11.047L13.8979 11.362L13.6842 11.6695L13.6354 11.737C13.6654 11.827 13.6879 11.9208 13.7029 12.0145ZM10.7292 12.3333C10.7292 12.8508 11.1492 13.2708 11.6667 13.2708C12.1842 13.2708 12.6042 12.8508 12.6042 12.3333C12.6042 11.8158 12.1842 11.3958 11.6667 11.3958C11.1492 11.3958 10.7292 11.8158 10.7292 12.3333Z" />
</svg>
