<svg width="14" height="14" viewBox="0 0 14 14" xmlns="http://www.w3.org/2000/svg">
<path d="M9.682 1.5C11.236 1.5 12.5 2.764 12.5 4.318V9.683C12.5 11.237 11.236 12.501 9.682 12.501H4.318C2.764 12.5 1.5 11.236 1.5 9.682V4.318C1.5 2.764 2.764 1.5 4.318 1.5H9.682ZM9.682 0H4.318C1.933 0 0 1.933 0 4.318V9.683C0 12.067 1.933 14 4.318 14H9.683C12.067 14 14.001 12.067 14.001 9.682V4.318C14 1.933 12.067 0 9.682 0Z" />
<path d="M10.5 6.25V4.75H9.53701L9.69301 3.5H8.181L8.025 4.75H6.537L6.693 3.5H5.182L5.026 4.75H3.5V6.25H4.838L4.65 7.75H3.5V9.25001H4.463L4.307 10.5H5.819L5.975 9.25001H7.463L7.307 10.5H8.81901L8.97501 9.25001H10.5V7.75H9.16201L9.35001 6.25H10.5ZM7.65 7.75H6.162L6.35 6.25H7.838L7.65 7.75Z"/>
</svg>
