<svg width="16" height="16" viewBox="0 0 16 16" xmlns="http://www.w3.org/2000/svg">
    <path d="M11.69 3H6.31C5.59 3 5 3.59 5 4.31V5H4.31C3.59 5 3 5.59 3 6.31V11.69C3 12.41 3.59 13 4.31 13H9.69C10.41 13 11 12.41 11 11.69V11H11.69C12.41 11 13 10.41 13 9.69V4.31C13 3.59 12.41 3 11.69 3ZM10 11.69C10 11.86 9.86 12 9.69 12H4.31C4.14 12 4 11.86 4 11.69V6.31C4 6.14 4.14 6 4.31 6H5V9.69C5 10.41 5.59 11 6.31 11H10V11.69ZM10 10H6.31C6.14 10 6 9.86 6 9.69V6H9.69C9.86 6 10 6.14 10 6.31V10ZM12 9.69C12 9.86 11.86 10 11.69 10H11V6.31C11 5.59 10.41 5 9.69 5H6V4.31C6 4.14 6.14 4 6.31 4H11.69C11.86 4 12 4.14 12 4.31V9.69Z" />
</svg>
