<svg width="12" height="10" viewBox="0 0 12 10" xmlns="http://www.w3.org/2000/svg">
  <path d="M11.027 7.94L6.84031 0.493333C6.80031 0.42 6.74698 0.353333 6.68698 0.293333C6.68031 0.286667 6.68031 0.28 6.67365 0.28C6.49365 0.0933334 6.24698 0 6.00031 0C5.75365 0 5.50698 0.0933334 5.32698 0.273333C5.32031 0.28 5.32031 0.286667 5.31365 0.286667C5.26031 0.346667 5.20698 0.406667 5.16031 0.486667L0.973646 7.94C0.866979 8.13333 0.820312 8.34 0.820312 8.53333C0.833646 8.92667 1.04698 9.3 1.38698 9.5C1.56031 9.6 1.76031 9.66 1.98031 9.66H10.0203C10.2403 9.66 10.4403 9.6 10.6136 9.5C10.9536 9.3 11.1736 8.92667 11.1803 8.53333C11.187 8.34 11.1403 8.13333 11.027 7.94ZM6.00031 7.66667C5.63365 7.66667 5.33365 7.36667 5.33365 7C5.33365 6.63333 5.63365 6.33333 6.00031 6.33333C6.36698 6.33333 6.66698 6.63333 6.66698 7C6.66698 7.36667 6.36698 7.66667 6.00031 7.66667ZM6.66698 4.33333L6.34698 5.66667C6.30031 5.86 6.10698 5.97333 5.91365 5.93333C5.78031 5.9 5.68031 5.79333 5.64698 5.66667L5.33365 4.33333C5.24698 3.96667 5.47365 3.59333 5.84031 3.50667C6.20698 3.42 6.58031 3.64667 6.66698 4.01333C6.69365 4.12 6.69365 4.23333 6.66698 4.33333Z" />
</svg>
