<svg width="14" height="12" viewBox="0 0 14 12" xmlns="http://www.w3.org/2000/svg">
<path d="M2.11119 11.7777V10.8889H0.777855V11.7777H2.11119ZM13.2223 9.99996V9.11107H11.889V9.99996H13.2223ZM0.777855 9.11107L0.777855 9.99996H2.11119V9.11107H0.777855ZM13.2223 11.7777V10.8889H11.889V11.7777H13.2223ZM13.2223 2.88885V1.99996H11.889V2.88885H13.2223ZM9.69341 2.41774L8.75119 3.35996L10.7245 5.3333L3.27652 5.3333L5.24986 3.35996L4.30674 2.41774L2.11119 4.61241V3.77774H0.777855V4.66663H2.05697L0.723633 5.99996L2.05697 7.3333H0.777855V8.22218H2.11119V7.38752L4.30674 9.58218L5.24897 8.63996L3.27563 6.66663L10.7236 6.66663L8.7503 8.63996L9.69341 9.58218L11.889 7.38663V8.22218H13.2223V7.3333H11.9432L13.2765 5.99996L11.9432 4.66663H13.2223V3.77774H11.889V4.61241L9.69341 2.41774ZM13.2223 1.11107V0.222183H11.889V1.11107H13.2223ZM0.777855 1.11107H2.11119V0.222183H0.777855V1.11107ZM2.11119 2.88885L2.11119 1.99996H0.777855V2.88885H2.11119Z" />
</svg>
