<svg viewBox="0 0 24 24"
    xmlns="http://www.w3.org/2000/svg">
    <path d="M16.8358 15.75C18.0733 14.2806 18.7513 12.421 18.75 10.5C18.7514 8.84724 18.256 7.23222 17.3279 5.86461C16.3999 4.497 15.0821 3.43996 13.5458 2.83073C12.0094 2.2215 10.3254 2.08822 8.71227 2.44819C7.09919 2.80815 5.63158 3.64475 4.49997 4.84935V1.5H2.99997V7.5H8.99997V6H5.49897C6.5107 4.88186 7.86851 4.13574 9.3548 3.8812C10.8411 3.62667 12.3698 3.87846 13.6959 4.59622C15.0221 5.31398 16.0689 6.45616 16.6686 7.83971C17.2682 9.22326 17.3861 10.7681 17.0032 12.2266C16.6204 13.6851 15.759 14.9729 14.5571 15.8835C13.3552 16.7941 11.8823 17.2749 10.3746 17.2488C8.86694 17.2227 7.41165 16.6912 6.24201 15.7394C5.07237 14.7877 4.25608 13.4709 3.92397 12H2.39337C2.7453 13.8939 3.74822 15.6053 5.22858 16.8379C6.70894 18.0705 8.57362 18.7469 10.5 18.75C12.421 18.7513 14.2806 18.0733 15.75 16.8358L21.4394 22.5L22.5 21.4394L16.8358 15.75Z" />
</svg>
