<svg viewBox="0 0 24 24"
    xmlns="http://www.w3.org/2000/svg">
    <path d="M12.2777 8.11106H10.6111V10.6111H8.11106V12.2777H10.6111V14.7777H12.2777V12.2777H14.7777V10.6111H12.2777V8.11106ZM19.5333 18.3555L17.1022 15.9244C18.0788 14.6922 18.6666 13.1377 18.6666 11.4444C18.6666 7.4555 15.4333 4.22217 11.4444 4.22217C7.4555 4.22217 4.22217 7.4555 4.22217 11.4444C4.22217 15.4333 7.4555 18.6666 11.4444 18.6666C13.1377 18.6666 14.6922 18.0788 15.9244 17.1022L18.3555 19.5333C18.5177 19.6955 18.7311 19.7777 18.9444 19.7777C19.1577 19.7777 19.3711 19.6966 19.5333 19.5333C19.8588 19.2077 19.8588 18.6811 19.5333 18.3555ZM11.4444 16.9999C8.38106 16.9999 5.88883 14.5077 5.88883 11.4444C5.88883 8.38106 8.38106 5.88883 11.4444 5.88883C14.5077 5.88883 16.9999 8.38106 16.9999 11.4444C16.9999 14.5077 14.5077 16.9999 11.4444 16.9999Z" />
</svg>
