<svg width="18" height="18" viewBox="0 0 18 18" xmlns="http://www.w3.org/2000/svg">
  <path d="M15.95 11.99L15.94 12C15.71 12.19 15.41 12.34 15.11 12.46C14.8 12.58 14.4801 12.67 14.16 12.76C13.51 12.92 12.83 13.04 12.16 13.12C10.81 13.29 9.44005 13.34 8.08005 13.28C6.72005 13.22 5.37005 13.04 4.06005 12.68C2.76005 12.33 1.51005 11.79 0.410048 10.97C0.320048 10.9 0.190048 10.9 0.100048 10.98C4.83813e-05 11.07 -0.0199516 11.23 0.0700484 11.33C0.550048 11.89 1.13005 12.36 1.75005 12.75C2.37005 13.15 3.04005 13.46 3.73005 13.71C5.11005 14.21 6.56005 14.47 8.01005 14.55C9.46005 14.63 10.92 14.54 12.35 14.24C13.06 14.09 13.77 13.89 14.45 13.6C14.79 13.46 15.12 13.29 15.44 13.09C15.6 12.99 15.75 12.87 15.9 12.75C16.04 12.62 16.18 12.48 16.3 12.3C16.35 12.22 16.35 12.11 16.2801 12.03C16.1901 11.92 16.04 11.91 15.95 11.99ZM15.11 7.18003C15.79 7.33003 16.39 7.51003 16.39 8.03003C16.39 8.48003 16 8.78003 15.25 8.78003C14.62 8.78003 14.01 8.50003 13.62 8.16003C13.54 8.09003 13.42 8.11003 13.37 8.20003L13.09 8.63003C13.04 8.70003 13.06 8.79003 13.12 8.85003C13.65 9.33003 14.38 9.57003 15.21 9.57003C16.6 9.57003 17.34 8.86003 17.34 7.95003C17.34 6.74003 16.25 6.49003 15.33 6.28003C14.67 6.13003 14.11 5.97003 14.11 5.52003C14.11 5.09003 14.52 4.83003 15.19 4.83003C15.77 4.83003 16.2801 5.03003 16.6101 5.33003C16.6901 5.40003 16.81 5.38003 16.87 5.29003L17.1101 4.91003C17.16 4.84003 17.14 4.74003 17.08 4.69003C16.64 4.31003 16.0201 4.04003 15.18 4.04003C13.89 4.04003 13.17 4.76003 13.17 5.60003C13.17 6.73003 14.22 6.97003 15.11 7.18003ZM6.93005 9.32003C6.95005 9.39003 7.02005 9.44003 7.09005 9.44003H7.86005C7.93005 9.44003 8.00005 9.39003 8.02005 9.32003L9.12005 5.89003C9.17005 5.73003 9.39005 5.73003 9.44005 5.89003L10.54 9.32003C10.56 9.39003 10.63 9.44003 10.7 9.44003H11.47C11.54 9.44003 11.61 9.39003 11.63 9.32003L13.18 4.39003C13.21 4.28003 13.13 4.17003 13.02 4.17003H12.35C12.27 4.17003 12.21 4.22003 12.19 4.29003L11.18 7.67003C11.13 7.83003 10.91 7.83003 10.86 7.67003L9.74005 4.28003C9.72005 4.21003 9.65005 4.16003 9.58005 4.16003H8.97005C8.90005 4.16003 8.83005 4.21003 8.81005 4.28003L7.70005 7.67003C7.65005 7.83003 7.42005 7.83003 7.38005 7.67003L6.37005 4.28003C6.35005 4.21003 6.28005 4.16003 6.21005 4.16003H5.54005C5.43005 4.16003 5.34005 4.27003 5.38005 4.38003L6.93005 9.32003ZM17.9601 10.97L17.95 10.93C17.91 10.81 17.79 10.71 17.65 10.7C17.51 10.69 17.39 10.68 17.27 10.68C17.15 10.68 17.02 10.68 16.9 10.68C16.65 10.69 16.41 10.7 16.16 10.74C15.91 10.78 15.67 10.82 15.43 10.9C15.19 10.98 14.96 11.08 14.75 11.23C14.69 11.27 14.67 11.34 14.7 11.41C14.73 11.48 14.82 11.52 14.89 11.49H14.9C15.1 11.4 15.31 11.35 15.53 11.32C15.75 11.29 15.97 11.29 16.19 11.3C16.41 11.31 16.64 11.34 16.8601 11.37C16.97 11.39 17.08 11.41 17.19 11.43C17.21 11.43 17.23 11.44 17.25 11.44C17.25 11.45 17.25 11.46 17.25 11.47C17.26 11.57 17.26 11.67 17.26 11.78C17.25 11.99 17.22 12.22 17.16 12.43C17.05 12.87 16.8701 13.29 16.6101 13.68C16.57 13.75 16.57 13.83 16.63 13.89C16.7 13.95 16.8 13.95 16.8601 13.88C17.2101 13.51 17.49 13.08 17.69 12.61C17.79 12.37 17.88 12.13 17.93 11.86C17.96 11.73 17.98 11.59 17.99 11.45C18 11.3 18 11.15 17.9601 10.97ZM3.83005 6.54003C3.44005 6.24003 2.94005 6.10003 2.38005 6.10003C1.50005 6.10003 0.550048 6.62003 0.550048 7.83003C0.550048 8.99003 1.51005 9.58003 2.38005 9.58003C2.95005 9.58003 3.44005 9.42003 3.83005 9.12003C3.94005 9.03003 4.10005 9.11003 4.10005 9.25003V9.27003C4.10005 9.36003 4.18005 9.44003 4.27005 9.44003H4.91005C5.00005 9.44003 5.08005 9.36003 5.08005 9.27003V5.88003C5.08005 4.54003 4.11005 4.03003 2.96005 4.03003C2.16005 4.03003 1.47005 4.28003 0.900048 4.79003C0.840048 4.85003 0.820048 4.94003 0.870048 5.01003L1.11005 5.39003C1.17005 5.48003 1.29005 5.50003 1.37005 5.43003C1.80005 5.05003 2.27005 4.87003 2.81005 4.87003C3.56005 4.87003 4.10005 5.26003 4.10005 5.92003V6.40003C4.10005 6.54003 3.94005 6.62003 3.83005 6.54003ZM4.10005 8.22003C4.10005 8.26003 4.09005 8.30003 4.06005 8.33003C3.76005 8.69003 3.27005 8.88003 2.74005 8.88003C2.03005 8.88003 1.53005 8.45003 1.53005 7.83003C1.53005 7.21003 2.03005 6.78003 2.74005 6.78003C3.26005 6.78003 3.76005 6.97003 4.06005 7.33003C4.08005 7.36003 4.10005 7.40003 4.10005 7.44003V8.22003Z" />
</svg>
