<svg width="18" height="18" viewBox="0 0 18 18" xmlns="http://www.w3.org/2000/svg">
  <path d="M15.46 14.32C15.25 14.13 15.03 13.94 14.8 13.76C14.27 13.34 13.72 12.95 13.11 12.66C13.08 12.64 13.06 12.6 13.08 12.57C13.09 12.54 13.13 12.53 13.16 12.53C13.73 12.66 14.28 12.89 14.81 13.14C12.57 9.09 10.6 5.04 9 1C8.4 2.5 7.75 4.01 7.06 5.52C7.13 5.6 7.2 5.68 7.28 5.76C7.54 6.03 7.81 6.29 8.1 6.54C8.39 6.78 8.7 7.01 9.03 7.21C9.06 7.23 9.07 7.27 9.05 7.3C9.03 7.33 9 7.34 8.97 7.33C8.6 7.2 8.24 7.04 7.89 6.86C7.54 6.67 7.2 6.47 6.87 6.24C6.83 6.22 6.8 6.19 6.76 6.16C5.08 9.76 3.13 13.38 1 17H1.1C2.53 15.69 4.7 14.75 7.2 14.44C7.16 14.17 7.14 13.89 7.14 13.6C7.14 11.8 7.98 10.33 9.01 10.33C10.04 10.33 10.88 11.79 10.88 13.6C10.88 13.89 10.86 14.17 10.82 14.44C13.32 14.75 15.49 15.69 16.92 17H17.02C16.47 16.11 15.96 15.21 15.46 14.32Z" />
</svg>
