<svg width="18" height="18" viewBox="0 0 18 18" xmlns="http://www.w3.org/2000/svg">
  <path d="M9 2.02002C5.13 2.02002 2 5.15002 2 9.02002C2 11.46 3.25 13.61 5.15 14.87V12.33L2.94 10.12C2.63 9.81002 2.63 9.30002 2.94 8.98002C3.25 8.67002 3.76 8.67002 4.08 8.98002L6.77 11.67V15.66C7.23 15.81 7.71 15.92 8.2 15.98V10.9L4.97 7.67002C4.66 7.36002 4.66 6.85002 4.97 6.53002C5.28 6.22002 5.79 6.22002 6.11 6.53002L9.01 9.43002L11.91 6.53002C12.22 6.22002 12.73 6.22002 13.05 6.53002C13.36 6.84002 13.36 7.35002 13.05 7.67002L9.81 10.9V15.98C10.31 15.92 10.79 15.82 11.24 15.66V11.67L13.93 8.98002C14.24 8.67002 14.75 8.67002 15.07 8.98002C15.38 9.29002 15.38 9.80002 15.07 10.12L12.86 12.33V14.87C14.76 13.62 16.01 11.47 16.01 9.02002C16 5.16002 12.87 2.02002 9 2.02002ZM9 7.48002C8.34 7.48002 7.81 6.95002 7.81 6.29002C7.81 5.63002 8.34 5.10002 9 5.10002C9.66 5.10002 10.19 5.63002 10.19 6.29002C10.19 6.95002 9.66 7.48002 9 7.48002Z" />
</svg>
