<svg width="18" height="18" viewBox="0 0 18 18" xmlns="http://www.w3.org/2000/svg">
  <path d="M7.69995 8.39997L8.29995 8.98997L7.69995 9.57997H3.49995V11.55L0.949951 8.98997L3.50995 6.46997V8.39997H7.69995Z" fill="#942579"/>
  <path d="M9.59994 7.7002L9.00994 8.3002L8.41994 7.7002V3.5002H6.43994L9.00994 0.950195L11.5299 3.5102H9.59994V7.7002Z" fill="#EEA724"/>
  <path d="M10.3 9.59994L9.69995 9.00994L10.3 8.41994H14.5V6.43994L17.06 9.00994L14.5 11.5299V9.59994H10.3Z" fill="#2E2C74"/>
  <path d="M8.39999 10.3001L8.98999 9.70011L9.57999 10.3001V14.5001H11.55L8.97999 17.0601L6.45999 14.5001H8.39999V10.3001ZM3.35999 3.36011H8.45999V8.46011H3.35999V3.36011Z" fill="#9DCB3B"/>
  <path d="M3.17004 3.16992H8.63005V8.62992H3.17004V3.16992ZM3.54004 8.26992H8.27005V3.53992H3.54004V8.26992Z" fill="white"/>
  <path d="M9.55005 3.36011H14.65V8.46011H9.55005V3.36011Z" fill="#942579"/>
  <path d="M9.35999 3.16992H14.82V8.62992H9.35999V3.16992ZM9.72999 8.26992H14.46V3.53992H9.72999V8.26992Z" fill="white"/>
  <path d="M9.55005 9.55005H14.65V14.65H9.55005V9.55005Z" fill="#EEA724"/>
  <path d="M9.35999 9.36011H14.82V14.8201H9.35999V9.36011ZM9.72999 14.4601H14.46V9.73011H9.72999V14.4601Z" fill="white"/>
  <path d="M3.35999 9.55005H8.45999V14.65H3.35999V9.55005Z" fill="#2E2C74"/>
  <path d="M3.17004 9.36011H8.63005V14.8201H3.17004V9.36011ZM3.54004 14.4601H8.27005V9.73011H3.54004V14.4601Z" fill="white"/>
  <path d="M4.62001 12.86L0.76001 9.00001L4.62001 5.14001L8.49001 9.00001L4.62001 12.86ZM1.28001 9.00001L4.63001 12.35L7.97001 9.00001L4.62001 5.65001L1.28001 9.00001ZM9.00001 8.49001L5.14001 4.62001L9.00001 0.76001L12.86 4.62001L9.00001 8.49001ZM5.65001 4.62001L9.00001 7.97001L12.35 4.62001L9.00001 1.28001L5.65001 4.62001ZM13.38 12.86L9.52001 9.00001L13.38 5.14001L17.24 9.00001L13.38 12.86ZM10.03 9.00001L13.38 12.35L16.72 9.00001L13.37 5.65001L10.03 9.00001ZM9.00001 17.24L5.14001 13.38L9.00001 9.52001L12.86 13.38L9.00001 17.24ZM5.65001 13.38L9.00001 16.72L12.35 13.37L9.00001 10.03L5.65001 13.38Z" fill="white"/>
</svg>
