<svg width="18" height="18" viewBox="0 0 18 18" xmlns="http://www.w3.org/2000/svg">
  <path d="M7.76002 8.27002H8.27002V7.75002L5.14002 4.62002L6.22002 3.54002H3.54002V6.22002L4.62002 5.14002L7.76002 8.27002ZM7.97002 9.00002L7.61002 8.64002H3.17002V7.10002L1.27002 9.00002L3.17002 10.9V9.36002H7.60002L7.97002 9.00002ZM8.64002 7.61002L9.00002 7.97002L9.36002 7.61002V3.17002H10.9L9.00002 1.27002L7.10002 3.17002H8.63002V7.61002H8.64002ZM4.62002 5.65002L3.54002 6.74002V8.27002H7.24002L4.62002 5.65002ZM8.27002 7.24002V3.54002H6.74002L5.65002 4.62002L8.27002 7.24002ZM9.73002 7.24002L12.35 4.62002L11.27 3.54002H9.73002V7.24002ZM9.73002 7.76002V8.28002H10.24L13.37 5.15002L14.45 6.23002V3.54002H11.77L12.85 4.62002L9.73002 7.76002ZM10.76 8.27002H14.46V6.74002L13.38 5.66002L10.76 8.27002ZM13.38 12.35L14.46 11.27V9.73002H10.76L13.38 12.35ZM4.62002 12.35L7.24002 9.73002H3.54002V11.26L4.62002 12.35ZM10.24 9.73002H9.73002V10.25L12.86 13.38L11.78 14.46H14.47V11.78L13.39 12.86L10.24 9.73002ZM16.73 9.00002L14.83 7.10002V8.63002H10.4L10.04 8.99002L10.4 9.35002H14.83V10.9L16.73 9.00002ZM9.73002 10.76V14.46H11.26L12.34 13.38L9.73002 10.76ZM9.36002 10.39L9.00002 10.03L8.64002 10.39V14.82H7.10002L9.00002 16.72L10.9 14.82H9.36002V10.39ZM8.27002 10.24V9.73002H7.76002L4.63002 12.86L3.55002 11.77V14.46H6.23002L5.15002 13.38L8.27002 10.24ZM8.27002 10.76L5.65002 13.38L6.73002 14.46H8.26002V10.76H8.27002Z" />
</svg>
