<svg width="18" height="18" viewBox="0 0 18 18" xmlns="http://www.w3.org/2000/svg">
  <path d="M8.98 2C5.11 2 2 5.15 2 8.98V14.43C2 15.28 2.68 16 3.57 16H8.97C12.84 16 15.99 12.85 15.99 8.98C16 5.15 12.85 2 8.98 2ZM4.19 14.69C3.31 14.11 2.72 13.11 2.72 11.96C2.72 10.36 3.87 9.05 5.35 8.75C5.21 8.95 5.11 9.19 5.11 9.45C5.11 9.79 5.25 10.09 5.46 10.31C4.77 10.55 4.25 11.21 4.25 11.96C4.25 12.49 4.49 12.96 4.86 13.27C4.42 13.46 4.13 13.86 4.13 14.38C4.14 14.49 4.17 14.59 4.19 14.69ZM10.68 10.21H9.32V11.95C9.32 13.78 7.83 15.23 6 15.23C5.74 15.23 5.53 15.23 5.28 15.15C4.94 15.07 4.64 14.77 4.64 14.38C4.64 13.95 4.94 13.66 5.41 13.66C5.62 13.66 5.71 13.7 6.01 13.7C6.99 13.7 7.75 12.93 7.75 11.96V10.47C7.75 10.34 7.67 10.21 7.49 10.21H6.38C5.95 10.21 5.61 9.87 5.61 9.44C5.61 9.01 5.95 8.67 6.38 8.67H7.74V6.94C7.74 5.15 9.23 3.66 11.02 3.66C11.32 3.66 11.49 3.7 11.74 3.74C12.12 3.87 12.42 4.17 12.42 4.51C12.42 4.94 12.12 5.23 11.65 5.23C11.44 5.23 11.35 5.19 11.01 5.19C10.07 5.19 9.31 6 9.31 6.93V8.42C9.31 8.59 9.4 8.67 9.52 8.67H10.67C11.1 8.67 11.44 9.01 11.44 9.44C11.44 9.87 11.11 10.21 10.68 10.21ZM11.71 10.15C11.85 9.95 11.95 9.71 11.95 9.45C11.95 9.12 11.81 8.82 11.6 8.59C12.27 8.36 12.77 7.72 12.77 6.94C12.77 6.43 12.54 5.96 12.18 5.64C12.63 5.46 12.93 5.04 12.93 4.51C12.93 4.41 12.9 4.31 12.87 4.22C13.75 4.81 14.34 5.82 14.34 6.94C14.34 8.54 13.19 9.85 11.71 10.15Z" />
</svg>
