<svg width="18" height="18" viewBox="0 0 18 18" xmlns="http://www.w3.org/2000/svg">
  <path d="M3.10006 5.51008C3.69006 4.53008 4.52006 3.70008 5.50006 3.11008C5.20006 2.91008 4.91006 2.73008 4.73006 2.65008C4.31006 2.44008 2.77006 1.67008 2.14006 2.16008C1.65006 2.79008 2.42006 4.33008 2.63006 4.75008C2.73006 4.92008 2.90006 5.21008 3.10006 5.51008ZM14.1001 6.70008C14.4501 6.35008 15.1501 5.30008 15.3601 4.88008C15.5701 4.46008 16.3401 2.92008 15.8501 2.29008C15.2201 1.80008 13.6801 2.57008 13.2601 2.78008C12.8401 2.99008 11.8001 3.70008 11.4501 4.05008C11.1701 5.03008 12.7001 6.98008 14.1001 6.70008ZM14.7401 6.49008C14.9201 7.04008 14.8001 7.42008 14.3501 7.45008C13.6501 7.49008 12.4101 6.64008 11.5801 5.54008C10.7501 4.44008 10.6501 3.52008 11.3601 3.47008C11.4601 3.46008 11.5601 3.48008 11.6701 3.50008L12.1901 3.07008C11.2801 2.62008 10.2601 2.37008 9.18006 2.37008C5.42006 2.37008 2.36006 5.42008 2.36006 9.19008C2.36006 12.9601 5.41006 16.0001 9.17006 16.0001C12.9301 16.0001 15.9901 12.9501 15.9901 9.18008C15.9901 7.97008 15.6701 6.83008 15.1201 5.84008L14.7401 6.49008Z" />
</svg>
