<svg width="18" height="18" viewBox="0 0 18 18" xmlns="http://www.w3.org/2000/svg">
  <path d="M8.76996 5.34C8.66996 5.32 8.56997 5.3 8.47997 5.3C8.07997 5.3 7.76996 5.53 7.76996 5.83C7.76996 6.02 7.86997 6.25 8.02997 6.46C7.99997 6.39 7.97997 6.32 7.97997 6.25C7.97997 6.05 8.16996 5.91 8.41996 5.91C8.47996 5.91 8.53997 5.92 8.59997 5.93C8.99997 6.03 9.29996 6.42 9.29996 6.7C9.29996 6.86 9.17997 6.99 8.98996 7.03C9.04997 7.04 9.10996 7.05 9.16996 7.05C9.56996 7.05 9.87997 6.82 9.87997 6.52C9.88997 6.1 9.40996 5.5 8.76996 5.34ZM16 8.06C16 7.88 15.97 7.68 15.89 7.46C15.72 7.01 15.39 6.57 15.09 6.19C14.47 5.4 11.9 3.52 11.59 3.3C11.46 3.2 9.80997 2 7.77997 2C7.71997 2 7.66996 2 7.60996 2C5.27996 2.01 3.46996 3.36 2.62996 4.52C2.30996 4.97 2.15996 5.42 2.14996 5.83C2.13996 6.01 2.13996 6.76 2.15996 6.96C2.19996 7.45 2.42996 7.86 2.72996 8.14C3.03996 8.43 4.09996 8.94 4.98996 9.33C4.26996 9.9 3.14996 10.81 2.67996 11.34C2.10996 11.98 1.89996 12.67 2.04996 13.37C1.93996 13.87 2.01996 14.39 2.29996 14.9C2.68996 15.62 3.47996 15.99 4.62996 15.99C5.01996 15.99 5.45996 15.95 5.99996 15.87C7.46996 15.64 10.06 14.23 11.35 13.4C12.61 12.58 14.85 10.59 15.54 9.96C15.73 9.78 15.99 9.46 16.01 8.99C16 8.83 16 8.21 16 8.06ZM15.27 8.85C14.59 9.48 12.37 11.45 11.13 12.26C9.86997 13.08 7.34997 14.46 5.93997 14.68C5.42997 14.76 4.99996 14.8 4.62996 14.8C3.60996 14.8 2.94996 14.5 2.61996 13.89C2.18996 13.1 2.30996 12.3 2.95996 11.57C3.61996 10.82 5.69997 9.22 5.84996 9.1C6.02996 8.95 6.21996 8.76 6.31996 8.64C6.19997 8.58 6.00996 8.51 5.83997 8.46C5.81997 8.46 5.80997 8.45 5.78997 8.44C5.38997 8.27 3.36996 7.39 2.97996 7.03C2.47996 6.57 2.25996 5.65 2.92996 4.72C3.71996 3.63 5.41996 2.35 7.60996 2.35C7.65997 2.35 7.71996 2.35 7.76996 2.35C9.70996 2.35 11.29 3.52 11.36 3.57C11.47 3.65 14.18 5.63 14.79 6.4C15.29 7.01 16.12 8.06 15.27 8.85ZM11.14 3.82C11.14 3.82 9.52997 2.61 7.62997 2.67C5.35997 2.67 3.82996 4.09 3.23996 4.89C2.64996 5.69 2.86996 6.44 3.23996 6.78C3.60996 7.12 5.93997 8.13 5.93997 8.13C5.93997 8.13 6.66997 8.33 6.73996 8.53C6.80997 8.73 6.07997 9.34 6.07997 9.34C6.07997 9.34 3.89996 11.03 3.23996 11.78C2.57996 12.52 2.65996 13.2 2.94996 13.73C3.38996 14.54 4.55996 14.54 5.86997 14.34C7.17997 14.14 9.66996 12.79 10.91 11.98C12.15 11.17 14.42 9.15 15 8.61C15.58 8.07 15.07 7.33 14.49 6.59C13.91 5.84 11.14 3.82 11.14 3.82ZM8.97997 7.49C7.90997 7.34 7.04997 6.63 7.07997 5.9C7.09997 5.17 7.98996 4.71 9.06996 4.86C10.14 5.01 11 5.72 10.97 6.45C10.94 7.17 10.05 7.64 8.97997 7.49Z" />
</svg>
