<svg width="18" height="18" viewBox="0 0 18 18" xmlns="http://www.w3.org/2000/svg">
  <path d="M6.70993 15.0699C6.57993 14.8999 6.43993 14.7499 6.30993 14.5799C6.11993 14.3299 5.96993 14.0399 5.81993 13.7699C5.61993 13.3999 5.39993 13.0399 5.17993 12.6799C5.08993 12.5299 4.98993 12.3799 4.85993 12.2799C4.78993 12.2299 4.70993 12.1899 4.62993 12.1699C4.54993 12.1499 4.44993 12.1499 4.36993 12.1899C4.27993 12.2199 4.20993 12.2899 4.15993 12.3699C4.10993 12.4499 4.06993 12.5299 4.03993 12.6199C4.00993 12.7099 3.96993 12.7899 3.92993 12.8799C3.88993 12.9599 3.82993 13.0399 3.74993 13.0899C3.66993 13.1499 3.55993 13.1699 3.45993 13.1799C3.35993 13.1899 3.24993 13.1699 3.14993 13.1699C3.04993 13.1599 2.93993 13.1499 2.83993 13.1699C2.73993 13.1899 2.63993 13.2299 2.55993 13.2999C2.48993 13.3699 2.44993 13.4599 2.42993 13.5499C2.40993 13.6399 2.40993 13.7399 2.41993 13.8299C2.42993 14.0399 2.46993 14.2499 2.47993 14.4599C2.48993 14.6699 2.47993 14.8899 2.40993 15.0899C2.35993 15.2199 2.27993 15.3399 2.22993 15.4699C2.20993 15.5399 2.18993 15.5999 2.17993 15.6699C2.17993 15.7399 2.18993 15.8099 2.22993 15.8699C2.27993 15.9499 2.35993 16.0099 2.44993 16.0499C2.53993 16.0899 2.62993 16.1099 2.71993 16.1299C2.92993 16.1799 3.12993 16.2599 3.32993 16.3099C3.89993 16.4699 4.50993 16.4999 5.06993 16.6999C5.35993 16.8099 5.64993 16.9599 5.95993 16.9699C6.14993 16.9799 6.34993 16.9299 6.51993 16.8299C6.68993 16.7299 6.82993 16.5899 6.91993 16.4099C7.04993 16.1699 7.07993 15.8799 6.99993 15.6199C6.95993 15.4199 6.83993 15.2399 6.70993 15.0699ZM15.7599 14.5799C15.7299 14.5199 15.6799 14.4699 15.6199 14.4299C15.5699 14.3899 15.5099 14.3499 15.4499 14.3099C15.3299 14.2299 15.2199 14.1399 15.1099 14.0399C14.9999 13.9499 14.8899 13.8499 14.7899 13.7399C14.6999 13.6299 14.6199 13.4999 14.5899 13.3599C14.5699 13.2699 14.5699 13.1799 14.5699 13.0999C14.5599 12.9999 14.5399 12.8999 14.5099 12.8099C14.4899 12.7499 14.4499 12.6899 14.4099 12.6399C14.3499 12.5799 14.2699 12.5399 14.1799 12.5099C14.1699 12.5099 14.1699 12.5099 14.1599 12.5099C14.2699 12.3199 14.3599 12.1099 14.3999 11.8999C14.4699 11.5199 14.4399 11.1299 14.3699 10.7399C14.2799 10.2199 14.1299 9.70988 13.9299 9.21988C13.7899 8.85988 13.6199 8.49988 13.3899 8.18988C13.1599 7.88988 12.8699 7.62988 12.6499 7.31988C12.5399 7.16988 12.4399 7.01988 12.3299 6.86988C12.2699 6.74988 12.2099 6.63988 12.1599 6.51988C12.0099 6.19988 11.8799 5.86988 11.6999 5.56988C11.6699 5.52988 11.6499 5.47988 11.6199 5.43988C11.5999 5.13988 11.5699 4.83988 11.5499 4.54988C11.5199 3.95988 11.5599 3.35988 11.3999 2.78988C11.3199 2.50988 11.1999 2.24988 11.0499 1.99988C10.8699 1.70988 10.6399 1.45988 10.3699 1.25988C9.92993 0.939883 9.38993 0.779883 8.84993 0.779883C8.44993 0.769883 8.04993 0.849883 7.69993 1.03988C7.32993 1.23988 7.01993 1.55988 6.82993 1.93988C6.63993 2.30988 6.56993 2.73988 6.55993 3.16988C6.54993 3.57988 6.57993 3.99988 6.59993 4.40988C6.60993 4.83988 6.60993 5.27988 6.63993 5.69988C6.64993 5.83988 6.66993 5.97988 6.66993 6.11988C6.66993 6.18988 6.66993 6.25988 6.65993 6.32988C6.65993 6.31988 6.65993 6.31988 6.65993 6.30988C6.65993 6.31988 6.64993 6.31988 6.64993 6.32988C6.58993 6.46988 6.51993 6.60988 6.43993 6.73988C6.29993 6.90988 6.16993 7.07988 6.02993 7.24988C5.86993 7.44988 5.70993 7.64988 5.54993 7.84988C5.34993 8.08988 5.14993 8.33988 5.02993 8.61988C4.91993 8.85988 4.86993 9.12988 4.78993 9.38988C4.69993 9.67988 4.58993 9.96988 4.45993 10.2399C4.33993 10.4899 4.20993 10.7399 4.07993 10.9899C3.97993 11.1699 3.88993 11.3599 3.84993 11.5599C3.81993 11.7199 3.83993 11.8799 3.87993 12.0399C3.89993 12.1099 3.92993 12.1599 3.94993 12.2299C3.98993 12.1599 4.03993 12.0899 4.08993 12.0299C4.14993 11.9599 4.22993 11.8999 4.30993 11.8699C4.39993 11.8399 4.49993 11.8299 4.58993 11.8499C4.67993 11.8699 4.76993 11.9099 4.84993 11.9699C4.99993 12.0799 5.11993 12.2499 5.21993 12.3999C5.46993 12.7699 5.69993 13.1399 5.90993 13.5299C6.07993 13.8399 6.23993 14.1699 6.43993 14.4599C6.56993 14.6499 6.71993 14.8299 6.84993 15.0299C6.92993 15.1399 6.98993 15.2599 7.04993 15.3899C7.10993 15.4999 7.15993 15.6099 7.18993 15.7199C7.24993 15.9499 7.22993 16.1899 7.14993 16.4199C7.18993 16.4099 7.22993 16.3999 7.26993 16.3899C7.51993 16.3399 7.76993 16.2899 8.02993 16.2899C8.07993 16.2899 8.12993 16.2799 8.17993 16.2799C8.35993 16.2999 8.54993 16.3099 8.73993 16.2999C8.76993 16.2999 8.79993 16.2899 8.82993 16.2899C8.86993 16.2899 8.89993 16.2999 8.92993 16.3099C9.23993 16.3299 9.53993 16.3599 9.83993 16.3999C10.1099 16.4399 10.3699 16.4899 10.6299 16.5599C10.7299 16.5799 10.8299 16.6099 10.9299 16.6399C10.9099 16.5299 10.8999 16.4199 10.8999 16.2999C10.9099 15.9599 10.9899 15.6299 11.0599 15.2999C11.0799 15.1999 11.0999 15.1099 11.1099 15.0099C11.1499 14.7999 11.1799 14.5999 11.1999 14.3899C11.1699 14.6699 11.1199 14.9499 11.0699 15.2199C11.0099 15.5499 10.9499 15.8899 10.9499 16.2199C10.9499 16.4099 10.9699 16.6099 11.0699 16.7699C11.1699 16.9299 11.3399 17.0399 11.5099 17.1199C11.7599 17.2299 12.0399 17.2799 12.2999 17.2399C12.5199 17.2099 12.7299 17.1099 12.9099 16.9799C13.0899 16.8499 13.2399 16.6899 13.3999 16.5399C13.5899 16.3599 13.7899 16.1999 13.9999 16.0499C14.3199 15.8399 14.6799 15.6899 15.0199 15.5099C15.2199 15.4099 15.4199 15.2899 15.5699 15.1199C15.6399 15.0399 15.6899 14.9499 15.7299 14.8599C15.8199 14.7599 15.7999 14.6599 15.7599 14.5799ZM8.77993 3.64988C8.78993 3.63988 8.78993 3.62988 8.78993 3.61988C8.85993 3.45988 8.96993 3.31988 9.11993 3.21988C9.16993 3.17988 9.21993 3.14988 9.26993 3.12988C9.36993 3.08988 9.46993 3.08988 9.56993 3.09988C9.66993 3.10988 9.76993 3.14988 9.85993 3.19988C10.0299 3.30988 10.1499 3.48988 10.2199 3.67988C10.2299 3.72988 10.2499 3.77988 10.2599 3.83988C10.2899 3.95988 10.2999 4.09988 10.2899 4.22988C10.2799 4.37988 10.2499 4.51988 10.1899 4.65988C10.1499 4.74988 10.0799 4.82988 9.99993 4.89988C9.96993 4.88988 9.93993 4.87988 9.90993 4.86988C9.77993 4.83988 9.66993 4.77988 9.54993 4.73988C9.62993 4.73988 9.70993 4.71988 9.77993 4.66988C9.83993 4.62988 9.88993 4.56988 9.91993 4.50988C9.94993 4.44988 9.96993 4.37988 9.97993 4.30988C9.99993 4.18988 9.97993 4.05988 9.91993 3.93988C9.85993 3.82988 9.75993 3.73988 9.64993 3.68988C9.59993 3.66988 9.53993 3.65988 9.48993 3.66988C9.42993 3.66988 9.37993 3.68988 9.32993 3.71988C9.27993 3.74988 9.23993 3.78988 9.20993 3.83988C9.13993 3.93988 9.11993 4.04988 9.10993 4.16988C9.10993 4.25988 9.11993 4.34988 9.13993 4.42988C9.16993 4.49988 9.20993 4.56988 9.26993 4.61988C9.18993 4.57988 9.10993 4.53988 9.03993 4.49988C9.00993 4.48988 8.98993 4.47988 8.95993 4.45988C8.90993 4.39988 8.87993 4.31988 8.84993 4.24988C8.82993 4.20988 8.79993 4.17988 8.76993 4.13988C8.71993 3.98988 8.71993 3.81988 8.77993 3.64988ZM8.89993 5.86988C9.09993 5.78988 9.28993 5.66988 9.45993 5.53988C9.53993 5.47988 9.61993 5.41988 9.68993 5.34988L9.69993 5.33988C9.74993 5.33988 9.78993 5.32988 9.83993 5.32988C9.78993 5.34988 9.73993 5.37988 9.68993 5.40988C9.60993 5.45988 9.53993 5.52988 9.45993 5.59988C9.28993 5.73988 9.09993 5.85988 8.89993 5.92988C8.76993 5.97988 8.62993 6.00988 8.48993 6.03988C8.30993 6.07988 8.12993 6.11988 7.94993 6.10988C7.76993 6.09988 7.57993 6.05988 7.43993 5.94988C7.38993 5.90988 7.33993 5.85988 7.28993 5.80988C7.23993 5.76988 7.17993 5.72988 7.11993 5.70988C7.10993 5.69988 7.09993 5.69988 7.07993 5.69988C7.05993 5.69988 7.04993 5.68988 7.03993 5.67988C7.02993 5.66988 7.02993 5.66988 7.02993 5.65988C7.10993 5.66988 7.17993 5.70988 7.23993 5.74988C7.30993 5.79988 7.36993 5.84988 7.43993 5.88988C7.58993 5.98988 7.76993 6.02988 7.94993 6.03988C8.12993 6.04988 8.30993 6.01988 8.47993 5.97988C8.62993 5.94988 8.76993 5.91988 8.89993 5.86988ZM6.95993 3.59988C6.98993 3.49988 7.03993 3.41988 7.10993 3.34988C7.17993 3.27988 7.27993 3.22988 7.36993 3.22988C7.43993 3.21988 7.51993 3.23988 7.58993 3.26988C7.65993 3.29988 7.70993 3.34988 7.76993 3.39988C7.86993 3.50988 7.94993 3.64988 7.99993 3.79988C8.04993 3.92988 8.06993 4.06988 8.06993 4.20988C7.99993 4.29988 7.93993 4.39988 7.86993 4.48988C7.83993 4.50988 7.79993 4.51988 7.76993 4.53988C7.76993 4.52988 7.77993 4.52988 7.77993 4.51988C7.81993 4.37988 7.81993 4.21988 7.76993 4.07988C7.73993 3.97988 7.68993 3.87988 7.59993 3.80988C7.55993 3.77988 7.50993 3.74988 7.45993 3.73988C7.40993 3.72988 7.35993 3.72988 7.30993 3.74988C7.25993 3.76988 7.21993 3.81988 7.18993 3.86988C7.15993 3.91988 7.14993 3.97988 7.13993 4.02988C7.11993 4.14988 7.11993 4.28988 7.15993 4.39988C7.18993 4.47988 7.22993 4.54988 7.28993 4.60988C7.32993 4.64988 7.36993 4.68988 7.41993 4.70988C7.43993 4.71988 7.46993 4.71988 7.49993 4.71988C7.44993 4.76988 7.38993 4.80988 7.33993 4.85988C7.29993 4.88988 7.25993 4.92988 7.21993 4.96988C7.19993 4.94988 7.16993 4.93988 7.15993 4.91988C7.08993 4.85988 7.04993 4.77988 7.00993 4.69988C6.93993 4.52988 6.92993 4.34988 6.91993 4.16988C6.90993 3.97988 6.89993 3.77988 6.95993 3.59988ZM14.0099 12.8199C13.8199 13.0899 13.5299 13.2999 13.2099 13.4099C13.0199 13.4799 12.8099 13.4799 12.6099 13.4199C12.4999 13.3899 12.3899 13.3299 12.3099 13.2399C12.2099 13.1299 12.1799 12.9799 12.1699 12.8299C12.1599 12.6799 12.1799 12.5199 12.2199 12.3799C12.0899 12.3499 11.9599 12.3299 11.8299 12.3099C11.7499 12.2999 11.6699 12.2899 11.5899 12.2899C11.5099 12.2899 11.4299 12.3199 11.3699 12.3699C11.3099 12.4299 11.2699 12.5099 11.2599 12.5899C11.2499 12.6699 11.2499 12.7599 11.2599 12.8499C11.2799 13.1799 11.2799 13.4999 11.2699 13.8299C11.1299 13.7899 10.9799 13.7599 10.8399 13.7799C10.5799 13.8099 10.3299 13.8999 10.0999 14.0199C9.76993 14.1899 9.46993 14.4199 9.28993 14.7399C9.22993 14.8499 9.17993 14.9699 9.12993 15.0899C9.07993 15.2099 9.01993 15.3199 8.92993 15.4099C8.85993 15.4899 8.76993 15.5399 8.68993 15.6099C8.61993 15.6199 8.53993 15.6399 8.46993 15.6399C8.40993 15.5599 8.34993 15.4899 8.28993 15.4099C8.13993 15.2099 8.06993 14.9599 7.93993 14.7399C7.76993 14.4399 7.48993 14.2199 7.18993 14.0499C7.16993 13.9799 7.13993 13.9099 7.09993 13.8399C6.96993 13.6199 6.75993 13.4599 6.55993 13.3099C6.12993 12.9699 5.69993 12.6199 5.29993 12.2399C5.25993 12.1999 5.21993 12.1599 5.17993 12.1199C5.16993 11.8899 5.16993 11.6499 5.18993 11.4199C5.24993 10.8199 5.41993 10.2299 5.65993 9.67988C5.72993 9.51988 5.80993 9.35988 5.88993 9.20988C6.00993 9.08988 6.12993 8.96988 6.26993 8.85988C6.50993 8.68988 6.81993 8.54988 7.16993 8.42988C7.39993 8.37988 7.62993 8.34988 7.62993 8.34988C6.31993 8.53988 6.40993 8.23988 6.34993 8.15988C6.31993 8.10988 6.30993 8.04988 6.30993 7.97988C6.40993 7.65988 6.59993 7.37988 6.79993 7.10988C6.84993 7.03988 6.89993 6.96988 6.93993 6.89988C6.97993 6.92988 7.01993 6.96988 7.05993 6.99988C7.20993 7.07988 7.36993 7.11988 7.52993 7.13988C7.55993 7.13988 7.58993 7.13988 7.60993 7.14988C7.40993 6.96988 7.22993 6.75988 7.14993 6.50988C7.07993 6.30988 7.05993 6.08988 6.98993 5.89988C6.96993 5.84988 6.93993 5.78988 6.92993 5.73988C6.91993 5.70988 6.91993 5.67988 6.91993 5.64988C6.92993 5.66988 6.94993 5.68988 6.97993 5.70988C6.99993 5.72988 7.02993 5.73988 7.04993 5.75988C7.17993 5.83988 7.28993 5.95988 7.37993 6.07988C7.50993 6.23988 7.61993 6.41988 7.77993 6.53988C7.89993 6.61988 8.03993 6.66988 8.17993 6.68988C8.34993 6.70988 8.51993 6.67988 8.67993 6.62988C8.82993 6.58988 8.97993 6.51988 9.10993 6.43988C9.36993 6.27988 9.57993 6.04988 9.85993 5.94988C9.91993 5.92988 9.98993 5.90988 10.0399 5.87988C10.0999 5.84988 10.1499 5.80988 10.1799 5.74988C10.2099 5.68988 10.2099 5.62988 10.2199 5.56988C10.2199 5.53988 10.2299 5.51988 10.2399 5.48988L10.2499 5.49988C10.2799 5.55988 10.2899 5.63988 10.2799 5.70988C10.2799 5.77988 10.2699 5.85988 10.2999 5.92988C10.3299 6.00988 10.3799 6.06988 10.4199 6.13988C10.4399 6.17988 10.4499 6.21988 10.4499 6.25988C10.4499 6.29988 10.4399 6.33988 10.4099 6.36988C10.3899 6.38988 10.3499 6.40988 10.3199 6.40988C10.2899 6.41988 10.2499 6.40988 10.2199 6.39988C10.1499 6.38988 10.0899 6.35988 10.0299 6.34988C9.93993 6.33988 9.84993 6.37988 9.77993 6.42988C9.70993 6.47988 9.64993 6.54988 9.57993 6.60988C9.43993 6.73988 9.26993 6.84988 9.09993 6.93988C8.95993 7.01988 8.80993 7.08988 8.67993 7.16988C8.65993 7.17988 8.63993 7.19988 8.61993 7.20988C8.82993 7.21988 9.03993 7.20988 9.23993 7.17988C9.58993 7.11988 9.90993 6.99988 10.2499 6.96988C10.4899 6.94988 10.7299 6.96988 10.9599 6.92988C10.8699 6.93988 10.7799 6.94988 10.6899 6.94988C10.7099 6.99988 10.7399 7.03988 10.7599 7.08988C10.9399 7.48988 11.0699 7.90988 11.1299 8.33988C11.3699 8.58988 11.5699 8.86988 11.7199 9.17988C12.1499 10.0799 12.1499 11.1199 12.0299 12.1099C12.0199 12.1899 12.0099 12.2699 11.9999 12.3499C12.0699 12.3599 12.1299 12.3699 12.1999 12.3799C12.2099 12.3399 12.2199 12.2999 12.2299 12.2599C12.2699 12.1599 12.3399 12.0599 12.4199 11.9899C12.5099 11.9199 12.5999 11.8599 12.7099 11.8399C12.8299 11.8099 12.9699 11.8299 13.0899 11.8399C13.2099 11.8599 13.3299 11.8899 13.4499 11.9099C13.5799 11.9299 13.7099 11.9499 13.8299 12.0099C13.8899 12.0299 13.9499 12.0699 13.9999 12.1099C14.0399 12.1499 14.0899 12.2099 14.1099 12.2699C14.1399 12.3399 14.1399 12.4299 14.1199 12.5199C14.1299 12.6199 14.0699 12.7199 14.0099 12.8199ZM11.0399 8.29988C10.9499 8.01988 10.9099 7.45988 10.9099 7.45988C10.9099 7.45988 10.8499 7.90988 10.5899 8.09988C10.3199 8.28988 10.1699 8.25988 9.83993 8.29988C9.51993 8.33988 8.63993 8.31988 8.63993 8.31988C8.63993 8.31988 8.76993 8.31988 9.04993 8.36988C9.32993 8.41988 9.90993 8.46988 10.2299 8.59988C10.5499 8.71988 10.6699 8.75988 10.8699 8.87988C11.1499 9.05988 11.3599 9.32988 11.6199 9.52988C11.6199 9.52988 11.6299 9.26988 11.5199 9.07988C11.4099 8.88988 11.1199 8.57988 11.0399 8.29988ZM7.71993 9.58988C7.64993 9.84988 7.59993 10.1099 7.57993 10.3799C7.53993 10.7599 7.54993 11.1399 7.52993 11.5199C7.50993 11.8399 7.47993 12.1699 7.52993 12.4799C7.55993 12.6299 7.59993 12.7799 7.66993 12.9199C7.67993 12.8699 7.68993 12.8099 7.68993 12.7599C7.70993 12.4999 7.66993 12.2399 7.65993 11.9899C7.62993 11.5399 7.69993 11.0899 7.71993 10.6299C7.74993 10.2799 7.74993 9.93988 7.71993 9.58988ZM8.24993 8.18988C8.18993 8.14988 8.13993 8.08988 8.10993 8.02988C8.05993 7.92988 8.03993 7.80988 8.06993 7.69988C8.05993 7.77988 8.04993 7.85988 8.02993 7.93988C8.01993 7.97988 8.00993 8.01988 7.99993 8.05988C7.98993 8.09988 7.95993 8.12988 7.92993 8.15988C7.89993 8.17988 7.86993 8.19988 7.83993 8.20988C7.71993 8.26988 7.57993 8.30988 7.44993 8.31988C7.49993 8.31988 7.55993 8.32988 7.60993 8.32988C7.63993 8.32988 7.67993 8.33988 7.70993 8.34988C7.73993 8.35988 7.77993 8.36988 7.79993 8.38988C7.82993 8.40988 7.84993 8.43988 7.86993 8.47988C7.90993 8.54988 7.91993 8.61988 7.91993 8.69988C7.92993 8.79988 7.92993 8.88988 7.91993 8.98988C7.92993 8.92988 7.93993 8.85988 7.95993 8.79988C7.99993 8.68988 8.04993 8.58988 8.12993 8.49988C8.15993 8.46988 8.19993 8.43988 8.22993 8.40988C8.34993 8.32988 8.48993 8.28988 8.62993 8.30988C8.50993 8.31988 8.36993 8.26988 8.24993 8.18988Z" />
</svg>
