<svg width="18" height="18" viewBox="0 0 18 18" xmlns="http://www.w3.org/2000/svg">
  <path d="M12.3 5.91997C11.82 5.91997 11.39 6.09997 11.05 6.42997C10.71 6.09997 10.29 5.91997 9.81 5.91997C9.32 5.91997 8.88 6.09997 8.53 6.45997C8.18 6.80997 7.99 7.25997 7.99 7.75997V10.29H9.14V7.75997C9.14 7.56997 9.2 7.41997 9.34 7.27997C9.48 7.13997 9.62 7.07997 9.81 7.07997C10 7.07997 10.15 7.13997 10.28 7.27997C10.42 7.41997 10.48 7.56997 10.48 7.75997V10.29H11.63V7.75997C11.63 7.56997 11.69 7.41997 11.83 7.27997C11.97 7.13997 12.11 7.07997 12.3 7.07997C12.49 7.07997 12.63 7.13997 12.77 7.27997C12.91 7.41997 12.97 7.56997 12.97 7.75997L12.98 10.71C12.98 11.34 12.38 11.87 11.61 11.87L7.92 11.86C7.33 11.86 6.82 11.28 6.82 10.54V4.96997H5.73V10.74C5.73 11.35 5.95 11.89 6.39 12.32C6.76 12.69 7.21 12.93 7.71 12.98H11.82C12.45 12.98 13.01 12.75 13.45 12.29C13.83 11.9 14.05 11.43 14.11 10.9V7.74997C14.11 7.24997 13.93 6.80997 13.57 6.44997C13.23 6.09997 12.8 5.91997 12.3 5.91997ZM11.14 2.75997H8.96L2 2.71997V6.72997H3.65V7.53997V10.7C3.65 13.3 5.91 15.27 8.51 15.27H16V7.33997C16 4.72997 13.74 2.75997 11.14 2.75997ZM14.94 13.15C14.94 13.8 14.36 14.22 13.7 14.22H8.52C6.42 14.22 4.72 12.65 4.72 10.71V6.72997C4.72 6.10997 4.18 5.68997 3.73 5.68997C3.31 5.68997 3.07 5.68997 3.07 5.68997V3.78997L8.96 3.81997H11.14C13.24 3.81997 14.94 5.38997 14.94 7.32997C14.94 7.33997 14.94 11.42 14.94 13.15Z" />
</svg>
