<svg width="18" height="18" viewBox="0 0 18 18" xmlns="http://www.w3.org/2000/svg">
  <path d="M12.29 6.52009C12.47 6.91009 12.67 7.30009 12.85 7.69009C13.19 8.45009 13.46 9.25009 13.57 10.0701C13.68 10.8901 13.63 11.7501 13.37 12.5401C13.08 13.4301 12.52 14.2301 11.85 14.8801C11.05 15.6501 10.02 16.2401 8.91 16.2901C8.19 16.3201 7.46 16.1101 6.82 15.7701C6.28 15.4901 5.79 15.1101 5.4 14.6401C5.01 14.1701 4.72 13.6201 4.58 13.0301C4.41 12.3001 4.49 11.5201 4.74 10.8201C4.92 10.3101 5.19 9.84009 5.38 9.34009C5.59 8.79009 5.7 8.21009 5.98 7.69009C6.23 7.22009 6.6 6.82009 6.8 6.33009C6.92 6.04009 6.97 5.72009 7.05 5.41009C7.13 5.10009 7.23 4.79009 7.44 4.5501C7.69 4.2601 8.07 4.1101 8.45 4.0601C8.83 4.0201 9.21 4.0801 9.59 4.1601C9.89 4.2301 10.18 4.3101 10.47 4.4101C10.71 4.50009 10.96 4.6001 11.17 4.75009C11.46 4.96009 11.68 5.24009 11.85 5.55009C12.01 5.87009 12.14 6.20009 12.29 6.52009Z" fill="#050507" />
  <path d="M9.1 16.3001C9.41 16.3201 9.71 16.3501 10.01 16.3901C10.28 16.4301 10.54 16.4801 10.8 16.5501C11.21 16.6501 11.62 16.7801 12.04 16.7901C12.15 16.7901 12.26 16.7901 12.37 16.7601C12.48 16.7401 12.58 16.6901 12.67 16.6201C12.8 16.5201 12.88 16.3601 12.91 16.2001C12.94 16.0401 12.92 15.8701 12.87 15.7101C12.77 15.3901 12.57 15.1201 12.4 14.8401C12.3 14.6801 12.22 14.5101 12.11 14.3501C12.01 14.1901 11.88 14.0401 11.72 13.9401C11.5 13.8001 11.23 13.7501 10.97 13.7801C10.71 13.8101 10.46 13.9001 10.23 14.0201C9.9 14.1901 9.6 14.4201 9.42 14.7401C9.36 14.8501 9.31 14.9701 9.26 15.0901C9.21 15.2101 9.15 15.3201 9.06 15.4101C8.96 15.5101 8.83 15.5801 8.73 15.6801C8.68 15.7301 8.63 15.7901 8.61 15.8501C8.58 15.9201 8.58 15.9901 8.6 16.0601C8.62 16.1101 8.65 16.1501 8.68 16.1801C8.72 16.2101 8.76 16.2301 8.81 16.2501C8.9 16.2901 9 16.2901 9.1 16.3001Z" fill="#050507" />
  <path d="M8.18998 16.2801C7.93998 16.2901 7.67998 16.3301 7.42998 16.3801C7.18998 16.4301 6.94998 16.4801 6.71998 16.5501C6.31998 16.6501 5.92998 16.7801 5.51998 16.7901C5.40998 16.7901 5.29998 16.7901 5.19998 16.7601C5.08998 16.7401 4.98998 16.6901 4.90998 16.6201C4.77998 16.5201 4.69998 16.3601 4.66998 16.2001C4.63998 16.0401 4.65998 15.8701 4.70998 15.7101C4.79998 15.3901 5.00998 15.1201 5.16998 14.8401C5.25998 14.6801 5.34998 14.5101 5.44998 14.3501C5.54998 14.1901 5.66998 14.0401 5.82998 13.9401C6.03998 13.8001 6.30998 13.7501 6.55998 13.7801C6.80998 13.8101 7.05998 13.9001 7.27998 14.0201C7.59998 14.1901 7.88998 14.4301 8.06998 14.7401C8.19998 14.9601 8.26998 15.2101 8.41998 15.4101C8.49998 15.5201 8.59998 15.6101 8.66998 15.7301C8.69998 15.7901 8.72998 15.8501 8.72998 15.9201C8.73998 15.9901 8.71998 16.0601 8.67998 16.1101C8.64998 16.1501 8.61998 16.1801 8.57998 16.2001C8.53998 16.2201 8.49998 16.2401 8.44998 16.2501C8.36998 16.2801 8.27998 16.2801 8.18998 16.2801Z" fill="#050507" />
  <path d="M6.76997 5.69012C6.72997 5.26012 6.73997 4.83012 6.72997 4.40012C6.70997 3.99012 6.67997 3.57012 6.68997 3.16012C6.69997 2.74012 6.76997 2.31012 6.95997 1.93012C7.14997 1.55012 7.44997 1.23012 7.81997 1.03012C8.16997 0.840117 8.56997 0.760117 8.96997 0.770117C9.50997 0.780117 10.05 0.940117 10.49 1.26012C10.76 1.46012 10.99 1.71012 11.18 2.00012C11.33 2.24012 11.46 2.51012 11.53 2.79012C11.68 3.36012 11.65 3.96012 11.68 4.55012C11.71 5.11012 11.8 5.67012 11.77 6.23012C11.76 6.35012 11.75 6.48012 11.7 6.58012C11.65 6.69012 11.56 6.77012 11.45 6.83012C11.35 6.89012 11.23 6.92012 11.11 6.94012C10.88 6.98012 10.64 6.95012 10.4 6.97012C10.06 7.00012 9.72997 7.13012 9.38997 7.18012C8.97997 7.24012 8.56997 7.20012 8.15997 7.18012C7.99997 7.17012 7.82997 7.17012 7.66997 7.15012C7.50997 7.13012 7.33997 7.09012 7.19997 7.01012C7.10997 6.96012 7.02997 6.90012 6.95997 6.82012C6.88997 6.74012 6.83997 6.65012 6.81997 6.56012C6.77997 6.41012 6.79997 6.26012 6.79997 6.11012C6.79997 5.97012 6.77997 5.83012 6.76997 5.69012Z" fill="#050507" />
  <path d="M7.41994 5.52018C7.35994 5.59018 7.31994 5.68018 7.29994 5.77018C7.27994 5.86018 7.26994 5.95018 7.26994 6.05018C7.25994 6.24018 7.26994 6.43018 7.22994 6.61018C7.17994 6.80018 7.05994 6.97018 6.93994 7.13018C6.73994 7.41018 6.53994 7.70018 6.43994 8.03018C6.37994 8.23018 6.35994 8.44018 6.37994 8.65018C6.15994 8.98018 5.95994 9.33018 5.79994 9.69018C5.55994 10.2402 5.38994 10.8302 5.32994 11.4302C5.25994 12.1602 5.34994 12.9202 5.63994 13.6002C5.84994 14.0902 6.15994 14.5402 6.56994 14.8902C6.77994 15.0702 6.99994 15.2202 7.24994 15.3402C8.08994 15.7502 9.13994 15.7602 9.96994 15.3102C10.3999 15.0802 10.7699 14.7402 11.1199 14.4002C11.3299 14.1902 11.5399 13.9802 11.7099 13.7402C12.0199 13.2602 12.1299 12.6802 12.1999 12.1202C12.3199 11.1302 12.3199 10.0902 11.8899 9.19018C11.7399 8.88018 11.5399 8.60018 11.2999 8.35018C11.2399 7.92018 11.1099 7.50018 10.9299 7.10018C10.7999 6.81018 10.6399 6.54018 10.5199 6.25018C10.4699 6.13018 10.4299 6.01018 10.3699 5.89018C10.3099 5.77018 10.2499 5.66018 10.1499 5.57018C10.0499 5.48018 9.93994 5.41018 9.80994 5.37018C9.67994 5.33018 9.54994 5.31018 9.41994 5.30018C9.15994 5.29018 8.88994 5.32018 8.62994 5.31018C8.41994 5.30018 8.20994 5.26018 7.99994 5.28018C7.88994 5.29018 7.78994 5.30018 7.68994 5.34018C7.56994 5.38018 7.47994 5.44018 7.41994 5.52018Z" fill="#FDFEFC" />
  <path d="M7.28995 6.51014C7.37995 6.78014 7.56995 7.02014 7.79995 7.20014C7.86995 7.26014 7.94995 7.32014 8.03995 7.36014C8.12995 7.40014 8.21995 7.42014 8.31995 7.41014C8.40995 7.40014 8.49995 7.37014 8.58995 7.32014C8.66995 7.27014 8.74995 7.22014 8.82995 7.17014C8.96995 7.08014 9.10995 7.01014 9.24995 6.94014C9.41995 6.85014 9.58995 6.74014 9.72995 6.61014C9.79995 6.55014 9.85995 6.48014 9.92995 6.43014C9.99995 6.38014 10.0899 6.34014 10.1799 6.35014C10.2499 6.35014 10.3099 6.38014 10.3699 6.40014C10.3999 6.41014 10.4399 6.41014 10.4699 6.41014C10.4999 6.40014 10.5399 6.39014 10.5599 6.37014C10.5899 6.34014 10.5999 6.30014 10.5999 6.26014C10.5999 6.22014 10.5799 6.18014 10.5699 6.14014C10.5299 6.07014 10.4699 6.00014 10.4499 5.93014C10.4299 5.86014 10.4299 5.79014 10.4299 5.71014C10.4299 5.64014 10.4299 5.56014 10.3999 5.50014C10.3699 5.45014 10.3299 5.41014 10.2799 5.39014C10.2299 5.36014 10.1799 5.35014 10.1199 5.35014C10.0099 5.34014 9.89995 5.36014 9.78995 5.37014C9.63995 5.38014 9.48995 5.36014 9.34995 5.37014C9.16995 5.38014 8.98995 5.43014 8.79995 5.43014C8.58995 5.43014 8.37995 5.36014 8.16995 5.39014C8.07995 5.40014 7.99995 5.44014 7.90995 5.47014C7.81995 5.50014 7.73995 5.52014 7.64995 5.52014C7.54995 5.52014 7.44995 5.48014 7.34995 5.48014C7.29995 5.48014 7.24995 5.48014 7.19995 5.50014C7.14995 5.52014 7.10995 5.55014 7.08995 5.60014C7.07995 5.63014 7.06995 5.66014 7.06995 5.68014C7.06995 5.71014 7.06995 5.74014 7.07995 5.77014C7.08995 5.83014 7.11995 5.88014 7.13995 5.93014C7.19995 6.09014 7.21995 6.31014 7.28995 6.51014Z" fill="#010101" fill-opacity="0.2588" />
  <path opacity="0.3" d="M7.02001 5.73022C7.20001 5.84022 7.37001 5.98022 7.51001 6.14022C7.64001 6.29022 7.75001 6.45022 7.91001 6.56022C8.03001 6.64022 8.17001 6.68022 8.31001 6.69022C8.48001 6.71022 8.65001 6.68022 8.81001 6.64022C8.96001 6.60022 9.11001 6.54022 9.24001 6.47022C9.50001 6.33022 9.71001 6.11022 9.99001 6.02022C10.05 6.00022 10.12 5.98022 10.17 5.96022C10.23 5.93022 10.28 5.90022 10.31 5.84022C10.34 5.79022 10.34 5.73022 10.34 5.67022C10.35 5.61022 10.37 5.55022 10.38 5.49022C10.39 5.43022 10.39 5.36022 10.36 5.31022C10.34 5.26022 10.29 5.23022 10.24 5.20022C10.19 5.18022 10.13 5.17022 10.08 5.16022C9.97001 5.15022 9.86001 5.18022 9.75001 5.19022C9.60001 5.20022 9.45001 5.18022 9.31001 5.19022C9.13001 5.20022 8.95001 5.23022 8.76001 5.24022C8.55001 5.25022 8.34001 5.22022 8.13001 5.21022C8.04001 5.21022 7.95001 5.21022 7.86001 5.22022C7.77001 5.23022 7.68001 5.26022 7.61001 5.31022C7.54001 5.35022 7.48001 5.42022 7.41001 5.47022C7.38001 5.50022 7.34001 5.52022 7.30001 5.54022C7.26001 5.56022 7.22001 5.57022 7.17001 5.57022C7.15001 5.57022 7.12001 5.57022 7.10001 5.57022C7.06001 5.58022 7.03001 5.60022 7.01001 5.62022C7.02001 5.66022 7.02001 5.70022 7.02001 5.73022Z" fill="#010101" />
  <path d="M8.19993 4.25013C8.19993 4.37013 8.18993 4.50013 8.15993 4.62013C8.11993 4.74013 8.05993 4.85013 7.97993 4.94013C7.91993 5.00013 7.84993 5.04013 7.76993 5.06013C7.68993 5.09013 7.59993 5.09013 7.51992 5.07013C7.43992 5.05013 7.35993 5.00013 7.28993 4.93013C7.22993 4.87013 7.17993 4.79013 7.14993 4.71013C7.07993 4.54013 7.06993 4.36013 7.04993 4.18013C7.03993 3.98013 7.01993 3.78013 7.08993 3.59013C7.11993 3.49013 7.16993 3.41013 7.23993 3.34013C7.30993 3.27013 7.40993 3.22013 7.49993 3.22013C7.56993 3.21013 7.64993 3.23013 7.70993 3.26013C7.77993 3.29013 7.82993 3.34013 7.88993 3.39013C7.99993 3.50013 8.06993 3.64013 8.12993 3.79013C8.16993 3.94013 8.18993 4.09013 8.19993 4.25013Z" fill="url(#paint0_radial_2214_210)" />
  <path d="M10.41 4.25005C10.4 4.40005 10.37 4.54005 10.31 4.68005C10.25 4.81005 10.15 4.93005 10.02 5.00005C9.92002 5.06005 9.79002 5.08005 9.67002 5.07005C9.55002 5.06005 9.43002 5.00005 9.34002 4.94005C9.14002 4.80005 9.01002 4.59005 8.93002 4.36005C8.86002 4.13005 8.82002 3.88005 8.90002 3.66005C8.91002 3.65005 8.91002 3.64005 8.91002 3.63005C8.98002 3.47005 9.09002 3.33005 9.24002 3.23005C9.29002 3.19005 9.34002 3.16005 9.39002 3.14005C9.49002 3.10005 9.59002 3.10005 9.69002 3.11005C9.79002 3.12005 9.89002 3.16005 9.98002 3.21005C10.15 3.32005 10.27 3.50005 10.34 3.69005C10.35 3.74005 10.37 3.79005 10.38 3.85005C10.41 3.98005 10.42 4.12005 10.41 4.25005Z" fill="url(#paint1_radial_2214_210)" />
  <path d="M7.46991 4.82016C7.36991 4.90016 7.27991 4.99016 7.18991 5.08016C7.13991 5.13016 7.08991 5.18016 7.06991 5.25016C7.04991 5.31016 7.04991 5.37016 7.03991 5.44016C7.03991 5.46016 7.02991 5.48016 7.02991 5.50016C7.02991 5.51016 7.02991 5.52016 7.02991 5.53016C7.02991 5.54016 7.03991 5.55016 7.04991 5.56016C7.05991 5.57016 7.07991 5.58016 7.09991 5.58016C7.11991 5.58016 7.13991 5.58016 7.14991 5.59016C7.22991 5.60016 7.30991 5.64016 7.36991 5.68016C7.43991 5.73016 7.49991 5.78016 7.56991 5.82016C7.71991 5.92016 7.89991 5.96016 8.07991 5.97016C8.25991 5.98016 8.43991 5.95016 8.60991 5.91016C8.74991 5.88016 8.88991 5.85016 9.01991 5.80016C9.21991 5.72016 9.40991 5.60016 9.57991 5.47016C9.65991 5.41016 9.73991 5.35016 9.80991 5.28016C9.82991 5.26016 9.85991 5.23016 9.87991 5.21016C9.90991 5.19016 9.92991 5.17016 9.96991 5.16016C10.0199 5.14016 10.0699 5.15016 10.1199 5.16016C10.1599 5.17016 10.1999 5.17016 10.2299 5.17016C10.2499 5.17016 10.2699 5.17016 10.2899 5.16016C10.3099 5.15016 10.3199 5.14016 10.3399 5.13016C10.3599 5.11016 10.3599 5.08016 10.3599 5.06016C10.3599 5.03016 10.3499 5.01016 10.3399 4.99016C10.3099 4.95016 10.2699 4.92016 10.2199 4.90016C10.1599 4.87016 10.0899 4.86016 10.0199 4.84016C9.80991 4.79016 9.60991 4.72016 9.41991 4.62016C9.31991 4.57016 9.22991 4.52016 9.13991 4.47016C9.03991 4.42016 8.94991 4.37016 8.83991 4.34016C8.60991 4.27016 8.34991 4.29016 8.11991 4.37016C7.87991 4.46016 7.63991 4.62016 7.46991 4.82016Z" fill="#010101" fill-opacity="0.2588" />
  <path d="M7.95995 4.53008C8.05995 4.42008 8.12995 4.29008 8.21995 4.17008C8.26995 4.11008 8.31995 4.06008 8.38995 4.02008C8.44995 3.98008 8.52995 3.96008 8.59995 3.97008C8.67995 3.98008 8.75995 4.02008 8.81995 4.07008C8.87995 4.13008 8.91995 4.20008 8.95995 4.27008C8.98995 4.34008 9.01995 4.42008 9.06995 4.48008C9.11995 4.55008 9.19995 4.59008 9.25995 4.64008C9.28995 4.67008 9.31995 4.69008 9.34995 4.73008C9.37995 4.76008 9.39995 4.80008 9.39995 4.84008C9.40995 4.88008 9.39995 4.93008 9.38995 4.97008C9.37995 5.01008 9.34995 5.05008 9.31995 5.08008C9.25995 5.14008 9.17995 5.17008 9.08995 5.18008C8.91995 5.20008 8.74995 5.15008 8.57995 5.16008C8.40995 5.16008 8.23995 5.23008 8.06995 5.22008C7.97995 5.22008 7.89995 5.20008 7.82995 5.15008C7.78995 5.13008 7.75995 5.09008 7.73995 5.06008C7.71995 5.02008 7.69995 4.98008 7.69995 4.94008C7.69995 4.90008 7.70995 4.86008 7.71995 4.82008C7.73995 4.78008 7.75995 4.75008 7.78995 4.72008C7.84995 4.64008 7.90995 4.59008 7.95995 4.53008Z" fill="#050507" />
  <path d="M9.59997 3.69019C9.53997 3.69019 9.48997 3.71019 9.43997 3.74019C9.38997 3.77019 9.34997 3.81019 9.31997 3.86019C9.24997 3.96019 9.22997 4.07019 9.21997 4.19019C9.21997 4.28019 9.22997 4.37019 9.25997 4.45019C9.28997 4.53019 9.33997 4.61019 9.39997 4.66019C9.46997 4.72019 9.55997 4.75019 9.64997 4.76019C9.73997 4.76019 9.82997 4.74019 9.89997 4.69019C9.95997 4.65019 10.01 4.59019 10.04 4.53019C10.07 4.47019 10.09 4.40019 10.1 4.33019C10.12 4.21019 10.1 4.08019 10.04 3.96019C9.97997 3.85019 9.87997 3.76019 9.76997 3.71019C9.70997 3.70019 9.65997 3.69019 9.59997 3.69019Z" fill="#050507" />
  <path d="M9.73994 4.0703C9.68994 4.0903 9.61994 4.0803 9.58994 4.1203C9.57994 4.1503 9.59994 4.1903 9.61994 4.2103C9.67994 4.2303 9.76994 4.1903 9.78994 4.1303C9.79994 4.1103 9.77994 4.0703 9.75994 4.0603C9.75994 4.0603 9.74994 4.0703 9.73994 4.0703Z" fill="#161615" />
  <path opacity="0.5" d="M9.95997 4.20005C10.02 4.14005 9.90997 3.96005 9.82997 3.89005C9.76997 3.84005 9.58997 3.79005 9.58997 3.84005C9.59997 3.90005 9.67997 3.97005 9.72997 4.02005C9.80997 4.09005 9.92997 4.23005 9.95997 4.20005Z" fill="white" />
  <path d="M10.38 3.86028C10.3 3.79028 10.22 3.73028 10.13 3.67028C9.84004 3.48028 9.45004 3.44028 9.12004 3.54028C9.05003 3.56028 8.98003 3.59028 8.91003 3.62028C8.98003 3.46028 9.09004 3.32028 9.24004 3.22028C9.29004 3.18028 9.34004 3.15028 9.39004 3.13028C9.49004 3.09028 9.59004 3.09028 9.69004 3.10028C9.79004 3.11028 9.89004 3.15028 9.98004 3.20028C10.15 3.31028 10.27 3.49028 10.34 3.68028C10.36 3.75028 10.38 3.80028 10.38 3.86028Z" fill="#808080" />
  <path d="M9.77996 2.77002C9.74996 2.80002 9.72996 2.84002 9.70996 2.88002C9.82996 2.91002 9.93996 2.95002 10.04 3.02002C10.24 3.15002 10.39 3.34002 10.49 3.55002C10.51 3.52002 10.54 3.49002 10.56 3.46002C10.45 3.24002 10.3 3.04002 10.1 2.90002C10.01 2.84002 9.89996 2.79002 9.77996 2.77002Z" fill="#808080" />
  <path d="M7.49004 2.88013C7.48004 2.88013 7.46004 2.88013 7.45004 2.88013C7.44004 2.88013 7.43004 2.88013 7.42004 2.88013C7.50004 2.89013 7.58004 2.91013 7.65004 2.94013C7.75004 2.98013 7.83004 3.05013 7.91004 3.12013C8.05004 3.25013 8.15004 3.41013 8.22004 3.58013C8.20004 3.45013 8.16004 3.32013 8.11004 3.21013C8.08004 3.18013 8.05004 3.15013 8.02004 3.12013C7.95004 3.05013 7.86004 2.99013 7.76004 2.94013C7.68004 2.90013 7.58004 2.88013 7.49004 2.88013Z" fill="#808080" />
  <path d="M7.25996 4.03998C7.23996 4.15998 7.23996 4.29998 7.27996 4.40998C7.30996 4.48998 7.34996 4.55998 7.40996 4.61998C7.44996 4.65998 7.48996 4.69998 7.53996 4.71998C7.58996 4.73998 7.64996 4.74998 7.69996 4.73998C7.74996 4.72998 7.78996 4.69998 7.81996 4.65998C7.84996 4.61998 7.86996 4.56998 7.88996 4.52998C7.92996 4.38998 7.92996 4.22998 7.87996 4.08998C7.84996 3.98998 7.79996 3.88998 7.70996 3.81998C7.66996 3.78998 7.61996 3.75998 7.56996 3.74998C7.51996 3.73998 7.46996 3.73998 7.41996 3.75998C7.36996 3.77998 7.32996 3.82998 7.29996 3.87998C7.28996 3.92998 7.26996 3.98998 7.25996 4.03998Z" fill="#050507"/>
  <path opacity="0.5" d="M7.52996 3.95004C7.53996 3.99004 7.58996 4.00004 7.60996 4.03004C7.62996 4.06004 7.65996 4.09004 7.66996 4.12004C7.69996 4.19004 7.64996 4.28004 7.69996 4.33004C7.71996 4.34004 7.74996 4.34004 7.76996 4.33004C7.82996 4.27004 7.81996 4.16004 7.78996 4.07004C7.76996 4.00004 7.70996 3.92004 7.63996 3.89004C7.60996 3.87004 7.55996 3.86004 7.52996 3.88004C7.51996 3.90004 7.51996 3.93004 7.52996 3.95004Z" fill="white" />
  <path d="M7.02991 5.5903C7.02991 5.6103 7.03991 5.6203 7.04991 5.6403C7.05991 5.6603 7.08991 5.6803 7.10991 5.7003C7.12991 5.7203 7.15991 5.7303 7.17991 5.7503C7.30991 5.8303 7.40991 5.9503 7.50991 6.0703C7.63991 6.2303 7.74991 6.4103 7.90991 6.5303C8.02991 6.6103 8.16991 6.6603 8.30991 6.6803C8.47991 6.7003 8.64991 6.6703 8.80991 6.6203C8.95991 6.5803 9.10991 6.5103 9.23991 6.4303C9.49991 6.2703 9.70991 6.0403 9.98991 5.9403C10.0499 5.9203 10.1199 5.9003 10.1699 5.8703C10.2299 5.8403 10.2799 5.8003 10.3099 5.7403C10.3399 5.6803 10.3399 5.6203 10.3399 5.5603C10.3499 5.4903 10.3699 5.4303 10.3799 5.3603C10.3899 5.2903 10.3899 5.2203 10.3599 5.1603C10.3399 5.1103 10.2899 5.0703 10.2399 5.0403C10.1899 5.0103 10.1299 5.0003 10.0799 5.0003C9.96991 4.9903 9.85991 5.0203 9.74991 5.0303C9.59991 5.0403 9.44991 5.0203 9.30991 5.0303C9.12991 5.0403 8.94991 5.0803 8.75991 5.0903C8.54991 5.1003 8.33991 5.0703 8.12991 5.0603C8.03991 5.0603 7.94991 5.0603 7.85991 5.0703C7.76991 5.0903 7.67991 5.1203 7.60991 5.1703C7.53991 5.2203 7.47991 5.2903 7.40991 5.3503C7.37991 5.3803 7.33991 5.4103 7.29991 5.4203C7.25991 5.4403 7.21991 5.4503 7.16991 5.4503C7.14991 5.4503 7.11991 5.4503 7.09991 5.4503C7.08991 5.4503 7.06991 5.4603 7.05991 5.4703C7.04991 5.4803 7.03991 5.4903 7.02991 5.5003C7.05991 5.5303 7.03991 5.5603 7.02991 5.5903Z" fill="#BA9319" />
  <path d="M7.4899 5.13013C7.4199 5.17013 7.3399 5.22013 7.2699 5.27013C7.2299 5.30013 7.1999 5.32013 7.1799 5.36013C7.1699 5.39013 7.1599 5.42013 7.1599 5.45013C7.1599 5.48013 7.1599 5.51013 7.1599 5.54013C7.1599 5.56013 7.1499 5.58013 7.1499 5.60013C7.1499 5.61013 7.1499 5.62013 7.1499 5.63013C7.1499 5.64014 7.1599 5.65013 7.1699 5.66014C7.1799 5.67014 7.1899 5.68014 7.2099 5.68014C7.2199 5.68014 7.2399 5.69014 7.2499 5.69014C7.3199 5.71014 7.3699 5.75014 7.4199 5.79014C7.4699 5.83014 7.5099 5.89014 7.5699 5.93014C7.7099 6.04014 7.8999 6.09014 8.0799 6.09014C8.2599 6.09014 8.4399 6.06014 8.6199 6.02014C8.7599 5.99014 8.8999 5.96014 9.0299 5.91014C9.2399 5.83014 9.4299 5.72014 9.5899 5.58013C9.6599 5.51013 9.7399 5.44013 9.8199 5.39013C9.8899 5.34013 9.9799 5.31013 10.0499 5.27013C10.0599 5.27013 10.0599 5.26013 10.0699 5.26013C10.0799 5.25013 10.0799 5.25013 10.0799 5.24013C10.0899 5.23013 10.0899 5.21013 10.0799 5.20013C10.0799 5.19013 10.0699 5.18013 10.0599 5.16013C10.0499 5.15013 10.0399 5.14013 10.0299 5.13013C9.9499 5.06013 9.8399 5.04013 9.7399 5.03013C9.6399 5.02013 9.5299 5.03013 9.4299 5.01013C9.3299 4.99013 9.2399 4.96013 9.1499 4.93013C9.0499 4.90013 8.9499 4.87013 8.8499 4.86013C8.6099 4.82013 8.3699 4.83013 8.1299 4.88013C7.9099 4.93013 7.6899 5.01013 7.4899 5.13013Z" fill="#5F461B" />
  <path d="M7.46991 4.87997C7.35991 4.94997 7.26991 5.03998 7.18991 5.13998C7.13991 5.19998 7.09991 5.25998 7.07991 5.32998C7.05991 5.38998 7.05991 5.43998 7.03991 5.49998C7.03991 5.51998 7.02991 5.53998 7.02991 5.55998C7.02991 5.56998 7.02991 5.57998 7.02991 5.58998C7.02991 5.59998 7.03991 5.60998 7.04991 5.61998C7.05991 5.62998 7.07991 5.63998 7.09991 5.63998C7.11991 5.63998 7.13991 5.63998 7.14991 5.64998C7.22991 5.65998 7.30991 5.69998 7.36991 5.73998C7.42991 5.77998 7.49991 5.83998 7.56991 5.87998C7.71991 5.97998 7.89991 6.01998 8.07991 6.02998C8.25991 6.03998 8.43991 6.00998 8.60991 5.96998C8.74991 5.93998 8.88991 5.90998 9.01991 5.85998C9.21991 5.77998 9.40991 5.65998 9.57991 5.52998C9.65991 5.46998 9.73991 5.40998 9.80991 5.33998C9.82991 5.31998 9.85991 5.28998 9.87991 5.26998C9.90991 5.24998 9.92991 5.22998 9.96991 5.21998C10.0199 5.19998 10.0699 5.20998 10.1199 5.21998C10.1599 5.22998 10.1999 5.22998 10.2299 5.22998C10.2499 5.22998 10.2699 5.22998 10.2899 5.21998C10.3099 5.20998 10.3199 5.19998 10.3399 5.18998C10.3599 5.16998 10.3599 5.13998 10.3599 5.11998C10.3599 5.08998 10.3499 5.06997 10.3399 5.04997C10.3099 5.00997 10.2699 4.97997 10.2199 4.95997C10.1599 4.92997 10.0899 4.91997 10.0199 4.89997C9.80991 4.84997 9.60991 4.77997 9.41991 4.67997C9.31991 4.62997 9.22991 4.57997 9.13991 4.52997C9.03991 4.47997 8.94991 4.42997 8.83991 4.39997C8.60991 4.32997 8.34991 4.34997 8.11991 4.42997C7.87991 4.50997 7.63991 4.66997 7.46991 4.87997Z" fill="#F4C021" />
  <path d="M9.10999 4.92995C9.09999 4.90995 9.07999 4.89995 9.05999 4.89995C9.03999 4.89995 9.01999 4.88995 8.99999 4.89995C8.95999 4.90995 8.91999 4.92995 8.88999 4.94995C8.79999 5.01995 8.70999 5.09995 8.63999 5.17995C8.53999 5.29995 8.45999 5.42995 8.43999 5.57995C8.43999 5.60995 8.42999 5.62995 8.43999 5.65995C8.44999 5.68995 8.44999 5.70995 8.46999 5.72995C8.48999 5.74995 8.50999 5.75995 8.52999 5.75995C8.54999 5.75995 8.57999 5.75995 8.59999 5.74995C8.63999 5.73995 8.67999 5.70995 8.70999 5.67995C8.89999 5.50995 9.05999 5.31995 9.12999 5.07995C9.13999 5.05995 9.13999 5.02995 9.13999 5.00995C9.12999 4.96995 9.12999 4.94995 9.10999 4.92995Z" fill="#F6DA4A" />
  <path d="M8.67002 4.59019C8.68002 4.63019 8.75002 4.62019 8.79002 4.64019C8.82002 4.66019 8.85002 4.70019 8.89002 4.70019C8.93002 4.70019 8.98002 4.69019 8.99002 4.65019C9.00002 4.60019 8.93002 4.57019 8.88002 4.56019C8.82002 4.54019 8.75002 4.53019 8.70002 4.56019C8.68002 4.56019 8.66002 4.57019 8.67002 4.59019Z" fill="#5F461B" />
  <path d="M8.03001 4.55998C7.98001 4.53998 7.90001 4.62998 7.93001 4.67998C7.94001 4.68998 7.96001 4.70998 7.97001 4.69998C7.99001 4.68998 8.01001 4.63998 8.04001 4.62998C8.06001 4.60998 8.05001 4.56998 8.03001 4.55998Z" fill="#5F461B" />
  <path d="M10.3901 5.21026C10.3801 5.32026 10.3001 5.41026 10.2101 5.41026C10.1201 5.41026 10.0601 5.32026 10.0701 5.21026C10.0801 5.10025 10.1601 5.01025 10.2501 5.01025C10.3401 5.02025 10.4001 5.10025 10.3901 5.21026Z" fill="#F4C021" />
  <path d="M8.01992 3.57014C7.93992 3.56014 7.86992 3.54014 7.78992 3.53014C7.60992 3.52014 7.43992 3.54014 7.27992 3.63014C7.17992 3.69014 7.10992 3.77014 7.03992 3.86014C7.03992 3.77014 7.04992 3.68014 7.07992 3.60014C7.10992 3.50014 7.15992 3.42014 7.22992 3.35014C7.29992 3.28014 7.39992 3.23014 7.48992 3.23014C7.55992 3.22014 7.63992 3.24014 7.70992 3.27014C7.77992 3.30014 7.82992 3.35014 7.88992 3.40014C7.93992 3.46014 7.97992 3.51014 8.01992 3.57014Z" fill="#808080" />
  <path d="M12.54 8.94021C12.88 9.21021 13.09 9.62021 13.16 10.0502C13.21 10.3802 13.18 10.7302 13.1 11.0602C13.02 11.3902 12.91 11.7102 12.79 12.0302C12.74 12.1602 12.7 12.2802 12.68 12.4202C12.66 12.5502 12.67 12.6902 12.74 12.8102C12.81 12.9502 12.95 13.0402 13.1 13.0802C13.25 13.1202 13.4 13.1202 13.55 13.0902C13.7 13.0502 13.84 12.9802 13.96 12.8902C14.27 12.6502 14.45 12.2802 14.52 11.9002C14.59 11.5202 14.56 11.1302 14.49 10.7402C14.4 10.2202 14.25 9.7102 14.05 9.2202C13.91 8.8602 13.74 8.50021 13.51 8.19021C13.28 7.89021 12.99 7.6302 12.77 7.3202C12.61 7.1102 12.49 6.87021 12.3 6.68021C12.21 6.59021 12.1 6.5102 11.97 6.4602C11.84 6.4102 11.71 6.40021 11.58 6.43021C11.41 6.48021 11.28 6.6102 11.2 6.7702C11.13 6.9302 11.11 7.11021 11.14 7.28021C11.18 7.50021 11.28 7.71021 11.39 7.90021C11.52 8.12021 11.67 8.33021 11.86 8.49021C12.09 8.67021 12.34 8.78021 12.54 8.94021Z" fill="#050507" />
  <path d="M13.23 11.05C13.11 11.45 12.96 11.84 12.82 12.24C12.77 12.38 12.72 12.52 12.7 12.66C12.69 12.59 12.69 12.5 12.69 12.42C12.71 12.28 12.76 12.16 12.8 12.03C13.03 11.39 13.27 10.72 13.17 10.05C13.1 9.62004 12.89 9.21004 12.55 8.94004C12.37 8.79004 12.15 8.68004 11.96 8.54004C12.17 8.66004 12.39 8.75004 12.58 8.90004C12.94 9.16004 13.2 9.57004 13.27 10.01C13.32 10.35 13.34 10.65 13.23 11.05Z" fill="#838385" />
  <path d="M6.47991 8.1701C6.53991 8.2501 6.43991 8.5501 7.75991 8.3601C7.75991 8.3601 7.52991 8.3901 7.29991 8.4401C6.94991 8.5601 6.63991 8.6901 6.39991 8.8701C6.15991 9.0401 5.98991 9.2701 5.77991 9.4601C5.77991 9.4601 6.12991 8.8201 6.21991 8.6301C6.30991 8.4401 6.20991 8.4501 6.26991 8.1601C6.33991 7.8801 6.50991 7.6001 6.50991 7.6001C6.50991 7.6001 6.36991 8.0101 6.47991 8.1701Z" fill="#010101" fill-opacity="0.2588" />
  <path d="M10.71 8.1002C10.44 8.2902 10.29 8.2602 9.96001 8.3002C9.64001 8.3402 8.76001 8.3202 8.76001 8.3202C8.76001 8.3202 8.89001 8.3202 9.17001 8.3702C9.45001 8.4202 10.03 8.4702 10.35 8.6002C10.67 8.7202 10.79 8.7602 10.99 8.8802C11.27 9.0602 11.48 9.3302 11.74 9.5302C11.74 9.5302 11.75 9.2702 11.64 9.0802C11.53 8.8902 11.24 8.5802 11.16 8.3002C11.07 8.0202 11.03 7.46021 11.03 7.46021C11.03 7.46021 10.98 7.9102 10.71 8.1002Z" fill="#010101" fill-opacity="0.2588" />
  <path d="M8.18995 7.69995C8.17995 7.77995 8.16995 7.85995 8.14995 7.93995C8.13995 7.97995 8.12995 8.01995 8.11995 8.05995C8.10995 8.09995 8.07995 8.12995 8.04995 8.15995C8.01995 8.17995 7.98995 8.19995 7.95995 8.20995C7.83995 8.26995 7.69995 8.30995 7.56995 8.31995C7.61995 8.31995 7.67995 8.32995 7.72995 8.32995C7.75995 8.32995 7.79995 8.33995 7.82995 8.34995C7.85995 8.35995 7.89995 8.36995 7.91995 8.38995C7.94995 8.40995 7.96995 8.43995 7.98995 8.47995C8.02995 8.54995 8.03995 8.61995 8.03995 8.69995C8.04995 8.79995 8.04995 8.88995 8.03995 8.98995C8.04995 8.92995 8.05995 8.85995 8.07995 8.79995C8.11995 8.68995 8.16995 8.58995 8.24995 8.49995C8.27995 8.46995 8.31995 8.43995 8.34995 8.40995C8.46995 8.32995 8.60995 8.28995 8.74995 8.30995C8.60995 8.31995 8.45995 8.26995 8.34995 8.18995C8.28995 8.14995 8.23995 8.08995 8.20995 8.02995C8.17995 7.92995 8.15995 7.80995 8.18995 7.69995Z" fill="#010101" fill-opacity="0.2588" />
  <path d="M7.84993 9.59009C7.77993 9.85009 7.72993 10.1101 7.70993 10.3801C7.66993 10.7601 7.67993 11.1401 7.65993 11.5201C7.63993 11.8401 7.60993 12.1701 7.65993 12.4801C7.68993 12.6301 7.72993 12.7801 7.79993 12.9201C7.80993 12.8701 7.81993 12.8101 7.81993 12.7601C7.83993 12.5001 7.79993 12.2401 7.78993 11.9901C7.75993 11.5401 7.82993 11.0901 7.84993 10.6301C7.86993 10.2801 7.86993 9.94009 7.84993 9.59009Z" fill="#010101" fill-opacity="0.2588" />
  <path d="M15.88 14.8301C15.85 14.7701 15.8 14.7201 15.75 14.6701C15.7 14.6301 15.64 14.5901 15.59 14.5501C15.47 14.4601 15.37 14.3701 15.26 14.2701C15.15 14.1701 15.04 14.0701 14.96 13.9601C14.87 13.8401 14.8 13.7101 14.78 13.5701C14.77 13.5301 14.78 13.5001 14.77 13.4601C14.76 13.4301 14.74 13.3901 14.73 13.3601C14.71 13.2701 14.71 13.1801 14.71 13.1001C14.71 13.0501 14.69 13.0101 14.68 12.9701C14.66 12.9301 14.64 12.8801 14.61 12.8401C14.55 12.7801 14.47 12.7301 14.39 12.7001C14.31 12.6701 14.22 12.6501 14.14 12.6501C13.93 12.6401 13.72 12.7101 13.51 12.7201C13.31 12.7401 13.12 12.7001 12.93 12.6501C12.82 12.6201 12.71 12.5701 12.6 12.5401C12.42 12.4901 12.24 12.4601 12.06 12.4201C11.98 12.4101 11.9 12.3901 11.83 12.3901C11.75 12.3901 11.67 12.4101 11.61 12.4601C11.54 12.5101 11.51 12.6001 11.49 12.6801C11.47 12.7601 11.48 12.8501 11.48 12.9401C11.5 13.4501 11.48 13.9601 11.41 14.4601C11.38 14.6401 11.34 14.8201 11.31 15.0001C11.3 15.0701 11.29 15.1401 11.28 15.2101C11.22 15.5401 11.16 15.8801 11.16 16.2101C11.16 16.4001 11.18 16.6001 11.28 16.7601C11.38 16.9201 11.55 17.0301 11.72 17.1101C11.97 17.2201 12.25 17.2701 12.51 17.2301C12.73 17.2001 12.94 17.1001 13.12 16.9701C13.3 16.8401 13.45 16.6801 13.61 16.5301C13.8 16.3501 14 16.1901 14.21 16.0401C14.53 15.8301 14.89 15.6801 15.23 15.5001C15.43 15.4001 15.63 15.2801 15.78 15.1101C15.84 15.0401 15.88 14.9701 15.91 14.8901C15.89 14.8701 15.89 14.8501 15.88 14.8301Z" fill="#050507" />
  <path d="M15.7499 14.6701C15.7199 14.7601 15.6699 14.8401 15.6099 14.9101C15.4799 15.0701 15.2899 15.1701 15.1099 15.2601C14.7999 15.4201 14.4699 15.5501 14.1799 15.7401C13.9799 15.8701 13.7999 16.0201 13.6299 16.1801C13.4799 16.3201 13.3499 16.4601 13.1799 16.5801C13.0099 16.7001 12.8199 16.7801 12.6199 16.8101C12.3799 16.8501 12.1199 16.8001 11.8999 16.7001C11.7399 16.6301 11.5899 16.5401 11.4999 16.3901C11.4099 16.2401 11.3899 16.0701 11.3899 15.9001C11.3899 15.6001 11.4499 15.3001 11.4999 15.0001C11.5399 14.7501 11.5899 14.5001 11.6099 14.2501C11.6599 13.7901 11.6599 13.3301 11.6299 12.8801C11.6199 12.8001 11.6199 12.7301 11.6299 12.6501C11.6399 12.5701 11.6699 12.5001 11.7299 12.4501C11.7799 12.4001 11.8599 12.3801 11.9299 12.3801C11.9999 12.3801 12.0699 12.3901 12.1399 12.4001C12.3099 12.4201 12.4799 12.4401 12.6399 12.4901C12.7399 12.5201 12.8399 12.5501 12.9499 12.5801C13.1199 12.6301 13.2999 12.6501 13.4799 12.6301C13.6699 12.6101 13.8599 12.5401 14.0499 12.5401C14.1299 12.5401 14.2099 12.5601 14.2799 12.5801C14.3599 12.6001 14.4299 12.6401 14.4899 12.6901C14.5299 12.7301 14.5599 12.7901 14.5899 12.8401C14.6199 12.9201 14.6499 13.0101 14.6499 13.1001C14.6499 13.1901 14.6299 13.2901 14.6399 13.3801C14.6499 13.4601 14.6799 13.5301 14.7199 13.5901C14.7599 13.6501 14.8099 13.7101 14.8599 13.7701C14.9599 13.8801 15.0499 14.0001 15.1699 14.0801C15.3099 14.1801 15.4699 14.2401 15.6099 14.3301C15.6499 14.3601 15.6899 14.3901 15.7199 14.4301C15.7599 14.5001 15.7799 14.5901 15.7499 14.6701Z" fill="#F4C021" />
  <path opacity="0.75" d="M12.37 9.21017C12.44 9.20017 12.84 9.55017 12.79 9.67017C12.73 9.80016 12.63 9.72017 12.56 9.72017C12.49 9.72017 12.28 9.81016 12.25 9.76016C12.22 9.71017 12.34 9.56017 12.41 9.45017C12.45 9.36017 12.3 9.22017 12.37 9.21017Z" fill="#7D7D7D" />
  <path opacity="0.25" d="M6.63001 7.03013C6.62001 6.95013 6.51001 6.94013 6.46001 6.98013C6.42001 7.01013 6.38001 7.13013 6.41001 7.17013C6.48001 7.25013 6.64001 7.14013 6.63001 7.03013Z" fill="#7D7D7D" />
  <path d="M14.0099 12.8402C13.9799 12.7802 13.9199 12.7302 13.8599 12.7102C13.7999 12.6802 13.7299 12.6802 13.6599 12.6802C13.5199 12.6802 13.3899 12.7202 13.2499 12.7002C13.1299 12.6902 13.0199 12.6502 12.9099 12.6202C12.7899 12.5902 12.6699 12.5802 12.5499 12.6102C12.4299 12.6402 12.3199 12.7302 12.2499 12.8302C12.1899 12.9302 12.1599 13.0402 12.1499 13.1502C12.1399 13.2602 12.1499 13.3802 12.1599 13.4902C12.1699 13.5702 12.1799 13.6502 12.1999 13.7302C12.2199 13.8102 12.2499 13.8902 12.2999 13.9502C12.3699 14.0502 12.4699 14.1102 12.5799 14.1502C12.7599 14.2202 12.9599 14.2102 13.1399 14.1402C13.4499 14.0002 13.7199 13.7602 13.8799 13.4602C13.9399 13.3502 13.9799 13.2402 14.0099 13.1202C14.0199 13.0702 14.0299 13.0202 14.0299 12.9802C14.0399 12.9302 14.0299 12.8802 14.0099 12.8402Z" fill="#BA9319" />
  <path d="M14.0099 12.7703C13.9799 12.7303 13.9199 12.6903 13.8599 12.6703C13.7999 12.6503 13.7299 12.6403 13.6599 12.6503C13.5199 12.6503 13.3899 12.6803 13.2499 12.6703C13.1299 12.6603 13.0199 12.6303 12.9099 12.6103C12.7899 12.5903 12.6699 12.5803 12.5499 12.6003C12.4299 12.6203 12.3199 12.6803 12.2499 12.7603C12.1899 12.8303 12.1599 12.9103 12.1499 12.9903C12.1399 13.0703 12.1499 13.1503 12.1599 13.2303C12.1699 13.2903 12.1799 13.3503 12.1999 13.4003C12.2199 13.4603 12.2499 13.5103 12.2999 13.5603C12.3699 13.6303 12.4699 13.6803 12.5799 13.7103C12.7599 13.7603 12.9599 13.7603 13.1399 13.7003C13.4499 13.6003 13.7199 13.4203 13.8799 13.2103C13.9399 13.1303 13.9799 13.0503 14.0099 12.9603C14.0199 12.9303 14.0299 12.8903 14.0299 12.8603C14.0399 12.8403 14.0299 12.8003 14.0099 12.7703Z" fill="#BA9319" />
  <path d="M14.2599 12.2702C14.2899 12.3402 14.2899 12.4302 14.2699 12.5202C14.2399 12.6202 14.1899 12.7302 14.1199 12.8102C13.9299 13.0902 13.6499 13.3002 13.3299 13.4102C13.1399 13.4802 12.9299 13.4802 12.7299 13.4202C12.6199 13.3802 12.5099 13.3302 12.4299 13.2402C12.3299 13.1302 12.2999 12.9802 12.2799 12.8302C12.2699 12.6402 12.2899 12.4302 12.3799 12.2602C12.4199 12.1602 12.4899 12.0602 12.5699 11.9902C12.6499 11.9202 12.7499 11.8602 12.8599 11.8302C12.9799 11.8102 13.1199 11.8202 13.2399 11.8402C13.3599 11.8602 13.4799 11.8902 13.5999 11.9102C13.7199 11.9302 13.8599 11.9502 13.9799 12.0102C14.0399 12.0302 14.0999 12.0702 14.1399 12.1102C14.2099 12.1502 14.2399 12.2002 14.2599 12.2702Z" fill="#050507" />
  <path d="M12.94 11.77C12.91 11.77 12.88 11.78 12.85 11.78C12.66 11.81 12.48 11.94 12.38 12.1C12.31 12.22 12.28 12.36 12.29 12.5C12.29 12.4 12.32 12.31 12.37 12.22C12.45 12.08 12.59 11.97 12.75 11.94C12.85 11.92 12.95 11.93 13.05 11.95C13.15 11.96 13.24 11.97 13.34 12C13.49 12.03 13.63 12.08 13.75 12.17C13.78 12.19 13.81 12.21 13.83 12.24C13.85 12.27 13.87 12.3 13.88 12.33C13.89 12.38 13.88 12.43 13.85 12.48C13.82 12.52 13.79 12.56 13.75 12.6C13.72 12.63 13.69 12.66 13.66 12.68C13.8 12.65 13.95 12.61 14.06 12.53C14.11 12.5 14.16 12.45 14.18 12.4C14.21 12.35 14.22 12.28 14.21 12.22C14.2 12.18 14.18 12.14 14.15 12.11C14.12 12.08 14.09 12.05 14.06 12.03C13.91 11.93 13.74 11.86 13.56 11.84C13.44 11.82 13.33 11.8 13.21 11.79C13.12 11.78 13.03 11.77 12.94 11.77Z" fill="#838385" />
  <path d="M6.63003 6.67017C6.48003 6.86017 6.32003 7.06017 6.17003 7.25017C6.01003 7.45017 5.85003 7.65017 5.69003 7.85017C5.49003 8.09017 5.29003 8.34017 5.17003 8.62017C5.06003 8.86017 5.01003 9.13017 4.93003 9.39017C4.84003 9.68017 4.73003 9.97017 4.60003 10.2402C4.48003 10.4902 4.35003 10.7402 4.22003 10.9902C4.12003 11.1702 4.03003 11.3602 3.99003 11.5602C3.96003 11.7202 3.98003 11.8802 4.02003 12.0402C4.06003 12.2002 4.13003 12.3502 4.20003 12.4902C4.51003 13.1002 4.99003 13.6302 5.54003 14.0402C5.79003 14.2202 6.07003 14.3802 6.35003 14.5102C6.50003 14.5802 6.67003 14.6402 6.84003 14.6502C6.92003 14.6502 7.01003 14.6402 7.09003 14.6002C7.17003 14.5702 7.24003 14.5102 7.28003 14.4402C7.34003 14.3502 7.36003 14.2402 7.34003 14.1402C7.33003 14.0402 7.29003 13.9402 7.23003 13.8502C7.10003 13.6302 6.89003 13.4702 6.69003 13.3202C6.26003 12.9802 5.83003 12.6302 5.43003 12.2502C5.32003 12.1402 5.20003 12.0302 5.12003 11.9002C5.04003 11.7702 5.00003 11.6202 4.97003 11.4702C4.89003 11.0602 4.91003 10.6302 5.05003 10.2402C5.10003 10.0902 5.18003 9.94017 5.25003 9.79017C5.37003 9.54017 5.48003 9.28017 5.64003 9.04017C5.84003 8.75017 6.10003 8.50017 6.26003 8.19017C6.40003 7.93017 6.45003 7.63017 6.50003 7.34017C6.55003 7.12017 6.59003 6.90017 6.63003 6.67017Z" fill="#050507" />
  <path d="M5.06 10.24C4.92 10.63 4.9 11.06 4.98 11.47C5.01 11.62 5.05 11.77 5.13 11.9C5.21 12.03 5.32 12.14 5.44 12.25C5.45 12.26 5.48 12.28 5.49 12.29H5.47C5.39 12.28 5.31 12.24 5.24 12.19C5.17 12.14 5.12 12.07 5.08 12C5.02 11.91 4.98 11.82 4.92 11.74C4.85 11.64 4.74 11.56 4.63 11.53C4.72 11.49 4.79 11.43 4.84 11.35C4.9 11.25 4.91 11.14 4.91 11.03C4.9 10.92 4.89 10.81 4.9 10.7C4.91 10.49 5 10.29 5.08 10.09C5.18 9.82004 5.27 9.54004 5.42 9.30004C5.52 9.15004 5.63 9.01004 5.75 8.89004C5.76 8.86004 5.79 8.83004 5.82 8.82004C5.84 8.81004 5.86 8.79004 5.89 8.79004C5.82 8.88004 5.74 8.97004 5.68 9.07004C5.52 9.30004 5.41 9.56004 5.29 9.81004C5.18 9.94004 5.11 10.09 5.06 10.24Z" fill="#838385" />
  <path d="M4.45998 11.86C4.54998 11.83 4.64998 11.82 4.73998 11.84C4.82998 11.86 4.91998 11.9 4.99998 11.96C5.14998 12.07 5.26998 12.24 5.36998 12.39C5.61998 12.76 5.84998 13.13 6.05998 13.52C6.22998 13.83 6.38998 14.16 6.58998 14.45C6.71998 14.64 6.86998 14.82 6.99998 15.02C7.12998 15.21 7.24998 15.42 7.29998 15.65C7.36998 15.95 7.32998 16.27 7.17998 16.53C7.07998 16.72 6.91998 16.87 6.72998 16.98C6.53998 17.08 6.32998 17.13 6.10998 17.12C5.76998 17.09 5.46998 16.91 5.15998 16.78C4.52998 16.5 3.82998 16.39 3.17998 16.17C2.97997 16.1 2.77997 16.02 2.57997 15.96C2.48997 15.93 2.39997 15.91 2.30997 15.86C2.22997 15.82 2.14997 15.76 2.09997 15.67C2.06997 15.61 2.04997 15.53 2.05997 15.46C2.06997 15.39 2.07997 15.32 2.10997 15.25C2.15997 15.11 2.24997 14.99 2.30997 14.86C2.40997 14.64 2.42997 14.4 2.42997 14.16C2.42997 13.92 2.39997 13.68 2.38997 13.45C2.38997 13.34 2.38997 13.24 2.40997 13.13C2.42997 13.03 2.47997 12.93 2.55997 12.85C2.62997 12.78 2.72997 12.75 2.82997 12.73C2.92997 12.71 3.02998 12.72 3.11998 12.72C3.21998 12.73 3.31998 12.73 3.40998 12.73C3.50998 12.73 3.60998 12.71 3.68998 12.66C3.76998 12.62 3.83998 12.55 3.89998 12.48C3.95998 12.41 3.99998 12.33 4.04998 12.25C4.09998 12.17 4.14998 12.09 4.20998 12.02C4.26998 11.95 4.36998 11.89 4.45998 11.86Z" fill="#050507" />
  <path d="M4.49995 12.1801C4.57995 12.1501 4.66995 12.1401 4.75995 12.1601C4.83995 12.1801 4.91995 12.2201 4.98995 12.2701C5.12995 12.3801 5.21995 12.5301 5.30995 12.6701C5.52995 13.0301 5.74995 13.3901 5.94995 13.7601C6.09995 14.0401 6.24995 14.3201 6.43995 14.5701C6.56995 14.7401 6.70995 14.8901 6.83995 15.0601C6.96995 15.2301 7.07995 15.4101 7.13995 15.6101C7.20995 15.8701 7.17995 16.1601 7.05995 16.4001C6.96995 16.5701 6.82995 16.7201 6.65995 16.8201C6.48995 16.9201 6.29995 16.9701 6.09995 16.9601C5.78995 16.9501 5.50995 16.7901 5.20995 16.6901C4.64995 16.4901 4.03995 16.4601 3.46995 16.3001C3.25995 16.2401 3.05995 16.1701 2.85995 16.1201C2.76995 16.1001 2.67995 16.0801 2.58995 16.0401C2.49995 16.0001 2.41995 15.9501 2.36995 15.8601C2.32995 15.8001 2.31995 15.7301 2.31995 15.6601C2.31995 15.5901 2.33995 15.5201 2.35995 15.4601C2.40995 15.3301 2.48995 15.2101 2.53995 15.0801C2.61995 14.8801 2.62995 14.6601 2.60995 14.4501C2.59995 14.2401 2.55995 14.0301 2.54995 13.8201C2.53995 13.7301 2.53995 13.6301 2.55995 13.5401C2.57995 13.4501 2.61995 13.3601 2.68995 13.2901C2.75995 13.2201 2.85995 13.1801 2.96995 13.1601C3.06995 13.1401 3.17995 13.1501 3.27995 13.1601C3.37995 13.1701 3.48995 13.1801 3.58995 13.1701C3.68995 13.1601 3.79995 13.1401 3.87995 13.0801C3.95995 13.0301 4.01995 12.9501 4.05995 12.8701C4.09995 12.7901 4.13995 12.7001 4.16995 12.6101C4.19995 12.5201 4.23995 12.4401 4.28995 12.3601C4.33995 12.2801 4.40995 12.2101 4.49995 12.1801Z" fill="#F4C021" />
  <defs>
    <radialGradient id="paint0_radial_2214_210" cx="0" cy="0" r="1" gradientUnits="userSpaceOnUse" gradientTransform="translate(7.63154 4.06857) rotate(-2.41007) scale(0.65953 1.00887)">
      <stop stop-color="#FFFFFD" />
      <stop offset="0.7573" stop-color="#FFFFFD" />
      <stop offset="1" stop-color="#D4D4D4" />
    </radialGradient>
    <radialGradient id="paint1_radial_2214_210" cx="0" cy="0" r="1" gradientUnits="userSpaceOnUse" gradientTransform="translate(9.6624 4.1) scale(0.954392)">
      <stop stop-color="#FFFFFD" />
      <stop offset="0.7573" stop-color="#FFFFFD" />
      <stop offset="1" stop-color="#D4D4D4" />
    </radialGradient>
  </defs>
</svg>
