<svg width="18" height="18" viewBox="0 0 18 18" xmlns="http://www.w3.org/2000/svg">
  <path d="M6.75 7.5C6.61 7.5 6.5 7.61 6.5 7.75V10.25C6.5 10.39 6.61 10.5 6.75 10.5C6.89 10.5 7 10.39 7 10.25V7.75C7 7.61 6.89 7.5 6.75 7.5ZM11.77 2H6.23C3.89 2 2 3.89 2 6.23V11.77C2 14.1 3.89 16 6.23 16H11.77C14.11 16 16 14.11 16 11.77V6.23C16 3.89 14.11 2 11.77 2ZM8.5 10.25C8.5 11.22 7.72 12 6.75 12C5.78 12 5 11.22 5 10.25V7.75C5 6.78 5.78 6 6.75 6C7.72 6 8.5 6.78 8.5 7.75V10.25ZM13 8.1H11.5V7.75C11.5 7.61 11.39 7.5 11.25 7.5C11.11 7.5 11 7.61 11 7.75V7.78C11 7.86 11.04 7.94 11.11 7.99L12.26 8.79C12.73 9.12 13.01 9.65 13.01 10.22V10.25C13.01 11.21 12.22 12 11.26 12C10.3 12 9.5 11.21 9.5 10.25V9.9H11V10.25C11 10.39 11.11 10.5 11.25 10.5C11.39 10.5 11.5 10.39 11.5 10.25V10.22C11.5 10.14 11.46 10.06 11.39 10.01L10.24 9.21C9.77 8.88 9.49 8.35 9.49 7.78V7.75C9.49 6.79 10.28 6 11.24 6C12.2 6 13 6.79 13 7.75V8.1Z" />
</svg>
