<svg width="18" height="18" viewBox="0 0 18 18" xmlns="http://www.w3.org/2000/svg">
  <path d="M13.9599 8.0901C14.2799 6.2401 12.5999 5.6001 12.5999 5.6001C13.9599 5.2801 14.9999 3.0301 14.5999 1.7401C14.5999 1.7401 14.7599 1.5001 12.8399 1.1001C10.9199 0.700096 8.99991 1.5801 8.99991 2.8601C8.99991 1.5801 7.07991 0.700096 5.15991 1.1001C3.23991 1.5001 3.39991 1.7401 3.39991 1.7401C2.99991 3.0301 4.03991 5.2701 5.39991 5.6001C5.39991 5.6001 3.71991 6.2401 4.03991 8.0901C4.03991 8.0901 1.79991 9.5401 3.39991 11.9501C3.39991 11.9501 3.47991 12.7501 3.79991 13.1501C3.79991 13.1501 4.03991 14.8401 5.47991 15.1601C5.47991 15.1601 5.95991 15.9601 6.91991 16.0401C6.91991 16.0401 7.63991 17.0001 8.99991 17.0001C10.3599 17.0001 11.0799 16.0401 11.0799 16.0401C12.0399 15.9601 12.5199 15.1601 12.5199 15.1601C13.9599 14.8401 14.1999 13.1501 14.1999 13.1501C14.5199 12.7501 14.5999 11.9501 14.5999 11.9501C16.1999 9.5301 13.9599 8.0901 13.9599 8.0901ZM12.8599 6.3201C13.4499 6.8501 13.6999 7.5701 13.5199 8.0901C13.0699 7.9201 12.5799 7.6201 12.1099 7.2001C11.6299 6.7801 11.2699 6.3101 11.0499 5.8701C11.5399 5.6301 12.2799 5.8001 12.8599 6.3201ZM9.71991 2.3001C10.3599 1.6601 11.1599 1.5001 11.8799 1.5801C12.5999 1.6601 13.7999 2.0601 14.2799 1.9801C14.0399 2.3801 13.8799 2.8601 13.8799 3.3501C13.8799 3.8401 13.0799 5.0401 12.1199 5.2801C11.2799 5.4901 10.4499 5.2701 10.0899 4.5701C10.0899 4.5601 10.0999 4.5601 10.0999 4.5501C10.1999 4.4301 10.3099 4.3201 10.4199 4.2101C10.6499 3.9901 10.8999 3.7801 11.1599 3.5901C11.6799 3.2001 12.2499 2.8701 12.8499 2.5901L12.8199 2.5201C12.1899 2.7301 11.5799 3.0101 10.9999 3.3501C10.7099 3.5201 10.4299 3.7001 10.1599 3.9101C10.0499 4.0001 9.94991 4.0801 9.83991 4.1801C9.35991 3.8401 9.12991 2.9001 9.71991 2.3001ZM10.6499 6.4401C10.5199 7.0101 9.82991 7.4401 8.99991 7.4401C8.16991 7.4401 7.47991 7.0101 7.34991 6.4401C7.47991 5.8701 8.16991 5.4401 8.99991 5.4401C9.82991 5.4401 10.5199 5.8701 10.6499 6.4401ZM10.6799 12.6601C10.6799 13.5901 9.92991 14.3501 8.99991 14.3501C8.06991 14.3501 7.31991 13.5901 7.31991 12.6601C7.31991 11.7301 8.06991 10.9701 8.99991 10.9701C9.92991 10.9701 10.6799 11.7301 10.6799 12.6601ZM4.11991 3.3501C4.11991 2.8701 3.95991 2.3901 3.71991 1.9801C4.19991 2.0601 5.39991 1.6601 6.11991 1.5801C6.83991 1.5001 7.63991 1.6601 8.27991 2.3001C8.86991 2.9001 8.63991 3.8401 8.15991 4.1601C8.05991 4.0701 7.94991 3.9801 7.83991 3.8901C7.56991 3.6801 7.28991 3.5001 6.99991 3.3301C6.41991 3.0001 5.79991 2.7201 5.16991 2.5101L5.13991 2.5801C5.73991 2.8601 6.29991 3.1901 6.82991 3.5801C7.08991 3.7701 7.33991 3.9801 7.56991 4.2001C7.68991 4.3101 7.78991 4.4301 7.88991 4.5401C7.88991 4.5501 7.89991 4.5501 7.89991 4.5601C7.53991 5.2601 6.69991 5.4801 5.86991 5.2701C4.91991 5.0301 4.11991 3.8301 4.11991 3.3501ZM5.13991 6.3201C5.72991 5.8001 6.46991 5.6301 6.94991 5.8701C6.72991 6.3001 6.36991 6.7701 5.88991 7.2001C5.41991 7.6101 4.92991 7.9201 4.47991 8.0901C4.28991 7.5701 4.53991 6.8501 5.13991 6.3201ZM4.01991 11.6801C3.99991 11.6801 3.98991 11.6801 3.96991 11.6801C3.52991 11.6401 3.23991 10.9001 3.32991 10.0401C3.41991 9.18009 3.83991 8.52009 4.27991 8.56009C4.33991 8.5701 4.39991 8.5901 4.45991 8.62009C4.64991 8.95009 4.73991 9.50009 4.67991 10.1201C4.60991 10.8501 4.33991 11.4601 4.01991 11.6801ZM6.45991 14.8301C5.88991 14.9401 5.02991 14.3601 4.53991 13.5401C4.04991 12.7101 4.10991 11.9601 4.66991 11.8401C5.23991 11.7301 6.09991 12.3101 6.58991 13.1301C7.07991 13.9601 7.01991 14.7201 6.45991 14.8301ZM6.53991 11.2401C5.62991 11.2001 5.05991 10.3401 5.27991 9.3201C5.49991 8.3001 6.40991 7.5101 7.31991 7.5601C8.22991 7.6001 8.79991 8.4601 8.57991 9.48009C8.35991 10.4901 7.44991 11.2801 6.53991 11.2401ZM8.99991 16.5201C8.16991 16.5201 7.46991 16.0201 7.23991 15.3301C7.68991 15.0201 8.30991 14.8301 8.99991 14.8301C9.68991 14.8301 10.3099 15.0201 10.7599 15.3301C10.5299 16.0201 9.82991 16.5201 8.99991 16.5201ZM9.41991 9.47009C9.19991 8.46009 9.76991 7.6001 10.6799 7.5601C11.5899 7.52009 12.5099 8.31009 12.7199 9.3201C12.9399 10.3401 12.3699 11.2001 11.4599 11.2401C10.5499 11.2801 9.63991 10.4901 9.41991 9.47009ZM13.4599 13.5401C12.9699 14.3701 12.1099 14.9401 11.5399 14.8301C10.9699 14.7201 10.9099 13.9601 11.4099 13.1301C11.8999 12.3001 12.7599 11.7301 13.3299 11.8401C13.8999 11.9501 13.9599 12.7101 13.4599 13.5401ZM14.0299 11.6801C14.0099 11.6801 13.9999 11.6801 13.9799 11.6801C13.6599 11.4501 13.3899 10.8501 13.3199 10.1201C13.2599 9.51009 13.3499 8.95009 13.5399 8.62009C13.5999 8.5901 13.6599 8.5701 13.7199 8.56009C14.1599 8.52009 14.5899 9.18009 14.6699 10.0401C14.7599 10.9101 14.4699 11.6401 14.0299 11.6801Z" />
</svg>
