<svg width="18" height="18" viewBox="0 0 18 18" xmlns="http://www.w3.org/2000/svg">
  <path d="M14.41 8.96019L14.22 8.16019C14.24 8.25019 14.25 8.33019 14.25 8.42019C14.25 8.33019 14.24 8.25019 14.22 8.17019L13.59 5.45019C13.45 4.85019 13.32 4.58019 12.27 4.05019C11.46 3.63019 9.68 2.94019 9.15 2.94019C8.66 2.94019 8.52 3.57019 7.94 3.57019C7.38 3.57019 6.96 3.10019 6.44 3.10019C5.94 3.10019 5.61 3.44019 5.35 4.15019C5.35 4.15019 4.64 6.14019 4.55 6.43019V6.44019L4.24 7.20019C2.83 7.28019 1 7.53019 1 9.14019C1 11.7902 7.27 15.0502 12.23 15.0502C16.04 15.0502 17 13.3302 17 11.9702C17 10.9002 16.08 9.69019 14.41 8.96019ZM4.54 6.54019C4.54 6.56019 4.54 6.58019 4.54 6.60019C4.54 6.61019 4.54 6.61019 4.54 6.62019C4.54 6.61019 4.54 6.61019 4.54 6.60019C4.53 6.58019 4.53 6.56019 4.54 6.54019ZM11.49 11.6502C7.56 11.6502 4.12 9.35019 4.12 7.83019C4.12 7.82019 4.12 7.80019 4.12 7.79019C4.25 7.48019 4.42 7.08019 4.57 6.76019C4.57 6.75019 4.57 6.75019 4.57 6.74019C4.57 6.75019 4.58 6.76019 4.58 6.77019C4.59 6.79019 4.6 6.81019 4.61 6.83019C4.61 6.84019 4.62 6.85019 4.62 6.86019C4.63 6.88019 4.64 6.90019 4.66 6.93019C4.67 6.94019 4.67 6.95019 4.68 6.96019C4.69 6.98019 4.71 7.01019 4.73 7.03019C4.74 7.04019 4.75 7.06019 4.76 7.07019C4.78 7.09019 4.79 7.12019 4.81 7.14019C4.82 7.15019 4.83 7.17019 4.84 7.18019C4.86 7.20019 4.87 7.22019 4.89 7.24019C4.91 7.26019 4.93 7.28019 4.94 7.30019C4.96 7.32019 4.97 7.34019 4.99 7.35019C5.01 7.37019 5.03 7.40019 5.06 7.42019C5.08 7.44019 5.1 7.46019 5.11 7.47019C5.13 7.49019 5.16 7.52019 5.18 7.54019C5.2 7.56019 5.22 7.58019 5.24 7.60019C5.26 7.62019 5.29 7.64019 5.32 7.67019C5.34 7.69019 5.37 7.71019 5.39 7.73019C5.41 7.75019 5.43 7.77019 5.45 7.78019C5.48 7.81019 5.52 7.83019 5.55 7.86019C5.57 7.88019 5.59 7.90019 5.62 7.91019C5.66 7.94019 5.69 7.96019 5.73 7.99019C5.75 8.01019 5.78 8.02019 5.8 8.04019C5.84 8.07019 5.88 8.10019 5.92 8.12019C5.94 8.14019 5.97 8.15019 5.99 8.17019C6.03 8.20019 6.07 8.22019 6.11 8.25019C6.14 8.27019 6.17 8.29019 6.19 8.30019C6.23 8.32019 6.27 8.35019 6.3 8.37019C6.33 8.39019 6.36 8.41019 6.4 8.43019C6.44 8.45019 6.48 8.48019 6.52 8.50019C6.55 8.52019 6.58 8.54019 6.62 8.56019C6.66 8.59019 6.71 8.61019 6.75 8.64019C6.78 8.65019 6.8 8.67019 6.83 8.68019C6.88 8.71019 6.94 8.74019 6.99 8.76019C7.01 8.77019 7.04 8.78019 7.06 8.80019C7.12 8.83019 7.18 8.86019 7.24 8.89019C7.26 8.90019 7.29 8.91019 7.31 8.92019C7.37 8.95019 7.44 8.98019 7.5 9.01019C7.52 9.02019 7.55 9.03019 7.57 9.04019C7.64 9.07019 7.7 9.10019 7.77 9.13019C7.79 9.14019 7.82 9.15019 7.84 9.16019C7.91 9.19019 7.98 9.22019 8.06 9.24019C8.08 9.25019 8.1 9.26019 8.12 9.26019C8.2 9.29019 8.27 9.32019 8.35 9.34019C8.37 9.35019 8.39 9.35019 8.4 9.36019C8.48 9.39019 8.56 9.41019 8.64 9.44019C8.65 9.44019 8.67 9.45019 8.68 9.45019C8.76 9.48019 8.85 9.50019 8.93 9.52019C8.94 9.52019 8.95 9.53019 8.97 9.53019C9.06 9.55019 9.15 9.58019 9.24 9.60019C9.26 9.60019 9.27 9.61019 9.29 9.61019C9.38 9.63019 9.47 9.65019 9.56 9.67019C9.58 9.67019 9.59 9.68019 9.61 9.68019C9.7 9.70019 9.79 9.72019 9.89 9.73019C9.91 9.73019 9.93 9.74019 9.94 9.74019C10.03 9.76019 10.13 9.77019 10.22 9.78019C10.24 9.78019 10.25 9.78019 10.27 9.79019C10.37 9.80019 10.46 9.82019 10.56 9.83019C10.58 9.83019 10.59 9.83019 10.61 9.83019C10.71 9.84019 10.81 9.85019 10.91 9.86019C10.92 9.86019 10.94 9.86019 10.95 9.86019C11.06 9.87019 11.16 9.87019 11.27 9.88019C11.28 9.88019 11.29 9.88019 11.29 9.88019C11.4 9.88019 11.52 9.89019 11.63 9.89019C12.61 9.89019 14 9.70019 14.18 8.66019C14.28 9.10019 14.4 9.60019 14.48 10.0702C14.33 11.1002 13.08 11.6502 11.49 11.6502Z" />
</svg>
