<svg width="18" height="18" viewBox="0 0 18 18" xmlns="http://www.w3.org/2000/svg">
  <path d="M16.83 8.24003C16.84 8.24003 16.85 8.23003 16.86 8.23003C16.99 8.19003 17.63 8.03003 17.54 7.78003L17.07 6.52003C17.07 6.52003 16.91 5.97003 16.2 5.73003C15.49 5.49003 13.68 4.94003 13.13 4.94003V5.57003C13.13 5.57003 11.24 4.78003 8.25005 4.78003C5.26005 4.78003 2.66005 6.28003 1.40005 7.85003C0.140045 9.42003 0.390045 10.85 0.700045 11.48C1.01005 12.11 1.80005 13.21 3.30005 13.21C4.80005 13.21 5.58005 12.19 5.58005 11.56C5.58005 10.86 5.35005 10.05 4.74005 9.64003C4.09005 9.22003 3.16005 9.18003 2.59005 9.75003C1.91005 10.43 2.29005 11.76 3.35005 11.73C3.63005 11.72 4.08004 11.59 4.08004 11.25C4.08004 10.94 3.92005 10.86 3.69005 10.94C3.45005 11.02 3.38005 11.02 3.22005 10.94C2.97005 10.81 2.92005 10.44 3.12005 10.25C3.38005 10.01 3.81005 10.05 4.08004 10.24C4.50004 10.52 4.82004 10.9 4.65004 11.42C4.49005 11.91 4.12005 12.3 3.57005 12.31C3.01005 12.32 2.40005 12.23 2.05005 11.74C1.62005 11.13 1.36005 10.28 1.79005 9.61003C2.34005 8.74003 3.05005 8.59003 3.84005 8.67003C4.63005 8.75003 6.04004 9.54003 6.28005 10.24C6.52004 10.95 6.59005 11.11 6.59005 11.34L7.69005 11.89C7.69005 11.89 7.22005 10.63 7.93005 10C8.64005 9.37003 9.58004 9.69003 9.90005 9.92003C10.22 10.15 11.24 11.1 11.4 11.42L12.9 12.13C12.9 12.13 12.43 11.42 12.19 10.79C11.95 10.16 12.19 9.53003 12.58 9.53003C12.97 9.53003 14.08 9.69003 14.63 9.69003C15.18 9.69003 17.15 9.61003 17.46 8.35003C17.44 8.43003 17.05 8.57003 16.97 8.60003C16.78 8.68003 16.58 8.75003 16.37 8.78003C15.99 8.85003 15.63 8.80003 15.27 8.67003C14.78 8.51003 14.3 8.28003 13.84 8.03003L13.53 7.32003C14.1 7.64003 14.64 8.03003 15.26 8.25003C15.76 8.42003 16.31 8.38003 16.83 8.24003ZM14.71 6.95003C14.71 6.36003 15.19 5.89003 15.77 5.89003C16.35 5.89003 16.83 6.37003 16.83 6.95003C16.83 7.54003 16.35 8.01003 15.77 8.01003C15.19 8.01003 14.71 7.54003 14.71 6.95003ZM16.52 6.95003C16.52 6.54003 16.19 6.20003 15.77 6.20003C15.35 6.20003 15.02 6.53003 15.02 6.95003C15.02 7.36003 15.35 7.70003 15.77 7.70003C16.19 7.70003 16.52 7.37003 16.52 6.95003ZM15.59 6.70003C15.62 6.60003 15.78 6.56003 15.95 6.61003C16.12 6.66003 16.22 6.79003 16.19 6.89003C16.16 6.99003 16 7.03003 15.83 6.98003C15.66 6.93003 15.56 6.80003 15.59 6.70003Z" />
</svg>
