<svg width="18" height="18" viewBox="0 0 18 18" xmlns="http://www.w3.org/2000/svg">
    <path fill-rule="evenodd" clip-rule="evenodd"
        d="M8.4021 9.30386C8.40561 10.7031 8.40982 13.0804 8.41333 14.9281C10.9432 15.2702 13.473 15.6229 15.9986 16C15.9986 13.7941 16.0014 11.5979 15.9986 9.49902C13.4667 9.49902 10.9354 9.30386 8.4021 9.30386ZM2 9.30454V14.0552C3.90807 14.3126 5.81614 14.5587 7.7207 14.8399C7.72421 13.0021 7.7193 11.1636 7.7193 9.32573C5.81263 9.32923 3.90667 9.29825 2 9.30454ZM2 3.99028V8.72759C3.90807 8.73249 5.81614 8.70361 7.72421 8.70571C7.72281 6.87202 7.72281 5.04058 7.7207 3.20688C5.81123 3.44545 3.90175 3.69784 2 3.99028ZM16 8.63018C13.4716 8.63997 10.9432 8.67853 8.41333 8.68623C8.41193 6.82245 8.41193 4.96091 8.41333 3.09854C10.9382 2.71305 13.4688 2.3505 15.9986 2C16 4.21078 15.9986 6.41939 16 8.63018Z" />
</svg>