<svg width="18" height="18" viewBox="0 0 18 18" xmlns="http://www.w3.org/2000/svg">
<path d="M15.22 9.84023C14.62 9.59023 14.17 9.05023 14.04 8.40023C14.01 8.27023 14 8.13023 14 8.00023V7.00023C14 5.27023 13.13 3.75023 11.8 2.85023C11.26 2.49023 10.65 2.23023 9.98 2.09023C9.98 2.06023 10 2.03023 10 1.99023C10 1.44023 9.55 0.990234 9 0.990234C8.45 0.990234 8 1.44023 8 1.99023C8 2.03023 8.02 2.05023 8.02 2.09023C7.36 2.22023 6.74 2.48023 6.2 2.85023C4.87 3.75023 4 5.27023 4 7.00023V8.00023C4 8.14023 3.99 8.27023 3.96 8.40023C3.83 9.05023 3.38 9.59023 2.78 9.84023C2.54 9.94023 2.76 10.0002 2.76 10.0002H11C11 10.8302 10.33 11.5002 9.5 11.5002H2V13.8502C2 14.0002 2.02 14.1402 2.04 14.2802C2.18 14.9802 2.67 15.5602 3.31 15.8302C3.57 15.9402 3.85 16.0002 4.15 16.0002H8C8 16.5502 8.45 17.0002 9 17.0002C9.55 17.0002 10 16.5502 10 16.0002H13.85C14.15 16.0002 14.43 15.9402 14.69 15.8302C15.33 15.5602 15.82 14.9802 15.96 14.2802C15.99 14.1402 16 13.9902 16 13.8502V10.0002C15.72 10.0002 15.46 9.94023 15.22 9.84023Z"/>
</svg>
