<svg width="18" height="18" viewBox="0 0 18 18" xmlns="http://www.w3.org/2000/svg">
  <path d="M16.58 9.12012V8.89012H15.66C15.62 8.97012 15.57 9.04012 15.53 9.12012H16.58ZM16.58 8.58012V8.35012H15.94C15.9 8.43012 15.87 8.50012 15.83 8.58012H16.58ZM17.73 14.6201C17.39 14.2401 16.72 14.0501 16.16 14.0701C15.8 13.6401 13.9 11.6401 13.53 11.2401C14.32 10.6901 15 9.97012 15.53 9.11012H14.76V8.88012H15.66C15.72 8.78012 15.77 8.67012 15.83 8.57012H14.76V8.34012H15.94C16.41 7.32012 16.68 6.15012 16.65 4.87012C16.65 4.52012 16.54 3.03012 16.34 2.63012C15.8 2.84012 14.8 3.51012 14.58 4.20012C13.51 4.04012 12.29 4.06012 11.23 4.24012C11.05 3.50012 10.16 2.93012 9.49 2.62012C9.2 3.10012 9.08 4.21012 9.11 4.99012H9.1C9.13 5.70012 9.22 6.36012 9.38 6.96012C7.06 7.54012 4.54 9.06012 3.12 10.5201C2.46 9.63012 2.19 8.89012 2.12 8.34012C2.02 7.64012 2.19 7.00012 2.61 6.48012C3.26 5.67012 4.19 5.62012 5.14 5.77012C5.12 5.92012 5.14 6.06012 5.2 6.15012C5.45 6.52012 6.8 6.65012 7.61 6.29012C7.02 5.45012 5.81 5.05012 5.47 5.21012C5.36 5.27012 5.28 5.36012 5.22 5.48012C4.89 5.42012 4.56 5.38012 4.33 5.38012C3.49 5.39012 2.85 5.68012 2.37 6.27012C1.9 6.86012 1.71 7.58012 1.82 8.37012C1.93 9.12012 2.29 9.91012 2.92 10.7401C2.82 10.8501 2.72 10.9601 2.62 11.0701C1.1 12.7701 0 14.5801 0 14.8801V15.0401H1.99L1.96 14.8501C1.85 14.2601 2.07 13.5101 2.53 12.9601C2.82 12.6101 3.3 12.2101 4.05 12.0301C4.72 12.6901 5.57 13.3701 6.52 14.0501H8V13.8901C8 13.7101 7.92 13.5601 7.76 13.4501C7.53 13.3001 7.17 13.2701 6.83 13.3901C6.51 13.0401 6.34 12.5701 6.3 11.9801C9.51 12.2601 12.59 13.5601 16.06 15.3801H17.97L17.99 15.2601C18.02 15.0801 17.93 14.8401 17.73 14.6201ZM16.33 6.56012L16.19 6.97012L15.57 6.87012L16.33 6.56012ZM16.02 7.48012L15.91 7.82012L15.44 7.65012L16.02 7.48012ZM14.86 4.25012C14.85 4.25012 14.84 4.24012 14.84 4.24012C14.84 4.24012 14.85 4.25012 14.86 4.25012ZM13.43 4.31012L13.05 5.61012L12.47 4.33012L13.43 4.31012ZM10.44 6.69012L9.6 6.74012L9.51 6.19012L10.44 6.69012ZM10.31 7.42012L9.84 7.55012L9.75 7.19012L10.31 7.42012ZM4.67 9.51012L5.2 9.11012L5.46 10.0501L4.67 9.51012ZM5.84 8.74012L6.44 8.38012L6.98 9.32012L5.84 8.74012ZM6.9 8.19012L7.93 7.72012L8.44 9.23012L6.9 8.19012ZM11.03 9.12012H9.21V8.89012H11.03V9.12012ZM11.03 8.58012H9.21V8.35012H11.03V8.58012ZM12.23 9.35012L12.12 9.18012L12.77 8.75012L11.62 8.03012L11.67 7.95012C11.82 7.69012 11.95 7.36012 12.04 7.03012H11.16V6.83012H12.08C12.19 6.34012 12.22 5.88012 12.08 5.64012C12.02 5.54012 11.94 5.49012 11.83 5.49012C11.3 5.49012 11.08 6.05012 11.08 6.07012L10.89 6.00012C10.9 5.97012 11.17 5.29012 11.83 5.29012C12.02 5.29012 12.16 5.37012 12.26 5.54012C12.43 5.83012 12.41 6.32012 12.29 6.83012H13.9C14.11 6.20012 14.56 5.90012 15.31 5.90012V6.10012C14.5 6.10012 14.27 6.44012 14.11 6.83012H14.99V7.03012L14.11 7.02012H14.03C13.93 7.36012 14.01 7.66012 14.24 8.02012C14.18 8.05012 13.1 8.76012 13.11 8.76012L13.83 9.21012L13.72 9.38012L12.93 8.87012L12.23 9.35012ZM13.62 11.6401L13.99 12.0001L13.13 12.4001L13.62 11.6401ZM13.6 13.1001L14.39 12.5001L14.7 12.8201L13.6 13.1001ZM12.09 8.09012L12.94 8.63012L13.75 8.09012H12.09ZM13.83 7.02012H12.24C12.16 7.34012 12.04 7.64012 11.91 7.89012H13.97C13.79 7.59012 13.76 7.25012 13.83 7.02012Z" />
</svg>
