<svg width="18" height="18" viewBox="0 0 18 18" xmlns="http://www.w3.org/2000/svg">
  <path d="M4.90999 16.7C5.08999 16.2 5.25999 15.7 5.44999 15.2C5.65999 15.27 5.86999 15.34 6.08999 15.42C5.92999 15.95 5.77999 16.48 5.60999 17.01L4.90999 16.7ZM13.86 5.75001C13.56 6.05001 13.06 6.23001 12.49 6.17001C12.49 6.17001 13.02 6.39001 13.65 6.55001C13.51 7.02001 13.36 7.51001 13.19 8.02001C12.8 8.19001 12.4 8.31001 12.06 8.28001C12.41 8.43001 12.71 8.53001 12.99 8.61001C12.96 8.71001 12.92 8.80001 12.88 8.90001C12.46 8.96001 11.92 8.99001 11.24 8.92001C11.63 9.19001 12.1 9.39001 12.56 9.54001C11.13 12.09 8.34999 12.93 8.34999 12.93C9.55999 13.77 10.37 13.14 10.37 13.14C9.74999 14.51 8.53999 13.67 8.53999 13.67C8.72999 14.41 9.74999 14.51 9.74999 14.51C8.92999 15.14 6.70999 14.2 6.70999 14.2C7.91999 15.04 7.09999 15.68 7.09999 15.68C6.96999 15.19 6.49999 14.99 6.17999 14.91C6.27999 14.57 6.37999 14.23 6.47999 13.88C6.63999 13.33 6.80999 12.78 6.97999 12.24C7.14999 11.69 7.31999 11.15 7.49999 10.6C7.92999 9.31001 8.36999 8.02001 8.85999 6.76001C9.37999 5.50001 9.87999 4.23001 10.7 3.11001C9.82999 4.20001 9.26999 5.45001 8.69999 6.68001C8.14999 7.92001 7.64999 9.19001 7.15999 10.46C7.06999 10.7 6.97999 10.94 6.88999 11.17C6.68999 11.71 6.49999 12.24 6.29999 12.78C6.10999 13.32 5.91999 13.86 5.72999 14.4C5.69999 14.49 5.66999 14.59 5.63999 14.68C5.23999 14.47 4.45999 14.16 3.86999 14.62C3.67999 13.88 4.68999 13.99 4.68999 13.99C3.47999 13.15 4.49999 13.25 4.49999 13.25C4.68999 13.99 5.70999 14.09 5.70999 14.09C5.51999 13.35 4.11999 11.77 4.11999 11.77C5.12999 11.87 5.32999 12.61 5.32999 12.61C4.35999 8.92001 7.23999 4.90001 7.86999 3.53001C8.48999 2.16001 10.72 0.580011 12.15 1.10001C14.31 1.88001 14.42 3.50001 13.86 5.75001Z" />
</svg>
