<svg width="16" height="16" viewBox="0 0 16 16" xmlns="http://www.w3.org/2000/svg">
<path d="M7.41667 1V1.58333H8.58333V1H7.41667Z"/>
<path d="M7.41667 2.75V3.91667H8.58333V2.75H7.41667Z"/>
<path d="M7.41667 5.08333V6.25H8.58333V5.08333H7.41667Z"/>
<path d="M7.41667 9.75V10.9167H8.58333V9.75H7.41667Z"/>
<path d="M7.41667 12.0833V13.25H8.58333V12.0833H7.41667Z"/>
<path d="M7.41667 14.4167V15H8.58333V14.4167H7.41667Z"/>
<path d="M1 8.58333H1.58333V7.41667H1V8.58333Z"/>
<path d="M2.75 8.58333H3.91667V7.41667H2.75V8.58333Z"/>
<path d="M5.08333 8.58333H6.25V7.41667H5.08333V8.58333Z"/>
<path d="M8 8.80208L7.98856 8.81352L7.75837 8.58333H7.41667V8.24162L7.18648 8.01144L7.19792 8L7.18648 7.98856L7.41667 7.75837V7.41667H7.75837L7.98856 7.18648L8 7.19792L8.01144 7.18648L8.24162 7.41667H8.58333V7.75837L8.81352 7.98856L8.80208 8L8.81352 8.01144L8.58333 8.24162V8.58333H8.24162L8.01144 8.81352L8 8.80208Z"/>
<path d="M9.75 8.58333H10.9167V7.41667H9.75V8.58333Z"/>
<path d="M12.0833 8.58333H13.25V7.41667H12.0833V8.58333Z"/>
<path d="M14.4167 8.58333H15V7.41667H14.4167V8.58333Z"/>
<path d="M14.8291 1.99581L14.4281 2.39685L13.6031 1.5719L14.0042 1.17085L14.8291 1.99581Z"/>
<path d="M13.626 3.19894L12.8239 4.00102L11.999 3.17606L12.8011 2.37398L13.626 3.19894Z"/>
<path d="M12.0219 4.8031L11.2198 5.60519L10.3948 4.78023L11.1969 3.97815L12.0219 4.8031Z"/>
<path d="M10.4177 6.40727L9.6156 7.20935L8.79065 6.38439L9.59273 5.58231L10.4177 6.40727Z"/>
<path d="M7.20935 9.6156L6.40727 10.4177L5.58231 9.59273L6.3844 8.79065L7.20935 9.6156Z"/>
<path d="M5.60519 11.2198L4.8031 12.0219L3.97815 11.1969L4.78023 10.3948L5.60519 11.2198Z"/>
<path d="M4.00102 12.8239L3.19894 13.626L2.37398 12.8011L3.17606 11.999L4.00102 12.8239Z"/>
<path d="M2.39685 14.4281L1.99581 14.8291L1.17085 14.0042L1.5719 13.6031L2.39685 14.4281Z"/>
<path d="M1.17085 1.99581L1.5719 2.39685L2.39685 1.5719L1.99581 1.17085L1.17085 1.99581Z"/>
<path d="M2.37398 3.19894L3.17606 4.00102L4.00102 3.17606L3.19894 2.37398L2.37398 3.19894Z"/>
<path d="M3.97815 4.8031L4.78023 5.60519L5.60519 4.78023L4.8031 3.97815L3.97815 4.8031Z"/>
<path d="M5.58231 6.40727L6.3844 7.20935L7.20935 6.3844L6.40727 5.58231L5.58231 6.40727Z"/>
<path d="M8.79065 9.6156L9.59273 10.4177L10.4177 9.59273L9.6156 8.79065L8.79065 9.6156Z"/>
<path d="M10.3948 11.2198L11.1969 12.0219L12.0219 11.1969L11.2198 10.3948L10.3948 11.2198Z"/>
<path d="M11.999 12.8239L12.8011 13.626L13.626 12.8011L12.8239 11.999L11.999 12.8239Z"/>
<path d="M13.6031 14.4281L14.0042 14.8291L14.8291 14.0042L14.4281 13.6031L13.6031 14.4281Z"/>
</svg>
