<svg width="18" height="18" viewBox="0 0 18 18" xmlns="http://www.w3.org/2000/svg">
  <path d="M8.37002 8.56C8.08002 8.56 7.83002 8.67 7.61002 8.88C7.39002 9.09 7.28002 9.45 7.28002 9.94C7.28002 10.3 7.32002 10.59 7.41002 10.81C7.58002 11.23 7.89002 11.44 8.35002 11.44C8.69002 11.44 8.95002 11.3 9.12002 11.03C9.29002 10.76 9.38002 10.39 9.38002 9.95C9.38002 9.55 9.29002 9.22 9.12002 8.96C8.96002 8.69 8.71002 8.56 8.37002 8.56ZM6.99002 5.64C5.38002 4.91 2.94002 4.96 2.43002 4.93C1.91002 4.9 1.16002 4.78 1.02002 4.36C1.10002 5.6 1.60002 8.36 2.59002 10.3C3.58002 12.24 5.70002 13.09 6.74002 13.38C7.78002 13.67 9.44002 13.66 9.85002 13.68C10.26 13.7 10.4 14.11 10.5 14.58C10.61 15.11 10.55 16.3 10.23 17H10.95C11.08 14.86 10.81 12.14 10.37 9.77C9.93002 7.41 8.60002 6.37 6.99002 5.64ZM9.60002 11.41C9.31002 11.81 8.91002 12 8.39002 12C8.10002 12 7.86002 11.93 7.66002 11.79C7.54002 11.71 7.42002 11.58 7.28002 11.39V11.88H6.70002V6.66H7.32002V8.55C7.46002 8.37 7.63002 8.23 7.82002 8.13C8.01002 8.03 8.22002 7.99 8.45002 7.99C8.92002 7.99 9.31002 8.15 9.60002 8.48C9.89002 8.8 10.04 9.28 10.04 9.92C10.04 10.52 9.89002 11.01 9.60002 11.41ZM16.98 1C16.68 1.29 15.5 1.42 15.06 1.44C14.62 1.46 13.03 1.51 11.59 2.61C10.15 3.71 10.04 7.28 10.39 8.98C10.26 8.06 10.67 7.62 10.9 7.51C11.24 7.35 11.58 7.43 12.35 7.38C13.6 7.3 14.81 6.46 15.65 5.38C16.49 4.29 17 1.71 16.98 1Z" />
</svg>
