<svg width="16" height="16" viewBox="0 0 16 16" xmlns="http://www.w3.org/2000/svg">
<path fill-rule="evenodd" clip-rule="evenodd" d="M8 15C11.866 15 15 11.866 15 8C15 4.13401 11.866 1 8 1C4.134 1 1 4.13401 1 8C1 11.866 4.134 15 8 15ZM8.0209 13.8716C11.2753 13.8716 13.9134 11.2335 13.9134 7.9791C13.9134 4.72475 11.2753 2.08657 8.0209 2.08657C4.76654 2.08657 2.12836 4.72475 2.12836 7.9791C2.12836 8.97713 2.37647 9.9172 2.81439 10.741C2.93728 10.9472 3.06466 11.1348 3.19403 11.3224C3.40914 11.6343 3.6502 11.9255 3.95618 12.188C4.31109 12.4926 4.7149 12.7849 5.17876 12.8447C5.36441 12.8687 5.51343 12.8687 5.51343 12.8687H5.82687L6.64179 12.7851L6.82985 12.7642C6.9803 12.7475 7.28258 12.6736 7.41493 12.6388C8.18806 12.409 8.9403 11.6567 9.04478 11.5522C9.12836 11.4687 9.34428 11.1831 9.44179 11.0507C9.49583 10.9813 9.47207 10.8816 9.44804 10.7807L9.448 10.7807C9.44633 10.7736 9.44466 10.7666 9.44301 10.7596C9.01165 10.9856 8.52076 11.1134 8 11.1134C6.2805 11.1134 4.88657 9.7195 4.88657 8C4.88657 6.2805 6.2805 4.88657 8 4.88657C9.58871 4.88657 10.8995 6.0765 11.0897 7.61374C11.091 7.61844 11.0921 7.62326 11.093 7.62821C11.2146 8.28363 11.3197 9.39078 11.009 10.2149C10.5284 11.4896 10.2358 11.8657 9.52537 12.597C8.99018 13.148 8.27711 13.4827 7.93401 13.6013C7.89878 13.6135 7.87463 13.6463 7.87463 13.6836C7.87463 13.7658 7.82608 13.8378 7.75494 13.8657C7.8431 13.8697 7.93176 13.8716 8.0209 13.8716ZM6.65179 13.7118C6.27964 13.6123 5.91931 13.4838 5.64026 13.371C5.96324 13.5138 6.30145 13.6284 6.65179 13.7118ZM10.0687 8C10.0687 9.14249 9.14249 10.0687 8 10.0687C6.85751 10.0687 5.93134 9.14249 5.93134 8C5.93134 6.85751 6.85751 5.93134 8 5.93134C9.14249 5.93134 10.0687 6.85751 10.0687 8Z" />
</svg>
