<svg width="16" height="16" viewBox="0 0 16 16" xmlns="http://www.w3.org/2000/svg">
<path d="M10.42 1.81003C9.96 1.47003 9.4 1.28003 8.83 1.28003C8.42 1.28003 8.01 1.38003 7.64 1.56003L2.61 4.08003L7.06 7.42003L13.56 4.17003L10.42 1.81003ZM8.63 2.31003C8.7 2.30003 8.76 2.29003 8.83 2.29003C8.85 2.29003 8.87 2.30003 8.89 2.30003C8.8 2.29003 8.72 2.29003 8.63 2.31003ZM2 9.47003C2 10.12 2.31 10.73 2.83 11.12L6.4 13.8L6.5 13.88V8.25003L2 4.88003V9.47003ZM7.5 8.31003V13.87L9 13.12V9.50003C9 9.22003 9.22 9.00003 9.5 9.00003C9.78 9.00003 10 9.22003 10 9.50003V12.62L11 12.12V8.50003C11 8.22003 11.22 8.00003 11.5 8.00003C11.78 8.00003 12 8.22003 12 8.50003V11.62L12.86 11.19C13.56 10.84 14 10.13 14 9.34003V5.06003L7.5 8.31003Z"/>
</svg>
