<svg width="16" height="16" viewBox="0 0 16 16" xmlns="http://www.w3.org/2000/svg">
<path d="M7.50834 7.09685L7.43428 7.02278L5.47993 8.97713C5.47532 8.98174 5.47114 8.98677 5.46665 8.9915C5.43428 9.02523 5.40558 9.06231 5.38103 9.1021C5.37283 9.11496 5.36501 9.12806 5.35756 9.14138L5.35434 9.14459C5.34466 9.16388 5.33501 9.18643 5.32537 9.20576C5.29101 9.28839 5.2735 9.37705 5.27384 9.46655C5.2736 9.65114 5.34655 9.82829 5.47672 9.95918L5.86952 10.352L7.50513 8.71634C7.61209 8.61045 7.69706 8.48445 7.75514 8.3456C7.81323 8.20674 7.84329 8.05778 7.84359 7.90726C7.84388 7.75675 7.81442 7.60767 7.75689 7.46858C7.69935 7.3295 7.61488 7.20317 7.50834 7.09685Z"/>
<path d="M14.405 5.13925L13.5646 4.2989C13.3637 4.09775 13.095 3.9787 12.8111 3.965C12.5271 3.95131 12.2482 4.04395 12.0288 4.22484C11.9998 4.24738 11.9741 4.27314 11.9451 4.2989L11.3044 4.93967L13.3102 6.94554C13.3609 6.99727 13.4082 7.05213 13.452 7.10979C13.4532 7.11134 13.4542 7.11308 13.4554 7.11467C13.4843 7.28798 13.5067 7.46448 13.5228 7.64101L13.5196 7.64422C13.5034 7.46715 13.4809 7.29008 13.4487 7.11622C13.4059 7.05779 13.3585 7.00287 13.307 6.95197L11.3044 4.94289L9.11176 2.75026C8.80602 2.44709 8.39289 2.27698 7.96232 2.27698C7.53175 2.27698 7.11861 2.44709 6.81288 2.75026L2.28275 7.27718C2.02753 7.53441 1.86524 7.86932 1.82151 8.22903C1.77778 8.58875 1.8551 8.95278 2.04125 9.26367C2.04211 9.26511 2.04273 9.26646 2.0435 9.26786L1.60983 9.69514C1.50342 9.80144 1.419 9.92767 1.36141 10.0666C1.30381 10.2056 1.27417 10.3545 1.27417 10.5049C1.27417 10.6553 1.30381 10.8042 1.36141 10.9432C1.419 11.0821 1.50342 11.2084 1.60983 11.3147L2.45018 12.155C2.62193 12.326 2.84333 12.4383 3.08273 12.4758C3.32213 12.5134 3.56728 12.4744 3.78316 12.3643C3.88928 12.3104 3.98602 12.2397 4.06967 12.155L4.4641 11.7606L6.47802 13.7745C6.78376 14.0777 7.19689 14.2478 7.62746 14.2478C8.05803 14.2478 8.47117 14.0777 8.77691 13.7745L13.3103 9.2476C13.5349 9.02277 13.6885 8.73691 13.7521 8.42552C13.8156 8.11413 13.7862 7.79094 13.6676 7.49609L13.5952 7.56853L13.6709 7.49287C13.6703 7.49132 13.6695 7.48989 13.6689 7.48838L14.4017 6.75557C14.6163 6.54157 14.7372 6.25114 14.7378 5.94808C14.7384 5.64502 14.6187 5.35411 14.405 5.13925ZM10.9115 7.68935C10.9277 7.65069 10.9406 7.60878 10.9534 7.57015C10.9406 7.61199 10.9277 7.65069 10.9115 7.68935ZM7.62425 11.1215C7.50334 11.2424 7.35978 11.3384 7.20178 11.4039C7.04378 11.4693 6.87443 11.503 6.7034 11.503C6.53238 11.503 6.36302 11.4693 6.20502 11.4039C6.04702 11.3384 5.90346 11.2424 5.78256 11.1215L5.44127 10.7802L4.4641 11.7574L3.37261 10.6659L4.46247 11.7558L5.44127 10.777L5.05168 10.3874C4.95849 10.2949 4.88028 10.1884 4.81987 10.0719C4.73259 9.90405 4.68252 9.71939 4.67308 9.53047C4.66363 9.34155 4.69503 9.15281 4.76513 8.97713C4.78073 8.93731 4.79902 8.89859 4.81987 8.86126C4.88028 8.74467 4.95849 8.6382 5.05168 8.5457L7.00448 6.59294L7.00603 6.59457L8.05246 5.54817C8.17337 5.42721 8.31693 5.33126 8.47493 5.26579C8.63293 5.20032 8.80228 5.16663 8.97331 5.16663C9.14434 5.16663 9.31369 5.20032 9.47169 5.26579C9.62969 5.33126 9.77325 5.42721 9.89415 5.54817L10.2934 5.94741L9.86518 6.37562L9.86677 6.37725L9.86518 6.37884L9.46269 5.97635C9.3991 5.91094 9.32301 5.85899 9.23894 5.82359C9.15486 5.78819 9.06453 5.77007 8.97331 5.7703C8.92896 5.76964 8.88467 5.77397 8.84129 5.7832C8.70592 5.80957 8.5815 5.87571 8.48393 5.97317L7.43749 7.01957L7.51156 7.09363C7.61796 7.19993 7.70237 7.32616 7.75996 7.46511C7.81755 7.60405 7.8472 7.75298 7.8472 7.90338C7.8472 8.05378 7.81755 8.20271 7.75996 8.34166C7.70237 8.4806 7.61796 8.60682 7.51156 8.71313L5.87274 10.352L6.21402 10.6933C6.27865 10.758 6.35546 10.8092 6.44001 10.844C6.52456 10.8788 6.61518 10.8965 6.70662 10.8961C6.79615 10.8968 6.88489 10.8792 6.96744 10.8446C6.98673 10.8349 7.00928 10.8253 7.02861 10.8156C7.03183 10.8156 7.03183 10.8124 7.03504 10.8124C7.094 10.7804 7.14819 10.7403 7.19604 10.6933L8.51612 9.37319L8.50322 9.36029C8.39682 9.25399 8.31241 9.12776 8.25482 8.98882C8.19723 8.84987 8.16758 8.70095 8.16758 8.55054C8.16758 8.40014 8.19723 8.25121 8.25482 8.11227C8.31241 7.97332 8.39682 7.8471 8.50322 7.7408L8.5064 7.73762C8.4 7.84392 8.3156 7.97015 8.25802 8.10909C8.20043 8.24803 8.17079 8.39695 8.1708 8.54735C8.1708 8.69775 8.20045 8.84668 8.25804 8.98561C8.31563 9.12455 8.40003 9.25077 8.50643 9.35707L8.51771 9.36834L8.51612 9.36997L8.94433 9.79818L10.625 8.11749C10.6575 8.08764 10.6876 8.05536 10.7152 8.02091C10.6868 8.05568 10.6567 8.08898 10.625 8.1207L7.62425 11.1215Z"/>
</svg>
