<svg width="18" height="18" viewBox="0 0 18 18" xmlns="http://www.w3.org/2000/svg">
  <path d="M14 10.75C14 11.41 13.65 11.74 13 11.75H5C4.35 11.74 4 11.41 4 10.75C4 10.09 4.35 9.76 5 9.75H13C13.65 9.76 14 10.09 14 10.75ZM13 12.25H5C4.35 12.26 4 12.59 4 13.25C4 13.91 4.35 14.24 5 14.25H13C13.65 14.24 14 13.91 14 13.25C14 12.59 13.65 12.26 13 12.25ZM15.5 6.75C14.85 6.76 14.5 7.09 14.5 7.75V13.25C14.5 13.91 14.85 14.24 15.5 14.25C16.48 14.22 17 13.24 17 11.25V8.75C17 7.42 16.48 6.77 15.5 6.75ZM2.5 6.75C1.52 6.77 1 7.42 1 8.75V11.25C1 13.24 1.52 14.21 2.5 14.25C3.15 14.24 3.5 13.91 3.5 13.25V7.75C3.5 7.09 3.15 6.76 2.5 6.75ZM15.5 6.25C15.5 4.59 14.63 3.78 13 3.75H5C3.37 3.78 2.5 4.59 2.5 6.25C3.48 6.27 4 6.75 4 7.75C4 8.74 4.52 9.23 5.5 9.25H12.5C13.48 9.23 14 8.75 14 7.75C14 6.76 14.52 6.27 15.5 6.25Z" />
</svg>
