<svg width="18" height="18" viewBox="0 0 18 18" xmlns="http://www.w3.org/2000/svg">
  <path d="M9 10C14.153 10 16.5 7.927 16.5 6C16.5 4.073 14.153 2 9 2C3.847 2 1.5 4.073 1.5 6C1.5 7.927 3.847 10 9 10ZM9 3.5C12.313 3.5 15 4.619 15 6C15 7.381 12.313 8.5 9 8.5C5.687 8.5 3 7.381 3 6C3 4.619 5.687 3.5 9 3.5ZM14.566 12.931C13.68 13.85 11.523 14.5 9 14.5C6.477 14.5 4.32 13.85 3.434 12.931C2.639 12.547 2.01 12.081 1.545 11.563C1.518 11.708 1.5 11.854 1.5 12C1.5 13.927 3.847 16 9 16C14.153 16 16.5 13.927 16.5 12C16.5 11.854 16.482 11.708 16.455 11.562C15.99 12.081 15.361 12.546 14.566 12.931ZM14.566 9.931C13.68 10.85 11.523 11.5 9 11.5C6.477 11.5 4.32 10.85 3.434 9.931C2.639 9.547 2.01 9.081 1.545 8.563C1.518 8.708 1.5 8.854 1.5 9C1.5 10.927 3.847 13 9 13C14.153 13 16.5 10.927 16.5 9C16.5 8.854 16.482 8.708 16.455 8.562C15.99 9.081 15.361 9.546 14.566 9.931Z" />
</svg>
