<svg width="16" height="16" viewBox="0 0 16 16" xmlns="http://www.w3.org/2000/svg">
<path d="M12.2333 9.34442C11.6686 9.34442 11.0595 9.19259 11.0424 8.59887L10.4914 8.60058C10.4914 9.50821 11.3563 9.77265 12.1906 9.77265C12.9345 9.77265 13.779 9.52697 13.779 8.68929C13.779 8.00857 12.9566 7.89256 12.6666 7.84138L11.7607 7.70148C11.3052 7.63153 11.1567 7.46945 11.1567 7.26643C11.1567 6.87745 11.6174 6.72561 12.0149 6.72561C12.9003 6.72561 13.0727 7.08047 13.1136 7.33638H13.663C13.6067 6.53965 12.8355 6.29909 12.0882 6.29909C11.1414 6.29909 10.6074 6.6966 10.6074 7.30397C10.6074 7.94715 11.2659 8.10923 11.7061 8.16894L12.5455 8.29349C12.9737 8.36344 13.233 8.48286 13.233 8.78313C13.2313 9.1397 12.8133 9.34442 12.2333 9.34442Z"/>
<path d="M3.15356 3.8014C3.70803 3.29641 4.34269 2.88866 5.04218 2.58498C4.53036 3.20087 4.10896 3.97031 3.80187 4.84893H4.91423C5.08995 4.40023 5.3015 3.98907 5.54547 3.61544C5.90033 3.07974 6.32003 2.6481 6.75678 2.36831C6.99051 2.21988 7.22766 2.1124 7.46992 2.04927V4.84893H8.52256V2.04927C8.76482 2.1124 9.00197 2.21988 9.2357 2.36831C9.67416 2.6464 10.0921 3.07974 10.4453 3.61544C10.691 3.98737 10.9025 4.40023 11.08 4.84722H12.1889C11.8835 3.9686 11.4604 3.19916 10.9486 2.58327C11.6515 2.88866 12.2827 3.293 12.8389 3.7997C13.1938 4.11873 13.5026 4.47189 13.7704 4.84722H14.9834C13.6578 2.57303 11.0288 1.02222 7.99709 1.02222C4.96541 1.02222 2.33465 2.57303 1.00903 4.84722H2.22034C2.48819 4.47189 2.7987 4.12044 3.15356 3.8014Z"/>
<path d="M9.44555 9.01174H9.43361L7.05876 6.38098H6.42069V9.68734H6.97004V7.05488H6.98028L9.35683 9.68734H9.9949V6.38098H9.44555V9.01174ZM4.15503 6.38098H2.28006V9.68734H4.18744C5.32027 9.68734 5.77068 8.90938 5.77068 7.9881C5.77238 7.02929 5.26397 6.38098 4.15503 6.38098ZM4.16185 9.26083L2.83112 9.25912V6.80579H4.05949C5.01148 6.80579 5.22473 7.41657 5.22473 7.99492C5.22303 8.58352 5.06266 9.26083 4.16185 9.26083Z"/>
<path d="M12.8406 12.2191C12.2844 12.7241 11.6532 13.1302 10.9503 13.4356C11.4638 12.8214 11.8852 12.0502 12.1906 11.1716H11.08C10.9042 11.6203 10.691 12.0315 10.4453 12.4051C10.0921 12.9408 9.67075 13.3725 9.23399 13.654C9.00026 13.8007 8.76141 13.9099 8.52256 13.9713V11.1699H7.47162V13.9696C7.23107 13.9065 6.99222 13.799 6.75849 13.6522C6.32003 13.3725 5.90375 12.9408 5.54718 12.4034C5.30321 12.0298 5.09166 11.6186 4.91252 11.1699H3.80187C4.10726 12.0485 4.53036 12.818 5.04218 13.4339C4.34269 13.1285 3.70803 12.7241 3.15356 12.2174C2.7987 11.8984 2.48819 11.5453 2.22034 11.1699H1.00903C2.33636 13.4458 4.96541 14.9966 7.99709 14.9966C11.0288 14.9966 13.6595 13.4458 14.9852 11.1699H13.7721C13.5043 11.547 13.1955 11.9001 12.8406 12.2191Z"/>
</svg>
