<svg width="16" height="16" viewBox="0 0 16 16" xmlns="http://www.w3.org/2000/svg">
<path fill-rule="evenodd" clip-rule="evenodd" d="M7.99987 4C6.09013 4 4.35202 4.47476 3.08539 5.25293C1.82174 6.02838 1 7.12529 1 8.37076C1 9.61602 1.82178 10.713 3.08548 11.4884C3.44483 11.7092 3.83342 11.736 4.22615 11.6656C4.61354 11.5962 5.01954 11.4296 5.42655 11.2486C5.51567 11.209 5.605 11.1686 5.69456 11.1281C6.44187 10.7906 7.20543 10.4456 7.99987 10.4456C8.79416 10.4456 9.55762 10.7905 10.305 11.128C10.3947 11.1685 10.4841 11.2089 10.5734 11.2486C10.9805 11.4296 11.3865 11.5962 11.774 11.6656C12.1668 11.736 12.5554 11.7092 12.9148 11.4884C14.1782 10.7129 15 9.61576 15 8.37076C15 7.12501 14.1782 6.02833 12.9148 5.25289C11.6482 4.47473 9.90932 4 7.99987 4ZM4.25866 7.94879C4.25866 7.94262 4.26081 7.9202 4.29911 7.88195C4.33817 7.84295 4.40429 7.79909 4.50119 7.75817C4.69424 7.67666 4.97416 7.62171 5.29329 7.62171C5.61226 7.62171 5.89219 7.67671 6.08528 7.75826C6.18221 7.79919 6.24838 7.84307 6.28747 7.88209C6.32582 7.92037 6.32792 7.94275 6.32792 7.94879C6.32792 7.95481 6.32584 7.97714 6.28752 8.01537C6.24845 8.05433 6.1823 8.09816 6.08537 8.13904C5.89226 8.22048 5.61231 8.27538 5.29329 8.27538C4.97414 8.27538 4.69419 8.22048 4.50113 8.13904C4.40422 8.09817 4.3381 8.05435 4.29905 8.01539C4.26075 7.97718 4.25866 7.95484 4.25866 7.94879ZM9.65553 8.03404L9.65555 8.03376C9.65557 8.03361 9.65562 8.03327 9.65577 8.03271C9.65605 8.03163 9.6568 8.02923 9.65878 8.02542C9.66291 8.0175 9.672 8.00425 9.69058 7.98699C9.72888 7.9514 9.79469 7.91058 9.89192 7.87234C10.0852 7.7963 10.3652 7.74507 10.6841 7.74507C11.003 7.74507 11.2832 7.7963 11.4767 7.87235C11.574 7.9106 11.6398 7.95143 11.6782 7.98704C11.6968 8.00431 11.7059 8.01756 11.71 8.02548C11.712 8.02928 11.7128 8.03168 11.713 8.03275C11.7132 8.03331 11.7132 8.03364 11.7132 8.03378L11.7133 8.03404C11.7133 8.03407 11.7133 8.03445 11.713 8.03548C11.7127 8.03659 11.712 8.03902 11.71 8.04284C11.7058 8.0508 11.6967 8.06407 11.6781 8.08135C11.6398 8.11697 11.5739 8.1578 11.4767 8.19604C11.2832 8.27208 11.0031 8.32326 10.6841 8.32326C10.3651 8.32326 10.0851 8.27208 9.89183 8.19606C9.79464 8.15782 9.72889 8.11701 9.69063 8.08142C9.67207 8.06415 9.66297 8.05089 9.65883 8.04293C9.65685 8.03911 9.65608 8.03667 9.65579 8.03554C9.65553 8.03453 9.65553 8.03412 9.65553 8.03404Z"/>
</svg>
