<svg width="18" height="18" viewBox="0 0 18 18" xmlns="http://www.w3.org/2000/svg">
  <g clip-path="url(#clip0_3144_5)">
    <path d="M9.97998 4.37012V5.67012H8.67998V4.37012H9.97998ZM8.01998 4.37012V5.67012H6.71998V4.37012H8.01998ZM13.03 5.69012C14.43 5.69012 14.18 7.44012 14.29 7.46012C14.63 7.31012 14.99 7.25012 15.31 7.25012C15.96 7.25012 16.49 7.46012 16.49 7.46012C16.5 8.46012 15.62 8.95012 14.44 9.05012C13.84 9.10012 13.47 9.58012 13.25 10.0601C12.69 11.2701 11.82 12.3401 10.63 12.9501C9.83998 13.3501 8.85998 13.6501 7.66998 13.6501C7.36998 13.6501 7.66998 13.6501 6.78998 13.6501C4.13998 13.6501 2.71999 11.7301 1.69999 10.2001C1.17999 9.41012 1.74999 8.36012 2.69999 8.36012H11.2C11.2 8.36012 11.21 8.36012 11.23 8.36012C11.44 8.36012 12.86 8.33012 12.53 7.48012C12.23 6.71012 12.97 5.71012 12.97 5.71012C12.99 5.69012 13.01 5.69012 13.03 5.69012ZM9.97998 6.32012V7.62012H8.67998V6.32012H9.97998ZM8.01998 6.32012V7.62012H6.71998V6.32012H8.01998ZM6.06998 6.32012V7.62012H4.76998V6.32012H6.06998ZM11.48 2.87012H9.97998H9.51998H8.01998H6.71998H5.21998V4.37012V4.83012H4.75998H3.25998V6.33012V6.85012H2.69999C1.69999 6.85012 0.789987 7.40012 0.319988 8.27012C-0.150012 9.14012 -0.100012 10.2001 0.449988 11.0201C1.33999 12.3601 3.18999 15.1401 6.78998 15.1401H7.66998C8.95998 15.1401 10.18 14.8501 11.31 14.2801C12.71 13.5701 13.86 12.3301 14.62 10.6901C14.65 10.6201 14.68 10.5701 14.71 10.5301C17.15 10.2801 18.01 8.78012 18 7.45012L17.99 6.43012L17.04 6.06012C16.91 6.01012 16.26 5.77012 15.43 5.75012C14.84 4.37012 13.62 4.19012 13.03 4.19012H12.92L12.2 4.22012L11.77 4.80012C11.71 4.87012 11.6 5.03012 11.48 5.25012V4.83012V4.37012V2.87012Z" />
  </g>
  <defs>
    <clipPath id="clip0_3144_5">
      <rect width="18" height="18" />
    </clipPath>
  </defs>
</svg>
