<svg width="18" height="18" viewBox="0 0 18 18" xmlns="http://www.w3.org/2000/svg">
  <path d="M7.9 3.77002H6.42V5.24002H7.9V3.77002ZM10.11 5.98002H8.63V7.45002H10.1V5.98002H10.11ZM10.11 3.77002H8.63V5.24002H10.1V3.77002H10.11ZM14.98 7.26002C14.85 7.24002 15.14 5.21002 13.48 5.27002C13.48 5.27002 12.64 6.39002 12.98 7.26002C13.39 8.30002 11.48 8.26002 11.48 8.26002H1.88C0.809996 8.26002 0.159996 9.45002 0.749996 10.34C1.9 12.07 3.51 14.24 6.5 14.24C7.5 14.24 7.16 14.24 7.5 14.24C8.84 14.24 9.96 13.9 10.85 13.45C12.2 12.77 13.18 11.56 13.81 10.19C14.06 9.66002 14.48 9.11002 15.15 9.05002C16.48 8.94002 17.48 8.39002 17.47 7.25002C17.47 7.26002 16.12 6.73002 14.98 7.26002ZM5.69 5.98002H4.21V7.45002H5.68V5.98002H5.69ZM7.9 5.98002H6.42V7.45002H7.9V5.98002Z" />
</svg>
