<svg width="16" height="16" viewBox="0 0 16 16" xmlns="http://www.w3.org/2000/svg">
<path d="M2.38902 9.99104C2.38858 10.1175 2.33521 10.2312 2.2499 10.3117H2.24946C2.16196 10.394 2.04383 10.4443 1.9139 10.4443C1.78396 10.4443 1.6654 10.3935 1.57746 10.3113L1.5779 10.3117C1.49258 10.2312 1.43921 10.1175 1.43921 9.99148C1.43921 9.86548 1.49258 9.75129 1.57833 9.67123C1.66583 9.58898 1.7844 9.53866 1.91433 9.53866C2.04427 9.53866 2.1624 9.58898 2.25033 9.67166L2.2499 9.67123C2.33521 9.75173 2.38858 9.86548 2.38902 9.99191V9.99104ZM7.14727 10.3699H6.29546L4.05283 6.83141C4.00121 6.75179 3.95352 6.65991 3.91546 6.56323L3.91152 6.55273H3.89183C3.90977 6.71241 3.91983 6.89704 3.91983 7.08429C3.91983 7.12979 3.9194 7.17529 3.91808 7.22079V7.21423V10.3699H3.16515V5.5561H4.07208L6.2399 9.01148C6.33133 9.1541 6.3904 9.25298 6.41665 9.30679H6.42977C6.4079 9.14316 6.39565 8.95416 6.39565 8.7621C6.39565 8.72579 6.39608 8.68991 6.39696 8.6536V8.65885V5.55566H7.14727V10.3699ZM10.8144 10.3699H8.17846V5.5561H10.7098V6.23423H8.95765V7.59791H10.572V8.27254H8.95765V9.69616H10.8144V10.3699ZM14.5607 6.23423H13.2115V10.3704H12.4323V6.23423H11.0861V5.5561H14.5603L14.5607 6.23423Z"/>
</svg>
