<svg width="18" height="18" viewBox="0 0 18 18" xmlns="http://www.w3.org/2000/svg">
  <path d="M16.291 4.29305C16.109 4.12705 15.828 4.14005 15.662 4.32205C15.347 4.66705 14.51 5.21105 13.445 5.41505C13.251 5.16805 13.021 4.93805 12.757 4.73305C12.393 4.45105 11.999 4.24305 11.597 4.10905C11.465 3.09905 11.599 2.27105 12.016 1.44605C12.127 1.22605 12.039 0.958051 11.819 0.848051C11.599 0.737051 11.331 0.825051 11.221 1.04505C10.766 1.94705 10.591 2.86805 10.683 3.93105C9.78198 3.87905 8.93398 4.20005 8.40398 4.88405C8.29298 5.02805 8.19998 5.18105 8.12598 5.34205C7.29998 5.04905 6.36498 4.91305 5.46998 4.91305C3.88398 4.91305 2.42098 5.33905 1.89598 6.07405C0.776983 7.63805 2.75598 9.36605 3.95698 9.87605C3.73598 10.3591 3.61798 10.8681 3.61298 11.3771C3.60598 12.1221 3.83998 12.8701 4.28998 13.5401C4.42098 13.7351 4.56998 13.9201 4.73298 14.0931L4.34898 15.8711L6.09898 15.0811C6.50898 15.2711 6.94198 15.3931 7.37398 15.4371C7.49398 15.4491 7.62198 15.4571 7.75898 15.4571C8.45798 15.4571 9.35198 15.2601 10.248 14.5221C10.961 15.5421 11.986 16.2001 12.999 16.2001C13.024 16.2001 13.048 16.2001 13.073 16.1991C14.54 16.1521 16.253 14.2451 13.445 9.26105C13.534 9.17805 13.617 9.08705 13.694 8.98805C14.291 8.21805 14.342 7.17205 13.929 6.22105C14.997 5.95405 15.877 5.40905 16.321 4.92305C16.485 4.74105 16.472 4.45905 16.291 4.29305ZM9.73498 9.41005C9.40298 10.1831 9.27598 10.9621 9.30398 11.7021C8.62398 11.7021 8.01298 11.4701 7.58498 11.0381C7.26898 10.7191 7.08798 10.3201 7.08998 9.96605C7.76398 9.79205 8.44498 9.46105 9.03598 8.87905C9.13098 8.96905 9.23198 9.05605 9.33898 9.13905C9.46698 9.23805 9.59998 9.32805 9.73498 9.41005ZM5.68598 9.33105C5.60498 9.33105 5.52298 9.32905 5.43998 9.32505C5.43698 8.61405 5.59498 8.01305 6.39098 7.37305C7.34098 7.40305 8.25898 7.54005 8.97898 7.68005C8.88198 7.83905 8.74698 8.01305 8.57498 8.19805C7.87698 8.95005 6.90498 9.33105 5.68598 9.33105ZM5.46898 5.71705C6.43198 5.71705 7.37298 5.88905 8.12198 6.20205C8.95098 6.61505 9.12398 6.94105 9.15298 7.09905C9.16398 7.16005 9.16098 7.22905 9.14398 7.30305C7.45698 6.96605 5.97498 6.87705 4.73998 7.04005C4.70998 7.04405 4.68098 7.04905 4.65198 7.05305C4.27598 6.92305 3.84898 6.62605 3.60298 5.96205C4.13698 5.80405 4.79598 5.71705 5.46898 5.71705ZM2.45298 7.45305C2.31498 7.10805 2.34498 6.82705 2.54898 6.54205C2.68798 6.34705 2.97898 6.19505 3.22398 6.09505C3.36098 6.46105 3.59798 6.87805 4.01098 7.17405C3.46998 7.30105 2.99498 7.48405 2.58898 7.72105C2.53398 7.62905 2.48798 7.53905 2.45298 7.45305ZM3.43298 8.62605C3.19798 8.44305 2.99198 8.24505 2.82498 8.04605C3.34398 7.74905 3.95098 7.56805 4.59398 7.46805C4.60198 7.46705 4.70998 7.45105 4.70998 7.45105C5.06598 7.40105 5.43098 7.37605 5.79698 7.36905C5.18098 7.99805 5.04198 8.62805 5.03998 9.29505C4.86698 9.27605 4.69398 9.25105 4.51998 9.21705C4.34498 9.18405 3.91198 8.99905 3.43298 8.62605ZM7.45698 14.6371C6.48998 14.5371 5.53198 13.9451 4.95798 13.0911C4.31398 12.1341 4.24798 11.0541 4.75598 10.0721C4.90098 10.0921 5.05898 10.1091 5.22498 10.1201C5.26598 10.9171 5.63098 11.7211 6.25698 12.3531C7.03998 13.1441 8.12298 13.5711 9.29998 13.5711C9.43698 13.5711 9.57498 13.5641 9.71398 13.5531C9.75198 13.6431 9.79198 13.7311 9.83398 13.8181C9.12098 14.4411 8.30398 14.7241 7.45698 14.6371ZM10.115 11.8101C10.059 11.0021 10.221 10.2121 10.597 9.46205C10.661 9.34405 10.773 9.20905 10.914 9.08905C11.378 9.97205 11.724 10.7551 11.964 11.4731C11.633 12.2631 11.073 12.7841 10.356 12.9821C10.225 12.6051 10.143 12.2101 10.115 11.8101ZM12.292 15.2441C12.143 15.1821 11.994 15.1021 11.847 15.0031C11.437 14.7281 11.064 14.3301 10.769 13.8521C10.671 13.6931 10.584 13.5291 10.507 13.3591C11.193 13.1601 11.751 12.7071 12.134 12.0361C12.213 12.3301 12.274 12.6131 12.316 12.8881C12.457 13.7911 12.388 14.5111 12.292 15.2441ZM13.911 14.8401C13.638 15.3241 13.216 15.3891 13.047 15.3941C13.031 15.3951 13.015 15.3951 12.999 15.3951C12.895 15.3951 12.79 15.3841 12.683 15.3631C12.748 14.8681 12.805 14.3751 12.799 13.8281C13.167 14.0691 13.686 14.2371 14.103 14.2821C14.064 14.4941 14 14.6821 13.911 14.8401ZM14.094 13.1291C14.135 13.4001 14.151 13.6531 14.143 13.8851C13.959 13.8651 13.738 13.8131 13.524 13.7361C13.162 13.6061 12.872 13.4251 12.769 13.2671C12.668 12.1681 12.283 10.8211 11.254 8.86905C11.386 8.80705 11.527 8.76905 11.668 8.76905C11.826 8.76905 11.976 8.81805 12.126 8.92005C12.343 9.06705 12.551 9.31405 12.743 9.65605C13.491 10.9841 13.946 12.1521 14.094 13.1291Z" />
</svg>
