<svg width="18" height="18" viewBox="0 0 18 18" xmlns="http://www.w3.org/2000/svg">
  <path d="M6.21008 6.82999L3.69008 6.23999C2.66008 6.56999 1.96008 7.55999 1.96008 8.62999C1.96008 9.67999 2.61008 10.62 3.58008 10.99L6.80008 8.07999L6.21008 6.82999ZM10.7001 9.45999L14.0701 6.49999C14.1201 6.24999 14.1401 5.99999 14.1401 5.74999C14.1401 3.66999 12.4501 1.98999 10.3801 1.98999C9.13008 1.98999 7.97008 2.59999 7.28008 3.62999L6.72008 6.53999L7.37008 7.92999L10.7001 9.45999ZM6.17008 6.22999L6.68008 3.62999C6.36008 3.38999 5.98008 3.25999 5.58008 3.25999C4.59008 3.25999 3.77008 4.06999 3.77008 5.06999C3.77008 5.27999 3.81008 5.49999 3.88008 5.68999L6.17008 6.22999ZM14.4201 6.97999L11.1201 9.85999L11.7901 11.14L14.3101 11.73C15.3401 11.39 16.0401 10.41 16.0401 9.33999C16.0401 8.28999 15.4001 7.35999 14.4201 6.97999ZM11.8301 11.75L11.3301 14.34C11.6501 14.58 12.0301 14.72 12.4201 14.72C13.4101 14.72 14.2301 13.91 14.2301 12.91C14.2301 12.69 14.1901 12.48 14.1201 12.29L11.8301 11.75ZM7.20008 8.49999L3.91008 11.47C3.86008 11.71 3.84008 11.97 3.84008 12.23C3.84008 14.31 5.54008 16 7.61008 16C8.87008 16 10.0301 15.38 10.7401 14.35L11.2901 11.44L10.5401 10.02L7.20008 8.49999Z" />
</svg>
