<svg width="16" height="16" viewBox="0 0 16 16" xmlns="http://www.w3.org/2000/svg">
<path d="M12.134 2.662C12.497 3.008 12.815 3.398 13.082 3.825L13.9 3.158L12.952 1.995L12.134 2.662ZM3.875 2.67L3.048 1.996L2.1 3.159L2.933 3.839C3.204 3.413 3.512 3.016 3.875 2.67ZM2.101 10.842L3.049 12.005L3.873 11.333C3.506 10.986 3.192 10.592 2.926 10.169L2.101 10.842ZM1 6.25V7.75H2.051C1.988 7.261 1.993 6.757 2.056 6.25H1ZM13.948 6.25C13.979 6.496 14 6.746 14 7C14 7.253 13.983 7.503 13.952 7.75H15V6.25H13.948ZM12.126 11.332L12.951 12.005L13.899 10.842L13.077 10.172C12.811 10.595 12.494 10.986 12.126 11.332ZM8 1.5C7.775 1.5 7.547 1.514 7.321 1.541C4.922 1.831 2.921 3.773 2.562 6.161C2.323 7.763 2.798 9.325 3.78 10.5H9C9 11.052 8.552 11.5 8 11.5H4.886C4.926 11.527 4.96 11.56 5 11.586V11.846C5 13.31 6.19 14.5 7.654 14.5H8.346C9.81 14.5 11 13.31 11 11.846V11.587C12.546 10.588 13.5 8.88 13.5 7C13.5 3.967 11.033 1.5 8 1.5ZM8 5C6.896 5 6 5.896 6 7H5C5 5.346 6.346 4 8 4V5Z"/>
</svg>
