<svg width="18" height="18" viewBox="0 0 18 18" xmlns="http://www.w3.org/2000/svg">
  <path d="M17.33 7.17001C16.9 8.03001 15.11 8.68001 14.39 8.60001L13.96 9.39001L13.53 8.67001C12.45 8.89001 11.09 8.74001 10.95 8.53001C10.81 8.31001 10.81 8.10001 10.81 8.10001L11.74 6.95001L9.36996 6.45001L12.38 5.88001C12.81 5.02001 13.46 3.37001 13.38 2.51001C12.73 2.51001 7.92996 3.08001 6.49996 4.37001C4.70996 2.94001 2.48996 2.73001 1.55996 2.73001C2.34996 3.45001 2.34996 3.95001 2.34996 4.52001V5.81001C2.34996 5.81001 1.62996 7.10001 1.41996 8.25001C1.20996 9.40001 1.55996 10.97 2.13996 11.91C2.31996 12.2 2.57996 12.67 2.97996 13.16C2.52996 13.92 1.90996 14.99 1.99996 14.99C2.08996 14.99 2.96996 14.29 3.57996 13.81C4.51996 14.69 5.97996 15.5 8.30996 15.5C12.54 15.5 14.62 12.06 14.69 10.84C16.97 10.18 17.47 8.10001 17.33 7.17001ZM12.1 12.76C11.53 13.05 10.38 13.26 9.58996 12.76C8.85996 12.3 8.86996 11.25 9.01996 10.75C9.16996 10.25 9.94996 9.10001 9.94996 9.10001C10.31 10.1 11.74 10.96 13.03 10.96C13.03 11.76 12.67 12.48 12.1 12.76Z" />
</svg>
