<svg width="18" height="18" viewBox="0 0 18 18" xmlns="http://www.w3.org/2000/svg">
  <path d="M15.93 8.98L16.46 8.46V8.47H16.94V8H16.46V8.2L15.17 7.94V7.63L16.23 6.91V7H16.71V6.53H16.23V6.59L15.52 6.19L15.78 5.58H16.09V5.11H15.61V5.35L14.66 5.42V5.04H14.49L14.89 4.32H15.26V3.85H14.78V4.01L14.09 3.9L14.02 3.25H14.2V2.78H13.72V3.07L12.97 3.45V3.25H12.59L12.66 2.42H12.92V1.95H12.44V2.22L11.77 2.4L11.4 1.78H11.48V1.31H11V1.78H11.05L10.54 2.4H10.09L9.83005 1.47H9.99005V1H9.51005V1.43L8.96005 1.87L8.46005 1.48V1H7.99005V1.48H8.14005L7.88005 2.4H7.43005L6.94005 1.8H6.97005V1.33H6.49005V1.8H6.56005L6.20005 2.4L5.55005 2.22V1.93H5.08005V2.41H5.33005L5.39005 3.28H5.00005V3.47L4.27005 3.13V2.79H3.79005V3.26H4.00005L3.92005 3.96L3.24005 4.09V3.85H2.76005V4.32H3.07005L3.49005 5.05H3.31005V5.44L2.39005 5.37V5.13H1.91005V5.6H2.23005L2.50005 6.2L1.81005 6.6V6.53H1.33005V7H1.81005V6.92L2.80005 7.6V7.95L1.53005 8.19V8.02H1.05005V8.49H1.51005L2.05005 9L1.51005 9.51H1.05005V9.98H1.53005V9.81L2.81005 10.03V10.36L1.80005 11.05V11.03H1.32005V11.5H1.80005V11.43L2.49005 11.81L2.23005 12.43H1.90005V12.9H2.38005V12.66L3.32005 12.57V12.94H3.51005L3.07005 13.73H2.75005V14.2H3.23005V13.99L3.92005 14.09L3.99005 14.77H3.81005V15.24H4.29005V14.94L5.02005 14.54V14.72H5.41005L5.34005 15.67H5.12005V16.14H5.60005V15.83L6.26005 15.63L6.62005 16.23H6.51005V16.7H6.99005V16.23H6.97005L7.48005 15.57H7.90005L8.16005 16.54H8.04005V17.01H8.52005V16.55L9.02005 16.15L9.57005 16.6V17.01H10.04V16.53H9.87005L10.14 15.59H10.59L11.1 16.24H11.03V16.71H11.51V16.24H11.42L11.8 15.6L12.45 15.79V16.11H12.92V15.63H12.67L12.61 14.72H13.01V14.51L13.75 14.88V15.23H14.23V14.76H14.02L14.1 14.07L14.8 13.97V14.2H15.28V13.73H14.94L14.52 12.95H14.68V12.56L15.63 12.66V12.94H16.11V12.47H15.79L15.5 11.81L16.24 11.39V11.52H16.72V11.05H16.24V11.12L15.17 10.41V10.08L16.47 9.84V10.01H16.95V9.54H16.49L15.93 8.98ZM16.47 8.23V8.43L15.92 8.96L15.18 8.24V7.97L16.47 8.23ZM16.23 6.62V6.88L15.17 7.6V7.45H14.98L15.51 6.21L16.23 6.62ZM15.61 5.38V5.58H15.75L15.5 6.17L14.67 5.7V5.45L15.61 5.38ZM14.67 5.91V5.73L15.49 6.2L14.95 7.45H14.3V7.75L13.63 7.57L13.64 6.74H13.39L13.95 5.92L14.67 5.91ZM13.42 10.02L14.02 9.09L14.4 9.67H14.3V10.27L13.61 10.5V10.01L13.42 10.02ZM10.74 12.29L10.85 10.95L12.28 10.83V11.32H12.85L12.7 12.66L11.3 12.82V12.28L10.74 12.29ZM7.95005 12.29L8.18005 12.03L9.82005 12.04L10.03 12.28H9.97005L9.96005 13.42L8.98005 14.17L7.97005 13.4L7.98005 12.29H7.95005ZM4.60005 8.03L3.97005 8.98L3.54005 8.31H3.67005V7.79L4.39005 7.59V8.03H4.60005ZM7.23005 5.69L7.09005 7.13L5.71005 7.29V6.73H5.14005L5.28005 5.33L6.67005 5.16V5.69H7.23005ZM10.03 5.69L9.78005 5.98L8.18005 5.97L7.93005 5.7H8.00005L8.01005 4.56L8.98005 3.81L10 4.59L9.99005 5.69H10.03ZM12.84 6.73L12.32 6.72L12.31 7.28L10.84 7.11L10.72 5.68H11.31V5.13L12.69 5.3L12.84 6.73ZM12.72 5.32L13.79 5.45V5.91H13.91L13.35 6.73L12.87 6.72L12.72 5.32ZM10.93 8.05L10.86 7.19L12.32 7.36L12.31 7.88L12.02 8.13V8.07L10.93 8.05ZM8.04005 10.14L8.03005 10.95L7.14005 10.86L7.05005 9.97L7.86005 9.98L7.87005 8.08L7.05005 8.07L7.14005 7.19L8.02005 7.09L8.01005 7.87L9.91005 7.88L9.92005 7.08L10.77 7.18L10.84 8.05L10.09 8.04L10.08 9.94L10.85 9.95L10.77 10.89L9.92005 10.96L9.93005 10.15L8.04005 10.14ZM5.98005 8.25L5.97005 9.83L5.72005 10.05V10.04L4.65005 10.03L3.98005 9.01L4.63005 8.03L5.70005 8.04V8.01L5.98005 8.25ZM5.71005 7.92V7.35L7.08005 7.19L6.99005 8.07L5.98005 8.06V8.16L5.71005 7.92ZM5.72005 10.14L5.97005 9.92V9.96L6.99005 9.97L7.08005 10.85L5.71005 10.71L5.72005 10.14ZM10.94 9.95L11.98 9.96L12.3 10.24V10.78L10.87 10.9L10.94 9.95ZM10.78 7.11L9.93005 7.01L9.94005 5.98H9.86005L10.11 5.69H10.65L10.78 7.11ZM8.09005 5.97H8.04005L8.03005 7.02L7.15005 7.12L7.30005 5.69H7.85005L8.09005 5.97ZM5.11005 6.72H4.60005L4.05005 5.92H4.16005V5.46L5.24005 5.33L5.11005 6.72ZM4.61005 10.04H4.39005V10.47L3.68005 10.25V9.67H3.56005L3.97005 9.05L4.61005 10.04ZM5.11005 11.36L5.25005 12.67L4.19005 12.55V12.05H4.11005L4.61005 11.34L5.11005 11.36ZM5.14005 11.36L5.71005 11.37L5.72005 10.78L7.10005 10.92L7.24005 12.29H6.68005V12.84L5.29005 12.69L5.14005 11.36ZM7.16005 10.92L8.04005 11.01L8.03005 12.04H8.09005L7.86005 12.3H7.30005L7.16005 10.92ZM9.91005 12.05H9.93005L9.94005 11.03L10.79 10.96L10.68 12.29H10.13L9.91005 12.05ZM12.88 11.33H13.34L13.88 12.06H13.79V12.53L12.73 12.65L12.88 11.33ZM12.29 10.01V10.15L12 9.9L12.01 8.21L12.3 7.96V8.05L13.34 8.06L13.99 9.06L13.37 10.02L12.29 10.01ZM14.02 9.02L13.39 8.06H13.63V7.6L14.3 7.78V8.31H14.47L14.02 9.02ZM14.78 4.04V4.33H14.86L14.46 5.05H14.21L14.09 3.94L14.78 4.04ZM13.72 3.1V3.25H13.99L14.0601 3.9L12.97 3.73V3.47L13.72 3.1ZM12.98 4.12V3.77L14.07 3.94L14.19 5.06H13.8V5.43L12.72 5.29L12.59 4.12H12.98ZM12.69 5.28L11.32 5.11V4.58L12.11 4.02V4.12H12.56L12.69 5.28ZM12.45 2.24V2.41H12.64L12.57 3.25H12.3L11.8 2.41L12.45 2.24ZM11.09 1.78H11.38L11.75 2.4L10.63 2.7V2.39H10.58L11.09 1.78ZM10.64 3.27V2.74L11.77 2.43L12.27 3.26H12.11V3.99L11.32 4.54V4.38L10.51 4.37L10.3 3.27H10.64ZM10.26 3.27L10.47 4.37H9.99005V4.55L9.00005 3.8L9.77005 3.21V3.28L10.26 3.27ZM9.51005 1.46V1.47H9.81005L10.07 2.4H9.76005V2.48L8.98005 1.88L9.51005 1.46ZM8.96005 1.9L9.76005 2.51V3.16L8.97005 3.77L8.19005 3.17V2.5L8.96005 1.9ZM8.17005 1.49H8.43005L8.95005 1.89L8.20005 2.48V2.41H7.90005L8.17005 1.49ZM8.20005 3.27V3.21L8.96005 3.79L8.02005 4.51V4.37H7.48005L7.69005 3.27H8.20005ZM6.59005 1.8H6.90005L7.39005 2.4H7.33005V2.7L6.22005 2.4L6.59005 1.8ZM6.22005 2.42L7.34005 2.73V3.27H7.66005L7.45005 4.37L6.70005 4.36V4.58L5.87005 4V3.28H5.70005L6.22005 2.42ZM5.36005 2.41H5.56005V2.25L6.19005 2.42L5.67005 3.28H5.42005L5.36005 2.41ZM5.41005 4.15H5.87005V4.04L6.69005 4.62V5.12L5.30005 5.29L5.41005 4.15ZM4.03005 3.25H4.27005V3.15L5.00005 3.5V3.76L3.95005 3.95L4.03005 3.25ZM3.95005 3.97L5.00005 3.78V4.14H5.37005L5.25005 5.29L4.17005 5.42V5.04H3.81005L3.95005 3.97ZM3.10005 4.31H3.24005V4.1L3.92005 3.98L3.80005 5.04H3.52005L3.10005 4.31ZM4.02005 5.92L4.57005 6.72H4.39005L4.38005 7.57L3.66005 7.77V7.46H3.07005L2.52005 6.23L3.30005 5.77V5.92H4.02005ZM2.25005 5.58H2.39005V5.38L3.31005 5.45V5.72L2.52005 6.18L2.25005 5.58ZM1.80005 6.9V6.63L2.50005 6.22L3.04005 7.44H2.80005V7.57L1.80005 6.9ZM1.53005 8.48V8.22L2.80005 7.98V8.3L2.07005 8.99L1.53005 8.48ZM1.53005 9.79V9.54L2.07005 9.03L2.80005 9.72V10.02L1.53005 9.79ZM2.81005 9.67V9.68L2.10005 9.01L2.83005 8.31H3.50005L3.95005 9.01L3.52005 9.66L2.81005 9.67ZM1.80005 11.4V11.08L2.81005 10.4V10.53H3.04005L2.50005 11.79L1.80005 11.4ZM2.37005 12.63V12.43H2.25005L2.51005 11.83L3.31005 12.28V12.55L2.37005 12.63ZM3.31005 12.07V12.25L2.52005 11.81L3.07005 10.54H3.68005V10.29L4.39005 10.51L4.38005 11.37H4.55005L4.05005 12.08L3.31005 12.07ZM3.22005 13.96V13.72H3.09005L3.53005 12.93H3.78005L3.90005 14.05L3.22005 13.96ZM4.28005 14.9V14.76H4.01005L3.94005 14.08L5.01005 14.23V14.5L4.28005 14.9ZM5.00005 13.84V14.2L3.93005 14.05L3.81005 12.92H4.18005V12.58L5.24005 12.7L5.36005 13.83L5.00005 13.84ZM5.28005 12.71L6.67005 12.86V13.38L5.88005 13.95V13.83H5.40005L5.28005 12.71ZM5.57005 15.79V15.65H5.34005L5.41005 14.7H5.67005L6.20005 15.59L5.57005 15.79ZM6.90005 16.22H6.61005L6.25005 15.61L7.32005 15.28V15.56H7.41005L6.90005 16.22ZM7.32005 14.69V15.25L6.23005 15.59L5.70005 14.71H5.87005V14L6.66005 13.43V13.61L7.45005 13.62L7.66005 14.7L7.32005 14.69ZM7.69005 14.69L7.48005 13.61H7.98005V13.44L8.96005 14.19L8.19005 14.78V14.68L7.69005 14.69ZM8.46005 16.53H8.15005L7.89005 15.56H8.19005V15.49L8.96005 16.12L8.46005 16.53ZM8.19005 15.46V14.84L8.99005 14.23L9.79005 14.84V15.47L8.99005 16.11L8.19005 15.46ZM9.81005 16.52H9.54005V16.56L9.01005 16.12L9.79005 15.49V15.57H10.09L9.81005 16.52ZM9.79005 14.71V14.8L9.02005 14.21L9.97005 13.48V13.62H10.5L10.29 14.72L9.79005 14.71ZM11.37 16.24H11.11L10.6 15.58H10.65V15.27L11.75 15.6L11.37 16.24ZM11.76 15.57L10.65 15.24V14.71H10.31L10.52 13.61L11.28 13.62V13.41L12.11 14.01V14.72H12.26L11.76 15.57ZM12.62 15.63H12.42V15.76L11.78 15.57L12.29 14.71H12.55L12.62 15.63ZM12.57 13.85H12.13V13.97L11.3 13.37V12.87L12.69 12.71L12.57 13.85ZM13.97 14.76H13.73V14.86L12.99 14.49V14.23L14.05 14.07L13.97 14.76ZM14.05 14.04L12.99 14.2V13.86H12.6L12.73 12.7L13.8 12.58V12.94H14.19L14.05 14.04ZM14.88 13.72H14.77V13.94L14.07 14.04L14.2 12.94H14.46L14.88 13.72ZM13.93 12.07L13.39 11.34H13.61L13.62 10.54L14.3101 10.31V10.54H14.92L15.46 11.79L14.67 12.24V12.08L13.93 12.07ZM15.75 12.45H15.62V12.62L14.67 12.52V12.26L15.47 11.8L15.75 12.45ZM16.23 11.13V11.34L15.48 11.77L14.94 10.54H15.17V10.42L16.23 11.13ZM14.45 9.66L14.05 9.05L14.52 8.31H15.18V8.28L15.9 8.98L15.17 9.69V9.67L14.45 9.66ZM16.47 9.79L15.17 10.03V9.72L15.91 9L16.46 9.54L16.47 9.79Z" />
</svg>
