<svg width="18" height="18" viewBox="0 0 18 18" xmlns="http://www.w3.org/2000/svg">
  <path d="M7.15998 7.35C7.15998 7.82 7.31998 8.11 7.94998 8.11C8.10998 8.11 8.36998 8.09 8.50998 8.05V7.46C8.45998 7.46 8.42998 7.46 8.39998 7.46C8.21998 7.46 8.17998 7.41 8.17998 7.28V6.35H8.56998V5.7H8.17998V5.1H7.17998V5.7H6.84998V6.35H7.16998V7.35H7.15998ZM12.6 6.3C12.38 6.3 12.32 6.46 12.32 6.9C12.32 7.29 12.38 7.48 12.59 7.48C12.8 7.48 12.88 7.32 12.88 6.87C12.89 6.41 12.78 6.3 12.6 6.3ZM8.99998 2C5.91998 2.26 4.01998 2.86 2.60999 3.6V8.71C2.60999 11.97 5.22998 15.49 8.99998 16C12.77 15.49 15.39 11.97 15.39 8.71V3.6C13.98 2.86 12.08 2.26 8.99998 2ZM9.30998 5.69H9.63998V5.09H10.64V5.69H11.03V6.34H10.64V7.27C10.64 7.4 10.68 7.45 10.86 7.45C10.89 7.45 10.92 7.45 10.97 7.45V8.04C10.83 8.08 10.57 8.1 10.41 8.1C9.78998 8.1 9.61998 7.81 9.61998 7.34V6.34H9.29998V5.69H9.30998ZM8.99998 13.52V15.36C7.41998 15.12 5.95998 14.28 4.87998 12.98C3.83998 11.74 3.24998 10.18 3.24998 8.71V3.99C4.72998 3.28 6.57998 2.85 8.99998 2.64V11.71L11.36 9.35L12.26 10.25L8.99998 13.52ZM12.88 8.13C12.61 8.13 12.45 8.04 12.35 7.92V8.91H11.33V6.39C11.33 6.16 11.33 5.84 11.33 5.7H12.32C12.33 5.76 12.34 5.89 12.34 5.95C12.43 5.82 12.61 5.64 13 5.64C13.48 5.64 13.92 6.03 13.92 6.83C13.93 7.74 13.41 8.13 12.88 8.13ZM7.68998 10.4L6.78998 11.3L8.99998 13.52V11.71L7.68998 10.4ZM5.85998 5.63C5.51998 5.63 5.31998 5.78 5.18998 5.92V4.82H4.16998V8.06H5.18998V6.75C5.18998 6.5 5.21998 6.34 5.41998 6.34C5.55998 6.34 5.61998 6.43 5.61998 6.63V8.07H6.63998V6.52C6.62998 5.97 6.37998 5.63 5.85998 5.63Z" />
</svg>
