<svg width="18" height="18" viewBox="0 0 18 18" xmlns="http://www.w3.org/2000/svg">
  <path d="M14.9399 12.17L14.7199 11.78C14.71 11.76 14.7 11.75 14.68 11.75L14.37 11.63L16.3 9.7L10.96 4.36L9.30995 6.13C9.28995 6.15 9.26995 6.16 9.23995 6.16C9.21995 6.16 9.18995 6.15 9.17995 6.14C9.13995 6.11 9.13995 6.05 9.17995 6.01L10.83 4.24L8.99995 2.41L6.65995 4.75L7.93995 6.06C7.97995 6.1 7.97995 6.16 7.93995 6.19C7.91995 6.21 7.89995 6.22 7.87995 6.22C7.85995 6.22 7.82995 6.21 7.80995 6.19L6.52995 4.88L1.69995 9.7L3.42995 11.43L3.39995 11.53C3.31995 11.56 3.23995 11.61 3.16995 11.67C2.98995 11.84 2.88995 12.43 2.90995 12.86C2.91995 13.14 2.97995 13.32 3.07995 13.4C3.16995 13.47 3.22995 13.5 3.30995 13.44C3.32995 13.42 3.34995 13.41 3.44995 13.42C3.60995 13.45 3.64995 13.5 3.64995 13.52C3.64995 13.56 3.67995 13.6 3.71995 13.6L4.89995 13.67C5.14995 13.66 5.35995 13.62 5.54995 13.55L8.99995 17L12.48 13.52L12.8 13.31L12.83 13.37C12.84 13.39 12.86 13.4 12.87 13.41C13.1399 13.5 13.42 13.53 13.68 13.53C13.89 13.53 14.0999 13.51 14.2899 13.49C14.2999 13.49 14.3099 13.49 14.32 13.48L14.8 13.21C14.81 13.2 14.83 13.19 14.83 13.17C14.93 12.93 14.97 12.61 14.96 12.2C14.95 12.19 14.95 12.18 14.9399 12.17ZM13.33 10.14C13.57 10.1 13.77 10.12 13.88 10.22C13.97 10.3 14.02 10.41 14.01 10.57C14.01 10.59 14.0099 10.6 14.0199 10.61C14.1899 10.86 14.2099 11.02 14.0899 11.3C14.0099 11.35 13.86 11.4 13.3899 11.4H13.38L13.0399 11.46H12.5199L12.34 11.2C12.33 11.11 12.31 11.01 12.26 10.88C12.26 10.76 12.26 10.59 12.21 10.44L12.26 10.19C12.32 10.19 12.38 10.18 12.43 10.17L12.93 10.13H13.31C13.32 10.14 13.33 10.14 13.33 10.14ZM12.7699 9.14L13.05 9.34L13.17 9.82C12.8899 9.94 12.66 10.03 12.54 10C12.52 10 12.51 10 12.5 10C12.48 10.01 12.46 10.01 12.43 10.02L12.21 10.04C12.14 10.04 12.07 10.04 11.99 10.04C11.94 10.04 11.88 10.04 11.83 10.04C11.8 10.04 11.77 10.04 11.73 10.04H10.8C10.5 10 10.28 9.91 10.17 9.77L10.16 9.76C10.02 9.65 9.94995 9.49 9.95995 9.27C9.95995 9.26 9.95995 9.24 9.94995 9.23C9.92995 9.2 9.88995 9.12 10.05 8.99L10.72 8.93H12.53L12.7699 9.14ZM12.18 11.34C12.17 11.36 12.14 11.37 12.11 11.37C12.09 11.37 12.07 11.37 12.06 11.37C12 11.34 11.93 11.32 11.86 11.29C11.79 11.26 11.72 11.24 11.65 11.21C11.45 11.13 11.25 11.03 11.11 10.91C11.05 10.86 11 10.8 10.97 10.73C10.96 10.72 10.96 10.71 10.95 10.7C10.92 10.68 10.89 10.66 10.87 10.63C10.6899 10.47 10.73 10.38 10.83 10.24L11.85 10.26C12.08 10.34 12.13 10.57 12.12 10.9C12.12 10.91 12.12 10.92 12.12 10.93C12.2299 11.22 12.2 11.31 12.18 11.34ZM11.46 7.83C11.48 7.82 11.58 7.75 12.15 7.85C12.36 8 12.43 8.16 12.39 8.33C12.39 8.34 12.39 8.35 12.39 8.36C12.4 8.45 12.34 8.56 12.22 8.69H10.86C10.85 8.69 10.84 8.69 10.84 8.69C10.56 8.78 10.32 8.81 10.12 8.78H10.11C9.93995 8.79 9.77995 8.75 9.64995 8.68C9.63995 8.68 9.62995 8.67 9.61995 8.66L9.54995 8.47L9.58995 8.2L9.61995 7.96L10.73 7.88L11.43 7.86C11.43 7.85 11.45 7.84 11.46 7.83ZM9.37995 8.5L9.41995 8.62C9.35995 8.65 9.29995 8.67 9.22995 8.68C9.16995 8.67 9.11995 8.66 9.05995 8.64C9.04995 8.64 9.03995 8.64 9.02995 8.64L8.55995 8.73L7.72995 8.75C7.71995 8.75 7.70995 8.75 7.69995 8.75C7.51995 8.82 7.21995 8.77 6.83995 8.7L6.85995 8C6.89995 7.98 6.93995 7.96 6.97995 7.94C7.10995 7.88 7.21995 7.85 7.30995 7.86C7.31995 7.86 7.31995 7.86 7.31995 7.86C7.68995 7.8 8.09995 7.75 8.36995 7.81C8.37995 7.81 8.38995 7.81 8.39995 7.81C8.67995 7.77 8.90995 7.81 9.11995 7.85H9.12995C9.23995 7.95 9.32995 8.07 9.38995 8.21L9.35995 8.46C9.36995 8.47 9.36995 8.49 9.37995 8.5ZM8.03995 8.98L8.56995 8.88L9.03995 8.79C9.10995 8.8 9.16995 8.82 9.22995 8.83C9.55995 8.91 9.72995 8.99 9.72995 9.15V9.57C9.66995 9.67 9.29995 9.7 9.15995 9.71L8.49995 9.81C8.40995 9.79 8.32995 9.79 8.23995 9.81C8.03995 9.76 7.91995 9.68 7.85995 9.54C7.77995 9.3 7.83995 9.12 8.03995 8.98ZM9.44995 6.73C9.70995 6.63 10.13 6.72 10.43 6.79L10.5199 6.81C10.53 6.81 10.54 6.81 10.55 6.81C10.75 6.77 10.9 6.82 11.01 6.96L11.0199 6.97C11.14 7.08 11.28 7.35 11.2 7.44C11.19 7.46 11.18 7.48 11.18 7.5C11.19 7.63 11.16 7.68 11.15 7.69C11.14 7.69 11.13 7.71 11.08 7.7H11.07H10.31L9.46995 7.76C9.21995 7.72 9.08995 7.59 9.06995 7.36C9.06995 7.35 9.06995 7.34 9.05995 7.33C8.97995 7.17 8.91995 7.04 8.87995 6.85C9.03995 6.8 9.21995 6.76 9.42995 6.74C9.43995 6.73 9.43995 6.73 9.44995 6.73ZM8.03995 6.22C8.04995 6.22 8.04995 6.22 8.05995 6.21C8.34995 6.04 8.99995 6 9.15995 6.14L9.30995 6.36C9.29995 6.44 9.27995 6.5 9.23995 6.53C9.19995 6.56 9.13995 6.57 9.04995 6.55C9.03995 6.55 9.02995 6.55 9.01995 6.55L8.01995 6.67C7.89995 6.69 7.81995 6.68 7.77995 6.64C7.73995 6.6 7.70995 6.53 7.70995 6.42C7.76995 6.31 7.87995 6.26 8.03995 6.22ZM5.98995 7.49L6.52995 7.23L7.13995 6.87H8.42995C8.61995 6.92 8.71995 7.08 8.71995 7.37C8.71995 7.38 8.71995 7.39 8.72995 7.4C8.75995 7.47 8.77995 7.52 8.75995 7.55C8.73995 7.58 8.67995 7.61 8.59995 7.62L8.38995 7.65C8.12995 7.59 7.77995 7.63 7.31995 7.7C7.20995 7.7 7.08995 7.73 6.95995 7.78H6.42995C6.41995 7.78 6.41995 7.78 6.40995 7.78C6.21995 7.83 6.09995 7.83 6.03995 7.78C5.96995 7.73 5.96995 7.6 5.98995 7.49ZM5.70995 8.25L6.34995 8.09C6.40995 8.09 6.48995 8.09 6.51995 8.14C6.55995 8.18 6.54995 8.26 6.53995 8.32C6.53995 8.34 6.53995 8.35 6.53995 8.36C6.59995 8.51 6.56995 8.61 6.44995 8.69L5.63995 8.82C5.50995 8.84 5.39995 8.79 5.30995 8.67C5.29995 8.6 5.30995 8.45 5.70995 8.25ZM4.67995 9.43C4.77995 9.3 4.87995 9.22 4.99995 9.19C5.00995 9.19 5.01995 9.18 5.02995 9.18C5.20995 9.04 5.39995 9.02 5.64995 9.02H6.29995L6.89995 8.97L7.32995 9.12L7.54995 9.32L7.51995 9.96L7.22995 10.04C7.09995 9.99 6.94995 10.02 6.75995 10.13L5.30995 10.08C5.29995 10.08 5.29995 10.08 5.29995 10.08C5.07995 10.12 4.87995 10.07 4.66995 9.94C4.60995 9.74 4.60995 9.58 4.67995 9.43ZM7.05995 11.16C7.00995 11.2 6.95995 11.22 6.90995 11.22C6.83995 11.22 6.76995 11.19 6.69995 11.13C6.54995 10.54 6.63995 10.41 6.68995 10.38C6.72995 10.35 6.76995 10.32 6.80995 10.3H6.89995C6.90995 10.3 6.90995 10.3 6.91995 10.3L7.20995 10.22C7.27995 10.28 7.32995 10.41 7.34995 10.61L7.03995 11.1C7.03995 11.1 7.03995 11.13 7.05995 11.16ZM3.62995 11.32V11.31C3.66995 10.87 3.75995 10.54 3.86995 10.4C4.18995 10.23 4.47995 10.19 4.71995 10.29C4.72995 10.29 4.72995 10.29 4.73995 10.3L5.49995 10.36H6.23995C6.29995 10.36 6.34995 10.37 6.37995 10.4C6.42995 10.45 6.45995 10.56 6.45995 10.71L6.40995 11.41C6.36995 11.44 6.32995 11.47 6.29995 11.51C6.23995 11.57 6.19995 11.64 6.15995 11.71C6.05995 11.71 5.92995 11.71 5.73995 11.77C5.18995 11.94 4.56995 11.84 3.96995 11.74C3.81995 11.72 3.67995 11.69 3.53995 11.68L3.62995 11.32ZM5.94995 12.66C5.94995 12.67 5.94995 12.67 5.94995 12.68V12.91L5.87995 13.22C5.62995 13.41 5.31995 13.51 4.90995 13.53L3.78995 13.46C3.75995 13.4 3.67995 13.32 3.47995 13.28C3.32995 13.25 3.26995 13.29 3.21995 13.32C3.20995 13.31 3.19995 13.31 3.17995 13.29C3.12995 13.25 3.07995 13.12 3.06995 12.87C3.04995 12.44 3.15995 11.92 3.28995 11.79C3.30995 11.77 3.32995 11.75 3.35995 11.74C3.35995 11.76 3.35995 11.78 3.36995 11.79C3.37995 11.81 3.39995 11.82 3.41995 11.82C3.57995 11.84 3.74995 11.87 3.92995 11.89C4.28995 11.95 4.66995 12.01 5.04995 12.01C5.28995 12.01 5.52995 11.98 5.74995 11.92C5.84995 11.99 5.93995 12.08 6.02995 12.23L5.94995 12.66ZM7.20995 12.26L7.17995 12.34L6.91995 13.12C6.70995 13.4 6.55995 13.53 6.44995 13.53C6.34995 13.53 6.23995 13.43 6.10995 13.23V12.68L6.21995 12.12C6.21995 12.11 6.21995 12.1 6.21995 12.1C6.20995 12.03 6.22995 11.94 6.25995 11.86C6.37995 11.85 6.45995 11.8 6.54995 11.62C6.54995 11.61 6.55995 11.6 6.55995 11.59L6.56995 11.5C6.62995 11.47 6.68995 11.45 6.75995 11.46H6.76995L7.17995 11.42L7.35995 11.51C7.41995 11.72 7.32995 11.95 7.20995 12.26ZM8.78995 10.42L8.55995 10.68C8.03995 11.16 7.67995 11.41 7.50995 11.41L7.27995 11.16C7.29995 11.14 7.30995 11.12 7.32995 11.11C7.32995 11.1 7.33995 11.1 7.33995 11.09L7.51995 10.66C7.51995 10.65 7.52995 10.64 7.52995 10.63L7.58995 10.54C7.69995 10.44 7.82995 10.34 7.93995 10.25C8.07995 10.14 8.19995 10.05 8.25995 9.98C8.28995 9.99 8.30995 9.99 8.33995 9.99H8.34995H8.35995L8.48995 9.97C8.58995 10 8.67995 10.05 8.75995 10.12C8.76995 10.13 8.77995 10.15 8.79995 10.16V10.42H8.78995ZM10.19 11.03L9.47995 10.67C9.29995 10.57 9.11995 10.51 8.94995 10.5V10L9.48995 9.88L10.17 10.08L10.47 10.3L10.5 10.77C10.31 10.87 10.21 10.95 10.19 11.03ZM10.85 11.57L10.42 11.14L10.64 10.88C10.7 10.86 10.76 10.83 10.84 10.8C10.84 10.8 10.84 10.8 10.85 10.81C11.03 11.13 11.46 11.3 11.82 11.43C11.8899 11.46 11.96 11.48 12.0199 11.51C12.03 11.51 12.03 11.51 12.04 11.52C12.13 11.66 12.09 11.77 12.04 11.85L12.03 11.86C11.95 11.88 11.87 11.93 11.81 12.01L11.63 12.15L11.5 12.25L10.85 11.57ZM12.35 13.42C12.12 13.42 12.04 13.3 11.95 13.16C11.94 13.14 11.92 13.12 11.91 13.1C11.89 13.07 11.86 13.04 11.84 13.01C11.71 12.85 11.54 12.64 11.53 12.43L11.71 12.29L12.09 12.01C12.15 12.01 12.21 12.03 12.28 12.07C12.28 12.1 12.29 12.14 12.3 12.17L12.5199 12.78V12.79L12.64 13.02L12.68 13.2L12.35 13.42ZM14.6899 13.09L14.25 13.34C13.85 13.38 13.3899 13.41 12.9399 13.28L12.66 12.73L12.45 12.13C12.43 12.04 12.41 11.91 12.47 11.85C12.5199 11.8 12.62 11.79 12.7699 11.81C12.78 11.81 12.79 11.81 12.79 11.81L13.65 11.69L14.24 11.73L14.6 11.87L14.7899 12.22C14.8099 12.59 14.7699 12.88 14.6899 13.09ZM3.01995 1.03C2.97995 0.99 2.92995 0.99 2.88995 1.03C2.84995 1.07 2.84995 1.12 2.88995 1.16L6.52995 4.88L6.65995 4.75L3.01995 1.03ZM13.9 1.22C13.93 1.18 13.93 1.12 13.9 1.09C13.86 1.06 13.8 1.06 13.7699 1.09L10.83 4.24L10.96 4.37L13.9 1.22Z" />
</svg>
