<svg width="18" height="18" viewBox="0 0 18 18" xmlns="http://www.w3.org/2000/svg">
  <path d="M16.68 10.76L14.9 3.77999C14.83 3.51999 14.63 3.30999 14.37 3.23999L7.43001 1.27999C7.17001 1.20999 6.89001 1.27999 6.69001 1.46999L1.53001 6.49999C1.34001 6.68999 1.26001 6.96999 1.32001 7.22999L3.10001 14.22C3.17001 14.48 3.37001 14.69 3.63001 14.76L10.57 16.71C10.64 16.73 10.71 16.74 10.78 16.74C10.98 16.74 11.17 16.66 11.31 16.52L16.47 11.49C16.66 11.31 16.74 11.03 16.68 10.76ZM12.66 4.33999L10.27 5.13999L8.81001 3.24999L12.66 4.33999ZM11.12 11.05L6.33001 9.24999L9.93001 6.24999L11.12 11.05ZM7.44001 2.86999L7.58001 2.90999L9.62001 5.52999L5.56001 8.89999L3.10001 7.09999L7.44001 2.86999ZM3.10001 8.03999L5.13001 9.52999L4.19001 12.34L3.10001 8.03999ZM10.58 15.11L10.56 15.13L4.62001 13.46L5.82001 9.86999L11.23 11.9L10.58 15.11ZM11.55 14.17L11.99 11.99L14.16 11.63L11.55 14.17ZM11.95 11.23L10.6 5.82999L13.6 4.82999L15.1 10.71L11.95 11.23Z" />
</svg>
