<svg width="18" height="18" viewBox="0 0 18 18" xmlns="http://www.w3.org/2000/svg">
  <path d="M2.05005 13.09L8.81005 17V9.19L2.05005 5.28V13.09ZM2.52005 6.35C2.60005 6.31 2.68005 6.27 2.75005 6.22L7.66005 9.05C7.60005 9.56 7.88005 10.05 8.36005 10.26V15.93C8.28005 15.97 8.20005 16.01 8.13005 16.06L3.22005 13.23C3.28005 12.72 3.00005 12.23 2.52005 12.02V6.35ZM3.59005 13.01L7.98005 15.54V10.48C7.56005 10.21 7.30005 9.76 7.28005 9.26L2.89005 6.73V11.8C3.30005 12.07 3.56005 12.52 3.59005 13.01ZM9.00005 2.54C8.75005 2.54 8.51005 2.48 8.30005 2.37L3.91005 4.91L8.30005 7.44C8.52005 7.33 8.75005 7.27 9.00005 7.27C9.25005 7.27 9.49005 7.33 9.70005 7.44L14.09 4.91L9.70005 2.37C9.48005 2.48 9.24005 2.54 9.00005 2.54ZM10.02 10.48V15.51L14.41 12.98C14.43 12.48 14.69 12.03 15.11 11.76V6.7L10.72 9.26C10.7 9.76 10.44 10.21 10.02 10.48ZM9.00005 1L2.23005 4.91L9.00005 8.81L15.77 4.9L9.00005 1ZM8.30005 7.87L3.39005 5.04C3.40005 4.95 3.40005 4.86 3.39005 4.78L8.30005 1.94C8.71005 2.25 9.28005 2.25 9.69005 1.94L14.6 4.77C14.59 4.86 14.59 4.95 14.6 5.03L9.69005 7.87C9.28005 7.56 8.72005 7.56 8.30005 7.87ZM9.19005 9.19V17L15.96 13.09V5.28L9.19005 9.19ZM15.48 11.99C15.01 12.2 14.73 12.68 14.78 13.2L9.87005 16.03C9.80005 15.98 9.72005 15.93 9.64005 15.9L9.63005 10.27C10.1 10.06 10.38 9.58 10.33 9.06L15.24 6.2C15.31 6.25 15.39 6.3 15.47 6.33V11.99H15.48Z" />
</svg>
