<svg width="18" height="18" viewBox="0 0 18 18" xmlns="http://www.w3.org/2000/svg">
  <path d="M1.63 13.18L8.24001 17V9.41L1.63 5.59V13.18ZM3.93 8.18L4.53 10.78C4.71 11.58 4.84001 12.17 4.94001 12.78L4.96 12.79C5.05 12.34 5.19 11.88 5.38 11.28L6.00001 9.37L7.17 10.05L5.6 14.22L4.24001 13.44L2.7 7.47L3.93 8.18ZM9.02 1L2.45 4.8L9.06001 8.62L15.63 4.82L9.02 1ZM5.05 4.47L8.46001 2.5L9.63 3.18L6.22001 5.15L5.05 4.47ZM12.2 5.95C11.43 6.4 10.46 6.26 9.7 5.82L9.17 5.51L8.00001 6.18L6.86 5.52L10.27 3.55L11.98 4.54C12.78 5 12.88 5.56 12.2 5.95ZM9.76 9.41V17L16.37 13.18V5.59L9.76 9.41ZM13.08 13.91C11.91 14.58 11.28 14.31 11.18 13.41L12.32 12.75C12.41 13.17 12.7 13.19 13.16 12.93C13.6 12.68 13.79 12.38 13.79 12.06C13.79 11.69 13.58 11.67 12.87 11.89C11.6 12.28 11.33 11.9 11.33 11.22C11.33 10.33 11.91 9.35 13.04 8.7C14.28 7.99 14.77 8.44 14.83 9.18L13.7 9.84C13.66 9.58 13.54 9.35 13.02 9.64C12.69 9.83 12.49 10.1 12.49 10.4C12.49 10.7 12.66 10.73 13.35 10.52C14.67 10.12 14.96 10.51 14.96 11.24C14.95 12.18 14.32 13.19 13.08 13.91ZM10.98 4.83L10.66 4.65L9.92 5.07L10.25 5.26C10.51 5.41 10.8 5.44 11.05 5.3C11.3 5.15 11.25 4.98 10.98 4.83Z" />
</svg>
