<svg width="18" height="18" viewBox="0 0 18 18" xmlns="http://www.w3.org/2000/svg">
  <path d="M8.18006 8.14C8.33006 8.14 8.46006 8.02 8.46006 7.87L8.54006 6.21L8.21006 6.28C7.63006 6.41 7.10006 6.71 6.67006 7.12L8.04006 8.1C8.10006 8.13 8.13006 8.14 8.18006 8.14ZM9.49006 8.03C9.57006 8.15 9.74006 8.16 9.85006 8.1L11.2101 7.14C10.7101 6.64 10.0701 6.33 9.34006 6.25L9.44006 7.92C9.44006 7.96 9.46006 8 9.49006 8.03ZM7.46006 9.22C7.56006 9.1 7.54006 8.94 7.43006 8.84L6.20006 7.75C5.84006 8.36 5.67006 9.08 5.72006 9.77L7.32006 9.3C7.39006 9.29 7.42006 9.27 7.46006 9.22ZM8.52006 9.8L8.97006 10.02L9.42006 9.8L9.54006 9.32L9.23006 8.92H8.73006L8.42006 9.32L8.52006 9.8ZM10.2001 10.28C10.0801 10.33 10.0201 10.46 10.0501 10.59L10.7001 12.15C11.1001 11.9 11.4501 11.55 11.6901 11.16C11.8201 10.98 11.9201 10.76 12.0001 10.53L10.3401 10.25C10.3001 10.25 10.2501 10.26 10.2001 10.28ZM7.55006 10.26L5.91006 10.54C6.14006 11.2 6.61006 11.78 7.19006 12.16L7.82006 10.64C7.85006 10.59 7.85006 10.52 7.84006 10.47C7.82006 10.35 7.69006 10.26 7.55006 10.26ZM14.9701 5.11C14.8901 4.84 14.6901 4.63 14.4401 4.5L9.39006 2.08C9.26006 2.01 9.11006 2 8.98006 2C8.85006 2 8.70006 2 8.57006 2.03L3.51006 4.47C3.26006 4.59 3.08006 4.8 3.01006 5.08L1.77006 10.53C1.72006 10.81 1.79006 11.09 1.95006 11.32L5.44006 15.64C5.64006 15.84 5.92006 15.97 6.20006 15.99H11.7601C12.0601 16.02 12.3401 15.89 12.5201 15.64L16.0101 11.32C16.1801 11.09 16.2401 10.81 16.2101 10.53L14.9701 5.11ZM14.1601 10.89C14.1301 10.89 14.1101 10.89 14.0801 10.87C14.0601 10.85 14.0601 10.85 14.0501 10.85C14.0201 10.85 14.0001 10.83 13.9801 10.83C13.9101 10.81 13.8601 10.78 13.8001 10.75C13.7701 10.75 13.7301 10.73 13.7001 10.72H13.6801C13.5101 10.65 13.3301 10.6 13.1501 10.57H13.1301C13.0801 10.57 13.0301 10.59 13.0001 10.62C13.0001 10.62 13.0001 10.64 12.9801 10.64L12.8501 10.62C12.5501 11.56 11.9101 12.36 11.0601 12.87L11.1101 13C11.1101 13 11.0901 13 11.0901 13.02C11.0601 13.07 11.0601 13.14 11.0701 13.19C11.1401 13.36 11.2201 13.52 11.3301 13.67V13.7C11.3601 13.73 11.3801 13.75 11.4001 13.78C11.4501 13.83 11.4801 13.88 11.5201 13.95C11.5401 13.97 11.5501 13.98 11.5501 14C11.5501 14 11.5701 14 11.5701 14.02C11.6001 14.1 11.6001 14.19 11.5901 14.27C11.5801 14.35 11.5101 14.42 11.4401 14.45C11.3901 14.47 11.3601 14.48 11.3101 14.48C11.1801 14.48 11.0601 14.4 11.0001 14.28C10.9801 14.28 10.9801 14.26 10.9801 14.26C10.9601 14.24 10.9601 14.23 10.9501 14.21C10.9201 14.16 10.9001 14.09 10.8801 14.03L10.8501 13.93V13.91C10.8001 13.73 10.7201 13.56 10.6301 13.4C10.6001 13.35 10.5501 13.32 10.5001 13.3C10.5001 13.28 10.5001 13.28 10.4801 13.28L10.4101 13.16C10.2401 13.21 10.0601 13.28 9.88006 13.31C9.58006 13.39 9.28006 13.43 8.99006 13.43C8.49006 13.43 8.01006 13.35 7.55006 13.17L7.48006 13.3C7.48006 13.32 7.48006 13.32 7.46006 13.32C7.41006 13.34 7.36006 13.37 7.33006 13.42C7.25006 13.59 7.16006 13.75 7.11006 13.93L7.08006 14.03C7.06006 14.1 7.03006 14.15 7.01006 14.21C6.99006 14.23 6.98006 14.24 6.98006 14.26C6.96006 14.26 6.96006 14.28 6.96006 14.28C6.89006 14.4 6.78006 14.48 6.65006 14.48C6.62006 14.48 6.57006 14.46 6.53006 14.45C6.38006 14.37 6.31006 14.17 6.40006 14C6.42006 14 6.42006 13.98 6.42006 13.98C6.44006 13.96 6.44006 13.95 6.45006 13.93C6.50006 13.86 6.53006 13.8 6.57006 13.76C6.60006 13.73 6.62006 13.71 6.64006 13.68V13.66C6.74006 13.51 6.84006 13.35 6.90006 13.18C6.92006 13.13 6.92006 13.06 6.88006 13.01C6.88006 13.01 6.86006 13.01 6.86006 12.99L6.94006 12.87C6.77006 12.79 6.64006 12.69 6.49006 12.57C5.84006 12.07 5.38006 11.39 5.13006 10.63L4.98006 10.65C4.98006 10.65 4.98006 10.63 4.96006 10.63C4.93006 10.6 4.88006 10.58 4.83006 10.58H4.81006C4.61006 10.61 4.45006 10.66 4.26006 10.73H4.24006C4.21006 10.73 4.17006 10.75 4.14006 10.76C4.09006 10.78 4.02006 10.81 3.96006 10.83C3.94006 10.83 3.89006 10.81 3.89006 10.83C3.89006 10.85 3.89006 10.85 3.87006 10.85C3.84006 10.87 3.82006 10.87 3.79006 10.87C3.64006 10.89 3.49006 10.79 3.46006 10.64C3.43006 10.46 3.54006 10.29 3.72006 10.26C3.74006 10.24 3.74006 10.24 3.75006 10.24C3.78006 10.24 3.80006 10.22 3.82006 10.22C3.89006 10.22 3.95006 10.2 4.02006 10.2C4.05006 10.18 4.09006 10.18 4.12006 10.18C4.32006 10.16 4.50006 10.13 4.68006 10.08C4.73006 10.05 4.78006 10.01 4.80006 9.96C4.80006 9.96 4.82006 9.96 4.82006 9.94L4.95006 9.91C4.80006 8.97 5.02006 8.01 5.53006 7.19C5.55006 7.16 5.56006 7.14 5.58006 7.11L5.48006 7.01V7.03C5.50006 6.98 5.46006 6.91 5.43006 6.88C5.30006 6.75 5.13006 6.65 4.97006 6.55C4.94006 6.53 4.90006 6.52 4.87006 6.5C4.80006 6.47 4.74006 6.43 4.69006 6.4C4.67006 6.4 4.64006 6.37 4.64006 6.37C4.64006 6.37 4.64006 6.35 4.62006 6.35C4.49006 6.23 4.45006 6.04 4.55006 5.89C4.60006 5.81 4.68006 5.77 4.78006 5.77C4.86006 5.77 4.95006 5.8 5.01006 5.85C5.01006 5.85 5.01006 5.85 5.03006 5.87C5.05006 5.89 5.06006 5.89 5.08006 5.9C5.13006 5.95 5.16006 6 5.21006 6.05C5.23006 6.07 5.26006 6.08 5.28006 6.12C5.40006 6.25 5.55006 6.38 5.69006 6.5C5.72006 6.52 5.76006 6.53 5.79006 6.53C5.82006 6.53 5.84006 6.51 5.86006 6.51H5.88006L5.98006 6.58C6.53006 6 7.24006 5.59 8.02006 5.42C8.22006 5.39 8.40006 5.35 8.58006 5.34L8.60006 5.21V5.18C8.65006 5.15 8.67006 5.1 8.68006 5.05C8.68006 4.85 8.68006 4.67 8.65006 4.49V4.5C8.65006 4.47 8.65006 4.43 8.63006 4.4C8.61006 4.33 8.60006 4.27 8.60006 4.2V4.12C8.60006 4.04 8.63006 3.95 8.70006 3.89C8.78006 3.81 8.88006 3.76 8.98006 3.77C9.15006 3.79 9.28006 3.95 9.26006 4.12V4.22C9.24006 4.29 9.24006 4.35 9.23006 4.42C9.23006 4.45 9.21006 4.49 9.21006 4.52V4.54C9.18006 4.74 9.18006 4.92 9.18006 5.1C9.20006 5.15 9.21006 5.2 9.26006 5.23V5.21L9.28006 5.34C10.0601 5.42 10.8201 5.72 11.4301 6.2C11.5601 6.33 11.7101 6.46 11.8401 6.6L11.9701 6.52H11.9901C12.0101 6.54 12.0401 6.54 12.0601 6.54C12.0901 6.54 12.1301 6.52 12.1601 6.51C12.3101 6.41 12.4601 6.28 12.5701 6.15C12.5901 6.13 12.6201 6.12 12.6401 6.08C12.6701 6.03 12.7201 5.98 12.7701 5.93C12.7901 5.93 12.8001 5.91 12.8201 5.9L12.8401 5.88C12.9101 5.83 12.9901 5.8 13.0701 5.8C13.1501 5.8 13.2501 5.85 13.3001 5.92C13.4201 6.07 13.3801 6.27 13.2301 6.38C13.2301 6.4 13.2501 6.4 13.2301 6.41C13.2101 6.43 13.2001 6.43 13.1801 6.44C13.1101 6.47 13.0601 6.51 13.0001 6.54C12.9701 6.56 12.9301 6.57 12.9001 6.59C12.7301 6.69 12.5901 6.79 12.4401 6.92C12.4101 6.95 12.3901 7.02 12.3901 7.07V7.09L12.2901 7.19C12.5501 7.6 12.7501 8.07 12.8701 8.55C12.9701 9.03 13.0001 9.53 12.9401 10.01L13.0701 10.04C13.0901 10.09 13.1401 10.14 13.1901 10.16C13.3701 10.21 13.5701 10.24 13.7501 10.26H13.7701C13.8001 10.28 13.8401 10.28 13.8701 10.28C13.9401 10.28 14.0001 10.28 14.0701 10.3C14.1001 10.3 14.1401 10.3 14.1401 10.32C14.1401 10.34 14.1601 10.34 14.1701 10.34C14.3201 10.37 14.4501 10.51 14.4701 10.69C14.4401 10.79 14.3101 10.89 14.1601 10.89ZM11.7101 7.75L10.4701 8.88C10.4401 8.91 10.4201 8.95 10.4001 9C10.3701 9.15 10.4501 9.3 10.6001 9.33L12.1701 9.78C12.2001 9.43 12.1901 9.08 12.1001 8.74C12.0301 8.38 11.8901 8.04 11.7101 7.75ZM9.06006 10.98C8.94006 10.91 8.81006 10.95 8.73006 11.05L7.92006 12.52C8.25006 12.62 8.62006 12.69 8.96006 12.69C9.21006 12.69 9.44006 12.66 9.67006 12.61C9.79006 12.58 9.89006 12.56 9.98006 12.54L9.19006 11.1C9.14006 11.04 9.11006 11.01 9.06006 10.98Z" />
</svg>
