<svg width="18" height="18" viewBox="0 0 18 18" xmlns="http://www.w3.org/2000/svg">
  <path d="M16.9699 2L1.02991 6.92L4.52991 10.68L16.7999 2.11L4.81991 10.93L5.78991 13.74L6.14991 11.93L16.9699 2L6.49991 12.13L6.48991 12.16L13.2899 16L16.9699 2ZM12.9399 12.71V13.42H10.5099V12.62C10.5099 11.92 11.0799 11.35 11.7799 11.35H11.9799C12.1599 11.35 12.2999 11.21 12.2999 11.03C12.2999 10.85 12.1599 10.71 11.9799 10.71H11.3699C11.2899 10.71 11.2299 10.77 11.2299 10.85V10.92H10.5199V10.85C10.5199 10.38 10.9099 9.99 11.3799 9.99H11.9899C12.5599 9.99 13.0299 10.45 13.0299 11.03C13.0299 11.6 12.5699 12.07 11.9899 12.07H11.7899C11.4799 12.07 11.2399 12.32 11.2399 12.62V12.71H12.9399ZM5.79991 13.73V13.74L6.80991 12.82L6.33991 12.5L5.79991 13.73Z" />
</svg>
