<svg width="18" height="18" viewBox="0 0 18 18" xmlns="http://www.w3.org/2000/svg">
  <path d="M8.19995 10.92L6.49995 9.23C6.33995 9.07 6.33995 8.82 6.49995 8.66L6.98995 8.17L6.65995 7.7C6.49995 7.47 6.54995 7.15 6.76995 6.98L10.61 4.03V1L2.94996 8.67C2.78996 8.83 2.78996 9.08 2.94996 9.24L6.62995 12.92L8.19995 10.92ZM10.98 10.41L9.12995 7.75C9.04995 7.64 9.05995 7.46 9.13995 7.35L12.51 3.07C12.56 3.01 12.57 2.97 12.56 2.97C12.55 2.97 12.52 2.99 12.47 3.02L7.04995 7.19C6.93995 7.27 6.91995 7.43 6.98995 7.55L8.86995 10.25C8.94995 10.36 8.93995 10.54 8.85995 10.65L5.48995 14.92C5.43995 14.98 5.42995 15.02 5.44995 15.02C5.45995 15.02 5.48995 15 5.53995 14.97L10.96 10.81C11.06 10.73 11.02 10.48 10.98 10.41ZM15.0499 8.77L11.37 5.09L9.79995 7.08L11.49 8.77C11.65 8.93 11.65 9.18 11.49 9.34L11 9.83C11 9.83 11.33 10.32 11.34 10.35C11.42 10.5 11.43 10.86 11.22 11.02L7.37995 13.97C7.37995 14.96 7.37995 17 7.37995 17L15.0499 9.34C15.2099 9.18 15.2099 8.93 15.0499 8.77Z" />
</svg>
