<svg width="18" height="18" viewBox="0 0 18 18" xmlns="http://www.w3.org/2000/svg">
  <path d="M8.68997 6.35L4.95997 4.26L1.37997 6.26L5.11997 8.35L8.68997 6.35ZM5.25997 9.59L8.84997 7.58V6.6L5.25997 8.61V9.59ZM12.74 9.59V8.61L9.14997 6.61V7.59L12.74 9.59ZM4.95997 9.76V8.61L1.21997 6.52V7.71L4.91997 9.78L4.95997 9.76ZM16.62 6.26L8.99997 2L5.25997 4.09L12.88 8.35L16.62 6.26ZM13.04 11.47H12.97L9.12997 13.62V16L16.78 11.72V9.34L13.04 11.43V11.47ZM12.74 11.25V10.31L9.12997 12.33V13.27L12.74 11.25ZM13.04 8.61V11.08L16.78 8.99V6.52L13.04 8.61ZM1.21997 11.72L8.86997 16V13.61L1.21997 9.34V11.72ZM12.74 9.93L8.99997 7.84L5.25997 9.93V9.97L8.99997 12.06L12.74 9.97V9.93ZM1.21997 8.99L8.86997 13.27V12.33L1.21997 8.06V8.99Z" />
</svg>
