<svg width="18" height="18" viewBox="0 0 18 18" xmlns="http://www.w3.org/2000/svg">
  <path d="M16.82 3.09002C15.92 3.39002 15.61 2.79002 14.41 3.09002C13.2 3.39002 12.9 6.07002 11.39 6.96002C9.88004 7.85002 7.47004 7.56002 5.96004 8.75002C4.45004 9.94002 4.15004 12.03 3.55004 12.03C2.95004 12.03 2.34004 11.73 1.44004 11.73C0.540039 11.73 0.540039 11.73 0.540039 12.03C0.540039 12.33 1.75004 12.92 1.75004 13.22C1.75004 13.52 0.840039 14.11 0.840039 14.71C0.840039 15.31 2.35004 14.71 2.95004 14.41C3.55004 14.11 4.76004 12.92 5.66004 12.92C6.56004 12.92 8.07004 13.52 8.98004 13.52C9.39004 13.52 9.55004 13.46 9.61004 13.39C9.68004 13.31 10.49 12.62 10.49 12.03C10.49 12.03 10.49 13.22 9.89004 13.82C9.29004 14.42 8.68004 15.01 8.99004 15.01C9.29004 15.01 12.01 15.01 12.31 12.03C12.46 10.52 12.61 12.03 12.61 12.03L12.31 12.63C12.31 12.63 14.72 11.14 15.02 9.95002C15.32 8.76002 14.72 7.27002 15.62 6.67002C16.52 6.07002 17.43 5.18002 17.43 4.88002C17.42 4.58002 17.72 3.68002 16.82 3.09002ZM15.39 4.30002C15.35 4.37002 15.28 4.43002 15.22 4.47002C15.09 4.55002 14.97 4.57002 14.82 4.54002C14.77 4.52002 14.76 4.49002 14.76 4.47002C14.76 4.45002 14.76 4.43002 14.77 4.41002C14.79 4.34002 14.8 4.30002 14.83 4.26002C14.86 4.23002 14.9 4.20002 14.96 4.18002C15.07 4.14002 15.2 4.14002 15.31 4.15002C15.36 4.15002 15.4 4.14002 15.41 4.20002C15.42 4.22002 15.4 4.27002 15.39 4.30002Z" />
</svg>
