<svg width="18" height="18" viewBox="0 0 18 18" xmlns="http://www.w3.org/2000/svg">
  <path d="M11.46 2H6.54C2.57 2 2 2.57 2 6.54V11.46C2 15.43 2.57 16 6.54 16H11.47C15.44 16 16.01 15.43 16.01 11.46V6.54C16 2.57 15.43 2 11.46 2ZM8.07 13.08C7.79 13.08 7.56 12.85 7.56 12.57C7.56 12.29 7.79 12.06 8.07 12.06C8.35 12.06 8.58 12.29 8.58 12.57C8.58 12.86 8.35 13.08 8.07 13.08ZM9.93 13.08C9.65 13.08 9.42 12.85 9.42 12.57C9.42 12.29 9.65 12.06 9.93 12.06C10.21 12.06 10.44 12.29 10.44 12.57C10.44 12.86 10.21 13.08 9.93 13.08ZM13.31 13.08H11.16C11.36 11.99 12.1 7.02 11.49 7C11.16 7.05 9.67 11.22 9.67 11.22C9.67 11.22 9.34 11.18 9.01 11.18C8.68 11.18 8.35 11.22 8.35 11.22C8.35 11.22 6.84 7.06 6.52 7C5.91 7.02 6.64 11.99 6.85 13.08H4.69C4.69 13.08 4.33 9 5.02 4.64H7.01C7.39 4.64 8.83 7.17 9 7.17C9.17 7.17 10.61 4.64 10.99 4.64H12.98C13.67 9 13.31 13.08 13.31 13.08Z" />
</svg>
