<svg width="18" height="18" viewBox="0 0 18 18" xmlns="http://www.w3.org/2000/svg">
  <g clip-path="url(#clip0_1882_1279)">
    <path d="M8.89998 0.0699999C8.85998 0.34 8.77998 0.54 8.51998 0.769999C7.87998 1.34 5.16998 3.55 4.93998 8.33999C4.73998 12.63 7.94998 15.34 8.60998 15.79C8.82998 15.16 8.94998 14.49 9.02998 13.46C9.13998 9.26999 9.13998 2.65 8.89998 0.0699999ZM9.05998 14.67C8.98998 15.12 8.88998 15.49 8.76998 15.85L8.70998 16.02C8.75998 16.37 8.85998 17.17 8.93998 18.01H9.29998C9.37998 17.25 9.50998 16.5 9.67998 15.76L9.65998 15.75C9.38998 15.61 9.17998 15.23 9.05998 14.67ZM12.92 7.08999C11.97 2.88 9.96998 1.76 9.46998 0.959999C9.27998 0.65 9.11998 0.33 8.96998 0C8.96998 0.04 8.97998 0.0899999 8.97998 0.13C9.01998 0.42 9.04998 0.919999 9.06998 1.53C9.15998 3.55 9.18998 6.49 9.16998 9.26999C9.18998 10.15 9.17998 11.02 9.13998 11.9C9.12998 12.54 9.11998 13.16 9.09998 13.72C9.14998 14.77 9.38998 15.43 9.71998 15.59L9.75998 15.61C11.45 14.41 13.66 11.37 12.92 7.08999Z" />
  </g>
  <defs>
    <clipPath id="clip0_1882_1279">
      <rect width="18" height="18" />
    </clipPath>
  </defs>
</svg>
