<svg width="18" height="18" viewBox="0 0 18 18" xmlns="http://www.w3.org/2000/svg">
<path d="M16.06 14.8C15.92 14.66 15.76 14.53 15.6 14.41C15.55 14.37 15.52 14.35 15.48 14.32C15.61 14.3 15.74 14.27 15.87 14.25C16.04 14.23 16.23 14.22 16.37 14.21L17.64 14.19L17.04 13.11C16.54 12.21 15.83 11.65 15.12 11.17C14.76 10.93 14.4 10.72 14.02 10.53C13.71 10.37 13.41 10.23 13.09 10.1C12.58 9.43002 12.3 8.56002 11.89 7.57002C11.46 6.54002 10.85 5.53002 10.1 4.68002C9.34999 3.83002 8.51999 3.08002 7.56999 2.45002C7.09999 2.14002 6.55999 1.84002 5.97999 1.66002C5.47999 1.50002 5.00999 1.40002 4.43999 1.38002C4.02999 1.06002 3.58999 0.770016 3.05999 0.570016C2.71999 0.470016 2.37999 0.390016 1.97999 0.400016C1.61999 0.410016 1.18999 0.510016 0.809987 0.820016C0.539987 1.00002 0.349987 1.31002 0.289987 1.58002C0.219987 1.86002 0.239987 2.11002 0.279987 2.33002C0.369987 2.77002 0.559987 3.13002 0.879987 3.45002C1.07999 3.64002 1.12999 3.66002 1.23999 3.76002C1.32999 3.84002 1.39999 3.91002 1.44999 3.97002C1.53999 4.08002 1.56999 4.17002 1.59999 4.37002C1.68999 5.05002 1.89999 5.61002 2.11999 6.17002C2.23999 6.46002 2.34999 6.72002 2.55999 7.06002C2.60999 7.12002 2.62999 7.16002 2.69999 7.24002C2.73999 7.28002 2.78999 7.33002 2.83999 7.36002C2.57999 8.01002 2.54999 8.61002 2.51999 9.19002C2.50999 9.55002 2.51999 9.90002 2.55999 10.25C2.59999 10.62 2.61999 10.92 2.75999 11.39C2.91999 11.83 3.11999 12.15 3.39999 12.48C3.53999 12.64 3.69999 12.8 3.91999 12.94C4.13999 13.08 4.43999 13.22 4.83999 13.2C5.23999 13.16 5.53999 13.01 5.79999 12.69C5.97999 12.91 6.16999 13.13 6.35999 13.34C6.99999 13.96 7.68999 14.51 8.41999 14.99C9.87999 15.94 11.44 16.66 13.09 17.14L13.31 16.52C11.85 15.81 10.46 14.91 9.21999 13.91C8.59999 13.4 8.03999 12.84 7.52999 12.26C7.00999 11.68 6.59999 11.05 6.15999 10.43L5.22999 9.14002L4.78999 10.52L4.76999 10.57C4.62999 11.01 4.63999 11.37 4.61999 11.6C4.58999 11.57 4.54999 11.54 4.52999 11.5C4.37999 11.34 4.23999 11.09 4.17999 10.92C4.12999 10.76 4.07999 10.41 4.04999 10.13C4.01999 9.83002 4.00999 9.53002 4.01999 9.23002C4.02999 8.65002 4.11999 8.03002 4.31999 7.71002L4.51999 7.38002L4.36999 7.04002C4.27999 6.83002 4.19999 6.69002 4.05999 6.50002C3.98999 6.41002 3.90999 6.31002 3.78999 6.22002C3.70999 6.09002 3.58999 5.84002 3.49999 5.61002C3.30999 5.13002 3.12999 4.62002 3.06999 4.17002C3.02999 3.81002 2.86999 3.35002 2.58999 3.02002C2.33999 2.71002 2.01999 2.48002 1.91999 2.39002C1.83999 2.31002 1.74999 2.15002 1.72999 2.04002C1.72999 2.02002 1.71999 2.00002 1.71999 1.98002L1.75999 1.95002C1.75999 1.95002 1.83999 1.90002 1.98999 1.90002C2.13999 1.90002 2.32999 1.93002 2.51999 2.00002C2.90999 2.14002 3.28999 2.39002 3.64999 2.70002L3.87999 2.90002L4.20999 2.89002C4.54999 2.88002 5.05999 2.96002 5.46999 3.10002C5.89999 3.24002 6.29999 3.45002 6.70999 3.73002C7.51999 4.27002 8.28999 4.94002 8.92999 5.69002C9.57999 6.43002 10.08 7.26002 10.47 8.19002C10.86 9.08002 11.18 10.24 11.98 11.2L12.11 11.35L12.3 11.42C12.62 11.54 12.98 11.71 13.3 11.88C13.63 12.05 13.95 12.23 14.26 12.44C14.48 12.59 14.69 12.75 14.89 12.92C14.49 13.02 14.08 13.15 13.68 13.38L13.07 13.73L13.38 14.37L13.39 14.38C13.56 14.7 13.69 14.82 13.86 14.98C14.02 15.13 14.19 15.25 14.37 15.35C14.54 15.45 14.75 15.55 14.89 15.6C15.03 15.65 15.16 15.71 15.29 15.78C15.55 15.92 15.8 16.09 16.01 16.28C16.23 16.51 16.51 16.77 16.76 17L17.18 16.71C17.04 16.38 16.92 16.08 16.75 15.75C16.59 15.38 16.35 15.07 16.06 14.8ZM0.729987 0.890016C0.759987 0.860016 0.789987 0.850016 0.819987 0.820016C0.819987 0.820016 0.829987 0.810016 0.839987 0.800016L0.729987 0.890016ZM5.19999 5.51002C5.66999 5.12002 5.35999 4.41002 4.56999 4.49002C4.96999 4.73002 5.19999 5.36002 5.19999 5.51002Z" />
</svg>
