<svg width="18" height="18" viewBox="0 0 18 18" xmlns="http://www.w3.org/2000/svg">
  <path d="M16.45 16.06C16.45 16.06 16.06 15.43 15.19 14.96C14.32 14.49 14.09 14.02 14.09 14.02C15.03 13.47 16.37 13.47 16.37 13.47C15.5 11.82 12.59 10.72 12.59 10.72C11.57 9.45996 11.57 8.27996 10.46 6.46996C9.36003 4.64996 7.48003 3.14996 6.30003 2.59996C5.12003 2.04996 4.17003 2.12996 4.17003 2.12996C2.91003 1.02996 1.73003 0.949959 1.26003 1.41996C0.790026 1.73996 1.02003 2.59996 1.49003 2.99996C1.96003 3.39996 2.28003 3.62996 2.36003 4.33996C2.44003 5.04996 3.07003 6.61996 3.30003 6.77996C3.54003 6.93996 3.69003 7.32996 3.69003 7.32996C3.06003 8.34996 3.30003 10.56 3.45003 11.11C3.61003 11.66 4.32003 12.68 4.95003 12.45C5.58003 12.21 5.26003 11.43 5.50003 10.8C7.63003 14.89 13.21 16.86 13.21 16.86H17L16.45 16.06ZM4.80003 4.80996C4.80003 4.64996 4.56003 4.01996 4.17003 3.78996C4.96003 3.70996 5.27003 4.40996 4.80003 4.80996Z" />
</svg>
