<svg width="18" height="18" viewBox="0 0 18 18" xmlns="http://www.w3.org/2000/svg">
  <path d="M8.99996 16.9999L11 14.9999H6.99996L8.99996 16.9999ZM10.75 4.99986C10.34 4.99986 9.99996 5.33986 9.99996 5.74986V8.05986L7.83996 5.28986C7.63996 5.03986 7.30996 4.93986 7.00996 5.03986C6.70996 5.13986 6.49996 5.42986 6.49996 5.74986V10.2499C6.49996 10.6599 6.83996 10.9999 7.24996 10.9999C7.65996 10.9999 7.99996 10.6599 7.99996 10.2499V7.93986L10.16 10.7099C10.3 10.8999 10.53 10.9999 10.75 10.9999C10.83 10.9999 10.91 10.9899 10.99 10.9599C11.29 10.8599 11.5 10.5699 11.5 10.2499V5.74986C11.5 5.33986 11.16 4.99986 10.75 4.99986ZM13.52 3.78986L10.39 1.97986C9.96996 1.73986 9.48996 1.60986 8.99996 1.60986C8.50996 1.60986 8.02996 1.73986 7.60996 1.97986L4.47996 3.78986C3.61997 4.27986 3.08997 5.19986 3.08997 6.18986V9.79986C3.08997 10.7899 3.61997 11.7099 4.47996 12.2099L7.60996 14.0199C8.02996 14.2599 8.50996 14.3899 8.99996 14.3899C9.48996 14.3899 9.96996 14.2599 10.39 14.0199L13.52 12.2099C14.38 11.7199 14.91 10.7899 14.91 9.79986V6.18986C14.91 5.19986 14.38 4.27986 13.52 3.78986ZM13.41 9.80986C13.41 10.2699 13.17 10.6899 12.77 10.9199L9.63996 12.7299C9.43996 12.8399 9.21996 12.8999 8.99996 12.8999C8.77996 12.8999 8.55996 12.8399 8.35996 12.7299L5.22996 10.9199C4.82996 10.6899 4.58996 10.2699 4.58996 9.80986V6.18986C4.58996 5.72986 4.82996 5.30986 5.22996 5.07986L8.35996 3.26986C8.55996 3.15986 8.77996 3.09986 8.99996 3.09986C9.21996 3.09986 9.43996 3.15986 9.63996 3.26986L12.77 5.07986C13.17 5.30986 13.41 5.72986 13.41 6.18986V9.80986Z" />
</svg>
