<svg width="18" height="18" viewBox="0 0 18 18" xmlns="http://www.w3.org/2000/svg">
  <path d="M15.5499 4.61981L9.51993 1.13981C9.19993 0.949814 8.79993 0.949814 8.47993 1.13981L2.44993 4.61981C2.12993 4.80981 1.92993 5.14981 1.92993 5.51981V12.4798C1.92993 12.8498 2.12993 13.1898 2.44993 13.3798L8.47993 16.8598C8.79993 17.0498 9.19993 17.0498 9.51993 16.8598L15.5499 13.3798C15.8699 13.1898 16.0699 12.8498 16.0699 12.4798V5.51981C16.0699 5.14981 15.8699 4.80981 15.5499 4.61981ZM9.11993 11.1098C9.11993 11.3498 8.97993 11.5698 8.74993 11.6598C8.67993 11.6898 8.59993 11.7098 8.51993 11.7098C8.36993 11.7098 8.20993 11.6498 8.09993 11.5398L4.59993 8.02981V11.1198C4.59993 11.4498 4.32993 11.7098 4.00993 11.7098C3.67993 11.7098 3.41993 11.4398 3.41993 11.1198V6.59981C3.41993 6.35981 3.55993 6.13981 3.78993 6.04981C4.00993 5.95981 4.26993 6.00981 4.43993 6.17981L7.94993 9.68981V6.59981C7.94993 6.26981 8.21993 6.00981 8.53993 6.00981C8.86993 6.00981 9.12993 6.27981 9.12993 6.59981V11.1098H9.11993ZM14.3499 9.35981H12.8199V10.8898C12.8199 11.1998 12.5699 11.4498 12.2599 11.4498C11.9499 11.4498 11.6999 11.1998 11.6999 10.8898V9.35981H10.1699C9.85993 9.35981 9.60993 9.10981 9.60993 8.79981C9.60993 8.48981 9.85993 8.23981 10.1699 8.23981H11.6999V6.69981C11.6999 6.38981 11.9499 6.13981 12.2599 6.13981C12.5699 6.13981 12.8199 6.38981 12.8199 6.69981V8.22981H14.3499C14.6599 8.22981 14.9099 8.47981 14.9099 8.78981C14.9099 9.09981 14.6599 9.35981 14.3499 9.35981Z" />
</svg>
