<svg width="18" height="18" viewBox="0 0 18 18" xmlns="http://www.w3.org/2000/svg">
  <path d="M10.75 5.9999C10.34 5.9999 10 6.3399 10 6.7499V9.0599L7.84002 6.2899C7.64002 6.0399 7.31002 5.9399 7.01002 6.0399C6.71002 6.1399 6.50002 6.4299 6.50002 6.7499V11.2499C6.50002 11.6599 6.84002 11.9999 7.25002 11.9999C7.66002 11.9999 8.00002 11.6599 8.00002 11.2499V8.9399L10.16 11.7099C10.3 11.8999 10.53 11.9999 10.75 11.9999C10.83 11.9999 10.91 11.9899 10.99 11.9599C11.29 11.8599 11.5 11.5699 11.5 11.2499V6.7499C11.5 6.3399 11.16 5.9999 10.75 5.9999ZM14.94 4.2199L10.17 1.4599C9.82002 1.2599 9.41002 1.1499 9.01002 1.1499C8.61002 1.1499 8.20002 1.2599 7.85002 1.4599L3.06002 4.2299C2.34002 4.6399 1.90002 5.4199 1.90002 6.2499V11.7599C1.90002 12.5899 2.35002 13.3599 3.07002 13.7799L7.84002 16.5399C8.19002 16.7399 8.60002 16.8499 9.00002 16.8499C9.41002 16.8499 9.81002 16.7399 10.16 16.5399L14.94 13.7799C15.66 13.3699 16.1 12.5899 16.1 11.7599V6.2399C16.11 5.4099 15.66 4.6399 14.94 4.2199ZM14.61 11.7599C14.61 12.0599 14.45 12.3299 14.2 12.4799L9.42002 15.2399C9.29002 15.3099 9.15002 15.3499 9.01002 15.3499C8.87002 15.3499 8.72002 15.3099 8.60002 15.2399L3.82002 12.4799C3.56002 12.3299 3.41002 12.0599 3.41002 11.7599V6.2399C3.41002 5.9399 3.57002 5.6699 3.82002 5.5199L8.60002 2.7599C8.73002 2.6899 8.87002 2.6499 9.01002 2.6499C9.15002 2.6499 9.30002 2.6899 9.42002 2.7599L14.2 5.5199C14.46 5.6699 14.61 5.9399 14.61 6.2399V11.7599Z" />
</svg>
