<svg width="18" height="18" viewBox="0 0 18 18" xmlns="http://www.w3.org/2000/svg">
  <path d="M15.25 14.5H10.51C10.38 14.11 10.11 13.79 9.75 13.59V12.94C12.71 12.57 15 10.05 15 6.98999C15 3.67999 12.31 0.98999 9 0.98999C5.69 0.98999 3 3.68999 3 6.99999C3 10.06 5.29 12.58 8.25 12.95V13.6C7.89 13.79 7.62 14.11 7.49 14.51H2.75C2.34 14.51 2 14.85 2 15.26C2 15.67 2.34 16.01 2.75 16.01H7.76C8.05 16.37 8.5 16.61 9 16.61C9.5 16.61 9.95 16.37 10.24 16.01H15.25C15.66 16.01 16 15.67 16 15.26C16 14.85 15.66 14.5 15.25 14.5ZM4.5 6.99999C4.5 4.51999 6.52 2.49999 9 2.49999C11.48 2.49999 13.5 4.51999 13.5 6.99999C13.5 9.47999 11.48 11.5 9 11.5C6.52 11.5 4.5 9.47999 4.5 6.99999ZM9.75 6.68999V4.49999C9.75 4.08999 9.41 3.74999 9 3.74999C8.59 3.74999 8.25 4.08999 8.25 4.49999V7.30999L9.49 8.54999C9.64 8.69999 9.83 8.76999 10.02 8.76999C10.21 8.76999 10.4 8.69999 10.55 8.54999C10.84 8.25999 10.84 7.77999 10.55 7.48999L9.75 6.68999Z" />
</svg>
