<svg width="18" height="18" viewBox="0 0 18 18" xmlns="http://www.w3.org/2000/svg">
  <path d="M15.25 14.5H10.51C10.38 14.11 10.11 13.79 9.75 13.59V12.94C12.71 12.57 15 10.05 15 6.98999C15 3.67999 12.31 0.98999 9 0.98999C5.69 0.98999 3 3.68999 3 6.99999C3 10.06 5.29 12.58 8.25 12.95V13.6C7.89 13.79 7.62 14.11 7.49 14.51H2.75C2.34 14.51 2 14.85 2 15.26C2 15.67 2.34 16.01 2.75 16.01H7.76C8.05 16.37 8.5 16.61 9 16.61C9.5 16.61 9.95 16.37 10.24 16.01H15.25C15.66 16.01 16 15.67 16 15.26C16 14.85 15.66 14.5 15.25 14.5ZM8.25 7.30999V4.49999C8.25 4.08999 8.59 3.74999 9 3.74999C9.41 3.74999 9.75 4.08999 9.75 4.49999V6.68999L10.55 7.48999C10.84 7.77999 10.84 8.25999 10.55 8.54999C10.4 8.69999 10.21 8.76999 10.02 8.76999C9.83 8.76999 9.64 8.69999 9.49 8.54999L8.25 7.30999Z" />
</svg>
