<svg width="18" height="18" viewBox="0 0 18 18" xmlns="http://www.w3.org/2000/svg">
<path d="M2.6347 8.5578C2.6347 8.5578 4.08133 6.42341 6.96977 6.20266V5.42824C3.77046 5.68518 1 8.39484 1 8.39484C1 8.39484 2.56913 12.9311 6.96977 13.3464V12.5233C3.74031 12.117 2.6347 8.5578 2.6347 8.5578ZM6.96977 10.8863V11.6401C4.52906 11.205 3.85158 8.66779 3.85158 8.66779C3.85158 8.66779 5.02346 7.36959 6.96977 7.15913V7.98626C6.96828 7.98626 6.96726 7.98581 6.96604 7.98581C5.94451 7.86323 5.1465 8.81745 5.1465 8.81745C5.1465 8.81745 5.59372 10.424 6.96977 10.8863ZM6.96977 4V5.42824C7.06368 5.42098 7.1576 5.41494 7.25203 5.41172C10.8893 5.28913 13.2592 8.39485 13.2592 8.39485C13.2592 8.39485 10.5373 11.7047 7.7015 11.7047C7.44161 11.7047 7.19829 11.6806 6.96977 11.6401V12.5233C7.16519 12.5481 7.36781 12.5627 7.57924 12.5627C10.2181 12.5627 12.1265 11.215 13.9744 9.61996C14.2808 9.86533 15.5351 10.4622 15.7929 10.7236C14.0359 12.1946 9.94113 13.3803 7.61967 13.3803C7.3959 13.3803 7.181 13.3668 6.96977 13.3464V14.5874H17V4L6.96977 4ZM6.96977 7.15913V6.20266C7.06272 6.19617 7.15638 6.19116 7.25203 6.18814C9.86759 6.10598 11.5836 8.4358 11.5836 8.4358C11.5836 8.4358 9.73021 11.0099 7.74296 11.0099C7.45697 11.0099 7.20054 10.9639 6.96977 10.8863V7.98626C7.98801 8.1093 8.19295 8.55909 8.80512 9.57959L10.1666 8.43149C10.1666 8.43149 9.17275 7.12802 7.49734 7.12802C7.3151 7.12802 7.14082 7.14081 6.96977 7.15913Z"/>
</svg>
