<svg width="16" height="16" viewBox="0 0 16 16" xmlns="http://www.w3.org/2000/svg">
<path d="M8.39891 8.63411C7.82513 9.20833 7.82513 10.1389 8.39891 10.7131C8.97313 11.2869 9.90369 11.2869 10.4775 10.7131C11.0517 10.1389 11.0517 9.20833 10.4775 8.63411C9.90369 8.06033 8.97313 8.06033 8.39891 8.63411ZM9.9528 10.1893C9.88526 10.257 9.80504 10.3106 9.71674 10.3472C9.62844 10.3839 9.53378 10.4027 9.43819 10.4027C9.3426 10.4027 9.24795 10.3839 9.15965 10.3472C9.07134 10.3106 8.99113 10.257 8.92358 10.1893C8.856 10.1218 8.80239 10.0416 8.76582 9.9533C8.72924 9.86503 8.71041 9.77042 8.71041 9.67487C8.71041 9.57932 8.72924 9.48471 8.76582 9.39644C8.80239 9.30817 8.856 9.22797 8.92358 9.16043C8.99113 9.09278 9.07134 9.03912 9.15965 9.00251C9.24795 8.96589 9.3426 8.94705 9.43819 8.94705C9.53378 8.94705 9.62844 8.96589 9.71674 9.00251C9.80504 9.03912 9.88526 9.09278 9.9528 9.16043C10.237 9.44327 10.237 9.90516 9.9528 10.1893ZM10.4532 1.40169L9.55249 2.30229C9.4677 2.38772 9.42012 2.50321 9.42012 2.62357C9.42012 2.74394 9.4677 2.85943 9.55249 2.94486L13.0688 6.46116C13.1542 6.54595 13.2697 6.59353 13.3901 6.59353C13.5104 6.59353 13.6259 6.54595 13.7114 6.46116L14.612 5.56046C14.7881 5.38436 14.7881 5.09441 14.612 4.91843L11.0941 1.40158C11.0089 1.317 10.8937 1.26953 10.7737 1.26953C10.6536 1.26953 10.5384 1.31711 10.4532 1.40169ZM4.14313 12.9105C4.21993 12.8333 4.26304 12.7289 4.26304 12.6201C4.26304 12.5112 4.21993 12.4068 4.14313 12.3297L3.68562 11.8717C3.6084 11.795 3.50394 11.7519 3.39506 11.7519C3.28618 11.7519 3.18172 11.795 3.10451 11.8717L2.15907 12.8177L2.15732 12.819L1.89799 12.5593C1.75438 12.4156 1.52065 12.4156 1.37846 12.5593C1.23485 12.7028 1.23485 12.9365 1.37846 13.0788L2.93662 14.6365C2.97068 14.6706 3.01113 14.6977 3.05567 14.7162C3.10021 14.7346 3.14795 14.7441 3.19616 14.7441C3.24438 14.7441 3.29212 14.7346 3.33665 14.7162C3.38119 14.6977 3.42165 14.6706 3.45571 14.6365C3.5979 14.4929 3.59932 14.2592 3.45571 14.1174L3.19594 13.8576L3.19769 13.8563L4.14313 12.9105Z"/>
<path d="M8.9074 3.98743L6.9066 5.98811C6.72887 6.16585 6.72887 6.45854 6.9066 6.63627L8.1421 7.87144C9.01535 7.24297 10.2399 7.32074 11.0256 8.10693L12.0261 7.10625C12.2035 6.92852 12.2035 6.63627 12.0261 6.45854L9.55522 3.98743C9.51271 3.94486 9.46223 3.9111 9.40666 3.88806C9.35109 3.86502 9.29152 3.85317 9.23137 3.85317C9.17121 3.85317 9.11164 3.86502 9.05607 3.88806C9.0005 3.9111 8.94991 3.94486 8.9074 3.98743ZM7.62257 8.39218L6.89282 7.66243C6.72186 7.49158 6.44165 7.49158 6.27113 7.66243L3.69754 10.2371C3.61544 10.3198 3.56937 10.4316 3.56937 10.5481C3.56937 10.6646 3.61544 10.7764 3.69754 10.8591L5.15562 12.3173C5.23831 12.3994 5.35013 12.4455 5.46668 12.4455C5.58323 12.4455 5.69504 12.3994 5.77774 12.3173L7.4328 10.6595C7.08291 9.93666 7.14569 9.06341 7.62257 8.39218Z"/>
</svg>
