<svg width="18" height="18" viewBox="0 0 18 18" xmlns="http://www.w3.org/2000/svg">
  <path d="M3.69 8.36C3.57 8.36 3.47 8.4 3.4 8.49C3.33 8.57 3.29 8.71 3.29 8.91C3.29 9.1 3.33 9.24 3.4 9.32C3.47 9.4 3.57 9.45 3.69 9.45C3.82 9.45 3.92 9.41 3.99 9.33C4.06 9.25 4.09 9.1 4.09 8.89C4.09 8.71 4.05 8.58 3.98 8.5C3.91 8.4 3.82 8.36 3.69 8.36ZM9 2C5.13 2 2 5.13 2 9C2 12.87 5.13 16 9 16C12.87 16 16 12.87 16 9C16 5.13 12.87 2 9 2ZM4.58 9.43C4.5 9.57 4.4 9.68 4.25 9.76C4.11 9.84 3.93 9.88 3.72 9.88C3.5 9.88 3.32 9.85 3.18 9.78C3.04 9.71 2.92 9.6 2.84 9.45C2.74 9.31 2.7 9.12 2.7 8.9C2.7 8.59 2.79 8.35 2.96 8.17C3.13 8 3.38 7.91 3.69 7.91C4.01 7.91 4.26 8 4.43 8.17C4.6 8.34 4.69 8.58 4.69 8.89C4.69 9.11 4.65 9.29 4.58 9.43ZM6.34 9.7C6.23 9.82 6.09 9.88 5.92 9.88C5.84 9.88 5.76 9.87 5.7 9.84C5.63 9.81 5.57 9.77 5.52 9.72V10.38H4.98V8.47H5.48V8.67C5.55 8.58 5.61 8.53 5.67 8.5C5.75 8.46 5.83 8.44 5.93 8.44C6.12 8.44 6.26 8.51 6.36 8.65C6.46 8.79 6.51 8.97 6.51 9.18C6.51 9.41 6.45 9.58 6.34 9.7ZM8.31 9.29H7.24C7.25 9.37 7.27 9.44 7.31 9.48C7.36 9.54 7.43 9.57 7.51 9.57C7.56 9.57 7.61 9.56 7.66 9.53C7.69 9.51 7.72 9.48 7.75 9.44L8.28 9.49C8.2 9.63 8.1 9.73 7.99 9.79C7.88 9.85 7.71 9.88 7.5 9.88C7.32 9.88 7.17 9.85 7.06 9.8C6.95 9.75 6.87 9.67 6.8 9.55C6.73 9.44 6.7 9.3 6.7 9.15C6.7 8.93 6.77 8.76 6.91 8.63C7.05 8.5 7.24 8.43 7.49 8.43C7.69 8.43 7.85 8.46 7.96 8.52C8.08 8.58 8.16 8.67 8.22 8.78C8.28 8.89 8.31 9.04 8.31 9.22V9.29ZM10.02 9.85H9.48V9.09C9.48 9 9.46 8.94 9.43 8.91C9.4 8.87 9.35 8.86 9.29 8.86C9.23 8.86 9.17 8.88 9.13 8.93C9.09 8.98 9.07 9.07 9.07 9.19V9.85H8.54V8.47H9.04V8.7C9.11 8.61 9.19 8.54 9.26 8.5C9.34 8.46 9.43 8.44 9.54 8.44C9.69 8.44 9.8 8.48 9.89 8.57C9.97 8.66 10.01 8.79 10.01 8.97V9.85H10.02ZM12.44 9.85H11.86L11.52 8.65L11.19 9.85H10.6L10.17 7.94H10.73L10.93 9L11.23 7.94H11.79L12.09 9.01L12.29 7.94H12.85L12.44 9.85ZM13.96 8.89C13.9 8.86 13.85 8.85 13.81 8.85C13.74 8.85 13.69 8.88 13.65 8.94C13.59 9.02 13.57 9.17 13.57 9.39V9.85H13.03V8.47H13.53V8.7C13.58 8.6 13.63 8.53 13.68 8.5C13.73 8.46 13.79 8.44 13.87 8.44C13.95 8.44 14.04 8.46 14.13 8.51L13.96 8.89ZM14.64 9.83C14.58 9.8 14.53 9.74 14.5 9.68C14.47 9.61 14.45 9.5 14.45 9.35V8.86H14.25V8.47H14.45V8.22L14.98 7.95V8.47H15.27V8.86H14.98V9.35C14.98 9.41 14.99 9.45 15 9.47C15.02 9.5 15.05 9.51 15.09 9.51C15.13 9.51 15.18 9.5 15.26 9.48L15.3 9.85C15.17 9.88 15.05 9.89 14.93 9.89C14.8 9.89 14.7 9.87 14.64 9.83ZM7.5 8.75C7.42 8.75 7.35 8.78 7.3 8.85C7.27 8.89 7.25 8.95 7.24 9.04H7.77C7.76 8.94 7.73 8.86 7.69 8.82C7.64 8.78 7.58 8.75 7.5 8.75ZM5.75 8.83C5.68 8.83 5.63 8.86 5.58 8.91C5.53 8.96 5.51 9.05 5.51 9.17C5.51 9.28 5.53 9.36 5.58 9.41C5.63 9.46 5.68 9.49 5.76 9.49C5.82 9.49 5.87 9.47 5.92 9.41C5.96 9.36 5.98 9.27 5.98 9.15C5.98 9.04 5.96 8.95 5.91 8.9C5.86 8.85 5.81 8.83 5.75 8.83Z" />
</svg>
