<svg width="18" height="18" viewBox="0 0 18 18" xmlns="http://www.w3.org/2000/svg">
  <path d="M9 8C8.448 8 8 8.448 8 9C8 9.552 8.448 10 9 10C9.552 10 10 9.552 10 9C10 8.448 9.552 8 9 8ZM15.624 5.584C15.394 5.239 14.93 5.146 14.584 5.376C14.239 5.605 14.146 6.071 14.376 6.416L15.599 8.25H13.925C13.56 5.847 11.504 4 9 4C6.496 4 4.44 5.847 4.076 8.25H2.401L3.624 6.416C3.853 6.071 3.761 5.605 3.416 5.376C3.071 5.147 2.606 5.239 2.376 5.584L0.098999 9L2.376 12.416C2.521 12.633 2.759 12.75 3.001 12.75C3.144 12.75 3.288 12.709 3.416 12.624C3.761 12.395 3.854 11.929 3.624 11.584L2.401 9.75H4.075C4.44 12.153 6.496 14 9 14C11.504 14 13.56 12.153 13.924 9.75H15.598L14.375 11.584C14.146 11.929 14.238 12.395 14.583 12.624C14.711 12.709 14.855 12.75 14.998 12.75C15.24 12.75 15.478 12.633 15.623 12.416L17.901 9L15.624 5.584ZM9 12.5C7.07 12.5 5.5 10.93 5.5 9C5.5 7.07 7.07 5.5 9 5.5C10.93 5.5 12.5 7.07 12.5 9C12.5 10.93 10.93 12.5 9 12.5Z" />
</svg>
