<svg width="18" height="18" viewBox="0 0 18 18" xmlns="http://www.w3.org/2000/svg">
  <path d="M2.32 8.48993H1.95L1.74 9.62993H2.07C2.29 9.62993 2.46 9.57993 2.57 9.48993C2.68 9.39993 2.75 9.25993 2.79 9.03993C2.8 8.96993 2.81 8.89993 2.81 8.83993C2.81 8.73993 2.79 8.65992 2.74 8.60992C2.67 8.52992 2.53 8.48993 2.32 8.48993ZM12.43 8.52993H12.05L11.84 9.71993H12.18C12.4 9.71993 12.57 9.66993 12.69 9.57993C12.8 9.48993 12.87 9.33993 12.91 9.10993C12.93 9.03993 12.93 8.96993 12.93 8.90993C12.93 8.79993 12.91 8.72992 12.86 8.66992C12.79 8.56992 12.64 8.52993 12.43 8.52993ZM0.82 6.66992L0 11.3299H8.32L9.14 6.67992H0.82V6.66992ZM3.35 9.08993C3.32 9.21993 3.29 9.34993 3.23 9.45993C3.17 9.56993 3.1 9.66993 3.01 9.74993C2.9 9.85993 2.78 9.93993 2.64 9.97993C2.51 10.0299 2.34 10.0499 2.12 10.0499H1.65L1.52 10.7699H0.98L1.49 8.05992H2.54C2.85 8.05992 3.08 8.14992 3.23 8.32992C3.33 8.45993 3.38 8.61992 3.38 8.81993C3.38 8.89993 3.36 8.98993 3.35 9.08993ZM5.62 8.77993L5.39 10.0399H4.84L5.06 8.83993C5.07 8.77993 5.08 8.72993 5.08 8.69993C5.08 8.63993 5.07 8.58992 5.04 8.56992C4.99 8.51992 4.9 8.49992 4.77 8.49992H4.33L4.04 10.0499H3.5L4 7.32992H4.54L4.41 8.04992H4.89C5.19 8.04992 5.4 8.10992 5.52 8.21992C5.61 8.29992 5.64 8.41992 5.64 8.56992C5.64 8.63992 5.64 8.70993 5.62 8.77993ZM8.1 9.08993C8.07 9.21993 8.04 9.34993 7.98 9.45993C7.92 9.56993 7.85 9.66993 7.76 9.74993C7.65 9.85993 7.53 9.93993 7.39 9.97993C7.25 10.0199 7.09 10.0499 6.87 10.0499H6.4L6.27 10.7699H5.73L6.24 8.05992H7.29C7.6 8.05992 7.83 8.14992 7.98 8.32992C8.08 8.45993 8.13 8.61992 8.13 8.81993C8.12 8.89993 8.11 8.98993 8.1 9.08993ZM9.57 6.66992L8.75 11.3199H17.18L18 6.66992H9.57ZM10.4 10.1599H9.82L10.12 8.48993H9.73L9.8 8.07992H10.19L10.23 7.86992C10.27 7.65992 10.34 7.50992 10.43 7.43992C10.52 7.36992 10.68 7.32992 10.9 7.32992H11.42L11.35 7.72992H11.09C11 7.72992 10.93 7.74992 10.88 7.76992C10.83 7.79992 10.81 7.84992 10.79 7.90992L10.76 8.07992H11.28L11.21 8.48993H10.7L10.4 10.1599ZM13.46 9.14993C13.43 9.28993 13.39 9.41993 13.33 9.52993C13.27 9.63993 13.2 9.73993 13.11 9.82993C13 9.94993 12.88 10.0299 12.74 10.0699C12.6 10.1199 12.43 10.1399 12.22 10.1399H11.75L11.62 10.8899H11.07L11.59 8.06992H12.65C12.97 8.06992 13.2 8.16992 13.35 8.34992C13.46 8.47992 13.5 8.64992 13.5 8.85993C13.49 8.95993 13.48 9.04993 13.46 9.14993ZM16.87 8.83993L16.63 10.1599H16.07L16.29 8.90993C16.3 8.87993 16.3 8.85993 16.31 8.83993C16.31 8.81993 16.32 8.78993 16.32 8.75993C16.32 8.69993 16.31 8.64992 16.29 8.60992C16.24 8.55992 16.15 8.53993 16.01 8.53993H15.7L15.4 10.1599H14.83L15.12 8.53993H14.48L14.18 10.1599H13.62L14 8.08992H16.12C16.42 8.08992 16.64 8.14992 16.76 8.26992C16.84 8.35992 16.88 8.47993 16.88 8.63993C16.89 8.69993 16.88 8.76993 16.87 8.83993ZM7.07 8.48993H6.7L6.49 9.62993H6.82C7.04 9.62993 7.21 9.57993 7.32 9.48993C7.43 9.39993 7.5 9.25993 7.54 9.03993C7.55 8.96993 7.56 8.89993 7.56 8.83993C7.56 8.73993 7.54 8.65992 7.49 8.60992C7.42 8.52992 7.28 8.48993 7.07 8.48993Z" />
</svg>
