<svg width="18" height="18" viewBox="0 0 18 18" xmlns="http://www.w3.org/2000/svg">
  <path d="M6.04994 10.28C5.49994 9.70001 5.24994 8.91001 5.35994 8.09001C5.47994 7.21001 5.43994 6.44001 5.40994 6.02001C5.39994 5.92001 5.39994 5.83001 5.39994 5.78001C5.39994 5.66001 5.34994 3.16001 6.79994 1.71001C6.80994 1.70001 6.82994 1.69001 6.83994 1.67001C5.96994 1.39001 3.78994 0.820014 2.46994 1.76001C1.65994 2.34001 1.27994 3.41001 1.35994 4.95001C1.37994 5.44001 1.68994 7.17001 2.21994 8.90001C2.82994 10.89 3.51994 12.15 4.10994 12.35C4.19994 12.38 4.47994 12.47 4.87994 11.99C5.44994 11.31 5.97994 10.72 6.22994 10.46C6.15994 10.4 6.10994 10.34 6.04994 10.28ZM14.2199 5.22001C13.6299 5.15001 12.9499 5.16001 12.6799 5.55001C12.1599 6.30001 13.1799 8.13001 13.6099 8.91001C13.7199 9.11001 13.7999 9.26001 13.8399 9.35001C13.8799 9.45001 13.9299 9.54001 13.9699 9.62001C14.2699 8.98001 14.1899 8.34001 14.1199 7.71001C14.0799 7.40001 14.0399 7.08001 14.0499 6.77001C14.0599 6.45001 14.0999 6.19001 14.1399 5.94001C14.1799 5.69001 14.2099 5.47001 14.2199 5.22001ZM13.6399 5.78001C13.5899 5.83001 13.4899 5.92001 13.3499 5.94001C13.3299 5.94001 13.3099 5.94001 13.2999 5.94001C13.0899 5.94001 12.9199 5.77001 12.8999 5.68001C12.8799 5.55001 13.0899 5.46001 13.2999 5.43001C13.5099 5.40001 13.7299 5.44001 13.7499 5.56001C13.7599 5.62001 13.7199 5.70001 13.6399 5.78001ZM13.4999 2.61001C14.2999 3.54001 14.6899 4.57001 14.7199 4.91001C14.7299 4.96001 14.7199 5.01001 14.7099 5.04001C14.7199 5.40001 14.6799 5.70001 14.6299 6.00001C14.5899 6.24001 14.5599 6.49001 14.5499 6.77001C14.5399 7.04001 14.5799 7.33001 14.6099 7.64001C14.6999 8.38001 14.7999 9.23001 14.2899 10.07C14.2999 10.08 14.3099 10.09 14.3199 10.1C14.3399 10.13 14.3599 10.15 14.3799 10.18C16.3699 7.05001 17.0599 3.42001 16.4299 2.62001C14.9399 0.710014 12.6499 0.910014 11.5499 1.14001C12.4199 1.53001 13.0599 2.10001 13.4999 2.61001ZM8.49994 11.15C8.35994 11.09 8.28994 11.06 8.11994 11.25C8.00994 11.37 7.92994 11.47 7.85994 11.56C7.54994 11.95 7.40994 12.08 6.49994 12.27C6.30994 12.31 6.19994 12.35 6.13994 12.38C6.20994 12.43 6.33994 12.49 6.47994 12.52C7.14994 12.69 8.07994 12.7 8.71994 11.8C8.79994 11.69 8.76994 11.56 8.74994 11.49C8.70994 11.33 8.60994 11.2 8.49994 11.15ZM14.4099 11.09C14.3799 11.07 14.3599 11.05 14.3399 11.04C14.2999 11.06 14.2599 11.07 14.2399 11.07C14.0099 11.14 13.7899 11.2 13.8199 11.79C14.0099 11.97 15.2199 11.95 15.8899 11.64C16.2299 11.48 16.4699 11.31 16.5999 11.18H16.5899C15.5499 11.39 14.8199 11.36 14.4099 11.09ZM6.40994 9.94001C6.75994 10.3 7.21994 10.51 7.68994 10.51C7.73994 10.29 7.82994 10.05 7.92994 9.80001L7.96994 9.70001C8.01994 9.57001 8.06994 9.45001 8.12994 9.31001C8.41994 8.67001 8.77994 7.87001 8.35994 5.96001C8.27994 5.59001 8.08994 5.38001 7.76994 5.30001C7.07994 5.14001 6.10994 5.66001 5.89994 5.85001C5.89994 5.89001 5.90994 5.95001 5.90994 6.01001C5.93994 6.44001 5.97994 7.25001 5.84994 8.18001C5.75994 8.83001 5.96994 9.47001 6.40994 9.94001ZM7.19994 5.72001C7.19994 5.69001 7.21994 5.65001 7.26994 5.61001C7.34994 5.55001 7.51994 5.52001 7.69994 5.55001C7.80994 5.57001 7.91994 5.60001 7.98994 5.64001C8.12994 5.72001 8.13994 5.80001 8.12994 5.85001C8.10994 5.98001 7.90994 6.15001 7.68994 6.15001C7.66994 6.15001 7.64994 6.15001 7.62994 6.15001C7.49994 6.13001 7.35994 6.05001 7.26994 5.93001C7.24994 5.88001 7.18994 5.80001 7.19994 5.72001ZM14.0599 10.6C14.0199 10.55 13.9799 10.49 13.9299 10.43C13.7699 10.23 13.5499 9.95001 13.3799 9.54001C13.3499 9.48001 13.2699 9.33001 13.1799 9.16001C12.6599 8.22001 11.5699 6.27001 12.2699 5.27001C12.5899 4.81001 13.2299 4.62001 14.1699 4.72001C13.8699 3.85001 12.5299 1.26001 9.44994 1.21001C8.50994 1.19001 7.73994 1.48001 7.15994 2.07001C6.23994 3.00001 5.99994 4.46001 5.92994 5.24001C5.96994 5.22001 6.01994 5.19001 6.06994 5.17001C6.29994 5.05001 6.76994 4.85001 7.27994 4.79001C8.12994 4.70001 8.68994 5.08001 8.85994 5.86001C9.30994 7.94001 8.89994 8.86001 8.58994 9.53001C8.52994 9.65001 8.47994 9.77001 8.43994 9.88001L8.39994 9.98001C8.30994 10.22 8.22994 10.44 8.17994 10.63C8.39994 10.57 8.58994 10.65 8.68994 10.69C8.93994 10.8 9.15994 11.05 9.23994 11.35C9.24994 11.4 9.25994 11.45 9.26994 11.5C9.27994 11.53 9.27994 11.55 9.27994 11.58C9.21994 13.66 9.29994 15.55 9.46994 15.97C9.72994 16.62 10.1199 17.19 11.2299 16.95C12.2999 16.72 12.6799 16.33 12.8599 15.3C12.9999 14.51 13.2599 12.28 13.2999 11.82C13.2699 10.87 13.7799 10.68 14.0599 10.6Z" />
</svg>
