<svg width="18" height="18" viewBox="0 0 18 18"  xmlns="http://www.w3.org/2000/svg">
  <path d="M3.25999 8.13L2.36999 7.38L1.99999 7.91L2.17999 8.53L3.25999 8.13ZM1.98999 7.92L1.99999 7.91V7.89L1.98999 7.92ZM3.95999 12.07H2.79999L2.84999 12.71L3.38999 13.07L3.95999 12.07ZM6.59999 15.84L6.58999 15.83H6.56999L6.59999 15.84ZM2.84999 12.72V12.7L2.83999 12.69L2.84999 12.72ZM13.57 3.67L13.58 3.68H13.6L13.57 3.67ZM7.02999 14.63L6.13999 15.37L6.58999 15.83L7.22999 15.76L7.02999 14.63ZM12.75 4.67L13.84 4.28L13.58 3.69L12.95 3.53L12.75 4.67ZM8.99999 3.29L9.57999 2.29L8.99999 2.01L8.41999 2.29L8.99999 3.29ZM8.98999 2L8.99999 2.01L9.00999 2H8.98999ZM4.40999 3.69H4.42999L4.43999 3.68L4.40999 3.69ZM5.24999 4.67L5.04999 3.53L4.41999 3.69L4.15999 4.28L5.24999 4.67ZM2.85999 10.16C2.83999 10.14 2.81999 10.13 2.78999 10.13L2.69999 10.15C2.67999 10.15 2.65999 10.17 2.64999 10.2C2.63999 10.23 2.63999 10.26 2.63999 10.29L2.65999 10.41L2.91999 10.36L2.89999 10.24C2.89999 10.21 2.87999 10.18 2.85999 10.16ZM14.74 8.13L15.83 8.53L16.01 7.91L15.63 7.39L14.74 8.13ZM3.81999 6.23C3.84999 6.22 3.86999 6.2 3.88999 6.16C3.90999 6.13 3.91999 6.1 3.91999 6.07C3.91999 6.04 3.90999 6.02 3.88999 6L3.66999 5.86C3.64999 5.85 3.61999 5.85 3.59999 5.86C3.56999 5.87 3.54999 5.89 3.52999 5.93C3.50999 5.96 3.49999 5.99 3.49999 6.02C3.49999 6.05 3.50999 6.07 3.52999 6.09L3.74999 6.23C3.76999 6.24 3.78999 6.24 3.81999 6.23ZM14.61 8.16L15.63 7.3C15.31 6.16 14.71 5.14 13.91 4.32L12.67 4.77L12.9 3.47C11.96 2.83 10.86 2.41 9.65999 2.3L8.99999 3.42L8.34999 2.3C7.14999 2.42 6.04999 2.84 5.10999 3.49L5.32999 4.77L4.10999 4.33C3.29999 5.15 2.69999 6.17 2.38999 7.31L3.38999 8.15L2.16999 8.6C2.15999 8.77 2.14999 8.95 2.14999 9.13C2.14999 10.15 2.36999 11.12 2.76999 12H4.07999L3.42999 13.13C4.10999 14.07 5.01999 14.84 6.07999 15.34L7.07999 14.5L7.30999 15.78C7.85999 15.92 8.42999 15.99 9.01999 15.99C9.59999 15.99 10.16 15.92 10.7 15.78L10.93 14.49L11.94 15.34C13 14.84 13.91 14.08 14.59 13.14L13.93 11.99H15.26C15.66 11.12 15.88 10.15 15.88 9.12C15.88 8.95 15.87 8.77 15.86 8.6L14.61 8.16ZM11.04 3.11L11.16 2.88L11.4 3L11.28 3.23C11.27 3.25 11.27 3.28 11.29 3.3C11.3 3.33 11.33 3.35 11.36 3.37C11.39 3.39 11.42 3.39 11.45 3.39C11.48 3.39 11.5 3.37 11.51 3.35L11.63 3.12L11.86 3.24L11.74 3.47C11.69 3.56 11.59 3.57 11.42 3.5L11.26 3.81L11.03 3.69L11.19 3.38C11.04 3.3 10.99 3.21 11.04 3.11ZM6.55999 3.05L6.65999 3.29C6.66999 3.31 6.68999 3.33 6.71999 3.33C6.74999 3.34 6.77999 3.33 6.81999 3.32C6.84999 3.31 6.87999 3.29 6.89999 3.26C6.91999 3.23 6.91999 3.21 6.90999 3.19L6.80999 2.95L7.04999 2.85L7.13999 3.05C7.17999 3.15 7.11999 3.23 6.96999 3.32C7.13999 3.26 7.23999 3.28 7.27999 3.38L7.36999 3.58L7.12999 3.68L7.02999 3.44C7.01999 3.42 6.99999 3.4 6.96999 3.4C6.93999 3.39 6.90999 3.4 6.86999 3.41C6.83999 3.42 6.80999 3.44 6.78999 3.47C6.76999 3.5 6.76999 3.52 6.77999 3.54L6.87999 3.78L6.63999 3.88L6.54999 3.68C6.50999 3.58 6.56999 3.5 6.71999 3.41C6.54999 3.47 6.44999 3.45 6.40999 3.35L6.31999 3.15L6.55999 3.05ZM3.37999 6.31C3.33999 6.28 3.31999 6.24 3.31999 6.18C3.31999 6.12 3.33999 6.06 3.36999 6L3.50999 5.78C3.54999 5.72 3.59999 5.68 3.64999 5.65C3.70999 5.62 3.75999 5.62 3.79999 5.65L4.01999 5.79C4.05999 5.82 4.07999 5.86 4.07999 5.92C4.07999 5.98 4.05999 6.04 4.02999 6.11L3.89999 6.32C3.85999 6.38 3.80999 6.42 3.75999 6.45C3.69999 6.48 3.64999 6.48 3.60999 6.45L3.37999 6.31ZM2.62999 10.69L2.52999 10.19C2.51999 10.12 2.51999 10.06 2.54999 10C2.56999 9.94 2.60999 9.91 2.65999 9.9L2.70999 9.89C2.74999 9.88 2.78999 9.89 2.82999 9.93C2.86999 9.96 2.89999 10.02 2.91999 10.11L2.89999 9.99C2.88999 9.96 2.89999 9.92 2.90999 9.9C2.91999 9.87 2.93999 9.86 2.95999 9.85L3.26999 9.79L3.31999 10.04L3.05999 10.09C3.03999 10.09 3.01999 10.11 3.00999 10.14C2.99999 10.17 2.99999 10.2 2.99999 10.23L3.01999 10.35L3.36999 10.28L3.41999 10.53L2.62999 10.69ZM4.96999 14.31L4.58999 13.94C4.53999 13.89 4.49999 13.83 4.48999 13.77C4.47999 13.71 4.48999 13.66 4.51999 13.63L4.57999 13.57C4.60999 13.54 4.65999 13.52 4.71999 13.53C4.77999 13.54 4.83999 13.57 4.88999 13.62L5.07999 13.8L5.31999 13.54L5.50999 13.72L4.96999 14.31ZM13.23 14.28L12.78 13.74L12.48 13.99L12.42 13.92L12.93 13.5L13.44 14.11L13.23 14.28ZM9.00999 14.62C5.97999 14.62 3.51999 12.16 3.51999 9.13C3.51999 6.1 5.97999 3.64 9.00999 3.64C12.04 3.64 14.5 6.1 14.5 9.13C14.5 12.16 12.05 14.62 9.00999 14.62ZM14.56 6C14.54 6.01 14.53 6.03 14.53 6.06L14.49 6.41C14.48 6.47 14.46 6.52 14.42 6.54L14.38 6.56C14.34 6.58 14.29 6.58 14.23 6.56C14.17 6.53 14.13 6.49 14.09 6.43L14.02 6.32C13.98 6.24 13.96 6.18 13.96 6.13C13.96 6.08 13.99 6.04 14.04 6.01L14.11 6.12C14.1 6.12 14.1 6.12 14.1 6.13C14.08 6.14 14.07 6.16 14.07 6.19C14.07 6.22 14.08 6.25 14.1 6.28C14.12 6.32 14.15 6.35 14.17 6.36C14.19 6.37 14.22 6.37 14.24 6.35C14.26 6.34 14.27 6.32 14.27 6.29L14.31 5.94C14.32 5.88 14.34 5.83 14.38 5.81L14.42 5.79C14.46 5.77 14.51 5.77 14.57 5.79C14.63 5.82 14.67 5.86 14.71 5.92L14.78 6.03C14.86 6.17 14.86 6.28 14.76 6.35L14.69 6.24C14.74 6.2 14.74 6.15 14.7 6.09C14.68 6.05 14.65 6.02 14.63 6.01C14.61 6 14.58 5.99 14.56 6ZM15.61 10.28L15.55 10.54C15.53 10.61 15.5 10.67 15.46 10.71C15.41 10.75 15.37 10.77 15.32 10.76L14.89 10.66C14.79 10.64 14.75 10.54 14.78 10.36L14.72 10.62L14.63 10.6L14.68 10.41C14.7 10.33 14.74 10.3 14.8 10.3L14.85 10.11C14.87 10.04 14.9 9.98 14.94 9.94C14.99 9.9 15.03 9.88 15.08 9.89L15.51 9.99C15.56 10 15.59 10.04 15.61 10.09C15.63 10.14 15.63 10.21 15.61 10.28ZM4.83999 13.73C4.80999 13.72 4.78999 13.73 4.76999 13.75L4.70999 13.81C4.68999 13.83 4.68999 13.85 4.69999 13.88C4.70999 13.91 4.71999 13.94 4.74999 13.96L4.84999 14.05L5.02999 13.86L4.92999 13.77C4.89999 13.75 4.86999 13.74 4.83999 13.73ZM15.44 10.24L15.01 10.14C14.99 10.13 14.96 10.14 14.94 10.16C14.92 10.18 14.9 10.21 14.89 10.25C14.88 10.29 14.88 10.32 14.89 10.35C14.9 10.38 14.92 10.4 14.94 10.4L15.37 10.5C15.39 10.51 15.42 10.5 15.44 10.48C15.46 10.46 15.48 10.43 15.49 10.4C15.5 10.36 15.5 10.33 15.49 10.3C15.48 10.26 15.47 10.24 15.44 10.24ZM14.04 12.07L14.62 13.07L15.16 12.71L15.21 12.07H14.04ZM15.16 12.7L15.15 12.71V12.73L15.16 12.7ZM10.97 14.63L10.77 15.77L11.41 15.84L11.86 15.38L10.97 14.63ZM11.42 15.83H11.4L11.39 15.84L11.42 15.83ZM16.01 7.89V7.91L16.02 7.92L16.01 7.89ZM9.00999 4.01C6.17999 4.01 3.88999 6.3 3.88999 9.13C3.88999 11.96 6.17999 14.25 9.00999 14.25C11.84 14.25 14.13 11.96 14.13 9.13C14.13 6.3 11.84 4.01 9.00999 4.01ZM7.30999 7.62C7.90999 6.76 8.73999 6.3 9.77999 6.25C9.80999 6.25 9.83999 6.25 9.86999 6.25C10.19 6.25 10.51 6.33 10.75 6.4C10.46 6.33 10.19 6.3 9.91999 6.3C9.24999 6.3 8.79999 6.52 8.46999 6.72C7.92999 7.04 8.03999 7.5 8.06999 7.59C8.06999 7.59 8.05999 7.59 8.05999 7.6C7.63999 7.87 7.27999 8.44 7.39999 9.01C7.50999 9.54 7.97999 10.15 8.75999 10.26C8.71999 10.33 8.59999 10.49 8.36999 10.49C8.28999 10.49 8.20999 10.47 8.11999 10.44C7.80999 10.32 7.32999 9.74 7.12999 9.1C7.00999 8.73 6.94999 8.15 7.30999 7.62ZM8.54999 11.53C7.87999 11.53 7.18999 11.25 6.68999 10.78C6.19999 10.33 5.89999 9.66 5.80999 8.94C6.07999 10.54 7.57999 11.09 7.59999 11.1C7.75999 11.16 7.91999 11.19 8.08999 11.19C8.40999 11.19 8.68999 11.08 8.85999 10.87C9.90999 10.64 10.52 9.94 10.49 8.98C10.67 9.16 11.14 9.76 10.49 10.55C9.95999 11.19 9.28999 11.53 8.54999 11.53ZM10.9 9.54C10.9 9.39 10.72 8.96 10.47 8.86L10.42 8.84V8.89C10.45 10.17 9.38999 10.6 9.26999 10.65L9.24999 10.66C9.12999 10.7 8.88999 10.8 8.56999 10.8C8.12999 10.8 7.69999 10.64 7.26999 10.31C6.78999 9.95 6.58999 9.48 6.53999 9.02C6.56999 9.2 6.62999 9.37 6.71999 9.53C7.01999 10.1 7.59999 10.47 8.00999 10.57C8.09999 10.59 8.17999 10.6 8.25999 10.6C8.69999 10.6 8.83999 10.26 8.83999 10.26L8.85999 10.22L8.81999 10.21C8.21999 10.13 7.73999 9.62 7.54999 9.17C7.45999 8.97 7.48999 8.65 7.60999 8.36C7.75999 8.01 8.01999 7.71 8.35999 7.51C8.69999 7.32 9.08999 7.21 9.48999 7.21C9.64999 7.21 9.79999 7.23 9.94999 7.26C9.84999 7.25 9.73999 7.24 9.62999 7.24C9.46999 7.24 9.32999 7.25 9.19999 7.26C9.16999 7.26 9.12999 7.27 9.09999 7.27C8.74999 7.3 8.21999 7.66 8.18999 7.89C8.15999 8.12 8.25999 8.16 8.26999 8.16L8.28999 8.17L8.29999 8.16C8.39999 8.08 8.70999 7.9 9.36999 7.9C10.01 7.9 10.61 8.28 10.93 8.88C11.25 9.49 10.94 10.34 10.61 10.75C10.44 10.96 10.25 11.11 10.1 11.21C10.83 10.64 10.9 9.81 10.9 9.54ZM10.43 12.26C11.21 11.64 11.64 10.97 11.69 10.29C11.76 9.37 11.13 8.74 11.12 8.73L11.05 8.66L11.06 8.75C11.07 8.84 11.07 8.93 11.06 9C10.88 8.38 9.99999 7.82 9.13999 7.82C8.79999 7.82 8.49999 7.91 8.26999 8.08C8.24999 7.96 8.28999 7.84 8.36999 7.74C8.56999 7.48 9.03999 7.32 9.59999 7.32C10.37 7.32 11.73 7.75 11.89 9.34C12.01 10.53 11.47 11.6 10.43 12.26Z" />
</svg>
