<svg width="18" height="18" viewBox="0 0 18 18" xmlns="http://www.w3.org/2000/svg">
  <path d="M10.26 6.96V2.71C10.26 2.32 9.93999 2 9.54999 2H8.16999C7.77999 2 7.45999 2.32 7.45999 2.71V6.96C7.45999 7.35 7.13999 7.67 6.74999 7.67H5.92999C5.53999 7.67 5.21999 7.35 5.21999 6.96V2.71C5.21999 2.32 4.89999 2 4.50999 2H3.19999C2.80999 2 2.48999 2.32 2.48999 2.71V15.29C2.48999 15.68 2.80999 16 3.19999 16H14.8C15.19 16 15.51 15.68 15.51 15.29V8.38C15.51 7.99 15.19 7.67 14.8 7.67H10.97C10.58 7.67 10.26 7.35 10.26 6.96ZM12.92 12.5C12.92 12.88 12.61 13.2 12.22 13.2H10.95C10.57 13.2 10.25 12.89 10.25 12.5V11.23C10.25 10.85 10.56 10.53 10.95 10.53H12.22C12.6 10.53 12.92 10.84 12.92 11.23V12.5Z" />
</svg>
