<svg width="16" height="16" viewBox="0 0 16 16" xmlns="http://www.w3.org/2000/svg">
<path d="M7.62757 9.1921H7.65384C7.59144 9.04268 7.50989 8.89709 7.4152 8.76518L1.33223 5.29185C1.12972 5.36301 1 5.57592 1 5.89884V11.2845C1 11.8505 1.39736 12.5384 1.88721 12.8214L6.9051 15.719C7.20284 15.8908 7.46665 15.8733 7.62757 15.7064V9.1921ZM4.54776 12.9807L3.54616 12.4022V11.3524L4.54776 11.9309V12.9807ZM5.3994 10.6595C5.32716 10.7689 5.20401 10.8614 5.03051 10.9359L4.85317 11.0016C4.72729 11.0508 4.64519 11.1017 4.60633 11.1537C4.56747 11.2041 4.54831 11.2736 4.54831 11.3617V11.4941L3.54671 10.9162V10.7717C3.54671 10.6108 3.57736 10.4854 3.63811 10.3968C3.69886 10.3065 3.82748 10.2211 4.02397 10.1417L4.20131 10.0733C4.30694 10.0317 4.38357 9.9797 4.43173 9.9173C4.48154 9.85545 4.50672 9.77992 4.50672 9.68907C4.50672 9.55169 4.46238 9.41869 4.37372 9.29061C4.28505 9.1609 4.16081 9.04979 4.00208 8.95784C3.85211 8.87136 3.69065 8.81116 3.5166 8.77777C3.34255 8.74219 3.16139 8.73508 2.97256 8.75588V7.83035C3.19642 7.87687 3.40057 7.93434 3.58557 8.00166C3.77056 8.06898 3.94899 8.15272 4.12085 8.25179C4.57239 8.51232 4.91611 8.80952 5.15311 9.14229C5.3901 9.47342 5.50832 9.82699 5.50832 10.2025C5.50832 10.3951 5.4722 10.5473 5.39995 10.6589L5.3994 10.6595ZM13.8862 4.23059L8.66967 1.21264C8.17982 0.929121 7.38565 0.929121 6.89579 1.21264L1.67923 4.23059C1.26162 4.47251 1.20032 4.84195 1.49533 5.12164L7.28494 8.42748C7.60403 8.50739 7.9691 8.50684 8.28764 8.42584L14.0833 5.10905C14.3635 4.83101 14.2978 4.46868 13.8862 4.23059ZM7.97183 5.41829L7.84595 5.34768C7.70529 5.26887 7.61553 5.17965 7.57666 5.08059C7.53616 4.98043 7.54273 4.82115 7.59692 4.60222L7.64891 4.40573C7.67901 4.28861 7.6823 4.19282 7.65767 4.11839C7.63523 4.04231 7.58487 3.98265 7.50606 3.93832C7.3862 3.871 7.24225 3.84691 7.07477 3.86552C6.90564 3.88358 6.73105 3.9427 6.55043 4.04395C6.38076 4.13919 6.22641 4.25796 6.08739 4.40135C5.94673 4.54366 5.82632 4.70622 5.72561 4.88957L4.91776 4.43693C5.09947 4.25467 5.2779 4.09485 5.45304 3.95802C5.62819 3.82119 5.81373 3.69859 6.00858 3.58912C6.51978 3.30232 6.9954 3.13211 7.43545 3.07792C7.87331 3.02264 8.25644 3.08668 8.58374 3.27058C8.75177 3.36472 8.86178 3.472 8.91378 3.59295C8.96413 3.71282 8.96687 3.87045 8.92254 4.06639L8.86781 4.26124C8.83168 4.40081 8.82402 4.50097 8.84537 4.56227C8.86452 4.62247 8.91323 4.67447 8.99041 4.71771L9.10644 4.78229L7.97183 5.41829ZM9.26845 6.14459L8.35277 5.63174L9.48793 4.99575L10.4036 5.50859L9.26845 6.14459ZM14.2343 5.28529L8.18091 8.74931C8.08075 8.88614 7.99482 9.03775 7.92969 9.19428V15.6746C8.08677 15.8706 8.36372 15.9012 8.67953 15.719L13.6974 12.8214C14.1873 12.5384 14.5846 11.8505 14.5846 11.2845V5.89884C14.5846 5.56606 14.4478 5.34987 14.2343 5.28529ZM11.7166 12.6775L10.715 13.2554V12.2057L11.7166 11.6271V12.6775ZM12.5683 9.37326C12.496 9.56647 12.3729 9.80017 12.1994 10.076L12.022 10.3464C11.8962 10.5407 11.8141 10.6868 11.7752 10.7837C11.7363 10.879 11.7172 10.9709 11.7172 11.059V11.1915L10.7156 11.7695V11.625C10.7156 11.464 10.7462 11.3037 10.807 11.1444C10.8677 10.9835 10.9964 10.7498 11.1928 10.4444L11.3702 10.1707C11.4758 10.0076 11.5524 9.86695 11.6006 9.74873C11.6504 9.62941 11.6756 9.52487 11.6756 9.43401C11.6756 9.29663 11.6313 9.21508 11.5426 9.18936C11.4539 9.16199 11.3297 9.19428 11.171 9.28624C11.021 9.37271 10.8595 9.49969 10.6855 9.66663C10.5114 9.83192 10.3303 10.0339 10.1414 10.2725V9.34644C10.3653 9.13463 10.5694 8.95565 10.7544 8.80952C10.9394 8.66338 11.1179 8.54078 11.2897 8.44116C11.7413 8.18064 12.085 8.08048 12.322 8.14014C12.559 8.19815 12.6772 8.41489 12.6772 8.79036C12.6772 8.98302 12.6411 9.17677 12.5688 9.37162L12.5683 9.37326Z"/>
</svg>
