<svg width="18" height="18" viewBox="0 0 18 18" xmlns="http://www.w3.org/2000/svg">
  <path d="M1.49006 5.89003C2.36006 6.30003 7.16006 8.24003 7.92006 8.60003C8.68006 8.96003 9.21006 8.97003 10.1701 8.47003C11.1301 7.97003 15.6501 6.11003 16.5201 5.66003C16.9401 5.44003 17.1501 5.27003 17.1601 5.11003C17.1701 4.94003 16.9501 4.80003 16.5101 4.64003C15.6601 4.33003 11.1701 2.54003 10.3101 2.23003C9.45006 1.91003 9.10006 1.93003 8.09006 2.29003C7.08006 2.65003 2.31006 4.52003 1.46006 4.86003C1.03006 5.03003 0.830059 5.18003 0.830059 5.35003C0.840059 5.51003 1.06006 5.68003 1.49006 5.89003ZM9.34006 7.81003L6.55006 6.66003L10.5501 6.05003L9.34006 7.81003ZM15.1501 5.16003L12.8201 6.08003L12.5601 6.18003L10.2201 5.26003L12.8001 4.24003L15.1501 5.16003ZM8.04006 2.79003L9.26006 3.27003L10.4001 2.90003L10.0901 3.64003L11.1501 4.04003L11.1401 4.11003L9.75006 4.25003L9.41006 5.06003L8.87006 4.16003L7.25006 4.02003L7.24006 3.95003L8.42006 3.52003L8.04006 2.79003ZM5.66006 4.46003C6.82006 4.46003 7.72006 4.82003 7.72006 5.28003C7.72006 5.74003 6.82006 6.10003 5.66006 6.10003C4.50006 6.10003 3.60006 5.74003 3.60006 5.28003C3.60006 4.82003 4.51006 4.46003 5.66006 4.46003ZM16.5301 11.14C15.6601 11.59 11.1401 13.45 10.1801 13.95C9.22006 14.45 8.68006 14.45 7.93006 14.08C7.17006 13.72 2.37006 11.78 1.50006 11.36C1.07006 11.15 0.850059 10.98 0.840059 10.81V12.46C0.840059 12.62 1.07006 12.8 1.50006 13.01C2.37006 13.42 7.17006 15.36 7.93006 15.73C8.69006 16.09 9.22006 16.1 10.1801 15.6C11.1401 15.1 15.6601 13.24 16.5301 12.79C16.9701 12.56 17.1701 12.38 17.1701 12.22V10.59C17.1601 10.75 16.9501 10.92 16.5301 11.14ZM1.49006 7.54003C2.36006 7.95003 7.16006 9.89003 7.92006 10.26C8.68006 10.62 9.21006 10.63 10.1701 10.13C11.1301 9.63003 15.6501 7.77003 16.5201 7.32003C16.9601 7.09003 17.1601 6.91003 17.1601 6.75003V5.31003C17.1501 5.33003 17.1401 5.34003 17.1201 5.36003C17.1201 5.36003 17.1201 5.36003 17.1201 5.37003C17.0901 5.40003 17.0601 5.43003 17.0101 5.47003C17.0101 5.47003 17.0101 5.47003 17.0001 5.48003C16.9801 5.49003 16.9601 5.51003 16.9401 5.52003L16.9301 5.53003C16.8801 5.56003 16.8301 5.60003 16.7701 5.63003C16.7601 5.63003 16.7601 5.64003 16.7501 5.64003C16.7301 5.65003 16.7001 5.67003 16.6801 5.68003C16.6701 5.68003 16.6601 5.69003 16.6501 5.69003C16.6201 5.71003 16.5801 5.73003 16.5501 5.74003C16.5401 5.75003 16.5201 5.75003 16.5101 5.76003C16.2701 5.88003 15.8101 6.09003 15.2501 6.33003C15.1701 6.37003 15.0801 6.40003 14.9901 6.44003C14.9701 6.45003 14.9501 6.46003 14.9201 6.47003C14.4901 6.66003 14.0101 6.86003 13.5201 7.07003C13.1801 7.21003 12.8401 7.36003 12.5201 7.50003C12.5001 7.51003 12.4801 7.52003 12.4601 7.53003C12.4101 7.55003 12.3601 7.57003 12.3101 7.59003C11.7301 7.84003 11.1901 8.08003 10.7801 8.26003C10.5301 8.37003 10.3401 8.47003 10.2101 8.53003C9.81006 8.74003 9.48006 8.86003 9.19006 8.91003C9.09006 8.93003 8.99006 8.93003 8.90006 8.93003C8.86006 8.93003 8.82006 8.93003 8.78006 8.93003C8.73006 8.93003 8.69006 8.92003 8.64006 8.91003C8.41006 8.88003 8.17006 8.80003 7.89006 8.66003C7.54006 8.49003 6.31006 7.98003 4.99006 7.43003C4.95006 7.41003 4.90006 7.39003 4.86006 7.38003C4.04006 7.04003 3.21006 6.70003 2.56006 6.42003C2.42006 6.36003 2.28006 6.30003 2.15006 6.25003C1.84006 6.12003 1.59006 6.01003 1.45006 5.94003C1.41006 5.92003 1.38006 5.91003 1.35006 5.89003C1.34006 5.89003 1.33006 5.88003 1.32006 5.88003C1.29006 5.87003 1.27006 5.85003 1.25006 5.84003C1.24006 5.84003 1.24006 5.83003 1.23006 5.83003C1.20006 5.81003 1.17006 5.80003 1.14006 5.78003C1.14006 5.78003 1.14006 5.78003 1.13006 5.78003C1.10006 5.76003 1.08006 5.75003 1.06006 5.73003C1.05006 5.73003 1.05006 5.72003 1.04006 5.72003C1.02006 5.71003 1.00006 5.69003 0.980059 5.68003C0.980059 5.68003 0.970059 5.68003 0.970059 5.67003C0.950059 5.65003 0.930059 5.64003 0.910059 5.62003C0.890059 5.61003 0.880059 5.59003 0.860059 5.58003L0.850059 5.57003C0.840059 5.55003 0.820059 5.54003 0.810059 5.52003V6.98003C0.830059 7.16003 1.06006 7.33003 1.49006 7.54003ZM16.5301 8.45003C15.6601 8.90003 11.1401 10.76 10.1801 11.26C9.22006 11.76 8.68006 11.76 7.93006 11.39C7.17006 11.03 2.37006 9.09003 1.50006 8.67003C1.07006 8.46003 0.850059 8.29003 0.840059 8.12003V9.77003C0.840059 9.93003 1.07006 10.11 1.50006 10.32C2.37006 10.73 7.17006 12.68 7.93006 13.04C8.69006 13.4 9.22006 13.41 10.1801 12.91C11.1401 12.41 15.6601 10.55 16.5301 10.1C16.9701 9.87003 17.1701 9.69003 17.1701 9.53003V7.90003C17.1601 8.06003 16.9501 8.23003 16.5301 8.45003Z" />
</svg>
