<svg width="18" height="18" viewBox="0 0 18 18" xmlns="http://www.w3.org/2000/svg">
  <path d="M4.08 8.82991C3.95 8.82991 3.86 8.86991 3.81 8.94991C3.76 9.02991 3.73 9.11991 3.73 9.21991H4.4C4.4 8.95991 4.29 8.82991 4.08 8.82991ZM2.1 8.26991H1.98V9.00991C2 9.00991 2.02 9.00991 2.05 9.00991C2.22 9.00991 2.36 8.97991 2.45 8.90991C2.55 8.83991 2.59 8.74991 2.59 8.60991C2.61 8.38991 2.44 8.26991 2.1 8.26991ZM0 4.90991V13.0899H18V4.90991H0ZM8.2 8.00991C8.24 7.96991 8.3 7.94991 8.37 7.94991C8.44 7.94991 8.49 7.96991 8.54 8.00991C8.58 8.04991 8.6 8.10991 8.6 8.16991C8.6 8.22991 8.58 8.28991 8.54 8.32991C8.5 8.36991 8.44 8.38991 8.37 8.38991C8.3 8.38991 8.25 8.36991 8.21 8.32991C8.17 8.28991 8.15 8.23991 8.15 8.16991C8.15 8.09991 8.16 8.05991 8.2 8.00991ZM3.21 10.0899C3.21 10.1199 3.19 10.1399 3.16 10.1399H2.74C2.71 10.1399 2.68 10.1299 2.67 10.0999L2.23 9.26991H2.17C2.1 9.26991 2.04 9.26991 1.99 9.25991V9.89991H2.19C2.22 9.89991 2.24 9.91991 2.24 9.94991V10.0999C2.24 10.1299 2.22 10.1499 2.19 10.1499H1.46C1.43 10.1499 1.41 10.1299 1.41 10.0999V9.94991C1.41 9.91991 1.43 9.89991 1.46 9.89991H1.63V8.27991H1.46C1.43 8.27991 1.41 8.25991 1.41 8.22991V8.07991C1.41 8.04991 1.43 8.02991 1.46 8.02991C1.73 8.01991 1.96 8.00991 2.14 8.00991C2.7 8.00991 2.97 8.19991 2.97 8.57991C2.97 8.70991 2.93 8.82991 2.86 8.92991C2.79 9.02991 2.7 9.10991 2.58 9.15991L2.95 9.86991H3.15C3.18 9.86991 3.2 9.88991 3.2 9.91991V10.0899H3.21ZM4.72 9.42991C4.71 9.43991 4.7 9.43991 4.67 9.43991H3.73C3.74 9.58991 3.78 9.69991 3.84 9.77991C3.91 9.85991 4.02 9.89991 4.18 9.89991C4.3 9.89991 4.42 9.86991 4.54 9.81991C4.57 9.80991 4.59 9.80991 4.6 9.83991L4.66 9.97991C4.67 9.99991 4.66 10.0299 4.63 10.0399C4.49 10.1099 4.31 10.1499 4.1 10.1499C3.85 10.1499 3.66 10.0799 3.54 9.93991C3.42 9.79991 3.36 9.60991 3.36 9.36991C3.36 9.12991 3.42 8.93991 3.55 8.77991C3.68 8.61991 3.86 8.54991 4.09 8.54991C4.21 8.54991 4.31 8.56991 4.39 8.60991C4.47 8.64991 4.54 8.70991 4.58 8.77991C4.67 8.91991 4.71 9.07991 4.71 9.25991C4.73 9.37991 4.72 9.41991 4.72 9.42991ZM5.93 10.0999C5.83 10.1499 5.71 10.1699 5.57 10.1699C5.38 10.1699 5.26 10.1199 5.2 10.0299C5.16 9.96991 5.13 9.90991 5.13 9.84991C5.11 9.76991 5.1 9.67991 5.1 9.59991V8.85991H4.92C4.89 8.85991 4.87 8.83991 4.87 8.80991V8.64991C4.87 8.61991 4.89 8.59991 4.92 8.59991H5.1V8.17991C5.1 8.14991 5.12 8.12991 5.15 8.12991H5.41C5.44 8.12991 5.46 8.14991 5.46 8.17991V8.59991H5.78C5.81 8.59991 5.83 8.61991 5.83 8.64991V8.80991C5.83 8.83991 5.81 8.85991 5.78 8.85991H5.46V9.63991C5.46 9.73991 5.47 9.80991 5.5 9.84991C5.53 9.88991 5.57 9.90991 5.64 9.90991C5.71 9.90991 5.78 9.89991 5.84 9.86991C5.86 9.85991 5.88 9.86991 5.89 9.88991L5.95 10.0299C5.95 10.0399 5.95 10.0399 5.95 10.0599C5.96 10.0699 5.95 10.0799 5.93 10.0999ZM7.88 10.0899C7.88 10.1199 7.86 10.1399 7.83 10.1399H7.13C7.1 10.1399 7.08 10.1199 7.08 10.0899V9.93991C7.08 9.90991 7.1 9.88991 7.13 9.88991H7.28V9.24991C7.28 9.11991 7.26 9.02991 7.23 8.96991C7.2 8.90991 7.13 8.87991 7.02 8.87991C6.91 8.87991 6.82 8.90991 6.75 8.96991C6.68 9.02991 6.64 9.09991 6.64 9.17991V9.88991H6.84C6.87 9.88991 6.89 9.90991 6.89 9.93991V10.0899C6.89 10.1199 6.87 10.1399 6.84 10.1399H6.11C6.08 10.1399 6.06 10.1199 6.06 10.0899V9.93991C6.06 9.90991 6.08 9.88991 6.11 9.88991H6.28V8.07991H6.11C6.08 8.07991 6.06 8.05991 6.06 8.02991V7.86991C6.06 7.83991 6.08 7.81991 6.11 7.81991H6.6C6.63 7.81991 6.65 7.83991 6.65 7.86991V8.81991C6.77 8.64991 6.94 8.55991 7.15 8.55991C7.48 8.55991 7.65 8.72991 7.65 9.07991V9.86991H7.84C7.87 9.86991 7.89 9.88991 7.89 9.91991V10.0899H7.88ZM8.83 10.0899C8.83 10.1199 8.81 10.1399 8.78 10.1399H8.02C7.99 10.1399 7.97 10.1199 7.97 10.0899V9.93991C7.97 9.90991 7.99 9.88991 8.02 9.88991H8.22V8.85991H8.05C8.02 8.85991 8 8.83991 8 8.80991V8.64991C8 8.61991 8.02 8.59991 8.05 8.59991H8.53C8.56 8.59991 8.58 8.61991 8.58 8.64991V9.88991H8.78C8.81 9.88991 8.83 9.90991 8.83 9.93991V10.0899ZM10.75 10.0899C10.75 10.1199 10.73 10.1399 10.7 10.1399H10C9.97 10.1399 9.95 10.1199 9.95 10.0899V9.93991C9.95 9.90991 9.97 9.88991 10 9.88991H10.15V9.24991C10.15 9.11991 10.13 9.02991 10.1 8.96991C10.07 8.90991 10 8.87991 9.89 8.87991C9.78 8.87991 9.69 8.90991 9.62 8.96991C9.55 9.02991 9.51 9.09991 9.51 9.17991V9.88991H9.71C9.74 9.88991 9.76 9.90991 9.76 9.93991V10.0899C9.76 10.1199 9.74 10.1399 9.71 10.1399H9C8.97 10.1399 8.95 10.1199 8.95 10.0899V9.93991C8.95 9.90991 8.97 9.88991 9 9.88991H9.17V8.85991H9C8.97 8.85991 8.95 8.84991 8.95 8.81991V8.65991C8.95 8.62991 8.97 8.60991 9 8.60991H9.44C9.47 8.60991 9.48 8.62991 9.49 8.65991L9.52 8.83991C9.63 8.67991 9.79 8.58991 10 8.57991C10.01 8.57991 10.06 8.57991 10.07 8.57991C10.38 8.58991 10.53 8.76991 10.53 9.09991V9.88991H10.72C10.75 9.88991 10.77 9.90991 10.77 9.93991V10.0899H10.75ZM12.58 10.0899C12.58 10.1199 12.56 10.1399 12.53 10.1399H12.12C12.09 10.1399 12.07 10.1299 12.05 10.0999L11.57 9.34991H11.46V9.88991H11.63C11.66 9.88991 11.68 9.90991 11.68 9.93991V10.0899C11.68 10.1199 11.66 10.1399 11.63 10.1399H10.93C10.9 10.1399 10.88 10.1199 10.88 10.0899V9.93991C10.88 9.90991 10.9 9.88991 10.93 9.88991H11.1V8.07991H10.93C10.9 8.07991 10.88 8.05991 10.88 8.02991V7.86991C10.88 7.83991 10.9 7.81991 10.93 7.81991H11.41C11.44 7.81991 11.46 7.83991 11.46 7.86991V9.09991H11.62L12.12 8.62991C12.14 8.60991 12.17 8.59991 12.2 8.59991H12.45C12.48 8.59991 12.5 8.61991 12.5 8.64991V8.80991C12.5 8.83991 12.48 8.85991 12.45 8.85991H12.25L11.9 9.18991L12.34 9.88991H12.53C12.56 9.88991 12.58 9.90991 12.58 9.93991V10.0899ZM14.33 9.85991C14.12 10.0399 13.83 10.1299 13.46 10.1299H12.79C12.76 10.1299 12.74 10.1099 12.74 10.0799V9.92991C12.74 9.89991 12.76 9.87991 12.79 9.87991H12.96V8.27991H12.79C12.76 8.27991 12.74 8.25991 12.74 8.22991V8.06991C12.74 8.03991 12.76 8.01991 12.79 8.01991C13.06 8.00991 13.27 7.99991 13.4 7.99991C13.53 7.99991 13.63 7.99991 13.7 8.00991C13.77 8.01991 13.84 8.02991 13.92 8.03991C14 8.05991 14.08 8.07991 14.14 8.10991C14.21 8.13991 14.27 8.17991 14.34 8.22991C14.41 8.27991 14.46 8.33991 14.51 8.40991C14.61 8.56991 14.66 8.76991 14.66 9.01991C14.65 9.39991 14.54 9.67991 14.33 9.85991ZM16.38 9.93991C16.25 10.0499 16.07 10.1099 15.85 10.1199C15.76 10.1299 15.61 10.1299 15.41 10.1299H14.96C14.93 10.1299 14.91 10.1099 14.91 10.0799V9.92991C14.91 9.89991 14.93 9.87991 14.96 9.87991H15.13V8.27991H14.96C14.93 8.27991 14.91 8.25991 14.91 8.22991V8.06991C14.91 8.03991 14.93 8.01991 14.96 8.01991C15.22 8.00991 15.46 7.99991 15.69 7.99991C15.92 7.99991 16.1 8.03991 16.24 8.12991C16.38 8.21991 16.45 8.33991 16.45 8.49991C16.45 8.61991 16.41 8.71991 16.34 8.79991C16.27 8.88991 16.18 8.94991 16.08 8.98991C16.24 9.00991 16.37 9.06991 16.46 9.16991C16.55 9.25991 16.59 9.37991 16.59 9.50991C16.59 9.68991 16.52 9.82991 16.38 9.93991ZM13.52 8.26991H13.32V9.88991H13.53C13.76 9.88991 13.95 9.81991 14.08 9.66991C14.21 9.51991 14.27 9.31991 14.27 9.05991C14.27 8.79991 14.21 8.60991 14.09 8.46991C13.96 8.33991 13.77 8.26991 13.52 8.26991ZM15.72 9.15991H15.49V9.89991H15.63C15.82 9.89991 15.96 9.86991 16.07 9.80991C16.17 9.74991 16.23 9.64991 16.23 9.50991C16.22 9.27991 16.06 9.15991 15.72 9.15991ZM16.08 8.58991C16.08 8.46991 16.04 8.38991 15.96 8.33991C15.88 8.28991 15.77 8.26991 15.63 8.26991H15.48V8.89991H15.6C15.93 8.89991 16.08 8.79991 16.08 8.58991Z" />
</svg>
