<svg width="18" height="18" viewBox="0 0 18 18" xmlns="http://www.w3.org/2000/svg">
  <path d="M15.3101 5.69C15.3701 5.48 15.4001 5.26 15.4001 5.03C15.4001 3.7 14.3101 2.61 12.9801 2.61C12.75 2.61 12.53 2.64 12.32 2.7C11.43 2.25 10.42 2 9.36005 2C7.05005 2 5.02005 3.18 3.83005 4.96C3.61005 5.01 3.40005 5.1 3.21005 5.21C2.65005 5.53 2.25005 6.05 2.08005 6.68C1.91005 7.3 2.00005 7.96 2.32005 8.52C2.43005 8.71 2.57005 8.89 2.73005 9.04C2.93005 12.38 5.60005 15.05 8.93005 15.26C9.08005 15.42 9.26005 15.56 9.46005 15.67C9.83005 15.88 10.25 15.99 10.67 15.99C11.53 15.99 12.34 15.53 12.77 14.78C12.88 14.58 12.97 14.38 13.02 14.17C14.81 12.98 16.0001 10.95 16.0001 8.63C16.0001 7.58 15.7501 6.58 15.3101 5.69ZM5.34005 9.35C4.31005 9.81 3.07005 9.43 2.49005 8.43C1.87005 7.36 2.24005 5.99 3.31005 5.38C4.38005 4.76 5.75005 5.13 6.36005 6.2C6.74005 6.85 6.75005 7.62 6.45005 8.26L9.47005 11.32C9.43005 11.34 9.39005 11.36 9.35005 11.38C8.91005 11.63 8.57005 12 8.35005 12.42L5.34005 9.35ZM11.9901 11.77C12.91 12.43 13.19 13.7 12.62 14.7C12 15.77 10.64 16.14 9.57005 15.52C8.50005 14.9 8.13005 13.54 8.75005 12.47C9.13005 11.82 9.79005 11.42 10.4901 11.36L11.63 7.22C11.67 7.24 11.71 7.27 11.7401 7.29C12.18 7.54 12.6601 7.65 13.13 7.64L11.9901 11.77ZM12.9801 7.26C12.22 7.26 11.5601 6.88 11.1501 6.31L7.00005 7.4C7.00005 7.36 7.00005 7.31 7.00005 7.27C7.00005 6.76 6.85005 6.29 6.60005 5.89L10.76 4.8C10.87 3.67 11.8301 2.79 12.9801 2.79C14.21 2.79 15.22 3.79 15.22 5.03C15.22 6.26 14.22 7.26 12.9801 7.26Z" />
</svg>
