<svg width="18" height="18" viewBox="0 0 18 18" xmlns="http://www.w3.org/2000/svg">
  <path d="M14.5 6C13.11 6 11.93 6.96 11.6 8.25H9.52C9.99 7.72 10.36 7.13 10.63 6.47C10.75 6.49 10.87 6.5 11 6.5C12.65 6.5 14 5.15 14 3.5C14 1.85 12.65 0.5 11 0.5C9.35 0.5 8 1.85 8 3.5C8 4.5 8.49 5.38 9.24 5.93C8.82 6.9 8.17 7.67 7.27 8.25H6.4C6.07 6.96 4.89 6 3.5 6C1.85 6 0.5 7.35 0.5 9C0.5 10.65 1.85 12 3.5 12C4.89 12 6.07 11.04 6.4 9.75H7.27C8.17 10.33 8.82 11.1 9.24 12.07C8.49 12.62 8 13.5 8 14.5C8 16.15 9.35 17.5 11 17.5C12.65 17.5 14 16.15 14 14.5C14 12.85 12.65 11.5 11 11.5C10.87 11.5 10.75 11.51 10.63 11.53C10.36 10.87 9.99 10.28 9.52 9.75H11.6C11.93 11.04 13.11 12 14.5 12C16.15 12 17.5 10.65 17.5 9C17.5 7.35 16.15 6 14.5 6ZM9.53 14.22C9.54 14.14 9.57 14.06 9.6 13.99C9.62 13.92 9.66 13.85 9.7 13.78V13.77C9.72 13.73 9.75 13.68 9.78 13.64C9.8 13.6 9.84 13.56 9.88 13.52C9.89 13.5 9.91 13.48 9.93 13.46C9.95 13.43 9.97 13.41 10 13.4C10.05 13.34 10.1 13.3 10.16 13.26C10.24 13.21 10.32 13.16 10.41 13.12C10.51 13.08 10.61 13.05 10.72 13.03C10.81 13.01 10.91 13 11 13C11.03 13 11.07 13 11.1 13.01C11.2 13.01 11.29 13.03 11.38 13.06C11.46 13.08 11.54 13.1 11.61 13.14C11.68 13.17 11.75 13.2 11.82 13.25C11.83 13.25 11.83 13.26 11.84 13.26C11.9 13.3 11.97 13.35 12.02 13.41C12.08 13.46 12.13 13.52 12.17 13.58C12.38 13.83 12.5 14.14 12.5 14.5C12.5 15.33 11.83 16 11 16C10.17 16 9.5 15.33 9.5 14.5C9.5 14.4 9.51 14.31 9.53 14.22ZM9.5 3.5C9.5 2.67 10.17 2 11 2C11.83 2 12.5 2.67 12.5 3.5C12.5 4.3 11.88 4.94 11.1 4.99C11.07 5 11.03 5 11 5C10.44 5 9.94 4.69 9.7 4.23C9.57 4.01 9.5 3.77 9.5 3.5ZM14.5 10.5C13.67 10.5 13 9.83 13 9C13 8.17 13.67 7.5 14.5 7.5C15.33 7.5 16 8.17 16 9C16 9.83 15.33 10.5 14.5 10.5Z" />
</svg>
