<svg width="16" height="16" viewBox="0 0 16 16" xmlns="http://www.w3.org/2000/svg">
<path d="M15 14.0223H1V2H15V14.0223ZM1.52045 13.5019H14.4796V2.52045H1.52045V13.5019Z"/>
<path d="M15 2.52045H1V3.50929H15V2.52045Z" />
<path d="M9.84758 4.60223H5.5971V5.12268H9.84758V4.60223Z"/>
<path d="M12.1027 5.94654H5.5971V6.46699H12.1027V5.94654Z"/>
<path d="M11.1227 7.33457H5.5971V7.85502H11.1227V7.33457Z"/>
<path d="M12.9703 8.809H5.5971V9.32944H12.9703V8.809Z"/>
<path d="M10.7152 10.3271H5.5971V10.8476H10.7152V10.3271Z"/>
<path d="M12.0163 11.6714H5.68401V12.1919H12.0163V11.6714Z"/>
<path d="M4.81643 4.60223H2.56134V5.12268H4.81643V4.60223Z"/>
<path d="M4.81643 5.94654H2.56134V6.46699H4.81643V5.94654Z"/>
<path d="M4.81643 5.94654H2.56134V6.46699H4.81643V5.94654Z"/>
<path d="M4.81643 7.29137H2.56134V7.81182H4.81643V7.29137Z"/>
<path d="M4.81643 8.63569H2.56134V9.15613H4.81643V8.63569Z"/>
<path d="M4.81643 10.3271H2.56134V10.8476H4.81643V10.3271Z"/>
<path d="M4.81643 11.6714H2.56134V12.1919H4.81643V11.6714Z"/>
</svg>
