<svg width="18" height="18" viewBox="0 0 18 18" xmlns="http://www.w3.org/2000/svg">
  <path d="M8.99 2C8.04 2 7.13 2.19 6.3 2.54L5.38 10.33L10 2.07C9.66 2.03 9.33 2 8.99 2ZM3.21 5.03L4.23 10.15L5.68 2.83C4.69 3.35 3.85 4.11 3.21 5.03ZM10.41 2.15L6.39 10.86L13.84 3.97C12.91 3.06 11.73 2.42 10.41 2.15ZM2 8.38L3.09 10.33L2.59 6.13C2.28 6.83 2.07 7.59 2 8.38ZM15.94 8.1L7.73 12.69L15.43 11.78C15.8 10.93 16 10 16 9.01C16 8.7 15.98 8.4 15.94 8.1ZM12.91 14.83C13.83 14.21 14.59 13.38 15.13 12.4L7.91 13.83L12.91 14.83ZM9.57 16C10.35 15.94 11.09 15.75 11.77 15.45L7.73 14.97L9.57 16ZM14.1 4.22L7.21 11.67L15.87 7.67C15.61 6.35 14.99 5.16 14.1 4.22Z" />
</svg>
