<svg width="18" height="18" viewBox="0 0 18 18" xmlns="http://www.w3.org/2000/svg">
  <path d="M17 3.10012C16.97 2.67012 16.64 2.45012 16.46 2.29012C16.28 2.13012 16.05 1.82012 16.49 1.59012C14.59 1.44012 11.37 1.28012 7.54002 3.38012C4.36002 5.13012 3.30002 7.43012 3.03002 8.15012C2.24002 8.35012 1.66002 9.07012 1.66002 9.92012C1.66002 10.0801 1.68002 10.2401 1.72002 10.4001C0.870019 11.0701 0.840019 13.2901 1.22002 13.9201C1.62002 14.5801 2.37002 15.2701 3.81002 15.1601C5.25002 15.0501 6.08002 15.7401 6.20002 16.4901C6.20002 16.4901 6.39002 15.7701 6.24002 15.2001C6.09002 15.0401 5.84002 14.8601 5.49002 14.7201C5.53002 14.7501 5.56002 14.8001 5.56002 14.8601C5.56002 14.9501 5.48002 15.0301 5.39002 15.0301C5.30002 15.0301 5.22002 14.9501 5.22002 14.8601C5.22002 14.7701 5.30002 14.6901 5.39002 14.6901C5.40002 14.6901 5.40002 14.6901 5.41002 14.6901C5.32002 14.6601 5.23002 14.6301 5.13002 14.6001C5.00002 14.5601 4.86002 14.5201 4.72002 14.4701C4.77002 14.5001 4.81002 14.5501 4.81002 14.6201C4.81002 14.7101 4.73002 14.7901 4.64002 14.7901C4.55002 14.7901 4.47002 14.7101 4.47002 14.6201C4.47002 14.5301 4.55002 14.4501 4.64002 14.4501C4.65002 14.4501 4.66002 14.4501 4.67002 14.4501C4.23002 14.2901 3.77002 14.0501 3.48002 13.7001C3.09002 13.3701 3.04002 12.9001 3.16002 12.7001C3.18002 12.8801 3.39002 13.2601 3.63002 13.5801C3.83002 13.8201 4.27002 14.1601 5.19002 14.4201C5.30002 14.4501 5.60002 14.5401 5.90002 14.7101C6.04002 14.7901 6.16002 14.8701 6.26002 14.9501C6.37002 14.9801 6.55002 15.0101 6.81002 15.0101C7.31002 15.0001 8.84002 15.0401 9.38002 15.9601C9.20002 14.7001 8.48002 14.1601 7.69002 13.9001C7.58002 13.9401 7.46002 13.9701 7.34002 13.9901C7.39002 14.0301 7.43002 14.1001 7.43002 14.1701C7.43002 14.3001 7.33002 14.4001 7.20002 14.4001C7.07002 14.4001 6.97002 14.3001 6.97002 14.1701C6.97002 14.1201 6.99002 14.0701 7.02002 14.0301C6.96002 14.0301 6.90002 14.0401 6.84002 14.0401C6.72002 14.0401 6.59002 14.0301 6.45002 14.0201C6.46002 14.0501 6.47002 14.0801 6.47002 14.1201C6.47002 14.2501 6.37002 14.3501 6.24002 14.3501C6.11002 14.3501 6.01002 14.2501 6.01002 14.1201C6.01002 14.0701 6.03002 14.0201 6.06002 13.9801C6.04002 13.9801 6.02002 13.9701 6.00002 13.9701C5.86002 13.9501 5.72002 13.9101 5.58002 13.8601C5.56002 13.9901 5.45002 14.0901 5.32002 14.0901C5.17002 14.0901 5.06002 13.9701 5.06002 13.8301C5.06002 13.7601 5.09002 13.6901 5.14002 13.6401C4.97002 13.5301 4.80002 13.3901 4.65002 13.2401C4.60002 13.3501 4.49002 13.4301 4.36002 13.4301C4.18002 13.4301 4.04002 13.2901 4.04002 13.1101C4.04002 12.9501 4.15002 12.8201 4.30002 12.7901C4.17002 12.5901 4.06002 12.3701 3.97002 12.1401C3.92002 12.2201 3.83002 12.2801 3.73002 12.2801C3.57002 12.2801 3.45002 12.1501 3.45002 12.0001C3.45002 11.8401 3.58002 11.7201 3.73002 11.7201C3.78002 11.7201 3.84002 11.7401 3.88002 11.7601L4.02002 11.7301C4.12002 12.1401 4.29002 12.5101 4.52002 12.8301C4.60002 12.8701 4.66002 12.9401 4.68002 13.0301C4.87002 13.2501 5.10002 13.4401 5.34002 13.5801C5.43002 13.5801 5.51002 13.6201 5.56002 13.6901C5.72002 13.7601 5.88002 13.8101 6.05002 13.8301C6.94002 13.9701 7.45002 13.9201 8.01002 13.6401C8.15002 13.5201 8.26002 13.3901 8.35002 13.2801C8.52002 13.0601 9.26002 12.2601 9.84002 12.2901C9.75002 11.9801 9.43002 11.7701 9.07002 11.7401C8.71002 11.7101 8.37002 11.9101 8.12002 12.1201C7.87002 12.3301 7.30002 12.7301 6.81002 12.5301C6.32002 12.3301 5.73002 11.8401 5.67002 11.1301C5.61002 10.4201 6.23002 9.94012 6.23002 9.94012C6.91002 10.2501 8.11002 10.1801 9.12002 9.86012C10.13 9.54012 12.05 8.55012 12.66 7.96012C13.27 7.37012 13.69 6.73012 13.86 6.09012C14.02 5.45012 14.34 5.37012 14.42 5.42012C14.51 5.47012 14.7 5.73012 14.94 5.73012C15.18 5.73012 15.85 5.46012 15.82 4.61012C15.79 4.02012 15.68 3.94012 15.96 3.78012C16.15 3.67012 16.38 3.69012 16.54 3.71012C16.65 3.70012 17.03 3.53012 17 3.10012ZM6.03002 15.3901C6.11002 15.3901 6.18002 15.4601 6.18002 15.5401C6.18002 15.6201 6.11002 15.6901 6.03002 15.6901C5.95002 15.6901 5.88002 15.6201 5.88002 15.5401C5.88002 15.4601 5.95002 15.3901 6.03002 15.3901ZM3.74002 14.1901C3.87002 14.1901 3.98002 14.3001 3.98002 14.4301C3.98002 14.5601 3.87002 14.6701 3.74002 14.6701C3.61002 14.6701 3.50002 14.5601 3.50002 14.4301C3.50002 14.3001 3.60002 14.1901 3.74002 14.1901ZM8.62002 14.6701C8.72002 14.6701 8.80002 14.7501 8.80002 14.8501C8.80002 14.9501 8.72002 15.0301 8.62002 15.0301C8.52002 15.0301 8.44002 14.9501 8.44002 14.8501C8.44002 14.7501 8.52002 14.6701 8.62002 14.6701ZM8.02002 14.2301C8.13002 14.2301 8.22002 14.3201 8.22002 14.4301C8.22002 14.5401 8.13002 14.6301 8.02002 14.6301C7.91002 14.6301 7.82002 14.5401 7.82002 14.4301C7.82002 14.3201 7.91002 14.2301 8.02002 14.2301ZM9.22002 11.9801C9.29002 11.9801 9.34002 12.0301 9.34002 12.1001C9.34002 12.1701 9.29002 12.2201 9.22002 12.2201C9.15002 12.2201 9.10002 12.1701 9.10002 12.1001C9.10002 12.0301 9.15002 11.9801 9.22002 11.9801ZM8.76002 12.0601C8.85002 12.0601 8.92002 12.1301 8.92002 12.2201C8.92002 12.3101 8.85002 12.3801 8.76002 12.3801C8.67002 12.3801 8.60002 12.3101 8.60002 12.2201C8.60002 12.1401 8.68002 12.0601 8.76002 12.0601ZM8.15002 12.3501C8.24002 12.3501 8.31002 12.4201 8.31002 12.5101C8.31002 12.6001 8.24002 12.6701 8.15002 12.6701C8.06002 12.6701 7.99002 12.6001 7.99002 12.5101C7.99002 12.4201 8.06002 12.3501 8.15002 12.3501ZM7.34002 12.6701C7.46002 12.6701 7.55002 12.7701 7.55002 12.8801C7.55002 13.0001 7.45002 13.0901 7.34002 13.0901C7.22002 13.0901 7.13002 12.9901 7.13002 12.8801C7.12002 12.7701 7.22002 12.6701 7.34002 12.6701ZM6.49002 12.6701C6.65002 12.6701 6.78002 12.8001 6.78002 12.9601C6.78002 13.1201 6.65002 13.2501 6.49002 13.2501C6.33002 13.2501 6.20002 13.1201 6.20002 12.9601C6.20002 12.8001 6.33002 12.6701 6.49002 12.6701ZM13.02 1.79012C13.2 1.79012 13.35 1.94012 13.35 2.12012C13.35 2.30012 13.2 2.45012 13.02 2.45012C12.84 2.45012 12.69 2.30012 12.69 2.12012C12.69 1.94012 12.83 1.79012 13.02 1.79012ZM10.37 2.36012C10.62 2.36012 10.83 2.57012 10.83 2.82012C10.83 3.07012 10.62 3.28012 10.37 3.28012C10.12 3.28012 9.91002 3.07012 9.91002 2.82012C9.91002 2.57012 10.12 2.36012 10.37 2.36012ZM8.74002 3.06012C9.05002 3.06012 9.30002 3.31012 9.30002 3.62012C9.30002 3.93012 9.05002 4.18012 8.74002 4.18012C8.43002 4.18012 8.18002 3.93012 8.18002 3.62012C8.18002 3.31012 8.43002 3.06012 8.74002 3.06012ZM7.26002 3.92012C7.57002 3.92012 7.82002 4.17012 7.82002 4.48012C7.82002 4.79012 7.57002 5.04012 7.26002 5.04012C6.95002 5.04012 6.70002 4.79012 6.70002 4.48012C6.70002 4.17012 6.95002 3.92012 7.26002 3.92012ZM4.86002 5.97012C5.03002 5.97012 5.17002 6.11012 5.17002 6.28012C5.17002 6.45012 5.03002 6.60012 4.86002 6.60012C4.69002 6.60012 4.55002 6.46012 4.55002 6.29012C4.55002 6.12012 4.68002 5.97012 4.86002 5.97012ZM2.33002 13.2501C2.16002 13.2501 2.03002 13.1201 2.03002 12.9501C2.03002 12.7801 2.16002 12.6501 2.33002 12.6501C2.50002 12.6501 2.63002 12.7801 2.63002 12.9501C2.63002 13.1101 2.50002 13.2501 2.33002 13.2501ZM2.03002 11.9101C2.03002 11.7301 2.17002 11.5901 2.35002 11.5901C2.53002 11.5901 2.67002 11.7301 2.67002 11.9101C2.67002 12.0901 2.53002 12.2301 2.35002 12.2301C2.17002 12.2201 2.03002 12.0801 2.03002 11.9101ZM3.15002 13.9001C3.15002 14.0501 3.03002 14.1701 2.88002 14.1701C2.73002 14.1701 2.61002 14.0501 2.61002 13.9001C2.61002 13.7501 2.73002 13.6301 2.88002 13.6301C3.03002 13.6301 3.15002 13.7501 3.15002 13.9001ZM3.50002 11.4701C2.64002 11.4701 1.95002 10.7801 1.95002 9.92012C1.95002 9.06012 2.64002 8.37012 3.50002 8.37012C4.36002 8.37012 5.05002 9.06012 5.05002 9.92012C5.05002 10.7801 4.35002 11.4701 3.50002 11.4701ZM5.06002 11.7201C4.89002 11.7201 4.75002 11.5801 4.75002 11.4101C4.75002 11.2401 4.89002 11.1001 5.06002 11.1001C5.23002 11.1001 5.37002 11.2401 5.37002 11.4101C5.37002 11.5801 5.23002 11.7201 5.06002 11.7201ZM5.63002 12.0601C5.79002 12.0601 5.92002 12.1901 5.92002 12.3501C5.92002 12.5101 5.79002 12.6401 5.63002 12.6401C5.47002 12.6401 5.34002 12.5101 5.34002 12.3501C5.34002 12.1901 5.47002 12.0601 5.63002 12.0601ZM5.78002 8.45012C5.63002 8.45012 5.51002 8.33012 5.51002 8.18012C5.51002 8.03012 5.63002 7.91012 5.78002 7.91012C5.93002 7.91012 6.05002 8.03012 6.05002 8.18012C6.05002 8.33012 5.93002 8.45012 5.78002 8.45012ZM5.92002 5.90012C5.67002 5.90012 5.46002 5.69012 5.46002 5.44012C5.46002 5.19012 5.67002 4.98012 5.92002 4.98012C6.17002 4.98012 6.38002 5.19012 6.38002 5.44012C6.38002 5.69012 6.17002 5.90012 5.92002 5.90012ZM6.53002 9.72012C6.38002 9.72012 6.26002 9.60012 6.26002 9.45012C6.26002 9.30012 6.38002 9.18012 6.53002 9.18012C6.68002 9.18012 6.80002 9.30012 6.80002 9.45012C6.80002 9.60012 6.68002 9.72012 6.53002 9.72012ZM6.91002 7.91012C6.68002 7.91012 6.49002 7.72012 6.49002 7.49012C6.49002 7.26012 6.68002 7.07012 6.91002 7.07012C7.14002 7.07012 7.33002 7.26012 7.33002 7.49012C7.33002 7.72012 7.14002 7.91012 6.91002 7.91012ZM7.69002 9.81012C7.47002 9.81012 7.28002 9.63012 7.28002 9.40012C7.28002 9.18012 7.46002 8.99012 7.69002 8.99012C7.91002 8.99012 8.10002 9.17012 8.10002 9.40012C8.10002 9.63012 7.92002 9.81012 7.69002 9.81012ZM7.89002 6.64012C7.89002 6.32012 8.15002 6.06012 8.47002 6.06012C8.79002 6.06012 9.05002 6.32012 9.05002 6.64012C9.05002 6.96012 8.79002 7.22012 8.47002 7.22012C8.15002 7.22012 7.89002 6.96012 7.89002 6.64012ZM9.20002 9.40012C8.93002 9.40012 8.71002 9.18012 8.71002 8.91012C8.71002 8.64012 8.93002 8.42012 9.20002 8.42012C9.47002 8.42012 9.69002 8.64012 9.69002 8.91012C9.69002 9.18012 9.47002 9.40012 9.20002 9.40012ZM9.60002 5.63012C9.60002 5.27012 9.89002 4.98012 10.25 4.98012C10.61 4.98012 10.9 5.27012 10.9 5.63012C10.9 5.99012 10.61 6.28012 10.25 6.28012C9.89002 6.28012 9.60002 5.99012 9.60002 5.63012ZM10.7 8.77012C10.39 8.77012 10.15 8.52012 10.15 8.22012C10.15 7.92012 10.4 7.67012 10.7 7.67012C11.01 7.67012 11.25 7.92012 11.25 8.22012C11.25 8.52012 11 8.77012 10.7 8.77012ZM11.33 2.45012C11.33 2.24012 11.5 2.08012 11.7 2.08012C11.91 2.08012 12.07 2.25012 12.07 2.45012C12.07 2.65012 11.9 2.82012 11.7 2.82012C11.5 2.82012 11.33 2.65012 11.33 2.45012ZM12.03 4.21012C12.33 4.21012 12.56 4.45012 12.56 4.74012C12.56 5.04012 12.32 5.27012 12.03 5.27012C11.73 5.27012 11.5 5.03012 11.5 4.74012C11.5 4.45012 11.74 4.21012 12.03 4.21012ZM12.13 7.70012C11.84 7.70012 11.61 7.47012 11.61 7.18012C11.61 6.89012 11.84 6.66012 12.13 6.66012C12.42 6.66012 12.65 6.89012 12.65 7.18012C12.65 7.47012 12.42 7.70012 12.13 7.70012ZM13.15 6.60012C12.89 6.60012 12.68 6.39012 12.68 6.13012C12.68 5.87012 12.89 5.66012 13.15 5.66012C13.41 5.66012 13.62 5.87012 13.62 6.13012C13.62 6.39012 13.41 6.60012 13.15 6.60012ZM13.43 4.35012C13.22 4.35012 13.04 4.18012 13.04 3.96012C13.04 3.75012 13.21 3.57012 13.43 3.57012C13.64 3.57012 13.82 3.74012 13.82 3.96012C13.82 4.18012 13.65 4.35012 13.43 4.35012ZM14.02 5.41012C13.89 5.41012 13.79 5.31012 13.79 5.18012C13.79 5.05012 13.89 4.95012 14.02 4.95012C14.15 4.95012 14.25 5.05012 14.25 5.18012C14.25 5.31012 14.15 5.41012 14.02 5.41012ZM14.41 3.66012C14.27 3.66012 14.15 3.55012 14.15 3.40012C14.15 3.26012 14.26 3.14012 14.41 3.14012C14.56 3.14012 14.67 3.25012 14.67 3.40012C14.67 3.54012 14.55 3.66012 14.41 3.66012ZM3.66002 8.68012C3.11002 8.68012 2.66002 9.13012 2.66002 9.68012C2.66002 10.2301 3.11002 10.6801 3.66002 10.6801C4.21002 10.6801 4.66002 10.2301 4.66002 9.68012C4.66002 9.13012 4.21002 8.68012 3.66002 8.68012Z" />
</svg>
