<svg width="18" height="18" viewBox="0 0 18 18" xmlns="http://www.w3.org/2000/svg">
  <path d="M4.93002 5.86999C4.86002 5.98999 4.72002 6.06999 4.58002 6.06999C4.51002 6.06999 4.44002 6.04999 4.37002 6.01999C4.34002 6.40999 4.34002 6.79999 4.36002 7.19999L8.74002 8.26999L8.76002 8.36999C8.77002 8.39999 8.87002 9.00999 8.92002 9.77999C8.97002 9.00999 9.08002 8.39999 9.08002 8.36999L9.10002 8.26999L13.27 7.19999C13.26 6.80999 13.23 6.41999 13.19 6.03999C13.13 6.06999 13.07 6.07999 13 6.07999C12.85 6.07999 12.72 6.00999 12.65 5.88999C12.64 5.86999 12.49 5.67999 12.3 5.36999C12.24 5.82999 12.06 6.24999 11.73 6.39999L9.97002 6.19999C10.06 6.33999 10.08 6.48999 9.93002 6.64999C9.80002 6.78999 9.68002 6.78999 9.54002 6.75999C9.55002 6.94999 9.58002 7.13999 9.54002 7.35999C9.48002 7.46999 9.37002 7.47999 9.27002 7.51999C9.14002 7.49999 9.02002 7.40999 8.97002 7.27999C8.94002 7.03999 8.97002 6.80999 8.99002 6.57999C8.98002 6.57999 8.98002 6.57999 8.97002 6.57999C8.96002 6.82999 8.92002 7.07999 8.95002 7.32999C8.49002 7.93999 8.21002 7.17999 8.35002 6.72999C8.18002 6.76999 8.01002 6.75999 7.91002 6.56999C7.85002 6.46999 7.85002 6.35999 7.87002 6.25999L5.92002 6.37999C5.56002 6.31999 5.34002 5.90999 5.26002 5.40999C5.09002 5.66999 4.97002 5.81999 4.93002 5.86999ZM5.60002 4.88999C5.99002 6.39999 8.41002 6.01999 8.32002 4.49999C8.29002 4.06999 8.11002 3.75999 7.84002 3.56999H9.40002C9.14002 3.81999 8.97002 4.16999 8.99002 4.60999C9.27002 6.23999 11.8 5.92999 11.76 4.42999C11.55 4.01999 11.35 3.54999 11.19 3.03999C11.16 2.93999 11.16 2.83999 11.18 2.74999C10.45 2.43999 9.59002 2.36999 8.70002 2.36999C7.91002 2.42999 7.15002 2.54999 6.48002 2.80999C6.50002 2.88999 6.49002 2.97999 6.46002 3.06999C6.22002 3.77999 5.89002 4.40999 5.60002 4.88999ZM9.69002 4.09999C9.91002 4.09999 10.09 4.29999 10.09 4.53999C10.09 4.77999 9.91002 4.97999 9.69002 4.97999C9.47002 4.97999 9.29002 4.77999 9.29002 4.53999C9.29002 4.29999 9.47002 4.09999 9.69002 4.09999ZM6.67002 4.64999C6.67002 4.88999 6.49002 5.08999 6.26002 5.08999C6.03002 5.08999 5.85002 4.88999 5.85002 4.64999C5.85002 4.40999 6.03002 4.20999 6.26002 4.20999C6.49002 4.20999 6.67002 4.40999 6.67002 4.64999ZM9.87002 4.74999C9.92002 4.74999 9.96002 4.69999 9.96002 4.63999C9.96002 4.57999 9.92002 4.52999 9.87002 4.52999C9.82002 4.52999 9.77002 4.57999 9.77002 4.63999C9.78002 4.69999 9.82002 4.74999 9.87002 4.74999ZM6.45002 4.85999C6.50002 4.85999 6.55002 4.80999 6.55002 4.74999C6.55002 4.68999 6.51002 4.63999 6.45002 4.63999C6.40002 4.63999 6.35002 4.68999 6.35002 4.74999C6.35002 4.80999 6.40002 4.85999 6.45002 4.85999ZM4.18002 5.66999C4.19002 5.66999 4.19002 5.66999 4.19002 5.66999C4.21002 5.71999 4.25002 5.75999 4.30002 5.78999L4.44002 5.86999C4.57002 5.93999 4.72002 5.89999 4.79002 5.77999C4.79002 5.77999 5.77002 4.55999 6.30002 3.03999C6.35002 2.89999 6.32002 2.76999 6.19002 2.69999L6.05002 2.61999C6.00002 2.58999 5.94002 2.57999 5.88002 2.58999C5.88002 2.58999 5.88002 2.58999 5.87002 2.58999C5.37002 2.31999 4.76002 2.42999 4.28002 2.80999C4.48002 2.49999 4.75002 2.16999 5.08002 1.84999C6.07002 0.909991 12.07 1.14999 12.68 1.84999C12.91 2.10999 13.13 2.46999 13.31 2.79999C12.84 2.42999 12.25 2.31999 11.76 2.56999C11.76 2.56999 11.76 2.56999 11.75 2.56999C11.7 2.55999 11.64 2.56999 11.58 2.59999L11.43 2.67999C11.3 2.74999 11.27 2.86999 11.31 3.01999C11.79 4.55999 12.74 5.80999 12.74 5.80999C12.8 5.92999 12.96 5.97999 13.09 5.90999L13.24 5.82999C13.29 5.79999 13.33 5.75999 13.36 5.70999C13.36 5.70999 13.36 5.70999 13.37 5.70999C13.95 5.40999 14.2 4.68999 14.04 3.96999C14.14 3.90999 14.11 3.66999 13.99 3.42999C13.88 3.21999 13.73 3.06999 13.63 3.06999C13.44 2.61999 13.12 1.97999 12.66 1.55999C11.9 0.859991 5.98002 0.829991 5.07002 1.55999C4.54002 1.98999 4.17002 2.59999 3.95002 3.03999C3.85002 3.06999 3.71002 3.19999 3.61002 3.38999C3.48002 3.62999 3.45002 3.86999 3.54002 3.92999C3.37002 4.62999 3.61002 5.34999 4.18002 5.66999ZM8.66002 5.27999C8.64002 5.29999 8.61002 5.34999 8.56002 5.41999C8.76002 5.31999 9.03002 5.30999 9.23002 5.38999C9.20002 5.33999 9.17002 5.29999 9.15002 5.27999C9.04002 5.19999 8.75002 5.20999 8.66002 5.27999ZM13.86 12.07C13.85 11.95 13.83 11.82 13.82 11.7C13.77 11.71 11.29 12.36 9.14002 12.12C9.16002 12.31 9.18002 12.49 9.19002 12.65C9.19002 12.63 9.19002 12.61 9.19002 12.59C9.19002 12.59 11.61 12.76 13.86 12.07ZM9.41002 13.44C9.40002 13.42 9.39002 13.41 9.38002 13.39C9.48002 13.56 9.63002 13.74 9.73002 13.8C9.86002 13.89 10.39 14.04 11.13 14.07C11.87 14.1 12.72 13.94 13.25 13.64C13.78 13.34 13.95 13.01 13.95 13.01C13.95 13.01 13.95 13 13.95 12.99C13.86 13.02 11.54 13.68 9.41002 13.44ZM9.34002 13.34C9.31002 13.28 9.28002 13.21 9.26002 13.13C9.27002 13.18 9.28002 13.22 9.29002 13.24C9.31002 13.27 9.33002 13.3 9.34002 13.34ZM15.94 6.18999L15.86 6.14999C15.76 6.09999 15.63 6.15999 15.56 6.28999L14.09 9.06999L14.04 9.15999C14.04 9.15999 14.04 9.15999 14.04 9.16999L13.79 9.62999C13.62 9.57999 13.44 9.55999 13.27 9.56999L13.29 10.07C13.3 10.26 13.34 10.25 13.44 10.29L13.33 10.49C13.25 10.38 13.19 10.22 13.2 9.87999C13.23 9.10999 13.52 9.41999 13.51 8.92999L13.52 7.29999L9.22002 8.39999C9.22002 8.39999 9.05002 9.31999 9.04002 10.31C9.04002 10.61 9.05002 10.97 9.07002 11.34C9.07002 11.32 9.07002 11.3 9.08002 11.28C9.08002 11.28 11.35 11.5 13.61 10.81C13.67 10.81 13.73 10.79 13.75 10.74L13.87 10.5C14.03 10.54 14.18 10.5 14.19 10.25C14.36 10.17 14.29 10.01 14.19 9.88999L14.45 9.38999C14.45 9.38999 14.45 9.38999 14.45 9.37999L15.97 6.51999C16.06 6.37999 16.04 6.23999 15.94 6.18999ZM4.29002 10.86L4.36002 10.83C6.56002 11.48 8.74002 11.27 8.74002 11.27C8.74002 11.28 8.74002 11.28 8.74002 11.29C8.76002 10.94 8.77002 10.59 8.77002 10.3C8.76002 9.29999 8.60002 8.38999 8.60002 8.38999L4.09002 7.28999L4.19002 8.91999C4.18002 9.40999 4.65002 9.09999 4.68002 9.86999C4.69002 10.32 4.60002 10.46 4.48002 10.57L4.37002 10.34C4.47002 10.3 4.51002 10.32 4.52002 10.12L4.54002 9.61999C4.38002 9.60999 4.21002 9.61999 4.05002 9.66999L3.84002 9.22999C3.84002 9.22999 3.84002 9.21999 3.83002 9.21999L2.44002 6.27999C2.38002 6.14999 2.25002 6.07999 2.15002 6.12999L2.07002 6.16999C1.97002 6.21999 1.94002 6.35999 2.00002 6.48999L3.39002 9.41999C3.39002 9.42999 3.40002 9.43999 3.41002 9.44999L3.63002 9.90999C3.52002 10.03 3.43002 10.21 3.61002 10.3C3.62002 10.55 3.77002 10.59 3.93002 10.55L4.05002 10.81C4.08002 10.88 4.19002 10.91 4.29002 10.86ZM13.23 13.83C12.73 14.08 12.01 14.24 11.31 14.24C11.24 14.24 11.18 14.24 11.12 14.24C10.41 14.21 9.83002 14.06 9.64002 13.94C9.47002 13.83 9.24002 13.52 9.15002 13.3C9.07002 13.1 8.96002 12.04 8.92002 11.12C8.88002 12.04 8.77002 13.1 8.69002 13.3C8.60002 13.53 8.37002 13.83 8.20002 13.94C8.02002 14.06 7.44002 14.21 6.74002 14.24C6.68002 14.24 6.61002 14.24 6.55002 14.24C5.82002 14.24 5.06002 14.06 4.56002 13.78C4.51002 13.75 4.47002 13.72 4.42002 13.7C4.49002 14.21 4.63002 14.7 4.90002 15.12C5.05002 15.36 5.24002 15.57 5.45002 15.75C5.43002 15.75 5.41002 15.75 5.39002 15.76C5.09002 15.98 4.50002 16.31 4.79002 16.76C4.86002 16.83 4.86002 16.79 4.91002 16.81C4.94002 16.86 5.06002 17.1 5.36002 16.92C5.69002 16.74 5.91002 16.39 6.30002 16.33C6.28002 16.31 6.26002 16.28 6.24002 16.26C6.93002 16.59 7.74002 16.73 8.45002 16.75C9.47002 16.79 10.62 16.65 11.54 16.15C11.96 16.29 12.23 17.2 12.71 16.76C13.21 16.46 12.61 15.84 12.27 15.63C12.51 15.41 12.71 15.14 12.86 14.83C13.03 14.52 13.14 14.18 13.23 13.83ZM8.68002 12.12C6.55002 12.35 4.08002 11.7 4.06002 11.7C4.05002 11.82 4.03002 11.95 4.02002 12.07C6.24002 12.76 8.62002 12.59 8.63002 12.59C8.65002 12.45 8.67002 12.29 8.68002 12.12ZM8.55002 13.19C8.54002 13.21 8.53002 13.24 8.53002 13.26C8.53002 13.25 8.54002 13.24 8.54002 13.24C8.54002 13.22 8.54002 13.21 8.55002 13.19ZM6.73002 14.08C7.46002 14.05 7.98002 13.89 8.11002 13.81C8.20002 13.75 8.33002 13.6 8.43002 13.45C6.29002 13.69 3.97002 13.01 3.95002 13C3.95002 13.02 3.95002 13.02 3.95002 13.02C3.95002 13.02 4.12002 13.35 4.64002 13.65C5.16002 13.95 6.00002 14.11 6.73002 14.08Z" />
</svg>
