<svg width="18" height="18" viewBox="0 0 18 18" xmlns="http://www.w3.org/2000/svg">
  <path d="M13.1648 8.53338C15.2446 8.53338 16.9306 6.84735 16.9306 4.76754C16.9306 2.68773 15.2446 1.00171 13.1648 1.00171C11.0849 1.00171 9.39893 2.68773 9.39893 4.76754C9.39893 6.84735 11.0849 8.53338 13.1648 8.53338Z" />
  <path d="M7.1967 17.0011C8.69879 17.0011 9.91647 15.7834 9.91647 14.2813C9.91647 12.7792 8.69879 11.5615 7.1967 11.5615C5.69461 11.5615 4.47693 12.7792 4.47693 14.2813C4.47693 15.7834 5.69461 17.0011 7.1967 17.0011Z" />
  <path d="M2.63806 9.65648C3.5016 9.65648 4.20165 8.95643 4.20165 8.09289C4.20165 7.22934 3.5016 6.5293 2.63806 6.5293C1.77451 6.5293 1.07446 7.22934 1.07446 8.09289C1.07446 8.95643 1.77451 9.65648 2.63806 9.65648Z" />
</svg>
