<svg width="18" height="18" viewBox="0 0 18 18" xmlns="http://www.w3.org/2000/svg">
  <path d="M11.06 1.94L10.62 1.5H3.5V16.5H14.5V5.38L11.06 1.94ZM10.75 3.75L12.25 5.25H10.75V3.75ZM13 15H5V3H9.25V6.75H13V15ZM6.97 7.93C6.68 8.04 6.5 8.32 6.5 8.63V12.38C6.5 12.79 6.84 13.13 7.25 13.13C7.66 13.13 8 12.79 8 12.38V10.53L10.2 12.89C10.34 13.05 10.54 13.13 10.75 13.13C10.84 13.13 10.94 13.11 11.03 13.08C11.32 12.97 11.5 12.69 11.5 12.38V8.62C11.5 8.21 11.16 7.87 10.75 7.87C10.34 7.87 10 8.21 10 8.62V10.47L7.8 8.11C7.59 7.89 7.26 7.81 6.97 7.93Z" />
</svg>
