<svg width="18" height="18" viewBox="0 0 18 18" xmlns="http://www.w3.org/2000/svg">
  <path d="M8.26001 15.96C8.50001 15.99 8.75001 16 9.00001 16C9.25001 16 9.50001 15.99 9.74001 15.96L11.08 14.6H6.92001L8.26001 15.96ZM6.22001 13.9H11.77L13.15 12.5H4.84001L6.22001 13.9ZM4.15001 11.8H13.86L15.24 10.4H2.76001L4.15001 11.8ZM16 8.82C16 8.8 16 8.78 16 8.76C16 8.72 16 8.68 16 8.64C16 8.61 16 8.58 15.99 8.55C15.99 8.52 15.99 8.49 15.98 8.46C15.98 8.4 15.97 8.35 15.97 8.29C15.8 6.62 15.03 5.05 13.81 3.9C12.5 2.68 10.79 2 9.00001 2C7.21001 2 5.50001 2.68 4.20001 3.91C2.97001 5.06 2.20001 6.63 2.04001 8.3C2.03001 8.36 2.03001 8.41 2.03001 8.47C2.03001 8.5 2.03001 8.53 2.02001 8.55C2.02001 8.58 2.02001 8.61 2.01001 8.64C2.01001 8.68 2.01001 8.72 2.01001 8.76C2.01001 8.78 2.01001 8.8 2.01001 8.82C2.01001 8.88 2.01001 8.94 2.01001 9C2.01001 9.24 2.02001 9.47 2.05001 9.7H15.98C16 9.47 16.02 9.24 16.02 9C16 8.94 16 8.88 16 8.82ZM8.30001 8.3H3.44001C3.57001 7.25 3.98001 6.28 4.65001 5.46C5.71001 6.25 6.97001 6.74 8.29001 6.86V8.3H8.30001ZM8.30001 5.46C7.36001 5.35 6.47001 5.01 5.69001 4.49C6.46001 3.93 7.35001 3.57 8.30001 3.45V5.46ZM9.70001 3.44C10.65 3.56 11.54 3.91 12.31 4.48C11.53 5.01 10.64 5.34 9.70001 5.45V3.44ZM9.70001 8.3V6.87C11.02 6.74 12.28 6.26 13.34 5.47C14.01 6.29 14.42 7.26 14.55 8.31H9.70001V8.3Z" />
</svg>
