<svg width="18" height="18" viewBox="0 0 18 18" xmlns="http://www.w3.org/2000/svg">
  <path d="M12.79 9.42C12.77 9.88 12.72 10.27 12.63 10.6H13.86C13.9 10.82 13.99 11.05 14.31 11.05C14.81 11.05 14.84 10.17 14.85 9.56C14.64 9.83 14.29 9.92 13.94 9.92C13.46 9.92 13.06 9.75 12.79 9.42ZM14.24 12.06C13.04 12.06 12.65 11.41 12.53 10.91C12.22 11.72 11.65 12.06 10.82 12.06C10.05 12.06 9.49003 11.75 9.17003 11C8.90003 11.67 8.31003 12.06 7.35003 12.06C6.06003 12.06 5.53003 11.35 5.48003 10.39H6.86003C6.89003 10.8 7.02003 11.05 7.37003 11.05C7.79003 11.05 7.90003 10.71 7.90003 10.08C7.90003 9.45 7.77003 9.15 7.35003 9.15C7.03003 9.15 6.89003 9.34 6.81003 9.66L5.56003 9.53C5.66003 8.87 5.85003 7.03 5.91003 6.31H9.18004L9.00003 7.44H7.06003C7.04003 7.69 6.98003 8.18 6.96003 8.39C7.14003 8.23 7.43003 8.12 7.86003 8.12C8.31003 8.12 8.65003 8.27 8.90003 8.52C9.03004 6.8 9.79003 6.21 10.86 6.21C11.63 6.21 12.23 6.51 12.55 7.33C12.81 6.63 13.43 6.21 14.32 6.21C15.04 6.21 15.54 6.45 15.86 6.92C14.96 4.07 12.3 2 9.16003 2C5.83003 2 3.04003 4.33 2.33003 7.45H3.14003C3.37003 8.01 3.53003 8.54 3.61003 8.8H3.64003C3.75003 8.47 3.94003 7.92 4.14003 7.45H5.65003L4.49003 9.57L5.65003 11.97H4.08003C3.84003 11.34 3.69003 10.84 3.60003 10.57H3.57003C3.49003 10.82 3.27003 11.49 3.08003 11.97H2.81003C3.93003 14.35 6.35003 16 9.16003 16C12.17 16 14.73 14.1 15.72 11.44C15.4 11.85 14.93 12.06 14.24 12.06ZM2.16003 9C2.16003 9.5 2.21003 9.98 2.31003 10.45L2.67003 9.73L2.17003 8.69C2.16003 8.79 2.16003 8.9 2.16003 9ZM14.34 8.89C14.65 8.89 14.84 8.69 14.84 8.12C14.84 7.53 14.73 7.21 14.33 7.21C13.99 7.21 13.83 7.48 13.83 8.05C13.83 8.64 14.01 8.89 14.34 8.89ZM10.49 9.49L9.86003 8.86L9.37003 9.35L10.49 10.47L12.17 8.79L11.68 8.3L10.49 9.49Z" />
</svg>
