<svg width="18" height="18" viewBox="0 0 18 18" xmlns="http://www.w3.org/2000/svg">
  <path d="M10.22 6.47012H7.17L5.4 7.82012L4.37 6.47012H1.92L3.86 9.01012L0 11.9701H3.06L4.99 10.4901L6.12 11.9701H8.57L6.53 9.30012L10.22 6.47012ZM4.98 12.4101C4.38 12.4101 3.82 12.2601 3.33 11.9801L3.12 12.1401H1.58C2.43 13.0501 3.63 13.6301 4.98 13.6301C6.33 13.6301 7.53 13.0601 8.38 12.1401H6.29C5.89 12.3101 5.45 12.4101 4.98 12.4101ZM10.7 7.57012C8.92 7.57012 8.13 8.54012 8.13 9.42012C8.13 10.1501 8.65 10.8401 10.19 10.8401C11.61 10.8401 12.29 10.3301 12.55 9.79012H10.99C10.87 9.95012 10.7 10.0501 10.33 10.0501C9.9 10.0501 9.72 9.85012 9.72 9.57012C9.72 9.54012 9.72 9.50012 9.73 9.47012H12.69C12.76 9.29012 12.79 9.13012 12.79 8.91012C12.78 8.17012 12.16 7.57012 10.7 7.57012ZM11.26 8.82012H9.91C10 8.52012 10.26 8.32012 10.68 8.32012C11.07 8.32012 11.27 8.46012 11.27 8.72012C11.28 8.74012 11.27 8.78012 11.26 8.82012ZM1.84 10.3301C1.67 9.92012 1.57 9.47012 1.57 9.00012C1.57 8.29012 1.79 7.62012 2.16 7.08012L1.56 6.29012H2.9C3.47 5.85012 4.19 5.59012 4.97 5.59012C5.76 5.59012 6.49 5.86012 7.07 6.31012L7.1 6.29012H8.73C7.89 5.13012 6.52 4.37012 4.97 4.37012C2.42 4.37012 0.35 6.44012 0.35 9.00012C0.35 9.75012 0.53 10.4701 0.85 11.1001L1.84 10.3301ZM8.33 8.36012C8.57 8.05012 8.92 7.78012 9.4 7.60012C9.38 7.52012 9.35 7.45012 9.32 7.37012L8.29 8.16012C8.3 8.24012 8.32 8.30012 8.33 8.36012ZM16.77 7.57012C16.06 7.57012 15.66 7.79012 15.41 7.99012C15.43 7.90012 15.46 7.71012 15.47 7.65012H13.89C13.84 7.86012 13.78 8.10012 13.67 8.50012L13.06 10.7501H14.68L15.11 9.15012C15.24 8.65012 15.51 8.43012 15.92 8.43012C16.34 8.43012 16.38 8.65012 16.3 8.95012L15.81 10.7501H17.43L17.94 8.86012C18.17 8.01012 17.7 7.57012 16.77 7.57012ZM8.17 10.1901C8.09 10.4001 7.99 10.6001 7.88 10.7801L8.66 11.8001C8.87 11.5201 9.06 11.2101 9.2 10.8901C8.91 10.8101 8.67 10.6901 8.48 10.5301C8.36 10.4401 8.25 10.3201 8.17 10.1901Z" />
</svg>
