<svg width="24" height="24" viewBox="0 0 24 24" xmlns="http://www.w3.org/2000/svg">
  <path d="M12 15.7999C11.34 15.7999 10.8 16.3399 10.8 16.9999C10.8 17.6599 11.34 18.1999 12 18.1999C12.66 18.1999 13.2 17.6599 13.2 16.9999C13.2 16.3399 12.66 15.7999 12 15.7999ZM11.63 9.1099C10.79 9.3099 10.27 10.1599 10.48 10.9999L11.21 13.9999C11.28 14.2899 11.5 14.5299 11.81 14.5999C12.25 14.7099 12.69 14.4399 12.8 13.9999L13.53 10.9999C13.59 10.7699 13.59 10.5099 13.53 10.2599C13.32 9.4199 12.47 8.9099 11.63 9.1099ZM22.59 18.2999L13.86 3.2199C13.47 2.5499 12.77 2.1499 12 2.1499C11.23 2.1499 10.53 2.5499 10.14 3.2199L1.41001 18.2999C0.96001 19.0699 0.96001 19.9899 1.41001 20.7699C1.86001 21.5399 2.65001 21.9999 3.55001 21.9999H20.46C21.35 21.9999 22.15 21.5399 22.6 20.7699C23.04 19.9899 23.04 19.0699 22.59 18.2999ZM20.86 19.7699C20.81 19.8599 20.69 19.9999 20.46 19.9999H3.54001C3.31001 19.9999 3.19001 19.8499 3.14001 19.7699C3.09001 19.6799 3.02001 19.5099 3.14001 19.2999L11.87 4.2199C11.88 4.1999 11.91 4.1399 12 4.1399C12.09 4.1399 12.12 4.1999 12.13 4.2199L20.86 19.2999C20.98 19.4999 20.91 19.6799 20.86 19.7699Z" />
</svg>
