<svg width="17" height="16" viewBox="0 0 17 16" fill="none" xmlns="http://www.w3.org/2000/svg">
    <path
        d="M14.2 9.11C13.31 8.66 12.75 7.77 12.75 6.77V6C12.75 4.03 11.31 2.4 9.44 2.07C9.44 2.05 9.45 2.03 9.45 2C9.45 1.61 9.14 1.3 8.75 1.3C8.36 1.3 8.05 1.61 8.05 2C8.05 2.02 8.06 2.05 8.06 2.07C6.19 2.4 4.75 4.03 4.75 6V6.76C4.75 7.76 4.2 8.66 3.3 9.1L2.75 9.38V10H10.25C10.25 10.55 9.8 11 9.25 11H2.75V12.2C2.75 13.19 3.56 14 4.55 14H7.75C7.75 14.55 8.2 15 8.75 15C9.3 15 9.75 14.55 9.75 14H12.95C13.94 14 14.75 13.19 14.75 12.2V9.38L14.2 9.11Z"
        fill="#F06C7D" />
</svg>