<svg width="17" height="16" viewBox="0 0 17 16" fill="none" xmlns="http://www.w3.org/2000/svg">
    <path
        d="M8.49994 1.13037C8.85194 1.13037 9.20391 1.22159 9.51947 1.40381L13.7031 3.81885C14.3338 4.18328 14.7225 4.8559 14.7226 5.58447V10.4155C14.7226 11.1434 14.3339 11.8167 13.7031 12.1812L9.51947 14.5962C9.20391 14.7784 8.85194 14.8696 8.49994 14.8696C8.14794 14.8696 7.79596 14.7784 7.48041 14.5962L3.29681 12.1812C2.66595 11.8175 2.27728 11.1434 2.27728 10.4155V5.58447C2.27742 4.8559 2.66607 4.18328 3.29681 3.81885L7.48041 1.40381C7.79596 1.22159 8.14794 1.13037 8.49994 1.13037ZM7.89545 5.09424L6.28021 9.17822H3.16693V10.478H7.164L7.32709 10.0679L8.49994 7.10107L9.67377 10.0679L10.1689 11.3208L10.8417 10.1528L11.1669 9.5874L11.4921 10.1528L11.6796 10.478H13.8339V9.17822H12.4316L11.7304 7.96045L11.1669 6.98096L10.6035 7.96045L10.3867 8.33545L9.10443 5.09424L8.49994 3.56592L7.89545 5.09424Z"
        fill="#ABA8DF" />
</svg>