<svg width="13" height="12" viewBox="0 0 13 12" fill="none" xmlns="http://www.w3.org/2000/svg">
    <path
        d="M0.75 11.8C0.75 11.9105 0.839543 12 0.95 12H5.95C6.06046 12 6.15 11.9105 6.15 11.8V7.2C6.15 7.08954 6.06046 7 5.95 7H0.95C0.839543 7 0.75 7.08954 0.75 7.2V11.8ZM0.75 4.8C0.75 4.91046 0.839543 5 0.95 5H5.95C6.06046 5 6.15 4.91046 6.15 4.8V0.2C6.15 0.0895429 6.06046 0 5.95 0H0.95C0.839543 0 0.75 0.089543 0.75 0.2V4.8ZM7.35 11.8C7.35 11.9105 7.43954 12 7.55 12H12.55C12.6605 12 12.75 11.9105 12.75 11.8V7.2C12.75 7.08954 12.6605 7 12.55 7H7.55C7.43954 7 7.35 7.08954 7.35 7.2V11.8ZM7.55 0C7.43954 0 7.35 0.089543 7.35 0.2V4.8C7.35 4.91046 7.43954 5 7.55 5H12.55C12.6605 5 12.75 4.91046 12.75 4.8V0.2C12.75 0.0895429 12.6605 0 12.55 0H7.55Z"
        fill="#BD81AC" />
</svg>