<svg width="17" height="16" viewBox="0 0 17 16" fill="none" xmlns="http://www.w3.org/2000/svg">
    <path
        d="M6.47761 5.89762C6.58123 5.59417 7.02022 5.59417 7.12384 5.89762L7.73145 7.67877C7.86519 8.07031 8.09053 8.42606 8.38959 8.71783C8.68866 9.00959 9.05323 9.22935 9.45442 9.35969L11.2782 9.95279C11.5891 10.0539 11.5891 10.4824 11.2782 10.5836L9.45348 11.1767C9.05236 11.3072 8.68791 11.5272 8.38901 11.8191C8.09011 12.1111 7.86497 12.4669 7.73145 12.8585L7.12384 14.6388C7.1015 14.7052 7.05823 14.7631 7.00021 14.8041C6.94219 14.8451 6.87237 14.8672 6.80073 14.8672C6.72908 14.8672 6.65927 14.8451 6.60124 14.8041C6.54322 14.7631 6.49995 14.7052 6.47761 14.6388L5.87 12.8576C5.73635 12.4662 5.51116 12.1105 5.21227 11.8187C4.91338 11.527 4.54899 11.3072 4.14797 11.1767L2.32326 10.5836C2.25519 10.5618 2.19591 10.5196 2.15389 10.4629C2.11186 10.4063 2.08923 10.3381 2.08923 10.2682C2.08923 10.1983 2.11186 10.1301 2.15389 10.0735C2.19591 10.0168 2.25519 9.9746 2.32326 9.95279L4.14797 9.35969C4.54899 9.22923 4.91338 9.00942 5.21227 8.71766C5.51116 8.4259 5.73635 8.07021 5.87 7.67877L6.47761 5.89762ZM10.3748 1.20888C10.3883 1.16906 10.4143 1.13441 10.4492 1.10985C10.484 1.08529 10.5259 1.07207 10.5688 1.07207C10.6118 1.07207 10.6537 1.08529 10.6885 1.10985C10.7234 1.13441 10.7494 1.16906 10.7629 1.20888L11.1275 2.27739C11.2904 2.75371 11.6729 3.12704 12.1609 3.28612L13.2555 3.64199C13.2963 3.65517 13.3318 3.68057 13.357 3.71458C13.3821 3.74858 13.3957 3.78946 13.3957 3.83141C13.3957 3.87336 13.3821 3.91424 13.357 3.94825C13.3318 3.98225 13.2963 4.00765 13.2555 4.02084L12.1609 4.3767C11.9202 4.45497 11.7015 4.58687 11.5222 4.76196C11.3428 4.93705 11.2076 5.15052 11.1275 5.38544L10.7629 6.45394C10.7494 6.49376 10.7234 6.52841 10.6885 6.55298C10.6537 6.57754 10.6118 6.59076 10.5688 6.59076C10.5259 6.59076 10.484 6.57754 10.4492 6.55298C10.4143 6.52841 10.3883 6.49376 10.3748 6.45394L10.0102 5.38544C9.93004 5.15052 9.79491 4.93705 9.61553 4.76196C9.43616 4.58687 9.21748 4.45497 8.97681 4.3767L7.88217 4.02084C7.84138 4.00765 7.80588 3.98225 7.78072 3.94825C7.75556 3.91424 7.74201 3.87336 7.74201 3.83141C7.74201 3.78946 7.75556 3.74858 7.78072 3.71458C7.80588 3.68057 7.84138 3.65517 7.88217 3.64199L8.97681 3.28612C9.21748 3.20786 9.43616 3.07595 9.61553 2.90086C9.79491 2.72577 9.93004 2.51231 10.0102 2.27739L10.3748 1.20888Z"
        fill="#0EB6F0" />
</svg>