<svg width="17" height="16" viewBox="0 0 17 16" fill="none" xmlns="http://www.w3.org/2000/svg">
    <path
        d="M13.1526 13.9693C14.1222 12.9996 14.7826 11.7642 15.0501 10.4193C15.3176 9.07436 15.1803 7.68029 14.6555 6.41339C14.1308 5.14649 13.2421 4.06365 12.1019 3.30181C10.9618 2.53996 9.62127 2.13333 8.24998 2.13333C6.8787 2.13333 5.53821 2.53996 4.39803 3.30181C3.25785 4.06365 2.36919 5.14649 1.84442 6.41339C1.31965 7.68029 1.18235 9.07436 1.44987 10.4193C1.7174 11.7642 2.37773 12.9996 3.34738 13.9693L4.67108 12.6456C3.96324 11.9377 3.48119 11.0359 3.2859 10.0541C3.09061 9.07228 3.19084 8.05461 3.57392 7.12978C3.957 6.20494 4.60573 5.41447 5.43806 4.85832C6.27039 4.30217 7.24895 4.00533 8.24998 4.00533C9.25102 4.00533 10.2296 4.30217 11.0619 4.85832C11.8942 5.41447 12.543 6.20494 12.926 7.12978C13.3091 8.05461 13.4094 9.07228 13.2141 10.0541C13.0188 11.0359 12.5367 11.9377 11.8289 12.6456L13.1526 13.9693Z"
        fill="#BBFFD6" />
    <path
        d="M16.1083 10.5657C16.0515 10.8639 15.7792 11.0712 15.4766 11.0476L9.16981 10.5563C8.63819 10.9234 7.96597 11.0862 7.28126 10.9556C5.925 10.6968 5.03529 9.38763 5.29403 8.03138C5.55277 6.67513 6.86197 5.78542 8.21823 6.04415C9.31389 6.25318 10.1048 7.14781 10.2319 8.19894L15.6984 9.88502C15.9884 9.97457 16.1652 10.2675 16.1083 10.5657Z"
        fill="#00EF5F" />
</svg>